<?xml version="1.0" encoding="utf-8" standalone="no"?>
<!DOCTYPE svg PUBLIC "-//W3C//DTD SVG 1.1//EN"
  "http://www.w3.org/Graphics/SVG/1.1/DTD/svg11.dtd">
<svg xmlns:xlink="http://www.w3.org/1999/xlink" width="371.52pt" height="170.423019pt" viewBox="0 0 371.52 170.423019" xmlns="http://www.w3.org/2000/svg" version="1.1">
 <metadata>
  <rdf:RDF xmlns:dc="http://purl.org/dc/elements/1.1/" xmlns:cc="http://creativecommons.org/ns#" xmlns:rdf="http://www.w3.org/1999/02/22-rdf-syntax-ns#">
   <cc:Work>
    <dc:type rdf:resource="http://purl.org/dc/dcmitype/StillImage"/>
    <dc:date>2025-04-17T08:30:05.499195</dc:date>
    <dc:format>image/svg+xml</dc:format>
    <dc:creator>
     <cc:Agent>
      <dc:title>Matplotlib v3.8.4, https://matplotlib.org/</dc:title>
     </cc:Agent>
    </dc:creator>
   </cc:Work>
  </rdf:RDF>
 </metadata>
 <defs>
  <style type="text/css">*{stroke-linejoin: round; stroke-linecap: butt}</style>
 </defs>
 <g id="figure_1">
  <g id="patch_1">
   <path d="M 0 170.423019 
L 371.52 170.423019 
L 371.52 0 
L 0 0 
z
" style="fill: #ffffff"/>
  </g>
  <g id="axes_1">
   <g id="patch_2">
    <path d="M 7.2 163.223019 
L 364.32 163.223019 
L 364.32 7.2 
L 7.2 7.2 
z
" style="fill: #ffffff"/>
   </g>
   <g id="matplotlib.axis_1"/>
   <g id="matplotlib.axis_2"/>
   <g id="LineCollection_1">
    <path d="M 113.462146 163.223019 
L 110.276457 161.729897 
L 111.307403 159.162142 
L 109.633402 159.831055 
L 106.467476 158.748713 
L 107.414158 158.6446 
L 106.289553 157.098415 
L 107.921521 156.380337 
L 107.056532 154.81472 
L 108.477841 154.598789 
L 105.313003 154.64725 
L 106.047245 153.734748 
L 102.945408 154.966503 
L 101.644759 153.631289 
L 104.026793 153.894898 
L 104.431893 152.125089 
L 101.596198 153.143011 
L 100.871648 151.604361 
L 101.482759 153.646823 
L 100.105065 152.069902 
L 98.86346 155.222155 
L 97.853086 152.028216 
L 98.830328 149.934361 
L 97.782866 151.97273 
L 95.875853 151.066907 
L 96.91936 151.139632 
L 95.854194 150.729218 
L 96.91936 149.306971 
L 94.703776 150.961998 
L 93.75383 149.018157 
L 91.776202 149.404107 
L 90.87996 148.150037 
L 89.465178 149.162427 
L 88.287661 146.958131 
L 87.034979 148.086084 
L 85.695066 146.76426 
L 85.252186 148.922162 
L 82.724371 149.018746 
L 81.935338 145.652098 
L 78.014005 144.285635 
L 83.66957 143.291542 
L 83.987933 142.02118 
L 82.004865 140.44097 
L 80.385556 141.785717 
L 79.396742 139.572792 
L 80.654567 138.378329 
L 80.600567 139.515421 
L 85.564714 140.221472 
L 83.198899 138.906437 
L 84.111757 138.117741 
L 81.686601 138.679459 
L 83.702009 136.751778 
L 77.56529 138.638401 
L 77.494378 135.212129 
L 80.114369 134.15976 
L 80.557348 132.607396 
L 87.493287 130.841352 
L 89.464783 132.969832 
L 89.929322 131.072829 
L 92.813972 132.02201 
L 93.893182 128.74449 
L 95.449095 129.433478 
L 97.621162 128.071259 
L 97.804426 129.335124 
L 99.576438 127.808546 
L 98.819548 130.434486 
L 100.374769 129.023478 
L 104.631772 135.419156 
L 109.396435 131.613083 
L 109.168863 132.986589 
L 110.335205 132.495136 
L 110.7676 133.900903 
L 112.895064 132.61009 
L 113.857174 134.63575 
L 113.105723 132.39005 
L 114.375317 131.367046 
L 115.563615 131.186899 
L 116.493385 133.31344 
L 121.862334 132.724581 
L 119.101903 130.556278 
L 119.393563 121.158163 
L 115.97989 118.093628 
L 114.310933 111.025829 
L 118.426705 112.69499 
L 123.050236 111.608885 
L 122.472257 114.58602 
L 124.995424 119.047214 
L 126.583085 117.620666 
L 136.251762 120.223152 
L 139.460215 119.012918 
L 145.762099 115.96768 
L 141.711799 116.066926 
L 140.308193 115.251959 
L 142.127382 111.292011 
L 146.977693 108.532125 
L 153.622071 107.206994 
L 159.163801 101.317131 
L 161.053604 101.849212 
L 159.411548 99.940457 
L 159.984087 87.786294 
L 171.867755 83.601328 
L 184.915589 76.715621 
L 188.868273 78.256174 
L 190.985945 76.733538 
L 194.557266 77.890748 
L 190.985945 75.658573 
L 188.890526 77.199729 
L 183.931819 74.123497 
L 189.171108 72.585455 
L 194.274211 76.212072 
L 194.347002 74.002657 
L 191.105121 72.941944 
L 194.011727 73.176717 
L 192.662517 71.741384 
L 199.683512 70.365009 
L 192.045968 67.78984 
L 191.410132 65.119998 
L 193.057529 65.125295 
L 199.230149 54.310516 
L 200.818798 43.760955 
L 202.654602 45.373769 
L 204.749922 44.334866 
L 205.928132 48.242689 
L 208.045408 48.600195 
L 206.910121 50.837535 
L 204.544306 50.98876 
L 204.782361 54.488454 
L 206.101011 54.576436 
L 203.378756 56.223199 
L 207.559012 57.790078 
L 205.819736 56.276994 
L 210.237354 52.597435 
L 215.218413 51.96657 
L 211.891872 50.311641 
L 213.511972 46.45638 
L 208.908914 45.616024 
L 208.60687 41.416655 
L 209.989904 38.35547 
L 215.661688 34.47674 
L 219.561065 35.771235 
L 221.083549 35.780345 
L 219.604284 34.323469 
L 227.781928 32.990729 
L 231.438897 37.493206 
L 234.546471 36.143833 
L 235.756032 38.245955 
L 234.590087 36.089692 
L 230.327743 35.525735 
L 231.407941 30.34846 
L 233.924679 28.24732 
L 242.604147 27.448609 
L 245.422633 31.309948 
L 244.062148 32.908989 
L 245.822688 34.332427 
L 247.215118 33.12678 
L 246.708843 29.773153 
L 250.327043 31.328256 
L 249.720581 35.06736 
L 250.607922 31.328921 
L 249.397965 27.923142 
L 251.828956 23.578909 
L 253.492573 24.897992 
L 259.535138 24.756531 
L 263.138899 29.72714 
L 266.833451 31.528782 
L 263.333042 29.564407 
L 258.612588 23.01044 
L 254.92931 22.671643 
L 253.999936 20.578646 
L 256.191388 20.642294 
L 256.332223 19.25216 
L 253.633013 17.279105 
L 255.620333 14.229807 
L 250.607527 14.580891 
L 251.438989 12.440256 
L 256.310267 10.461291 
L 253.631925 10.833737 
L 255.771553 9.456902 
L 250.024208 7.331537 
L 250.247578 7.2 
L 250.247578 7.2 
" clip-path="url(#p0274a5e7fe)" style="fill: none; stroke: #000000; stroke-width: 0.2"/>
    <path d="M 269.152974 7.2 
L 269.469266 8.990105 
L 267.069627 10.907255 
L 271.208542 10.675109 
L 270.948926 14.163678 
L 273.303862 11.5292 
L 278.230624 14.459358 
L 283.771265 12.59722 
L 283.275474 16.873096 
L 278.889207 20.024829 
L 280.605736 22.149009 
L 284.388112 20.8625 
L 288.038653 23.451177 
L 289.993929 18.95735 
L 288.698027 19.841329 
L 290.826084 17.82293 
L 296.118681 17.196126 
L 296.972099 19.177961 
L 296.216593 17.241588 
L 301.737553 10.526327 
L 307.515854 11.576815 
L 300.655871 12.866917 
L 300.461728 15.7735 
L 302.336993 12.950629 
L 304.241039 12.602825 
L 305.474534 13.607833 
L 308.261569 11.511173 
L 309.396262 15.061611 
L 313.943046 19.28049 
L 317.346235 17.611453 
L 317.671422 20.650881 
L 319.852786 22.92865 
L 318.599016 24.724682 
L 324.291965 26.616419 
L 323.946701 27.913453 
L 325.22134 27.055432 
L 328.607716 29.999686 
L 327.953781 27.740041 
L 330.82686 22.873559 
L 330.428585 20.678493 
L 348.728368 15.699695 
L 353.739987 9.223022 
L 359.473625 7.2 
" clip-path="url(#p0274a5e7fe)" style="fill: none; stroke: #000000; stroke-width: 0.2"/>
    <path d="M 139.459819 89.53017 
L 139.395039 89.531421 
L 135.851707 88.65902 
L 129.17568 90.913367 
L 127.565767 89.728517 
L 128.91646 88.676557 
L 124.185226 88.385272 
L 124.616237 89.872403 
L 120.273981 86.895829 
L 122.045993 89.616835 
L 119.345299 91.255107 
L 112.970624 90.708546 
L 114.148537 93.495581 
L 108.002126 92.686812 
L 107.613939 95.153697 
L 103.248243 90.999282 
L 95.90315 93.266221 
L 94.390852 91.596725 
L 95.050523 93.240196 
L 92.996544 94.651987 
L 94.121149 94.669571 
L 93.839577 98.587234 
L 91.722202 96.927883 
L 93.25695 98.78961 
L 92.230257 101.132596 
L 90.610256 101.131977 
L 90.50186 99.91616 
L 89.962058 101.249441 
L 88.448969 98.900853 
L 86.936968 99.645134 
L 84.830175 97.503659 
L 84.711296 99.30636 
L 83.500646 98.273823 
L 77.797609 98.848796 
L 77.224675 101.140324 
L 74.514288 102.801407 
L 74.438728 100.700639 
L 73.239254 101.402123 
L 74.114233 102.69231 
L 71.932078 103.736788 
L 73.876574 104.56161 
L 71.996561 106.418087 
L 68.291229 103.00352 
L 67.168206 104.53635 
L 65.363754 104.308522 
L 65.883381 102.236502 
L 68.983735 101.975237 
L 72.6231 98.553294 
L 74.157453 94.447339 
L 76.684872 95.008267 
L 75.454542 93.648561 
L 77.267895 93.427963 
L 80.293776 89.675493 
L 80.768699 84.743943 
L 83.155679 85.420404 
L 86.731352 83.557723 
L 84.788043 83.643199 
L 84.61368 81.319875 
L 90.39386 80.12133 
L 95.319831 81.4319 
L 99.834966 81.51804 
L 100.84 77.157256 
L 104.59864 75.112216 
L 108.553797 69.440507 
L 107.81817 68.321721 
L 104.307673 73.158574 
L 101.779462 74.183116 
L 100.786395 73.105894 
L 98.36658 76.818994 
L 95.340699 77.304317 
L 91.204355 75.249907 
L 89.789277 72.131809 
L 83.630998 73.558279 
L 84.430021 71.732777 
L 86.532956 71.511516 
L 83.317778 71.079685 
L 83.264075 68.593146 
L 75.291355 72.828277 
L 73.012771 71.061502 
L 76.068421 70.284237 
L 73.389782 69.884266 
L 72.331836 71.069796 
L 71.327495 69.893529 
L 73.20721 69.08973 
L 72.990815 67.430924 
L 70.484956 67.273355 
L 73.735442 63.671402 
L 76.869323 63.899489 
L 78.122796 61.861626 
L 84.960428 58.752092 
L 86.839451 53.085952 
L 88.41732 52.623623 
L 85.911066 51.468021 
L 88.071661 48.654266 
L 86.807704 49.018798 
L 85.650758 47.170333 
L 86.850528 44.70995 
L 82.48592 45.336721 
L 80.735864 47.840905 
L 77.636302 47.456939 
L 85.025307 38.463651 
L 89.508398 36.647679 
L 89.983322 37.786942 
L 89.205167 35.690403 
L 92.705576 36.739348 
L 96.508129 35.345461 
L 99.554878 38.020938 
L 97.902437 34.630815 
L 99.986186 33.48052 
L 102.08299 36.721147 
L 104.707332 35.373797 
L 101.995561 35.799723 
L 99.175988 31.218571 
L 100.818439 27.941516 
L 102.806847 27.521643 
L 100.169845 26.918984 
L 99.802922 24.651259 
L 99.910626 22.984073 
L 100.980835 24.349121 
L 100.580384 22.78235 
L 102.504012 22.046296 
L 102.632188 20.265734 
L 102.104253 21.505643 
L 101.53033 20.541264 
L 103.172287 15.949863 
L 101.455066 17.990286 
L 99.890054 16.226524 
L 98.603844 19.906375 
L 97.772382 15.671932 
L 96.346128 17.076123 
L 92.241136 9.976951 
L 93.309664 7.2 
L 93.309664 7.2 
" clip-path="url(#p0274a5e7fe)" style="fill: none; stroke: #000000; stroke-width: 0.2"/>
    <path d="M 76.491451 7.2 
L 76.501312 7.228342 
L 76.480109 7.2 
" clip-path="url(#p0274a5e7fe)" style="fill: none; stroke: #000000; stroke-width: 0.2"/>
    <path d="M 123.953742 7.2 
L 123.741258 8.356699 
L 124.490073 7.2 
" clip-path="url(#p0274a5e7fe)" style="fill: none; stroke: #000000; stroke-width: 0.2"/>
    <path d="M 125.434158 7.2 
L 132.113341 10.619957 
L 134.738673 15.820556 
L 138.454786 18.607772 
L 136.660817 20.688259 
L 139.459819 26.451965 
L 139.460215 26.452634 
L 140.885776 30.665126 
L 139.459819 29.961517 
L 138.119609 29.299739 
L 136.02419 26.909953 
L 129.337779 27.940848 
L 130.169538 29.226179 
L 131.493429 27.838612 
L 135.656179 27.54905 
L 136.553509 28.926206 
L 139.459819 31.265343 
L 141.630403 32.671868 
L 144.09413 39.274358 
L 139.459819 45.397539 
L 139.362204 45.526047 
L 139.459819 45.471466 
L 139.826347 45.266882 
L 144.319922 47.716476 
L 146.524429 43.545811 
L 156.332854 44.478125 
L 161.421912 48.849942 
L 162.350297 54.22121 
L 159.952834 62.556855 
L 156.570513 65.811705 
L 154.604457 63.723968 
L 156.041491 65.277767 
L 153.210544 65.399405 
L 156.192809 65.470006 
L 155.480523 68.216936 
L 152.985049 69.221906 
L 152.033323 67.52635 
L 152.293037 68.872007 
L 148.436782 70.08547 
L 151.611707 69.735411 
L 150.609542 72.359933 
L 151.548312 72.923956 
L 142.754613 75.527292 
L 148.44687 75.36376 
L 146.253637 77.105273 
L 148.512046 77.322064 
L 149.181804 75.934886 
L 151.201168 76.58623 
L 151.213136 77.875228 
L 149.21464 77.156622 
L 151.082784 78.151373 
L 157.95325 77.044727 
L 157.533019 82.009015 
L 152.930357 84.175402 
L 152.09929 87.0163 
L 149.440728 86.536367 
L 142.570953 90.674952 
L 139.459819 89.53017 
" clip-path="url(#p0274a5e7fe)" style="fill: none; stroke: #000000; stroke-width: 0.2"/>
    <path d="M 35.754425 67.317234 
L 35.732864 67.334688 
L 33.464269 68.888793 
L 32.2644 68.251332 
L 33.486225 67.264707 
L 29.769717 66.441518 
L 32.178356 68.601302 
L 31.260553 70.337075 
L 28.818782 70.73861 
L 28.840343 72.602335 
L 25.880824 71.819163 
L 26.506275 73.367199 
L 24.281296 72.288571 
L 23.828625 74.009017 
L 20.975326 73.50578 
L 18.276115 75.519989 
L 18.589039 73.948592 
L 17.389961 74.930186 
L 16.84907 73.558279 
L 12.744474 75.970114 
L 11.869792 75.19893 
L 15.737124 72.402143 
L 11.674957 73.96672 
L 16.849466 70.024475 
L 7.699624 72.489265 
L 15.585509 66.817954 
L 8.099284 69.884266 
L 7.2 69.259635 
" clip-path="url(#p0274a5e7fe)" style="fill: none; stroke: #000000; stroke-width: 0.2"/>
    <path d="M 7.2 67.973043 
L 7.386305 67.404024 
L 7.2 67.543654 
" clip-path="url(#p0274a5e7fe)" style="fill: none; stroke: #000000; stroke-width: 0.2"/>
    <path d="M 7.2 64.133018 
L 12.949694 61.043213 
L 7.2 61.899444 
" clip-path="url(#p0274a5e7fe)" style="fill: none; stroke: #000000; stroke-width: 0.2"/>
    <path d="M 7.2 58.332149 
L 7.472745 58.195214 
L 7.451481 59.483533 
L 8.682998 59.130807 
L 9.568065 57.718251 
L 10.368175 59.448977 
L 13.402661 58.909639 
L 11.393781 58.556535 
L 11.9771 56.295141 
L 10.486362 55.498617 
L 14.559607 54.408581 
L 14.710135 52.028748 
L 16.589455 52.77456 
L 26.711891 50.490342 
L 23.212569 49.829992 
L 23.37457 47.608058 
L 20.630754 51.281201 
L 18.751434 51.921969 
L 19.269578 50.801355 
L 17.411917 51.584297 
L 15.121366 50.195859 
L 13.738233 52.028097 
L 10.594362 52.535294 
L 16.362575 48.350217 
L 18.415863 44.271517 
L 16.579762 44.325184 
L 19.280358 39.796956 
L 23.698273 40.058144 
L 24.357647 38.554315 
L 22.164316 38.400396 
L 23.666229 37.270982 
L 22.337492 37.064584 
L 15.942344 38.310212 
L 15.531509 36.847718 
L 14.796179 38.075132 
L 15.510641 34.803435 
L 12.701551 36.756887 
L 11.005594 36.042667 
L 11.880275 33.806903 
L 10.367483 35.111285 
L 7.440998 34.215301 
L 9.513768 32.800157 
L 7.342789 30.973691 
L 14.051947 29.854505 
L 10.919154 28.889162 
L 11.026462 26.461 
L 15.650388 25.639638 
L 15.315113 23.432376 
L 10.507923 24.101905 
L 10.994714 22.222633 
L 12.430759 23.185249 
L 10.940022 20.521562 
L 11.934572 18.644221 
L 10.09778 19.951703 
L 11.04911 18.717114 
L 9.806812 16.327523 
L 8.16446 19.279815 
L 8.347427 15.930738 
L 9.71968 14.551907 
L 11.221297 15.393917 
L 10.260175 16.56771 
L 12.981738 15.735921 
L 11.523737 14.598179 
L 12.614419 13.718961 
L 19.26849 14.441389 
L 20.910546 18.229362 
L 22.03436 14.811708 
L 29.03409 16.586652 
L 27.554529 15.671255 
L 29.498629 15.19238 
L 28.224287 14.580382 
L 29.132398 14.06244 
L 26.885067 13.340222 
L 33.108126 10.218812 
L 32.178356 9.66056 
L 33.980215 7.2 
" clip-path="url(#p0274a5e7fe)" style="fill: none; stroke: #000000; stroke-width: 0.2"/>
    <path d="M 33.354487 7.2 
L 29.682288 8.721307 
L 30.655179 7.210914 
L 26.85233 7.565391 
L 26.535608 7.2 
" clip-path="url(#p0274a5e7fe)" style="fill: none; stroke: #000000; stroke-width: 0.2"/>
    <path d="M 63.139732 7.2 
L 62.858587 7.630121 
L 64.15445 7.2 
" clip-path="url(#p0274a5e7fe)" style="fill: none; stroke: #000000; stroke-width: 0.2"/>
    <path d="M 67.547885 7.2 
L 69.058207 10.517474 
L 68.096789 13.959834 
L 67.372734 9.492354 
L 65.796249 8.357211 
L 65.795853 13.060988 
L 67.849437 14.413079 
L 66.065952 16.34647 
L 64.002577 15.060933 
L 63.05273 18.975905 
L 60.901927 20.75274 
L 58.071573 18.874523 
L 59.887201 21.744478 
L 56.506264 20.962821 
L 58.882167 25.785317 
L 57.284122 27.540527 
L 60.654872 31.074248 
L 59.034079 33.035417 
L 61.000234 35.282821 
L 58.665771 35.33817 
L 60.502959 37.200534 
L 61.756433 43.751431 
L 57.067726 57.019432 
L 55.101571 56.859624 
L 56.084253 58.494789 
L 56.938462 57.285232 
L 57.607133 59.26261 
L 56.991671 60.735741 
L 54.031757 60.787988 
L 51.428381 60.056593 
L 51.785909 58.777948 
L 49.667545 61.773035 
L 49.128138 59.254211 
L 48.393203 61.579556 
L 40.37756 62.124289 
L 41.728253 63.224069 
L 41.101418 64.488177 
L 39.167702 65.653544 
L 37.223602 64.496208 
L 37.44969 66.836059 
L 35.754425 67.317234 
" clip-path="url(#p0274a5e7fe)" style="fill: none; stroke: #000000; stroke-width: 0.2"/>
    <path d="M 294.690634 7.2 
L 294.650592 8.888462 
L 293.953371 7.2 
" clip-path="url(#p0274a5e7fe)" style="fill: none; stroke: #000000; stroke-width: 0.2"/>
    <path d="M 289.056555 7.2 
L 288.621675 8.087032 
L 287.096163 7.2 
" clip-path="url(#p0274a5e7fe)" style="fill: none; stroke: #000000; stroke-width: 0.2"/>
    <path d="M 199.71694 70.369638 
L 201.524656 68.636163 
L 200.631578 69.794189 
L 202.050316 70.398689 
L 199.789039 70.352239 
L 199.71694 70.369638 
" clip-path="url(#p0274a5e7fe)" style="fill: none; stroke: #000000; stroke-width: 0.2"/>
   </g>
   <g id="LineCollection_2">
    <path d="M 296.231428 99.021531 
L 299.252562 102.157759 
L 301.740718 97.576577 
L 302.517488 97.512813 
L 303.294159 97.449045 
L 304.070928 97.385273 
L 304.847698 97.321497 
L 305.624369 97.257561 
L 306.401139 97.193932 
L 307.17781 97.129987 
L 307.793865 97.079388 
L 308.470844 96.478508 
L 309.147921 95.876943 
L 309.824999 95.275157 
L 310.501977 94.672994 
L 311.179055 94.070455 
L 311.856033 93.467537 
L 312.53311 92.864085 
L 312.907056 92.530715 
L 314.034134 93.342265 
L 315.186431 91.167029 
L 315.963102 91.101745 
L 316.739872 91.036457 
L 317.516543 90.971321 
L 318.293214 90.906181 
L 319.069885 90.84088 
L 319.114983 90.837131 
L 319.748742 89.476665 
L 320.509589 89.221148 
L 321.270436 88.965562 
L 322.031282 88.709752 
L 322.792129 88.45403 
L 323.552877 88.19824 
L 324.313724 87.942224 
L 325.07457 87.686454 
L 325.835417 87.430302 
L 326.007109 87.372603 
L 324.264273 85.423861 
L 324.908812 84.08431 
L 327.497847 84.176032 
L 328.970683 88.102986 
L 330.882739 88.912652 
L 333.975873 87.903362 
L 334.191874 84.593938 
L 336.14715 84.782935 
L 336.655798 85.717933 
L 337.164348 86.652018 
L 337.672997 87.585193 
L 338.181547 88.517458 
L 338.690097 89.448817 
L 338.829844 89.70443 
L 339.605823 89.788889 
L 340.381702 89.873341 
L 341.157681 89.957942 
L 341.933659 90.042379 
L 342.709638 90.126809 
L 343.485518 90.211231 
L 344.261496 90.295646 
L 344.479573 90.319406 
L 346.996608 93.331046 
L 348.278565 92.138881 
L 351.666919 92.473947 
L 352.678876 93.93218 
L 349.520863 96.921208 
L 350.150171 97.63832 
L 350.779479 98.355053 
L 351.408787 99.071255 
L 352.037997 99.786925 
L 352.667404 100.502065 
L 353.296613 101.216522 
L 353.92602 101.930605 
L 354.555229 102.644007 
L 355.184636 103.357038 
L 355.192252 103.365674 
L 355.934703 103.004445 
L 356.677253 102.642773 
L 357.419605 102.281274 
L 358.162155 101.919331 
L 358.904606 101.557562 
L 359.647057 101.195502 
L 360.222662 100.914631 
L 358.411386 96.649805 
L 359.178562 96.851501 
L 359.94564 97.053 
L 360.712816 97.254457 
L 361.479894 97.456027 
L 362.246971 97.657555 
L 362.455257 97.712158 
L 364.32 99.411925 
" clip-path="url(#p0274a5e7fe)" style="fill: none; stroke: #000000; stroke-width: 0.2"/>
    <path d="M 237.835924 153.086413 
L 236.824066 150.809462 
L 238.286023 145.605861 
L 237.706265 142.756569 
L 238.04421 141.706673 
L 238.382155 140.65567 
L 238.720199 139.603408 
L 239.058145 138.550329 
L 239.39609 137.495836 
L 239.734035 136.440521 
L 240.071981 135.383784 
L 240.410025 134.326069 
L 240.74797 133.267224 
L 240.972278 132.563841 
L 241.575971 131.821312 
L 242.179565 131.078226 
L 242.783257 130.334581 
L 243.38695 129.590375 
L 243.990643 128.845608 
L 244.594336 128.100278 
L 245.197929 127.354384 
L 245.801622 126.607926 
L 246.117908 126.216483 
L 245.347666 126.05257 
L 244.577325 125.888328 
L 243.807082 125.72436 
L 243.036741 125.560064 
L 242.266499 125.396041 
L 241.496158 125.23169 
L 240.725915 125.067462 
L 239.955574 124.903206 
L 239.185233 124.738923 
L 238.649683 124.624709 
L 235.754549 122.017249 
L 233.932592 123.316253 
L 230.771018 123.305375 
L 229.301841 121.141053 
L 226.712806 122.226609 
L 226.253113 121.266574 
L 225.793421 120.3056 
L 225.333827 119.343682 
L 224.874134 118.380818 
L 224.414442 117.417007 
L 224.246211 117.063848 
L 221.934396 116.38271 
L 222.26255 115.297202 
L 222.590704 114.210334 
L 222.918858 113.122406 
L 223.247012 112.033263 
L 223.575166 110.942901 
L 223.90332 109.851316 
L 224.037332 109.405144 
L 220.515659 107.930952 
L 218.700822 104.370298 
L 219.485801 100.852789 
L 222.402495 99.010223 
L 222.092836 96.627288 
L 219.637021 94.895485 
L 220.749758 92.945149 
L 217.609744 91.007717 
L 218.279503 86.9043 
L 215.478029 84.273407 
L 216.206831 83.841354 
L 216.935634 83.408791 
L 217.664437 82.976347 
L 218.39324 82.543549 
L 219.122042 82.110554 
L 219.439021 81.922289 
L 218.229064 80.2098 
L 220.126779 77.635437 
L 219.728603 76.564664 
L 219.330427 75.492682 
L 218.93235 74.41949 
L 218.534174 73.345082 
L 218.135998 72.269455 
L 217.737821 71.192765 
L 217.339744 70.114689 
L 216.941568 69.035384 
L 216.569106 68.024775 
L 219.40302 67.768393 
L 219.251801 66.333639 
L 222.470935 67.960606 
L 223.229309 67.681155 
L 223.987683 67.401462 
L 224.746057 67.121846 
L 225.504432 66.842147 
L 226.262806 66.562365 
L 226.914466 66.321937 
L 227.998323 64.820759 
L 226.208608 62.942407 
L 226.911301 62.399757 
L 227.613994 61.856794 
L 228.316686 61.313518 
L 229.01928 60.769927 
L 229.721973 60.226023 
L 230.424666 59.681803 
L 230.889798 59.321399 
L 230.08316 54.61734 
L 227.098125 54.605329 
L 226.169047 52.712431 
L 227.144905 50.53061 
L 230.871798 50.696717 
L 231.190655 49.526979 
L 231.509513 48.355446 
L 231.82837 47.182604 
L 232.147129 46.008285 
L 232.465986 44.83232 
L 232.784843 43.655196 
L 232.999953 42.86014 
L 232.942393 41.570075 
L 232.884833 40.278382 
L 232.827272 38.98456 
L 232.769712 37.689261 
L 232.712151 36.391983 
L 232.704635 36.223467 
L 230.148039 36.024618 
L 228.858961 33.259158 
L 228.117796 32.862799 
L 227.37673 32.466104 
L 226.635564 32.069239 
L 225.894498 31.672369 
L 225.153431 31.274996 
L 224.412266 30.877785 
L 223.671199 30.480237 
L 222.930034 30.082517 
L 222.539374 29.872841 
" clip-path="url(#p0274a5e7fe)" style="fill: none; stroke: #000000; stroke-width: 0.2"/>
    <path d="M 262.75444 163.223019 
L 262.296656 163.163201 
L 262.498316 160.167166 
L 264.85335 156.731331 
L 263.477734 153.94017 
" clip-path="url(#p0274a5e7fe)" style="fill: none; stroke: #000000; stroke-width: 0.2"/>
    <path d="M 265.605889 154.014299 
L 266.344187 152.894163 
L 268.616243 153.801126 
L 270.363234 157.407257 
L 272.091235 156.991794 
L 271.338102 159.032417 
L 274.637248 156.93439 
L 275.21671 152.963383 
L 275.554952 153.950865 
L 276.332809 153.950865 
L 277.110568 153.950865 
L 277.888426 153.950865 
L 278.666185 153.950865 
L 279.443943 153.950865 
L 280.221702 153.950865 
L 280.53156 153.950865 
L 281.773462 156.650973 
L 285.547036 156.599248 
L 286.234696 156.062262 
L 286.922454 155.52499 
L 287.610114 154.987432 
L 288.297873 154.449733 
L 288.985533 153.911601 
L 289.673292 153.373327 
L 290.326534 152.861605 
L 291.104095 152.835205 
L 291.881755 152.809098 
L 292.659316 152.782697 
L 293.436877 152.756589 
L 294.214438 152.730187 
L 294.992098 152.704077 
L 295.769659 152.677673 
L 296.54722 152.651562 
L 297.32488 152.625157 
L 297.559968 152.617235 
L 298.352067 150.043202 
L 298.295001 151.125969 
L 300.743695 150.900722 
L 301.734092 152.178805 
L 305.121457 151.376283 
L 305.514193 153.716578 
L 308.669437 154.787786 
L 309.018163 151.174157 
L 306.824733 150.403764 
L 308.096404 147.899212 
L 307.566986 147.049889 
L 307.037568 146.199549 
L 306.50815 145.348634 
L 305.978732 144.496994 
L 305.449314 143.644479 
L 304.919896 142.791532 
L 304.847896 142.67538 
L 305.57482 142.261034 
L 306.301842 141.846516 
L 307.028766 141.431825 
L 307.755788 141.016961 
L 308.482712 140.601925 
L 309.209734 140.186716 
L 309.936658 139.771333 
L 310.663681 139.355629 
L 311.390604 138.939899 
L 312.117528 138.523996 
L 312.84455 138.107918 
L 313.101594 137.960701 
L 313.792518 134.001644 
L 317.401422 134.9964 
L 318.801467 130.005092 
L 316.101267 126.436548 
L 314.343398 126.588501 
L 313.677001 125.977836 
L 313.010605 125.36649 
L 312.344209 124.754915 
L 311.677813 124.14296 
L 311.011318 123.530473 
L 310.364999 122.936345 
L 308.329811 119.602298 
L 307.598338 119.196824 
L 306.866865 118.791183 
L 306.135392 118.385374 
L 305.40382 117.979548 
L 304.672347 117.57325 
L 303.940873 117.167088 
L 303.634577 116.99679 
L 303.135719 116.078798 
L 302.636862 115.159943 
L 302.138004 114.240223 
L 301.639146 113.319788 
L 301.140289 112.39833 
L 300.641431 111.476 
L 300.239497 110.732181 
L 302.072433 107.203308 
L 301.370729 106.681998 
L 300.669025 106.160562 
L 299.967321 105.638846 
L 299.265617 105.116848 
L 298.563913 104.59457 
L 298.398749 104.47135 
L 297.988111 103.442005 
L 297.577572 102.411565 
L 297.167033 101.379871 
L 296.756396 100.34723 
L 296.345857 99.313484 
L 296.227373 99.01487 
" clip-path="url(#p0274a5e7fe)" style="fill: none; stroke: #000000; stroke-width: 0.2"/>
    <path d="M 353.399323 163.223019 
L 353.378602 163.011047 
L 353.268129 161.879918 
L 353.157756 160.747816 
L 353.047283 159.614446 
L 352.93681 158.47966 
L 352.826437 157.343598 
L 352.729217 156.342922 
L 354.943713 155.949099 
L 356.124791 153.881566 
L 355.453944 153.298564 
L 354.783097 152.714932 
L 354.112152 152.131253 
L 353.441206 151.547236 
L 352.770261 150.962732 
L 352.711217 150.911155 
L 355.109471 149.712082 
L 356.747868 151.157262 
L 357.522858 151.061618 
L 358.298045 150.965818 
L 359.073232 150.870156 
L 359.848222 150.774485 
L 360.623409 150.678657 
L 361.036421 150.627653 
L 360.039002 147.631517 
L 362.307499 144.631862 
L 363.012664 145.122379 
L 363.717928 145.612656 
L 364.32 146.031066 
" clip-path="url(#p0274a5e7fe)" style="fill: none; stroke: #000000; stroke-width: 0.2"/>
    <path d="M 226.596384 163.223019 
L 226.940378 162.791486 
L 227.531708 162.049246 
L 228.123038 161.306462 
L 228.714368 160.563278 
L 229.305698 159.819257 
L 229.897028 159.07498 
L 230.488358 158.330009 
L 231.001458 157.683164 
L 228.660862 157.459817 
L 230.0796 154.771977 
L 232.769514 154.809304 
L 233.403174 156.236514 
L 234.108636 155.752276 
L 234.814098 155.267806 
L 235.51956 154.783102 
L 236.225022 154.298165 
L 236.930484 153.812995 
L 237.635847 153.327591 
L 238.341309 152.841805 
L 238.505683 152.72872 
L 238.909002 153.902957 
L 239.678156 153.731817 
L 240.447311 153.560649 
L 241.216465 153.389452 
L 241.985619 153.218225 
L 242.754774 153.046969 
L 243.524027 152.875684 
L 244.293182 152.704517 
L 245.062336 152.533174 
L 245.743468 152.381464 
L 246.519941 152.449398 
L 247.296316 152.517182 
L 248.072789 152.585255 
L 248.849262 152.653029 
L 249.625636 152.720946 
L 250.402109 152.788858 
L 250.629878 152.808805 
L 251.223978 151.638575 
L 248.436943 150.798881 
L 250.503779 148.811726 
L 251.206077 149.309473 
L 251.908275 149.806972 
L 252.610473 150.304372 
L 253.312771 150.801232 
L 254.014969 151.29814 
L 254.717266 151.794655 
L 254.738431 151.809631 
L 255.515893 151.773073 
L 256.293256 151.73666 
L 257.070619 151.700247 
L 257.848082 151.663538 
L 258.625445 151.627122 
L 259.402907 151.590704 
L 259.520401 151.585124 
L 260.270567 151.890083 
L 261.020831 152.194949 
L 261.770996 152.499576 
L 262.521162 152.804405 
L 263.271327 153.108847 
L 264.021493 153.413345 
L 264.771658 153.71775 
L 265.521823 154.022063 
L 265.569889 154.041546 
" clip-path="url(#p0274a5e7fe)" style="fill: none; stroke: #000000; stroke-width: 0.2"/>
    <path d="M 364.32 128.94618 
L 363.600829 128.868895 
L 362.824949 128.785509 
L 362.049169 128.702267 
L 361.3893 128.63134 
L 359.081936 133.053015 
" clip-path="url(#p0274a5e7fe)" style="fill: none; stroke: #000000; stroke-width: 0.2"/>
    <path d="M 221.934396 116.38271 
L 220.216779 115.418297 
L 216.950766 116.609859 
L 214.224951 114.4418 
L 210.407959 115.462618 
L 207.854924 111.612249 
L 207.09655 111.345238 
L 206.338176 111.078154 
L 205.579802 110.811149 
L 204.821427 110.544071 
L 204.063053 110.276766 
L 203.30458 110.009388 
L 202.546206 109.74209 
L 202.460854 109.711909 
L 202.403195 108.50973 
L 202.345535 107.305908 
L 202.287876 106.100591 
L 202.230217 104.893929 
L 202.172458 103.685608 
L 202.114799 102.475778 
L 202.100755 102.180302 
L 201.458194 102.864359 
L 200.815732 103.547934 
L 200.173171 104.231026 
L 199.530709 104.913637 
L 198.888148 105.595767 
L 198.245686 106.277418 
L 197.930983 106.611301 
L 197.156389 106.501556 
L 196.381795 106.391799 
L 195.607201 106.28203 
L 194.832607 106.172402 
L 194.058013 106.062608 
L 193.283419 105.952955 
L 193.267793 105.950648 
L 194.113991 100.188348 
L 191.744616 98.344512 
L 190.975857 98.529891 
L 190.207098 98.714925 
L 189.438339 98.900233 
L 188.66958 99.085505 
L 187.900822 99.270432 
L 187.506404 99.365515 
L 186.339667 95.580683 
L 185.569227 95.413705 
L 184.798688 95.246543 
L 184.028247 95.079507 
L 183.257708 94.912287 
L 182.487169 94.745193 
L 181.979015 94.635026 
L 180.290179 89.488086 
L 177.085385 91.411567 
L 175.756747 90.768856 
L 173.207272 88.199806 
L 172.407854 83.293534 
" clip-path="url(#p0274a5e7fe)" style="fill: none; stroke: #000000; stroke-width: 0.2"/>
    <path d="M 297.348141 163.223019 
L 297.470067 162.465252 
L 296.719308 162.763602 
L 295.968549 163.061864 
L 295.562563 163.223019 
" clip-path="url(#p0274a5e7fe)" style="fill: none; stroke: #000000; stroke-width: 0.2"/>
    <path d="M 331.682059 87.931882 
L 332.040279 86.837314 
L 332.398499 85.741493 
L 332.75662 84.644571 
L 333.11484 83.546074 
L 333.47306 82.446627 
L 333.83128 81.345753 
L 334.1895 80.243606 
L 334.411533 79.559669 
L 333.313334 75.446958 
L 330.48664 74.23224 
L 330.73508 71.27011 
L 328.714925 68.1587 
L 329.1402 67.104548 
L 329.565475 66.049377 
L 329.99075 64.992865 
L 330.416025 63.935168 
L 330.8413 62.876443 
L 330.84308 62.872099 
L 330.392783 61.839882 
L 329.942486 60.80637 
L 329.49209 59.771882 
L 329.041793 58.736255 
L 328.591496 57.699484 
L 328.141199 56.661567 
L 327.879605 56.05807 
L 329.258683 52.268143 
L 328.57132 51.669296 
L 327.883858 51.069903 
L 327.196495 50.470125 
L 326.509033 49.869962 
L 325.82167 49.269576 
L 325.134307 48.668804 
L 324.446844 48.067482 
L 323.759481 47.465771 
L 323.072118 46.863672 
L 322.586217 46.438042 
L 323.063019 45.419996 
L 323.539822 44.401001 
L 324.016624 43.380889 
L 324.493427 42.359492 
L 324.970131 41.336972 
L 325.446933 40.31349 
L 325.923736 39.288879 
L 326.400439 38.26297 
L 326.774088 37.458322 
L 326.527231 36.224626 
L 326.280373 34.989119 
L 326.033417 33.751961 
L 325.78656 32.513145 
L 325.539702 31.272833 
L 325.292845 30.030686 
L 325.045889 28.787031 
L 324.799032 27.54153 
L 324.552174 26.294343 
L 324.305317 25.045464 
L 324.05846 23.795056 
L 323.868273 22.830559 
" clip-path="url(#p0274a5e7fe)" style="fill: none; stroke: #000000; stroke-width: 0.2"/>
    <path d="M 318.787324 129.982882 
L 321.826458 133.370123 
L 325.358911 134.240901 
L 327.026187 132.405769 
L 330.022101 133.751117 
L 331.520058 129.775165 
L 333.532994 129.971927 
L 334.242313 125.140908 
L 335.97793 126.605968 
L 337.673986 125.623977 
L 338.41258 125.995465 
L 339.151174 126.366813 
L 339.889768 126.738021 
L 340.628362 127.109089 
L 341.366956 127.480018 
L 342.10555 127.850807 
L 342.834056 128.216496 
L 344.796453 127.898932 
L 348.210126 130.441686 
L 351.749798 130.747486 
L 353.917514 129.223093 
L 354.664614 129.551641 
L 355.411713 129.87993 
L 356.158813 130.20826 
L 356.905912 130.53648 
L 357.653012 130.864592 
L 358.400111 131.192595 
L 358.778705 131.358653 
L 359.246804 134.355204 
L 357.770506 137.917232 
L 358.324155 138.739109 
L 358.877804 139.560307 
L 359.431551 140.380977 
L 359.985299 141.200674 
L 360.538948 142.019994 
L 360.715981 142.281785 
" clip-path="url(#p0274a5e7fe)" style="fill: none; stroke: #000000; stroke-width: 0.2"/>
    <path d="M 38.786274 7.2 
L 39.567757 7.791159 
L 38.838658 8.258741 
L 38.109558 8.726083 
L 37.380459 9.193186 
L 36.65136 9.660049 
L 35.92226 10.126504 
L 35.193161 10.59306 
L 34.464061 11.059038 
L 33.734962 11.525118 
L 33.723489 11.532261 
L 34.346764 12.332201 
L 34.969941 13.131441 
L 35.593117 13.929813 
L 36.216293 14.727489 
L 36.839568 15.524639 
L 37.462745 16.321095 
L 37.605261 16.503103 
L 38.350976 16.881211 
L 39.096592 17.259164 
L 39.842307 17.63713 
L 40.588022 18.01494 
L 41.333638 18.392425 
L 41.465473 18.459262 
L 45.077146 18.496055 
L 46.827103 16.27508 
L 46.261784 13.758659 
L 48.317939 11.99657 
L 48.978599 12.701507 
L 49.639358 13.406071 
L 50.300018 14.110093 
L 50.960777 14.813403 
L 51.621436 15.516173 
L 52.282195 16.218573 
L 52.942855 16.920265 
L 53.43113 17.43862 
L 53.64357 20.441908 
L 54.40946 20.21082 
L 55.175351 19.980011 
L 55.941242 19.748975 
L 56.707132 19.517881 
L 57.473023 19.286729 
L 58.22032 19.061253 
" clip-path="url(#p0274a5e7fe)" style="fill: none; stroke: #000000; stroke-width: 0.2"/>
    <path d="M 217.390085 90.171366 
L 216.612326 90.166989 
L 215.834567 90.162611 
L 215.05671 90.158234 
L 214.278951 90.153856 
L 213.501192 90.149479 
L 213.331873 90.148541 
L 212.564895 88.399526 
L 212.997587 87.375425 
L 213.430181 86.350071 
L 213.862775 85.323617 
L 214.295467 84.296216 
L 214.728061 83.267709 
L 215.160754 82.237935 
L 215.283589 81.945312 
L 214.563489 81.476707 
L 213.843291 81.007871 
L 213.123192 80.538647 
L 212.402993 80.06935 
L 211.682894 79.599821 
L 210.962696 79.130061 
L 210.897718 79.087516 
L 207.228385 79.697823 
L 204.81223 75.094427 
L 203.368273 76.925844 
L 201.459777 76.590988 
L 201.701095 74.79944 
L 199.745819 76.411937 
L 197.621224 75.215764 
L 196.418586 75.851572 
L 196.861466 77.693094 
L 194.416431 77.439314 
L 193.718881 77.990193 
L 193.021331 78.540754 
L 192.323682 79.090996 
L 191.626132 79.64092 
L 190.928483 80.190527 
L 190.230933 80.739817 
L 189.983779 80.934314 
L 189.247757 80.532962 
L 188.511734 80.131125 
L 187.775712 79.729435 
L 187.039689 79.327575 
L 186.303667 78.925387 
L 186.231667 78.885997 
L 184.042291 80.123542 
L 183.152972 77.468148 
" clip-path="url(#p0274a5e7fe)" style="fill: none; stroke: #000000; stroke-width: 0.2"/>
    <path d="M 218.963701 102.995189 
L 216.846326 102.146642 
L 216.335996 103.062603 
L 215.825666 103.977697 
L 215.315336 104.891773 
L 214.805006 105.805296 
L 214.294676 106.717652 
L 213.784346 107.629304 
L 213.753192 107.685036 
L 215.931787 112.330034 
L 214.75783 114.686016 
" clip-path="url(#p0274a5e7fe)" style="fill: none; stroke: #000000; stroke-width: 0.2"/>
    <path d="M 263.899053 163.047055 
L 263.052855 159.042621 
" clip-path="url(#p0274a5e7fe)" style="fill: none; stroke: #000000; stroke-width: 0.2"/>
    <path d="M 361.990718 144.836495 
L 360.672761 142.292457 
" clip-path="url(#p0274a5e7fe)" style="fill: none; stroke: #000000; stroke-width: 0.2"/>
    <path d="M 251.980176 151.007548 
L 251.990956 151.007548 
" clip-path="url(#p0274a5e7fe)" style="fill: none; stroke: #000000; stroke-width: 0.2"/>
   </g>
   <g id="LineCollection_3"/>
   <g id="line2d_1">
    <path d="M 269.091562 31.128251 
L 269.091562 31.128251 
L 269.539563 31.339175 
L 269.987359 31.55027 
L 270.434951 31.761533 
L 270.882339 31.972966 
L 271.329522 32.184568 
L 271.776501 32.396339 
L 272.223276 32.608278 
L 272.669846 32.820385 
L 273.116212 33.03266 
L 273.562373 33.245103 
L 274.008329 33.457712 
L 274.454081 33.670489 
L 274.899629 33.883432 
L 275.344971 34.096542 
L 275.790109 34.309818 
L 276.235042 34.523259 
L 276.67977 34.736866 
L 277.124293 34.950638 
L 277.568612 35.164575 
L 278.012725 35.378676 
L 278.456634 35.592942 
L 278.900337 35.807372 
L 279.343836 36.021965 
L 279.787129 36.236722 
L 280.230217 36.451642 
L 280.6731 36.666725 
L 281.115778 36.88197 
L 281.558251 37.097378 
L 282.000519 37.312947 
L 282.442581 37.528678 
L 282.884438 37.744571 
L 283.326089 37.960624 
L 283.767535 38.176838 
L 284.208776 38.393213 
L 284.649811 38.609748 
L 285.090641 38.826443 
L 285.531266 39.043297 
L 285.971685 39.260311 
L 286.411898 39.477484 
L 286.851906 39.694816 
L 287.291708 39.912306 
L 287.731304 40.129954 
L 288.170695 40.34776 
L 288.60988 40.565724 
L 289.04886 40.783845 
L 289.487634 41.002122 
L 289.926202 41.220557 
L 290.364564 41.439148 
L 290.80272 41.657895 
L 291.240671 41.876799 
L 291.678416 42.095857 
L 292.115955 42.315071 
L 292.553288 42.53444 
L 292.990415 42.753964 
L 293.427336 42.973642 
L 293.864052 43.193474 
L 294.300561 43.41346 
L 294.736864 43.6336 
L 295.172962 43.853892 
L 295.608853 44.074338 
L 296.044538 44.294937 
L 296.480017 44.515688 
L 296.915291 44.736591 
L 297.350358 44.957646 
L 297.785219 45.178852 
L 298.219874 45.40021 
L 298.654322 45.621719 
L 299.088565 45.843378 
L 299.522601 46.065188 
L 299.956432 46.287148 
L 300.390056 46.509258 
L 300.823474 46.731518 
L 301.256685 46.953926 
L 301.689691 47.176484 
L 302.12249 47.399191 
L 302.555083 47.622046 
L 302.98747 47.845049 
L 303.41965 48.0682 
L 303.851625 48.291498 
L 304.283392 48.514944 
L 304.714954 48.738537 
L 305.146309 48.962277 
L 305.577459 49.186163 
L 306.008401 49.410195 
L 306.439138 49.634374 
L 306.869668 49.858697 
L 307.299992 50.083167 
L 307.730109 50.307781 
L 308.16002 50.53254 
L 308.589725 50.757444 
L 309.019223 50.982491 
L 309.448515 51.207683 
L 309.877601 51.433019 
L 310.30648 51.658498 
L 310.735153 51.88412 
L 311.16362 52.109884 
L 311.59188 52.335792 
L 312.019934 52.561842 
L 312.447781 52.788033 
L 312.875422 53.014367 
L 313.302857 53.240842 
L 313.302857 53.240842 
" clip-path="url(#p0274a5e7fe)" style="fill: none; stroke: #0000ff; stroke-width: 0.5; stroke-linecap: square"/>
   </g>
   <g id="line2d_2">
    <path d="M 269.091562 31.128251 
L 269.091562 31.128251 
L 268.655686 31.621308 
L 268.220273 32.114309 
L 267.785324 32.607255 
L 267.350838 33.100144 
L 266.916813 33.592977 
L 266.48325 34.085753 
L 266.050147 34.578472 
L 265.617504 35.071134 
L 265.18532 35.563738 
L 264.753595 36.056284 
L 264.322328 36.548771 
L 263.891518 37.041199 
L 263.461164 37.533568 
L 263.031267 38.025878 
L 262.601824 38.518128 
L 262.172836 39.010317 
L 261.744302 39.502446 
L 261.316221 39.994514 
L 260.888592 40.486521 
L 260.461415 40.978466 
L 260.03469 41.470349 
L 259.608414 41.962171 
L 259.182589 42.453929 
L 258.757213 42.945625 
L 258.332285 43.437257 
L 257.907805 43.928826 
L 257.483772 44.420331 
L 257.060186 44.911772 
L 256.637045 45.403149 
L 256.214349 45.89446 
L 255.792098 46.385707 
L 255.370291 46.876888 
L 254.948927 47.368003 
L 254.528006 47.859053 
L 254.107526 48.350036 
L 253.687487 48.840952 
L 253.267889 49.331801 
L 252.848731 49.822584 
L 252.430012 50.313298 
L 252.011732 50.803945 
L 251.593889 51.294523 
L 251.176484 51.785033 
L 250.759515 52.275474 
L 250.342983 52.765847 
L 249.926885 53.25615 
L 249.511222 53.746383 
L 249.095994 54.236546 
L 248.681198 54.726639 
L 248.266835 55.216662 
L 247.852904 55.706613 
L 247.439405 56.196494 
L 247.026336 56.686303 
L 246.613698 57.176041 
L 246.201489 57.665707 
L 245.789708 58.1553 
L 245.378356 58.644821 
L 244.967431 59.134269 
L 244.556934 59.623645 
L 244.146862 60.112947 
L 243.737216 60.602175 
L 243.327995 61.091329 
L 242.919198 61.58041 
L 242.510825 62.069416 
L 242.102875 62.558347 
L 241.695348 63.047204 
L 241.288242 63.535985 
L 240.881557 64.024691 
L 240.475293 64.513321 
L 240.069449 65.001875 
L 239.664023 65.490353 
L 239.259017 65.978755 
L 238.854428 66.46708 
L 238.450257 66.955328 
L 238.046502 67.443498 
L 237.643164 67.931591 
L 237.240241 68.419607 
L 236.837733 68.907544 
L 236.435639 69.395404 
L 236.033958 69.883184 
L 235.632691 70.370887 
L 235.231836 70.85851 
L 234.831392 71.346054 
L 234.43136 71.833518 
L 234.031738 72.320903 
L 233.632525 72.808208 
L 233.233722 73.295433 
L 232.835328 73.782577 
L 232.437342 74.269641 
L 232.039763 74.756624 
L 231.64259 75.243526 
L 231.245824 75.730346 
L 230.849463 76.217085 
L 230.453507 76.703743 
L 230.057956 77.190318 
L 229.662808 77.676811 
L 229.268063 78.163222 
L 228.87372 78.64955 
L 228.47978 79.135795 
L 228.08624 79.621957 
L 227.693101 80.108036 
L 227.300362 80.594031 
L 227.300362 80.594031 
" clip-path="url(#p0274a5e7fe)" style="fill: none; stroke: #0000ff; stroke-width: 0.5; stroke-linecap: square"/>
   </g>
   <g id="line2d_3">
    <path d="M 258.423129 129.806049 
L 258.423129 129.806049 
L 258.73481 129.926792 
L 259.046415 130.047619 
L 259.357944 130.168531 
L 259.669397 130.289526 
L 259.980774 130.410605 
L 260.292075 130.531767 
L 260.6033 130.653013 
L 260.914448 130.774343 
L 261.225521 130.895756 
L 261.536517 131.017253 
L 261.847436 131.138833 
L 262.15828 131.260496 
L 262.469047 131.382242 
L 262.779738 131.504072 
L 263.090352 131.625984 
L 263.400891 131.747979 
L 263.711352 131.870057 
L 264.021738 131.992218 
L 264.332046 132.114462 
L 264.642279 132.236788 
L 264.952435 132.359197 
L 265.262514 132.481688 
L 265.572516 132.604262 
L 265.882443 132.726918 
L 266.192292 132.849656 
L 266.502065 132.972476 
L 266.811761 133.095379 
L 267.121381 133.218363 
L 267.430923 133.34143 
L 267.74039 133.464578 
L 268.049779 133.587808 
L 268.359091 133.71112 
L 268.668327 133.834513 
L 268.977486 133.957988 
L 269.286568 134.081545 
L 269.595573 134.205183 
L 269.904501 134.328902 
L 270.213353 134.452702 
L 270.522127 134.576584 
L 270.830824 134.700547 
L 271.139445 134.82459 
L 271.447988 134.948715 
L 271.756454 135.072921 
L 272.064843 135.197207 
L 272.373155 135.321574 
L 272.68139 135.446022 
L 272.989548 135.57055 
L 273.297629 135.695159 
L 273.605632 135.819848 
L 273.913559 135.944618 
L 274.221408 136.069467 
L 274.52918 136.194397 
L 274.836874 136.319407 
L 275.144491 136.444498 
L 275.452031 136.569668 
L 275.759494 136.694918 
L 276.066879 136.820247 
L 276.374187 136.945657 
L 276.681417 137.071146 
L 276.98857 137.196715 
L 277.295646 137.322363 
L 277.602644 137.448091 
L 277.909564 137.573898 
L 278.216407 137.699784 
L 278.523173 137.82575 
L 278.82986 137.951795 
L 279.136471 138.077918 
L 279.443003 138.204121 
L 279.749459 138.330403 
L 280.055836 138.456763 
L 280.362136 138.583202 
L 280.668358 138.70972 
L 280.974502 138.836317 
L 281.280569 138.962992 
L 281.586558 139.089745 
L 281.892469 139.216577 
L 282.198302 139.343487 
L 282.504058 139.470475 
L 282.809735 139.597542 
L 283.115335 139.724686 
L 283.420857 139.851909 
L 283.726301 139.979209 
L 284.031667 140.106587 
L 284.336956 140.234043 
L 284.642166 140.361577 
L 284.947298 140.489189 
L 285.252353 140.616877 
L 285.557329 140.744644 
L 285.862227 140.872488 
L 286.167048 141.000409 
L 286.47179 141.128407 
L 286.776454 141.256482 
L 287.08104 141.384635 
L 287.385548 141.512864 
L 287.689977 141.641171 
L 287.994329 141.769554 
L 288.298602 141.898014 
L 288.602798 142.026551 
L 288.906915 142.155165 
L 289.210953 142.283855 
L 289.514914 142.412621 
L 289.514914 142.412621 
" clip-path="url(#p0274a5e7fe)" style="fill: none; stroke: #0000ff; stroke-width: 0.5; stroke-linecap: square"/>
   </g>
   <g id="line2d_4">
    <path d="M 258.423129 129.806049 
L 258.423129 129.806049 
L 258.36144 129.545873 
L 258.299719 129.285633 
L 258.237966 129.025329 
L 258.17618 128.76496 
L 258.114361 128.504528 
L 258.05251 128.244031 
L 257.990626 127.98347 
L 257.928709 127.722844 
L 257.86676 127.462154 
L 257.804779 127.2014 
L 257.742764 126.940581 
L 257.680717 126.679697 
L 257.618637 126.418749 
L 257.556524 126.157737 
L 257.494378 125.896659 
L 257.4322 125.635517 
L 257.369988 125.37431 
L 257.307744 125.113039 
L 257.245467 124.851702 
L 257.183156 124.590301 
L 257.120813 124.328834 
L 257.058436 124.067303 
L 256.996027 123.805707 
L 256.933584 123.544045 
L 256.871108 123.282319 
L 256.808599 123.020527 
L 256.746056 122.75867 
L 256.683481 122.496748 
L 256.620872 122.234761 
L 256.55823 121.972708 
L 256.495554 121.71059 
L 256.432845 121.448406 
L 256.370102 121.186157 
L 256.307326 120.923843 
L 256.244517 120.661463 
L 256.181674 120.399017 
L 256.118797 120.136506 
L 256.055887 119.873929 
L 255.992943 119.611286 
L 255.929966 119.348578 
L 255.866955 119.085804 
L 255.80391 118.822964 
L 255.740831 118.560058 
L 255.677719 118.297086 
L 255.614573 118.034048 
L 255.551393 117.770944 
L 255.488179 117.507774 
L 255.424931 117.244538 
L 255.361649 116.981236 
L 255.298333 116.717867 
L 255.234983 116.454433 
L 255.171599 116.190931 
L 255.108181 115.927364 
L 255.044728 115.66373 
L 254.981242 115.40003 
L 254.917721 115.136264 
L 254.854166 114.87243 
L 254.790577 114.608531 
L 254.726954 114.344564 
L 254.663296 114.080531 
L 254.599604 113.816432 
L 254.535877 113.552265 
L 254.472117 113.288032 
L 254.408321 113.023732 
L 254.344491 112.759365 
L 254.280627 112.494931 
L 254.216728 112.23043 
L 254.152794 111.965863 
L 254.088826 111.701228 
L 254.024823 111.436526 
L 253.960785 111.171757 
L 253.896712 110.90692 
L 253.832605 110.642017 
L 253.768463 110.377046 
L 253.704286 110.112008 
L 253.640074 109.846902 
L 253.575828 109.581729 
L 253.511546 109.316489 
L 253.447229 109.051181 
L 253.382878 108.785805 
L 253.318491 108.520362 
L 253.254069 108.254852 
L 253.189612 107.989273 
L 253.12512 107.723627 
L 253.060593 107.457913 
L 252.99603 107.192131 
L 252.931432 106.926282 
L 252.866799 106.660364 
L 252.802131 106.394379 
L 252.737427 106.128325 
L 252.672688 105.862204 
L 252.607913 105.596014 
L 252.543103 105.329756 
L 252.478257 105.06343 
L 252.413376 104.797036 
L 252.348459 104.530573 
L 252.283506 104.264043 
L 252.218518 103.997443 
L 252.153494 103.730776 
L 252.088435 103.46404 
L 252.02334 103.197235 
L 252.02334 103.197235 
" clip-path="url(#p0274a5e7fe)" style="fill: none; stroke: #0000ff; stroke-width: 0.5; stroke-linecap: square"/>
   </g>
   <g id="line2d_5">
    <path d="M 289.514914 142.412621 
L 289.514914 142.412621 
L 289.730067 141.565612 
L 289.945585 140.717936 
L 290.161469 139.86959 
L 290.377721 139.020575 
L 290.594341 138.170888 
L 290.811331 137.320528 
L 291.028692 136.469493 
L 291.246425 135.617783 
L 291.464531 134.765395 
L 291.683012 133.912328 
L 291.901868 133.058581 
L 292.121101 132.204152 
L 292.340713 131.349039 
L 292.560703 130.493242 
L 292.781075 129.636759 
L 293.001827 128.779588 
L 293.222963 127.921728 
L 293.444483 127.063178 
L 293.666389 126.203935 
L 293.888681 125.343998 
L 294.111361 124.483367 
L 294.33443 123.622038 
L 294.557889 122.760012 
L 294.78174 121.897286 
L 295.005985 121.033858 
L 295.230623 120.169728 
L 295.455657 119.304894 
L 295.681087 118.439354 
L 295.906916 117.573107 
L 296.133144 116.706151 
L 296.359772 115.838485 
L 296.586803 114.970107 
L 296.814236 114.101015 
L 297.042075 113.231209 
L 297.270319 112.360686 
L 297.49897 111.489445 
L 297.72803 110.617484 
L 297.9575 109.744802 
L 298.187381 108.871397 
L 298.417674 107.997269 
L 298.648382 107.122414 
L 298.879504 106.246831 
L 299.111044 105.37052 
L 299.343001 104.493478 
L 299.575377 103.615704 
L 299.808175 102.737196 
L 300.041394 101.857953 
L 300.275037 100.977972 
L 300.509105 100.097253 
L 300.743599 99.215794 
L 300.978521 98.333593 
L 301.213872 97.450648 
L 301.449654 96.566959 
L 301.685867 95.682522 
L 301.922514 94.797338 
L 302.159596 93.911403 
L 302.397114 93.024717 
L 302.635069 92.137277 
L 302.873464 91.249083 
L 303.1123 90.360132 
L 303.351578 89.470423 
L 303.591299 88.579954 
L 303.831465 87.688724 
L 304.072078 86.79673 
L 304.313139 85.903972 
L 304.55465 85.010447 
L 304.796611 84.116154 
L 305.039025 83.221091 
L 305.281894 82.325256 
L 305.525217 81.428648 
L 305.768998 80.531265 
L 306.013238 79.633106 
L 306.257938 78.734168 
L 306.503099 77.83445 
L 306.748724 76.933951 
L 306.994814 76.032667 
L 307.24137 75.130599 
L 307.488394 74.227744 
L 307.735888 73.3241 
L 307.983853 72.419665 
L 308.232291 71.514439 
L 308.481203 70.608418 
L 308.730592 69.701602 
L 308.980458 68.793989 
L 309.230803 67.885576 
L 309.481629 66.976363 
L 309.732937 66.066347 
L 309.98473 65.155526 
L 310.237009 64.243899 
L 310.489775 63.331464 
L 310.74303 62.41822 
L 310.996776 61.504164 
L 311.251015 60.589294 
L 311.505747 59.67361 
L 311.760976 58.757108 
L 312.016702 57.839788 
L 312.272928 56.921647 
L 312.529654 56.002684 
L 312.786883 55.082896 
L 313.044617 54.162283 
L 313.302857 53.240842 
L 313.302857 53.240842 
" clip-path="url(#p0274a5e7fe)" style="fill: none; stroke: #0000ff; stroke-width: 0.5; stroke-linecap: square"/>
   </g>
   <g id="line2d_6">
    <path d="M 229.553881 86.54446 
L 229.553881 86.54446 
L 229.531705 86.485699 
L 229.509527 86.426934 
L 229.487347 86.368167 
L 229.465163 86.309397 
L 229.442977 86.250623 
L 229.420789 86.191846 
L 229.398597 86.133067 
L 229.376403 86.074284 
L 229.354206 86.015498 
L 229.332006 85.956709 
L 229.309804 85.897918 
L 229.287599 85.839123 
L 229.265391 85.780324 
L 229.24318 85.721523 
L 229.220967 85.662719 
L 229.198751 85.603912 
L 229.176532 85.545102 
L 229.15431 85.486288 
L 229.132086 85.427472 
L 229.109859 85.368652 
L 229.08763 85.309829 
L 229.065397 85.251004 
L 229.043162 85.192175 
L 229.020924 85.133343 
L 228.998684 85.074508 
L 228.97644 85.01567 
L 228.954194 84.956829 
L 228.931945 84.897985 
L 228.909694 84.839138 
L 228.88744 84.780287 
L 228.865183 84.721434 
L 228.842923 84.662578 
L 228.82066 84.603718 
L 228.798395 84.544855 
L 228.776127 84.48599 
L 228.753857 84.427121 
L 228.731583 84.368249 
L 228.709307 84.309374 
L 228.687028 84.250496 
L 228.664746 84.191615 
L 228.642462 84.132731 
L 228.620175 84.073844 
L 228.597885 84.014953 
L 228.575592 83.95606 
L 228.553297 83.897164 
L 228.530999 83.838264 
L 228.508698 83.779361 
L 228.486395 83.720456 
L 228.464088 83.661547 
L 228.441779 83.602635 
L 228.419467 83.54372 
L 228.397153 83.484802 
L 228.374836 83.425881 
L 228.352516 83.366957 
L 228.330193 83.308029 
L 228.307867 83.249099 
L 228.285539 83.190165 
L 228.263208 83.131229 
L 228.240874 83.072289 
L 228.218538 83.013346 
L 228.196198 82.9544 
L 228.173856 82.895452 
L 228.151511 82.8365 
L 228.129164 82.777544 
L 228.106813 82.718586 
L 228.08446 82.659625 
L 228.062105 82.600661 
L 228.039746 82.541693 
L 228.017385 82.482723 
L 227.995021 82.423749 
L 227.972654 82.364772 
L 227.950284 82.305792 
L 227.927912 82.246809 
L 227.905537 82.187823 
L 227.883159 82.128834 
L 227.860778 82.069842 
L 227.838395 82.010847 
L 227.816008 81.951848 
L 227.793619 81.892847 
L 227.771228 81.833842 
L 227.748833 81.774835 
L 227.726436 81.715824 
L 227.704036 81.65681 
L 227.681633 81.597793 
L 227.659228 81.538773 
L 227.636819 81.47975 
L 227.614408 81.420724 
L 227.591995 81.361694 
L 227.569578 81.302662 
L 227.547159 81.243626 
L 227.524736 81.184588 
L 227.502311 81.125546 
L 227.479884 81.066501 
L 227.457453 81.007453 
L 227.43502 80.948402 
L 227.412584 80.889348 
L 227.390145 80.830291 
L 227.367704 80.77123 
L 227.345259 80.712167 
L 227.322812 80.6531 
L 227.300362 80.594031 
L 227.300362 80.594031 
" clip-path="url(#p0274a5e7fe)" style="fill: none; stroke: #0000ff; stroke-width: 0.5; stroke-linecap: square"/>
   </g>
   <g id="line2d_7">
    <path d="M 229.553881 86.54446 
L 229.553881 86.54446 
L 229.531705 86.485699 
L 229.509527 86.426934 
L 229.487347 86.368167 
L 229.465163 86.309397 
L 229.442977 86.250623 
L 229.420789 86.191846 
L 229.398597 86.133067 
L 229.376403 86.074284 
L 229.354206 86.015498 
L 229.332006 85.956709 
L 229.309804 85.897918 
L 229.287599 85.839123 
L 229.265391 85.780324 
L 229.24318 85.721523 
L 229.220967 85.662719 
L 229.198751 85.603912 
L 229.176532 85.545102 
L 229.15431 85.486288 
L 229.132086 85.427472 
L 229.109859 85.368652 
L 229.08763 85.309829 
L 229.065397 85.251004 
L 229.043162 85.192175 
L 229.020924 85.133343 
L 228.998684 85.074508 
L 228.97644 85.01567 
L 228.954194 84.956829 
L 228.931945 84.897985 
L 228.909694 84.839138 
L 228.88744 84.780287 
L 228.865183 84.721434 
L 228.842923 84.662578 
L 228.82066 84.603718 
L 228.798395 84.544855 
L 228.776127 84.48599 
L 228.753857 84.427121 
L 228.731583 84.368249 
L 228.709307 84.309374 
L 228.687028 84.250496 
L 228.664746 84.191615 
L 228.642462 84.132731 
L 228.620175 84.073844 
L 228.597885 84.014953 
L 228.575592 83.95606 
L 228.553297 83.897164 
L 228.530999 83.838264 
L 228.508698 83.779361 
L 228.486395 83.720456 
L 228.464088 83.661547 
L 228.441779 83.602635 
L 228.419467 83.54372 
L 228.397153 83.484802 
L 228.374836 83.425881 
L 228.352516 83.366957 
L 228.330193 83.308029 
L 228.307867 83.249099 
L 228.285539 83.190165 
L 228.263208 83.131229 
L 228.240874 83.072289 
L 228.218538 83.013346 
L 228.196198 82.9544 
L 228.173856 82.895452 
L 228.151511 82.8365 
L 228.129164 82.777544 
L 228.106813 82.718586 
L 228.08446 82.659625 
L 228.062105 82.600661 
L 228.039746 82.541693 
L 228.017385 82.482723 
L 227.995021 82.423749 
L 227.972654 82.364772 
L 227.950284 82.305792 
L 227.927912 82.246809 
L 227.905537 82.187823 
L 227.883159 82.128834 
L 227.860778 82.069842 
L 227.838395 82.010847 
L 227.816008 81.951848 
L 227.793619 81.892847 
L 227.771228 81.833842 
L 227.748833 81.774835 
L 227.726436 81.715824 
L 227.704036 81.65681 
L 227.681633 81.597793 
L 227.659228 81.538773 
L 227.636819 81.47975 
L 227.614408 81.420724 
L 227.591995 81.361694 
L 227.569578 81.302662 
L 227.547159 81.243626 
L 227.524736 81.184588 
L 227.502311 81.125546 
L 227.479884 81.066501 
L 227.457453 81.007453 
L 227.43502 80.948402 
L 227.412584 80.889348 
L 227.390145 80.830291 
L 227.367704 80.77123 
L 227.345259 80.712167 
L 227.322812 80.6531 
L 227.300362 80.594031 
L 227.300362 80.594031 
" clip-path="url(#p0274a5e7fe)" style="fill: none; stroke: #0000ff; stroke-width: 0.5; stroke-linecap: square"/>
   </g>
   <g id="line2d_8">
    <path d="M 229.553881 86.54446 
L 229.553881 86.54446 
L 229.780172 86.708123 
L 230.006386 86.871812 
L 230.232523 87.035526 
L 230.458583 87.199267 
L 230.684566 87.363033 
L 230.910472 87.526825 
L 231.1363 87.690642 
L 231.362052 87.854485 
L 231.587726 88.018354 
L 231.813324 88.182248 
L 232.038844 88.346167 
L 232.264288 88.510112 
L 232.489654 88.674083 
L 232.714944 88.838078 
L 232.940157 89.002099 
L 233.165292 89.166145 
L 233.390351 89.330216 
L 233.615333 89.494312 
L 233.840239 89.658434 
L 234.065067 89.82258 
L 234.289819 89.986751 
L 234.514494 90.150947 
L 234.739092 90.315169 
L 234.963614 90.479414 
L 235.188058 90.643685 
L 235.412427 90.807981 
L 235.636718 90.972301 
L 235.860933 91.136645 
L 236.085072 91.301015 
L 236.309134 91.465408 
L 236.533119 91.629827 
L 236.757028 91.79427 
L 236.98086 91.958737 
L 237.204616 92.123228 
L 237.428295 92.287744 
L 237.651898 92.452284 
L 237.875425 92.616849 
L 238.098875 92.781437 
L 238.322249 92.94605 
L 238.545547 93.110686 
L 238.768768 93.275347 
L 238.991913 93.440032 
L 239.214982 93.604741 
L 239.437975 93.769473 
L 239.660891 93.934229 
L 239.883731 94.09901 
L 240.106495 94.263813 
L 240.329183 94.428641 
L 240.551795 94.593492 
L 240.774331 94.758367 
L 240.99679 94.923266 
L 241.219174 95.088188 
L 241.441482 95.253133 
L 241.663713 95.418102 
L 241.885869 95.583094 
L 242.107949 95.74811 
L 242.329953 95.913149 
L 242.551881 96.078211 
L 242.773733 96.243296 
L 242.995509 96.408405 
L 243.217209 96.573536 
L 243.438834 96.738691 
L 243.660383 96.903869 
L 243.881856 97.069069 
L 244.103253 97.234293 
L 244.324575 97.39954 
L 244.545821 97.564809 
L 244.766992 97.730101 
L 244.988086 97.895416 
L 245.209106 98.060753 
L 245.430049 98.226114 
L 245.650917 98.391496 
L 245.87171 98.556902 
L 246.092427 98.72233 
L 246.313069 98.88778 
L 246.533635 99.053253 
L 246.754125 99.218748 
L 246.974541 99.384266 
L 247.194881 99.549806 
L 247.415145 99.715368 
L 247.635335 99.880952 
L 247.855449 100.046559 
L 248.075487 100.212187 
L 248.295451 100.377838 
L 248.515339 100.543511 
L 248.735152 100.709205 
L 248.95489 100.874922 
L 249.174552 101.040661 
L 249.39414 101.206421 
L 249.613652 101.372203 
L 249.83309 101.538007 
L 250.052452 101.703833 
L 250.271739 101.869681 
L 250.490952 102.03555 
L 250.710089 102.20144 
L 250.929151 102.367352 
L 251.148139 102.533286 
L 251.367051 102.699241 
L 251.585889 102.865218 
L 251.804652 103.031216 
L 252.02334 103.197235 
L 252.02334 103.197235 
" clip-path="url(#p0274a5e7fe)" style="fill: none; stroke: #0000ff; stroke-width: 0.5; stroke-linecap: square"/>
   </g>
   <g id="line2d_9">
    <path d="M 229.553881 86.54446 
L 229.553881 86.54446 
L 229.780172 86.708123 
L 230.006386 86.871812 
L 230.232523 87.035526 
L 230.458583 87.199267 
L 230.684566 87.363033 
L 230.910472 87.526825 
L 231.1363 87.690642 
L 231.362052 87.854485 
L 231.587726 88.018354 
L 231.813324 88.182248 
L 232.038844 88.346167 
L 232.264288 88.510112 
L 232.489654 88.674083 
L 232.714944 88.838078 
L 232.940157 89.002099 
L 233.165292 89.166145 
L 233.390351 89.330216 
L 233.615333 89.494312 
L 233.840239 89.658434 
L 234.065067 89.82258 
L 234.289819 89.986751 
L 234.514494 90.150947 
L 234.739092 90.315169 
L 234.963614 90.479414 
L 235.188058 90.643685 
L 235.412427 90.807981 
L 235.636718 90.972301 
L 235.860933 91.136645 
L 236.085072 91.301015 
L 236.309134 91.465408 
L 236.533119 91.629827 
L 236.757028 91.79427 
L 236.98086 91.958737 
L 237.204616 92.123228 
L 237.428295 92.287744 
L 237.651898 92.452284 
L 237.875425 92.616849 
L 238.098875 92.781437 
L 238.322249 92.94605 
L 238.545547 93.110686 
L 238.768768 93.275347 
L 238.991913 93.440032 
L 239.214982 93.604741 
L 239.437975 93.769473 
L 239.660891 93.934229 
L 239.883731 94.09901 
L 240.106495 94.263813 
L 240.329183 94.428641 
L 240.551795 94.593492 
L 240.774331 94.758367 
L 240.99679 94.923266 
L 241.219174 95.088188 
L 241.441482 95.253133 
L 241.663713 95.418102 
L 241.885869 95.583094 
L 242.107949 95.74811 
L 242.329953 95.913149 
L 242.551881 96.078211 
L 242.773733 96.243296 
L 242.995509 96.408405 
L 243.217209 96.573536 
L 243.438834 96.738691 
L 243.660383 96.903869 
L 243.881856 97.069069 
L 244.103253 97.234293 
L 244.324575 97.39954 
L 244.545821 97.564809 
L 244.766992 97.730101 
L 244.988086 97.895416 
L 245.209106 98.060753 
L 245.430049 98.226114 
L 245.650917 98.391496 
L 245.87171 98.556902 
L 246.092427 98.72233 
L 246.313069 98.88778 
L 246.533635 99.053253 
L 246.754125 99.218748 
L 246.974541 99.384266 
L 247.194881 99.549806 
L 247.415145 99.715368 
L 247.635335 99.880952 
L 247.855449 100.046559 
L 248.075487 100.212187 
L 248.295451 100.377838 
L 248.515339 100.543511 
L 248.735152 100.709205 
L 248.95489 100.874922 
L 249.174552 101.040661 
L 249.39414 101.206421 
L 249.613652 101.372203 
L 249.83309 101.538007 
L 250.052452 101.703833 
L 250.271739 101.869681 
L 250.490952 102.03555 
L 250.710089 102.20144 
L 250.929151 102.367352 
L 251.148139 102.533286 
L 251.367051 102.699241 
L 251.585889 102.865218 
L 251.804652 103.031216 
L 252.02334 103.197235 
L 252.02334 103.197235 
" clip-path="url(#p0274a5e7fe)" style="fill: none; stroke: #0000ff; stroke-width: 0.5; stroke-linecap: square"/>
   </g>
   <g id="line2d_10">
    <path d="M 252.02334 103.197235 
L 252.02334 103.197235 
L 251.190225 103.415134 
L 250.357485 103.633702 
L 249.52512 103.85294 
L 248.693132 104.072845 
L 247.861521 104.293417 
L 247.030288 104.514654 
L 246.199434 104.736556 
L 245.36896 104.959122 
L 244.538867 105.18235 
L 243.709155 105.406239 
L 242.879826 105.630789 
L 242.050881 105.855998 
L 241.22232 106.081865 
L 240.394145 106.308389 
L 239.566356 106.53557 
L 238.738953 106.763405 
L 237.911939 106.991894 
L 237.085313 107.221036 
L 236.259077 107.45083 
L 235.433232 107.681274 
L 234.607777 107.912368 
L 233.782715 108.144111 
L 232.958046 108.376501 
L 232.133771 108.609537 
L 231.309891 108.843219 
L 230.486406 109.077544 
L 229.663317 109.312513 
L 228.840625 109.548124 
L 228.018332 109.784375 
L 227.196437 110.021267 
L 226.374942 110.258797 
L 225.553848 110.496964 
L 224.733154 110.735769 
L 223.912863 110.975208 
L 223.092975 111.215282 
L 222.27349 111.455989 
L 221.45441 111.697328 
L 220.635734 111.939298 
L 219.817465 112.181898 
L 218.999603 112.425127 
L 218.182148 112.668984 
L 217.365102 112.913467 
L 216.548464 113.158575 
L 215.732237 113.404308 
L 214.91642 113.650664 
L 214.101014 113.897642 
L 213.286021 114.145241 
L 212.47144 114.39346 
L 211.657273 114.642298 
L 210.843521 114.891753 
L 210.030183 115.141825 
L 209.217262 115.392512 
L 208.404756 115.643814 
L 207.592669 115.895729 
L 206.780999 116.148256 
L 205.969748 116.401393 
L 205.158916 116.655141 
L 204.348504 116.909497 
L 203.538514 117.164461 
L 202.728945 117.420031 
L 201.919798 117.676206 
L 201.111074 117.932985 
L 200.302774 118.190368 
L 199.494898 118.448352 
L 198.687447 118.706937 
L 197.880421 118.966122 
L 197.073823 119.225905 
L 196.267651 119.486286 
L 195.461906 119.747262 
L 194.656591 120.008834 
L 193.851704 120.271 
L 193.047247 120.533758 
L 192.24322 120.797109 
L 191.439624 121.061049 
L 190.63646 121.325579 
L 189.833728 121.590698 
L 189.03143 121.856403 
L 188.229564 122.122694 
L 187.428133 122.389571 
L 186.627137 122.65703 
L 185.826576 122.925073 
L 185.026451 123.193696 
L 184.226763 123.4629 
L 183.427512 123.732683 
L 182.628699 124.003044 
L 181.830324 124.273982 
L 181.032388 124.545495 
L 180.234893 124.817583 
L 179.437837 125.090244 
L 178.641222 125.363478 
L 177.845049 125.637282 
L 177.049318 125.911656 
L 176.254029 126.186599 
L 175.459184 126.46211 
L 174.664782 126.738187 
L 173.870825 127.01483 
L 173.077313 127.292036 
L 172.284246 127.569806 
L 171.491625 127.848137 
L 170.69945 128.127029 
L 169.907723 128.406481 
L 169.907723 128.406481 
" clip-path="url(#p0274a5e7fe)" style="fill: none; stroke: #0000ff; stroke-width: 0.5; stroke-linecap: square"/>
   </g>
   <g id="line2d_11">
    <path d="M 58.217143 35.612304 
L 58.217143 35.612304 
L 59.037656 35.972006 
L 59.857533 36.332297 
L 60.676774 36.693175 
L 61.495378 37.05464 
L 62.313344 37.416688 
L 63.130672 37.779319 
L 63.947363 38.142531 
L 64.763414 38.506321 
L 65.578827 38.870689 
L 66.393601 39.235633 
L 67.207735 39.60115 
L 68.021229 39.96724 
L 68.834083 40.3339 
L 69.646295 40.70113 
L 70.457867 41.068926 
L 71.268798 41.437288 
L 72.079087 41.806213 
L 72.888733 42.175701 
L 73.697738 42.545748 
L 74.5061 42.916355 
L 75.313818 43.287519 
L 76.120894 43.659237 
L 76.927326 44.03151 
L 77.733114 44.404334 
L 78.538258 44.777709 
L 79.342757 45.151633 
L 80.146612 45.526103 
L 80.949822 45.901118 
L 81.752386 46.276677 
L 82.554305 46.652778 
L 83.355578 47.02942 
L 84.156205 47.406599 
L 84.956186 47.784316 
L 85.75552 48.162568 
L 86.554208 48.541353 
L 87.352249 48.920671 
L 88.149642 49.300518 
L 88.946388 49.680894 
L 89.742486 50.061797 
L 90.537936 50.443226 
L 91.332738 50.825178 
L 92.126892 51.207652 
L 92.920398 51.590646 
L 93.713254 51.974159 
L 94.505462 52.358188 
L 95.297021 52.742734 
L 96.08793 53.127793 
L 96.878191 53.513364 
L 97.667801 53.899445 
L 98.456762 54.286036 
L 99.245073 54.673133 
L 100.032734 55.060736 
L 100.819744 55.448843 
L 101.606105 55.837452 
L 102.391815 56.226562 
L 103.176874 56.616171 
L 103.961282 57.006278 
L 104.74504 57.39688 
L 105.528146 57.787976 
L 106.310602 58.179565 
L 107.092406 58.571644 
L 107.873559 58.964214 
L 108.65406 59.35727 
L 109.43391 59.750813 
L 110.213108 60.14484 
L 110.991655 60.539351 
L 111.76955 60.934342 
L 112.546793 61.329813 
L 113.323383 61.725763 
L 114.099322 62.122188 
L 114.874609 62.519089 
L 115.649243 62.916463 
L 116.423226 63.314309 
L 117.196556 63.712624 
L 117.969234 64.111409 
L 118.741259 64.51066 
L 119.512632 64.910376 
L 120.283352 65.310557 
L 121.05342 65.711199 
L 121.822836 66.112303 
L 122.591599 66.513865 
L 123.359709 66.915885 
L 124.127167 67.31836 
L 124.893973 67.72129 
L 125.660125 68.124673 
L 126.425626 68.528507 
L 127.190473 68.932791 
L 127.954668 69.337523 
L 128.718211 69.742701 
L 129.4811 70.148325 
L 130.243338 70.554392 
L 131.004923 70.960901 
L 131.765855 71.36785 
L 132.526135 71.775238 
L 133.285763 72.183063 
L 134.044738 72.591324 
L 134.803061 73.00002 
L 135.560731 73.409148 
L 136.317749 73.818707 
L 137.074116 74.228696 
L 137.82983 74.639113 
L 137.82983 74.639113 
" clip-path="url(#p0274a5e7fe)" style="fill: none; stroke: #0000ff; stroke-width: 0.5; stroke-linecap: square"/>
   </g>
   <g id="line2d_12">
    <path d="M 58.217143 35.612304 
L 58.217143 35.612304 
L 59.037656 35.972006 
L 59.857533 36.332297 
L 60.676774 36.693175 
L 61.495378 37.05464 
L 62.313344 37.416688 
L 63.130672 37.779319 
L 63.947363 38.142531 
L 64.763414 38.506321 
L 65.578827 38.870689 
L 66.393601 39.235633 
L 67.207735 39.60115 
L 68.021229 39.96724 
L 68.834083 40.3339 
L 69.646295 40.70113 
L 70.457867 41.068926 
L 71.268798 41.437288 
L 72.079087 41.806213 
L 72.888733 42.175701 
L 73.697738 42.545748 
L 74.5061 42.916355 
L 75.313818 43.287519 
L 76.120894 43.659237 
L 76.927326 44.03151 
L 77.733114 44.404334 
L 78.538258 44.777709 
L 79.342757 45.151633 
L 80.146612 45.526103 
L 80.949822 45.901118 
L 81.752386 46.276677 
L 82.554305 46.652778 
L 83.355578 47.02942 
L 84.156205 47.406599 
L 84.956186 47.784316 
L 85.75552 48.162568 
L 86.554208 48.541353 
L 87.352249 48.920671 
L 88.149642 49.300518 
L 88.946388 49.680894 
L 89.742486 50.061797 
L 90.537936 50.443226 
L 91.332738 50.825178 
L 92.126892 51.207652 
L 92.920398 51.590646 
L 93.713254 51.974159 
L 94.505462 52.358188 
L 95.297021 52.742734 
L 96.08793 53.127793 
L 96.878191 53.513364 
L 97.667801 53.899445 
L 98.456762 54.286036 
L 99.245073 54.673133 
L 100.032734 55.060736 
L 100.819744 55.448843 
L 101.606105 55.837452 
L 102.391815 56.226562 
L 103.176874 56.616171 
L 103.961282 57.006278 
L 104.74504 57.39688 
L 105.528146 57.787976 
L 106.310602 58.179565 
L 107.092406 58.571644 
L 107.873559 58.964214 
L 108.65406 59.35727 
L 109.43391 59.750813 
L 110.213108 60.14484 
L 110.991655 60.539351 
L 111.76955 60.934342 
L 112.546793 61.329813 
L 113.323383 61.725763 
L 114.099322 62.122188 
L 114.874609 62.519089 
L 115.649243 62.916463 
L 116.423226 63.314309 
L 117.196556 63.712624 
L 117.969234 64.111409 
L 118.741259 64.51066 
L 119.512632 64.910376 
L 120.283352 65.310557 
L 121.05342 65.711199 
L 121.822836 66.112303 
L 122.591599 66.513865 
L 123.359709 66.915885 
L 124.127167 67.31836 
L 124.893973 67.72129 
L 125.660125 68.124673 
L 126.425626 68.528507 
L 127.190473 68.932791 
L 127.954668 69.337523 
L 128.718211 69.742701 
L 129.4811 70.148325 
L 130.243338 70.554392 
L 131.004923 70.960901 
L 131.765855 71.36785 
L 132.526135 71.775238 
L 133.285763 72.183063 
L 134.044738 72.591324 
L 134.803061 73.00002 
L 135.560731 73.409148 
L 136.317749 73.818707 
L 137.074116 74.228696 
L 137.82983 74.639113 
L 137.82983 74.639113 
" clip-path="url(#p0274a5e7fe)" style="fill: none; stroke: #0000ff; stroke-width: 0.5; stroke-linecap: square"/>
   </g>
   <g id="line2d_13">
    <path d="M 137.82983 74.639113 
L 137.82983 74.639113 
L 138.165409 75.1808 
L 138.500607 75.722299 
L 138.835424 76.263611 
L 139.169861 76.804735 
L 139.503918 77.345671 
L 139.837596 77.886419 
L 140.170896 78.42698 
L 140.503819 78.967353 
L 140.836364 79.507538 
L 141.168534 80.047536 
L 141.500328 80.587346 
L 141.831748 81.126969 
L 142.162793 81.666404 
L 142.493465 82.205651 
L 142.823765 82.744711 
L 143.153692 83.283583 
L 143.483249 83.822268 
L 143.812434 84.360765 
L 144.14125 84.899075 
L 144.469697 85.437198 
L 144.797775 85.975133 
L 145.125485 86.512881 
L 145.452828 87.050441 
L 145.779804 87.587814 
L 146.106415 88.125 
L 146.43266 88.661999 
L 146.758541 89.19881 
L 147.084058 89.735435 
L 147.409212 90.271872 
L 147.734004 90.808122 
L 148.058433 91.344185 
L 148.382502 91.880061 
L 148.70621 92.41575 
L 149.029558 92.951252 
L 149.352547 93.486567 
L 149.675178 94.021695 
L 149.99745 94.556636 
L 150.319366 95.091391 
L 150.640925 95.625959 
L 150.962128 96.16034 
L 151.282976 96.694534 
L 151.603469 97.228542 
L 151.923609 97.762363 
L 152.243395 98.295997 
L 152.562828 98.829445 
L 152.88191 99.362707 
L 153.20064 99.895782 
L 153.519019 100.428671 
L 153.837049 100.961373 
L 154.154729 101.493889 
L 154.47206 102.026219 
L 154.789043 102.558363 
L 155.105679 103.09032 
L 155.421968 103.622092 
L 155.73791 104.153677 
L 156.053507 104.685077 
L 156.368759 105.21629 
L 156.683667 105.747318 
L 156.998231 106.27816 
L 157.312452 106.808816 
L 157.62633 107.339286 
L 157.939867 107.86957 
L 158.253063 108.399669 
L 158.565918 108.929583 
L 158.878433 109.459311 
L 159.190608 109.988853 
L 159.502445 110.51821 
L 159.813944 111.047382 
L 160.125106 111.576368 
L 160.435931 112.105169 
L 160.746419 112.633785 
L 161.056572 113.162216 
L 161.36639 113.690462 
L 161.675873 114.218523 
L 161.985023 114.746399 
L 162.293839 115.27409 
L 162.602323 115.801596 
L 162.910475 116.328918 
L 163.218295 116.856055 
L 163.525785 117.383007 
L 163.832945 117.909775 
L 164.139775 118.436358 
L 164.446276 118.962757 
L 164.752449 119.488971 
L 165.058294 120.015002 
L 165.363812 120.540848 
L 165.669003 121.06651 
L 165.973868 121.591987 
L 166.278408 122.117281 
L 166.582624 122.642391 
L 166.886515 123.167317 
L 167.190082 123.692059 
L 167.493326 124.216618 
L 167.796248 124.740993 
L 168.098848 125.265184 
L 168.401127 125.789192 
L 168.703085 126.313016 
L 169.004724 126.836657 
L 169.306042 127.360115 
L 169.607042 127.883389 
L 169.907723 128.406481 
L 169.907723 128.406481 
" clip-path="url(#p0274a5e7fe)" style="fill: none; stroke: #0000ff; stroke-width: 0.5; stroke-linecap: square"/>
   </g>
   <g id="line2d_14">
    <path d="M 137.82983 74.639113 
L 137.82983 74.639113 
L 138.460938 74.439037 
L 139.092311 74.23934 
L 139.723949 74.040023 
L 140.355852 73.841086 
L 140.988019 73.642531 
L 141.62045 73.444357 
L 142.253144 73.246565 
L 142.886102 73.049156 
L 143.519322 72.85213 
L 144.152804 72.655487 
L 144.786549 72.459229 
L 145.420555 72.263356 
L 146.054823 72.067869 
L 146.689351 71.872767 
L 147.32414 71.678052 
L 147.959189 71.483724 
L 148.594498 71.289783 
L 149.230066 71.096231 
L 149.865893 70.903068 
L 150.501979 70.710294 
L 151.138323 70.51791 
L 151.774925 70.325916 
L 152.411784 70.134314 
L 153.0489 69.943102 
L 153.686273 69.752283 
L 154.323903 69.561857 
L 154.961788 69.371824 
L 155.599929 69.182184 
L 156.238325 68.992939 
L 156.876975 68.804089 
L 157.51588 68.615634 
L 158.155039 68.427575 
L 158.794451 68.239913 
L 159.434116 68.052648 
L 160.074034 67.86578 
L 160.714205 67.67931 
L 161.354627 67.49324 
L 161.995301 67.307568 
L 162.636226 67.122296 
L 163.277401 66.937425 
L 163.918827 66.752954 
L 164.560502 66.568885 
L 165.202427 66.385217 
L 165.844601 66.201953 
L 166.487023 66.019091 
L 167.129694 65.836633 
L 167.772612 65.654579 
L 168.415778 65.47293 
L 169.05919 65.291686 
L 169.702849 65.110847 
L 170.346754 64.930415 
L 170.990904 64.75039 
L 171.6353 64.570772 
L 172.27994 64.391562 
L 172.924825 64.212761 
L 173.569953 64.034368 
L 174.215325 63.856385 
L 174.86094 63.678812 
L 175.506797 63.50165 
L 176.152896 63.324899 
L 176.799237 63.148559 
L 177.445819 62.972632 
L 178.092642 62.797117 
L 178.739705 62.622015 
L 179.387008 62.447327 
L 180.034551 62.273054 
L 180.682332 62.099195 
L 181.330352 61.925752 
L 181.97861 61.752725 
L 182.627105 61.580114 
L 183.275837 61.407919 
L 183.924807 61.236143 
L 184.574012 61.064784 
L 185.223453 60.893844 
L 185.873129 60.723323 
L 186.52304 60.553221 
L 187.173185 60.38354 
L 187.823565 60.214279 
L 188.474177 60.045439 
L 189.125023 59.877021 
L 189.7761 59.709025 
L 190.42741 59.541451 
L 191.078951 59.374301 
L 191.730724 59.207574 
L 192.382727 59.041272 
L 193.034959 58.875394 
L 193.687422 58.709942 
L 194.340113 58.544915 
L 194.993033 58.380315 
L 195.646181 58.216141 
L 196.299557 58.052395 
L 196.95316 57.889076 
L 197.606989 57.726186 
L 198.261045 57.563725 
L 198.915326 57.401693 
L 199.569832 57.24009 
L 200.224563 57.078918 
L 200.879518 56.918177 
L 201.534697 56.757867 
L 202.190099 56.597989 
L 202.845723 56.438543 
L 202.845723 56.438543 
" clip-path="url(#p0274a5e7fe)" style="fill: none; stroke: #0000ff; stroke-width: 0.5; stroke-linecap: square"/>
   </g>
   <g id="line2d_15">
    <path d="M 169.907723 128.406481 
L 169.907723 128.406481 
L 170.164295 127.803853 
L 170.42118 127.200928 
L 170.678378 126.597704 
L 170.935892 125.994181 
L 171.19372 125.390358 
L 171.451863 124.786236 
L 171.710324 124.181814 
L 171.969101 123.577092 
L 172.228197 122.972069 
L 172.487611 122.366745 
L 172.747344 121.761119 
L 173.007397 121.155192 
L 173.267771 120.548963 
L 173.528466 119.942431 
L 173.789483 119.335597 
L 174.050823 118.72846 
L 174.312486 118.121019 
L 174.574474 117.513274 
L 174.836786 116.905226 
L 175.099424 116.296873 
L 175.362389 115.688215 
L 175.62568 115.079252 
L 175.8893 114.469983 
L 176.153247 113.860409 
L 176.417524 113.250529 
L 176.682131 112.640342 
L 176.947069 112.029848 
L 177.212338 111.419047 
L 177.477939 110.807938 
L 177.743874 110.196522 
L 178.010141 109.584797 
L 178.276743 108.972764 
L 178.54368 108.360422 
L 178.810954 107.74777 
L 179.078563 107.134809 
L 179.34651 106.521538 
L 179.614795 105.907957 
L 179.883419 105.294065 
L 180.152382 104.679862 
L 180.421686 104.065348 
L 180.691331 103.450522 
L 180.961318 102.835384 
L 181.231647 102.219934 
L 181.50232 101.604171 
L 181.773337 100.988095 
L 182.044698 100.371705 
L 182.316406 99.755002 
L 182.58846 99.137985 
L 182.860861 98.520653 
L 183.13361 97.903007 
L 183.406708 97.285045 
L 183.680155 96.666768 
L 183.953953 96.048175 
L 184.228102 95.429266 
L 184.502602 94.810041 
L 184.777456 94.190498 
L 185.052663 93.570639 
L 185.328224 92.950462 
L 185.60414 92.329967 
L 185.880412 91.709153 
L 186.157041 91.088022 
L 186.434027 90.466571 
L 186.711371 89.844801 
L 186.989075 89.222711 
L 187.267138 88.600302 
L 187.545562 87.977572 
L 187.824348 87.354521 
L 188.103496 86.73115 
L 188.383007 86.107457 
L 188.662882 85.483442 
L 188.943121 84.859105 
L 189.223727 84.234446 
L 189.504698 83.609465 
L 189.786037 82.98416 
L 190.067744 82.358532 
L 190.34982 81.73258 
L 190.632265 81.106304 
L 190.915082 80.479703 
L 191.198269 79.852778 
L 191.481829 79.225527 
L 191.765762 78.597951 
L 192.050068 77.97005 
L 192.33475 77.341822 
L 192.619807 76.713267 
L 192.90524 76.084386 
L 193.191051 75.455177 
L 193.47724 74.825641 
L 193.763808 74.195777 
L 194.050756 73.565585 
L 194.338085 72.935064 
L 194.625796 72.304214 
L 194.913888 71.673035 
L 195.202365 71.041527 
L 195.491225 70.409688 
L 195.780471 69.777519 
L 196.070102 69.145019 
L 196.360121 68.512189 
L 196.650527 67.879027 
L 196.941322 67.245533 
L 197.232506 66.611707 
L 197.524081 65.977549 
L 197.524081 65.977549 
" clip-path="url(#p0274a5e7fe)" style="fill: none; stroke: #0000ff; stroke-width: 0.5; stroke-linecap: square"/>
   </g>
   <g id="line2d_16">
    <path d="M 197.524081 65.977549 
L 197.524081 65.977549 
L 197.500985 65.945435 
L 197.477887 65.913321 
L 197.454788 65.881206 
L 197.431688 65.84909 
L 197.408586 65.816974 
L 197.385482 65.784857 
L 197.362377 65.75274 
L 197.33927 65.720622 
L 197.316161 65.688504 
L 197.293051 65.656386 
L 197.26994 65.624266 
L 197.246827 65.592147 
L 197.223712 65.560026 
L 197.200596 65.527906 
L 197.177478 65.495784 
L 197.154358 65.463662 
L 197.131237 65.43154 
L 197.108115 65.399417 
L 197.084991 65.367294 
L 197.061865 65.33517 
L 197.038738 65.303046 
L 197.015609 65.270921 
L 196.992478 65.238795 
L 196.969346 65.206669 
L 196.946213 65.174543 
L 196.923078 65.142416 
L 196.899941 65.110288 
L 196.876803 65.07816 
L 196.853663 65.046032 
L 196.830522 65.013903 
L 196.807379 64.981773 
L 196.784234 64.949643 
L 196.761088 64.917512 
L 196.73794 64.885381 
L 196.714791 64.85325 
L 196.69164 64.821118 
L 196.668487 64.788985 
L 196.645333 64.756852 
L 196.622178 64.724718 
L 196.599021 64.692584 
L 196.575862 64.660449 
L 196.552702 64.628314 
L 196.52954 64.596178 
L 196.506376 64.564042 
L 196.483211 64.531905 
L 196.460045 64.499768 
L 196.436877 64.46763 
L 196.413707 64.435491 
L 196.390535 64.403352 
L 196.367362 64.371213 
L 196.344188 64.339073 
L 196.321012 64.306933 
L 196.297834 64.274792 
L 196.274655 64.24265 
L 196.251474 64.210508 
L 196.228292 64.178366 
L 196.205108 64.146223 
L 196.181922 64.114079 
L 196.158735 64.081935 
L 196.135547 64.049791 
L 196.112356 64.017646 
L 196.089165 63.9855 
L 196.065971 63.953354 
L 196.042776 63.921207 
L 196.01958 63.88906 
L 195.996381 63.856913 
L 195.973182 63.824764 
L 195.94998 63.792616 
L 195.926777 63.760467 
L 195.903573 63.728317 
L 195.880367 63.696167 
L 195.857159 63.664016 
L 195.83395 63.631865 
L 195.810739 63.599713 
L 195.787527 63.567561 
L 195.764313 63.535408 
L 195.741097 63.503254 
L 195.71788 63.471101 
L 195.694662 63.438946 
L 195.671441 63.406791 
L 195.648219 63.374636 
L 195.624996 63.34248 
L 195.601771 63.310324 
L 195.578544 63.278167 
L 195.555316 63.246009 
L 195.532086 63.213851 
L 195.508855 63.181693 
L 195.485622 63.149534 
L 195.462388 63.117374 
L 195.439152 63.085214 
L 195.415914 63.053054 
L 195.392675 63.020893 
L 195.369434 62.988731 
L 195.346191 62.956569 
L 195.322947 62.924407 
L 195.299702 62.892244 
L 195.276455 62.86008 
L 195.253206 62.827916 
L 195.229955 62.795751 
L 195.206703 62.763586 
L 195.18345 62.73142 
L 195.18345 62.73142 
" clip-path="url(#p0274a5e7fe)" style="fill: none; stroke: #0000ff; stroke-width: 0.5; stroke-linecap: square"/>
   </g>
   <g id="line2d_17">
    <path d="M 195.18345 62.73142 
L 195.18345 62.73142 
L 195.258813 62.669014 
L 195.334187 62.60661 
L 195.40957 62.544208 
L 195.484964 62.481807 
L 195.560367 62.419409 
L 195.63578 62.357013 
L 195.711204 62.294618 
L 195.786637 62.232226 
L 195.86208 62.169835 
L 195.937533 62.107447 
L 196.012997 62.04506 
L 196.08847 61.982676 
L 196.163953 61.920293 
L 196.239446 61.857912 
L 196.314949 61.795534 
L 196.390462 61.733157 
L 196.465985 61.670782 
L 196.541519 61.608409 
L 196.617062 61.546038 
L 196.692615 61.483669 
L 196.768178 61.421303 
L 196.843751 61.358938 
L 196.919334 61.296575 
L 196.994927 61.234214 
L 197.07053 61.171855 
L 197.146143 61.109498 
L 197.221766 61.047143 
L 197.297399 60.98479 
L 197.373042 60.922439 
L 197.448695 60.86009 
L 197.524358 60.797743 
L 197.600031 60.735398 
L 197.675715 60.673055 
L 197.751408 60.610714 
L 197.827111 60.548375 
L 197.902824 60.486039 
L 197.978547 60.423704 
L 198.05428 60.361371 
L 198.130023 60.29904 
L 198.205777 60.236711 
L 198.28154 60.174384 
L 198.357313 60.112059 
L 198.433096 60.049736 
L 198.50889 59.987416 
L 198.584693 59.925097 
L 198.660506 59.86278 
L 198.73633 59.800466 
L 198.812163 59.738153 
L 198.888006 59.675842 
L 198.96386 59.613534 
L 199.039723 59.551227 
L 199.115597 59.488923 
L 199.19148 59.42662 
L 199.267374 59.36432 
L 199.343278 59.302021 
L 199.419191 59.239725 
L 199.495115 59.177431 
L 199.571049 59.115139 
L 199.646993 59.052848 
L 199.722947 58.99056 
L 199.79891 58.928274 
L 199.874884 58.86599 
L 199.950868 58.803708 
L 200.026863 58.741428 
L 200.102867 58.679151 
L 200.178881 58.616875 
L 200.254905 58.554601 
L 200.330939 58.49233 
L 200.406984 58.43006 
L 200.483038 58.367793 
L 200.559103 58.305527 
L 200.635177 58.243264 
L 200.711262 58.181003 
L 200.787356 58.118744 
L 200.863461 58.056487 
L 200.939576 57.994232 
L 201.015701 57.931979 
L 201.091836 57.869728 
L 201.167981 57.80748 
L 201.244136 57.745233 
L 201.320301 57.682989 
L 201.396476 57.620746 
L 201.472662 57.558506 
L 201.548857 57.496268 
L 201.625063 57.434032 
L 201.701278 57.371798 
L 201.777504 57.309566 
L 201.85374 57.247336 
L 201.929986 57.185109 
L 202.006241 57.122883 
L 202.082507 57.06066 
L 202.158784 56.998439 
L 202.23507 56.93622 
L 202.311366 56.874003 
L 202.387673 56.811788 
L 202.463989 56.749575 
L 202.540316 56.687365 
L 202.616652 56.625156 
L 202.692999 56.56295 
L 202.769356 56.500745 
L 202.845723 56.438543 
L 202.845723 56.438543 
" clip-path="url(#p0274a5e7fe)" style="fill: none; stroke: #0000ff; stroke-width: 0.5; stroke-linecap: square"/>
   </g>
   <g id="line2d_18">
    <path d="M 202.845723 56.438543 
L 202.845723 56.438543 
L 202.875757 56.49803 
L 202.905786 56.557514 
L 202.935812 56.616996 
L 202.965834 56.676474 
L 202.995853 56.73595 
L 203.025867 56.795423 
L 203.055878 56.854893 
L 203.085885 56.914361 
L 203.115888 56.973825 
L 203.145887 57.033287 
L 203.175883 57.092746 
L 203.205875 57.152203 
L 203.235863 57.211656 
L 203.265847 57.271107 
L 203.295827 57.330555 
L 203.325804 57.39 
L 203.355776 57.449442 
L 203.385746 57.508882 
L 203.415711 57.568319 
L 203.445672 57.627753 
L 203.47563 57.687184 
L 203.505584 57.746613 
L 203.535534 57.806039 
L 203.56548 57.865462 
L 203.595423 57.924882 
L 203.625361 57.984299 
L 203.655296 58.043714 
L 203.685228 58.103126 
L 203.715155 58.162535 
L 203.745079 58.221941 
L 203.774999 58.281345 
L 203.804915 58.340746 
L 203.834827 58.400144 
L 203.864735 58.459539 
L 203.89464 58.518931 
L 203.924541 58.578321 
L 203.954438 58.637708 
L 203.984332 58.697092 
L 204.014221 58.756474 
L 204.044107 58.815852 
L 204.07399 58.875228 
L 204.103868 58.934601 
L 204.133742 58.993971 
L 204.163613 59.053339 
L 204.19348 59.112704 
L 204.223344 59.172066 
L 204.253203 59.231425 
L 204.283059 59.290781 
L 204.312911 59.350135 
L 204.342759 59.409486 
L 204.372604 59.468834 
L 204.402444 59.528179 
L 204.432281 59.587522 
L 204.462115 59.646862 
L 204.491944 59.706199 
L 204.52177 59.765533 
L 204.551592 59.824864 
L 204.58141 59.884193 
L 204.611224 59.943519 
L 204.641035 60.002842 
L 204.670842 60.062163 
L 204.700645 60.12148 
L 204.730444 60.180795 
L 204.76024 60.240107 
L 204.790032 60.299417 
L 204.81982 60.358723 
L 204.849605 60.418027 
L 204.879385 60.477328 
L 204.909162 60.536626 
L 204.938935 60.595922 
L 204.968705 60.655215 
L 204.99847 60.714505 
L 205.028232 60.773792 
L 205.057991 60.833076 
L 205.087745 60.892358 
L 205.117496 60.951637 
L 205.147243 61.010913 
L 205.176986 61.070187 
L 205.206725 61.129457 
L 205.236461 61.188725 
L 205.266193 61.24799 
L 205.295921 61.307253 
L 205.325646 61.366512 
L 205.355367 61.425769 
L 205.385084 61.485023 
L 205.414797 61.544274 
L 205.444507 61.603523 
L 205.474213 61.662769 
L 205.503915 61.722012 
L 205.533613 61.781252 
L 205.563308 61.840489 
L 205.592999 61.899724 
L 205.622686 61.958956 
L 205.65237 62.018185 
L 205.682049 62.077412 
L 205.711726 62.136636 
L 205.741398 62.195856 
L 205.771066 62.255075 
L 205.800731 62.31429 
L 205.830392 62.373503 
L 205.86005 62.432713 
L 205.86005 62.432713 
" clip-path="url(#p0274a5e7fe)" style="fill: none; stroke: #0000ff; stroke-width: 0.5; stroke-linecap: square"/>
   </g>
   <g id="line2d_19">
    <path d="M 205.86005 62.432713 
L 205.86005 62.432713 
L 206.076379 62.6118 
L 206.292625 62.790904 
L 206.50879 62.970024 
L 206.724872 63.149159 
L 206.940873 63.328311 
L 207.156792 63.507478 
L 207.372628 63.686661 
L 207.588383 63.86586 
L 207.804056 64.045074 
L 208.019647 64.224304 
L 208.235157 64.40355 
L 208.450585 64.582811 
L 208.665931 64.762088 
L 208.881195 64.94138 
L 209.096378 65.120688 
L 209.311479 65.300011 
L 209.526498 65.479349 
L 209.741436 65.658703 
L 209.956292 65.838072 
L 210.171067 66.017456 
L 210.385761 66.196855 
L 210.600373 66.376269 
L 210.814904 66.555698 
L 211.029353 66.735143 
L 211.243721 66.914602 
L 211.458008 67.094076 
L 211.672213 67.273566 
L 211.886338 67.45307 
L 212.100381 67.632588 
L 212.314343 67.812122 
L 212.528224 67.99167 
L 212.742024 68.171233 
L 212.955743 68.350811 
L 213.16938 68.530403 
L 213.382937 68.710009 
L 213.596413 68.88963 
L 213.809808 69.069266 
L 214.023122 69.248916 
L 214.236356 69.42858 
L 214.449508 69.608259 
L 214.66258 69.787952 
L 214.875571 69.967659 
L 215.088481 70.14738 
L 215.301311 70.327116 
L 215.51406 70.506865 
L 215.726728 70.686629 
L 215.939316 70.866407 
L 216.151823 71.046198 
L 216.36425 71.226004 
L 216.576596 71.405823 
L 216.788862 71.585656 
L 217.001048 71.765503 
L 217.213153 71.945364 
L 217.425178 72.125239 
L 217.637122 72.305127 
L 217.848987 72.485029 
L 218.060771 72.664944 
L 218.272475 72.844873 
L 218.484098 73.024815 
L 218.695642 73.204771 
L 218.907105 73.384741 
L 219.118489 73.564723 
L 219.329792 73.744719 
L 219.541016 73.924729 
L 219.752159 74.104751 
L 219.963223 74.284787 
L 220.174206 74.464836 
L 220.38511 74.644898 
L 220.595934 74.824973 
L 220.806678 75.005061 
L 221.017343 75.185162 
L 221.227927 75.365276 
L 221.438432 75.545403 
L 221.648858 75.725543 
L 221.859204 75.905695 
L 222.06947 76.085861 
L 222.279657 76.266039 
L 222.489764 76.44623 
L 222.699791 76.626433 
L 222.90974 76.80665 
L 223.119609 76.986878 
L 223.329398 77.16712 
L 223.539108 77.347373 
L 223.748739 77.52764 
L 223.958291 77.707918 
L 224.167763 77.888209 
L 224.377156 78.068512 
L 224.58647 78.248828 
L 224.795705 78.429156 
L 225.00486 78.609496 
L 225.213937 78.789848 
L 225.422935 78.970213 
L 225.631853 79.150589 
L 225.840693 79.330978 
L 226.049454 79.511378 
L 226.258136 79.69179 
L 226.466738 79.872215 
L 226.675263 80.052651 
L 226.883708 80.233099 
L 227.092075 80.413559 
L 227.300362 80.594031 
L 227.300362 80.594031 
" clip-path="url(#p0274a5e7fe)" style="fill: none; stroke: #0000ff; stroke-width: 0.5; stroke-linecap: square"/>
   </g>
   <g id="patch_3">
    <path d="M 7.2 163.223019 
L 7.2 7.2 
" style="fill: none; stroke: #000000; stroke-width: 0.8; stroke-linejoin: miter; stroke-linecap: square"/>
   </g>
   <g id="patch_4">
    <path d="M 364.32 163.223019 
L 364.32 7.2 
" style="fill: none; stroke: #000000; stroke-width: 0.8; stroke-linejoin: miter; stroke-linecap: square"/>
   </g>
   <g id="patch_5">
    <path d="M 7.2 163.223019 
L 364.32 163.223019 
" style="fill: none; stroke: #000000; stroke-width: 0.8; stroke-linejoin: miter; stroke-linecap: square"/>
   </g>
   <g id="patch_6">
    <path d="M 7.2 7.2 
L 364.32 7.2 
" style="fill: none; stroke: #000000; stroke-width: 0.8; stroke-linejoin: miter; stroke-linecap: square"/>
   </g>
   <g id="PathCollection_1">
    <defs>
     <path id="mc68d70b81c" d="M 0 0.5 
C 0.132602 0.5 0.25979 0.447317 0.353553 0.353553 
C 0.447317 0.25979 0.5 0.132602 0.5 0 
C 0.5 -0.132602 0.447317 -0.25979 0.353553 -0.353553 
C 0.25979 -0.447317 0.132602 -0.5 0 -0.5 
C -0.132602 -0.5 -0.25979 -0.447317 -0.353553 -0.353553 
C -0.447317 -0.25979 -0.5 -0.132602 -0.5 0 
C -0.5 0.132602 -0.447317 0.25979 -0.353553 0.353553 
C -0.25979 0.447317 -0.132602 0.5 0 0.5 
z
" style="stroke: #ff0000"/>
    </defs>
    <g clip-path="url(#p0274a5e7fe)">
     <use xlink:href="#mc68d70b81c" x="269.091562" y="31.128251" style="fill: #ff0000; stroke: #ff0000"/>
     <use xlink:href="#mc68d70b81c" x="258.423129" y="129.806049" style="fill: #ff0000; stroke: #ff0000"/>
     <use xlink:href="#mc68d70b81c" x="289.514914" y="142.412621" style="fill: #ff0000; stroke: #ff0000"/>
     <use xlink:href="#mc68d70b81c" x="313.302857" y="53.240842" style="fill: #ff0000; stroke: #ff0000"/>
     <use xlink:href="#mc68d70b81c" x="229.553881" y="86.54446" style="fill: #ff0000; stroke: #ff0000"/>
     <use xlink:href="#mc68d70b81c" x="252.02334" y="103.197235" style="fill: #ff0000; stroke: #ff0000"/>
     <use xlink:href="#mc68d70b81c" x="58.217143" y="35.612304" style="fill: #ff0000; stroke: #ff0000"/>
     <use xlink:href="#mc68d70b81c" x="137.82983" y="74.639113" style="fill: #ff0000; stroke: #ff0000"/>
     <use xlink:href="#mc68d70b81c" x="169.907723" y="128.406481" style="fill: #ff0000; stroke: #ff0000"/>
     <use xlink:href="#mc68d70b81c" x="197.524081" y="65.977549" style="fill: #ff0000; stroke: #ff0000"/>
     <use xlink:href="#mc68d70b81c" x="195.18345" y="62.73142" style="fill: #ff0000; stroke: #ff0000"/>
     <use xlink:href="#mc68d70b81c" x="202.845723" y="56.438543" style="fill: #ff0000; stroke: #ff0000"/>
     <use xlink:href="#mc68d70b81c" x="205.86005" y="62.432713" style="fill: #ff0000; stroke: #ff0000"/>
     <use xlink:href="#mc68d70b81c" x="227.300362" y="80.594031" style="fill: #ff0000; stroke: #ff0000"/>
    </g>
   </g>
   <g id="PathCollection_2"/>
  </g>
 </g>
 <defs>
  <clipPath id="p0274a5e7fe">
   <rect x="7.2" y="7.2" width="357.12" height="156.023019"/>
  </clipPath>
 </defs>
</svg>
