<?xml version="1.0" encoding="utf-8" standalone="no"?>
<!DOCTYPE svg PUBLIC "-//W3C//DTD SVG 1.1//EN"
  "http://www.w3.org/Graphics/SVG/1.1/DTD/svg11.dtd">
<svg xmlns:xlink="http://www.w3.org/1999/xlink" width="371.52pt" height="136.686855pt" viewBox="0 0 371.52 136.686855" xmlns="http://www.w3.org/2000/svg" version="1.1">
 <metadata>
  <rdf:RDF xmlns:dc="http://purl.org/dc/elements/1.1/" xmlns:cc="http://creativecommons.org/ns#" xmlns:rdf="http://www.w3.org/1999/02/22-rdf-syntax-ns#">
   <cc:Work>
    <dc:type rdf:resource="http://purl.org/dc/dcmitype/StillImage"/>
    <dc:date>2025-04-17T08:30:04.016567</dc:date>
    <dc:format>image/svg+xml</dc:format>
    <dc:creator>
     <cc:Agent>
      <dc:title>Matplotlib v3.8.4, https://matplotlib.org/</dc:title>
     </cc:Agent>
    </dc:creator>
   </cc:Work>
  </rdf:RDF>
 </metadata>
 <defs>
  <style type="text/css">*{stroke-linejoin: round; stroke-linecap: butt}</style>
 </defs>
 <g id="figure_1">
  <g id="patch_1">
   <path d="M 0 136.686855 
L 371.52 136.686855 
L 371.52 0 
L 0 0 
z
" style="fill: #ffffff"/>
  </g>
  <g id="axes_1">
   <g id="patch_2">
    <path d="M 7.2 129.486855 
L 364.32 129.486855 
L 364.32 7.2 
L 7.2 7.2 
z
" style="fill: #ffffff"/>
   </g>
   <g id="matplotlib.axis_1"/>
   <g id="matplotlib.axis_2"/>
   <g id="LineCollection_1">
    <path d="M 266.408906 118.100368 
L 266.408697 118.09258 
L 265.619593 116.346299 
L 265.733753 116.887421 
L 264.799184 116.470369 
L 264.000898 117.305019 
L 262.834147 115.211258 
L 263.459732 115.447474 
L 263.317397 114.994436 
L 261.840828 115.33771 
L 260.22255 114.054319 
L 260.53049 112.904166 
L 261.410901 112.689669 
L 261.020419 111.400497 
L 259.442108 111.262413 
L 259.276502 112.955038 
L 258.552931 112.780599 
L 257.259394 113.704879 
L 255.34455 112.061112 
L 257.196157 112.402323 
L 258.476129 110.642503 
L 257.190626 107.992131 
L 254.324621 110.175531 
L 253.347059 110.301973 
L 254.141694 110.812837 
L 255.606889 110.421741 
L 255.378359 111.777907 
L 253.816848 111.828489 
L 251.127301 113.514903 
L 247.810186 116.850836 
L 239.735074 112.417094 
L 238.16751 112.780332 
L 235.364011 111.589439 
L 234.041882 113.136986 
L 233.500404 112.533137 
L 232.884732 112.736663 
L 232.759197 111.719819 
L 230.342841 109.813584 
L 227.465044 109.63961 
L 226.071225 108.494133 
L 225.758172 106.676436 
L 225.994736 108.223353 
L 221.711537 102.305142 
L 222.076454 101.733412 
L 221.233192 100.391163 
L 222.429787 99.372092 
L 222.56106 98.198403 
L 220.837805 93.600796 
L 218.730328 90.797865 
L 215.915873 88.552105 
L 219.100358 91.015484 
L 221.589238 94.671737 
L 220.187906 91.898466 
L 215.901681 88.296235 
L 214.68839 88.149426 
L 213.405496 89.235799 
L 210.478863 89.077745 
L 212.855983 86.761001 
L 213.117487 81.991512 
L 213.223195 82.557239 
L 213.693088 82.379946 
L 210.453819 76.645088 
L 209.037669 79.795678 
L 208.906708 82.005614 
L 207.829074 84.347482 
L 208.18585 84.810863 
L 207.353232 85.270601 
L 205.917673 84.657345 
L 204.184922 85.822123 
L 201.956711 86.212488 
L 203.079216 82.953182 
L 205.56434 83.446873 
L 206.06846 83.060633 
L 206.472926 80.48725 
L 206.29052 79.173247 
L 205.817496 79.311495 
L 206.415741 78.013298 
L 206.051347 76.683163 
L 206.557972 76.614075 
L 207.094441 74.524188 
L 209.658663 71.852364 
L 208.530209 69.496583 
L 210.14327 68.05352 
L 209.424812 67.325828 
L 209.345609 65.371654 
L 208.128248 62.925969 
L 208.312011 67.325828 
L 207.358867 66.975969 
L 206.085365 68.468829 
L 204.46427 72.751984 
L 202.9709 73.293811 
L 202.532416 72.86157 
L 202.141517 73.584399 
L 202.680595 73.526347 
L 200.20695 74.719852 
L 196.921244 78.538101 
L 196.819293 80.00328 
L 196.554033 79.508508 
L 195.678839 79.947668 
L 195.4165 81.776452 
L 194.692929 82.255188 
L 196.203517 81.637518 
L 195.841523 83.891614 
L 194.695642 82.66838 
L 193.53891 83.370168 
L 191.014133 80.089302 
L 190.065372 80.411064 
L 190.740733 79.086895 
L 190.815239 79.64676 
L 191.741043 79.851024 
L 191.359118 80.09323 
L 191.818054 80.843696 
L 192.841009 80.612131 
L 192.279286 80.553047 
L 192.062653 79.715707 
L 191.974894 80.459551 
L 190.561353 74.54499 
L 188.127988 72.454406 
L 188.247574 70.970767 
L 186.953933 69.244403 
L 187.295891 68.808756 
L 186.290259 68.641951 
L 186.768605 69.336605 
L 185.566688 68.526158 
L 184.973556 68.771228 
L 184.33524 67.540119 
L 184.699843 68.961944 
L 183.403488 67.495688 
L 183.75129 66.891096 
L 182.862323 66.626032 
L 183.397957 66.009003 
L 182.881628 65.036074 
L 183.964897 65.165015 
L 183.845206 65.70019 
L 184.423834 64.877146 
L 183.697028 63.141869 
L 182.716544 62.952991 
L 181.428955 63.655995 
L 181.534454 62.476747 
L 182.080941 62.294466 
L 179.764866 59.932813 
L 179.359671 60.619733 
L 178.841254 60.054328 
L 178.351325 60.363657 
L 178.938405 60.889032 
L 176.482083 60.922516 
L 173.849511 58.823964 
L 172.338819 58.71673 
L 171.817272 59.008708 
L 172.008234 59.482464 
L 170.1392 59.469539 
L 167.118755 56.966046 
L 162.981022 54.91184 
L 160.513743 56.075275 
L 156.153846 55.83442 
L 148.220965 56.704792 
L 143.109114 59.240503 
L 136.093323 61.448291 
L 132.400595 61.718017 
L 129.106594 61.098103 
L 127.45388 61.54938 
L 119.58914 66.324658 
L 115.668248 67.485545 
L 114.833543 68.529586 
L 113.859008 71.920547 
L 110.830006 75.015621 
L 109.741519 74.658061 
L 108.299698 75.647439 
L 108.100022 74.705897 
L 107.319475 74.328578 
L 104.595336 74.637444 
L 104.282073 75.207711 
L 102.89175 74.774797 
L 102.327367 75.572034 
L 101.175956 75.729652 
L 100.406627 74.116126 
L 98.941797 74.768384 
L 96.120976 73.992655 
L 90.678488 74.630593 
L 89.612749 75.317429 
L 86.051087 74.987699 
L 82.981858 77.861353 
L 83.771327 78.707264 
L 82.677152 78.582727 
L 82.677309 79.287324 
L 81.816412 79.231833 
L 81.588613 79.916317 
L 78.887117 79.217977 
L 79.254694 79.657143 
L 78.243323 79.923221 
L 77.946965 80.948027 
L 76.009164 81.835387 
L 75.752669 83.120124 
L 74.219698 83.314601 
L 74.37372 84.037951 
L 72.789408 83.954426 
L 72.854784 83.137304 
L 72.5326 83.356291 
L 72.011679 84.222684 
L 73.191213 84.717039 
L 72.715162 84.901446 
L 70.874355 84.204967 
L 70.395644 84.957205 
L 68.50381 83.968123 
L 65.608899 84.323133 
L 64.34338 83.717861 
L 63.625287 84.309428 
L 61.858622 83.314601 
L 62.921647 83.387545 
L 62.155136 82.696359 
L 61.858413 83.265913 
L 59.328836 82.473704 
L 57.334007 79.397685 
L 54.911755 78.140766 
L 53.623592 78.182587 
L 53.395637 78.610287 
L 52.412596 76.345606 
L 52.521069 71.64729 
L 53.868661 72.635771 
L 54.951669 72.553668 
L 57.291066 69.78331 
L 56.623949 64.599308 
L 57.593111 63.030664 
L 57.165532 61.350794 
L 57.775517 60.757946 
L 57.524917 59.640716 
L 58.621387 59.375134 
L 58.556429 58.908151 
L 57.507647 59.62034 
L 57.165323 56.420215 
L 52.874559 47.277054 
L 52.167736 43.647284 
L 52.463885 39.261533 
L 51.60904 36.294774 
L 49.591201 33.695946 
L 49.824896 32.760198 
L 49.277939 31.43694 
L 46.844522 28.485227 
L 46.365811 26.458416 
L 46.745127 25.328239 
L 45.534288 21.849605 
L 39.886072 13.403509 
L 40.721507 14.117858 
L 40.897809 12.359795 
L 41.015047 14.845649 
L 41.496002 15.306576 
L 41.348032 12.359562 
L 42.277175 15.981483 
L 42.54807 14.489651 
L 42.815888 17.163384 
L 43.120593 15.77159 
L 43.354444 17.389784 
L 44.57097 16.780948 
L 44.83884 14.782309 
L 42.781347 12.965763 
L 41.980817 9.801522 
L 42.032106 10.604952 
L 41.647259 10.145985 
L 42.322359 8.512266 
L 44.024066 11.367924 
L 43.77884 13.790878 
L 44.889972 12.711803 
L 44.795899 11.826993 
L 45.129093 14.159509 
L 46.180744 15.803412 
L 47.260726 14.674385 
L 46.981639 12.102757 
L 47.591624 12.236142 
L 47.574145 11.101894 
L 46.799077 10.734638 
L 45.05653 7.2 
L 45.05653 7.2 
" clip-path="url(#p9203835bfb)" style="fill: none; stroke: #000000; stroke-width: 0.2"/>
    <path d="M 311.801935 7.2 
L 311.880768 7.947759 
L 310.729566 8.53435 
L 312.092184 7.972544 
L 311.499573 8.585109 
L 311.481834 9.950084 
L 312.291077 10.525573 
L 311.855306 10.959171 
L 312.536511 10.981372 
L 312.365166 12.052263 
L 312.715473 10.813572 
L 313.166062 11.719543 
L 313.710566 11.748029 
L 312.724865 15.240232 
L 313.226377 15.132019 
L 313.100216 17.188952 
L 312.701595 17.048863 
L 313.351285 17.46289 
L 312.952246 19.136001 
L 313.325719 18.455672 
L 313.818778 20.543213 
L 312.8696 19.228679 
L 312.690012 19.838999 
L 313.385303 20.4852 
L 312.593382 20.876132 
L 313.209263 21.541888 
L 312.559155 22.170349 
L 313.465445 22.702802 
L 313.000665 23.373628 
L 313.554039 22.99507 
L 314.388744 23.839179 
L 315.448744 28.446187 
L 316.309119 29.170157 
L 316.058363 31.747837 
L 316.76503 32.578563 
L 316.485786 34.307667 
L 316.025806 34.407878 
L 316.394583 34.444104 
L 314.75293 37.731159 
L 314.895787 38.718095 
L 314.413789 38.388343 
L 314.952971 38.855643 
L 314.263106 42.614334 
L 312.547781 47.131362 
L 312.838399 51.662115 
L 310.72414 57.968371 
L 309.288372 59.311077 
L 308.994414 60.693768 
L 308.011218 60.723853 
L 308.809087 61.121234 
L 308.965822 61.994266 
L 308.934412 60.784889 
L 309.453455 60.939352 
L 309.26531 62.807996 
L 307.848743 63.520761 
L 306.971671 64.914162 
L 306.714654 64.399828 
L 306.047954 64.82612 
L 305.067888 64.521653 
L 305.418404 64.938096 
L 304.965624 65.300555 
L 305.250085 65.544778 
L 305.996822 64.894073 
L 306.837058 65.235915 
L 304.184138 66.587747 
L 304.26741 65.947901 
L 303.757133 66.086507 
L 304.098674 66.536849 
L 303.232768 68.036768 
L 302.919506 67.037097 
L 302.933593 68.00613 
L 302.226927 67.992057 
L 302.611461 68.778085 
L 303.281396 68.060059 
L 302.64548 69.698291 
L 301.776861 69.824013 
L 302.210022 70.179388 
L 301.799922 71.326027 
L 301.11277 71.794016 
L 301.044628 70.823711 
L 300.856483 71.862632 
L 300.089606 71.503474 
L 300.442939 72.050733 
L 299.864729 72.581056 
L 300.685138 71.992369 
L 300.631085 72.673253 
L 300.964382 72.040212 
L 301.104213 72.419943 
L 300.82236 74.075176 
L 300.149817 73.649486 
L 300.273264 74.25344 
L 299.730638 74.099168 
L 300.047135 74.500621 
L 300.699852 74.160722 
L 300.597066 75.28012 
L 298.956144 75.417599 
L 300.295387 75.78883 
L 299.166829 76.070375 
L 299.901774 76.28386 
L 298.283287 78.082272 
L 298.192084 79.636378 
L 297.44566 79.712224 
L 298.066863 80.473432 
L 297.51975 81.991512 
L 295.998205 82.706279 
L 296.787622 82.820688 
L 296.718541 83.307855 
L 297.16913 82.99504 
L 297.63944 84.382542 
L 297.171947 84.507624 
L 297.163182 83.704232 
L 296.414045 84.006413 
L 297.075214 85.260388 
L 295.510468 85.702994 
L 293.79796 89.884327 
L 292.920889 89.70299 
L 293.518508 90.586879 
L 292.544181 91.465364 
L 293.006039 91.458794 
L 292.452978 92.797012 
L 292.823216 94.830604 
L 291.461642 99.913498 
L 291.045907 99.821047 
L 291.535835 100.890612 
L 291.05749 101.790601 
L 291.903465 101.951662 
L 292.236658 102.977933 
L 291.495556 103.135945 
L 291.735355 105.072863 
L 290.295726 105.57956 
L 290.592709 104.93259 
L 289.715012 104.983159 
L 290.292909 105.68337 
L 288.370238 107.436653 
L 278.835775 108.143913 
L 279.11481 107.703996 
L 277.217184 108.490497 
L 275.854775 108.057346 
L 276.32519 108.660255 
L 274.464191 110.045204 
L 278.006287 108.429072 
L 275.03447 110.298658 
L 270.56657 114.929238 
L 270.851135 114.557213 
L 268.366534 115.520483 
L 266.092826 115.432633 
L 266.542684 117.268141 
L 267.805229 116.335119 
L 267.443443 119.263552 
L 266.408906 118.100368 
L 266.408906 118.100368 
" clip-path="url(#p9203835bfb)" style="fill: none; stroke: #000000; stroke-width: 0.2"/>
    <path d="M 202.9709 92.392484 
L 202.965161 92.398548 
L 200.941895 92.765061 
L 199.799667 91.269044 
L 200.152792 90.136816 
L 207.262238 88.548128 
L 206.94021 89.919418 
L 208.339351 89.930151 
L 208.168215 90.913456 
L 209.188456 89.852709 
L 210.695809 90.579416 
L 210.105808 91.433929 
L 207.45007 91.293259 
L 207.108946 92.329268 
L 206.162481 92.863757 
L 204.486392 92.032493 
L 202.9709 92.392484 
" clip-path="url(#p9203835bfb)" style="fill: none; stroke: #000000; stroke-width: 0.2"/>
    <path d="M 312.385202 7.982019 
L 312.391045 7.975895 
L 312.57276 7.2 
" clip-path="url(#p9203835bfb)" style="fill: none; stroke: #000000; stroke-width: 0.2"/>
    <path d="M 314.030456 7.2 
L 312.863652 10.725192 
L 312.006407 9.128319 
L 312.385202 7.982019 
" clip-path="url(#p9203835bfb)" style="fill: none; stroke: #000000; stroke-width: 0.2"/>
    <path d="M 278.19725 127.9124 
L 278.191406 127.912878 
L 277.208627 127.156543 
L 277.336353 126.179007 
L 276.473473 125.86305 
L 277.775671 124.457371 
L 279.394367 126.587762 
L 280.234394 126.613765 
L 279.63114 128.080034 
L 280.163435 127.659366 
L 280.491306 128.841004 
L 278.80113 129.382286 
L 278.19725 127.9124 
" clip-path="url(#p9203835bfb)" style="fill: none; stroke: #000000; stroke-width: 0.2"/>
    <path d="M 251.739842 126.963348 
L 251.733894 126.971045 
L 250.397677 128.381986 
L 250.035579 128.012961 
L 249.790771 124.416605 
L 250.494724 123.221823 
L 251.614621 124.031462 
L 251.739842 126.963348 
" clip-path="url(#p9203835bfb)" style="fill: none; stroke: #000000; stroke-width: 0.2"/>
   </g>
   <g id="LineCollection_2"/>
   <g id="LineCollection_3">
    <path d="M 148.210385 7.2 
L 148.210217 7.566301 
L 148.210008 8.020614 
L 148.209799 8.475095 
L 148.209695 8.929862 
L 148.209486 9.384798 
L 148.209278 9.839963 
L 148.209173 10.295357 
L 148.208965 10.750981 
L 148.208756 11.206894 
L 148.208547 11.663038 
L 148.208443 12.119356 
L 148.208234 12.575908 
L 148.208025 13.032693 
L 148.207921 13.489712 
L 148.207712 13.947025 
L 148.207504 14.404573 
L 148.207295 14.8623 
L 148.207191 15.320265 
L 148.206982 15.778467 
L 148.206773 16.236909 
L 148.206669 16.695648 
L 148.20646 17.15457 
L 148.206251 17.613791 
L 148.206043 18.073195 
L 148.205938 18.532842 
L 148.20573 18.992733 
L 148.205521 19.452926 
L 148.205417 19.913306 
L 148.205208 20.37399 
L 148.204999 20.834862 
L 148.204895 21.295981 
L 148.204686 21.757348 
L 148.204477 22.218964 
L 148.204269 22.680889 
L 148.204164 23.143064 
L 148.203956 23.605431 
L 148.203747 24.06805 
L 148.203643 24.530921 
L 148.203434 24.994047 
L 148.203225 25.457485 
L 148.203017 25.921119 
L 148.202912 26.385069 
L 148.202703 26.849216 
L 148.202495 27.31362 
L 148.20239 27.778283 
L 148.202182 28.243264 
L 148.201973 28.708445 
L 148.201764 29.173946 
L 148.20166 29.63965 
L 148.201451 30.105616 
L 148.201243 30.571844 
L 148.201138 31.038337 
L 148.20093 31.505154 
L 148.200721 31.972236 
L 148.200512 32.439525 
L 148.200408 32.907081 
L 148.200199 33.374905 
L 148.19999 33.842998 
L 148.199886 34.31142 
L 148.199677 34.780112 
L 148.199469 35.249016 
L 148.19926 35.718192 
L 148.199156 36.187641 
L 148.198947 36.657364 
L 148.198738 37.127421 
L 148.198634 37.597694 
L 148.198425 38.068302 
L 148.198216 38.539128 
L 148.198112 39.010232 
L 148.197903 39.481614 
L 148.197695 39.953336 
L 148.197486 40.425279 
L 148.197382 40.897563 
L 148.197173 41.370069 
L 148.196964 41.842858 
L 148.19686 42.315931 
L 148.196651 42.789288 
L 148.196442 43.262992 
L 148.196234 43.736982 
L 148.196129 44.211199 
L 148.195921 44.685704 
L 148.195712 45.160498 
L 148.195608 45.635582 
L 148.195399 46.111018 
L 148.19519 46.586745 
L 148.194981 47.062704 
L 148.194877 47.538957 
L 148.194668 48.015504 
L 148.19446 48.492346 
L 148.194355 48.969545 
L 148.194147 49.446981 
L 148.193938 49.924775 
L 148.193729 50.402807 
L 148.193625 50.881139 
L 148.193416 51.359771 
L 148.193208 51.838766 
L 148.193103 52.318002 
L 148.192894 52.797603 
L 148.192686 53.277447 
L 148.192581 53.757596 
L 148.192373 54.238051 
L 148.192164 54.718813 
L 148.191955 55.199944 
L 148.191851 55.681384 
L 148.191642 56.163073 
L 148.191434 56.645072 
L 148.191434 56.721348 
" clip-path="url(#p9203835bfb)" style="fill: none; stroke: #000000; stroke-width: 0.2"/>
    <path d="M 148.232652 12.267605 
L 230.33251 12.31126 
L 230.33251 12.31126 
" clip-path="url(#p9203835bfb)" style="fill: none; stroke: #000000; stroke-width: 0.2"/>
    <path d="M 209.800733 7.2 
L 209.800789 7.44619 
L 209.800998 7.900385 
L 209.801102 8.354807 
L 209.801207 8.809513 
L 209.801311 9.264389 
L 209.801415 9.719551 
L 209.80152 10.174884 
L 209.801728 10.630448 
L 209.801833 11.086241 
L 209.801937 11.542266 
L 209.802041 11.998581 
L 209.802146 12.285485 
" clip-path="url(#p9203835bfb)" style="fill: none; stroke: #000000; stroke-width: 0.2"/>
    <path d="M 230.33251 12.31126 
L 230.114312 109.876004 
L 230.114312 109.876004 
" clip-path="url(#p9203835bfb)" style="fill: none; stroke: #000000; stroke-width: 0.2"/>
    <path d="M 316.173671 28.931723 
L 313.708896 29.582548 
L 313.127765 30.395258 
L 311.40597 30.066143 
L 310.662677 30.432909 
L 309.761813 29.762041 
L 309.510118 30.243489 
L 308.759207 29.667965 
L 308.175466 30.51539 
L 305.269495 31.612265 
L 306.048163 33.159818 
L 305.582757 34.738029 
L 304.508044 34.74101 
L 304.358091 35.198261 
L 303.668017 34.42611 
L 302.783223 34.860053 
L 301.406518 36.817983 
L 300.628998 36.241385 
L 300.580787 34.955383 
L 299.043694 34.247141 
L 298.757459 33.396685 
L 297.109023 32.597824 
L 294.870899 32.791237 
L 293.84471 31.813998 
L 289.795675 32.593247 
L 288.367734 32.156707 
L 284.81061 35.422599 
L 230.323954 35.454158 
L 230.323954 35.454158 
" clip-path="url(#p9203835bfb)" style="fill: none; stroke: #000000; stroke-width: 0.2"/>
    <path d="M 286.024215 88.807366 
L 285.600758 88.77753 
L 285.566322 89.280552 
L 285.531886 89.78395 
L 285.49745 90.287661 
L 285.46291 90.791751 
L 285.428474 91.29635 
L 285.412404 91.532364 
L 284.787131 91.38111 
L 284.534393 90.982202 
L 284.281654 90.583469 
L 284.028916 90.185037 
L 283.776282 89.786777 
L 283.523543 89.388753 
L 283.48389 89.326399 
L 283.49589 87.581147 
L 283.710853 86.515273 
L 284.060117 86.251287 
L 284.409276 85.987405 
L 284.758539 85.72356 
L 285.107698 85.459883 
L 285.456962 85.196307 
L 285.806121 84.932834 
L 285.87061 84.884157 
L 286.203907 85.176905 
L 286.537205 85.469715 
L 286.870503 85.762651 
L 287.2038 86.055778 
L 287.537098 86.348903 
L 287.778254 86.561188 
L 286.434106 86.762537 
L 286.024215 88.807366 
" clip-path="url(#p9203835bfb)" style="fill: none; stroke: #000000; stroke-width: 0.2"/>
    <path d="M 230.325936 75.527097 
L 233.910295 77.285952 
L 235.106368 76.372323 
L 237.447383 76.383224 
L 238.666622 77.066547 
L 239.141002 78.246144 
L 239.878243 78.345471 
L 239.651697 79.702727 
L 240.705227 81.831195 
L 241.52814 82.070668 
L 242.613184 80.125412 
L 243.19108 81.192332 
L 244.814472 81.209845 
L 246.383287 82.176774 
L 246.71022 85.467608 
L 247.847335 85.824231 
L 248.394343 87.19345 
L 249.149533 87.115105 
L 251.480738 88.823985 
L 255.804738 93.239635 
L 257.548655 92.852202 
L 257.465174 91.130855 
L 258.410909 90.792652 
L 261.379805 90.815691 
L 263.270648 92.191634 
L 263.903121 91.888603 
L 265.774033 92.614043 
L 268.680735 92.079561 
L 270.99754 93.204756 
L 272.062444 92.408031 
L 273.635329 92.711943 
L 274.136006 91.818603 
L 275.125047 92.253869 
L 276.205603 91.697378 
L 277.571143 92.253353 
L 278.437988 93.486353 
L 278.468563 95.500028 
L 279.693124 97.341041 
L 278.914456 98.98267 
L 291.724085 105.075231 
L 291.724085 105.075231 
" clip-path="url(#p9203835bfb)" style="fill: none; stroke: #000000; stroke-width: 0.2"/>
   </g>
   <g id="line2d_1">
    <path d="M 282.414507 61.235789 
L 282.414507 61.235789 
L 282.500471 61.013511 
L 282.586382 60.791288 
L 282.672242 60.569122 
L 282.75805 60.347012 
L 282.843807 60.124958 
L 282.929512 59.902959 
L 283.015166 59.681017 
L 283.100769 59.45913 
L 283.18632 59.237299 
L 283.271821 59.015524 
L 283.357271 58.793804 
L 283.442669 58.572139 
L 283.528017 58.350531 
L 283.613314 58.128977 
L 283.698561 57.907479 
L 283.783757 57.686036 
L 283.868902 57.464648 
L 283.953997 57.243316 
L 284.039042 57.022038 
L 284.124036 56.800815 
L 284.20898 56.579648 
L 284.293874 56.358535 
L 284.378719 56.137477 
L 284.463513 55.916474 
L 284.548257 55.695525 
L 284.632952 55.474631 
L 284.717597 55.253792 
L 284.802192 55.033007 
L 284.886738 54.812276 
L 284.971234 54.5916 
L 285.055681 54.370978 
L 285.140079 54.150411 
L 285.224428 53.929897 
L 285.308727 53.709438 
L 285.392978 53.489032 
L 285.477179 53.268681 
L 285.561332 53.048384 
L 285.645435 52.82814 
L 285.72949 52.60795 
L 285.813497 52.387814 
L 285.897455 52.167732 
L 285.981364 51.947703 
L 286.065225 51.727728 
L 286.149037 51.507806 
L 286.232802 51.287937 
L 286.316518 51.068122 
L 286.400186 50.84836 
L 286.483806 50.628652 
L 286.567378 50.408996 
L 286.650902 50.189394 
L 286.734379 49.969845 
L 286.817808 49.750348 
L 286.901189 49.530905 
L 286.984522 49.311514 
L 287.067808 49.092176 
L 287.151047 48.872891 
L 287.234239 48.653659 
L 287.317383 48.434479 
L 287.40048 48.215352 
L 287.483529 47.996277 
L 287.566532 47.777254 
L 287.649488 47.558284 
L 287.732397 47.339366 
L 287.815259 47.120501 
L 287.898075 46.901687 
L 287.980844 46.682926 
L 288.063566 46.464216 
L 288.146242 46.245559 
L 288.228872 46.026953 
L 288.311455 45.8084 
L 288.393992 45.589898 
L 288.476482 45.371448 
L 288.558927 45.153049 
L 288.641325 44.934702 
L 288.723678 44.716407 
L 288.805985 44.498163 
L 288.888245 44.279971 
L 288.970461 44.06183 
L 289.05263 43.84374 
L 289.134754 43.625701 
L 289.216832 43.407714 
L 289.298865 43.189777 
L 289.380853 42.971892 
L 289.462795 42.754058 
L 289.544692 42.536274 
L 289.626544 42.318542 
L 289.708351 42.10086 
L 289.790113 41.883229 
L 289.871829 41.665648 
L 289.953501 41.448119 
L 290.035129 41.230639 
L 290.116711 41.013211 
L 290.198249 40.795832 
L 290.279742 40.578505 
L 290.361191 40.361227 
L 290.442596 40.144 
L 290.523956 39.926822 
L 290.605272 39.709695 
L 290.686543 39.492618 
L 290.767771 39.275591 
L 290.848954 39.058614 
L 290.848954 39.058614 
" clip-path="url(#p9203835bfb)" style="fill: none; stroke: #0000ff; stroke-width: 0.5; stroke-linecap: square"/>
   </g>
   <g id="line2d_2">
    <path d="M 282.414507 61.235789 
L 282.414507 61.235789 
L 282.385449 61.306577 
L 282.356386 61.377371 
L 282.327317 61.44817 
L 282.298242 61.518975 
L 282.269162 61.589785 
L 282.240076 61.660601 
L 282.210984 61.731423 
L 282.181887 61.80225 
L 282.152785 61.873083 
L 282.123676 61.943921 
L 282.094562 62.014765 
L 282.065443 62.085615 
L 282.036318 62.15647 
L 282.007187 62.227331 
L 281.978051 62.298197 
L 281.948909 62.369069 
L 281.919761 62.439946 
L 281.890608 62.51083 
L 281.861449 62.581718 
L 281.832285 62.652613 
L 281.803115 62.723513 
L 281.773939 62.794418 
L 281.744758 62.865329 
L 281.715571 62.936246 
L 281.686378 63.007169 
L 281.65718 63.078097 
L 281.627976 63.14903 
L 281.598766 63.21997 
L 281.569551 63.290915 
L 281.54033 63.361865 
L 281.511103 63.432821 
L 281.481871 63.503783 
L 281.452633 63.57475 
L 281.42339 63.645724 
L 281.39414 63.716702 
L 281.364885 63.787687 
L 281.335625 63.858677 
L 281.306359 63.929672 
L 281.277087 64.000673 
L 281.247809 64.07168 
L 281.218526 64.142693 
L 281.189237 64.213711 
L 281.159942 64.284735 
L 281.130641 64.355765 
L 281.101335 64.4268 
L 281.072023 64.497841 
L 281.042706 64.568887 
L 281.013383 64.639939 
L 280.984054 64.710997 
L 280.954719 64.782061 
L 280.925379 64.85313 
L 280.896032 64.924205 
L 280.866681 64.995285 
L 280.837323 65.066372 
L 280.80796 65.137463 
L 280.778591 65.208561 
L 280.749216 65.279664 
L 280.719835 65.350773 
L 280.690449 65.421888 
L 280.661057 65.493008 
L 280.631659 65.564134 
L 280.602256 65.635266 
L 280.572846 65.706403 
L 280.543431 65.777546 
L 280.51401 65.848695 
L 280.484584 65.919849 
L 280.455152 65.99101 
L 280.425713 66.062175 
L 280.39627 66.133347 
L 280.36682 66.204524 
L 280.337365 66.275707 
L 280.307903 66.346896 
L 280.278436 66.41809 
L 280.248964 66.489291 
L 280.219485 66.560496 
L 280.190001 66.631708 
L 280.16051 66.702925 
L 280.131014 66.774148 
L 280.101513 66.845377 
L 280.072005 66.916612 
L 280.042492 66.987852 
L 280.012973 67.059098 
L 279.983448 67.130349 
L 279.953917 67.201607 
L 279.92438 67.27287 
L 279.894838 67.344139 
L 279.865289 67.415413 
L 279.835735 67.486694 
L 279.806175 67.55798 
L 279.776609 67.629272 
L 279.747038 67.700569 
L 279.71746 67.771873 
L 279.687877 67.843182 
L 279.658288 67.914497 
L 279.628693 67.985817 
L 279.599092 68.057144 
L 279.569485 68.128476 
L 279.539873 68.199814 
L 279.510254 68.271158 
L 279.48063 68.342507 
L 279.451 68.413862 
L 279.451 68.413862 
" clip-path="url(#p9203835bfb)" style="fill: none; stroke: #0000ff; stroke-width: 0.5; stroke-linecap: square"/>
   </g>
   <g id="line2d_3">
    <path d="M 290.848954 39.058614 
L 290.848954 39.058614 
L 291.068209 38.906124 
L 291.287381 38.753603 
L 291.506469 38.60105 
L 291.725474 38.448464 
L 291.944395 38.295848 
L 292.163234 38.1432 
L 292.381989 37.99052 
L 292.600661 37.837809 
L 292.81925 37.685066 
L 293.037757 37.532292 
L 293.25618 37.379488 
L 293.47452 37.226652 
L 293.692778 37.073785 
L 293.910953 36.920887 
L 294.129046 36.767958 
L 294.347056 36.614998 
L 294.564983 36.462008 
L 294.782828 36.308987 
L 295.00059 36.155935 
L 295.218271 36.002853 
L 295.435869 35.84974 
L 295.653385 35.696597 
L 295.870819 35.543424 
L 296.08817 35.390221 
L 296.30544 35.236987 
L 296.522628 35.083724 
L 296.739734 34.93043 
L 296.956759 34.777107 
L 297.173701 34.623754 
L 297.390562 34.470371 
L 297.607342 34.316958 
L 297.824039 34.163515 
L 298.040656 34.010044 
L 298.257191 33.856542 
L 298.473645 33.703011 
L 298.690017 33.549451 
L 298.906309 33.395862 
L 299.122519 33.242243 
L 299.338648 33.088596 
L 299.554696 32.934919 
L 299.770664 32.781214 
L 299.98655 32.627479 
L 300.202356 32.473716 
L 300.418081 32.319924 
L 300.633725 32.166103 
L 300.849289 32.012253 
L 301.064772 31.858375 
L 301.280174 31.704469 
L 301.495497 31.550534 
L 301.710739 31.396571 
L 301.925901 31.24258 
L 302.140982 31.08856 
L 302.355984 30.934513 
L 302.570905 30.780437 
L 302.785747 30.626333 
L 303.000508 30.472202 
L 303.21519 30.318042 
L 303.429792 30.163855 
L 303.644314 30.00964 
L 303.858756 29.855397 
L 304.073119 29.701127 
L 304.287403 29.54683 
L 304.501607 29.392505 
L 304.715731 29.238153 
L 304.929777 29.083773 
L 305.143743 28.929366 
L 305.357629 28.774932 
L 305.571437 28.620471 
L 305.785166 28.465983 
L 305.998815 28.311468 
L 306.212386 28.156926 
L 306.425878 28.002357 
L 306.639291 27.847762 
L 306.852626 27.69314 
L 307.065881 27.538491 
L 307.279059 27.383816 
L 307.492157 27.229114 
L 307.705177 27.074386 
L 307.918119 26.919632 
L 308.130983 26.764851 
L 308.343768 26.610044 
L 308.556475 26.455211 
L 308.769104 26.300352 
L 308.981655 26.145467 
L 309.194128 25.990556 
L 309.406523 25.835619 
L 309.61884 25.680656 
L 309.83108 25.525668 
L 310.043242 25.370654 
L 310.255326 25.215614 
L 310.467332 25.060549 
L 310.679261 24.905458 
L 310.891113 24.750342 
L 311.102887 24.5952 
L 311.314584 24.440033 
L 311.526204 24.284841 
L 311.737746 24.129624 
L 311.949212 23.974382 
L 312.1606 23.819115 
L 312.371912 23.663822 
L 312.583146 23.508505 
L 312.583146 23.508505 
" clip-path="url(#p9203835bfb)" style="fill: none; stroke: #0000ff; stroke-width: 0.5; stroke-linecap: square"/>
   </g>
   <g id="line2d_4">
    <path d="M 275.259775 83.269484 
L 275.259775 83.269484 
L 275.115415 83.39084 
L 274.971005 83.512187 
L 274.826543 83.633525 
L 274.682031 83.754853 
L 274.537467 83.876172 
L 274.392852 83.997481 
L 274.248186 84.118781 
L 274.103469 84.240071 
L 273.9587 84.361351 
L 273.813881 84.482622 
L 273.66901 84.603883 
L 273.524087 84.725135 
L 273.379114 84.846377 
L 273.234088 84.967609 
L 273.089012 85.088832 
L 272.943884 85.210044 
L 272.798705 85.331247 
L 272.653474 85.45244 
L 272.508191 85.573623 
L 272.362857 85.694797 
L 272.217471 85.81596 
L 272.072034 85.937114 
L 271.926545 86.058257 
L 271.781004 86.17939 
L 271.635411 86.300514 
L 271.489767 86.421627 
L 271.344071 86.54273 
L 271.198323 86.663824 
L 271.052523 86.784907 
L 270.906671 86.905979 
L 270.760767 87.027042 
L 270.614812 87.148094 
L 270.468804 87.269136 
L 270.322744 87.390168 
L 270.176632 87.511189 
L 270.030468 87.6322 
L 269.884252 87.753201 
L 269.737984 87.874191 
L 269.591664 87.995171 
L 269.445291 88.11614 
L 269.298866 88.237099 
L 269.152389 88.358047 
L 269.005859 88.478985 
L 268.859277 88.599912 
L 268.712643 88.720829 
L 268.565956 88.841734 
L 268.419216 88.962629 
L 268.272425 89.083514 
L 268.12558 89.204387 
L 267.978683 89.32525 
L 267.831734 89.446102 
L 267.684732 89.566943 
L 267.537677 89.687774 
L 267.390569 89.808593 
L 267.243409 89.929401 
L 267.096196 90.050199 
L 266.94893 90.170985 
L 266.801612 90.291761 
L 266.65424 90.412525 
L 266.506816 90.533278 
L 266.359339 90.65402 
L 266.211808 90.774751 
L 266.064225 90.895471 
L 265.916589 91.01618 
L 265.7689 91.136877 
L 265.621157 91.257563 
L 265.473362 91.378238 
L 265.325513 91.498901 
L 265.177611 91.619553 
L 265.029656 91.740194 
L 264.881648 91.860823 
L 264.733586 91.981441 
L 264.585471 92.102047 
L 264.437303 92.222642 
L 264.289081 92.343225 
L 264.140806 92.463797 
L 263.992478 92.584357 
L 263.844096 92.704905 
L 263.69566 92.825441 
L 263.547171 92.945966 
L 263.398629 93.066479 
L 263.250033 93.186981 
L 263.101383 93.30747 
L 262.952679 93.427948 
L 262.803922 93.548413 
L 262.655111 93.668867 
L 262.506246 93.789309 
L 262.357328 93.909739 
L 262.208355 94.030157 
L 262.059329 94.150563 
L 261.910249 94.270956 
L 261.761115 94.391338 
L 261.611927 94.511708 
L 261.462685 94.632065 
L 261.313389 94.75241 
L 261.164039 94.872743 
L 261.014635 94.993064 
L 260.865176 95.113372 
L 260.715664 95.233668 
L 260.566097 95.353951 
L 260.416476 95.474223 
L 260.416476 95.474223 
" clip-path="url(#p9203835bfb)" style="fill: none; stroke: #0000ff; stroke-width: 0.5; stroke-linecap: square"/>
   </g>
   <g id="line2d_5">
    <path d="M 275.259775 83.269484 
L 275.259775 83.269484 
L 275.302156 83.12098 
L 275.344518 82.972505 
L 275.386862 82.824058 
L 275.429188 82.675641 
L 275.471495 82.527253 
L 275.513785 82.378895 
L 275.556056 82.230565 
L 275.598309 82.082264 
L 275.640544 81.933992 
L 275.68276 81.785749 
L 275.724959 81.637535 
L 275.767139 81.48935 
L 275.809302 81.341194 
L 275.851446 81.193066 
L 275.893572 81.044968 
L 275.93568 80.896898 
L 275.977771 80.748857 
L 276.019843 80.600845 
L 276.061897 80.452862 
L 276.103933 80.304907 
L 276.145952 80.156981 
L 276.187952 80.009083 
L 276.229935 79.861215 
L 276.2719 79.713375 
L 276.313846 79.565563 
L 276.355775 79.41778 
L 276.397687 79.270026 
L 276.43958 79.1223 
L 276.481456 78.974603 
L 276.523314 78.826934 
L 276.565154 78.679294 
L 276.606976 78.531682 
L 276.648781 78.384099 
L 276.690568 78.236544 
L 276.732337 78.089017 
L 276.774089 77.941519 
L 276.815823 77.794049 
L 276.85754 77.646607 
L 276.899239 77.499194 
L 276.94092 77.351809 
L 276.982584 77.204452 
L 277.02423 77.057123 
L 277.065859 76.909823 
L 277.10747 76.76255 
L 277.149064 76.615306 
L 277.190641 76.46809 
L 277.232199 76.320902 
L 277.273741 76.173742 
L 277.315265 76.02661 
L 277.356772 75.879507 
L 277.398261 75.732431 
L 277.439733 75.585383 
L 277.481188 75.438363 
L 277.522625 75.291372 
L 277.564045 75.144408 
L 277.605448 74.997472 
L 277.646834 74.850563 
L 277.688202 74.703683 
L 277.729553 74.556831 
L 277.770887 74.410006 
L 277.812204 74.263209 
L 277.853504 74.11644 
L 277.894786 73.969699 
L 277.936052 73.822985 
L 277.9773 73.676299 
L 278.018531 73.529641 
L 278.059745 73.38301 
L 278.100942 73.236407 
L 278.142122 73.089832 
L 278.183285 72.943284 
L 278.224431 72.796764 
L 278.26556 72.650271 
L 278.306672 72.503806 
L 278.347768 72.357368 
L 278.388846 72.210958 
L 278.429907 72.064575 
L 278.470952 71.91822 
L 278.511979 71.771892 
L 278.55299 71.625591 
L 278.593984 71.479318 
L 278.634961 71.333072 
L 278.675921 71.186854 
L 278.716865 71.040662 
L 278.757792 70.894498 
L 278.798702 70.748362 
L 278.839595 70.602252 
L 278.880471 70.45617 
L 278.921331 70.310115 
L 278.962175 70.164087 
L 279.003001 70.018086 
L 279.043811 69.872112 
L 279.084604 69.726166 
L 279.125381 69.580246 
L 279.166141 69.434354 
L 279.206885 69.288488 
L 279.247612 69.14265 
L 279.288322 68.996839 
L 279.329016 68.851054 
L 279.369694 68.705297 
L 279.410355 68.559566 
L 279.451 68.413862 
L 279.451 68.413862 
" clip-path="url(#p9203835bfb)" style="fill: none; stroke: #0000ff; stroke-width: 0.5; stroke-linecap: square"/>
   </g>
   <g id="line2d_6">
    <path d="M 275.259775 83.269484 
L 275.259775 83.269484 
L 275.364792 83.299215 
L 275.469818 83.328932 
L 275.574853 83.358633 
L 275.679897 83.38832 
L 275.78495 83.417991 
L 275.890013 83.447648 
L 275.995084 83.477289 
L 276.100165 83.506916 
L 276.205254 83.536528 
L 276.310353 83.566125 
L 276.41546 83.595706 
L 276.520577 83.625273 
L 276.625703 83.654825 
L 276.730838 83.684362 
L 276.835982 83.713884 
L 276.941134 83.743391 
L 277.046296 83.772883 
L 277.151467 83.80236 
L 277.256647 83.831822 
L 277.361836 83.861268 
L 277.467034 83.8907 
L 277.572241 83.920117 
L 277.677458 83.949519 
L 277.782683 83.978906 
L 277.887917 84.008277 
L 277.99316 84.037634 
L 278.098412 84.066976 
L 278.203673 84.096302 
L 278.308943 84.125614 
L 278.414222 84.15491 
L 278.519511 84.184192 
L 278.624808 84.213458 
L 278.730114 84.242709 
L 278.835429 84.271945 
L 278.940753 84.301166 
L 279.046086 84.330372 
L 279.151428 84.359563 
L 279.256779 84.388738 
L 279.362139 84.417899 
L 279.467508 84.447044 
L 279.572886 84.476175 
L 279.678273 84.50529 
L 279.783669 84.53439 
L 279.889074 84.563475 
L 279.994488 84.592544 
L 280.09991 84.621599 
L 280.205342 84.650638 
L 280.310783 84.679663 
L 280.416232 84.708672 
L 280.521691 84.737666 
L 280.627158 84.766644 
L 280.732634 84.795608 
L 280.83812 84.824556 
L 280.943614 84.853489 
L 281.049117 84.882407 
L 281.154629 84.91131 
L 281.26015 84.940197 
L 281.36568 84.96907 
L 281.471219 84.997927 
L 281.576766 85.026768 
L 281.682323 85.055595 
L 281.787888 85.084406 
L 281.893463 85.113203 
L 281.999046 85.141983 
L 282.104638 85.170749 
L 282.210239 85.199499 
L 282.315849 85.228234 
L 282.421468 85.256954 
L 282.527096 85.285659 
L 282.632732 85.314348 
L 282.738378 85.343022 
L 282.844032 85.37168 
L 282.949695 85.400324 
L 283.055367 85.428952 
L 283.161048 85.457564 
L 283.266738 85.486162 
L 283.372436 85.514744 
L 283.478144 85.543311 
L 283.58386 85.571862 
L 283.689585 85.600398 
L 283.795319 85.628919 
L 283.901062 85.657424 
L 284.006813 85.685914 
L 284.112574 85.714389 
L 284.218343 85.742848 
L 284.324121 85.771292 
L 284.429908 85.799721 
L 284.535704 85.828134 
L 284.641508 85.856532 
L 284.747322 85.884914 
L 284.853144 85.913281 
L 284.958975 85.941633 
L 285.064815 85.969969 
L 285.170663 85.99829 
L 285.27652 86.026595 
L 285.382387 86.054885 
L 285.488261 86.08316 
L 285.594145 86.111419 
L 285.700038 86.139663 
L 285.805939 86.167891 
L 285.911849 86.196104 
L 285.911849 86.196104 
" clip-path="url(#p9203835bfb)" style="fill: none; stroke: #0000ff; stroke-width: 0.5; stroke-linecap: square"/>
   </g>
   <g id="line2d_7">
    <path d="M 270.788617 92.930719 
L 270.788617 92.930719 
L 270.659275 93.077066 
L 270.529876 93.223421 
L 270.40042 93.369782 
L 270.270907 93.516149 
L 270.141338 93.662523 
L 270.011712 93.808903 
L 269.882028 93.95529 
L 269.752288 94.101683 
L 269.622491 94.248082 
L 269.492636 94.394488 
L 269.362725 94.5409 
L 269.232756 94.687319 
L 269.10273 94.833744 
L 268.972647 94.980175 
L 268.842506 95.126612 
L 268.712308 95.273056 
L 268.582053 95.419506 
L 268.451739 95.565962 
L 268.321369 95.712425 
L 268.190941 95.858893 
L 268.060455 96.005368 
L 267.929911 96.151849 
L 267.79931 96.298336 
L 267.668651 96.444829 
L 267.537933 96.591329 
L 267.407158 96.737834 
L 267.276326 96.884346 
L 267.145435 97.030864 
L 267.014485 97.177387 
L 266.883478 97.323917 
L 266.752413 97.470453 
L 266.621289 97.616994 
L 266.490107 97.763542 
L 266.358867 97.910096 
L 266.227568 98.056655 
L 266.096211 98.203221 
L 265.964796 98.349792 
L 265.833322 98.496369 
L 265.701789 98.642952 
L 265.570198 98.789541 
L 265.438548 98.936136 
L 265.306839 99.082737 
L 265.175071 99.229343 
L 265.043245 99.375955 
L 264.911359 99.522573 
L 264.779415 99.669197 
L 264.647411 99.815826 
L 264.515349 99.962461 
L 264.383227 100.109102 
L 264.251047 100.255748 
L 264.118807 100.4024 
L 263.986507 100.549058 
L 263.854149 100.695721 
L 263.721731 100.84239 
L 263.589254 100.989064 
L 263.456717 101.135744 
L 263.32412 101.282429 
L 263.191464 101.42912 
L 263.058749 101.575817 
L 262.925973 101.722518 
L 262.793138 101.869226 
L 262.660243 102.015938 
L 262.527288 102.162657 
L 262.394274 102.30938 
L 262.261199 102.456109 
L 262.128064 102.602843 
L 261.99487 102.749583 
L 261.861615 102.896328 
L 261.7283 103.043078 
L 261.594924 103.189833 
L 261.461489 103.336594 
L 261.327993 103.483359 
L 261.194437 103.630131 
L 261.06082 103.776907 
L 260.927143 103.923688 
L 260.793405 104.070475 
L 260.659607 104.217266 
L 260.525748 104.364063 
L 260.391828 104.510865 
L 260.257848 104.657672 
L 260.123806 104.804484 
L 259.989704 104.951301 
L 259.855541 105.098122 
L 259.721317 105.244949 
L 259.587032 105.391781 
L 259.452686 105.538618 
L 259.318278 105.68546 
L 259.18381 105.832306 
L 259.04928 105.979158 
L 258.914689 106.126014 
L 258.780037 106.272875 
L 258.645323 106.419741 
L 258.510548 106.566612 
L 258.375711 106.713487 
L 258.240813 106.860367 
L 258.105853 107.007252 
L 257.970831 107.154142 
L 257.835748 107.301036 
L 257.700603 107.447935 
L 257.565396 107.594838 
L 257.430127 107.741747 
L 257.430127 107.741747 
" clip-path="url(#p9203835bfb)" style="fill: none; stroke: #0000ff; stroke-width: 0.5; stroke-linecap: square"/>
   </g>
   <g id="line2d_8">
    <path d="M 270.788617 92.930719 
L 270.788617 92.930719 
L 270.939831 92.865409 
L 271.091016 92.800071 
L 271.242171 92.734704 
L 271.393297 92.66931 
L 271.544393 92.603888 
L 271.69546 92.538437 
L 271.846497 92.472959 
L 271.997504 92.407452 
L 272.148482 92.341918 
L 272.29943 92.276355 
L 272.450349 92.210764 
L 272.601238 92.145146 
L 272.752098 92.079499 
L 272.902928 92.013825 
L 273.053728 91.948123 
L 273.204499 91.882393 
L 273.35524 91.816635 
L 273.505952 91.75085 
L 273.656634 91.685036 
L 273.807286 91.619195 
L 273.957909 91.553326 
L 274.108503 91.48743 
L 274.259067 91.421505 
L 274.409601 91.355554 
L 274.560105 91.289574 
L 274.71058 91.223567 
L 274.861026 91.157532 
L 275.011442 91.09147 
L 275.161828 91.02538 
L 275.312185 90.959263 
L 275.462512 90.893118 
L 275.612809 90.826946 
L 275.763077 90.760746 
L 275.913315 90.694519 
L 276.063524 90.628265 
L 276.213703 90.561983 
L 276.363853 90.495674 
L 276.513973 90.429337 
L 276.664063 90.362974 
L 276.814124 90.296583 
L 276.964155 90.230164 
L 277.114157 90.163719 
L 277.264128 90.097246 
L 277.414071 90.030746 
L 277.563984 89.964219 
L 277.713867 89.897665 
L 277.86372 89.831084 
L 278.013544 89.764475 
L 278.163339 89.69784 
L 278.313103 89.631178 
L 278.462838 89.564488 
L 278.612544 89.497772 
L 278.76222 89.431028 
L 278.911866 89.364258 
L 279.061483 89.297461 
L 279.21107 89.230637 
L 279.360628 89.163786 
L 279.510156 89.096908 
L 279.659654 89.030003 
L 279.809123 88.963072 
L 279.958562 88.896114 
L 280.107971 88.829129 
L 280.257351 88.762117 
L 280.406701 88.695079 
L 280.556022 88.628014 
L 280.705313 88.560922 
L 280.854575 88.493804 
L 281.003806 88.426659 
L 281.153009 88.359487 
L 281.302181 88.292289 
L 281.451324 88.225065 
L 281.600438 88.157813 
L 281.749522 88.090536 
L 281.898576 88.023232 
L 282.0476 87.955901 
L 282.196595 87.888544 
L 282.345561 87.821161 
L 282.494497 87.753751 
L 282.643403 87.686315 
L 282.792279 87.618853 
L 282.941126 87.551364 
L 283.089944 87.483849 
L 283.238731 87.416308 
L 283.38749 87.348741 
L 283.536218 87.281147 
L 283.684917 87.213527 
L 283.833586 87.145881 
L 283.982226 87.078209 
L 284.130836 87.010511 
L 284.279417 86.942787 
L 284.427968 86.875036 
L 284.576489 86.80726 
L 284.724981 86.739457 
L 284.873443 86.671629 
L 285.021875 86.603774 
L 285.170278 86.535894 
L 285.318652 86.467988 
L 285.466995 86.400055 
L 285.615309 86.332097 
L 285.763594 86.264113 
L 285.911849 86.196104 
L 285.911849 86.196104 
" clip-path="url(#p9203835bfb)" style="fill: none; stroke: #0000ff; stroke-width: 0.5; stroke-linecap: square"/>
   </g>
   <g id="line2d_9">
    <path d="M 304.023618 66.732033 
L 304.023618 66.732033 
L 303.985489 66.808032 
L 303.947351 66.884036 
L 303.909205 66.960046 
L 303.871051 67.036062 
L 303.832889 67.112084 
L 303.794719 67.188111 
L 303.756541 67.264145 
L 303.718355 67.340184 
L 303.68016 67.416229 
L 303.641958 67.492281 
L 303.603748 67.568338 
L 303.56553 67.644401 
L 303.527304 67.72047 
L 303.489069 67.796544 
L 303.450827 67.872625 
L 303.412576 67.948712 
L 303.374318 68.024804 
L 303.336051 68.100902 
L 303.297776 68.177007 
L 303.259494 68.253117 
L 303.221203 68.329233 
L 303.182904 68.405355 
L 303.144597 68.481483 
L 303.106282 68.557617 
L 303.067958 68.633757 
L 303.029627 68.709902 
L 302.991288 68.786054 
L 302.95294 68.862211 
L 302.914584 68.938375 
L 302.87622 69.014544 
L 302.837848 69.09072 
L 302.799468 69.166901 
L 302.76108 69.243088 
L 302.722684 69.319281 
L 302.684279 69.39548 
L 302.645866 69.471685 
L 302.607445 69.547896 
L 302.569016 69.624113 
L 302.530579 69.700336 
L 302.492134 69.776564 
L 302.45368 69.852799 
L 302.415219 69.92904 
L 302.376749 70.005286 
L 302.338271 70.081539 
L 302.299784 70.157797 
L 302.26129 70.234062 
L 302.222787 70.310332 
L 302.184276 70.386608 
L 302.145757 70.462891 
L 302.10723 70.539179 
L 302.068694 70.615473 
L 302.03015 70.691774 
L 301.991598 70.76808 
L 301.953038 70.844392 
L 301.91447 70.92071 
L 301.875893 70.997034 
L 301.837308 71.073364 
L 301.798715 71.1497 
L 301.760113 71.226042 
L 301.721504 71.30239 
L 301.682886 71.378744 
L 301.64426 71.455104 
L 301.605625 71.53147 
L 301.566982 71.607842 
L 301.528331 71.68422 
L 301.489672 71.760604 
L 301.451004 71.836994 
L 301.412328 71.91339 
L 301.373644 71.989792 
L 301.334951 72.0662 
L 301.29625 72.142614 
L 301.257541 72.219034 
L 301.218824 72.29546 
L 301.180098 72.371892 
L 301.141364 72.44833 
L 301.102621 72.524774 
L 301.063871 72.601224 
L 301.025111 72.67768 
L 300.986344 72.754142 
L 300.947568 72.83061 
L 300.908784 72.907084 
L 300.869991 72.983564 
L 300.83119 73.060051 
L 300.792381 73.136543 
L 300.753563 73.213041 
L 300.714737 73.289545 
L 300.675903 73.366055 
L 300.63706 73.442572 
L 300.598209 73.519094 
L 300.559349 73.595622 
L 300.520481 73.672157 
L 300.481605 73.748697 
L 300.44272 73.825244 
L 300.403827 73.901796 
L 300.364925 73.978355 
L 300.326015 74.054919 
L 300.287097 74.13149 
L 300.24817 74.208067 
L 300.209235 74.28465 
L 300.170291 74.361239 
L 300.131339 74.437833 
L 300.131339 74.437833 
" clip-path="url(#p9203835bfb)" style="fill: none; stroke: #0000ff; stroke-width: 0.5; stroke-linecap: square"/>
   </g>
   <g id="line2d_10">
    <path d="M 304.023618 66.732033 
L 304.023618 66.732033 
L 304.118113 66.520769 
L 304.212552 66.309553 
L 304.306936 66.098386 
L 304.401265 65.887267 
L 304.49554 65.676197 
L 304.58976 65.465175 
L 304.683925 65.254201 
L 304.778035 65.043276 
L 304.872091 64.832398 
L 304.966093 64.621569 
L 305.06004 64.410788 
L 305.153933 64.200055 
L 305.247772 63.98937 
L 305.341557 63.778734 
L 305.435288 63.568145 
L 305.528965 63.357603 
L 305.622588 63.14711 
L 305.716157 62.936665 
L 305.809673 62.726267 
L 305.903135 62.515917 
L 305.996544 62.305615 
L 306.089899 62.09536 
L 306.183201 61.885152 
L 306.276449 61.674993 
L 306.369645 61.46488 
L 306.462787 61.254815 
L 306.555877 61.044798 
L 306.648913 60.834828 
L 306.741896 60.624905 
L 306.834827 60.415029 
L 306.927705 60.2052 
L 307.020531 59.995419 
L 307.113303 59.785684 
L 307.206024 59.575997 
L 307.298692 59.366356 
L 307.391308 59.156763 
L 307.483871 58.947216 
L 307.576383 58.737716 
L 307.668842 58.528263 
L 307.761249 58.318857 
L 307.853605 58.109498 
L 307.945908 57.900185 
L 308.03816 57.690918 
L 308.13036 57.481698 
L 308.222509 57.272525 
L 308.314606 57.063398 
L 308.406652 56.854318 
L 308.498646 56.645284 
L 308.590589 56.436296 
L 308.682481 56.227354 
L 308.774321 56.018459 
L 308.866111 55.80961 
L 308.95785 55.600807 
L 309.049537 55.39205 
L 309.141174 55.183339 
L 309.232761 54.974674 
L 309.324296 54.766055 
L 309.415781 54.557481 
L 309.507216 54.348954 
L 309.5986 54.140473 
L 309.689934 53.932037 
L 309.781217 53.723647 
L 309.87245 53.515302 
L 309.963633 53.307003 
L 310.054766 53.09875 
L 310.145849 52.890542 
L 310.236883 52.68238 
L 310.327866 52.474263 
L 310.4188 52.266191 
L 310.509684 52.058165 
L 310.600518 51.850184 
L 310.691303 51.642248 
L 310.782038 51.434357 
L 310.872724 51.226512 
L 310.963361 51.018711 
L 311.053948 50.810956 
L 311.144487 50.603246 
L 311.234976 50.39558 
L 311.325416 50.18796 
L 311.415808 49.980384 
L 311.50615 49.772853 
L 311.596444 49.565367 
L 311.686689 49.357925 
L 311.776886 49.150529 
L 311.867034 48.943176 
L 311.957133 48.735869 
L 312.047184 48.528606 
L 312.137187 48.321387 
L 312.227141 48.114213 
L 312.317047 47.907083 
L 312.406906 47.699997 
L 312.496716 47.492956 
L 312.586478 47.285959 
L 312.676192 47.079006 
L 312.765859 46.872097 
L 312.855477 46.665233 
L 312.945048 46.458412 
L 313.034572 46.251636 
L 313.124048 46.044903 
L 313.213476 45.838214 
L 313.302857 45.63157 
L 313.302857 45.63157 
" clip-path="url(#p9203835bfb)" style="fill: none; stroke: #0000ff; stroke-width: 0.5; stroke-linecap: square"/>
   </g>
   <g id="line2d_11">
    <path d="M 313.302857 45.63157 
L 313.302857 45.63157 
L 313.295534 45.409551 
L 313.288216 45.187595 
L 313.280901 44.965702 
L 313.273591 44.74387 
L 313.266285 44.522101 
L 313.258983 44.300394 
L 313.251685 44.078748 
L 313.244391 43.857165 
L 313.237102 43.635643 
L 313.229816 43.414183 
L 313.222535 43.192784 
L 313.215257 42.971448 
L 313.207984 42.750172 
L 313.200715 42.528958 
L 313.19345 42.307805 
L 313.186189 42.086713 
L 313.178932 41.865682 
L 313.171679 41.644712 
L 313.16443 41.423804 
L 313.157185 41.202955 
L 313.149944 40.982168 
L 313.142707 40.761441 
L 313.135474 40.540775 
L 313.128246 40.32017 
L 313.121021 40.099624 
L 313.1138 39.879139 
L 313.106583 39.658715 
L 313.09937 39.43835 
L 313.092161 39.218045 
L 313.084956 38.997801 
L 313.077756 38.777616 
L 313.070559 38.557491 
L 313.063366 38.337426 
L 313.056176 38.11742 
L 313.048991 37.897474 
L 313.04181 37.677587 
L 313.034633 37.45776 
L 313.027459 37.237992 
L 313.02029 37.018283 
L 313.013124 36.798633 
L 313.005963 36.579043 
L 312.998805 36.359511 
L 312.991651 36.140038 
L 312.984501 35.920624 
L 312.977355 35.701269 
L 312.970212 35.481972 
L 312.963074 35.262734 
L 312.955939 35.043554 
L 312.948809 34.824432 
L 312.941682 34.605369 
L 312.934558 34.386364 
L 312.927439 34.167417 
L 312.920324 33.948528 
L 312.913212 33.729698 
L 312.906104 33.510925 
L 312.899 33.292209 
L 312.8919 33.073552 
L 312.884803 32.854952 
L 312.877711 32.636409 
L 312.870622 32.417924 
L 312.863537 32.199497 
L 312.856455 31.981127 
L 312.849378 31.762813 
L 312.842304 31.544557 
L 312.835234 31.326359 
L 312.828167 31.108217 
L 312.821105 30.890131 
L 312.814046 30.672103 
L 312.80699 30.454132 
L 312.799939 30.236217 
L 312.792891 30.018358 
L 312.785847 29.800556 
L 312.778806 29.582811 
L 312.771769 29.365122 
L 312.764736 29.147489 
L 312.757707 28.929912 
L 312.750681 28.712391 
L 312.743659 28.494926 
L 312.736641 28.277517 
L 312.729626 28.060164 
L 312.722615 27.842867 
L 312.715607 27.625625 
L 312.708603 27.408439 
L 312.701603 27.191309 
L 312.694606 26.974234 
L 312.687613 26.757214 
L 312.680624 26.540249 
L 312.673638 26.32334 
L 312.666656 26.106486 
L 312.659677 25.889687 
L 312.652702 25.672943 
L 312.64573 25.456253 
L 312.638762 25.239619 
L 312.631798 25.023039 
L 312.624837 24.806514 
L 312.61788 24.590043 
L 312.610926 24.373627 
L 312.603976 24.157265 
L 312.597029 23.940957 
L 312.590086 23.724704 
L 312.583146 23.508505 
L 312.583146 23.508505 
" clip-path="url(#p9203835bfb)" style="fill: none; stroke: #0000ff; stroke-width: 0.5; stroke-linecap: square"/>
   </g>
   <g id="line2d_12">
    <path d="M 253.308886 110.631888 
L 253.308886 110.631888 
L 252.902537 110.367568 
L 252.496526 110.103096 
L 252.090852 109.838473 
L 251.685513 109.573699 
L 251.280511 109.308774 
L 250.875844 109.0437 
L 250.471513 108.778477 
L 250.067517 108.513105 
L 249.663856 108.247586 
L 249.260529 107.98192 
L 248.857536 107.716107 
L 248.454876 107.450149 
L 248.052551 107.184045 
L 247.650558 106.917798 
L 247.248898 106.651406 
L 246.84757 106.384871 
L 246.446575 106.118194 
L 246.045912 105.851374 
L 245.645579 105.584414 
L 245.245578 105.317312 
L 244.845908 105.050071 
L 244.446568 104.78269 
L 244.047559 104.515171 
L 243.648879 104.247513 
L 243.250528 103.979718 
L 242.852507 103.711786 
L 242.454814 103.443717 
L 242.05745 103.175513 
L 241.660414 102.907173 
L 241.263705 102.6387 
L 240.867324 102.370092 
L 240.47127 102.101351 
L 240.075543 101.832477 
L 239.680142 101.563471 
L 239.285067 101.294334 
L 238.890318 101.025066 
L 238.495894 100.755668 
L 238.101795 100.486139 
L 237.708021 100.216482 
L 237.314571 99.946697 
L 236.921445 99.676783 
L 236.528642 99.406742 
L 236.136163 99.136574 
L 235.744007 98.86628 
L 235.352173 98.595861 
L 234.960661 98.325317 
L 234.569471 98.054648 
L 234.178602 97.783855 
L 233.788054 97.512939 
L 233.397828 97.241901 
L 233.007921 96.97074 
L 232.618335 96.699458 
L 232.229068 96.428054 
L 231.84012 96.156531 
L 231.451492 95.884887 
L 231.063182 95.613124 
L 230.67519 95.341243 
L 230.287515 95.069243 
L 229.900159 94.797126 
L 229.513119 94.524891 
L 229.126396 94.252541 
L 228.73999 93.980074 
L 228.3539 93.707491 
L 227.968125 93.434794 
L 227.582665 93.161983 
L 227.19752 92.889058 
L 226.81269 92.61602 
L 226.428174 92.342869 
L 226.043972 92.069605 
L 225.660083 91.796231 
L 225.276507 91.522745 
L 224.893244 91.249149 
L 224.510293 90.975442 
L 224.127654 90.701627 
L 223.745326 90.427702 
L 223.36331 90.153669 
L 222.981604 89.879528 
L 222.600209 89.60528 
L 222.219124 89.330924 
L 221.838349 89.056463 
L 221.457882 88.781896 
L 221.077725 88.507223 
L 220.697876 88.232446 
L 220.318335 87.957565 
L 219.939102 87.682579 
L 219.560177 87.407491 
L 219.181558 87.1323 
L 218.803246 86.857007 
L 218.42524 86.581612 
L 218.04754 86.306116 
L 217.670145 86.030519 
L 217.293056 85.754822 
L 216.916271 85.479025 
L 216.539791 85.203129 
L 216.163614 84.927135 
L 215.787741 84.651042 
L 215.412171 84.374852 
L 215.036904 84.098564 
L 214.661939 83.82218 
L 214.287276 83.545699 
L 213.912914 83.269123 
L 213.912914 83.269123 
" clip-path="url(#p9203835bfb)" style="fill: none; stroke: #0000ff; stroke-width: 0.5; stroke-linecap: square"/>
   </g>
   <g id="line2d_13">
    <path d="M 253.308886 110.631888 
L 253.308886 110.631888 
L 252.902537 110.367568 
L 252.496526 110.103096 
L 252.090852 109.838473 
L 251.685513 109.573699 
L 251.280511 109.308774 
L 250.875844 109.0437 
L 250.471513 108.778477 
L 250.067517 108.513105 
L 249.663856 108.247586 
L 249.260529 107.98192 
L 248.857536 107.716107 
L 248.454876 107.450149 
L 248.052551 107.184045 
L 247.650558 106.917798 
L 247.248898 106.651406 
L 246.84757 106.384871 
L 246.446575 106.118194 
L 246.045912 105.851374 
L 245.645579 105.584414 
L 245.245578 105.317312 
L 244.845908 105.050071 
L 244.446568 104.78269 
L 244.047559 104.515171 
L 243.648879 104.247513 
L 243.250528 103.979718 
L 242.852507 103.711786 
L 242.454814 103.443717 
L 242.05745 103.175513 
L 241.660414 102.907173 
L 241.263705 102.6387 
L 240.867324 102.370092 
L 240.47127 102.101351 
L 240.075543 101.832477 
L 239.680142 101.563471 
L 239.285067 101.294334 
L 238.890318 101.025066 
L 238.495894 100.755668 
L 238.101795 100.486139 
L 237.708021 100.216482 
L 237.314571 99.946697 
L 236.921445 99.676783 
L 236.528642 99.406742 
L 236.136163 99.136574 
L 235.744007 98.86628 
L 235.352173 98.595861 
L 234.960661 98.325317 
L 234.569471 98.054648 
L 234.178602 97.783855 
L 233.788054 97.512939 
L 233.397828 97.241901 
L 233.007921 96.97074 
L 232.618335 96.699458 
L 232.229068 96.428054 
L 231.84012 96.156531 
L 231.451492 95.884887 
L 231.063182 95.613124 
L 230.67519 95.341243 
L 230.287515 95.069243 
L 229.900159 94.797126 
L 229.513119 94.524891 
L 229.126396 94.252541 
L 228.73999 93.980074 
L 228.3539 93.707491 
L 227.968125 93.434794 
L 227.582665 93.161983 
L 227.19752 92.889058 
L 226.81269 92.61602 
L 226.428174 92.342869 
L 226.043972 92.069605 
L 225.660083 91.796231 
L 225.276507 91.522745 
L 224.893244 91.249149 
L 224.510293 90.975442 
L 224.127654 90.701627 
L 223.745326 90.427702 
L 223.36331 90.153669 
L 222.981604 89.879528 
L 222.600209 89.60528 
L 222.219124 89.330924 
L 221.838349 89.056463 
L 221.457882 88.781896 
L 221.077725 88.507223 
L 220.697876 88.232446 
L 220.318335 87.957565 
L 219.939102 87.682579 
L 219.560177 87.407491 
L 219.181558 87.1323 
L 218.803246 86.857007 
L 218.42524 86.581612 
L 218.04754 86.306116 
L 217.670145 86.030519 
L 217.293056 85.754822 
L 216.916271 85.479025 
L 216.539791 85.203129 
L 216.163614 84.927135 
L 215.787741 84.651042 
L 215.412171 84.374852 
L 215.036904 84.098564 
L 214.661939 83.82218 
L 214.287276 83.545699 
L 213.912914 83.269123 
L 213.912914 83.269123 
" clip-path="url(#p9203835bfb)" style="fill: none; stroke: #0000ff; stroke-width: 0.5; stroke-linecap: square"/>
   </g>
   <g id="line2d_14">
    <path d="M 253.308886 110.631888 
L 253.308886 110.631888 
L 253.349873 110.603341 
L 253.390857 110.574793 
L 253.431837 110.546243 
L 253.472813 110.517692 
L 253.513786 110.48914 
L 253.554754 110.460586 
L 253.59572 110.43203 
L 253.636681 110.403474 
L 253.677639 110.374916 
L 253.718594 110.346357 
L 253.759544 110.317796 
L 253.800491 110.289234 
L 253.841435 110.26067 
L 253.882374 110.232105 
L 253.92331 110.203539 
L 253.964242 110.174971 
L 254.005171 110.146402 
L 254.046096 110.117832 
L 254.087017 110.08926 
L 254.127935 110.060687 
L 254.168849 110.032112 
L 254.209759 110.003536 
L 254.250666 109.974959 
L 254.291569 109.94638 
L 254.332468 109.9178 
L 254.373364 109.889219 
L 254.414256 109.860636 
L 254.455144 109.832052 
L 254.496029 109.803466 
L 254.53691 109.774879 
L 254.577787 109.746291 
L 254.618661 109.717701 
L 254.659531 109.68911 
L 254.700397 109.660518 
L 254.74126 109.631924 
L 254.782119 109.603329 
L 254.822974 109.574732 
L 254.863826 109.546135 
L 254.904674 109.517535 
L 254.945518 109.488935 
L 254.986359 109.460333 
L 255.027196 109.431729 
L 255.068029 109.403125 
L 255.108859 109.374519 
L 255.149685 109.345911 
L 255.190508 109.317303 
L 255.231326 109.288692 
L 255.272142 109.260081 
L 255.312953 109.231468 
L 255.353761 109.202854 
L 255.394565 109.174238 
L 255.435366 109.145621 
L 255.476163 109.117003 
L 255.516956 109.088384 
L 255.557745 109.059763 
L 255.598531 109.03114 
L 255.639314 109.002517 
L 255.680092 108.973892 
L 255.720867 108.945265 
L 255.761639 108.916637 
L 255.802406 108.888008 
L 255.84317 108.859378 
L 255.883931 108.830746 
L 255.924687 108.802113 
L 255.965441 108.773479 
L 256.00619 108.744843 
L 256.046936 108.716206 
L 256.087678 108.687567 
L 256.128416 108.658927 
L 256.169151 108.630286 
L 256.209883 108.601644 
L 256.25061 108.573 
L 256.291334 108.544354 
L 256.332054 108.515708 
L 256.372771 108.48706 
L 256.413484 108.458411 
L 256.454193 108.42976 
L 256.494899 108.401108 
L 256.535601 108.372455 
L 256.5763 108.3438 
L 256.616994 108.315145 
L 256.657686 108.286487 
L 256.698373 108.257829 
L 256.739057 108.229169 
L 256.779737 108.200507 
L 256.820414 108.171845 
L 256.861087 108.143181 
L 256.901756 108.114516 
L 256.942422 108.085849 
L 256.983084 108.057181 
L 257.023742 108.028512 
L 257.064397 107.999841 
L 257.105048 107.97117 
L 257.145696 107.942496 
L 257.18634 107.913822 
L 257.22698 107.885146 
L 257.267617 107.856469 
L 257.30825 107.82779 
L 257.348879 107.79911 
L 257.389505 107.770429 
L 257.430127 107.741747 
L 257.430127 107.741747 
" clip-path="url(#p9203835bfb)" style="fill: none; stroke: #0000ff; stroke-width: 0.5; stroke-linecap: square"/>
   </g>
   <g id="line2d_15">
    <path d="M 260.416476 95.474223 
L 260.416476 95.474223 
L 260.387451 95.594641 
L 260.358415 95.71508 
L 260.329369 95.835539 
L 260.300312 95.956019 
L 260.271245 96.076519 
L 260.242167 96.19704 
L 260.213078 96.317581 
L 260.183979 96.438142 
L 260.154869 96.558724 
L 260.125749 96.679327 
L 260.096618 96.79995 
L 260.067476 96.920594 
L 260.038324 97.041258 
L 260.009161 97.161942 
L 259.979988 97.282648 
L 259.950803 97.403374 
L 259.921608 97.52412 
L 259.892403 97.644887 
L 259.863186 97.765675 
L 259.833959 97.886483 
L 259.804721 98.007312 
L 259.775473 98.128162 
L 259.746214 98.249032 
L 259.716944 98.369923 
L 259.687663 98.490834 
L 259.658371 98.611767 
L 259.629069 98.73272 
L 259.599756 98.853694 
L 259.570432 98.974689 
L 259.541098 99.095704 
L 259.511752 99.21674 
L 259.482396 99.337797 
L 259.453029 99.458875 
L 259.423651 99.579974 
L 259.394262 99.701093 
L 259.364862 99.822233 
L 259.335452 99.943395 
L 259.30603 100.064577 
L 259.276598 100.18578 
L 259.247155 100.307004 
L 259.217701 100.428248 
L 259.188236 100.549514 
L 259.15876 100.670801 
L 259.129273 100.792108 
L 259.099775 100.913437 
L 259.070266 101.034787 
L 259.040746 101.156157 
L 259.011215 101.277549 
L 258.981674 101.398962 
L 258.952121 101.520395 
L 258.922557 101.64185 
L 258.892983 101.763326 
L 258.863397 101.884823 
L 258.8338 102.006341 
L 258.804192 102.12788 
L 258.774573 102.24944 
L 258.744943 102.371022 
L 258.715302 102.492624 
L 258.68565 102.614248 
L 258.655987 102.735893 
L 258.626313 102.857559 
L 258.596627 102.979247 
L 258.566931 103.100955 
L 258.537223 103.222685 
L 258.507504 103.344436 
L 258.477775 103.466208 
L 258.448033 103.588002 
L 258.418281 103.709817 
L 258.388518 103.831653 
L 258.358743 103.953511 
L 258.328957 104.07539 
L 258.29916 104.19729 
L 258.269352 104.319211 
L 258.239533 104.441154 
L 258.209702 104.563119 
L 258.17986 104.685104 
L 258.150007 104.807112 
L 258.120142 104.92914 
L 258.090266 105.05119 
L 258.060379 105.173262 
L 258.030481 105.295355 
L 258.000571 105.417469 
L 257.97065 105.539605 
L 257.940718 105.661763 
L 257.910775 105.783942 
L 257.88082 105.906143 
L 257.850853 106.028365 
L 257.820876 106.150608 
L 257.790887 106.272874 
L 257.760886 106.395161 
L 257.730874 106.517469 
L 257.700851 106.639799 
L 257.670816 106.762151 
L 257.64077 106.884525 
L 257.610713 107.00692 
L 257.580644 107.129337 
L 257.550563 107.251775 
L 257.520472 107.374235 
L 257.490368 107.496717 
L 257.460253 107.619221 
L 257.430127 107.741747 
L 257.430127 107.741747 
" clip-path="url(#p9203835bfb)" style="fill: none; stroke: #0000ff; stroke-width: 0.5; stroke-linecap: square"/>
   </g>
   <g id="line2d_16">
    <path d="M 58.217143 58.67956 
L 58.217143 58.67956 
L 59.695922 59.080206 
L 61.17629 59.47809 
L 62.658241 59.8732 
L 64.141766 60.265523 
L 65.62686 60.655045 
L 67.113513 61.041754 
L 68.601719 61.425636 
L 70.091469 61.806679 
L 71.582756 62.18487 
L 73.075572 62.560195 
L 74.569908 62.932643 
L 76.065757 63.3022 
L 77.56311 63.668854 
L 79.061957 64.032592 
L 80.562292 64.393401 
L 82.064104 64.751269 
L 83.567386 65.106184 
L 85.072127 65.458132 
L 86.578319 65.807102 
L 88.085952 66.153081 
L 89.595018 66.496057 
L 91.105506 66.836017 
L 92.617407 67.17295 
L 94.130711 67.506844 
L 95.645408 67.837685 
L 97.161488 68.165463 
L 98.678941 68.490166 
L 100.197757 68.811781 
L 101.717925 69.130297 
L 103.239434 69.445702 
L 104.762275 69.757985 
L 106.286436 70.067134 
L 107.811906 70.373138 
L 109.338675 70.675985 
L 110.86673 70.975663 
L 112.396062 71.272163 
L 113.926659 71.565472 
L 115.458508 71.855579 
L 116.991599 72.142474 
L 118.52592 72.426145 
L 120.061459 72.706583 
L 121.598203 72.983775 
L 123.136142 73.257712 
L 124.675262 73.528383 
L 126.215552 73.795778 
L 127.756999 74.059885 
L 129.29959 74.320696 
L 130.843313 74.5782 
L 132.388156 74.832386 
L 133.934104 75.083245 
L 135.481146 75.330768 
L 137.029268 75.574943 
L 138.578458 75.815763 
L 140.128701 76.053216 
L 141.679985 76.287294 
L 143.232295 76.517988 
L 144.78562 76.745288 
L 146.339943 76.969185 
L 147.895253 77.18967 
L 149.451535 77.406735 
L 151.008775 77.620371 
L 152.566959 77.830568 
L 154.126073 78.037319 
L 155.686102 78.240615 
L 157.247033 78.440448 
L 158.80885 78.63681 
L 160.37154 78.829693 
L 161.935087 79.019088 
L 163.499478 79.204989 
L 165.064696 79.387387 
L 166.630728 79.566275 
L 168.197557 79.741646 
L 169.76517 79.913492 
L 171.333552 80.081806 
L 172.902686 80.246582 
L 174.472557 80.407812 
L 176.043151 80.56549 
L 177.614452 80.719609 
L 179.186443 80.870163 
L 180.759111 81.017146 
L 182.332438 81.16055 
L 183.90641 81.300371 
L 185.481011 81.436603 
L 187.056223 81.569239 
L 188.632033 81.698274 
L 190.208423 81.823703 
L 191.785378 81.94552 
L 193.362882 82.063721 
L 194.940918 82.178299 
L 196.51947 82.289251 
L 198.098522 82.396572 
L 199.678057 82.500257 
L 201.258059 82.600301 
L 202.838513 82.696701 
L 204.4194 82.789451 
L 206.000705 82.87855 
L 207.582411 82.963991 
L 209.164502 83.045773 
L 210.746961 83.123891 
L 212.32977 83.198342 
L 213.912914 83.269123 
L 213.912914 83.269123 
" clip-path="url(#p9203835bfb)" style="fill: none; stroke: #0000ff; stroke-width: 0.5; stroke-linecap: square"/>
   </g>
   <g id="line2d_17">
    <path d="M 58.217143 58.67956 
L 58.217143 58.67956 
L 58.603198 58.595046 
L 58.989166 58.510339 
L 59.375046 58.42544 
L 59.760838 58.340348 
L 60.146542 58.255065 
L 60.532157 58.169589 
L 60.917684 58.083923 
L 61.303122 57.998064 
L 61.688472 57.912015 
L 62.073732 57.825775 
L 62.458904 57.739344 
L 62.843986 57.652722 
L 63.228979 57.56591 
L 63.613882 57.478907 
L 63.998696 57.391715 
L 64.38342 57.304332 
L 64.768053 57.21676 
L 65.152597 57.128999 
L 65.537051 57.041048 
L 65.921414 56.952909 
L 66.305686 56.86458 
L 66.689868 56.776063 
L 67.073959 56.687358 
L 67.457959 56.598464 
L 67.841867 56.509382 
L 68.225685 56.420112 
L 68.609411 56.330654 
L 68.993045 56.241009 
L 69.376588 56.151177 
L 69.760039 56.061158 
L 70.143398 55.970952 
L 70.526665 55.880559 
L 70.90984 55.789979 
L 71.292922 55.699214 
L 71.675912 55.608262 
L 72.058809 55.517124 
L 72.441613 55.425801 
L 72.824325 55.334292 
L 73.206943 55.242598 
L 73.589468 55.150719 
L 73.9719 55.058655 
L 74.354238 54.966406 
L 74.736482 54.873973 
L 75.118633 54.781356 
L 75.50069 54.688554 
L 75.882653 54.595568 
L 76.264522 54.502399 
L 76.646297 54.409047 
L 77.027977 54.315511 
L 77.409563 54.221792 
L 77.791054 54.12789 
L 78.17245 54.033805 
L 78.553751 53.939539 
L 78.934957 53.845089 
L 79.316068 53.750458 
L 79.697084 53.655645 
L 80.078004 53.56065 
L 80.458829 53.465474 
L 80.839558 53.370116 
L 81.220192 53.274578 
L 81.600729 53.178858 
L 81.98117 53.082958 
L 82.361515 52.986878 
L 82.741764 52.890617 
L 83.121917 52.794176 
L 83.501973 52.697556 
L 83.881932 52.600756 
L 84.261794 52.503776 
L 84.64156 52.406618 
L 85.021228 52.30928 
L 85.4008 52.211763 
L 85.780274 52.114068 
L 86.159651 52.016195 
L 86.53893 51.918143 
L 86.918111 51.819914 
L 87.297195 51.721506 
L 87.676181 51.622921 
L 88.055069 51.524159 
L 88.433859 51.42522 
L 88.812551 51.326103 
L 89.191145 51.22681 
L 89.56964 51.127341 
L 89.948036 51.027695 
L 90.326334 50.927873 
L 90.704533 50.827875 
L 91.082633 50.727702 
L 91.460635 50.627353 
L 91.838537 50.526828 
L 92.21634 50.426129 
L 92.594043 50.325255 
L 92.971648 50.224206 
L 93.349152 50.122983 
L 93.726557 50.021585 
L 94.103863 49.920014 
L 94.481068 49.818268 
L 94.858174 49.716349 
L 95.235179 49.614257 
L 95.612084 49.511992 
L 95.988889 49.409553 
L 96.365594 49.306942 
L 96.742198 49.204158 
L 96.742198 49.204158 
" clip-path="url(#p9203835bfb)" style="fill: none; stroke: #0000ff; stroke-width: 0.5; stroke-linecap: square"/>
   </g>
   <g id="line2d_18">
    <path d="M 213.912914 83.269123 
L 213.912914 83.269123 
L 213.854875 83.068453 
L 213.796869 82.867837 
L 213.738897 82.667274 
L 213.680958 82.466764 
L 213.623054 82.266306 
L 213.565183 82.065902 
L 213.507345 81.86555 
L 213.449542 81.665251 
L 213.391771 81.465005 
L 213.334034 81.264811 
L 213.276331 81.06467 
L 213.218661 80.864581 
L 213.161024 80.664545 
L 213.103421 80.464561 
L 213.04585 80.264629 
L 212.988313 80.06475 
L 212.930809 79.864923 
L 212.873338 79.665148 
L 212.815901 79.465425 
L 212.758496 79.265754 
L 212.701124 79.066136 
L 212.643785 78.866569 
L 212.586478 78.667054 
L 212.529205 78.46759 
L 212.471964 78.268179 
L 212.414756 78.068819 
L 212.357581 77.869511 
L 212.300438 77.670255 
L 212.243328 77.47105 
L 212.18625 77.271896 
L 212.129205 77.072794 
L 212.072192 76.873743 
L 212.015212 76.674744 
L 211.958264 76.475796 
L 211.901348 76.276899 
L 211.844464 76.078053 
L 211.787613 75.879258 
L 211.730793 75.680514 
L 211.674006 75.481821 
L 211.617251 75.28318 
L 211.560528 75.084589 
L 211.503837 74.886048 
L 211.447177 74.687559 
L 211.39055 74.48912 
L 211.333954 74.290732 
L 211.27739 74.092395 
L 211.220858 73.894108 
L 211.164357 73.695871 
L 211.107888 73.497685 
L 211.051451 73.29955 
L 210.995045 73.101464 
L 210.938671 72.903429 
L 210.882328 72.705444 
L 210.826016 72.50751 
L 210.769736 72.309625 
L 210.713487 72.11179 
L 210.65727 71.914006 
L 210.601084 71.716271 
L 210.544928 71.518586 
L 210.488804 71.320951 
L 210.432711 71.123366 
L 210.376649 70.92583 
L 210.320618 70.728344 
L 210.264618 70.530908 
L 210.208649 70.333521 
L 210.152711 70.136184 
L 210.096804 69.938896 
L 210.040927 69.741658 
L 209.985081 69.544469 
L 209.929266 69.347329 
L 209.873481 69.150238 
L 209.817727 68.953197 
L 209.762004 68.756205 
L 209.706311 68.559261 
L 209.650648 68.362367 
L 209.595016 68.165522 
L 209.539414 67.968725 
L 209.483843 67.771978 
L 209.428302 67.575279 
L 209.372791 67.378629 
L 209.31731 67.182028 
L 209.26186 66.985475 
L 209.206439 66.788971 
L 209.151049 66.592516 
L 209.095689 66.396108 
L 209.040358 66.19975 
L 208.985058 66.003439 
L 208.929787 65.807177 
L 208.874547 65.610964 
L 208.819336 65.414798 
L 208.764155 65.218681 
L 208.709003 65.022611 
L 208.653882 64.82659 
L 208.598789 64.630617 
L 208.543727 64.434692 
L 208.488694 64.238814 
L 208.433691 64.042985 
L 208.378717 63.847203 
L 208.323772 63.651469 
L 208.268857 63.455782 
L 208.213971 63.260144 
L 208.213971 63.260144 
" clip-path="url(#p9203835bfb)" style="fill: none; stroke: #0000ff; stroke-width: 0.5; stroke-linecap: square"/>
   </g>
   <g id="line2d_19">
    <path d="M 300.131339 74.437833 
L 300.131339 74.437833 
L 299.992891 74.554705 
L 299.854398 74.671568 
L 299.715858 74.788423 
L 299.577273 74.90527 
L 299.438642 75.022109 
L 299.299965 75.138939 
L 299.161242 75.255761 
L 299.022473 75.372574 
L 298.883658 75.489379 
L 298.744797 75.606175 
L 298.60589 75.722963 
L 298.466936 75.839743 
L 298.327937 75.956514 
L 298.188891 76.073277 
L 298.049799 76.190031 
L 297.910661 76.306776 
L 297.771477 76.423513 
L 297.632246 76.540241 
L 297.492969 76.65696 
L 297.353645 76.773671 
L 297.214276 76.890373 
L 297.07486 77.007067 
L 296.935397 77.123751 
L 296.795888 77.240427 
L 296.656332 77.357094 
L 296.51673 77.473753 
L 296.377081 77.590402 
L 296.237386 77.707043 
L 296.097644 77.823674 
L 295.957856 77.940297 
L 295.81802 78.056911 
L 295.678138 78.173515 
L 295.53821 78.290111 
L 295.398234 78.406698 
L 295.258212 78.523276 
L 295.118143 78.639844 
L 294.978027 78.756404 
L 294.837865 78.872954 
L 294.697655 78.989495 
L 294.557398 79.106027 
L 294.417095 79.22255 
L 294.276744 79.339064 
L 294.136347 79.455568 
L 293.995902 79.572063 
L 293.85541 79.688549 
L 293.714872 79.805026 
L 293.574286 79.921493 
L 293.433653 80.037951 
L 293.292972 80.154399 
L 293.152245 80.270838 
L 293.01147 80.387267 
L 292.870648 80.503687 
L 292.729779 80.620098 
L 292.588862 80.736499 
L 292.447898 80.85289 
L 292.306886 80.969272 
L 292.165828 81.085644 
L 292.024721 81.202007 
L 291.883567 81.31836 
L 291.742366 81.434703 
L 291.601117 81.551036 
L 291.459821 81.66736 
L 291.318477 81.783674 
L 291.177085 81.899978 
L 291.035646 82.016272 
L 290.894159 82.132557 
L 290.752624 82.248832 
L 290.611042 82.365096 
L 290.469411 82.481351 
L 290.327733 82.597596 
L 290.186008 82.713831 
L 290.044234 82.830056 
L 289.902412 82.946271 
L 289.760543 83.062475 
L 289.618625 83.17867 
L 289.47666 83.294855 
L 289.334646 83.411029 
L 289.192585 83.527193 
L 289.050476 83.643347 
L 288.908318 83.759491 
L 288.766112 83.875625 
L 288.623858 83.991748 
L 288.481556 84.107861 
L 288.339206 84.223964 
L 288.196808 84.340056 
L 288.054361 84.456138 
L 287.911866 84.57221 
L 287.769322 84.688271 
L 287.626731 84.804322 
L 287.484091 84.920362 
L 287.341402 85.036392 
L 287.198665 85.152411 
L 287.05588 85.268419 
L 286.913046 85.384417 
L 286.770164 85.500405 
L 286.627233 85.616381 
L 286.484253 85.732347 
L 286.341225 85.848302 
L 286.198148 85.964247 
L 286.055023 86.080181 
L 285.911849 86.196104 
L 285.911849 86.196104 
" clip-path="url(#p9203835bfb)" style="fill: none; stroke: #0000ff; stroke-width: 0.5; stroke-linecap: square"/>
   </g>
   <g id="line2d_20">
    <path d="M 96.742198 49.204158 
L 96.742198 49.204158 
L 97.821834 49.422111 
L 98.90208 49.638593 
L 99.982932 49.853602 
L 101.064387 50.067133 
L 102.146442 50.279184 
L 103.229093 50.48975 
L 104.312337 50.698827 
L 105.396171 50.906413 
L 106.48059 51.112503 
L 107.565592 51.317093 
L 108.651173 51.520181 
L 109.737329 51.721763 
L 110.824057 51.921835 
L 111.911353 52.120394 
L 112.999214 52.317435 
L 114.087636 52.512957 
L 115.176616 52.706954 
L 116.266149 52.899425 
L 117.356231 53.090365 
L 118.44686 53.27977 
L 119.538032 53.467639 
L 120.629742 53.653966 
L 121.721987 53.838749 
L 122.814763 54.021985 
L 123.908065 54.203671 
L 125.001891 54.383802 
L 126.096237 54.562376 
L 127.191097 54.739389 
L 128.286469 54.914839 
L 129.382349 55.088722 
L 130.478732 55.261035 
L 131.575614 55.431774 
L 132.672991 55.600937 
L 133.770859 55.768521 
L 134.869215 55.934523 
L 135.968054 56.098938 
L 137.067371 56.261766 
L 138.167163 56.423001 
L 139.267425 56.582642 
L 140.368154 56.740686 
L 141.469345 56.897129 
L 142.570993 57.051969 
L 143.673095 57.205203 
L 144.775646 57.356827 
L 145.878641 57.50684 
L 146.982077 57.655238 
L 148.085949 57.802018 
L 149.190253 57.947178 
L 150.294984 58.090716 
L 151.400138 58.232627 
L 152.505711 58.372911 
L 153.611697 58.511563 
L 154.718092 58.648582 
L 155.824893 58.783964 
L 156.932094 58.917708 
L 158.039691 59.04981 
L 159.147679 59.180269 
L 160.256053 59.309081 
L 161.36481 59.436245 
L 162.473944 59.561757 
L 163.583451 59.685616 
L 164.693326 59.807819 
L 165.803564 59.928363 
L 166.914161 60.047247 
L 168.025112 60.164468 
L 169.136412 60.280024 
L 170.248057 60.393913 
L 171.360042 60.506132 
L 172.472361 60.616679 
L 173.585011 60.725552 
L 174.697986 60.83275 
L 175.811281 60.938269 
L 176.924892 61.042108 
L 178.038814 61.144265 
L 179.153041 61.244738 
L 180.26757 61.343525 
L 181.382395 61.440624 
L 182.49751 61.536033 
L 183.612912 61.62975 
L 184.728595 61.721774 
L 185.844554 61.812102 
L 186.960785 61.900733 
L 188.077282 61.987665 
L 189.19404 62.072897 
L 190.311054 62.156426 
L 191.428319 62.238252 
L 192.545831 62.318372 
L 193.663583 62.396784 
L 194.781571 62.473488 
L 195.899791 62.548482 
L 197.018236 62.621765 
L 198.136901 62.693334 
L 199.255782 62.763188 
L 200.374874 62.831327 
L 201.494171 62.897748 
L 202.613668 62.962451 
L 203.733359 63.025434 
L 204.853241 63.086696 
L 205.973307 63.146236 
L 207.093552 63.204052 
L 208.213971 63.260144 
L 208.213971 63.260144 
" clip-path="url(#p9203835bfb)" style="fill: none; stroke: #0000ff; stroke-width: 0.5; stroke-linecap: square"/>
   </g>
   <g id="patch_3">
    <path d="M 7.2 129.486855 
L 7.2 7.2 
" style="fill: none; stroke: #000000; stroke-width: 0.8; stroke-linejoin: miter; stroke-linecap: square"/>
   </g>
   <g id="patch_4">
    <path d="M 364.32 129.486855 
L 364.32 7.2 
" style="fill: none; stroke: #000000; stroke-width: 0.8; stroke-linejoin: miter; stroke-linecap: square"/>
   </g>
   <g id="patch_5">
    <path d="M 7.2 129.486855 
L 364.32 129.486855 
" style="fill: none; stroke: #000000; stroke-width: 0.8; stroke-linejoin: miter; stroke-linecap: square"/>
   </g>
   <g id="patch_6">
    <path d="M 7.2 7.2 
L 364.32 7.2 
" style="fill: none; stroke: #000000; stroke-width: 0.8; stroke-linejoin: miter; stroke-linecap: square"/>
   </g>
   <g id="PathCollection_1">
    <defs>
     <path id="m368bbe1878" d="M 0 0.5 
C 0.132602 0.5 0.25979 0.447317 0.353553 0.353553 
C 0.447317 0.25979 0.5 0.132602 0.5 0 
C 0.5 -0.132602 0.447317 -0.25979 0.353553 -0.353553 
C 0.25979 -0.447317 0.132602 -0.5 0 -0.5 
C -0.132602 -0.5 -0.25979 -0.447317 -0.353553 -0.353553 
C -0.447317 -0.25979 -0.5 -0.132602 -0.5 0 
C -0.5 0.132602 -0.447317 0.25979 -0.353553 0.353553 
C -0.25979 0.447317 -0.132602 0.5 0 0.5 
z
" style="stroke: #ff0000"/>
    </defs>
    <g clip-path="url(#p9203835bfb)">
     <use xlink:href="#m368bbe1878" x="282.414507" y="61.235789" style="fill: #ff0000; stroke: #ff0000"/>
     <use xlink:href="#m368bbe1878" x="290.848954" y="39.058614" style="fill: #ff0000; stroke: #ff0000"/>
     <use xlink:href="#m368bbe1878" x="275.259775" y="83.269484" style="fill: #ff0000; stroke: #ff0000"/>
     <use xlink:href="#m368bbe1878" x="279.451" y="68.413862" style="fill: #ff0000; stroke: #ff0000"/>
     <use xlink:href="#m368bbe1878" x="270.788617" y="92.930719" style="fill: #ff0000; stroke: #ff0000"/>
     <use xlink:href="#m368bbe1878" x="304.023618" y="66.732033" style="fill: #ff0000; stroke: #ff0000"/>
     <use xlink:href="#m368bbe1878" x="313.302857" y="45.63157" style="fill: #ff0000; stroke: #ff0000"/>
     <use xlink:href="#m368bbe1878" x="253.308886" y="110.631888" style="fill: #ff0000; stroke: #ff0000"/>
     <use xlink:href="#m368bbe1878" x="260.416476" y="95.474223" style="fill: #ff0000; stroke: #ff0000"/>
     <use xlink:href="#m368bbe1878" x="58.217143" y="58.67956" style="fill: #ff0000; stroke: #ff0000"/>
     <use xlink:href="#m368bbe1878" x="213.912914" y="83.269123" style="fill: #ff0000; stroke: #ff0000"/>
     <use xlink:href="#m368bbe1878" x="257.430127" y="107.741747" style="fill: #ff0000; stroke: #ff0000"/>
     <use xlink:href="#m368bbe1878" x="300.131339" y="74.437833" style="fill: #ff0000; stroke: #ff0000"/>
     <use xlink:href="#m368bbe1878" x="285.911849" y="86.196104" style="fill: #ff0000; stroke: #ff0000"/>
     <use xlink:href="#m368bbe1878" x="312.583146" y="23.508505" style="fill: #ff0000; stroke: #ff0000"/>
     <use xlink:href="#m368bbe1878" x="96.742198" y="49.204158" style="fill: #ff0000; stroke: #ff0000"/>
     <use xlink:href="#m368bbe1878" x="208.213971" y="63.260144" style="fill: #ff0000; stroke: #ff0000"/>
    </g>
   </g>
   <g id="PathCollection_2">
    <defs>
     <path id="me3fde23092" d="M 0 0.5 
C 0.132602 0.5 0.25979 0.447317 0.353553 0.353553 
C 0.447317 0.25979 0.5 0.132602 0.5 0 
C 0.5 -0.132602 0.447317 -0.25979 0.353553 -0.353553 
C 0.25979 -0.447317 0.132602 -0.5 0 -0.5 
C -0.132602 -0.5 -0.25979 -0.447317 -0.353553 -0.353553 
C -0.447317 -0.25979 -0.5 -0.132602 -0.5 0 
C -0.5 0.132602 -0.447317 0.25979 -0.353553 0.353553 
C -0.25979 0.447317 -0.132602 0.5 0 0.5 
z
" style="stroke: #ffff00"/>
    </defs>
    <g clip-path="url(#p9203835bfb)">
     <use xlink:href="#me3fde23092" x="275.259775" y="83.269484" style="fill: #ffff00; stroke: #ffff00"/>
    </g>
   </g>
  </g>
 </g>
 <defs>
  <clipPath id="p9203835bfb">
   <rect x="7.2" y="7.2" width="357.12" height="122.286855"/>
  </clipPath>
 </defs>
</svg>
