<?xml version="1.0" encoding="utf-8" standalone="no"?>
<!DOCTYPE svg PUBLIC "-//W3C//DTD SVG 1.1//EN"
  "http://www.w3.org/Graphics/SVG/1.1/DTD/svg11.dtd">
<svg xmlns:xlink="http://www.w3.org/1999/xlink" width="220.219095pt" height="280.512pt" viewBox="0 0 220.219095 280.512" xmlns="http://www.w3.org/2000/svg" version="1.1">
 <metadata>
  <rdf:RDF xmlns:dc="http://purl.org/dc/elements/1.1/" xmlns:cc="http://creativecommons.org/ns#" xmlns:rdf="http://www.w3.org/1999/02/22-rdf-syntax-ns#">
   <cc:Work>
    <dc:type rdf:resource="http://purl.org/dc/dcmitype/StillImage"/>
    <dc:date>2025-04-17T08:30:02.508976</dc:date>
    <dc:format>image/svg+xml</dc:format>
    <dc:creator>
     <cc:Agent>
      <dc:title>Matplotlib v3.8.4, https://matplotlib.org/</dc:title>
     </cc:Agent>
    </dc:creator>
   </cc:Work>
  </rdf:RDF>
 </metadata>
 <defs>
  <style type="text/css">*{stroke-linejoin: round; stroke-linecap: butt}</style>
 </defs>
 <g id="figure_1">
  <g id="patch_1">
   <path d="M -0 280.512 
L 220.219095 280.512 
L 220.219095 0 
L -0 0 
z
" style="fill: #ffffff"/>
  </g>
  <g id="axes_1">
   <g id="patch_2">
    <path d="M 7.2 273.312 
L 213.019095 273.312 
L 213.019095 7.2 
L 7.2 7.2 
z
" style="fill: #ffffff"/>
   </g>
   <g id="matplotlib.axis_1"/>
   <g id="matplotlib.axis_2"/>
   <g id="LineCollection_1">
    <path d="M 7.2 86.58773 
L 7.636483 86.223498 
L 16.067755 85.155654 
L 10.43703 82.354412 
L 13.17932 75.828739 
L 7.2 74.737241 
" clip-path="url(#p12837002bd)" style="fill: none; stroke: #000000; stroke-width: 0.2"/>
    <path d="M 7.2 62.155687 
L 7.217631 62.116598 
L 16.818072 55.5512 
L 23.418417 57.742349 
L 25.995476 57.757769 
L 23.491574 55.291763 
L 37.333599 53.035879 
L 43.52363 60.657072 
L 48.783717 58.373034 
L 50.831101 61.931226 
L 48.857543 58.28139 
L 41.642815 57.326799 
L 43.471232 48.563398 
L 47.731231 45.006869 
L 62.422677 43.654917 
L 67.193434 50.190877 
L 64.890587 52.89752 
L 67.870594 55.306926 
L 70.227514 53.266168 
L 69.370559 47.589595 
L 75.494966 50.221865 
L 74.468428 56.550924 
L 75.970401 50.222992 
L 73.922348 44.458142 
L 78.037205 37.104804 
L 80.853153 39.337572 
L 91.081202 39.098125 
L 97.181168 47.51171 
L 103.434814 50.56129 
L 97.509788 47.236258 
L 89.519632 36.142576 
L 83.285071 35.569106 
L 81.71195 32.026359 
L 85.421348 32.134093 
L 85.659735 29.78106 
L 81.090871 26.441336 
L 84.454742 21.27989 
L 75.969732 21.874158 
L 77.37712 18.250777 
L 85.622571 14.901047 
L 81.089029 15.531475 
L 84.710707 13.200952 
L 74.982367 9.603417 
L 78.896001 7.29722 
L 78.868025 7.2 
" clip-path="url(#p12837002bd)" style="fill: none; stroke: #000000; stroke-width: 0.2"/>
    <path d="M 106.976327 7.2 
L 107.896371 12.41082 
L 103.834581 15.655917 
L 110.840385 15.26297 
L 110.400943 21.167955 
L 114.387064 16.708661 
L 122.72643 21.668442 
L 132.10489 18.516464 
L 131.26568 25.754098 
L 123.841191 31.088931 
L 126.746703 34.68446 
L 133.149005 32.506829 
L 139.328155 36.888596 
L 142.637786 29.282045 
L 140.444256 30.778326 
L 144.046346 27.361849 
L 153.00495 26.30088 
L 154.449502 29.655465 
L 153.170682 26.377832 
L 162.515828 15.011132 
L 172.296566 16.789258 
L 160.684901 18.97297 
L 160.356281 23.892847 
L 163.53048 19.114667 
L 166.753394 18.525952 
L 168.841291 20.227095 
L 173.558813 16.678149 
L 175.47947 22.687856 
L 183.175659 29.829012 
L 188.936125 27.003889 
L 189.486558 32.148628 
L 193.178881 36.004132 
L 191.056666 39.044216 
L 200.692932 42.246296 
L 200.108515 44.441742 
L 202.266053 42.989398 
L 207.998059 47.973039 
L 206.891166 44.148214 
L 211.754331 35.910882 
L 211.080184 32.195367 
L 213.019095 31.66919 
" clip-path="url(#p12837002bd)" style="fill: none; stroke: #000000; stroke-width: 0.2"/>
    <path d="M 150.639373 7.2 
L 150.519964 12.238772 
L 148.44076 7.2 
" clip-path="url(#p12837002bd)" style="fill: none; stroke: #000000; stroke-width: 0.2"/>
    <path d="M 147.967622 7.2 
L 148.088047 7.422328 
L 141.522522 8.418482 
L 140.315018 10.882218 
L 133.986834 7.2 
" clip-path="url(#p12837002bd)" style="fill: none; stroke: #000000; stroke-width: 0.2"/>
   </g>
   <g id="LineCollection_2">
    <path d="M 153.195793 164.804023 
L 158.309567 170.112612 
L 162.521185 162.358197 
L 163.835997 162.250266 
L 165.150642 162.142328 
L 166.465455 162.034384 
L 167.780267 161.926431 
L 169.094912 161.81821 
L 170.409725 161.710506 
L 171.72437 161.60227 
L 172.767146 161.516621 
L 173.913045 160.499533 
L 175.059112 159.481283 
L 176.205178 158.462659 
L 177.351077 157.443399 
L 178.497143 156.4235 
L 179.643043 155.402962 
L 180.789109 154.381519 
L 181.422074 153.817235 
L 183.329841 155.190917 
L 185.280297 151.508967 
L 186.594942 151.398464 
L 187.909754 151.287954 
L 189.224399 151.177701 
L 190.539044 151.06744 
L 191.853689 150.956907 
L 191.930027 150.95056 
L 193.002769 148.647746 
L 194.290629 148.21524 
L 195.578489 147.782619 
L 196.866349 147.349617 
L 198.154209 146.916765 
L 199.441901 146.483797 
L 200.729761 146.050448 
L 202.017621 145.617514 
L 203.305481 145.183934 
L 203.596099 145.086269 
L 200.646058 141.787698 
L 201.737047 139.520285 
L 206.119421 139.675539 
L 208.612441 146.322565 
L 211.848916 147.69306 
L 213.019095 147.311386 
" clip-path="url(#p12837002bd)" style="fill: none; stroke: #000000; stroke-width: 0.2"/>
    <path d="M 54.351664 256.317852 
L 52.638926 252.463732 
L 55.113532 243.655769 
L 54.132194 238.832868 
L 54.704223 237.055744 
L 55.276252 235.276746 
L 55.848448 233.495617 
L 56.420477 231.713106 
L 56.992505 229.9282 
L 57.564534 228.141903 
L 58.136563 226.353199 
L 58.708759 224.562841 
L 59.280788 222.770569 
L 59.660466 221.579975 
L 60.682317 220.323122 
L 61.704 219.065325 
L 62.725851 217.806581 
L 63.747702 216.546888 
L 64.769552 215.286246 
L 65.791403 214.024651 
L 66.813086 212.762102 
L 67.834937 211.498597 
L 68.370303 210.836014 
L 67.06654 210.558563 
L 65.762609 210.280557 
L 64.458845 210.003014 
L 63.154914 209.724915 
L 61.851151 209.447279 
L 60.54722 209.169087 
L 59.243456 208.891104 
L 57.939525 208.613074 
L 56.635594 208.334998 
L 55.729087 208.14167 
L 50.82859 203.72811 
L 47.744623 205.926892 
L 42.393132 205.908478 
L 39.906305 202.245002 
L 35.523932 204.082486 
L 34.745826 202.457468 
L 33.967719 200.830858 
L 33.18978 199.202652 
L 32.411674 197.572845 
L 31.633567 195.941434 
L 31.348808 195.343653 
L 27.435676 194.190713 
L 27.991132 192.35331 
L 28.546587 190.513604 
L 29.102043 188.672105 
L 29.657498 186.828549 
L 30.212954 184.982929 
L 30.768409 183.13524 
L 30.995245 182.380018 
L 25.034227 179.884703 
L 21.962313 173.857703 
L 23.291021 167.903731 
L 28.228012 164.784882 
L 27.703862 160.751367 
L 23.546985 157.820002 
L 25.430479 154.518734 
L 20.115482 151.239306 
L 21.249161 144.293589 
L 16.507198 139.840364 
L 17.740818 139.109042 
L 18.974438 138.376857 
L 20.208058 137.644872 
L 21.441678 136.91229 
L 22.675299 136.179374 
L 23.211837 135.860704 
L 21.163783 132.962031 
L 24.375984 128.604492 
L 23.702004 126.79203 
L 23.028025 124.977523 
L 22.354213 123.160965 
L 21.680233 121.34235 
L 21.006254 119.521672 
L 20.332274 117.699195 
L 19.658462 115.874372 
L 18.984483 114.047468 
L 18.354029 112.336844 
L 23.150901 111.902874 
L 22.894936 109.474315 
L 28.343858 112.228227 
L 29.627533 111.755211 
L 30.911207 111.281783 
L 32.194882 110.808486 
L 33.478557 110.335049 
L 34.762232 109.861472 
L 35.865275 109.454507 
L 37.699885 106.913512 
L 34.670493 103.734088 
L 35.859917 102.815563 
L 37.049342 101.896507 
L 38.238767 100.976922 
L 39.428024 100.056804 
L 40.617449 99.136155 
L 41.806874 98.214973 
L 42.594188 97.604929 
L 41.228819 89.642525 
L 36.176149 89.622194 
L 34.60353 86.418149 
L 36.255332 82.725052 
L 42.56372 83.006216 
L 43.103439 81.026239 
L 43.643158 79.043224 
L 44.182878 77.057994 
L 44.72243 75.070263 
L 45.262149 73.079746 
L 45.801868 71.087267 
L 46.165978 69.741502 
L 46.068547 67.557853 
L 45.971116 65.371447 
L 45.873686 63.181437 
L 45.776255 60.988927 
L 45.678824 58.793069 
L 45.666101 58.507827 
L 41.338637 58.171242 
L 39.156658 53.49024 
L 37.902112 52.819336 
L 36.647734 52.147864 
L 35.393188 51.476103 
L 34.138809 50.804335 
L 32.88443 50.131715 
L 31.629884 49.459369 
L 30.375506 48.786452 
L 29.12096 48.113245 
L 28.459703 47.758333 
" clip-path="url(#p12837002bd)" style="fill: none; stroke: #000000; stroke-width: 0.2"/>
    <path d="M 95.759745 273.312 
L 96.096875 268.303207 
L 100.083164 262.487483 
L 97.754704 257.762977 
" clip-path="url(#p12837002bd)" style="fill: none; stroke: #000000; stroke-width: 0.2"/>
    <path d="M 101.356962 257.888453 
L 102.606653 255.992437 
L 106.452488 257.527623 
L 109.40956 263.6316 
L 112.33449 262.928361 
L 111.059688 266.382455 
L 116.644042 262.831194 
L 117.624878 256.109603 
L 118.197409 257.78108 
L 119.514062 257.78108 
L 120.830549 257.78108 
L 122.147203 257.78108 
L 123.463689 257.78108 
L 124.780176 257.78108 
L 126.096662 257.78108 
L 126.621148 257.78108 
L 128.723274 262.351463 
L 135.110677 262.26391 
L 136.274656 261.354972 
L 137.438803 260.44555 
L 138.602782 259.535643 
L 139.766928 258.625498 
L 140.930907 257.714619 
L 142.095053 256.803501 
L 143.200775 255.937326 
L 144.516926 255.89264 
L 145.833246 255.84845 
L 147.149397 255.803762 
L 148.465549 255.759569 
L 149.781701 255.714879 
L 151.09802 255.670684 
L 152.414171 255.625991 
L 153.730323 255.581794 
L 155.046642 255.537098 
L 155.444568 255.52369 
L 156.785328 251.166709 
L 156.688735 252.999473 
L 160.833558 252.618204 
L 162.509969 254.781574 
L 168.243649 253.423171 
L 168.908421 257.38451 
L 174.249198 259.19771 
L 174.839474 253.081038 
L 171.126728 251.777021 
L 173.279243 247.537648 
L 172.383115 246.100028 
L 171.486987 244.660686 
L 170.590859 243.22037 
L 169.69473 241.778827 
L 168.798602 240.335804 
L 167.902474 238.892048 
L 167.780602 238.695442 
L 169.011041 237.994092 
L 170.241648 237.292451 
L 171.472088 236.590517 
L 172.702695 235.888292 
L 173.933134 235.185774 
L 175.163741 234.482963 
L 176.39418 233.779859 
L 177.624787 233.076209 
L 178.855226 232.372517 
L 180.085666 231.668531 
L 181.316273 230.964251 
L 181.751363 230.715062 
L 182.920866 224.013698 
L 189.029538 225.697487 
L 191.399347 217.248867 
L 186.828809 211.20851 
L 183.853322 211.465716 
L 182.725335 210.432063 
L 181.597349 209.397259 
L 180.469362 208.362067 
L 179.341376 207.32623 
L 178.213222 206.289493 
L 177.119219 205.283834 
L 173.674323 199.640402 
L 172.436183 198.954071 
L 171.198043 198.267456 
L 169.959903 197.580556 
L 168.721595 196.893628 
L 167.483455 196.205901 
L 166.245315 195.518403 
L 165.726856 195.230145 
L 164.882457 193.676292 
L 164.038057 192.120977 
L 163.193658 190.564197 
L 162.349258 189.006207 
L 161.504859 187.446486 
L 160.660459 185.885289 
L 159.980118 184.62625 
L 163.082667 178.653044 
L 161.894916 177.770641 
L 160.707166 176.888023 
L 159.519415 176.004931 
L 158.331664 175.121364 
L 157.143913 174.23732 
L 156.864344 174.02875 
L 156.169272 172.286412 
L 155.474366 170.54222 
L 154.779461 168.795907 
L 154.084388 167.047989 
L 153.389483 165.298201 
L 153.18893 164.792748 
" clip-path="url(#p12837002bd)" style="fill: none; stroke: #000000; stroke-width: 0.2"/>
    <path d="M 35.45742 273.312 
L 35.909135 272.745306 
L 36.91006 271.488941 
L 37.910985 270.231655 
L 38.911909 268.973693 
L 39.912834 267.714313 
L 40.913759 266.4545 
L 41.914684 265.193512 
L 42.78319 264.098619 
L 38.821342 263.720566 
L 41.222792 259.17095 
L 45.77592 259.234132 
L 46.848495 261.649923 
L 48.042607 260.83027 
L 49.236719 260.010222 
L 50.430831 259.189781 
L 51.624944 258.368944 
L 52.819056 257.547712 
L 54.013001 256.726084 
L 55.207113 255.903812 
L 55.485343 255.712396 
L 56.168027 257.699988 
L 57.469949 257.410306 
L 58.771872 257.120575 
L 60.073794 256.830795 
L 61.375716 256.540965 
L 62.677638 256.251086 
L 63.979727 255.961158 
L 65.281649 255.671428 
L 66.583572 255.381401 
L 67.736502 255.124607 
L 69.050812 255.239598 
L 70.364955 255.354333 
L 71.679265 255.469557 
L 72.993575 255.584277 
L 74.307718 255.699237 
L 75.622028 255.814189 
L 76.007566 255.847953 
L 77.013178 253.867145 
L 72.295656 252.445822 
L 75.794122 249.082231 
L 76.982877 249.92475 
L 78.171465 250.766851 
L 79.360053 251.608784 
L 80.548808 252.449802 
L 81.737396 253.290901 
L 82.926151 254.131336 
L 82.961976 254.156684 
L 84.27796 254.094804 
L 85.593777 254.03317 
L 86.909594 253.971534 
L 88.225578 253.909398 
L 89.541395 253.847757 
L 90.857379 253.786115 
L 91.056258 253.776669 
L 92.326038 254.292863 
L 93.595986 254.8089 
L 94.865766 255.324533 
L 96.135546 255.840505 
L 97.405326 256.355825 
L 98.675106 256.871238 
L 99.944886 257.386494 
L 101.214666 257.901595 
L 101.296026 257.934574 
" clip-path="url(#p12837002bd)" style="fill: none; stroke: #000000; stroke-width: 0.2"/>
    <path d="M 27.435676 194.190713 
L 24.528324 192.558283 
L 19.000051 194.575202 
L 14.386155 190.9054 
L 7.92526 192.633304 
L 7.2 191.541296 
" clip-path="url(#p12837002bd)" style="fill: none; stroke: #000000; stroke-width: 0.2"/>
    <path d="M 155.112372 273.312 
L 155.292395 272.193101 
L 154.021611 272.698108 
L 152.750826 273.202966 
L 152.476157 273.312 
" clip-path="url(#p12837002bd)" style="fill: none; stroke: #000000; stroke-width: 0.2"/>
    <path d="M 213.019095 123.635307 
L 211.178452 122.844013 
L 211.598977 117.830115 
L 208.179528 112.563535 
L 208.899377 110.779206 
L 209.619226 108.993154 
L 210.339074 107.204831 
L 211.058923 105.414502 
L 211.778772 103.622433 
L 211.781786 103.61508 
L 211.019583 101.867881 
L 210.25738 100.11849 
L 209.49501 98.367447 
L 208.732807 96.614475 
L 207.970604 94.859568 
L 207.208401 93.10272 
L 206.76561 92.0812 
L 209.09993 85.666117 
L 207.936453 84.652469 
L 206.772809 83.637896 
L 205.609332 82.622672 
L 204.445688 81.606796 
L 203.282211 80.590543 
L 202.118735 79.573636 
L 200.95509 78.555797 
L 199.791614 77.537301 
L 198.628137 76.518149 
L 197.805668 75.797698 
L 198.612736 74.074486 
L 199.419803 72.349667 
L 200.226871 70.622957 
L 201.033939 68.894073 
L 201.840839 67.163287 
L 202.647907 65.430874 
L 203.454975 63.696548 
L 204.261875 61.960026 
L 204.894338 60.598024 
L 204.476491 58.509789 
L 204.058644 56.418487 
L 203.640629 54.32439 
L 203.222782 52.227488 
L 202.804935 50.128053 
L 202.387088 48.025512 
L 201.969073 45.920419 
L 201.551226 43.812201 
L 201.133379 41.701129 
L 200.715531 39.587194 
L 200.297684 37.470669 
L 199.975761 35.838097 
" clip-path="url(#p12837002bd)" style="fill: none; stroke: #000000; stroke-width: 0.2"/>
    <path d="M 191.375408 217.211273 
L 196.519649 222.944743 
L 202.498915 224.41868 
L 205.321058 221.312412 
L 210.392142 223.589639 
L 212.927685 216.859677 
L 213.019095 216.868614 
" clip-path="url(#p12837002bd)" style="fill: none; stroke: #000000; stroke-width: 0.2"/>
    <path d="M 19.743672 149.823642 
L 18.427186 149.816233 
L 17.110699 149.808823 
L 15.794045 149.801414 
L 14.477559 149.794004 
L 13.161072 149.786594 
L 12.874472 149.785007 
L 11.576233 146.824507 
L 12.308637 145.091047 
L 13.040874 143.355464 
L 13.773111 141.618018 
L 14.505516 139.878972 
L 15.237753 138.138052 
L 15.970157 136.394988 
L 16.178076 135.899674 
L 14.959188 135.106482 
L 13.740132 134.3129 
L 12.521244 133.51866 
L 11.302188 132.724295 
L 10.0833 131.92954 
L 8.864244 131.134392 
L 8.754258 131.062378 
L 7.2 131.320955 
" clip-path="url(#p12837002bd)" style="fill: none; stroke: #000000; stroke-width: 0.2"/>
    <path d="M 22.40728 171.530101 
L 18.82327 170.093794 
L 17.959451 171.64421 
L 17.095632 173.19316 
L 16.231814 174.740387 
L 15.367995 176.286677 
L 14.504176 177.830991 
L 13.640358 179.374114 
L 13.587625 179.468449 
L 17.27526 187.330883 
L 15.288142 191.318776 
" clip-path="url(#p12837002bd)" style="fill: none; stroke: #000000; stroke-width: 0.2"/>
    <path d="M 98.467856 273.177899 
L 97.035524 266.399726 
" clip-path="url(#p12837002bd)" style="fill: none; stroke: #000000; stroke-width: 0.2"/>
    <path d="M 78.29317 252.799025 
L 78.311417 252.799025 
" clip-path="url(#p12837002bd)" style="fill: none; stroke: #000000; stroke-width: 0.2"/>
   </g>
   <g id="LineCollection_3"/>
   <g id="line2d_1">
    <path d="M 102.868577 92.151128 
L 102.868577 92.151128 
L 103.665399 92.084709 
L 104.462287 92.018688 
L 105.259241 91.953065 
L 106.05626 91.887841 
L 106.853345 91.823016 
L 107.650495 91.75859 
L 108.447708 91.694562 
L 109.244986 91.630934 
L 110.042327 91.567704 
L 110.839732 91.504874 
L 111.637199 91.442443 
L 112.434729 91.380412 
L 113.232321 91.31878 
L 114.029974 91.257548 
L 114.827689 91.196716 
L 115.625464 91.136283 
L 116.4233 91.076251 
L 117.221196 91.016618 
L 118.019151 90.957386 
L 118.817166 90.898554 
L 119.61524 90.840122 
L 120.413372 90.782091 
L 121.211562 90.72446 
L 122.00981 90.66723 
L 122.808115 90.610401 
L 123.606477 90.553972 
L 124.404895 90.497944 
L 125.203369 90.442318 
L 126.0019 90.387092 
L 126.800485 90.332268 
L 127.599125 90.277845 
L 128.39782 90.223823 
L 129.196569 90.170203 
L 129.995371 90.116984 
L 130.794227 90.064167 
L 131.593136 90.011752 
L 132.392097 89.959739 
L 133.19111 89.908127 
L 133.990175 89.856918 
L 134.789291 89.80611 
L 135.588458 89.755705 
L 136.387676 89.705702 
L 137.186943 89.656101 
L 137.986261 89.606903 
L 138.785627 89.558107 
L 139.585043 89.509714 
L 140.384507 89.461723 
L 141.184019 89.414136 
L 141.983578 89.366951 
L 142.783185 89.320169 
L 143.582839 89.27379 
L 144.382539 89.227814 
L 145.182286 89.182241 
L 145.982078 89.137071 
L 146.781915 89.092305 
L 147.581797 89.047941 
L 148.381724 89.003982 
L 149.181695 88.960426 
L 149.981709 88.917273 
L 150.781767 88.874524 
L 151.581867 88.832179 
L 152.38201 88.790238 
L 153.182195 88.7487 
L 153.982421 88.707567 
L 154.782689 88.666837 
L 155.582998 88.626512 
L 156.383347 88.58659 
L 157.183736 88.547073 
L 157.984165 88.50796 
L 158.784632 88.469252 
L 159.585139 88.430948 
L 160.385684 88.393048 
L 161.186267 88.355553 
L 161.986888 88.318462 
L 162.787546 88.281776 
L 163.58824 88.245495 
L 164.388971 88.209619 
L 165.189738 88.174147 
L 165.990541 88.13908 
L 166.791378 88.104419 
L 167.592251 88.070162 
L 168.393157 88.03631 
L 169.194098 88.002864 
L 169.995072 87.969822 
L 170.796079 87.937186 
L 171.597119 87.904956 
L 172.398192 87.87313 
L 173.199296 87.84171 
L 174.000432 87.810695 
L 174.801598 87.780086 
L 175.602796 87.749883 
L 176.404023 87.720085 
L 177.205281 87.690693 
L 178.006568 87.661706 
L 178.807884 87.633125 
L 179.609229 87.60495 
L 180.410602 87.577181 
L 181.212002 87.549818 
L 182.013431 87.522861 
L 182.814886 87.496309 
L 183.616367 87.470164 
L 183.616367 87.470164 
" clip-path="url(#p12837002bd)" style="fill: none; stroke: #0000ff; stroke-width: 0.5; stroke-linecap: square"/>
   </g>
   <g id="line2d_2">
    <path d="M 102.868577 92.151128 
L 102.868577 92.151128 
L 102.654698 91.903994 
L 102.440753 91.65685 
L 102.226741 91.409697 
L 102.012663 91.162535 
L 101.798518 90.915364 
L 101.584306 90.668183 
L 101.370028 90.420993 
L 101.155684 90.173794 
L 100.941272 89.926586 
L 100.726794 89.679368 
L 100.512249 89.432142 
L 100.297638 89.184906 
L 100.082959 88.937661 
L 99.868214 88.690407 
L 99.653402 88.443144 
L 99.438523 88.195872 
L 99.223577 87.94859 
L 99.008564 87.7013 
L 98.793485 87.454001 
L 98.578338 87.206692 
L 98.363124 86.959375 
L 98.147844 86.712048 
L 97.932496 86.464713 
L 97.717081 86.217368 
L 97.501599 85.970015 
L 97.286049 85.722653 
L 97.070433 85.475281 
L 96.854749 85.227901 
L 96.638998 84.980512 
L 96.42318 84.733114 
L 96.207294 84.485707 
L 95.991341 84.238291 
L 95.775321 83.990867 
L 95.559233 83.743434 
L 95.343078 83.495991 
L 95.126856 83.24854 
L 94.910565 83.00108 
L 94.694208 82.753612 
L 94.477783 82.506135 
L 94.26129 82.258648 
L 94.044729 82.011154 
L 93.828101 81.76365 
L 93.611406 81.516138 
L 93.394642 81.268617 
L 93.177811 81.021088 
L 92.960912 80.773549 
L 92.743946 80.526003 
L 92.526911 80.278447 
L 92.309809 80.030883 
L 92.092638 79.78331 
L 91.8754 79.535729 
L 91.658094 79.288139 
L 91.44072 79.040541 
L 91.223278 78.792934 
L 91.005768 78.545319 
L 90.78819 78.297695 
L 90.570543 78.050063 
L 90.352829 77.802422 
L 90.135046 77.554772 
L 89.917196 77.307115 
L 89.699277 77.059449 
L 89.48129 76.811774 
L 89.263234 76.564091 
L 89.04511 76.3164 
L 88.826918 76.0687 
L 88.608658 75.820992 
L 88.390329 75.573276 
L 88.171932 75.325551 
L 87.953466 75.077818 
L 87.734932 74.830077 
L 87.516329 74.582327 
L 87.297658 74.33457 
L 87.078918 74.086804 
L 86.86011 73.839029 
L 86.641233 73.591247 
L 86.422287 73.343456 
L 86.203273 73.095658 
L 85.98419 72.847851 
L 85.765038 72.600035 
L 85.545817 72.352212 
L 85.326528 72.104381 
L 85.10717 71.856542 
L 84.887743 71.608694 
L 84.668247 71.360838 
L 84.448682 71.112975 
L 84.229048 70.865103 
L 84.009345 70.617224 
L 83.789573 70.369336 
L 83.569732 70.12144 
L 83.349822 69.873537 
L 83.129843 69.625625 
L 82.909794 69.377706 
L 82.689677 69.129778 
L 82.46949 68.881843 
L 82.249234 68.6339 
L 82.028909 68.385949 
L 81.808515 68.13799 
L 81.588051 67.890023 
L 81.367518 67.642048 
L 81.146915 67.394066 
L 80.926243 67.146076 
L 80.926243 67.146076 
" clip-path="url(#p12837002bd)" style="fill: none; stroke: #0000ff; stroke-width: 0.5; stroke-linecap: square"/>
   </g>
   <g id="line2d_3">
    <path d="M 102.868577 92.151128 
L 102.868577 92.151128 
L 102.354758 92.456193 
L 101.841136 92.761366 
L 101.32771 93.066647 
L 100.814482 93.372037 
L 100.30145 93.677534 
L 99.788616 93.983139 
L 99.275978 94.288852 
L 98.763537 94.594672 
L 98.251293 94.9006 
L 97.739246 95.206634 
L 97.227395 95.512775 
L 96.715741 95.819023 
L 96.204284 96.125378 
L 95.693024 96.431838 
L 95.18196 96.738405 
L 94.671093 97.045078 
L 94.160422 97.351857 
L 93.649948 97.658741 
L 93.139671 97.96573 
L 92.62959 98.272825 
L 92.119705 98.580025 
L 91.610017 98.88733 
L 91.100525 99.194739 
L 90.591229 99.502253 
L 90.08213 99.809872 
L 89.573228 100.117594 
L 89.064521 100.425421 
L 88.556011 100.733351 
L 88.047696 101.041385 
L 87.539578 101.349523 
L 87.031657 101.657763 
L 86.523931 101.966107 
L 86.016401 102.274554 
L 85.509067 102.583103 
L 85.00193 102.891756 
L 84.494988 103.20051 
L 83.988242 103.509367 
L 83.481692 103.818325 
L 82.975338 104.127386 
L 82.46918 104.436548 
L 81.963218 104.745812 
L 81.457451 105.055177 
L 80.95188 105.364644 
L 80.446505 105.674211 
L 79.941325 105.983879 
L 79.436341 106.293648 
L 78.931553 106.603518 
L 78.42696 106.913487 
L 77.922563 107.223557 
L 77.418361 107.533727 
L 76.914354 107.843996 
L 76.410543 108.154365 
L 75.906927 108.464834 
L 75.403507 108.775401 
L 74.900282 109.086068 
L 74.397252 109.396834 
L 73.894417 109.707698 
L 73.391778 110.018661 
L 72.889334 110.329723 
L 72.387084 110.640883 
L 71.88503 110.95214 
L 71.383171 111.263496 
L 70.881507 111.574949 
L 70.380038 111.8865 
L 69.878763 112.198148 
L 69.377684 112.509893 
L 68.876799 112.821736 
L 68.37611 113.133675 
L 67.875615 113.445711 
L 67.375314 113.757843 
L 66.875209 114.070072 
L 66.375298 114.382397 
L 65.875581 114.694818 
L 65.376059 115.007335 
L 64.876732 115.319947 
L 64.377599 115.632655 
L 63.878661 115.945458 
L 63.379917 116.258356 
L 62.881367 116.571349 
L 62.383012 116.884438 
L 61.88485 117.19762 
L 61.386884 117.510897 
L 60.889111 117.824269 
L 60.391532 118.137734 
L 59.894148 118.451294 
L 59.396958 118.764947 
L 58.899961 119.078694 
L 58.403159 119.392535 
L 57.906551 119.706468 
L 57.410136 120.020495 
L 56.913915 120.334615 
L 56.417889 120.648828 
L 55.922056 120.963133 
L 55.426416 121.27753 
L 54.930971 121.59202 
L 54.435719 121.906602 
L 53.94066 122.221276 
L 53.445795 122.536042 
L 52.951124 122.8509 
L 52.456646 123.165848 
L 51.962362 123.480888 
L 51.962362 123.480888 
" clip-path="url(#p12837002bd)" style="fill: none; stroke: #0000ff; stroke-width: 0.5; stroke-linecap: square"/>
   </g>
   <g id="line2d_4">
    <path d="M 102.868577 92.151128 
L 102.868577 92.151128 
L 102.608589 92.949724 
L 102.348861 93.747964 
L 102.089393 94.545849 
L 101.830185 95.343378 
L 101.571237 96.140553 
L 101.312547 96.937374 
L 101.054116 97.73384 
L 100.795943 98.529953 
L 100.538028 99.325712 
L 100.280369 100.121119 
L 100.022968 100.916173 
L 99.765822 101.710875 
L 99.508932 102.505225 
L 99.252298 103.299224 
L 98.995919 104.092871 
L 98.739794 104.886169 
L 98.483922 105.679116 
L 98.228305 106.471713 
L 97.972941 107.26396 
L 97.717829 108.055859 
L 97.462969 108.847408 
L 97.208362 109.63861 
L 96.954005 110.429463 
L 96.6999 111.219968 
L 96.446045 112.010127 
L 96.19244 112.799938 
L 95.939085 113.589403 
L 95.685979 114.378522 
L 95.433122 115.167294 
L 95.180513 115.955722 
L 94.928152 116.743804 
L 94.676038 117.531542 
L 94.424172 118.318935 
L 94.172552 119.105984 
L 93.921178 119.89269 
L 93.670051 120.679053 
L 93.419168 121.465072 
L 93.16853 122.250749 
L 92.918137 123.036084 
L 92.667988 123.821078 
L 92.418083 124.605729 
L 92.168421 125.39004 
L 91.919002 126.17401 
L 91.669825 126.95764 
L 91.42089 127.74093 
L 91.172197 128.52388 
L 90.923745 129.306491 
L 90.675533 130.088763 
L 90.427562 130.870696 
L 90.179831 131.652292 
L 89.93234 132.433549 
L 89.685087 133.214469 
L 89.438074 133.995052 
L 89.191298 134.775299 
L 88.944761 135.555208 
L 88.698461 136.334782 
L 88.452397 137.114021 
L 88.206571 137.892924 
L 87.960981 138.671492 
L 87.715627 139.449725 
L 87.470508 140.227624 
L 87.225624 141.00519 
L 86.980975 141.782422 
L 86.73656 142.55932 
L 86.492379 143.335886 
L 86.248432 144.11212 
L 86.004717 144.888021 
L 85.761236 145.663591 
L 85.517986 146.438829 
L 85.274969 147.213736 
L 85.032182 147.988313 
L 84.789627 148.762559 
L 84.547303 149.536475 
L 84.305209 150.310061 
L 84.063345 151.083319 
L 83.82171 151.856247 
L 83.580305 152.628847 
L 83.339128 153.401118 
L 83.098179 154.173062 
L 82.857459 154.944678 
L 82.616966 155.715967 
L 82.376701 156.486929 
L 82.136662 157.257564 
L 81.896849 158.027874 
L 81.657263 158.797857 
L 81.417902 159.567515 
L 81.178767 160.336848 
L 80.939857 161.105857 
L 80.701171 161.87454 
L 80.462709 162.6429 
L 80.224471 163.410936 
L 79.986456 164.178649 
L 79.748665 164.946038 
L 79.511096 165.713105 
L 79.273749 166.47985 
L 79.036625 167.246272 
L 78.799721 168.012373 
L 78.563039 168.778153 
L 78.326578 169.543611 
L 78.090337 170.308749 
L 77.854316 171.073567 
L 77.854316 171.073567 
" clip-path="url(#p12837002bd)" style="fill: none; stroke: #0000ff; stroke-width: 0.5; stroke-linecap: square"/>
   </g>
   <g id="line2d_5">
    <path d="M 102.868577 92.151128 
L 102.868577 92.151128 
L 102.92782 91.737979 
L 102.987093 91.324725 
L 103.046397 90.911367 
L 103.105732 90.497903 
L 103.165097 90.084335 
L 103.224494 89.670663 
L 103.283922 89.256885 
L 103.34338 88.843002 
L 103.40287 88.429014 
L 103.46239 88.014921 
L 103.521942 87.600723 
L 103.581524 87.18642 
L 103.641138 86.772011 
L 103.700783 86.357497 
L 103.760459 85.942878 
L 103.820166 85.528153 
L 103.879904 85.113322 
L 103.939674 84.698386 
L 103.999475 84.283344 
L 104.059307 83.868196 
L 104.119171 83.452942 
L 104.179065 83.037582 
L 104.238992 82.622116 
L 104.29895 82.206545 
L 104.358939 81.790867 
L 104.418959 81.375082 
L 104.479012 80.959192 
L 104.539095 80.543195 
L 104.599211 80.127091 
L 104.659357 79.710882 
L 104.719536 79.294565 
L 104.779746 78.878142 
L 104.839988 78.461612 
L 104.900262 78.044976 
L 104.960567 77.628232 
L 105.020904 77.211382 
L 105.081273 76.794424 
L 105.141674 76.37736 
L 105.202106 75.960188 
L 105.262571 75.54291 
L 105.323067 75.125524 
L 105.383595 74.70803 
L 105.444156 74.290429 
L 105.504748 73.872721 
L 105.565373 73.454905 
L 105.626029 73.036981 
L 105.686718 72.61895 
L 105.747439 72.200811 
L 105.808191 71.782564 
L 105.868977 71.364209 
L 105.929794 70.945747 
L 105.990644 70.527176 
L 106.051525 70.108497 
L 106.11244 69.689709 
L 106.173386 69.270814 
L 106.234365 68.85181 
L 106.295376 68.432698 
L 106.35642 68.013477 
L 106.417496 67.594148 
L 106.478605 67.17471 
L 106.539746 66.755163 
L 106.60092 66.335508 
L 106.662127 65.915743 
L 106.723366 65.49587 
L 106.784638 65.075888 
L 106.845942 64.655797 
L 106.907279 64.235596 
L 106.968649 63.815287 
L 107.030052 63.394868 
L 107.091487 62.974339 
L 107.152955 62.553702 
L 107.214457 62.132955 
L 107.275991 61.712098 
L 107.337558 61.291131 
L 107.399158 60.870055 
L 107.460791 60.448869 
L 107.522457 60.027574 
L 107.584156 59.606168 
L 107.645888 59.184652 
L 107.707653 58.763026 
L 107.769451 58.34129 
L 107.831283 57.919444 
L 107.893148 57.497488 
L 107.955046 57.075421 
L 108.016977 56.653243 
L 108.078942 56.230955 
L 108.14094 55.808557 
L 108.202971 55.386048 
L 108.265036 54.963428 
L 108.327134 54.540697 
L 108.389266 54.117856 
L 108.451431 53.694903 
L 108.51363 53.27184 
L 108.575862 52.848665 
L 108.638128 52.425379 
L 108.700428 52.001982 
L 108.762761 51.578473 
L 108.825128 51.154854 
L 108.887528 50.731122 
L 108.949963 50.307279 
L 109.012431 49.883325 
L 109.012431 49.883325 
" clip-path="url(#p12837002bd)" style="fill: none; stroke: #0000ff; stroke-width: 0.5; stroke-linecap: square"/>
   </g>
   <g id="line2d_6">
    <path d="M 102.868577 92.151128 
L 102.868577 92.151128 
L 103.44207 92.51473 
L 104.0153 92.878456 
L 104.588268 93.242307 
L 105.160975 93.606283 
L 105.733419 93.970383 
L 106.305602 94.334606 
L 106.877523 94.698954 
L 107.449182 95.063424 
L 108.02058 95.428018 
L 108.591716 95.792735 
L 109.16259 96.157574 
L 109.733203 96.522535 
L 110.303555 96.887619 
L 110.873646 97.252824 
L 111.443475 97.618151 
L 112.013044 97.983599 
L 112.582351 98.349169 
L 113.151397 98.714859 
L 113.720182 99.080669 
L 114.288707 99.4466 
L 114.85697 99.812651 
L 115.424973 100.178821 
L 115.992715 100.545111 
L 116.560197 100.91152 
L 117.127418 101.278049 
L 117.694379 101.644696 
L 118.26108 102.011461 
L 118.82752 102.378344 
L 119.3937 102.745346 
L 119.959619 103.112465 
L 120.525279 103.479702 
L 121.090679 103.847055 
L 121.655819 104.214526 
L 122.220699 104.582114 
L 122.785319 104.949817 
L 123.349679 105.317637 
L 123.91378 105.685573 
L 124.477622 106.053625 
L 125.041204 106.421792 
L 125.604526 106.790074 
L 126.167589 107.158471 
L 126.730393 107.526982 
L 127.292938 107.895608 
L 127.855223 108.264348 
L 128.41725 108.633203 
L 128.979018 109.00217 
L 129.540527 109.371251 
L 130.101777 109.740446 
L 130.662768 110.109753 
L 131.223501 110.479173 
L 131.783975 110.848705 
L 132.34419 111.218349 
L 132.904148 111.588105 
L 133.463846 111.957973 
L 134.023287 112.327952 
L 134.58247 112.698043 
L 135.141394 113.068244 
L 135.70006 113.438556 
L 136.258469 113.808979 
L 136.81662 114.179511 
L 137.374512 114.550154 
L 137.932148 114.920906 
L 138.489525 115.291768 
L 139.046645 115.662738 
L 139.603508 116.033818 
L 140.160113 116.405007 
L 140.716461 116.776304 
L 141.272552 117.147709 
L 141.828385 117.519222 
L 142.383962 117.890843 
L 142.939281 118.262571 
L 143.494344 118.634406 
L 144.04915 119.006349 
L 144.603699 119.378398 
L 145.157992 119.750554 
L 145.712028 120.122816 
L 146.265808 120.495184 
L 146.819331 120.867658 
L 147.372598 121.240237 
L 147.925609 121.612922 
L 148.478363 121.985711 
L 149.030862 122.358606 
L 149.583104 122.731605 
L 150.135091 123.104709 
L 150.686822 123.477916 
L 151.238297 123.851228 
L 151.789517 124.224643 
L 152.340481 124.598161 
L 152.891189 124.971783 
L 153.441643 125.345507 
L 153.991841 125.719334 
L 154.541784 126.093264 
L 155.091471 126.467296 
L 155.640904 126.84143 
L 156.190082 127.215665 
L 156.739005 127.590002 
L 157.287673 127.96444 
L 157.836086 128.33898 
L 158.384245 128.71362 
L 158.93215 129.08836 
L 159.4798 129.463201 
L 159.4798 129.463201 
" clip-path="url(#p12837002bd)" style="fill: none; stroke: #0000ff; stroke-width: 0.5; stroke-linecap: square"/>
   </g>
   <g id="line2d_7">
    <path d="M 77.854316 171.073567 
L 77.854316 171.073567 
L 77.501675 170.805245 
L 77.148918 170.536956 
L 76.796046 170.2687 
L 76.443059 170.000477 
L 76.089956 169.732286 
L 75.736738 169.464128 
L 75.383405 169.196003 
L 75.029956 168.927911 
L 74.676391 168.659852 
L 74.322711 168.391826 
L 73.968916 168.123834 
L 73.615004 167.855874 
L 73.260977 167.587948 
L 72.906835 167.320055 
L 72.552577 167.052196 
L 72.198203 166.78437 
L 71.843713 166.516577 
L 71.489107 166.248818 
L 71.134385 165.981093 
L 70.779548 165.713402 
L 70.424594 165.445744 
L 70.069525 165.178121 
L 69.714339 164.910531 
L 69.359038 164.642975 
L 69.00362 164.375453 
L 68.648087 164.107966 
L 68.292437 163.840512 
L 67.93667 163.573093 
L 67.580788 163.305708 
L 67.224789 163.038358 
L 66.868674 162.771042 
L 66.512443 162.50376 
L 66.156096 162.236513 
L 65.799631 161.969301 
L 65.443051 161.702124 
L 65.086354 161.434981 
L 64.72954 161.167873 
L 64.37261 160.9008 
L 64.015563 160.633762 
L 63.6584 160.366759 
L 63.30112 160.099791 
L 62.943723 159.832859 
L 62.58621 159.565961 
L 62.228579 159.299099 
L 61.870832 159.032273 
L 61.512968 158.765482 
L 61.154987 158.498726 
L 60.79689 158.232006 
L 60.438675 157.965321 
L 60.080343 157.698673 
L 59.721894 157.43206 
L 59.363329 157.165483 
L 59.004646 156.898941 
L 58.645846 156.632436 
L 58.286928 156.365967 
L 57.927894 156.099534 
L 57.568742 155.833137 
L 57.209473 155.566777 
L 56.850087 155.300453 
L 56.490583 155.034165 
L 56.130962 154.767913 
L 55.771224 154.501698 
L 55.411368 154.23552 
L 55.051395 153.969379 
L 54.691304 153.703274 
L 54.331095 153.437206 
L 53.970769 153.171174 
L 53.610326 152.90518 
L 53.249764 152.639223 
L 52.889085 152.373303 
L 52.528288 152.10742 
L 52.167374 151.841574 
L 51.806341 151.575765 
L 51.445191 151.309994 
L 51.083923 151.04426 
L 50.722537 150.778564 
L 50.361033 150.512905 
L 49.999411 150.247284 
L 49.637671 149.9817 
L 49.275813 149.716155 
L 48.913837 149.450647 
L 48.551743 149.185177 
L 48.189531 148.919745 
L 47.8272 148.654351 
L 47.464751 148.388995 
L 47.102184 148.123677 
L 46.739499 147.858398 
L 46.376695 147.593157 
L 46.013773 147.327954 
L 45.650733 147.062789 
L 45.287574 146.797664 
L 44.924297 146.532576 
L 44.560901 146.267528 
L 44.197387 146.002518 
L 43.833754 145.737547 
L 43.470002 145.472615 
L 43.106132 145.207722 
L 42.742144 144.942867 
L 42.378036 144.678052 
L 42.01381 144.413276 
L 41.649465 144.148539 
L 41.649465 144.148539 
" clip-path="url(#p12837002bd)" style="fill: none; stroke: #0000ff; stroke-width: 0.5; stroke-linecap: square"/>
   </g>
   <g id="line2d_8">
    <path d="M 77.854316 171.073567 
L 77.854316 171.073567 
L 78.642026 170.647095 
L 79.430144 170.220893 
L 80.218672 169.794962 
L 81.007609 169.369303 
L 81.796955 168.943915 
L 82.58671 168.518799 
L 83.376875 168.093957 
L 84.167449 167.669388 
L 84.958432 167.245093 
L 85.749824 166.821073 
L 86.541626 166.397329 
L 87.333838 165.97386 
L 88.126458 165.550668 
L 88.919488 165.127753 
L 89.712928 164.705116 
L 90.506777 164.282757 
L 91.301035 163.860677 
L 92.095703 163.438876 
L 92.890781 163.017356 
L 93.686268 162.596116 
L 94.482164 162.175157 
L 95.27847 161.75448 
L 96.075186 161.334086 
L 96.872311 160.913975 
L 97.669845 160.494147 
L 98.467789 160.074603 
L 99.266143 159.655345 
L 100.064906 159.236372 
L 100.864079 158.817684 
L 101.663661 158.399284 
L 102.463653 157.98117 
L 103.264054 157.563345 
L 104.064865 157.145807 
L 104.866086 156.728559 
L 105.667716 156.311601 
L 106.469756 155.894932 
L 107.272205 155.478555 
L 108.075064 155.062469 
L 108.878332 154.646675 
L 109.68201 154.231173 
L 110.486097 153.815965 
L 111.290594 153.40105 
L 112.095501 152.98643 
L 112.900816 152.572105 
L 113.706542 152.158076 
L 114.512677 151.744343 
L 115.319221 151.330907 
L 116.126174 150.917768 
L 116.933538 150.504927 
L 117.74131 150.092385 
L 118.549492 149.680142 
L 119.358083 149.2682 
L 120.167083 148.856557 
L 120.976493 148.445216 
L 121.786312 148.034177 
L 122.596541 147.623439 
L 123.407178 147.213005 
L 124.218225 146.802875 
L 125.029681 146.393048 
L 125.841546 145.983527 
L 126.653821 145.57431 
L 127.466504 145.1654 
L 128.279596 144.756796 
L 129.093098 144.3485 
L 129.907008 143.940512 
L 130.721328 143.532832 
L 131.536056 143.125461 
L 132.351193 142.7184 
L 133.166739 142.311649 
L 133.982694 141.905209 
L 134.799058 141.499081 
L 135.61583 141.093265 
L 136.433011 140.687761 
L 137.250601 140.282571 
L 138.068599 139.877696 
L 138.887006 139.473134 
L 139.705821 139.068889 
L 140.525045 138.664959 
L 141.344677 138.261345 
L 142.164718 137.858049 
L 142.985167 137.455071 
L 143.806024 137.05241 
L 144.627289 136.650069 
L 145.448963 136.248048 
L 146.271044 135.846347 
L 147.093534 135.444967 
L 147.916431 135.043908 
L 148.739737 134.643172 
L 149.56345 134.242758 
L 150.387571 133.842668 
L 151.2121 133.442902 
L 152.037037 133.04346 
L 152.862381 132.644344 
L 153.688133 132.245554 
L 154.514292 131.84709 
L 155.340858 131.448954 
L 156.167832 131.051145 
L 156.995213 130.653665 
L 157.823002 130.256514 
L 158.651197 129.859692 
L 159.4798 129.463201 
L 159.4798 129.463201 
" clip-path="url(#p12837002bd)" style="fill: none; stroke: #0000ff; stroke-width: 0.5; stroke-linecap: square"/>
   </g>
   <g id="line2d_9">
    <path d="M 77.854316 171.073567 
L 77.854316 171.073567 
L 77.81689 171.293828 
L 77.779474 171.514061 
L 77.742067 171.734265 
L 77.704671 171.954441 
L 77.667285 172.174589 
L 77.629908 172.394708 
L 77.592542 172.614798 
L 77.555186 172.834861 
L 77.51784 173.054894 
L 77.480503 173.274899 
L 77.443177 173.494876 
L 77.405861 173.714825 
L 77.368554 173.934745 
L 77.331258 174.154636 
L 77.293972 174.374499 
L 77.256695 174.594334 
L 77.219429 174.814141 
L 77.182172 175.033919 
L 77.144926 175.253668 
L 77.107689 175.47339 
L 77.070463 175.693083 
L 77.033246 175.912748 
L 76.996039 176.132384 
L 76.958842 176.351992 
L 76.921655 176.571572 
L 76.884478 176.791124 
L 76.847311 177.010647 
L 76.810154 177.230142 
L 76.773007 177.449609 
L 76.73587 177.669048 
L 76.698742 177.888458 
L 76.661625 178.10784 
L 76.624517 178.327194 
L 76.587419 178.54652 
L 76.550331 178.765818 
L 76.513253 178.985087 
L 76.476185 179.204328 
L 76.439126 179.423541 
L 76.402078 179.642726 
L 76.365039 179.861883 
L 76.328011 180.081012 
L 76.290992 180.300112 
L 76.253982 180.519184 
L 76.216983 180.738229 
L 76.179994 180.957245 
L 76.143014 181.176233 
L 76.106044 181.395193 
L 76.069084 181.614125 
L 76.032134 181.833029 
L 75.995194 182.051905 
L 75.958263 182.270753 
L 75.921342 182.489573 
L 75.884431 182.708364 
L 75.84753 182.927128 
L 75.810638 183.145864 
L 75.773757 183.364572 
L 75.736885 183.583252 
L 75.700023 183.801904 
L 75.66317 184.020528 
L 75.626328 184.239124 
L 75.589495 184.457692 
L 75.552672 184.676232 
L 75.515858 184.894744 
L 75.479055 185.113228 
L 75.442261 185.331685 
L 75.405476 185.550113 
L 75.368702 185.768514 
L 75.331937 185.986887 
L 75.295182 186.205232 
L 75.258437 186.423549 
L 75.221701 186.641838 
L 75.184975 186.860099 
L 75.148259 187.078333 
L 75.111552 187.296539 
L 75.074855 187.514717 
L 75.038168 187.732867 
L 75.001491 187.950989 
L 74.964823 188.169084 
L 74.928164 188.387151 
L 74.891516 188.60519 
L 74.854877 188.823201 
L 74.818248 189.041185 
L 74.781628 189.25914 
L 74.745018 189.477069 
L 74.708418 189.694969 
L 74.671827 189.912842 
L 74.635246 190.130687 
L 74.598675 190.348504 
L 74.562113 190.566294 
L 74.525561 190.784056 
L 74.489018 191.00179 
L 74.452485 191.219497 
L 74.415962 191.437176 
L 74.379448 191.654828 
L 74.342944 191.872452 
L 74.306449 192.090048 
L 74.269964 192.307617 
L 74.233489 192.525158 
L 74.197023 192.742672 
L 74.160566 192.960158 
L 74.12412 193.177616 
L 74.12412 193.177616 
" clip-path="url(#p12837002bd)" style="fill: none; stroke: #0000ff; stroke-width: 0.5; stroke-linecap: square"/>
   </g>
   <g id="line2d_10">
    <path d="M 77.854316 171.073567 
L 77.854316 171.073567 
L 78.387434 171.298874 
L 78.920406 171.524325 
L 79.453231 171.749919 
L 79.985909 171.975656 
L 80.518442 172.201535 
L 81.050828 172.427557 
L 81.583067 172.653722 
L 82.11516 172.880029 
L 82.647107 173.106478 
L 83.178906 173.333069 
L 83.71056 173.559802 
L 84.242066 173.786676 
L 84.773426 174.013692 
L 85.304639 174.24085 
L 85.835705 174.468149 
L 86.366625 174.695589 
L 86.897397 174.92317 
L 87.428023 175.150892 
L 87.958502 175.378754 
L 88.488834 175.606757 
L 89.019019 175.8349 
L 89.549057 176.063184 
L 90.078947 176.291608 
L 90.608691 176.520172 
L 91.138288 176.748875 
L 91.667737 176.977718 
L 92.19704 177.206701 
L 92.726195 177.435823 
L 93.255202 177.665084 
L 93.784063 177.894484 
L 94.312776 178.124023 
L 94.841342 178.353701 
L 95.36976 178.583518 
L 95.898031 178.813473 
L 96.426154 179.043566 
L 96.95413 179.273798 
L 97.481959 179.504167 
L 98.00964 179.734675 
L 98.537173 179.96532 
L 99.064559 180.196103 
L 99.591797 180.427023 
L 100.118887 180.65808 
L 100.64583 180.889275 
L 101.172625 181.120607 
L 101.699272 181.352075 
L 102.225771 181.583681 
L 102.752122 181.815422 
L 103.278326 182.047301 
L 103.804382 182.279315 
L 104.330289 182.511466 
L 104.856049 182.743752 
L 105.381661 182.976175 
L 105.907124 183.208733 
L 106.43244 183.441427 
L 106.957608 183.674256 
L 107.482627 183.90722 
L 108.007498 184.140319 
L 108.532222 184.373554 
L 109.056797 184.606923 
L 109.581223 184.840427 
L 110.105502 185.074065 
L 110.629632 185.307838 
L 111.153614 185.541745 
L 111.677447 185.775786 
L 112.201132 186.009961 
L 112.724669 186.244269 
L 113.248058 186.478712 
L 113.771297 186.713288 
L 114.294389 186.947997 
L 114.817332 187.182839 
L 115.340126 187.417815 
L 115.862772 187.652923 
L 116.385269 187.888164 
L 116.907618 188.123538 
L 117.429818 188.359045 
L 117.951869 188.594683 
L 118.473772 188.830454 
L 118.995526 189.066357 
L 119.517131 189.302392 
L 120.038587 189.538558 
L 120.559895 189.774856 
L 121.081054 190.011286 
L 121.602064 190.247847 
L 122.122925 190.484539 
L 122.643637 190.721362 
L 123.1642 190.958316 
L 123.684615 191.195401 
L 124.20488 191.432616 
L 124.724997 191.669962 
L 125.244964 191.907438 
L 125.764783 192.145044 
L 126.284452 192.38278 
L 126.803972 192.620646 
L 127.323343 192.858642 
L 127.842566 193.096768 
L 128.361638 193.335023 
L 128.880562 193.573407 
L 129.399337 193.81192 
L 129.917962 194.050562 
L 130.436438 194.289333 
L 130.954765 194.528233 
L 130.954765 194.528233 
" clip-path="url(#p12837002bd)" style="fill: none; stroke: #0000ff; stroke-width: 0.5; stroke-linecap: square"/>
   </g>
   <g id="line2d_11">
    <path d="M 109.012431 49.883325 
L 109.012431 49.883325 
L 109.768482 50.242056 
L 110.524186 50.601071 
L 111.279544 50.960371 
L 112.034555 51.319954 
L 112.78922 51.67982 
L 113.543539 52.039969 
L 114.297511 52.4004 
L 115.051136 52.761112 
L 115.804415 53.122106 
L 116.557347 53.48338 
L 117.309932 53.844934 
L 118.06217 54.206768 
L 118.814061 54.568881 
L 119.565605 54.931273 
L 120.316801 55.293942 
L 121.067651 55.656889 
L 121.818153 56.020114 
L 122.568309 56.383615 
L 123.318116 56.747392 
L 124.067577 57.111444 
L 124.81669 57.475772 
L 125.565455 57.840375 
L 126.313873 58.205251 
L 127.061943 58.570401 
L 127.809665 58.935825 
L 128.55704 59.301521 
L 129.304067 59.667489 
L 130.050746 60.033728 
L 130.797077 60.400239 
L 131.54306 60.767021 
L 132.288696 61.134073 
L 133.033983 61.501394 
L 133.778922 61.868985 
L 134.523513 62.236845 
L 135.267756 62.604972 
L 136.01165 62.973368 
L 136.755197 63.34203 
L 137.498395 63.71096 
L 138.241245 64.080156 
L 138.983746 64.449617 
L 139.725899 64.819344 
L 140.467703 65.189335 
L 141.209159 65.559591 
L 141.950266 65.930111 
L 142.691025 66.300894 
L 143.431435 66.67194 
L 144.171497 67.043248 
L 144.911209 67.414818 
L 145.650573 67.78665 
L 146.389589 68.158742 
L 147.128255 68.531095 
L 147.866573 68.903708 
L 148.604542 69.27658 
L 149.342161 69.649712 
L 150.079432 70.023101 
L 150.816354 70.396749 
L 151.552928 70.770654 
L 152.289152 71.144817 
L 153.025027 71.519236 
L 153.760553 71.89391 
L 154.49573 72.268841 
L 155.230557 72.644027 
L 155.965036 73.019467 
L 156.699166 73.395161 
L 157.432946 73.771109 
L 158.166377 74.147311 
L 158.899459 74.523765 
L 159.632192 74.900471 
L 160.364575 75.277429 
L 161.096609 75.654638 
L 161.828294 76.032098 
L 162.55963 76.409808 
L 163.290616 76.787769 
L 164.021253 77.165978 
L 164.751541 77.544437 
L 165.481479 77.923143 
L 166.211068 78.302098 
L 166.940308 78.681301 
L 167.669198 79.06075 
L 168.397738 79.440446 
L 169.12593 79.820387 
L 169.853771 80.200575 
L 170.581264 80.581007 
L 171.308407 80.961684 
L 172.0352 81.342605 
L 172.761644 81.72377 
L 173.487739 82.105178 
L 174.213484 82.486829 
L 174.93888 82.868722 
L 175.663926 83.250857 
L 176.388622 83.633233 
L 177.11297 84.01585 
L 177.836967 84.398708 
L 178.560615 84.781805 
L 179.283914 85.165142 
L 180.006863 85.548717 
L 180.729463 85.932532 
L 181.451713 86.316584 
L 182.173614 86.700874 
L 182.895166 87.085401 
L 183.616367 87.470164 
L 183.616367 87.470164 
" clip-path="url(#p12837002bd)" style="fill: none; stroke: #0000ff; stroke-width: 0.5; stroke-linecap: square"/>
   </g>
   <g id="line2d_12">
    <path d="M 109.012431 49.883325 
L 109.012431 49.883325 
L 108.731321 50.052671 
L 108.450271 50.222049 
L 108.169282 50.391461 
L 107.888354 50.560904 
L 107.607487 50.73038 
L 107.32668 50.899888 
L 107.045934 51.069428 
L 106.765249 51.239001 
L 106.484625 51.408606 
L 106.204061 51.578243 
L 105.923559 51.747912 
L 105.643116 51.917613 
L 105.362735 52.087347 
L 105.082414 52.257112 
L 104.802154 52.42691 
L 104.521955 52.59674 
L 104.241816 52.766601 
L 103.961738 52.936495 
L 103.681721 53.10642 
L 103.401764 53.276378 
L 103.121868 53.446367 
L 102.842033 53.616388 
L 102.562258 53.786441 
L 102.282544 53.956526 
L 102.002891 54.126642 
L 101.723298 54.29679 
L 101.443766 54.46697 
L 101.164294 54.637182 
L 100.884883 54.807425 
L 100.605533 54.977699 
L 100.326244 55.148006 
L 100.047015 55.318343 
L 99.767846 55.488713 
L 99.488738 55.659113 
L 99.209691 55.829545 
L 98.930705 56.000009 
L 98.651778 56.170504 
L 98.372913 56.34103 
L 98.094108 56.511588 
L 97.815364 56.682177 
L 97.53668 56.852797 
L 97.258057 57.023448 
L 96.979494 57.194131 
L 96.700992 57.364845 
L 96.42255 57.53559 
L 96.144169 57.706366 
L 95.865848 57.877173 
L 95.587588 58.048011 
L 95.309389 58.21888 
L 95.03125 58.38978 
L 94.753171 58.560711 
L 94.475153 58.731673 
L 94.197196 58.902666 
L 93.919298 59.07369 
L 93.641462 59.244745 
L 93.363686 59.41583 
L 93.08597 59.586946 
L 92.808315 59.758093 
L 92.53072 59.929271 
L 92.253186 60.100479 
L 91.975712 60.271718 
L 91.698298 60.442988 
L 91.420945 60.614288 
L 91.143653 60.785619 
L 90.86642 60.95698 
L 90.589248 61.128372 
L 90.312137 61.299794 
L 90.035086 61.471247 
L 89.758095 61.64273 
L 89.481165 61.814244 
L 89.204295 61.985788 
L 88.927486 62.157362 
L 88.650737 62.328967 
L 88.374048 62.500601 
L 88.097419 62.672267 
L 87.820851 62.843962 
L 87.544344 63.015687 
L 87.267896 63.187443 
L 86.991509 63.359229 
L 86.715182 63.531044 
L 86.438916 63.70289 
L 86.16271 63.874766 
L 85.886564 64.046672 
L 85.610478 64.218608 
L 85.334453 64.390574 
L 85.058488 64.56257 
L 84.782584 64.734595 
L 84.506739 64.906651 
L 84.230955 65.078736 
L 83.955231 65.250851 
L 83.679567 65.422996 
L 83.403964 65.595171 
L 83.128421 65.767375 
L 82.852938 65.939609 
L 82.577515 66.111873 
L 82.302153 66.284166 
L 82.02685 66.456489 
L 81.751608 66.628841 
L 81.476426 66.801223 
L 81.201305 66.973635 
L 80.926243 67.146076 
L 80.926243 67.146076 
" clip-path="url(#p12837002bd)" style="fill: none; stroke: #0000ff; stroke-width: 0.5; stroke-linecap: square"/>
   </g>
   <g id="line2d_13">
    <path d="M 46.037932 48.035611 
L 46.037932 48.035611 
L 46.387522 48.222098 
L 46.73703 48.40864 
L 47.086454 48.595239 
L 47.435795 48.781895 
L 47.785053 48.968606 
L 48.134227 49.155373 
L 48.483319 49.342197 
L 48.832326 49.529076 
L 49.181251 49.716011 
L 49.530092 49.903002 
L 49.87885 50.090049 
L 50.227525 50.277152 
L 50.576117 50.46431 
L 50.924625 50.651524 
L 51.27305 50.838794 
L 51.621392 51.026119 
L 51.96965 51.2135 
L 52.317825 51.400936 
L 52.665917 51.588427 
L 53.013926 51.775974 
L 53.361851 51.963576 
L 53.709693 52.151233 
L 54.057452 52.338946 
L 54.405128 52.526713 
L 54.75272 52.714536 
L 55.100229 52.902413 
L 55.447655 53.090346 
L 55.794997 53.278333 
L 56.142256 53.466375 
L 56.489432 53.654472 
L 56.836525 53.842624 
L 57.183535 54.030831 
L 57.530461 54.219092 
L 57.877304 54.407407 
L 58.224064 54.595777 
L 58.57074 54.784202 
L 58.917333 54.972681 
L 59.263843 55.161214 
L 59.61027 55.349802 
L 59.956614 55.538444 
L 60.302874 55.72714 
L 60.649051 55.91589 
L 60.995145 56.104694 
L 61.341155 56.293553 
L 61.687082 56.482465 
L 62.032927 56.671431 
L 62.378687 56.860452 
L 62.724365 57.049525 
L 63.069959 57.238653 
L 63.415471 57.427835 
L 63.760899 57.61707 
L 64.106243 57.806358 
L 64.451505 57.995701 
L 64.796683 58.185096 
L 65.141778 58.374546 
L 65.48679 58.564048 
L 65.831719 58.753604 
L 66.176564 58.943214 
L 66.521326 59.132876 
L 66.866005 59.322592 
L 67.210601 59.51236 
L 67.555114 59.702182 
L 67.899543 59.892057 
L 68.24389 60.081985 
L 68.588153 60.271966 
L 68.932333 60.462 
L 69.276429 60.652086 
L 69.620443 60.842225 
L 69.964373 61.032417 
L 70.30822 61.222662 
L 70.651984 61.412959 
L 70.995665 61.603309 
L 71.339263 61.793711 
L 71.682777 61.984166 
L 72.026208 62.174673 
L 72.369557 62.365232 
L 72.712822 62.555844 
L 73.056003 62.746508 
L 73.399102 62.937224 
L 73.742118 63.127992 
L 74.08505 63.318813 
L 74.427899 63.509685 
L 74.770665 63.70061 
L 75.113348 63.891586 
L 75.455948 64.082614 
L 75.798465 64.273694 
L 76.140899 64.464826 
L 76.483249 64.656009 
L 76.825517 64.847244 
L 77.167701 65.038531 
L 77.509802 65.229869 
L 77.85182 65.421259 
L 78.193755 65.6127 
L 78.535607 65.804193 
L 78.877375 65.995737 
L 79.219061 66.187332 
L 79.560664 66.378978 
L 79.902183 66.570676 
L 80.24362 66.762425 
L 80.584973 66.954225 
L 80.926243 67.146076 
L 80.926243 67.146076 
" clip-path="url(#p12837002bd)" style="fill: none; stroke: #0000ff; stroke-width: 0.5; stroke-linecap: square"/>
   </g>
   <g id="line2d_14">
    <path d="M 46.037932 48.035611 
L 46.037932 48.035611 
L 46.099428 48.800325 
L 46.160864 49.56467 
L 46.222241 50.328646 
L 46.283558 51.092254 
L 46.344815 51.855494 
L 46.406012 52.618367 
L 46.46715 53.380873 
L 46.528228 54.143013 
L 46.589247 54.904787 
L 46.650207 55.666196 
L 46.711108 56.42724 
L 46.77195 57.187919 
L 46.832733 57.948234 
L 46.893457 58.708186 
L 46.954123 59.467774 
L 47.01473 60.226999 
L 47.075278 60.985863 
L 47.135769 61.744364 
L 47.1962 62.502504 
L 47.256574 63.260283 
L 47.31689 64.017702 
L 47.377147 64.77476 
L 47.437347 65.531459 
L 47.497489 66.287799 
L 47.557573 67.04378 
L 47.617599 67.799402 
L 47.677569 68.554667 
L 47.73748 69.309574 
L 47.797335 70.064124 
L 47.857132 70.818318 
L 47.916872 71.572155 
L 47.976555 72.325637 
L 48.036181 73.078763 
L 48.095751 73.831535 
L 48.155263 74.583952 
L 48.21472 75.336015 
L 48.274119 76.087724 
L 48.333462 76.839081 
L 48.392749 77.590085 
L 48.45198 78.340736 
L 48.511154 79.091036 
L 48.570272 79.840984 
L 48.629335 80.590581 
L 48.688341 81.339828 
L 48.747292 82.088724 
L 48.806187 82.837271 
L 48.865027 83.585469 
L 48.923811 84.333317 
L 48.98254 85.080817 
L 49.041213 85.827969 
L 49.099831 86.574774 
L 49.158394 87.321231 
L 49.216902 88.067342 
L 49.275355 88.813106 
L 49.333754 89.558524 
L 49.392097 90.303597 
L 49.450386 91.048324 
L 49.508621 91.792707 
L 49.566801 92.536746 
L 49.624926 93.280441 
L 49.682997 94.023792 
L 49.741015 94.7668 
L 49.798978 95.509466 
L 49.856887 96.251789 
L 49.914742 96.993771 
L 49.972543 97.735411 
L 50.03029 98.476711 
L 50.087984 99.217669 
L 50.145625 99.958288 
L 50.203211 100.698567 
L 50.260745 101.438506 
L 50.318225 102.178107 
L 50.375652 102.917369 
L 50.433026 103.656293 
L 50.490347 104.394879 
L 50.547615 105.133128 
L 50.60483 105.871039 
L 50.661992 106.608615 
L 50.719101 107.345854 
L 50.776158 108.082758 
L 50.833163 108.819326 
L 50.890115 109.555559 
L 50.947015 110.291458 
L 51.003862 111.027023 
L 51.060658 111.762254 
L 51.117401 112.497152 
L 51.174093 113.231717 
L 51.230732 113.965949 
L 51.28732 114.699849 
L 51.343856 115.433417 
L 51.40034 116.166655 
L 51.456773 116.899561 
L 51.513154 117.632136 
L 51.569484 118.364382 
L 51.625763 119.096297 
L 51.68199 119.827884 
L 51.738166 120.559141 
L 51.794292 121.29007 
L 51.850366 122.02067 
L 51.906389 122.750943 
L 51.962362 123.480888 
L 51.962362 123.480888 
" clip-path="url(#p12837002bd)" style="fill: none; stroke: #0000ff; stroke-width: 0.5; stroke-linecap: square"/>
   </g>
   <g id="line2d_15">
    <path d="M 183.616367 87.470164 
L 183.616367 87.470164 
L 183.371097 87.889524 
L 183.125957 88.308813 
L 182.880945 88.728029 
L 182.636063 89.147173 
L 182.39131 89.566244 
L 182.146686 89.985244 
L 181.902191 90.404172 
L 181.657825 90.823028 
L 181.413587 91.241812 
L 181.169478 91.660523 
L 180.925497 92.079163 
L 180.681645 92.497731 
L 180.437921 92.916226 
L 180.194326 93.33465 
L 179.950858 93.753002 
L 179.707518 94.171281 
L 179.464306 94.589489 
L 179.221221 95.007625 
L 178.978265 95.425689 
L 178.735435 95.843681 
L 178.492733 96.261601 
L 178.250159 96.679449 
L 178.007711 97.097225 
L 177.765391 97.51493 
L 177.523197 97.932562 
L 177.281131 98.350123 
L 177.039191 98.767612 
L 176.797377 99.185029 
L 176.55569 99.602374 
L 176.31413 100.019647 
L 176.072696 100.436849 
L 175.831388 100.853979 
L 175.590206 101.271036 
L 175.34915 101.688023 
L 175.10822 102.104937 
L 174.867415 102.52178 
L 174.626737 102.938551 
L 174.386183 103.35525 
L 174.145756 103.771877 
L 173.905453 104.188433 
L 173.665276 104.604917 
L 173.425224 105.021329 
L 173.185297 105.43767 
L 172.945495 105.853939 
L 172.705817 106.270136 
L 172.466264 106.686262 
L 172.226836 107.102316 
L 171.987532 107.518299 
L 171.748353 107.93421 
L 171.509298 108.350049 
L 171.270367 108.765817 
L 171.03156 109.181513 
L 170.792877 109.597137 
L 170.554318 110.01269 
L 170.315883 110.428172 
L 170.077571 110.843582 
L 169.839383 111.25892 
L 169.601318 111.674187 
L 169.363376 112.089382 
L 169.125558 112.504506 
L 168.887863 112.919559 
L 168.65029 113.33454 
L 168.412841 113.74945 
L 168.175514 114.164288 
L 167.93831 114.579055 
L 167.701229 114.99375 
L 167.46427 115.408374 
L 167.227434 115.822926 
L 166.99072 116.237408 
L 166.754127 116.651818 
L 166.517657 117.066156 
L 166.281309 117.480423 
L 166.045083 117.894619 
L 165.808979 118.308744 
L 165.572996 118.722797 
L 165.337134 119.136779 
L 165.101395 119.55069 
L 164.865776 119.964529 
L 164.630279 120.378298 
L 164.394902 120.791995 
L 164.159647 121.20562 
L 163.924513 121.619175 
L 163.689499 122.032658 
L 163.454607 122.446071 
L 163.219835 122.859412 
L 162.985183 123.272682 
L 162.750652 123.68588 
L 162.516241 124.099008 
L 162.28195 124.512065 
L 162.047779 124.92505 
L 161.813729 125.337964 
L 161.579798 125.750808 
L 161.345987 126.16358 
L 161.112296 126.576281 
L 160.878724 126.988911 
L 160.645272 127.40147 
L 160.411939 127.813958 
L 160.178726 128.226376 
L 159.945631 128.638722 
L 159.712656 129.050997 
L 159.4798 129.463201 
L 159.4798 129.463201 
" clip-path="url(#p12837002bd)" style="fill: none; stroke: #0000ff; stroke-width: 0.5; stroke-linecap: square"/>
   </g>
   <g id="line2d_16">
    <path d="M 141.267662 237.837327 
L 141.267662 237.837327 
L 141.168127 237.413611 
L 141.068541 236.989795 
L 140.968906 236.56588 
L 140.869221 236.141864 
L 140.769486 235.717749 
L 140.6697 235.293535 
L 140.569865 234.86922 
L 140.469979 234.444806 
L 140.370044 234.020291 
L 140.270058 233.595676 
L 140.170022 233.170961 
L 140.069935 232.746146 
L 139.969798 232.321231 
L 139.869611 231.896215 
L 139.769373 231.471099 
L 139.669085 231.045882 
L 139.568746 230.620565 
L 139.468356 230.195148 
L 139.367916 229.769629 
L 139.267425 229.34401 
L 139.166884 228.91829 
L 139.066291 228.492469 
L 138.965648 228.066547 
L 138.864954 227.640525 
L 138.764209 227.214401 
L 138.663412 226.788176 
L 138.562565 226.36185 
L 138.461667 225.935422 
L 138.360718 225.508893 
L 138.259717 225.082263 
L 138.158665 224.655532 
L 138.057562 224.228698 
L 137.956408 223.801764 
L 137.855202 223.374727 
L 137.753945 222.947589 
L 137.652636 222.520349 
L 137.551276 222.093008 
L 137.449864 221.665564 
L 137.3484 221.238018 
L 137.246885 220.810371 
L 137.145318 220.382621 
L 137.0437 219.954769 
L 136.942029 219.526815 
L 136.840307 219.098758 
L 136.738533 218.670599 
L 136.636706 218.242338 
L 136.534828 217.813974 
L 136.432898 217.385508 
L 136.330916 216.956939 
L 136.228881 216.528267 
L 136.126794 216.099492 
L 136.024655 215.670615 
L 135.922464 215.241634 
L 135.82022 214.812551 
L 135.717924 214.383365 
L 135.615575 213.954075 
L 135.513174 213.524683 
L 135.41072 213.095187 
L 135.308214 212.665587 
L 135.205655 212.235885 
L 135.103043 211.806079 
L 135.000379 211.376169 
L 134.897661 210.946156 
L 134.794891 210.516039 
L 134.692068 210.085819 
L 134.589192 209.655494 
L 134.486263 209.225066 
L 134.383281 208.794534 
L 134.280246 208.363898 
L 134.177157 207.933158 
L 134.074016 207.502314 
L 133.970821 207.071365 
L 133.867573 206.640313 
L 133.764271 206.209156 
L 133.660916 205.777894 
L 133.557508 205.346529 
L 133.454046 204.915058 
L 133.35053 204.483483 
L 133.246961 204.051804 
L 133.143338 203.620019 
L 133.039661 203.18813 
L 132.935931 202.756136 
L 132.832146 202.324037 
L 132.728308 201.891833 
L 132.624416 201.459524 
L 132.52047 201.02711 
L 132.41647 200.59459 
L 132.312416 200.161966 
L 132.208308 199.729236 
L 132.104145 199.2964 
L 131.999928 198.863459 
L 131.895657 198.430413 
L 131.791332 197.997261 
L 131.686952 197.564003 
L 131.582518 197.130639 
L 131.478029 196.69717 
L 131.373485 196.263595 
L 131.268887 195.829914 
L 131.164235 195.396126 
L 131.059527 194.962233 
L 130.954765 194.528233 
L 130.954765 194.528233 
" clip-path="url(#p12837002bd)" style="fill: none; stroke: #0000ff; stroke-width: 0.5; stroke-linecap: square"/>
   </g>
   <g id="line2d_17">
    <path d="M 141.267662 237.837327 
L 141.267662 237.837327 
L 140.930406 237.752516 
L 140.593115 237.667769 
L 140.255791 237.583084 
L 139.918433 237.498464 
L 139.581041 237.413906 
L 139.243616 237.329413 
L 138.906157 237.244982 
L 138.568664 237.160616 
L 138.231137 237.076312 
L 137.893577 236.992073 
L 137.555984 236.907897 
L 137.218356 236.823784 
L 136.880696 236.739735 
L 136.543001 236.65575 
L 136.205274 236.571829 
L 135.867512 236.487971 
L 135.529717 236.404177 
L 135.191889 236.320446 
L 134.854028 236.23678 
L 134.516132 236.153177 
L 134.178204 236.069638 
L 133.840242 235.986163 
L 133.502247 235.902752 
L 133.164218 235.819404 
L 132.826157 235.73612 
L 132.488061 235.652901 
L 132.149933 235.569745 
L 131.811771 235.486653 
L 131.473577 235.403626 
L 131.135349 235.320662 
L 130.797087 235.237762 
L 130.458793 235.154927 
L 130.120465 235.072155 
L 129.782105 234.989447 
L 129.443711 234.906804 
L 129.105284 234.824225 
L 128.766824 234.74171 
L 128.428331 234.659259 
L 128.089805 234.576872 
L 127.751247 234.49455 
L 127.412655 234.412291 
L 127.07403 234.330097 
L 126.735372 234.247968 
L 126.396681 234.165902 
L 126.057958 234.083901 
L 125.719201 234.001965 
L 125.380412 233.920093 
L 125.04159 233.838285 
L 124.702735 233.756541 
L 124.363848 233.674862 
L 124.024927 233.593248 
L 123.685974 233.511698 
L 123.346988 233.430212 
L 123.00797 233.348791 
L 122.668918 233.267435 
L 122.329834 233.186143 
L 121.990718 233.104916 
L 121.651569 233.023753 
L 121.312387 232.942655 
L 120.973173 232.861622 
L 120.633926 232.780653 
L 120.294647 232.699749 
L 119.955335 232.61891 
L 119.615991 232.538135 
L 119.276614 232.457426 
L 118.937205 232.376781 
L 118.597763 232.296201 
L 118.258289 232.215685 
L 117.918783 232.135235 
L 117.579244 232.05485 
L 117.239673 231.974529 
L 116.90007 231.894273 
L 116.560434 231.814083 
L 116.220766 231.733957 
L 115.881066 231.653896 
L 115.541334 231.5739 
L 115.20157 231.49397 
L 114.861773 231.414104 
L 114.521944 231.334303 
L 114.182083 231.254568 
L 113.84219 231.174898 
L 113.502265 231.095292 
L 113.162308 231.015752 
L 112.822318 230.936277 
L 112.482297 230.856868 
L 112.142244 230.777523 
L 111.802159 230.698244 
L 111.462042 230.61903 
L 111.121892 230.539881 
L 110.781711 230.460798 
L 110.441499 230.38178 
L 110.101254 230.302827 
L 109.760977 230.22394 
L 109.420669 230.145118 
L 109.080329 230.066362 
L 108.739957 229.987671 
L 108.399553 229.909045 
L 108.059117 229.830485 
L 107.71865 229.751991 
L 107.378151 229.673562 
L 107.037621 229.595198 
L 107.037621 229.595198 
" clip-path="url(#p12837002bd)" style="fill: none; stroke: #0000ff; stroke-width: 0.5; stroke-linecap: square"/>
   </g>
   <g id="line2d_18">
    <path d="M 107.037621 229.595198 
L 107.037621 229.595198 
L 106.849829 229.486148 
L 106.662013 229.377112 
L 106.474173 229.26809 
L 106.286308 229.159081 
L 106.098419 229.050087 
L 105.910506 228.941107 
L 105.722569 228.832141 
L 105.534607 228.72319 
L 105.346621 228.614252 
L 105.158611 228.505328 
L 104.970576 228.396418 
L 104.782517 228.287523 
L 104.594434 228.178642 
L 104.406326 228.069774 
L 104.218194 227.960921 
L 104.030038 227.852082 
L 103.841858 227.743258 
L 103.653653 227.634447 
L 103.465424 227.525651 
L 103.27717 227.416868 
L 103.088892 227.3081 
L 102.90059 227.199346 
L 102.712264 227.090607 
L 102.523913 226.981881 
L 102.335538 226.87317 
L 102.147139 226.764473 
L 101.958715 226.65579 
L 101.770267 226.547121 
L 101.581795 226.438467 
L 101.393298 226.329827 
L 101.204777 226.221201 
L 101.016232 226.11259 
L 100.827662 226.003992 
L 100.639068 225.895409 
L 100.45045 225.786841 
L 100.261808 225.678286 
L 100.073141 225.569746 
L 99.884449 225.46122 
L 99.695734 225.352709 
L 99.506994 225.244212 
L 99.318229 225.135729 
L 99.129441 225.027261 
L 98.940628 224.918807 
L 98.75179 224.810367 
L 98.562929 224.701942 
L 98.374043 224.593531 
L 98.185132 224.485135 
L 97.996198 224.376752 
L 97.807239 224.268385 
L 97.618255 224.160031 
L 97.429248 224.051693 
L 97.240215 223.943368 
L 97.051159 223.835058 
L 96.862078 223.726763 
L 96.672973 223.618482 
L 96.483844 223.510215 
L 96.29469 223.401963 
L 96.105511 223.293725 
L 95.916309 223.185502 
L 95.727082 223.077293 
L 95.537831 222.969099 
L 95.348555 222.86092 
L 95.159255 222.752754 
L 94.969931 222.644604 
L 94.780582 222.536468 
L 94.591209 222.428346 
L 94.401811 222.320239 
L 94.212389 222.212147 
L 94.022943 222.104069 
L 93.833472 221.996006 
L 93.643977 221.887957 
L 93.454458 221.779923 
L 93.264914 221.671904 
L 93.075346 221.563899 
L 92.885754 221.455909 
L 92.696137 221.347933 
L 92.506496 221.239972 
L 92.31683 221.132026 
L 92.12714 221.024094 
L 91.937426 220.916177 
L 91.747687 220.808275 
L 91.557924 220.700387 
L 91.368136 220.592514 
L 91.178324 220.484656 
L 90.988488 220.376812 
L 90.798627 220.268983 
L 90.608742 220.161169 
L 90.418833 220.05337 
L 90.228899 219.945585 
L 90.038941 219.837815 
L 89.848958 219.73006 
L 89.658951 219.622319 
L 89.46892 219.514594 
L 89.278864 219.406883 
L 89.088784 219.299186 
L 88.898679 219.191505 
L 88.70855 219.083839 
L 88.518397 218.976187 
L 88.328219 218.86855 
L 88.138017 218.760928 
L 87.94779 218.65332 
L 87.94779 218.65332 
" clip-path="url(#p12837002bd)" style="fill: none; stroke: #0000ff; stroke-width: 0.5; stroke-linecap: square"/>
   </g>
   <g id="line2d_19">
    <path d="M 130.954765 194.528233 
L 130.954765 194.528233 
L 131.22632 193.894073 
L 131.498082 193.259716 
L 131.770052 192.625162 
L 132.04223 191.990412 
L 132.314617 191.355465 
L 132.587213 190.720321 
L 132.860018 190.08498 
L 133.133032 189.449442 
L 133.406256 188.813706 
L 133.67969 188.177773 
L 133.953335 187.541642 
L 134.22719 186.905313 
L 134.501255 186.268787 
L 134.775533 185.632063 
L 135.050021 184.99514 
L 135.324721 184.358019 
L 135.599633 183.720699 
L 135.874758 183.083181 
L 136.150095 182.445465 
L 136.425645 181.807549 
L 136.701408 181.169434 
L 136.977385 180.531121 
L 137.253576 179.892607 
L 137.52998 179.253895 
L 137.806599 178.614983 
L 138.083432 177.975871 
L 138.360481 177.336559 
L 138.637744 176.697048 
L 138.915224 176.057336 
L 139.192919 175.417424 
L 139.47083 174.777312 
L 139.748957 174.136999 
L 140.027301 173.496485 
L 140.305863 172.855771 
L 140.584641 172.214856 
L 140.863637 171.573739 
L 141.142851 170.932422 
L 141.422283 170.290903 
L 141.701934 169.649182 
L 141.981804 169.00726 
L 142.261892 168.365136 
L 142.5422 167.72281 
L 142.822728 167.080282 
L 143.103476 166.437552 
L 143.384443 165.79462 
L 143.665632 165.151485 
L 143.947041 164.508147 
L 144.228672 163.864607 
L 144.510524 163.220864 
L 144.792598 162.576918 
L 145.074894 161.932769 
L 145.357413 161.288416 
L 145.640154 160.64386 
L 145.923119 159.9991 
L 146.206306 159.354137 
L 146.489718 158.70897 
L 146.773353 158.063599 
L 147.057212 157.418023 
L 147.341297 156.772244 
L 147.625606 156.12626 
L 147.91014 155.480071 
L 148.1949 154.833678 
L 148.479885 154.18708 
L 148.765097 153.540276 
L 149.050535 152.893268 
L 149.3362 152.246055 
L 149.622092 151.598636 
L 149.908211 150.951012 
L 150.194558 150.303182 
L 150.481133 149.655146 
L 150.767937 149.006904 
L 151.054969 148.358456 
L 151.34223 147.709802 
L 151.62972 147.060942 
L 151.91744 146.411875 
L 152.20539 145.762602 
L 152.49357 145.113121 
L 152.78198 144.463434 
L 153.070622 143.81354 
L 153.359495 143.163438 
L 153.648599 142.51313 
L 153.937935 141.862613 
L 154.227503 141.21189 
L 154.517304 140.560958 
L 154.807337 139.909818 
L 155.097604 139.258471 
L 155.388104 138.606915 
L 155.678838 137.955151 
L 155.969806 137.303179 
L 156.261008 136.650998 
L 156.552445 135.998608 
L 156.844117 135.34601 
L 157.136025 134.693202 
L 157.428168 134.040185 
L 157.720548 133.386959 
L 158.013163 132.733524 
L 158.306016 132.079879 
L 158.599106 131.426025 
L 158.892432 130.77196 
L 159.185997 130.117686 
L 159.4798 129.463201 
L 159.4798 129.463201 
" clip-path="url(#p12837002bd)" style="fill: none; stroke: #0000ff; stroke-width: 0.5; stroke-linecap: square"/>
   </g>
   <g id="line2d_20">
    <path d="M 130.954765 194.528233 
L 130.954765 194.528233 
L 130.522849 194.763254 
L 130.091056 194.998354 
L 129.659385 195.233534 
L 129.227836 195.468793 
L 128.796409 195.704133 
L 128.365105 195.939552 
L 127.933923 196.17505 
L 127.502864 196.410628 
L 127.071926 196.646285 
L 126.641111 196.882021 
L 126.210419 197.117836 
L 125.779848 197.35373 
L 125.3494 197.589703 
L 124.919074 197.825755 
L 124.48887 198.061886 
L 124.058789 198.298095 
L 123.62883 198.534382 
L 123.198993 198.770748 
L 122.769278 199.007193 
L 122.339686 199.243715 
L 121.910216 199.480316 
L 121.480868 199.716995 
L 121.051642 199.953751 
L 120.622538 200.190586 
L 120.193557 200.427498 
L 119.764698 200.664488 
L 119.33596 200.901556 
L 118.907346 201.138701 
L 118.478853 201.375923 
L 118.050482 201.613223 
L 117.622234 201.8506 
L 117.194107 202.088054 
L 116.766103 202.325585 
L 116.338221 202.563193 
L 115.910461 202.800877 
L 115.482823 203.038639 
L 115.055307 203.276477 
L 114.627914 203.514392 
L 114.200642 203.752383 
L 113.773492 203.99045 
L 113.346465 204.228594 
L 112.919559 204.466814 
L 112.492776 204.70511 
L 112.066115 204.943482 
L 111.639575 205.18193 
L 111.213158 205.420454 
L 110.786862 205.659053 
L 110.360689 205.897728 
L 109.934637 206.136479 
L 109.508708 206.375305 
L 109.082901 206.614206 
L 108.657215 206.853183 
L 108.231651 207.092234 
L 107.80621 207.331361 
L 107.38089 207.570563 
L 106.955692 207.80984 
L 106.530616 208.049191 
L 106.105662 208.288617 
L 105.68083 208.528118 
L 105.25612 208.767693 
L 104.831531 209.007343 
L 104.407065 209.247067 
L 103.98272 209.486866 
L 103.558497 209.726738 
L 103.134396 209.966685 
L 102.710416 210.206705 
L 102.286559 210.4468 
L 101.862823 210.686968 
L 101.439209 210.92721 
L 101.015717 211.167525 
L 100.592347 211.407914 
L 100.169098 211.648377 
L 99.745971 211.888912 
L 99.322966 212.129521 
L 98.900082 212.370203 
L 98.47732 212.610959 
L 98.05468 212.851787 
L 97.632162 213.092688 
L 97.209765 213.333662 
L 96.78749 213.574708 
L 96.365336 213.815828 
L 95.943304 214.057019 
L 95.521394 214.298283 
L 95.099605 214.53962 
L 94.677938 214.781029 
L 94.256393 215.022509 
L 93.834969 215.264062 
L 93.413666 215.505687 
L 92.992485 215.747384 
L 92.571426 215.989153 
L 92.150488 216.230993 
L 91.729672 216.472905 
L 91.308977 216.714888 
L 90.888404 216.956943 
L 90.467952 217.19907 
L 90.047621 217.441267 
L 89.627412 217.683536 
L 89.207325 217.925876 
L 88.787358 218.168286 
L 88.367514 218.410768 
L 87.94779 218.65332 
L 87.94779 218.65332 
" clip-path="url(#p12837002bd)" style="fill: none; stroke: #0000ff; stroke-width: 0.5; stroke-linecap: square"/>
   </g>
   <g id="line2d_21">
    <path d="M 87.94779 218.65332 
L 87.94779 218.65332 
L 87.794393 218.560383 
L 87.64098 218.467455 
L 87.487549 218.374537 
L 87.334101 218.281627 
L 87.180637 218.188726 
L 87.027155 218.095834 
L 86.873656 218.002951 
L 86.720141 217.910077 
L 86.566608 217.817212 
L 86.413058 217.724356 
L 86.259491 217.631509 
L 86.105908 217.538671 
L 85.952307 217.445843 
L 85.798689 217.353023 
L 85.645055 217.260212 
L 85.491403 217.167411 
L 85.337734 217.074618 
L 85.184048 216.981835 
L 85.030346 216.88906 
L 84.876626 216.796295 
L 84.722889 216.703539 
L 84.569135 216.610791 
L 84.415364 216.518053 
L 84.261576 216.425324 
L 84.107771 216.332605 
L 83.95395 216.239894 
L 83.800111 216.147192 
L 83.646255 216.054499 
L 83.492382 215.961816 
L 83.338492 215.869142 
L 83.184585 215.776476 
L 83.030661 215.68382 
L 82.87672 215.591173 
L 82.722762 215.498536 
L 82.568786 215.405907 
L 82.414794 215.313287 
L 82.260785 215.220677 
L 82.106759 215.128076 
L 81.952716 215.035484 
L 81.798655 214.942901 
L 81.644578 214.850327 
L 81.490484 214.757762 
L 81.336372 214.665207 
L 81.182244 214.572661 
L 81.028098 214.480124 
L 80.873936 214.387596 
L 80.719756 214.295077 
L 80.56556 214.202568 
L 80.411346 214.110068 
L 80.257115 214.017577 
L 80.102868 213.925095 
L 79.948603 213.832622 
L 79.794321 213.740159 
L 79.640022 213.647705 
L 79.485706 213.55526 
L 79.331374 213.462824 
L 79.177024 213.370398 
L 79.022657 213.277981 
L 78.868272 213.185573 
L 78.713871 213.093174 
L 78.559453 213.000785 
L 78.405018 212.908405 
L 78.250566 212.816034 
L 78.096096 212.723672 
L 77.94161 212.63132 
L 77.787106 212.538977 
L 77.632586 212.446643 
L 77.478048 212.354319 
L 77.323494 212.262003 
L 77.168922 212.169698 
L 77.014333 212.077401 
L 76.859727 211.985114 
L 76.705105 211.892836 
L 76.550465 211.800567 
L 76.395808 211.708308 
L 76.241133 211.616058 
L 76.086442 211.523817 
L 75.931734 211.431586 
L 75.777009 211.339364 
L 75.622266 211.247152 
L 75.467507 211.154948 
L 75.312731 211.062754 
L 75.157937 210.97057 
L 75.003126 210.878395 
L 74.848299 210.786229 
L 74.693454 210.694073 
L 74.538592 210.601926 
L 74.383713 210.509788 
L 74.228817 210.41766 
L 74.073904 210.325541 
L 73.918974 210.233431 
L 73.764027 210.141331 
L 73.609062 210.049241 
L 73.454081 209.957159 
L 73.299082 209.865087 
L 73.144067 209.773025 
L 72.989034 209.680972 
L 72.833984 209.588928 
L 72.678918 209.496894 
L 72.523834 209.40487 
L 72.368733 209.312854 
L 72.368733 209.312854 
" clip-path="url(#p12837002bd)" style="fill: none; stroke: #0000ff; stroke-width: 0.5; stroke-linecap: square"/>
   </g>
   <g id="line2d_22">
    <path d="M 72.368733 209.312854 
L 72.368733 209.312854 
L 72.385947 209.15385 
L 72.403164 208.99483 
L 72.420385 208.835795 
L 72.437609 208.676746 
L 72.454837 208.517681 
L 72.472067 208.358602 
L 72.489301 208.199508 
L 72.506538 208.040399 
L 72.523779 207.881275 
L 72.541023 207.722136 
L 72.55827 207.562983 
L 72.57552 207.403814 
L 72.592774 207.24463 
L 72.610031 207.085432 
L 72.627291 206.926218 
L 72.644554 206.76699 
L 72.661821 206.607747 
L 72.679091 206.448489 
L 72.696365 206.289216 
L 72.713641 206.129928 
L 72.730921 205.970625 
L 72.748205 205.811307 
L 72.765491 205.651974 
L 72.782781 205.492626 
L 72.800074 205.333263 
L 72.817371 205.173885 
L 72.834671 205.014492 
L 72.851974 204.855085 
L 72.86928 204.695662 
L 72.88659 204.536224 
L 72.903903 204.376772 
L 72.921219 204.217304 
L 72.938539 204.057821 
L 72.955862 203.898324 
L 72.973188 203.738811 
L 72.990518 203.579283 
L 73.007851 203.419741 
L 73.025187 203.260183 
L 73.042527 203.10061 
L 73.05987 202.941023 
L 73.077216 202.78142 
L 73.094566 202.621802 
L 73.111919 202.462169 
L 73.129275 202.302521 
L 73.146634 202.142859 
L 73.163997 201.983181 
L 73.181364 201.823488 
L 73.198733 201.66378 
L 73.216106 201.504057 
L 73.233482 201.344319 
L 73.250862 201.184565 
L 73.268245 201.024797 
L 73.285631 200.865014 
L 73.30302 200.705215 
L 73.320413 200.545402 
L 73.33781 200.385573 
L 73.355209 200.22573 
L 73.372612 200.065871 
L 73.390018 199.905997 
L 73.407428 199.746108 
L 73.424841 199.586204 
L 73.442257 199.426285 
L 73.459677 199.266351 
L 73.4771 199.106402 
L 73.494527 198.946437 
L 73.511956 198.786458 
L 73.529389 198.626463 
L 73.546826 198.466453 
L 73.564266 198.306428 
L 73.581709 198.146388 
L 73.599155 197.986333 
L 73.616605 197.826262 
L 73.634058 197.666177 
L 73.651515 197.506076 
L 73.668975 197.34596 
L 73.686438 197.185829 
L 73.703905 197.025683 
L 73.721375 196.865522 
L 73.738849 196.705345 
L 73.756325 196.545154 
L 73.773806 196.384947 
L 73.791289 196.224725 
L 73.808776 196.064488 
L 73.826266 195.904235 
L 73.84376 195.743968 
L 73.861257 195.583685 
L 73.878758 195.423387 
L 73.896262 195.263074 
L 73.913769 195.102745 
L 73.931279 194.942401 
L 73.948793 194.782043 
L 73.966311 194.621669 
L 73.983831 194.461279 
L 74.001356 194.300875 
L 74.018883 194.140455 
L 74.036414 193.98002 
L 74.053948 193.81957 
L 74.071486 193.659104 
L 74.089027 193.498623 
L 74.106572 193.338127 
L 74.12412 193.177616 
L 74.12412 193.177616 
" clip-path="url(#p12837002bd)" style="fill: none; stroke: #0000ff; stroke-width: 0.5; stroke-linecap: square"/>
   </g>
   <g id="line2d_23">
    <path d="M 41.430041 125.94689 
L 41.430041 125.94689 
L 41.534163 125.922154 
L 41.638288 125.897424 
L 41.742416 125.8727 
L 41.846548 125.847983 
L 41.950682 125.823273 
L 42.05482 125.798569 
L 42.158961 125.773871 
L 42.263105 125.749179 
L 42.367253 125.724494 
L 42.471403 125.699816 
L 42.575557 125.675143 
L 42.679714 125.650478 
L 42.783874 125.625818 
L 42.888037 125.601165 
L 42.992204 125.576518 
L 43.096373 125.551878 
L 43.200546 125.527244 
L 43.304722 125.502616 
L 43.408901 125.477995 
L 43.513084 125.453381 
L 43.617269 125.428772 
L 43.721458 125.40417 
L 43.82565 125.379575 
L 43.929845 125.354986 
L 44.034043 125.330403 
L 44.138245 125.305827 
L 44.242449 125.281257 
L 44.346657 125.256693 
L 44.450868 125.232136 
L 44.555082 125.207585 
L 44.6593 125.183041 
L 44.76352 125.158503 
L 44.867744 125.133971 
L 44.971971 125.109446 
L 45.076201 125.084928 
L 45.180434 125.060415 
L 45.28467 125.035909 
L 45.38891 125.01141 
L 45.493153 124.986917 
L 45.597399 124.96243 
L 45.701648 124.93795 
L 45.8059 124.913476 
L 45.910155 124.889009 
L 46.014414 124.864547 
L 46.118676 124.840093 
L 46.22294 124.815645 
L 46.327209 124.791203 
L 46.43148 124.766767 
L 46.535754 124.742339 
L 46.640032 124.717916 
L 46.744312 124.6935 
L 46.848596 124.66909 
L 46.952883 124.644687 
L 47.057173 124.62029 
L 47.161467 124.595899 
L 47.265763 124.571515 
L 47.370063 124.547138 
L 47.474366 124.522767 
L 47.578672 124.498402 
L 47.682981 124.474043 
L 47.787293 124.449691 
L 47.891608 124.425346 
L 47.995927 124.401007 
L 48.100249 124.376674 
L 48.204574 124.352348 
L 48.308902 124.328028 
L 48.413233 124.303715 
L 48.517567 124.279408 
L 48.621905 124.255107 
L 48.726245 124.230813 
L 48.830589 124.206526 
L 48.934936 124.182244 
L 49.039286 124.157969 
L 49.143639 124.133701 
L 49.247996 124.109439 
L 49.352355 124.085184 
L 49.456718 124.060935 
L 49.561083 124.036692 
L 49.665452 124.012456 
L 49.769824 123.988226 
L 49.8742 123.964003 
L 49.978578 123.939786 
L 50.082959 123.915575 
L 50.187344 123.891371 
L 50.291732 123.867174 
L 50.396123 123.842982 
L 50.500517 123.818798 
L 50.604914 123.794619 
L 50.709314 123.770448 
L 50.813718 123.746282 
L 50.918124 123.722123 
L 51.022534 123.697971 
L 51.126947 123.673825 
L 51.231363 123.649685 
L 51.335782 123.625552 
L 51.440204 123.601425 
L 51.544629 123.577305 
L 51.649058 123.553191 
L 51.753489 123.529084 
L 51.857924 123.504983 
L 51.962362 123.480888 
L 51.962362 123.480888 
" clip-path="url(#p12837002bd)" style="fill: none; stroke: #0000ff; stroke-width: 0.5; stroke-linecap: square"/>
   </g>
   <g id="line2d_24">
    <path d="M 41.430041 125.94689 
L 41.430041 125.94689 
L 41.382019 126.023492 
L 41.334002 126.100091 
L 41.285989 126.176689 
L 41.23798 126.253284 
L 41.189976 126.329878 
L 41.141977 126.406469 
L 41.093982 126.483057 
L 41.045992 126.559644 
L 40.998006 126.636229 
L 40.950025 126.712811 
L 40.902048 126.789391 
L 40.854076 126.865969 
L 40.806108 126.942545 
L 40.758146 127.019118 
L 40.710187 127.09569 
L 40.662233 127.172259 
L 40.614284 127.248826 
L 40.566339 127.325391 
L 40.518399 127.401953 
L 40.470464 127.478514 
L 40.422532 127.555072 
L 40.374606 127.631628 
L 40.326684 127.708182 
L 40.278767 127.784734 
L 40.230854 127.861284 
L 40.182945 127.937831 
L 40.135042 128.014376 
L 40.087142 128.090919 
L 40.039248 128.16746 
L 39.991357 128.243999 
L 39.943472 128.320535 
L 39.895591 128.397069 
L 39.847714 128.473602 
L 39.799842 128.550131 
L 39.751975 128.626659 
L 39.704112 128.703185 
L 39.656254 128.779708 
L 39.6084 128.856229 
L 39.56055 128.932748 
L 39.512706 129.009265 
L 39.464866 129.08578 
L 39.41703 129.162292 
L 39.369199 129.238802 
L 39.321372 129.315311 
L 39.27355 129.391816 
L 39.225732 129.46832 
L 39.177919 129.544822 
L 39.130111 129.621321 
L 39.082307 129.697818 
L 39.034508 129.774313 
L 38.986713 129.850806 
L 38.938922 129.927297 
L 38.891137 130.003785 
L 38.843355 130.080271 
L 38.795578 130.156755 
L 38.747806 130.233237 
L 38.700038 130.309717 
L 38.652275 130.386195 
L 38.604517 130.46267 
L 38.556762 130.539143 
L 38.509013 130.615614 
L 38.461268 130.692083 
L 38.413527 130.768549 
L 38.365791 130.845014 
L 38.31806 130.921476 
L 38.270332 130.997936 
L 38.22261 131.074394 
L 38.174892 131.15085 
L 38.127178 131.227303 
L 38.07947 131.303755 
L 38.031765 131.380204 
L 37.984065 131.456651 
L 37.93637 131.533096 
L 37.888679 131.609538 
L 37.840992 131.685979 
L 37.793311 131.762417 
L 37.745633 131.838853 
L 37.69796 131.915287 
L 37.650292 131.991719 
L 37.602628 132.068148 
L 37.554969 132.144575 
L 37.507314 132.221001 
L 37.459664 132.297423 
L 37.412018 132.373844 
L 37.364377 132.450263 
L 37.31674 132.526679 
L 37.269107 132.603094 
L 37.22148 132.679506 
L 37.173856 132.755915 
L 37.126238 132.832323 
L 37.078623 132.908729 
L 37.031014 132.985132 
L 36.983408 133.061533 
L 36.935807 133.137932 
L 36.888211 133.214329 
L 36.840619 133.290723 
L 36.793032 133.367116 
L 36.745449 133.443506 
L 36.697871 133.519894 
L 36.650297 133.59628 
L 36.602728 133.672664 
L 36.602728 133.672664 
" clip-path="url(#p12837002bd)" style="fill: none; stroke: #0000ff; stroke-width: 0.5; stroke-linecap: square"/>
   </g>
   <g id="line2d_25">
    <path d="M 51.962362 123.480888 
L 51.962362 123.480888 
L 51.858953 123.686485 
L 51.75557 123.892062 
L 51.652213 124.09762 
L 51.548883 124.303158 
L 51.44558 124.508677 
L 51.342302 124.714177 
L 51.239051 124.919657 
L 51.135827 125.125118 
L 51.032628 125.330559 
L 50.929456 125.535981 
L 50.826311 125.741383 
L 50.723191 125.946766 
L 50.620098 126.15213 
L 50.517031 126.357474 
L 50.41399 126.562799 
L 50.310976 126.768104 
L 50.207988 126.973391 
L 50.105026 127.178657 
L 50.00209 127.383905 
L 49.89918 127.589132 
L 49.796297 127.794341 
L 49.69344 127.99953 
L 49.590609 128.2047 
L 49.487804 128.409851 
L 49.385025 128.614982 
L 49.282272 128.820093 
L 49.179546 129.025186 
L 49.076845 129.230259 
L 48.974171 129.435313 
L 48.871523 129.640347 
L 48.7689 129.845362 
L 48.666304 130.050358 
L 48.563734 130.255334 
L 48.46119 130.460291 
L 48.358672 130.665229 
L 48.25618 130.870147 
L 48.153714 131.075046 
L 48.051274 131.279926 
L 47.94886 131.484786 
L 47.846472 131.689627 
L 47.74411 131.894449 
L 47.641773 132.099251 
L 47.539463 132.304034 
L 47.437179 132.508798 
L 47.33492 132.713543 
L 47.232688 132.918268 
L 47.130481 133.122974 
L 47.028301 133.327661 
L 46.926146 133.532328 
L 46.824017 133.736976 
L 46.721913 133.941605 
L 46.619836 134.146215 
L 46.517785 134.350805 
L 46.415759 134.555376 
L 46.313759 134.759928 
L 46.211785 134.96446 
L 46.109837 135.168974 
L 46.007914 135.373468 
L 45.906017 135.577942 
L 45.804146 135.782398 
L 45.702301 135.986834 
L 45.600481 136.191251 
L 45.498687 136.395649 
L 45.396919 136.600027 
L 45.295177 136.804387 
L 45.19346 137.008727 
L 45.091769 137.213048 
L 44.990103 137.417349 
L 44.888463 137.621632 
L 44.786849 137.825895 
L 44.685261 138.030139 
L 44.583698 138.234363 
L 44.48216 138.438569 
L 44.380649 138.642755 
L 44.279162 138.846922 
L 44.177702 139.05107 
L 44.076267 139.255199 
L 43.974857 139.459309 
L 43.873473 139.663399 
L 43.772115 139.86747 
L 43.670782 140.071522 
L 43.569475 140.275555 
L 43.468193 140.479569 
L 43.366936 140.683563 
L 43.265705 140.887539 
L 43.1645 141.091495 
L 43.06332 141.295432 
L 42.962165 141.49935 
L 42.861036 141.703248 
L 42.759932 141.907128 
L 42.658854 142.110988 
L 42.557801 142.314829 
L 42.456773 142.518651 
L 42.355771 142.722454 
L 42.254794 142.926238 
L 42.153842 143.130003 
L 42.052916 143.333748 
L 41.952015 143.537475 
L 41.85114 143.741182 
L 41.75029 143.94487 
L 41.649465 144.148539 
L 41.649465 144.148539 
" clip-path="url(#p12837002bd)" style="fill: none; stroke: #0000ff; stroke-width: 0.5; stroke-linecap: square"/>
   </g>
   <g id="line2d_26">
    <path d="M 36.602728 133.672664 
L 36.602728 133.672664 
L 36.653017 133.776638 
L 36.703299 133.880608 
L 36.753575 133.984572 
L 36.803844 134.088532 
L 36.854107 134.192486 
L 36.904363 134.296435 
L 36.954613 134.40038 
L 37.004856 134.504319 
L 37.055093 134.608253 
L 37.105324 134.712182 
L 37.155548 134.816106 
L 37.205766 134.920025 
L 37.255977 135.023938 
L 37.306182 135.127847 
L 37.35638 135.231751 
L 37.406572 135.335649 
L 37.456757 135.439543 
L 37.506936 135.543431 
L 37.557109 135.647314 
L 37.607275 135.751193 
L 37.657434 135.855066 
L 37.707588 135.958934 
L 37.757734 136.062797 
L 37.807875 136.166655 
L 37.858008 136.270508 
L 37.908136 136.374356 
L 37.958257 136.478199 
L 38.008372 136.582036 
L 38.05848 136.685869 
L 38.108581 136.789697 
L 38.158677 136.893519 
L 38.208766 136.997337 
L 38.258848 137.101149 
L 38.308924 137.204956 
L 38.358994 137.308759 
L 38.409057 137.412556 
L 38.459114 137.516348 
L 38.509164 137.620135 
L 38.559208 137.723917 
L 38.609246 137.827694 
L 38.659277 137.931466 
L 38.709301 138.035233 
L 38.75932 138.138995 
L 38.809332 138.242751 
L 38.859337 138.346503 
L 38.909336 138.45025 
L 38.959329 138.553991 
L 39.009315 138.657728 
L 39.059295 138.761459 
L 39.109269 138.865186 
L 39.159236 138.968907 
L 39.209196 139.072623 
L 39.259151 139.176335 
L 39.309099 139.280041 
L 39.35904 139.383742 
L 39.408975 139.487438 
L 39.458904 139.591129 
L 39.508826 139.694815 
L 39.558742 139.798496 
L 39.608652 139.902172 
L 39.658555 140.005843 
L 39.708452 140.109508 
L 39.758342 140.213169 
L 39.808226 140.316825 
L 39.858104 140.420475 
L 39.907975 140.524121 
L 39.95784 140.627761 
L 40.007699 140.731397 
L 40.057551 140.835027 
L 40.107397 140.938653 
L 40.157236 141.042273 
L 40.207069 141.145888 
L 40.256896 141.249499 
L 40.306717 141.353104 
L 40.356531 141.456704 
L 40.406338 141.560299 
L 40.456139 141.663889 
L 40.505934 141.767474 
L 40.555723 141.871054 
L 40.605505 141.974629 
L 40.655281 142.078199 
L 40.70505 142.181764 
L 40.754813 142.285324 
L 40.80457 142.388879 
L 40.854321 142.492428 
L 40.904065 142.595973 
L 40.953802 142.699513 
L 41.003534 142.803047 
L 41.053259 142.906577 
L 41.102977 143.010101 
L 41.15269 143.113621 
L 41.202396 143.217135 
L 41.252095 143.320645 
L 41.301789 143.424149 
L 41.351476 143.527649 
L 41.401156 143.631143 
L 41.450831 143.734632 
L 41.500499 143.838117 
L 41.55016 143.941596 
L 41.599816 144.04507 
L 41.649465 144.148539 
L 41.649465 144.148539 
" clip-path="url(#p12837002bd)" style="fill: none; stroke: #0000ff; stroke-width: 0.5; stroke-linecap: square"/>
   </g>
   <g id="patch_3">
    <path d="M 7.2 273.312 
L 7.2 7.2 
" style="fill: none; stroke: #000000; stroke-width: 0.8; stroke-linejoin: miter; stroke-linecap: square"/>
   </g>
   <g id="patch_4">
    <path d="M 213.019095 273.312 
L 213.019095 7.2 
" style="fill: none; stroke: #000000; stroke-width: 0.8; stroke-linejoin: miter; stroke-linecap: square"/>
   </g>
   <g id="patch_5">
    <path d="M 7.2 273.312 
L 213.019095 273.312 
" style="fill: none; stroke: #000000; stroke-width: 0.8; stroke-linejoin: miter; stroke-linecap: square"/>
   </g>
   <g id="patch_6">
    <path d="M 7.2 7.2 
L 213.019095 7.2 
" style="fill: none; stroke: #000000; stroke-width: 0.8; stroke-linejoin: miter; stroke-linecap: square"/>
   </g>
   <g id="PathCollection_1">
    <defs>
     <path id="m0eda0bdd78" d="M 0 0.5 
C 0.132602 0.5 0.25979 0.447317 0.353553 0.353553 
C 0.447317 0.25979 0.5 0.132602 0.5 0 
C 0.5 -0.132602 0.447317 -0.25979 0.353553 -0.353553 
C 0.25979 -0.447317 0.132602 -0.5 0 -0.5 
C -0.132602 -0.5 -0.25979 -0.447317 -0.353553 -0.353553 
C -0.447317 -0.25979 -0.5 -0.132602 -0.5 0 
C -0.5 0.132602 -0.447317 0.25979 -0.353553 0.353553 
C -0.25979 0.447317 -0.132602 0.5 0 0.5 
z
" style="stroke: #ff0000"/>
    </defs>
    <g clip-path="url(#p12837002bd)">
     <use xlink:href="#m0eda0bdd78" x="102.868577" y="92.151128" style="fill: #ff0000; stroke: #ff0000"/>
     <use xlink:href="#m0eda0bdd78" x="77.854316" y="171.073567" style="fill: #ff0000; stroke: #ff0000"/>
     <use xlink:href="#m0eda0bdd78" x="109.012431" y="49.883325" style="fill: #ff0000; stroke: #ff0000"/>
     <use xlink:href="#m0eda0bdd78" x="46.037932" y="48.035611" style="fill: #ff0000; stroke: #ff0000"/>
     <use xlink:href="#m0eda0bdd78" x="80.926243" y="67.146076" style="fill: #ff0000; stroke: #ff0000"/>
     <use xlink:href="#m0eda0bdd78" x="183.616367" y="87.470164" style="fill: #ff0000; stroke: #ff0000"/>
     <use xlink:href="#m0eda0bdd78" x="141.267662" y="237.837327" style="fill: #ff0000; stroke: #ff0000"/>
     <use xlink:href="#m0eda0bdd78" x="107.037621" y="229.595198" style="fill: #ff0000; stroke: #ff0000"/>
     <use xlink:href="#m0eda0bdd78" x="130.954765" y="194.528233" style="fill: #ff0000; stroke: #ff0000"/>
     <use xlink:href="#m0eda0bdd78" x="87.94779" y="218.65332" style="fill: #ff0000; stroke: #ff0000"/>
     <use xlink:href="#m0eda0bdd78" x="72.368733" y="209.312854" style="fill: #ff0000; stroke: #ff0000"/>
     <use xlink:href="#m0eda0bdd78" x="74.12412" y="193.177616" style="fill: #ff0000; stroke: #ff0000"/>
     <use xlink:href="#m0eda0bdd78" x="41.430041" y="125.94689" style="fill: #ff0000; stroke: #ff0000"/>
     <use xlink:href="#m0eda0bdd78" x="51.962362" y="123.480888" style="fill: #ff0000; stroke: #ff0000"/>
     <use xlink:href="#m0eda0bdd78" x="36.602728" y="133.672664" style="fill: #ff0000; stroke: #ff0000"/>
     <use xlink:href="#m0eda0bdd78" x="41.649465" y="144.148539" style="fill: #ff0000; stroke: #ff0000"/>
     <use xlink:href="#m0eda0bdd78" x="159.4798" y="129.463201" style="fill: #ff0000; stroke: #ff0000"/>
    </g>
   </g>
   <g id="PathCollection_2"/>
  </g>
 </g>
 <defs>
  <clipPath id="p12837002bd">
   <rect x="7.2" y="7.2" width="205.819095" height="266.112"/>
  </clipPath>
 </defs>
</svg>
