<?xml version="1.0" encoding="utf-8" standalone="no"?>
<!DOCTYPE svg PUBLIC "-//W3C//DTD SVG 1.1//EN"
  "http://www.w3.org/Graphics/SVG/1.1/DTD/svg11.dtd">
<svg xmlns:xlink="http://www.w3.org/1999/xlink" width="287.042527pt" height="280.512pt" viewBox="0 0 287.042527 280.512" xmlns="http://www.w3.org/2000/svg" version="1.1">
 <metadata>
  <rdf:RDF xmlns:dc="http://purl.org/dc/elements/1.1/" xmlns:cc="http://creativecommons.org/ns#" xmlns:rdf="http://www.w3.org/1999/02/22-rdf-syntax-ns#">
   <cc:Work>
    <dc:type rdf:resource="http://purl.org/dc/dcmitype/StillImage"/>
    <dc:date>2025-04-17T08:30:06.198907</dc:date>
    <dc:format>image/svg+xml</dc:format>
    <dc:creator>
     <cc:Agent>
      <dc:title>Matplotlib v3.8.4, https://matplotlib.org/</dc:title>
     </cc:Agent>
    </dc:creator>
   </cc:Work>
  </rdf:RDF>
 </metadata>
 <defs>
  <style type="text/css">*{stroke-linejoin: round; stroke-linecap: butt}</style>
 </defs>
 <g id="figure_1">
  <g id="patch_1">
   <path d="M 0 280.512 
L 287.042527 280.512 
L 287.042527 0 
L 0 0 
z
" style="fill: #ffffff"/>
  </g>
  <g id="axes_1">
   <g id="patch_2">
    <path d="M 7.2 273.312 
L 279.842527 273.312 
L 279.842527 7.2 
L 7.2 7.2 
z
" style="fill: #ffffff"/>
   </g>
   <g id="matplotlib.axis_1"/>
   <g id="matplotlib.axis_2"/>
   <g id="LineCollection_1">
    <path d="M 279.842527 69.331841 
L 279.356809 68.73616 
L 279.842527 69.654221 
" clip-path="url(#p2d96fa1b63)" style="fill: none; stroke: #000000; stroke-width: 0.2"/>
    <path d="M 279.842527 77.792086 
L 277.621186 79.93066 
L 268.146001 61.692663 
L 269.255662 70.466644 
L 264.388277 65.26429 
L 266.955269 70.989799 
L 262.497918 68.311076 
L 258.748769 75.345067 
L 259.137754 68.135676 
L 255.134479 68.312715 
L 257.281304 76.123952 
L 255.552697 71.588235 
L 250.908258 74.294323 
L 253.962066 87.294391 
L 242.290166 78.676676 
L 238.48684 81.476232 
L 242.748529 63.48132 
L 238.447473 55.948342 
L 239.334189 70.197941 
L 229.322687 72.798495 
L 232.301271 78.998246 
L 224.245219 95.734308 
L 227.314618 97.486785 
L 218.767463 108.334918 
L 215.358579 106.931837 
L 221.080328 98.524142 
L 213.817449 106.73043 
L 209.763114 98.046186 
L 203.319131 115.363868 
L 201.765138 101.773992 
L 198.66183 116.784136 
L 195.746778 105.340897 
L 193.23942 113.888532 
L 194.986347 105.44705 
L 188.439855 109.806785 
L 189.173783 97.15686 
L 182.882977 109.134768 
L 187.079186 104.922756 
L 189.680087 121.786119 
L 185.791792 124.476301 
L 184.131784 110.742669 
L 177.176819 122.673507 
L 180.978585 113.335012 
L 165.183752 123.635668 
L 168.459336 134.328771 
L 160.922452 135.047356 
L 161.400694 142.550818 
L 149.765432 151.386038 
L 134.212252 186.964201 
L 139.364945 199.104966 
L 146.432162 195.331946 
L 148.303813 199.292523 
L 132.903811 205.641377 
L 135.876938 209.392203 
L 128.054746 214.546472 
L 129.794657 219.616582 
L 124.343794 217.709851 
L 129.42438 226.461786 
L 133.024639 221.910407 
L 139.57074 225.966844 
L 147.974462 242.877802 
L 145.334974 240.064379 
L 141.80994 243.60159 
L 150.734777 248.14561 
L 151.058282 256.595255 
L 161.376528 263.253377 
L 178.106018 256.34583 
L 173.583576 241.073054 
L 165.88338 238.776169 
L 175.56592 240.411826 
L 179.852944 258.6168 
L 180.148386 267.049474 
L 157.536564 268.086386 
L 149.564067 273.312 
" clip-path="url(#p2d96fa1b63)" style="fill: none; stroke: #000000; stroke-width: 0.2"/>
    <path d="M 145.210682 273.312 
L 147.369936 259.417424 
L 143.813721 264.435246 
L 142.212957 260.17297 
L 134.748569 271.939808 
L 131.308893 266.479798 
L 130.232536 273.312 
" clip-path="url(#p2d96fa1b63)" style="fill: none; stroke: #000000; stroke-width: 0.2"/>
    <path d="M 118.15959 273.312 
L 119.22813 262.44353 
L 114.052831 262.192348 
L 111.997991 267.376013 
L 106.674581 255.671737 
L 109.630948 262.686865 
L 104.15748 264.089697 
L 106.899086 270.640072 
L 106.223804 273.312 
" clip-path="url(#p2d96fa1b63)" style="fill: none; stroke: #000000; stroke-width: 0.2"/>
    <path d="M 20.922013 27.240581 
L 20.141313 33.163593 
L 15.519481 36.225171 
L 17.998776 45.503496 
L 15.146086 63.388323 
L 9.554909 64.065518 
L 13.869216 73.176187 
L 7.2 91.094488 
" clip-path="url(#p2d96fa1b63)" style="fill: none; stroke: #000000; stroke-width: 0.2"/>
    <path d="M 7.2 86.379981 
L 7.922963 84.407821 
L 7.2 80.045175 
" clip-path="url(#p2d96fa1b63)" style="fill: none; stroke: #000000; stroke-width: 0.2"/>
    <path d="M 7.2 31.954465 
L 8.348976 26.577223 
L 10.406545 41.701502 
L 20.836654 26.838274 
L 20.922013 27.240581 
" clip-path="url(#p2d96fa1b63)" style="fill: none; stroke: #000000; stroke-width: 0.2"/>
   </g>
   <g id="LineCollection_2">
    <path d="M 7.2 31.735215 
L 9.310136 31.706374 
L 12.375248 31.663928 
L 15.440359 31.622033 
L 18.50508 31.580138 
L 21.570192 31.537691 
L 24.635303 31.495795 
L 27.700414 31.453898 
L 30.765526 31.412001 
L 33.830637 31.370104 
L 36.895748 31.328206 
L 39.960859 31.285757 
L 43.025971 31.243858 
L 46.091082 31.201959 
L 49.156193 31.159508 
L 52.221305 31.117608 
L 55.286416 31.075708 
L 58.351527 31.033807 
L 61.416639 30.991906 
L 64.48175 30.950004 
L 67.546861 30.908102 
L 70.611972 30.865648 
L 73.677084 30.823746 
L 76.742195 30.781291 
L 79.806917 30.739387 
L 82.872028 30.697483 
L 85.937139 30.655578 
L 89.00225 30.613673 
L 92.067362 30.571768 
L 95.132473 30.529862 
L 98.197584 30.487404 
L 101.262696 30.445498 
L 102.122517 30.433918 
L 104.875427 14.643981 
L 111.587568 10.08654 
L 120.215794 13.596033 
L 127.908845 7.2 
" clip-path="url(#p2d96fa1b63)" style="fill: none; stroke: #000000; stroke-width: 0.2"/>
    <path d="M 129.711665 7.2 
L 133.555109 14.643981 
L 135.339555 7.2 
" clip-path="url(#p2d96fa1b63)" style="fill: none; stroke: #000000; stroke-width: 0.2"/>
   </g>
   <g id="LineCollection_3">
    <path d="M 136.776516 182.585949 
L 133.758956 183.319335 
L 130.741006 184.053128 
L 127.723446 184.786264 
L 124.705886 185.519807 
L 121.687936 186.253224 
L 120.76926 186.476414 
L 112.311362 194.864727 
L 109.24703 194.756533 
L 106.183088 194.648337 
L 103.118756 194.540137 
L 100.054424 194.431935 
L 96.990482 194.32373 
L 93.926151 194.215522 
L 90.861819 194.107312 
L 87.797877 193.999099 
L 84.733545 193.890353 
L 81.669213 193.782134 
L 78.605271 193.673913 
L 75.54094 193.565689 
L 72.476608 193.457462 
L 69.412666 193.349233 
L 66.348334 193.241001 
L 63.284002 193.132766 
L 60.22006 193.024529 
L 57.155728 192.916288 
L 54.091397 192.808046 
L 51.027455 192.6998 
L 47.963123 192.591552 
L 44.898791 192.4833 
L 41.834849 192.375047 
L 38.770517 192.26679 
L 35.706186 192.158531 
L 32.642244 192.050269 
L 29.577912 191.942004 
L 26.51358 191.833737 
L 23.449248 191.725467 
L 20.385306 191.617194 
L 17.320975 191.508918 
L 14.256643 191.40064 
L 12.251302 191.329515 
L 12.298464 187.153882 
L 12.346015 182.974197 
L 12.393177 178.789915 
L 12.440728 174.602088 
L 12.48789 170.410171 
L 12.535051 166.213618 
L 12.582602 162.013484 
L 12.629764 157.809223 
L 12.677315 153.600285 
L 12.724477 149.387194 
L 12.771638 145.171008 
L 12.81919 140.949571 
L 12.866351 136.723941 
L 12.875706 135.89541 
L 9.413034 129.959242 
L 7.2 130.838896 
" clip-path="url(#p2d96fa1b63)" style="fill: none; stroke: #000000; stroke-width: 0.2"/>
    <path d="M 7.2 82.880275 
L 8.065617 79.700164 
L 9.1554 75.693074 
L 10.245572 71.682142 
L 10.293123 71.506337 
L 7.2 63.383082 
" clip-path="url(#p2d96fa1b63)" style="fill: none; stroke: #000000; stroke-width: 0.2"/>
    <path d="M 136.776516 182.585949 
L 133.758956 183.319335 
L 130.741006 184.053128 
L 127.723446 184.786264 
L 124.705886 185.519807 
L 121.687936 186.253224 
L 120.76926 186.476414 
L 112.311362 194.864727 
L 109.24703 194.756533 
L 106.183088 194.648337 
L 103.118756 194.540137 
L 100.054424 194.431935 
L 96.990482 194.32373 
L 93.926151 194.215522 
L 90.861819 194.107312 
L 87.797877 193.999099 
L 84.733545 193.890353 
L 81.669213 193.782134 
L 78.605271 193.673913 
L 75.54094 193.565689 
L 72.476608 193.457462 
L 69.412666 193.349233 
L 66.348334 193.241001 
L 63.284002 193.132766 
L 60.22006 193.024529 
L 57.155728 192.916288 
L 54.091397 192.808046 
L 51.027455 192.6998 
L 47.963123 192.591552 
L 44.898791 192.4833 
L 41.834849 192.375047 
L 38.770517 192.26679 
L 35.706186 192.158531 
L 32.642244 192.050269 
L 29.577912 191.942004 
L 26.51358 191.833737 
L 23.449248 191.725467 
L 20.385306 191.617194 
L 17.320975 191.508918 
L 14.256643 191.40064 
L 12.251302 191.329515 
L 12.298464 187.153882 
L 12.346015 182.974197 
L 12.393177 178.789915 
L 12.440728 174.602088 
L 12.48789 170.410171 
L 12.535051 166.213618 
L 12.582602 162.013484 
L 12.629764 157.809223 
L 12.677315 153.600285 
L 12.724477 149.387194 
L 12.771638 145.171008 
L 12.81919 140.949571 
L 12.866351 136.723941 
L 12.875706 135.89541 
L 9.413034 129.979165 
L 7.2 130.851488 
" clip-path="url(#p2d96fa1b63)" style="fill: none; stroke: #000000; stroke-width: 0.2"/>
    <path d="M 7.2 82.880275 
L 8.065617 79.700164 
L 9.1554 75.693074 
L 10.245572 71.682142 
L 10.293123 71.506337 
L 7.2 64.012258 
" clip-path="url(#p2d96fa1b63)" style="fill: none; stroke: #000000; stroke-width: 0.2"/>
    <path d="M 102.122517 30.433918 
L 100.679997 34.257825 
L 99.237087 38.078754 
L 97.794567 41.896166 
L 96.352047 45.710069 
L 94.909138 49.520473 
L 94.757129 49.922231 
L 97.32568 66.374706 
L 94.566924 68.248239 
L 91.808168 70.120386 
L 89.049412 71.99224 
L 86.290656 73.863257 
L 83.5319 75.733437 
L 80.773144 77.602781 
L 78.014388 79.471291 
L 75.255632 81.338968 
L 74.733736 81.691924 
L 74.11479 85.884817 
L 73.495453 90.073524 
L 72.876507 94.2586 
L 72.25756 98.438971 
L 71.638223 102.615735 
L 71.157643 105.855392 
L 69.399024 109.342553 
L 67.640405 112.825754 
L 65.881785 116.307165 
L 64.123166 119.785172 
L 62.364937 123.260322 
L 60.606317 126.733162 
L 58.847698 130.20262 
L 57.089079 133.669244 
L 55.95915 135.89541 
L 55.251337 140.007981 
L 54.543524 144.116041 
L 53.835711 148.220679 
L 53.127898 152.321368 
L 52.420475 156.41812 
L 51.712661 160.510947 
L 51.004848 164.599861 
L 50.297035 168.684874 
L 49.589222 172.765463 
L 48.881409 176.842708 
L 48.173596 180.916086 
L 47.728484 183.476207 
L 52.539353 193.068567 
" clip-path="url(#p2d96fa1b63)" style="fill: none; stroke: #000000; stroke-width: 0.2"/>
    <path d="M 102.122517 30.433918 
L 100.679997 34.257825 
L 99.237087 38.078754 
L 97.794567 41.896166 
L 96.352047 45.710069 
L 94.909138 49.520473 
L 94.757129 49.922231 
L 97.32568 66.374706 
L 94.567314 68.248785 
L 91.808948 70.12257 
L 89.050581 71.995516 
L 86.292215 73.867622 
L 83.533459 75.738345 
L 80.775093 77.608233 
L 78.016726 79.47783 
L 75.25836 81.346594 
L 74.748158 81.691924 
L 74.126872 85.884273 
L 73.505197 90.072437 
L 72.883912 94.256428 
L 72.262237 98.436258 
L 71.640952 102.611942 
L 71.157643 105.855392 
L 69.399024 109.342553 
L 67.640405 112.825754 
L 65.881785 116.307165 
L 64.123166 119.785172 
L 62.364937 123.260322 
L 60.606317 126.733162 
L 58.847698 130.20262 
L 57.089079 133.669244 
L 55.95915 135.89541 
L 55.252506 140.008518 
L 54.545863 144.117115 
L 53.839219 148.221751 
L 53.132965 152.322975 
L 52.426321 156.420261 
L 51.719677 160.513086 
L 51.013033 164.601998 
L 50.30639 168.687542 
L 49.599746 172.769194 
L 48.893102 176.846436 
L 48.186458 180.91981 
L 47.742906 183.476207 
L 52.539353 193.068567 
" clip-path="url(#p2d96fa1b63)" style="fill: none; stroke: #000000; stroke-width: 0.2"/>
    <path d="M 123.039641 10.005635 
L 123.208799 14.355033 
L 123.377957 18.699294 
L 123.547115 23.039538 
L 123.716273 27.374675 
L 123.885431 31.705271 
L 124.054589 36.031341 
L 124.223747 40.35345 
L 124.392905 44.670511 
L 124.562063 48.983636 
L 124.731221 53.291743 
L 124.900379 57.595394 
L 125.069537 61.894603 
L 125.238695 66.18993 
L 125.407853 70.480297 
L 125.577011 74.766808 
L 125.746169 79.048387 
L 125.915327 83.325593 
L 126.084485 87.598439 
L 126.253643 91.867483 
L 126.4228 96.131651 
L 126.591958 100.392041 
L 126.761116 104.647584 
L 126.930274 108.898834 
L 127.099432 113.145805 
L 127.26859 117.38905 
L 127.437748 121.627502 
L 127.606906 125.862254 
L 127.776064 130.09224 
L 127.945222 134.318013 
L 128.11438 138.539585 
L 128.283538 142.757507 
L 128.418007 146.102339 
L 130.254969 149.478314 
L 132.091541 152.851619 
L 133.928503 156.222259 
L 135.765076 159.590242 
L 137.602038 162.955574 
L 139.43861 166.318262 
L 140.579842 168.406328 
" clip-path="url(#p2d96fa1b63)" style="fill: none; stroke: #000000; stroke-width: 0.2"/>
    <path d="M 123.039641 10.005635 
L 123.208799 14.355033 
L 123.377957 18.699294 
L 123.547115 23.039538 
L 123.716273 27.374675 
L 123.885431 31.705271 
L 124.054589 36.031341 
L 124.223747 40.35345 
L 124.392905 44.670511 
L 124.562063 48.983636 
L 124.731221 53.291743 
L 124.900379 57.595394 
L 125.069537 61.894603 
L 125.238695 66.18993 
L 125.407853 70.480297 
L 125.577011 74.766808 
L 125.746169 79.048387 
L 125.915327 83.325593 
L 126.084485 87.598439 
L 126.253643 91.867483 
L 126.4228 96.131651 
L 126.591958 100.392041 
L 126.761116 104.647584 
L 126.930274 108.898834 
L 127.099432 113.145805 
L 127.26859 117.38905 
L 127.437748 121.627502 
L 127.606906 125.862254 
L 127.776064 130.09224 
L 127.945222 134.318013 
L 128.11438 138.539585 
L 128.283538 142.757507 
L 128.418007 146.102339 
L 130.254969 149.478314 
L 132.091541 152.851619 
L 133.928503 156.222259 
L 135.765076 159.590242 
L 137.602038 162.955574 
L 139.43861 166.318262 
L 140.579842 168.406328 
" clip-path="url(#p2d96fa1b63)" style="fill: none; stroke: #000000; stroke-width: 0.2"/>
    <path d="M 7.2 239.632075 
L 9.865941 239.689608 
L 12.930663 239.755747 
L 15.995774 239.821884 
L 19.060495 239.88802 
L 22.125217 239.95468 
L 25.189938 240.020814 
L 28.25505 240.087473 
L 31.319771 240.153605 
L 34.384493 240.219736 
L 37.449604 240.285866 
L 40.514326 240.351995 
L 43.579047 240.418648 
L 46.644158 240.484776 
L 49.70888 240.551427 
L 52.773602 240.617552 
L 55.838713 240.683676 
L 58.903434 240.749799 
L 61.968156 240.815921 
L 65.032877 240.882567 
L 68.097989 240.948687 
L 71.16271 241.015331 
L 74.227432 241.081449 
L 77.292543 241.147567 
L 80.357265 241.213683 
L 83.421986 241.279798 
L 86.384589 241.343813 
L 86.20179 245.461387 
L 86.01899 249.574568 
L 85.83619 253.684415 
L 85.65339 257.789893 
L 85.470591 261.891537 
L 85.287791 265.989359 
L 85.104991 270.083371 
L 84.96073 273.312 
" clip-path="url(#p2d96fa1b63)" style="fill: none; stroke: #000000; stroke-width: 0.2"/>
    <path d="M 7.2 239.632075 
L 9.865941 239.689608 
L 12.930663 239.755747 
L 15.995774 239.821884 
L 19.060495 239.88802 
L 22.125217 239.95468 
L 25.189938 240.020814 
L 28.25505 240.087473 
L 31.319771 240.153605 
L 34.384493 240.219736 
L 37.449604 240.285866 
L 40.514326 240.351995 
L 43.579047 240.418648 
L 46.644158 240.484776 
L 49.70888 240.551427 
L 52.773602 240.617552 
L 55.838713 240.683676 
L 58.903434 240.749799 
L 61.968156 240.815921 
L 65.032877 240.882567 
L 68.097989 240.948687 
L 71.16271 241.015331 
L 74.227432 241.081449 
L 77.292543 241.147567 
L 80.357265 241.213683 
L 83.421986 241.279798 
L 86.384589 241.343813 
L 86.20179 245.461387 
L 86.01899 249.574568 
L 85.83619 253.684415 
L 85.65339 257.789893 
L 85.470591 261.891537 
L 85.287791 265.989359 
L 85.104991 270.083371 
L 84.96073 273.312 
" clip-path="url(#p2d96fa1b63)" style="fill: none; stroke: #000000; stroke-width: 0.2"/>
    <path d="M 12.166334 191.252549 
L 11.076941 195.152701 
L 9.987548 199.049332 
L 8.898155 202.942453 
L 7.809152 206.831544 
L 7.2 209.005261 
" clip-path="url(#p2d96fa1b63)" style="fill: none; stroke: #000000; stroke-width: 0.2"/>
    <path d="M 12.166334 191.252549 
L 11.076941 195.152701 
L 9.987548 199.049332 
L 8.898155 202.942453 
L 7.809152 206.831544 
L 7.2 209.005261 
" clip-path="url(#p2d96fa1b63)" style="fill: none; stroke: #000000; stroke-width: 0.2"/>
    <path d="M 86.526464 242.528452 
L 89.591185 242.464454 
L 92.656297 242.40098 
L 95.721018 242.337505 
L 98.786129 242.273504 
L 101.850851 242.209502 
L 104.915572 242.1455 
L 107.642758 242.088841 
L 109.970044 257.476234 
L 120.130436 267.173102 
L 120.579364 273.312 
" clip-path="url(#p2d96fa1b63)" style="fill: none; stroke: #000000; stroke-width: 0.2"/>
    <path d="M 86.526464 242.528452 
L 89.591185 242.464454 
L 92.656297 242.40098 
L 95.721018 242.337505 
L 98.786129 242.273504 
L 101.850851 242.209502 
L 104.915572 242.1455 
L 107.642758 242.088841 
L 109.955623 257.476234 
L 120.130436 267.173102 
L 120.579364 273.312 
" clip-path="url(#p2d96fa1b63)" style="fill: none; stroke: #000000; stroke-width: 0.2"/>
   </g>
   <g id="line2d_1">
    <path d="M 139.498652 168.963547 
L 139.498652 168.963547 
L 139.752765 168.554411 
L 140.006926 168.145252 
L 140.261136 167.73607 
L 140.515394 167.326864 
L 140.7697 166.917634 
L 141.024055 166.508381 
L 141.278459 166.099104 
L 141.53291 165.689804 
L 141.787411 165.28048 
L 142.041959 164.871133 
L 142.296556 164.461762 
L 142.551202 164.052368 
L 142.805896 163.64295 
L 143.060639 163.233509 
L 143.315431 162.824044 
L 143.570271 162.414556 
L 143.825159 162.005044 
L 144.080097 161.595508 
L 144.335083 161.185949 
L 144.590117 160.776367 
L 144.8452 160.366761 
L 145.100332 159.957131 
L 145.355513 159.547478 
L 145.610742 159.137801 
L 145.86602 158.728101 
L 146.121347 158.318377 
L 146.376723 157.90863 
L 146.632147 157.498859 
L 146.887621 157.089064 
L 147.143143 156.679246 
L 147.398714 156.269405 
L 147.654334 155.85954 
L 147.910003 155.449651 
L 148.16572 155.039739 
L 148.421487 154.629803 
L 148.677302 154.219844 
L 148.933167 153.809861 
L 149.18908 153.399854 
L 149.445043 152.989824 
L 149.701054 152.579771 
L 149.957115 152.169693 
L 150.213224 151.759593 
L 150.469383 151.349468 
L 150.725591 150.93932 
L 150.981847 150.529149 
L 151.238153 150.118954 
L 151.494508 149.708735 
L 151.750913 149.298493 
L 152.007366 148.888227 
L 152.263868 148.477938 
L 152.52042 148.067625 
L 152.777021 147.657289 
L 153.033671 147.246929 
L 153.290371 146.836545 
L 153.54712 146.426138 
L 153.803918 146.015707 
L 154.060765 145.605253 
L 154.317662 145.194775 
L 154.574608 144.784273 
L 154.831603 144.373748 
L 155.088648 143.963199 
L 155.345742 143.552627 
L 155.602886 143.142031 
L 155.860079 142.731411 
L 156.117321 142.320768 
L 156.374613 141.910101 
L 156.631955 141.499411 
L 156.889346 141.088697 
L 157.146786 140.67796 
L 157.404276 140.267199 
L 157.661816 139.856414 
L 157.919405 139.445605 
L 158.177043 139.034774 
L 158.434732 138.623918 
L 158.69247 138.213039 
L 158.950257 137.802136 
L 159.208095 137.39121 
L 159.465982 136.98026 
L 159.723918 136.569286 
L 159.981905 136.158289 
L 160.239941 135.747268 
L 160.498027 135.336224 
L 160.756162 134.925156 
L 161.014348 134.514064 
L 161.272583 134.102949 
L 161.530868 133.69181 
L 161.789203 133.280648 
L 162.047588 132.869462 
L 162.306023 132.458252 
L 162.564507 132.047018 
L 162.823042 131.635761 
L 163.081626 131.224481 
L 163.34026 130.813177 
L 163.598945 130.401849 
L 163.857679 129.990497 
L 164.116463 129.579122 
L 164.375298 129.167723 
L 164.634182 128.756301 
L 164.893116 128.344855 
L 165.152101 127.933386 
L 165.411136 127.521892 
L 165.411136 127.521892 
" clip-path="url(#p2d96fa1b63)" style="fill: none; stroke: #0000ff; stroke-width: 0.5; stroke-linecap: square"/>
   </g>
   <g id="line2d_2">
    <path d="M 139.498652 168.963547 
L 139.498652 168.963547 
L 139.492784 168.709072 
L 139.486916 168.454582 
L 139.481046 168.200078 
L 139.475176 167.945558 
L 139.469306 167.691024 
L 139.463434 167.436474 
L 139.457562 167.18191 
L 139.45169 166.92733 
L 139.445816 166.672736 
L 139.439942 166.418127 
L 139.434067 166.163502 
L 139.428192 165.908863 
L 139.422316 165.654209 
L 139.416439 165.39954 
L 139.410561 165.144856 
L 139.404683 164.890157 
L 139.398804 164.635442 
L 139.392924 164.380713 
L 139.387044 164.125969 
L 139.381163 163.87121 
L 139.375281 163.616436 
L 139.369399 163.361647 
L 139.363515 163.106843 
L 139.357631 162.852024 
L 139.351747 162.59719 
L 139.345862 162.342341 
L 139.339976 162.087477 
L 139.334089 161.832598 
L 139.328202 161.577704 
L 139.322314 161.322794 
L 139.316425 161.06787 
L 139.310535 160.812931 
L 139.304645 160.557977 
L 139.298754 160.303008 
L 139.292863 160.048023 
L 139.286971 159.793024 
L 139.281078 159.53801 
L 139.275184 159.28298 
L 139.26929 159.027936 
L 139.263395 158.772877 
L 139.257499 158.517802 
L 139.251602 158.262713 
L 139.245705 158.007608 
L 139.239807 157.752488 
L 139.233909 157.497353 
L 139.228009 157.242204 
L 139.222109 156.987039 
L 139.216209 156.731859 
L 139.210307 156.476664 
L 139.204405 156.221454 
L 139.198503 155.966229 
L 139.192599 155.710988 
L 139.186695 155.455733 
L 139.18079 155.200463 
L 139.174884 154.945177 
L 139.168978 154.689877 
L 139.163071 154.434561 
L 139.157163 154.17923 
L 139.151255 153.923884 
L 139.145346 153.668523 
L 139.139436 153.413147 
L 139.133526 153.157756 
L 139.127614 152.90235 
L 139.121702 152.646928 
L 139.11579 152.391492 
L 139.109876 152.13604 
L 139.103962 151.880573 
L 139.098048 151.625091 
L 139.092132 151.369594 
L 139.086216 151.114082 
L 139.080299 150.858555 
L 139.074381 150.603013 
L 139.068463 150.347455 
L 139.062544 150.091882 
L 139.056624 149.836294 
L 139.050704 149.580691 
L 139.044783 149.325073 
L 139.038861 149.06944 
L 139.032939 148.813792 
L 139.027015 148.558128 
L 139.021091 148.302449 
L 139.015167 148.046755 
L 139.009241 147.791046 
L 139.003315 147.535322 
L 138.997389 147.279582 
L 138.991461 147.023828 
L 138.985533 146.768058 
L 138.979604 146.512273 
L 138.973674 146.256473 
L 138.967744 146.000657 
L 138.961813 145.744827 
L 138.955881 145.488981 
L 138.949949 145.23312 
L 138.944016 144.977244 
L 138.938082 144.721353 
L 138.932147 144.465446 
L 138.926212 144.209524 
L 138.920276 143.953587 
L 138.914339 143.697635 
L 138.908402 143.441668 
L 138.902464 143.185685 
L 138.902464 143.185685 
" clip-path="url(#p2d96fa1b63)" style="fill: none; stroke: #0000ff; stroke-width: 0.5; stroke-linecap: square"/>
   </g>
   <g id="line2d_3">
    <path d="M 139.498652 168.963547 
L 139.498652 168.963547 
L 139.148082 169.014817 
L 138.79752 169.066115 
L 138.446967 169.117442 
L 138.096422 169.168796 
L 137.745886 169.220179 
L 137.395357 169.27159 
L 137.044838 169.323029 
L 136.694326 169.374497 
L 136.343823 169.425992 
L 135.993329 169.477516 
L 135.642842 169.529068 
L 135.292364 169.580648 
L 134.941895 169.632256 
L 134.591434 169.683892 
L 134.240981 169.735556 
L 133.890537 169.787249 
L 133.540101 169.838969 
L 133.189674 169.890718 
L 132.839255 169.942495 
L 132.488845 169.9943 
L 132.138443 170.046133 
L 131.788049 170.097994 
L 131.437664 170.149883 
L 131.087287 170.201801 
L 130.736919 170.253746 
L 130.386559 170.30572 
L 130.036208 170.357722 
L 129.685865 170.409752 
L 129.335531 170.46181 
L 128.985205 170.513896 
L 128.634888 170.56601 
L 128.284579 170.618152 
L 127.934278 170.670323 
L 127.583986 170.722521 
L 127.233703 170.774748 
L 126.883428 170.827002 
L 126.533162 170.879285 
L 126.182904 170.931596 
L 125.832654 170.983935 
L 125.482414 171.036302 
L 125.132181 171.088697 
L 124.781957 171.14112 
L 124.431742 171.193571 
L 124.081535 171.24605 
L 123.731337 171.298558 
L 123.381148 171.351093 
L 123.030967 171.403656 
L 122.680794 171.456248 
L 122.33063 171.508867 
L 121.980475 171.561515 
L 121.630328 171.614191 
L 121.28019 171.666894 
L 120.93006 171.719626 
L 120.579939 171.772386 
L 120.229826 171.825174 
L 119.879722 171.877989 
L 119.529627 171.930833 
L 119.17954 171.983705 
L 118.829462 172.036605 
L 118.479392 172.089533 
L 118.129331 172.142489 
L 117.779279 172.195473 
L 117.429235 172.248485 
L 117.0792 172.301525 
L 116.729174 172.354593 
L 116.379156 172.407689 
L 116.029147 172.460813 
L 115.679146 172.513965 
L 115.329154 172.567145 
L 114.979171 172.620353 
L 114.629197 172.67359 
L 114.279231 172.726854 
L 113.929273 172.780146 
L 113.579325 172.833466 
L 113.229385 172.886814 
L 112.879453 172.94019 
L 112.529531 172.993594 
L 112.179617 173.047026 
L 111.829712 173.100486 
L 111.479815 173.153974 
L 111.129927 173.20749 
L 110.780048 173.261034 
L 110.430178 173.314605 
L 110.080316 173.368205 
L 109.730463 173.421833 
L 109.380618 173.475489 
L 109.030783 173.529173 
L 108.680956 173.582884 
L 108.331138 173.636624 
L 107.981328 173.690391 
L 107.631528 173.744187 
L 107.281736 173.79801 
L 106.931953 173.851862 
L 106.582178 173.905741 
L 106.232412 173.959648 
L 105.882655 174.013584 
L 105.532907 174.067547 
L 105.183168 174.121538 
L 104.833437 174.175557 
L 104.483715 174.229604 
L 104.134002 174.283679 
L 104.134002 174.283679 
" clip-path="url(#p2d96fa1b63)" style="fill: none; stroke: #0000ff; stroke-width: 0.5; stroke-linecap: square"/>
   </g>
   <g id="line2d_4">
    <path d="M 133.821835 160.135682 
L 133.821835 160.135682 
L 134.132246 159.812837 
L 134.442704 159.489991 
L 134.753208 159.167143 
L 135.06376 158.844294 
L 135.374358 158.521443 
L 135.685002 158.198591 
L 135.995694 157.875738 
L 136.306432 157.552882 
L 136.617217 157.230026 
L 136.928049 156.907168 
L 137.238928 156.584308 
L 137.549853 156.261448 
L 137.860826 155.938585 
L 138.171845 155.615722 
L 138.482911 155.292857 
L 138.794024 154.96999 
L 139.105184 154.647122 
L 139.416391 154.324253 
L 139.727644 154.001382 
L 140.038945 153.67851 
L 140.350292 153.355637 
L 140.661687 153.032762 
L 140.973128 152.709886 
L 141.284616 152.387008 
L 141.596152 152.064129 
L 141.907734 151.741249 
L 142.219363 151.418367 
L 142.531039 151.095484 
L 142.842763 150.7726 
L 143.154533 150.449715 
L 143.46635 150.126828 
L 143.778215 149.80394 
L 144.090126 149.48105 
L 144.402085 149.15816 
L 144.714091 148.835268 
L 145.026143 148.512374 
L 145.338243 148.18948 
L 145.65039 147.866584 
L 145.962584 147.543687 
L 146.274825 147.220788 
L 146.587114 146.897889 
L 146.899449 146.574988 
L 147.211832 146.252086 
L 147.524262 145.929183 
L 147.836739 145.606278 
L 148.149263 145.283373 
L 148.461835 144.960466 
L 148.774454 144.637558 
L 149.08712 144.314648 
L 149.399833 143.991738 
L 149.712593 143.668826 
L 150.025401 143.345914 
L 150.338256 143.023 
L 150.651159 142.700084 
L 150.964108 142.377168 
L 151.277106 142.054251 
L 151.59015 141.731332 
L 151.903242 141.408413 
L 152.216381 141.085492 
L 152.529567 140.76257 
L 152.842801 140.439647 
L 153.156082 140.116723 
L 153.469411 139.793797 
L 153.782787 139.470871 
L 154.09621 139.147944 
L 154.409681 138.825015 
L 154.723199 138.502086 
L 155.036765 138.179155 
L 155.350379 137.856223 
L 155.664039 137.533291 
L 155.977747 137.210357 
L 156.291503 136.887422 
L 156.605307 136.564486 
L 156.919157 136.241549 
L 157.233056 135.918611 
L 157.547001 135.595673 
L 157.860995 135.272733 
L 158.175036 134.949792 
L 158.489125 134.62685 
L 158.803261 134.303907 
L 159.117445 133.980963 
L 159.431676 133.658018 
L 159.745955 133.335073 
L 160.060282 133.012126 
L 160.374656 132.689178 
L 160.689078 132.36623 
L 161.003548 132.04328 
L 161.318065 131.72033 
L 161.63263 131.397378 
L 161.947243 131.074426 
L 162.261903 130.751473 
L 162.576612 130.428519 
L 162.891368 130.105564 
L 163.206171 129.782608 
L 163.521023 129.459651 
L 163.835922 129.136693 
L 164.150869 128.813735 
L 164.465864 128.490775 
L 164.780907 128.167815 
L 165.095997 127.844854 
L 165.411136 127.521892 
L 165.411136 127.521892 
" clip-path="url(#p2d96fa1b63)" style="fill: none; stroke: #0000ff; stroke-width: 0.5; stroke-linecap: square"/>
   </g>
   <g id="line2d_5">
    <path d="M 133.821835 160.135682 
L 133.821835 160.135682 
L 133.108437 160.313031 
L 132.395098 160.490493 
L 131.681818 160.668067 
L 130.968597 160.845753 
L 130.255435 161.023551 
L 129.542332 161.201461 
L 128.829288 161.379483 
L 128.116304 161.557617 
L 127.403378 161.735862 
L 126.690512 161.91422 
L 125.977705 162.092689 
L 125.264957 162.271271 
L 124.552269 162.449964 
L 123.83964 162.628769 
L 123.12707 162.807685 
L 122.41456 162.986713 
L 121.702109 163.165853 
L 120.989718 163.345104 
L 120.277386 163.524467 
L 119.565113 163.703942 
L 118.8529 163.883528 
L 118.140747 164.063225 
L 117.428653 164.243034 
L 116.716619 164.422955 
L 116.004645 164.602986 
L 115.29273 164.783129 
L 114.580875 164.963383 
L 113.86908 165.143749 
L 113.157344 165.324226 
L 112.445668 165.504814 
L 111.734052 165.685513 
L 111.022496 165.866323 
L 110.311 166.047244 
L 109.599564 166.228276 
L 108.888187 166.40942 
L 108.176871 166.590674 
L 107.465615 166.772039 
L 106.754418 166.953515 
L 106.043282 167.135102 
L 105.332206 167.3168 
L 104.62119 167.498609 
L 103.910234 167.680528 
L 103.199338 167.862559 
L 102.488503 168.0447 
L 101.777727 168.226951 
L 101.067012 168.409313 
L 100.356357 168.591786 
L 99.645763 168.774369 
L 98.935229 168.957063 
L 98.224755 169.139868 
L 97.514341 169.322783 
L 96.803989 169.505808 
L 96.093696 169.688943 
L 95.383464 169.872189 
L 94.673292 170.055546 
L 93.963182 170.239012 
L 93.253131 170.422589 
L 92.543141 170.606276 
L 91.833212 170.790074 
L 91.123344 170.973981 
L 90.413536 171.157998 
L 89.703789 171.342126 
L 88.994102 171.526364 
L 88.284477 171.710711 
L 87.574912 171.895169 
L 86.865408 172.079736 
L 86.155965 172.264414 
L 85.446582 172.449201 
L 84.737261 172.634098 
L 84.028001 172.819105 
L 83.318801 173.004222 
L 82.609663 173.189448 
L 81.900585 173.374784 
L 81.191569 173.56023 
L 80.482613 173.745786 
L 79.773719 173.931451 
L 79.064886 174.117225 
L 78.356114 174.303109 
L 77.647403 174.489103 
L 76.938754 174.675206 
L 76.230165 174.861418 
L 75.521638 175.04774 
L 74.813172 175.234171 
L 74.104768 175.420711 
L 73.396425 175.607361 
L 72.688143 175.79412 
L 71.979923 175.980988 
L 71.271764 176.167965 
L 70.563666 176.355052 
L 69.85563 176.542247 
L 69.147656 176.729552 
L 68.439743 176.916965 
L 67.731892 177.104488 
L 67.024102 177.292119 
L 66.316374 177.47986 
L 65.608707 177.667709 
L 64.901103 177.855667 
L 64.19356 178.043734 
L 63.486078 178.23191 
L 62.778659 178.420195 
L 62.071301 178.608588 
L 62.071301 178.608588 
" clip-path="url(#p2d96fa1b63)" style="fill: none; stroke: #0000ff; stroke-width: 0.5; stroke-linecap: square"/>
   </g>
   <g id="line2d_6">
    <path d="M 155.293302 139.431834 
L 155.293302 139.431834 
L 155.393202 139.313957 
L 155.493107 139.19608 
L 155.593018 139.078201 
L 155.692935 138.960322 
L 155.792856 138.842442 
L 155.892784 138.724561 
L 155.992717 138.606679 
L 156.092655 138.488796 
L 156.192599 138.370912 
L 156.292549 138.253028 
L 156.392504 138.135142 
L 156.492464 138.017256 
L 156.59243 137.899369 
L 156.692402 137.781481 
L 156.792379 137.663592 
L 156.892361 137.545702 
L 156.992349 137.427812 
L 157.092343 137.30992 
L 157.192342 137.192028 
L 157.292347 137.074134 
L 157.392357 136.95624 
L 157.492373 136.838345 
L 157.592394 136.720449 
L 157.692421 136.602553 
L 157.792454 136.484655 
L 157.892492 136.366756 
L 157.992535 136.248857 
L 158.092584 136.130957 
L 158.192638 136.013056 
L 158.292698 135.895154 
L 158.392764 135.777251 
L 158.492835 135.659347 
L 158.592912 135.541442 
L 158.692994 135.423537 
L 158.793082 135.30563 
L 158.893175 135.187723 
L 158.993274 135.069815 
L 159.093378 134.951906 
L 159.193488 134.833996 
L 159.293603 134.716085 
L 159.393724 134.598174 
L 159.493851 134.480261 
L 159.593983 134.362348 
L 159.69412 134.244434 
L 159.794263 134.126519 
L 159.894412 134.008603 
L 159.994566 133.890686 
L 160.094726 133.772768 
L 160.194891 133.65485 
L 160.295062 133.53693 
L 160.395238 133.41901 
L 160.49542 133.301089 
L 160.595608 133.183167 
L 160.6958 133.065244 
L 160.795999 132.94732 
L 160.896203 132.829396 
L 160.996413 132.71147 
L 161.096628 132.593544 
L 161.196849 132.475616 
L 161.297075 132.357688 
L 161.397307 132.239759 
L 161.497544 132.12183 
L 161.597787 132.003899 
L 161.698035 131.885967 
L 161.798289 131.768035 
L 161.898549 131.650102 
L 161.998814 131.532167 
L 162.099085 131.414232 
L 162.199361 131.296296 
L 162.299643 131.17836 
L 162.39993 131.060422 
L 162.500223 130.942484 
L 162.600521 130.824544 
L 162.700825 130.706604 
L 162.801135 130.588663 
L 162.90145 130.470721 
L 163.001771 130.352778 
L 163.102097 130.234835 
L 163.202429 130.11689 
L 163.302766 129.998945 
L 163.403109 129.880998 
L 163.503458 129.763051 
L 163.603812 129.645103 
L 163.704171 129.527154 
L 163.804536 129.409205 
L 163.904907 129.291254 
L 164.005283 129.173303 
L 164.105665 129.05535 
L 164.206053 128.937397 
L 164.306446 128.819443 
L 164.406844 128.701488 
L 164.507248 128.583533 
L 164.607658 128.465576 
L 164.708073 128.347619 
L 164.808494 128.22966 
L 164.90892 128.111701 
L 165.009352 127.993741 
L 165.10979 127.87578 
L 165.210233 127.757818 
L 165.310681 127.639856 
L 165.411136 127.521892 
L 165.411136 127.521892 
" clip-path="url(#p2d96fa1b63)" style="fill: none; stroke: #0000ff; stroke-width: 0.5; stroke-linecap: square"/>
   </g>
   <g id="line2d_7">
    <path d="M 155.293302 139.431834 
L 155.293302 139.431834 
L 155.130876 139.468706 
L 154.968452 139.505584 
L 154.806031 139.542468 
L 154.643613 139.579357 
L 154.481198 139.616253 
L 154.318786 139.653155 
L 154.156376 139.690062 
L 153.993969 139.726975 
L 153.831565 139.763895 
L 153.669164 139.80082 
L 153.506765 139.837751 
L 153.34437 139.874688 
L 153.181977 139.911631 
L 153.019587 139.94858 
L 152.8572 139.985534 
L 152.694816 140.022495 
L 152.532434 140.059461 
L 152.370055 140.096434 
L 152.207679 140.133412 
L 152.045306 140.170396 
L 151.882936 140.207386 
L 151.720569 140.244383 
L 151.558204 140.281384 
L 151.395842 140.318392 
L 151.233483 140.355406 
L 151.071127 140.392426 
L 150.908774 140.429451 
L 150.746423 140.466483 
L 150.584075 140.50352 
L 150.42173 140.540563 
L 150.259388 140.577612 
L 150.097049 140.614667 
L 149.934712 140.651728 
L 149.772379 140.688795 
L 149.610048 140.725868 
L 149.44772 140.762946 
L 149.285395 140.800031 
L 149.123072 140.837121 
L 148.960753 140.874217 
L 148.798436 140.91132 
L 148.636122 140.948428 
L 148.473811 140.985542 
L 148.311503 141.022662 
L 148.149197 141.059787 
L 147.986895 141.096919 
L 147.824595 141.134057 
L 147.662298 141.1712 
L 147.500004 141.208349 
L 147.337712 141.245505 
L 147.175424 141.282666 
L 147.013138 141.319833 
L 146.850855 141.357006 
L 146.688575 141.394184 
L 146.526298 141.431369 
L 146.364024 141.46856 
L 146.201752 141.505756 
L 146.039483 141.542958 
L 145.877217 141.580167 
L 145.714954 141.617381 
L 145.552694 141.654601 
L 145.390437 141.691827 
L 145.228182 141.729058 
L 145.06593 141.766296 
L 144.903681 141.80354 
L 144.741435 141.840789 
L 144.579192 141.878044 
L 144.416952 141.915306 
L 144.254714 141.952573 
L 144.092479 141.989846 
L 143.930247 142.027124 
L 143.768018 142.064409 
L 143.605792 142.1017 
L 143.443568 142.138996 
L 143.281348 142.176299 
L 143.11913 142.213607 
L 142.956915 142.250921 
L 142.794703 142.288241 
L 142.632494 142.325567 
L 142.470287 142.362899 
L 142.308084 142.400237 
L 142.145883 142.43758 
L 141.983685 142.474929 
L 141.82149 142.512285 
L 141.659298 142.549646 
L 141.497108 142.587013 
L 141.334922 142.624386 
L 141.172738 142.661765 
L 141.010557 142.699149 
L 140.848379 142.73654 
L 140.686204 142.773936 
L 140.524031 142.811339 
L 140.361862 142.848747 
L 140.199695 142.886161 
L 140.037531 142.923581 
L 139.87537 142.961007 
L 139.713212 142.998439 
L 139.551056 143.035876 
L 139.388904 143.07332 
L 139.226754 143.110769 
L 139.064608 143.148224 
L 138.902464 143.185685 
L 138.902464 143.185685 
" clip-path="url(#p2d96fa1b63)" style="fill: none; stroke: #0000ff; stroke-width: 0.5; stroke-linecap: square"/>
   </g>
   <g id="line2d_8">
    <path d="M 124.314494 218.563296 
L 124.314494 218.563296 
L 124.133999 218.617112 
L 123.953507 218.670936 
L 123.773021 218.724766 
L 123.592538 218.778602 
L 123.41206 218.832446 
L 123.231587 218.886297 
L 123.051118 218.940154 
L 122.870653 218.994018 
L 122.690193 219.04789 
L 122.509738 219.101768 
L 122.329287 219.155652 
L 122.14884 219.209544 
L 121.968398 219.263443 
L 121.78796 219.317348 
L 121.607527 219.371261 
L 121.427098 219.42518 
L 121.246673 219.479106 
L 121.066254 219.533039 
L 120.885838 219.586978 
L 120.705427 219.640925 
L 120.525021 219.694879 
L 120.344618 219.748839 
L 120.164221 219.802806 
L 119.983828 219.85678 
L 119.803439 219.910761 
L 119.623055 219.964749 
L 119.442675 220.018743 
L 119.2623 220.072745 
L 119.081929 220.126753 
L 118.901563 220.180768 
L 118.721201 220.23479 
L 118.540843 220.288819 
L 118.36049 220.342855 
L 118.180142 220.396897 
L 117.999798 220.450946 
L 117.819458 220.505003 
L 117.639123 220.559066 
L 117.458793 220.613136 
L 117.278467 220.667212 
L 117.098145 220.721296 
L 116.917828 220.775386 
L 116.737515 220.829484 
L 116.557207 220.883588 
L 116.376903 220.937699 
L 116.196604 220.991816 
L 116.016309 221.045941 
L 115.836019 221.100072 
L 115.655733 221.154211 
L 115.475451 221.208356 
L 115.295174 221.262508 
L 115.114902 221.316667 
L 114.934634 221.370832 
L 114.75437 221.425005 
L 114.574111 221.479184 
L 114.393857 221.53337 
L 114.213607 221.587563 
L 114.033361 221.641763 
L 113.85312 221.69597 
L 113.672883 221.750183 
L 113.492651 221.804403 
L 113.312423 221.858631 
L 113.1322 221.912864 
L 112.951981 221.967105 
L 112.771767 222.021353 
L 112.591557 222.075607 
L 112.411352 222.129869 
L 112.231151 222.184137 
L 112.050955 222.238412 
L 111.870763 222.292693 
L 111.690576 222.346982 
L 111.510393 222.401277 
L 111.330214 222.455579 
L 111.150041 222.509888 
L 110.969871 222.564204 
L 110.789706 222.618527 
L 110.609546 222.672856 
L 110.42939 222.727193 
L 110.249238 222.781536 
L 110.069091 222.835886 
L 109.888949 222.890243 
L 109.708811 222.944606 
L 109.528677 222.998977 
L 109.348548 223.053354 
L 109.168423 223.107738 
L 108.988303 223.162129 
L 108.808188 223.216526 
L 108.628077 223.270931 
L 108.44797 223.325342 
L 108.267868 223.37976 
L 108.08777 223.434185 
L 107.907677 223.488617 
L 107.727588 223.543055 
L 107.547504 223.5975 
L 107.367425 223.651953 
L 107.187349 223.706412 
L 107.007279 223.760877 
L 106.827212 223.81535 
L 106.647151 223.869829 
L 106.467093 223.924315 
L 106.287041 223.978808 
L 106.106992 224.033308 
L 106.106992 224.033308 
" clip-path="url(#p2d96fa1b63)" style="fill: none; stroke: #0000ff; stroke-width: 0.5; stroke-linecap: square"/>
   </g>
   <g id="line2d_9">
    <path d="M 124.314494 218.563296 
L 124.314494 218.563296 
L 124.116696 218.126615 
L 123.918857 217.6899 
L 123.720979 217.253151 
L 123.523061 216.816367 
L 123.325103 216.379548 
L 123.127106 215.942695 
L 122.929069 215.505808 
L 122.730993 215.068887 
L 122.532876 214.631931 
L 122.33472 214.19494 
L 122.136524 213.757915 
L 121.938288 213.320856 
L 121.740013 212.883762 
L 121.541698 212.446634 
L 121.343342 212.009471 
L 121.144947 211.572273 
L 120.946513 211.135042 
L 120.748038 210.697775 
L 120.549523 210.260475 
L 120.350968 209.823139 
L 120.152374 209.38577 
L 119.95374 208.948365 
L 119.755065 208.510926 
L 119.556351 208.073453 
L 119.357596 207.635945 
L 119.158802 207.198402 
L 118.959967 206.760825 
L 118.761093 206.323214 
L 118.562178 205.885568 
L 118.363224 205.447887 
L 118.164229 205.010171 
L 117.965194 204.572421 
L 117.766119 204.134637 
L 117.567004 203.696817 
L 117.367849 203.258964 
L 117.168653 202.821075 
L 116.969418 202.383152 
L 116.770142 201.945194 
L 116.570826 201.507202 
L 116.37147 201.069175 
L 116.172073 200.631113 
L 115.972636 200.193016 
L 115.773159 199.754885 
L 115.573642 199.316719 
L 115.374084 198.878519 
L 115.174486 198.440284 
L 114.974848 198.002014 
L 114.775169 197.563709 
L 114.57545 197.12537 
L 114.37569 196.686996 
L 114.17589 196.248587 
L 113.97605 195.810143 
L 113.776169 195.371665 
L 113.576248 194.933151 
L 113.376286 194.494604 
L 113.176284 194.056021 
L 112.976241 193.617403 
L 112.776158 193.178751 
L 112.576034 192.740064 
L 112.37587 192.301342 
L 112.175665 191.862585 
L 111.975419 191.423794 
L 111.775133 190.984967 
L 111.574806 190.546106 
L 111.374438 190.10721 
L 111.17403 189.668279 
L 110.973581 189.229313 
L 110.773092 188.790313 
L 110.572562 188.351277 
L 110.371991 187.912207 
L 110.171379 187.473101 
L 109.970727 187.033961 
L 109.770033 186.594786 
L 109.569299 186.155576 
L 109.368525 185.716331 
L 109.167709 185.277051 
L 108.966853 184.837736 
L 108.765955 184.398386 
L 108.565017 183.959002 
L 108.364038 183.519582 
L 108.163018 183.080127 
L 107.961957 182.640638 
L 107.760855 182.201113 
L 107.559712 181.761553 
L 107.358529 181.321959 
L 107.157304 180.882329 
L 106.956038 180.442664 
L 106.754731 180.002965 
L 106.553383 179.56323 
L 106.351994 179.12346 
L 106.150564 178.683656 
L 105.949093 178.243816 
L 105.747581 177.803941 
L 105.546028 177.364031 
L 105.344434 176.924086 
L 105.142798 176.484106 
L 104.941121 176.044091 
L 104.739403 175.60404 
L 104.537644 175.163955 
L 104.335844 174.723834 
L 104.134002 174.283679 
L 104.134002 174.283679 
" clip-path="url(#p2d96fa1b63)" style="fill: none; stroke: #0000ff; stroke-width: 0.5; stroke-linecap: square"/>
   </g>
   <g id="line2d_10">
    <path d="M 106.106992 224.033308 
L 106.106992 224.033308 
L 105.911637 224.044264 
L 105.716283 224.05523 
L 105.520929 224.066203 
L 105.325577 224.077186 
L 105.130225 224.088178 
L 104.934875 224.099178 
L 104.739525 224.110187 
L 104.544177 224.121205 
L 104.348829 224.132231 
L 104.153483 224.143267 
L 103.958137 224.154311 
L 103.762792 224.165364 
L 103.567449 224.176425 
L 103.372106 224.187496 
L 103.176765 224.198575 
L 102.981424 224.209663 
L 102.786084 224.22076 
L 102.590746 224.231865 
L 102.395408 224.24298 
L 102.200071 224.254103 
L 102.004736 224.265235 
L 101.809401 224.276375 
L 101.614067 224.287525 
L 101.418735 224.298683 
L 101.223403 224.30985 
L 101.028072 224.321026 
L 100.832743 224.33221 
L 100.637414 224.343403 
L 100.442086 224.354605 
L 100.24676 224.365816 
L 100.051434 224.377036 
L 99.856109 224.388264 
L 99.660786 224.399501 
L 99.465463 224.410747 
L 99.270141 224.422002 
L 99.074821 224.433265 
L 98.879501 224.444538 
L 98.684183 224.455819 
L 98.488865 224.467108 
L 98.293548 224.478407 
L 98.098233 224.489714 
L 97.902918 224.50103 
L 97.707605 224.512355 
L 97.512292 224.523689 
L 97.316981 224.535031 
L 97.12167 224.546382 
L 96.926361 224.557742 
L 96.731052 224.569111 
L 96.535745 224.580488 
L 96.340438 224.591874 
L 96.145133 224.603269 
L 95.949828 224.614673 
L 95.754525 224.626086 
L 95.559222 224.637507 
L 95.363921 224.648937 
L 95.168621 224.660376 
L 94.973322 224.671824 
L 94.778023 224.68328 
L 94.582726 224.694745 
L 94.38743 224.706219 
L 94.192135 224.717702 
L 93.99684 224.729193 
L 93.801547 224.740693 
L 93.606255 224.752202 
L 93.410964 224.76372 
L 93.215674 224.775246 
L 93.020385 224.786782 
L 92.825097 224.798326 
L 92.62981 224.809879 
L 92.434524 224.82144 
L 92.239239 224.83301 
L 92.043955 224.844589 
L 91.848672 224.856177 
L 91.653391 224.867774 
L 91.45811 224.879379 
L 91.26283 224.890993 
L 91.067551 224.902616 
L 90.872274 224.914248 
L 90.676997 224.925889 
L 90.481722 224.937538 
L 90.286447 224.949196 
L 90.091174 224.960862 
L 89.895901 224.972538 
L 89.70063 224.984222 
L 89.50536 224.995915 
L 89.31009 225.007617 
L 89.114822 225.019327 
L 88.919555 225.031047 
L 88.724289 225.042775 
L 88.529024 225.054512 
L 88.33376 225.066257 
L 88.138497 225.078012 
L 87.943235 225.089775 
L 87.747974 225.101547 
L 87.552714 225.113327 
L 87.357455 225.125117 
L 87.162197 225.136915 
L 86.966941 225.148722 
L 86.771685 225.160537 
L 86.57643 225.172362 
L 86.381177 225.184195 
L 86.381177 225.184195 
" clip-path="url(#p2d96fa1b63)" style="fill: none; stroke: #0000ff; stroke-width: 0.5; stroke-linecap: square"/>
   </g>
   <g id="line2d_11">
    <path d="M 62.071301 178.608588 
L 62.071301 178.608588 
L 61.911564 179.183163 
L 61.751869 179.757669 
L 61.592217 180.332105 
L 61.432608 180.90647 
L 61.273041 181.480766 
L 61.113517 182.054992 
L 60.954034 182.629148 
L 60.794595 183.203234 
L 60.635197 183.77725 
L 60.475843 184.351196 
L 60.31653 184.925073 
L 60.15726 185.49888 
L 59.998032 186.072617 
L 59.838846 186.646284 
L 59.679703 187.219882 
L 59.520601 187.79341 
L 59.361542 188.366869 
L 59.202525 188.940258 
L 59.043551 189.513577 
L 58.884618 190.086827 
L 58.725728 190.660007 
L 58.566879 191.233118 
L 58.408073 191.806159 
L 58.249309 192.379131 
L 58.090587 192.952034 
L 57.931906 193.524867 
L 57.773268 194.09763 
L 57.614672 194.670325 
L 57.456117 195.24295 
L 57.297605 195.815506 
L 57.139134 196.387992 
L 56.980706 196.960409 
L 56.822319 197.532758 
L 56.663974 198.105036 
L 56.50567 198.677246 
L 56.347409 199.249387 
L 56.189189 199.821458 
L 56.031011 200.393461 
L 55.872875 200.965394 
L 55.71478 201.537259 
L 55.556727 202.109054 
L 55.398715 202.680781 
L 55.240746 203.252438 
L 55.082818 203.824027 
L 54.924931 204.395546 
L 54.767086 204.966997 
L 54.609282 205.538379 
L 54.45152 206.109692 
L 54.2938 206.680937 
L 54.136121 207.252112 
L 53.978483 207.823219 
L 53.820887 208.394257 
L 53.663332 208.965227 
L 53.505818 209.536127 
L 53.348346 210.10696 
L 53.190915 210.677723 
L 53.033525 211.248418 
L 52.876177 211.819045 
L 52.71887 212.389603 
L 52.561604 212.960092 
L 52.40438 213.530513 
L 52.247196 214.100865 
L 52.090054 214.671149 
L 51.932953 215.241365 
L 51.775893 215.811512 
L 51.618874 216.381591 
L 51.461896 216.951602 
L 51.304959 217.521544 
L 51.148064 218.091418 
L 50.991209 218.661224 
L 50.834395 219.230962 
L 50.677622 219.800631 
L 50.520891 220.370232 
L 50.3642 220.939765 
L 50.20755 221.50923 
L 50.050941 222.078627 
L 49.894372 222.647956 
L 49.737845 223.217217 
L 49.581358 223.786409 
L 49.424912 224.355534 
L 49.268507 224.924591 
L 49.112143 225.49358 
L 48.955819 226.062501 
L 48.799536 226.631354 
L 48.643294 227.200139 
L 48.487092 227.768856 
L 48.330931 228.337506 
L 48.174811 228.906088 
L 48.018731 229.474602 
L 47.862692 230.043048 
L 47.706694 230.611426 
L 47.550735 231.179737 
L 47.394818 231.74798 
L 47.238941 232.316156 
L 47.083104 232.884264 
L 46.927308 233.452304 
L 46.771552 234.020277 
L 46.615837 234.588183 
L 46.460161 235.15602 
L 46.304527 235.723791 
L 46.148932 236.291494 
L 46.148932 236.291494 
" clip-path="url(#p2d96fa1b63)" style="fill: none; stroke: #0000ff; stroke-width: 0.5; stroke-linecap: square"/>
   </g>
   <g id="line2d_12">
    <path d="M 86.381177 225.184195 
L 86.381177 225.184195 
L 85.98184 225.292473 
L 85.582524 225.400786 
L 85.183227 225.509133 
L 84.78395 225.617513 
L 84.384692 225.725928 
L 83.985455 225.834377 
L 83.586237 225.94286 
L 83.187039 226.051377 
L 82.787861 226.159928 
L 82.388703 226.268513 
L 81.989565 226.377132 
L 81.590446 226.485785 
L 81.191347 226.594473 
L 80.792269 226.703194 
L 80.39321 226.811949 
L 79.994171 226.920739 
L 79.595151 227.029562 
L 79.196152 227.138419 
L 78.797172 227.247311 
L 78.398213 227.356236 
L 77.999273 227.465195 
L 77.600353 227.574189 
L 77.201453 227.683216 
L 76.802573 227.792277 
L 76.403713 227.901372 
L 76.004873 228.010502 
L 75.606053 228.119665 
L 75.207253 228.228862 
L 74.808472 228.338093 
L 74.409712 228.447358 
L 74.010971 228.556656 
L 73.61225 228.665989 
L 73.21355 228.775356 
L 72.814869 228.884756 
L 72.416208 228.994191 
L 72.017567 229.103659 
L 71.618946 229.213162 
L 71.220345 229.322698 
L 70.821764 229.432268 
L 70.423203 229.541872 
L 70.024662 229.651509 
L 69.626141 229.761181 
L 69.22764 229.870886 
L 68.829159 229.980626 
L 68.430698 230.090399 
L 68.032257 230.200206 
L 67.633836 230.310046 
L 67.235435 230.419921 
L 66.837054 230.529829 
L 66.438693 230.639771 
L 66.040352 230.749747 
L 65.642031 230.859757 
L 65.24373 230.969801 
L 64.845449 231.079878 
L 64.447189 231.189989 
L 64.048948 231.300134 
L 63.650727 231.410313 
L 63.252526 231.520525 
L 62.854346 231.630771 
L 62.456185 231.741051 
L 62.058045 231.851364 
L 61.659924 231.961712 
L 61.261824 232.072093 
L 60.863744 232.182507 
L 60.465683 232.292956 
L 60.067643 232.403438 
L 59.669623 232.513954 
L 59.271623 232.624503 
L 58.873644 232.735087 
L 58.475684 232.845703 
L 58.077744 232.956354 
L 57.679825 233.067038 
L 57.281926 233.177756 
L 56.884046 233.288508 
L 56.486187 233.399293 
L 56.088348 233.510111 
L 55.69053 233.620964 
L 55.292731 233.73185 
L 54.894953 233.84277 
L 54.497194 233.953723 
L 54.099456 234.06471 
L 53.701738 234.17573 
L 53.30404 234.286784 
L 52.906362 234.397872 
L 52.508705 234.508993 
L 52.111068 234.620148 
L 51.71345 234.731336 
L 51.315854 234.842558 
L 50.918277 234.953813 
L 50.52072 235.065102 
L 50.123184 235.176425 
L 49.725668 235.287781 
L 49.328172 235.399171 
L 48.930696 235.510594 
L 48.533241 235.62205 
L 48.135805 235.73354 
L 47.73839 235.845064 
L 47.340995 235.956621 
L 46.943621 236.068212 
L 46.546266 236.179836 
L 46.148932 236.291494 
L 46.148932 236.291494 
" clip-path="url(#p2d96fa1b63)" style="fill: none; stroke: #0000ff; stroke-width: 0.5; stroke-linecap: square"/>
   </g>
   <g id="line2d_13">
    <path d="M 240.893594 46.258718 
L 240.893594 46.258718 
L 240.158116 46.751822 
L 239.422812 47.244999 
L 238.687682 47.738249 
L 237.952726 48.231571 
L 237.217944 48.724965 
L 236.483335 49.218432 
L 235.748901 49.711971 
L 235.01464 50.205582 
L 234.280553 50.699265 
L 233.546639 51.193021 
L 232.8129 51.686848 
L 232.079334 52.180747 
L 231.345941 52.674717 
L 230.612722 53.168759 
L 229.879677 53.662873 
L 229.146805 54.157058 
L 228.414106 54.651315 
L 227.681581 55.145643 
L 226.949229 55.640042 
L 226.217051 56.134512 
L 225.485046 56.629053 
L 224.753214 57.123666 
L 224.021555 57.618348 
L 223.29007 58.113102 
L 222.558757 58.607927 
L 221.827618 59.102822 
L 221.096652 59.597787 
L 220.365859 60.092823 
L 219.635238 60.587929 
L 218.904791 61.083106 
L 218.174517 61.578353 
L 217.444415 62.07367 
L 216.714487 62.569056 
L 215.984731 63.064513 
L 215.255148 63.560039 
L 214.525738 64.055636 
L 213.7965 64.551302 
L 213.067435 65.047037 
L 212.338543 65.542842 
L 211.609823 66.038716 
L 210.881276 66.53466 
L 210.152901 67.030673 
L 209.424699 67.526755 
L 208.696669 68.022906 
L 207.968812 68.519126 
L 207.241126 69.015415 
L 206.513614 69.511773 
L 205.786273 70.008199 
L 205.059105 70.504694 
L 204.332109 71.001258 
L 203.605285 71.49789 
L 202.878633 71.99459 
L 202.152153 72.491359 
L 201.425845 72.988196 
L 200.69971 73.485101 
L 199.973746 73.982074 
L 199.247954 74.479115 
L 198.522334 74.976224 
L 197.796886 75.473401 
L 197.07161 75.970646 
L 196.346505 76.467958 
L 195.621572 76.965337 
L 194.896811 77.462785 
L 194.172222 77.960299 
L 193.447804 78.457881 
L 192.723558 78.95553 
L 191.999483 79.453246 
L 191.27558 79.951029 
L 190.551848 80.448879 
L 189.828287 80.946796 
L 189.104898 81.44478 
L 188.381681 81.94283 
L 187.658634 82.440947 
L 186.935759 82.939131 
L 186.213055 83.437381 
L 185.490523 83.935697 
L 184.768161 84.43408 
L 184.045971 84.932529 
L 183.323951 85.431044 
L 182.602103 85.929625 
L 181.880426 86.428272 
L 181.158919 86.926985 
L 180.437584 87.425764 
L 179.716419 87.924608 
L 178.995425 88.423518 
L 178.274602 88.922494 
L 177.55395 89.421535 
L 176.833468 89.920641 
L 176.113157 90.419813 
L 175.393017 90.91905 
L 174.673047 91.418352 
L 173.953248 91.917719 
L 173.23362 92.417152 
L 172.514161 92.916649 
L 171.794874 93.41621 
L 171.075756 93.915837 
L 170.356809 94.415528 
L 169.638033 94.915284 
L 168.919426 95.415104 
L 168.20099 95.914989 
L 167.482724 96.414938 
L 167.482724 96.414938 
" clip-path="url(#p2d96fa1b63)" style="fill: none; stroke: #0000ff; stroke-width: 0.5; stroke-linecap: square"/>
   </g>
   <g id="line2d_14">
    <path d="M 240.893594 46.258718 
L 240.893594 46.258718 
L 240.382704 46.605272 
L 239.871899 46.951861 
L 239.361179 47.298484 
L 238.850544 47.645141 
L 238.339994 47.991833 
L 237.829529 48.338558 
L 237.319148 48.685319 
L 236.808853 49.032113 
L 236.298642 49.378942 
L 235.788516 49.725804 
L 235.278475 50.072701 
L 234.768519 50.419632 
L 234.258648 50.766597 
L 233.748861 51.113597 
L 233.239159 51.46063 
L 232.729542 51.807697 
L 232.22001 52.154798 
L 231.710562 52.501933 
L 231.201199 52.849102 
L 230.691921 53.196305 
L 230.182728 53.543542 
L 229.673619 53.890813 
L 229.164595 54.238117 
L 228.655655 54.585455 
L 228.1468 54.932827 
L 227.63803 55.280233 
L 227.129345 55.627672 
L 226.620744 55.975145 
L 226.112228 56.322652 
L 225.603796 56.670192 
L 225.095449 57.017766 
L 224.587186 57.365373 
L 224.079008 57.713014 
L 223.570914 58.060688 
L 223.062905 58.408396 
L 222.554981 58.756137 
L 222.047141 59.103911 
L 221.539385 59.451719 
L 221.031714 59.79956 
L 220.524127 60.147435 
L 220.016625 60.495342 
L 219.509207 60.843283 
L 219.001874 61.191258 
L 218.494625 61.539265 
L 217.98746 61.887306 
L 217.48038 62.235379 
L 216.973384 62.583486 
L 216.466472 62.931626 
L 215.959645 63.279799 
L 215.452902 63.628005 
L 214.946244 63.976244 
L 214.439669 64.324516 
L 213.933179 64.67282 
L 213.426773 65.021158 
L 212.920452 65.369529 
L 212.414215 65.717932 
L 211.908061 66.066368 
L 211.401993 66.414837 
L 210.896008 66.763339 
L 210.390107 67.111874 
L 209.884291 67.460441 
L 209.378559 67.809041 
L 208.872911 68.157673 
L 208.367347 68.506338 
L 207.861867 68.855036 
L 207.356471 69.203766 
L 206.85116 69.552529 
L 206.345932 69.901324 
L 205.840789 70.250152 
L 205.335729 70.599012 
L 204.830754 70.947905 
L 204.325863 71.29683 
L 203.821055 71.645787 
L 203.316332 71.994777 
L 202.811692 72.343799 
L 202.307137 72.692853 
L 201.802666 73.04194 
L 201.298278 73.391058 
L 200.793974 73.740209 
L 200.289755 74.089392 
L 199.785619 74.438607 
L 199.281567 74.787855 
L 198.777599 75.137134 
L 198.273715 75.486445 
L 197.769914 75.835789 
L 197.266198 76.185164 
L 196.762565 76.534572 
L 196.259016 76.884011 
L 195.755551 77.233482 
L 195.25217 77.582985 
L 194.748872 77.93252 
L 194.245659 78.282087 
L 193.742529 78.631685 
L 193.239482 78.981316 
L 192.73652 79.330978 
L 192.233641 79.680671 
L 191.730845 80.030397 
L 191.228134 80.380154 
L 190.725506 80.729942 
L 190.222961 81.079763 
L 189.720501 81.429615 
L 189.720501 81.429615 
" clip-path="url(#p2d96fa1b63)" style="fill: none; stroke: #0000ff; stroke-width: 0.5; stroke-linecap: square"/>
   </g>
   <g id="line2d_15">
    <path d="M 165.411136 127.521892 
L 165.411136 127.521892 
L 165.431498 127.215005 
L 165.451863 126.908096 
L 165.472232 126.601165 
L 165.492603 126.294212 
L 165.512977 125.987237 
L 165.533354 125.68024 
L 165.553734 125.373221 
L 165.574117 125.066181 
L 165.594503 124.759118 
L 165.614892 124.452034 
L 165.635284 124.144927 
L 165.655679 123.837799 
L 165.676077 123.530649 
L 165.696477 123.223477 
L 165.716881 122.916282 
L 165.737288 122.609066 
L 165.757697 122.301828 
L 165.77811 121.994568 
L 165.798525 121.687286 
L 165.818943 121.379982 
L 165.839365 121.072656 
L 165.859789 120.765309 
L 165.880216 120.457939 
L 165.900647 120.150547 
L 165.92108 119.843133 
L 165.941516 119.535697 
L 165.961955 119.228239 
L 165.982397 118.920759 
L 166.002842 118.613257 
L 166.02329 118.305733 
L 166.043741 117.998187 
L 166.064195 117.690619 
L 166.084652 117.383029 
L 166.105112 117.075417 
L 166.125574 116.767783 
L 166.14604 116.460127 
L 166.166509 116.152449 
L 166.186981 115.844748 
L 166.207455 115.537026 
L 166.227933 115.229281 
L 166.248414 114.921515 
L 166.268897 114.613726 
L 166.289384 114.305916 
L 166.309873 113.998083 
L 166.330366 113.690228 
L 166.350862 113.382351 
L 166.37136 113.074452 
L 166.391861 112.766531 
L 166.412366 112.458588 
L 166.432873 112.150622 
L 166.453384 111.842635 
L 166.473897 111.534625 
L 166.494413 111.226593 
L 166.514933 110.918539 
L 166.535455 110.610463 
L 166.55598 110.302365 
L 166.576509 109.994244 
L 166.59704 109.686102 
L 166.617574 109.377937 
L 166.638112 109.06975 
L 166.658652 108.761541 
L 166.679195 108.45331 
L 166.699741 108.145056 
L 166.720291 107.836781 
L 166.740843 107.528483 
L 166.761398 107.220163 
L 166.781956 106.911821 
L 166.802518 106.603456 
L 166.823082 106.29507 
L 166.843649 105.986661 
L 166.864219 105.67823 
L 166.884792 105.369776 
L 166.905369 105.061301 
L 166.925948 104.752803 
L 166.94653 104.444283 
L 166.967115 104.135741 
L 166.987703 103.827176 
L 167.008295 103.518589 
L 167.028889 103.20998 
L 167.049486 102.901349 
L 167.070086 102.592695 
L 167.09069 102.284019 
L 167.111296 101.975321 
L 167.131905 101.666601 
L 167.152517 101.357858 
L 167.173133 101.049093 
L 167.193751 100.740306 
L 167.214372 100.431496 
L 167.234997 100.122664 
L 167.255624 99.81381 
L 167.276254 99.504933 
L 167.296888 99.196034 
L 167.317524 98.887113 
L 167.338164 98.578169 
L 167.358806 98.269203 
L 167.379452 97.960215 
L 167.4001 97.651204 
L 167.420752 97.342171 
L 167.441406 97.033116 
L 167.462064 96.724038 
L 167.482724 96.414938 
L 167.482724 96.414938 
" clip-path="url(#p2d96fa1b63)" style="fill: none; stroke: #0000ff; stroke-width: 0.5; stroke-linecap: square"/>
   </g>
   <g id="line2d_16">
    <path d="M 165.411136 127.521892 
L 165.411136 127.521892 
L 165.26126 127.469578 
L 165.11138 127.417268 
L 164.961496 127.364963 
L 164.811609 127.312662 
L 164.661719 127.260367 
L 164.511824 127.208075 
L 164.361926 127.155789 
L 164.212024 127.103507 
L 164.062119 127.05123 
L 163.912209 126.998958 
L 163.762297 126.94669 
L 163.61238 126.894427 
L 163.46246 126.842169 
L 163.312536 126.789915 
L 163.162608 126.737666 
L 163.012677 126.685422 
L 162.862742 126.633182 
L 162.712803 126.580948 
L 162.562861 126.528717 
L 162.412915 126.476492 
L 162.262965 126.424271 
L 162.113012 126.372055 
L 161.963055 126.319843 
L 161.813094 126.267637 
L 161.66313 126.215435 
L 161.513161 126.163237 
L 161.36319 126.111044 
L 161.213214 126.058856 
L 161.063235 126.006673 
L 160.913252 125.954494 
L 160.763266 125.90232 
L 160.613276 125.850151 
L 160.463282 125.797987 
L 160.313284 125.745827 
L 160.163283 125.693672 
L 160.013278 125.641521 
L 159.863269 125.589375 
L 159.713257 125.537234 
L 159.563241 125.485098 
L 159.413221 125.432966 
L 159.263198 125.380839 
L 159.113171 125.328717 
L 158.963141 125.276599 
L 158.813106 125.224486 
L 158.663068 125.172378 
L 158.513026 125.120274 
L 158.362981 125.068176 
L 158.212932 125.016082 
L 158.062879 124.963992 
L 157.912823 124.911907 
L 157.762763 124.859827 
L 157.612699 124.807752 
L 157.462632 124.755681 
L 157.312561 124.703615 
L 157.162486 124.651554 
L 157.012407 124.599498 
L 156.862325 124.547446 
L 156.712239 124.495399 
L 156.56215 124.443356 
L 156.412057 124.391319 
L 156.26196 124.339286 
L 156.111859 124.287257 
L 155.961755 124.235234 
L 155.811647 124.183215 
L 155.661536 124.131201 
L 155.511421 124.079191 
L 155.361302 124.027186 
L 155.211179 123.975186 
L 155.061053 123.923191 
L 154.910923 123.8712 
L 154.76079 123.819214 
L 154.610652 123.767233 
L 154.460511 123.715257 
L 154.310367 123.663285 
L 154.160219 123.611318 
L 154.010067 123.559355 
L 153.859911 123.507398 
L 153.709752 123.455445 
L 153.559589 123.403496 
L 153.409422 123.351553 
L 153.259252 123.299614 
L 153.109078 123.24768 
L 152.9589 123.19575 
L 152.808719 123.143826 
L 152.658534 123.091906 
L 152.508346 123.039991 
L 152.358153 122.98808 
L 152.207957 122.936174 
L 152.057758 122.884273 
L 151.907554 122.832377 
L 151.757347 122.780485 
L 151.607137 122.728598 
L 151.456923 122.676716 
L 151.306705 122.624838 
L 151.156483 122.572965 
L 151.006258 122.521097 
L 150.856029 122.469234 
L 150.705796 122.417375 
L 150.55556 122.365521 
L 150.40532 122.313672 
L 150.255076 122.261828 
L 150.255076 122.261828 
" clip-path="url(#p2d96fa1b63)" style="fill: none; stroke: #0000ff; stroke-width: 0.5; stroke-linecap: square"/>
   </g>
   <g id="line2d_17">
    <path d="M 165.368222 85.294557 
L 165.368222 85.294557 
L 165.609113 85.255613 
L 165.850009 85.216682 
L 166.090909 85.177764 
L 166.331814 85.13886 
L 166.572723 85.09997 
L 166.813636 85.061093 
L 167.054554 85.02223 
L 167.295476 84.98338 
L 167.536403 84.944544 
L 167.777334 84.905721 
L 168.01827 84.866912 
L 168.25921 84.828116 
L 168.500155 84.789334 
L 168.741104 84.750565 
L 168.982057 84.71181 
L 169.223015 84.673069 
L 169.463977 84.634341 
L 169.704944 84.595626 
L 169.945915 84.556925 
L 170.186891 84.518238 
L 170.427871 84.479564 
L 170.668855 84.440904 
L 170.909844 84.402257 
L 171.150837 84.363624 
L 171.391835 84.325004 
L 171.632837 84.286398 
L 171.873844 84.247806 
L 172.114855 84.209227 
L 172.35587 84.170661 
L 172.59689 84.132109 
L 172.837914 84.093571 
L 173.078943 84.055046 
L 173.319976 84.016535 
L 173.561014 83.978037 
L 173.802056 83.939553 
L 174.043102 83.901083 
L 174.284153 83.862626 
L 174.525208 83.824182 
L 174.766267 83.785752 
L 175.007331 83.747336 
L 175.2484 83.708933 
L 175.489472 83.670544 
L 175.730549 83.632168 
L 175.971631 83.593806 
L 176.212717 83.555458 
L 176.453807 83.517123 
L 176.694902 83.478801 
L 176.936001 83.440493 
L 177.177105 83.402199 
L 177.418212 83.363918 
L 177.659325 83.325651 
L 177.900441 83.287398 
L 178.141562 83.249158 
L 178.382688 83.210931 
L 178.623818 83.172718 
L 178.864952 83.134519 
L 179.10609 83.096333 
L 179.347233 83.058161 
L 179.588381 83.020003 
L 179.829532 82.981858 
L 180.070688 82.943726 
L 180.311849 82.905609 
L 180.553014 82.867504 
L 180.794183 82.829414 
L 181.035356 82.791337 
L 181.276534 82.753273 
L 181.517717 82.715223 
L 181.758903 82.677187 
L 182.000094 82.639164 
L 182.24129 82.601155 
L 182.482489 82.563159 
L 182.723693 82.525177 
L 182.964902 82.487209 
L 183.206115 82.449254 
L 183.447332 82.411313 
L 183.688553 82.373385 
L 183.929779 82.335471 
L 184.171009 82.297571 
L 184.412244 82.259684 
L 184.653483 82.221811 
L 184.894726 82.183951 
L 185.135974 82.146105 
L 185.377226 82.108273 
L 185.618482 82.070454 
L 185.859742 82.032649 
L 186.101007 81.994857 
L 186.342277 81.957079 
L 186.58355 81.919314 
L 186.824828 81.881564 
L 187.06611 81.843826 
L 187.307397 81.806103 
L 187.548688 81.768393 
L 187.789983 81.730696 
L 188.031283 81.693013 
L 188.272587 81.655344 
L 188.513895 81.617688 
L 188.755207 81.580046 
L 188.996524 81.542418 
L 189.237845 81.504803 
L 189.479171 81.467202 
L 189.720501 81.429615 
L 189.720501 81.429615 
" clip-path="url(#p2d96fa1b63)" style="fill: none; stroke: #0000ff; stroke-width: 0.5; stroke-linecap: square"/>
   </g>
   <g id="line2d_18">
    <path d="M 165.368222 85.294557 
L 165.368222 85.294557 
L 165.098562 85.189323 
L 164.828889 85.084103 
L 164.559202 84.978899 
L 164.289502 84.873709 
L 164.019788 84.768534 
L 163.750061 84.663373 
L 163.480321 84.558228 
L 163.210566 84.453097 
L 162.940799 84.347981 
L 162.671018 84.24288 
L 162.401223 84.137794 
L 162.131415 84.032722 
L 161.861593 83.927666 
L 161.591758 83.822624 
L 161.32191 83.717597 
L 161.052048 83.612585 
L 160.782172 83.507587 
L 160.512283 83.402605 
L 160.242381 83.297637 
L 159.972465 83.192684 
L 159.702536 83.087746 
L 159.432593 82.982823 
L 159.162637 82.877915 
L 158.892667 82.773021 
L 158.622684 82.668142 
L 158.352687 82.563279 
L 158.082677 82.45843 
L 157.812654 82.353596 
L 157.542617 82.248776 
L 157.272566 82.143972 
L 157.002502 82.039183 
L 156.732425 81.934408 
L 156.462334 81.829648 
L 156.192229 81.724904 
L 155.922112 81.620174 
L 155.65198 81.515458 
L 155.381836 81.410758 
L 155.111678 81.306073 
L 154.841506 81.201403 
L 154.571321 81.096747 
L 154.301122 80.992106 
L 154.030911 80.887481 
L 153.760685 80.78287 
L 153.490446 80.678274 
L 153.220194 80.573693 
L 152.949928 80.469127 
L 152.679649 80.364576 
L 152.409356 80.260039 
L 152.13905 80.155518 
L 151.868731 80.051012 
L 151.598398 79.94652 
L 151.328051 79.842044 
L 151.057692 79.737582 
L 150.787318 79.633135 
L 150.516932 79.528703 
L 150.246532 79.424287 
L 149.976118 79.319885 
L 149.705691 79.215498 
L 149.43525 79.111126 
L 149.164797 79.006769 
L 148.894329 78.902427 
L 148.623849 78.7981 
L 148.353354 78.693787 
L 148.082847 78.58949 
L 147.812326 78.485208 
L 147.541791 78.380941 
L 147.271243 78.276688 
L 147.000682 78.172451 
L 146.730107 78.068229 
L 146.459519 77.964021 
L 146.188917 77.859829 
L 145.918302 77.755652 
L 145.647674 77.651489 
L 145.377032 77.547342 
L 145.106377 77.443209 
L 144.835708 77.339092 
L 144.565026 77.23499 
L 144.294331 77.130902 
L 144.023622 77.02683 
L 143.752899 76.922772 
L 143.482163 76.81873 
L 143.211414 76.714703 
L 142.940652 76.61069 
L 142.669876 76.506693 
L 142.399086 76.402711 
L 142.128283 76.298743 
L 141.857467 76.194791 
L 141.586638 76.090854 
L 141.315794 75.986932 
L 141.044938 75.883024 
L 140.774068 75.779132 
L 140.503185 75.675255 
L 140.232288 75.571393 
L 139.961378 75.467546 
L 139.690455 75.363714 
L 139.419518 75.259897 
L 139.148567 75.156096 
L 138.877604 75.052309 
L 138.606627 74.948537 
L 138.335636 74.84478 
L 138.064632 74.741039 
L 138.064632 74.741039 
" clip-path="url(#p2d96fa1b63)" style="fill: none; stroke: #0000ff; stroke-width: 0.5; stroke-linecap: square"/>
   </g>
   <g id="line2d_19">
    <path d="M 138.064632 74.741039 
L 138.064632 74.741039 
L 138.18938 74.875561 
L 138.31412 75.010083 
L 138.438852 75.144604 
L 138.563576 75.279124 
L 138.688292 75.413644 
L 138.813 75.548163 
L 138.937699 75.682682 
L 139.062391 75.8172 
L 139.187075 75.951718 
L 139.311751 76.086235 
L 139.436419 76.220752 
L 139.561079 76.355268 
L 139.685731 76.489783 
L 139.810375 76.624298 
L 139.935011 76.758813 
L 140.059639 76.893327 
L 140.184259 77.02784 
L 140.308871 77.162353 
L 140.433475 77.296865 
L 140.558071 77.431376 
L 140.682659 77.565888 
L 140.80724 77.700398 
L 140.931812 77.834908 
L 141.056376 77.969417 
L 141.180932 78.103926 
L 141.30548 78.238434 
L 141.430021 78.372942 
L 141.554553 78.507449 
L 141.679077 78.641956 
L 141.803593 78.776462 
L 141.928102 78.910967 
L 142.052602 79.045472 
L 142.177095 79.179977 
L 142.301579 79.31448 
L 142.426056 79.448984 
L 142.550524 79.583486 
L 142.674985 79.717988 
L 142.799437 79.85249 
L 142.923882 79.986991 
L 143.048318 80.121491 
L 143.172747 80.255991 
L 143.297168 80.39049 
L 143.421581 80.524989 
L 143.545985 80.659487 
L 143.670382 80.793985 
L 143.794771 80.928482 
L 143.919152 81.062978 
L 144.043525 81.197474 
L 144.16789 81.331969 
L 144.292247 81.466464 
L 144.416596 81.600958 
L 144.540937 81.735452 
L 144.665271 81.869945 
L 144.789596 82.004437 
L 144.913913 82.138929 
L 145.038222 82.273421 
L 145.162524 82.407911 
L 145.286817 82.542402 
L 145.411103 82.676891 
L 145.53538 82.81138 
L 145.65965 82.945869 
L 145.783911 83.080356 
L 145.908165 83.214844 
L 146.032411 83.349331 
L 146.156649 83.483817 
L 146.280879 83.618302 
L 146.4051 83.752787 
L 146.529314 83.887272 
L 146.653521 84.021756 
L 146.777719 84.156239 
L 146.901909 84.290721 
L 147.026091 84.425204 
L 147.150265 84.559685 
L 147.274432 84.694166 
L 147.39859 84.828646 
L 147.522741 84.963126 
L 147.646883 85.097605 
L 147.771018 85.232084 
L 147.895144 85.366562 
L 148.019263 85.50104 
L 148.143374 85.635517 
L 148.267477 85.769993 
L 148.391572 85.904469 
L 148.515659 86.038944 
L 148.639738 86.173418 
L 148.763809 86.307892 
L 148.887872 86.442366 
L 149.011928 86.576839 
L 149.135975 86.711311 
L 149.260015 86.845782 
L 149.384046 86.980253 
L 149.50807 87.114724 
L 149.632085 87.249194 
L 149.756093 87.383663 
L 149.880093 87.518132 
L 150.004085 87.6526 
L 150.128069 87.787067 
L 150.252045 87.921534 
L 150.376013 88.056001 
L 150.499974 88.190467 
L 150.623926 88.324932 
L 150.623926 88.324932 
" clip-path="url(#p2d96fa1b63)" style="fill: none; stroke: #0000ff; stroke-width: 0.5; stroke-linecap: square"/>
   </g>
   <g id="line2d_20">
    <path d="M 150.623926 88.324932 
L 150.623926 88.324932 
L 150.714574 88.271516 
L 150.805225 88.218101 
L 150.895878 88.164688 
L 150.986533 88.111276 
L 151.077191 88.057865 
L 151.167851 88.004456 
L 151.258513 87.951048 
L 151.349177 87.897641 
L 151.439844 87.844236 
L 151.530513 87.790832 
L 151.621184 87.737429 
L 151.711858 87.684027 
L 151.802534 87.630627 
L 151.893212 87.577228 
L 151.983893 87.52383 
L 152.074576 87.470434 
L 152.165261 87.417038 
L 152.255948 87.363645 
L 152.346638 87.310252 
L 152.43733 87.256861 
L 152.528024 87.203471 
L 152.618721 87.150082 
L 152.70942 87.096695 
L 152.800121 87.043309 
L 152.890825 86.989924 
L 152.98153 86.93654 
L 153.072238 86.883158 
L 153.162949 86.829777 
L 153.253662 86.776398 
L 153.344377 86.723019 
L 153.435094 86.669642 
L 153.525814 86.616267 
L 153.616536 86.562892 
L 153.70726 86.509519 
L 153.797986 86.456147 
L 153.888715 86.402777 
L 153.979446 86.349407 
L 154.07018 86.296039 
L 154.160916 86.242673 
L 154.251654 86.189308 
L 154.342394 86.135943 
L 154.433137 86.082581 
L 154.523881 86.029219 
L 154.614629 85.975859 
L 154.705378 85.9225 
L 154.79613 85.869143 
L 154.886884 85.815786 
L 154.977641 85.762431 
L 155.068399 85.709078 
L 155.15916 85.655725 
L 155.249924 85.602374 
L 155.340689 85.549025 
L 155.431457 85.495676 
L 155.522228 85.442329 
L 155.613 85.388983 
L 155.703775 85.335639 
L 155.794552 85.282295 
L 155.885332 85.228953 
L 155.976113 85.175613 
L 156.066897 85.122273 
L 156.157684 85.068935 
L 156.248472 85.015599 
L 156.339263 84.962263 
L 156.430057 84.908929 
L 156.520852 84.855596 
L 156.61165 84.802265 
L 156.70245 84.748934 
L 156.793253 84.695605 
L 156.884057 84.642278 
L 156.974865 84.588951 
L 157.065674 84.535626 
L 157.156486 84.482303 
L 157.2473 84.42898 
L 157.338116 84.375659 
L 157.428934 84.322339 
L 157.519755 84.269021 
L 157.610578 84.215703 
L 157.701404 84.162387 
L 157.792232 84.109073 
L 157.883062 84.055759 
L 157.973894 84.002447 
L 158.064729 83.949137 
L 158.155566 83.895827 
L 158.246405 83.842519 
L 158.337247 83.789212 
L 158.428091 83.735907 
L 158.518937 83.682603 
L 158.609785 83.6293 
L 158.700636 83.575998 
L 158.791489 83.522698 
L 158.882345 83.469399 
L 158.973202 83.416101 
L 159.064062 83.362805 
L 159.154925 83.30951 
L 159.245789 83.256216 
L 159.336656 83.202924 
L 159.427525 83.149633 
L 159.518397 83.096343 
L 159.609271 83.043054 
L 159.700147 82.989767 
L 159.791025 82.936481 
L 159.791025 82.936481 
" clip-path="url(#p2d96fa1b63)" style="fill: none; stroke: #0000ff; stroke-width: 0.5; stroke-linecap: square"/>
   </g>
   <g id="line2d_21">
    <path d="M 150.623926 88.324932 
L 150.623926 88.324932 
L 150.620245 88.662271 
L 150.616564 88.999583 
L 150.612884 89.336869 
L 150.609205 89.674128 
L 150.605526 90.01136 
L 150.601848 90.348565 
L 150.59817 90.685743 
L 150.594493 91.022895 
L 150.590817 91.36002 
L 150.587141 91.697118 
L 150.583466 92.034189 
L 150.579791 92.371233 
L 150.576117 92.708251 
L 150.572444 93.045242 
L 150.568771 93.382206 
L 150.565098 93.719144 
L 150.561427 94.056055 
L 150.557756 94.392939 
L 150.554085 94.729796 
L 150.550415 95.066627 
L 150.546746 95.403431 
L 150.543077 95.740208 
L 150.539409 96.076959 
L 150.535741 96.413683 
L 150.532074 96.75038 
L 150.528407 97.087051 
L 150.524742 97.423695 
L 150.521076 97.760312 
L 150.517412 98.096903 
L 150.513747 98.433467 
L 150.510084 98.770004 
L 150.506421 99.106515 
L 150.502759 99.442999 
L 150.499097 99.779457 
L 150.495436 100.115888 
L 150.491775 100.452292 
L 150.488115 100.78867 
L 150.484455 101.125021 
L 150.480797 101.461345 
L 150.477138 101.797643 
L 150.473481 102.133915 
L 150.469823 102.47016 
L 150.466167 102.806378 
L 150.462511 103.14257 
L 150.458856 103.478735 
L 150.455201 103.814874 
L 150.451547 104.150986 
L 150.447893 104.487071 
L 150.44424 104.823131 
L 150.440587 105.159163 
L 150.436935 105.495169 
L 150.433284 105.831149 
L 150.429633 106.167102 
L 150.425983 106.503029 
L 150.422334 106.838929 
L 150.418685 107.174803 
L 150.415036 107.51065 
L 150.411388 107.846471 
L 150.407741 108.182265 
L 150.404094 108.518033 
L 150.400448 108.853774 
L 150.396803 109.189489 
L 150.393158 109.525178 
L 150.389513 109.86084 
L 150.38587 110.196476 
L 150.382226 110.532085 
L 150.378584 110.867668 
L 150.374942 111.203225 
L 150.3713 111.538755 
L 150.367659 111.874259 
L 150.364019 112.209736 
L 150.360379 112.545187 
L 150.35674 112.880612 
L 150.353101 113.21601 
L 150.349463 113.551382 
L 150.345826 113.886728 
L 150.342189 114.222047 
L 150.338553 114.55734 
L 150.334917 114.892607 
L 150.331282 115.227847 
L 150.327647 115.563061 
L 150.324013 115.898249 
L 150.32038 116.233411 
L 150.316747 116.568546 
L 150.313115 116.903655 
L 150.309483 117.238737 
L 150.305852 117.573794 
L 150.302221 117.908824 
L 150.298591 118.243827 
L 150.294962 118.578805 
L 150.291333 118.913756 
L 150.287705 119.248681 
L 150.284077 119.58358 
L 150.28045 119.918453 
L 150.276823 120.253299 
L 150.273197 120.58812 
L 150.269572 120.922914 
L 150.265947 121.257681 
L 150.262323 121.592423 
L 150.258699 121.927138 
L 150.255076 122.261828 
L 150.255076 122.261828 
" clip-path="url(#p2d96fa1b63)" style="fill: none; stroke: #0000ff; stroke-width: 0.5; stroke-linecap: square"/>
   </g>
   <g id="line2d_22">
    <path d="M 150.255076 122.261828 
L 150.255076 122.261828 
L 150.348627 121.874135 
L 150.442195 121.486409 
L 150.53578 121.098651 
L 150.629383 120.710859 
L 150.723002 120.323034 
L 150.816638 119.935176 
L 150.910292 119.547285 
L 151.003963 119.15936 
L 151.097651 118.771403 
L 151.191355 118.383413 
L 151.285078 117.995389 
L 151.378817 117.607332 
L 151.472573 117.219242 
L 151.566347 116.831119 
L 151.660137 116.442963 
L 151.753945 116.054774 
L 151.84777 115.666551 
L 151.941612 115.278295 
L 152.035472 114.890006 
L 152.129348 114.501684 
L 152.223242 114.113328 
L 152.317153 113.72494 
L 152.411081 113.336518 
L 152.505026 112.948063 
L 152.598989 112.559574 
L 152.692969 112.171053 
L 152.786966 111.782498 
L 152.88098 111.393909 
L 152.975012 111.005288 
L 153.069061 110.616633 
L 153.163127 110.227945 
L 153.25721 109.839223 
L 153.351311 109.450468 
L 153.445428 109.06168 
L 153.539564 108.672859 
L 153.633716 108.284004 
L 153.727886 107.895116 
L 153.822073 107.506194 
L 153.916277 107.117239 
L 154.010499 106.728251 
L 154.104738 106.339229 
L 154.198994 105.950174 
L 154.293268 105.561086 
L 154.387559 105.171964 
L 154.481867 104.782808 
L 154.576193 104.393619 
L 154.670536 104.004397 
L 154.764897 103.615141 
L 154.859274 103.225852 
L 154.95367 102.83653 
L 155.048082 102.447173 
L 155.142512 102.057784 
L 155.23696 101.668361 
L 155.331424 101.278904 
L 155.425907 100.889414 
L 155.520406 100.49989 
L 155.614923 100.110333 
L 155.709458 99.720742 
L 155.80401 99.331118 
L 155.898579 98.94146 
L 155.993166 98.551768 
L 156.08777 98.162043 
L 156.182392 97.772285 
L 156.277031 97.382492 
L 156.371688 96.992667 
L 156.466362 96.602807 
L 156.561054 96.212914 
L 156.655763 95.822987 
L 156.75049 95.433027 
L 156.845234 95.043033 
L 156.939996 94.653005 
L 157.034775 94.262944 
L 157.129572 93.872849 
L 157.224386 93.48272 
L 157.319218 93.092558 
L 157.414067 92.702362 
L 157.508934 92.312132 
L 157.603819 91.921869 
L 157.698721 91.531571 
L 157.793641 91.14124 
L 157.888578 90.750876 
L 157.983533 90.360477 
L 158.078505 89.970045 
L 158.173495 89.579579 
L 158.268503 89.189079 
L 158.363528 88.798546 
L 158.458571 88.407978 
L 158.553632 88.017377 
L 158.64871 87.626742 
L 158.743805 87.236073 
L 158.838919 86.845371 
L 158.93405 86.454634 
L 159.029199 86.063864 
L 159.124365 85.673059 
L 159.219549 85.282221 
L 159.314751 84.891349 
L 159.40997 84.500444 
L 159.505208 84.109504 
L 159.600462 83.71853 
L 159.695735 83.327523 
L 159.791025 82.936481 
L 159.791025 82.936481 
" clip-path="url(#p2d96fa1b63)" style="fill: none; stroke: #0000ff; stroke-width: 0.5; stroke-linecap: square"/>
   </g>
   <g id="line2d_23">
    <path d="M 159.791025 82.936481 
L 159.791025 82.936481 
L 160.087249 82.920513 
L 160.383475 82.904567 
L 160.679704 82.888641 
L 160.975934 82.872736 
L 161.272167 82.856852 
L 161.568402 82.840989 
L 161.86464 82.825147 
L 162.160879 82.809326 
L 162.457121 82.793526 
L 162.753365 82.777747 
L 163.049611 82.761989 
L 163.34586 82.746252 
L 163.64211 82.730536 
L 163.938363 82.71484 
L 164.234618 82.699166 
L 164.530876 82.683512 
L 164.827135 82.66788 
L 165.123397 82.652269 
L 165.419661 82.636678 
L 165.715927 82.621108 
L 166.012195 82.60556 
L 166.308466 82.590032 
L 166.604738 82.574525 
L 166.901013 82.55904 
L 167.19729 82.543575 
L 167.493569 82.528131 
L 167.789851 82.512708 
L 168.086134 82.497306 
L 168.38242 82.481925 
L 168.678708 82.466565 
L 168.974998 82.451226 
L 169.27129 82.435908 
L 169.567585 82.420611 
L 169.863881 82.405335 
L 170.16018 82.39008 
L 170.456481 82.374845 
L 170.752784 82.359632 
L 171.049089 82.34444 
L 171.345396 82.329269 
L 171.641705 82.314118 
L 171.938017 82.298989 
L 172.23433 82.28388 
L 172.530646 82.268793 
L 172.826964 82.253726 
L 173.123284 82.238681 
L 173.419606 82.223656 
L 173.71593 82.208653 
L 174.012257 82.19367 
L 174.308585 82.178709 
L 174.604916 82.163768 
L 174.901249 82.148848 
L 175.197583 82.133949 
L 175.49392 82.119072 
L 175.790259 82.104215 
L 176.0866 82.089379 
L 176.382943 82.074564 
L 176.679289 82.05977 
L 176.975636 82.044998 
L 177.271985 82.030246 
L 177.568337 82.015515 
L 177.864691 82.000805 
L 178.161046 81.986116 
L 178.457404 81.971448 
L 178.753764 81.956801 
L 179.050125 81.942175 
L 179.346489 81.92757 
L 179.642855 81.912986 
L 179.939223 81.898423 
L 180.235593 81.883881 
L 180.531965 81.869359 
L 180.82834 81.854859 
L 181.124716 81.84038 
L 181.421094 81.825922 
L 181.717474 81.811485 
L 182.013857 81.797069 
L 182.310241 81.782673 
L 182.606627 81.768299 
L 182.903016 81.753946 
L 183.199406 81.739614 
L 183.495799 81.725302 
L 183.792193 81.711012 
L 184.088589 81.696743 
L 184.384988 81.682494 
L 184.681388 81.668267 
L 184.977791 81.654061 
L 185.274195 81.639875 
L 185.570602 81.625711 
L 185.86701 81.611568 
L 186.163421 81.597445 
L 186.459833 81.583344 
L 186.756248 81.569264 
L 187.052664 81.555204 
L 187.349082 81.541166 
L 187.645503 81.527148 
L 187.941925 81.513152 
L 188.23835 81.499177 
L 188.534776 81.485222 
L 188.831204 81.471289 
L 189.127634 81.457376 
L 189.424067 81.443485 
L 189.720501 81.429615 
L 189.720501 81.429615 
" clip-path="url(#p2d96fa1b63)" style="fill: none; stroke: #0000ff; stroke-width: 0.5; stroke-linecap: square"/>
   </g>
   <g id="line2d_24">
    <path d="M 189.720501 81.429615 
L 189.720501 81.429615 
L 189.499548 81.577662 
L 189.278612 81.725716 
L 189.05769 81.873777 
L 188.836785 82.021844 
L 188.615895 82.169918 
L 188.39502 82.317999 
L 188.174161 82.466085 
L 187.953318 82.614179 
L 187.73249 82.762278 
L 187.511678 82.910385 
L 187.290881 83.058497 
L 187.0701 83.206617 
L 186.849334 83.354742 
L 186.628584 83.502874 
L 186.40785 83.651013 
L 186.187131 83.799158 
L 185.966427 83.94731 
L 185.745739 84.095468 
L 185.525067 84.243633 
L 185.30441 84.391804 
L 185.083769 84.539981 
L 184.863143 84.688165 
L 184.642533 84.836356 
L 184.421938 84.984553 
L 184.201359 85.132756 
L 183.980795 85.280966 
L 183.760247 85.429182 
L 183.539714 85.577405 
L 183.319197 85.725634 
L 183.098696 85.87387 
L 182.87821 86.022112 
L 182.65774 86.170361 
L 182.437285 86.318616 
L 182.216845 86.466877 
L 181.996421 86.615145 
L 181.776013 86.763419 
L 181.55562 86.9117 
L 181.335243 87.059987 
L 181.114881 87.208281 
L 180.894535 87.356581 
L 180.674204 87.504887 
L 180.453889 87.6532 
L 180.233589 87.801519 
L 180.013305 87.949845 
L 179.793037 88.098177 
L 179.572783 88.246515 
L 179.352546 88.39486 
L 179.132324 88.543212 
L 178.912117 88.691569 
L 178.691926 88.839933 
L 178.47175 88.988304 
L 178.25159 89.136681 
L 178.031446 89.285064 
L 177.811317 89.433454 
L 177.591203 89.58185 
L 177.371105 89.730252 
L 177.151023 89.878661 
L 176.930956 90.027077 
L 176.710904 90.175498 
L 176.490868 90.323926 
L 176.270848 90.472361 
L 176.050842 90.620801 
L 175.830853 90.769248 
L 175.610879 90.917702 
L 175.39092 91.066162 
L 175.170977 91.214628 
L 174.95105 91.363101 
L 174.731138 91.51158 
L 174.511241 91.660065 
L 174.29136 91.808557 
L 174.071494 91.957055 
L 173.851644 92.105559 
L 173.63181 92.25407 
L 173.411991 92.402587 
L 173.192187 92.55111 
L 172.972399 92.69964 
L 172.752626 92.848176 
L 172.532869 92.996718 
L 172.313127 93.145267 
L 172.093401 93.293822 
L 171.87369 93.442384 
L 171.653995 93.590951 
L 171.434315 93.739526 
L 171.214651 93.888106 
L 170.995002 94.036693 
L 170.775369 94.185286 
L 170.555751 94.333885 
L 170.336148 94.482491 
L 170.116561 94.631103 
L 169.89699 94.779721 
L 169.677434 94.928346 
L 169.457893 95.076976 
L 169.238368 95.225614 
L 169.018859 95.374257 
L 168.799364 95.522907 
L 168.579886 95.671563 
L 168.360422 95.820225 
L 168.140975 95.968894 
L 167.921542 96.117569 
L 167.702126 96.26625 
L 167.482724 96.414938 
L 167.482724 96.414938 
" clip-path="url(#p2d96fa1b63)" style="fill: none; stroke: #0000ff; stroke-width: 0.5; stroke-linecap: square"/>
   </g>
   <g id="line2d_25">
    <path d="M 189.720501 81.429615 
L 189.720501 81.429615 
L 189.720501 81.429615 
L 189.720501 81.429615 
L 189.720501 81.429615 
L 189.720501 81.429615 
L 189.720501 81.429615 
L 189.720501 81.429615 
L 189.720501 81.429615 
L 189.720501 81.429615 
L 189.720501 81.429615 
L 189.720501 81.429615 
L 189.720501 81.429615 
L 189.720501 81.429615 
L 189.720501 81.429615 
L 189.720501 81.429615 
L 189.720501 81.429615 
L 189.720501 81.429615 
L 189.720501 81.429615 
L 189.720501 81.429615 
L 189.720501 81.429615 
L 189.720501 81.429615 
L 189.720501 81.429615 
L 189.720501 81.429615 
L 189.720501 81.429615 
L 189.720501 81.429615 
L 189.720501 81.429615 
L 189.720501 81.429615 
L 189.720501 81.429615 
L 189.720501 81.429615 
L 189.720501 81.429615 
L 189.720501 81.429615 
L 189.720501 81.429615 
L 189.720501 81.429615 
L 189.720501 81.429615 
L 189.720501 81.429615 
L 189.720501 81.429615 
L 189.720501 81.429615 
L 189.720501 81.429615 
L 189.720501 81.429615 
L 189.720501 81.429615 
L 189.720501 81.429615 
L 189.720501 81.429615 
L 189.720501 81.429615 
L 189.720501 81.429615 
L 189.720501 81.429615 
L 189.720501 81.429615 
L 189.720501 81.429615 
L 189.720501 81.429615 
L 189.720501 81.429615 
L 189.720501 81.429615 
L 189.720501 81.429615 
L 189.720501 81.429615 
L 189.720501 81.429615 
L 189.720501 81.429615 
L 189.720501 81.429615 
L 189.720501 81.429615 
L 189.720501 81.429615 
L 189.720501 81.429615 
L 189.720501 81.429615 
L 189.720501 81.429615 
L 189.720501 81.429615 
L 189.720501 81.429615 
L 189.720501 81.429615 
L 189.720501 81.429615 
L 189.720501 81.429615 
L 189.720501 81.429615 
L 189.720501 81.429615 
L 189.720501 81.429615 
L 189.720501 81.429615 
L 189.720501 81.429615 
L 189.720501 81.429615 
L 189.720501 81.429615 
L 189.720501 81.429615 
L 189.720501 81.429615 
L 189.720501 81.429615 
L 189.720501 81.429615 
L 189.720501 81.429615 
L 189.720501 81.429615 
L 189.720501 81.429615 
L 189.720501 81.429615 
L 189.720501 81.429615 
L 189.720501 81.429615 
L 189.720501 81.429615 
L 189.720501 81.429615 
L 189.720501 81.429615 
L 189.720501 81.429615 
L 189.720501 81.429615 
L 189.720501 81.429615 
L 189.720501 81.429615 
L 189.720501 81.429615 
L 189.720501 81.429615 
L 189.720501 81.429615 
L 189.720501 81.429615 
L 189.720501 81.429615 
L 189.720501 81.429615 
L 189.720501 81.429615 
L 189.720501 81.429615 
L 189.720501 81.429615 
L 189.720501 81.429615 
L 189.720501 81.429615 
L 189.720501 81.429615 
L 189.720501 81.429615 
L 189.720501 81.429615 
" clip-path="url(#p2d96fa1b63)" style="fill: none; stroke: #0000ff; stroke-width: 0.5; stroke-linecap: square"/>
   </g>
   <g id="line2d_26">
    <path d="M 167.482724 96.414938 
L 167.482724 96.414938 
L 167.702126 96.26625 
L 167.921542 96.117569 
L 168.140975 95.968894 
L 168.360422 95.820225 
L 168.579886 95.671563 
L 168.799364 95.522907 
L 169.018859 95.374257 
L 169.238368 95.225614 
L 169.457893 95.076976 
L 169.677434 94.928346 
L 169.89699 94.779721 
L 170.116561 94.631103 
L 170.336148 94.482491 
L 170.555751 94.333885 
L 170.775369 94.185286 
L 170.995002 94.036693 
L 171.214651 93.888106 
L 171.434315 93.739526 
L 171.653995 93.590951 
L 171.87369 93.442384 
L 172.093401 93.293822 
L 172.313127 93.145267 
L 172.532869 92.996718 
L 172.752626 92.848176 
L 172.972399 92.69964 
L 173.192187 92.55111 
L 173.411991 92.402587 
L 173.63181 92.25407 
L 173.851644 92.105559 
L 174.071494 91.957055 
L 174.29136 91.808557 
L 174.511241 91.660065 
L 174.731138 91.51158 
L 174.95105 91.363101 
L 175.170977 91.214628 
L 175.39092 91.066162 
L 175.610879 90.917702 
L 175.830853 90.769248 
L 176.050842 90.620801 
L 176.270848 90.472361 
L 176.490868 90.323926 
L 176.710904 90.175498 
L 176.930956 90.027077 
L 177.151023 89.878661 
L 177.371105 89.730252 
L 177.591203 89.58185 
L 177.811317 89.433454 
L 178.031446 89.285064 
L 178.25159 89.136681 
L 178.47175 88.988304 
L 178.691926 88.839933 
L 178.912117 88.691569 
L 179.132324 88.543212 
L 179.352546 88.39486 
L 179.572783 88.246515 
L 179.793037 88.098177 
L 180.013305 87.949845 
L 180.233589 87.801519 
L 180.453889 87.6532 
L 180.674204 87.504887 
L 180.894535 87.356581 
L 181.114881 87.208281 
L 181.335243 87.059987 
L 181.55562 86.9117 
L 181.776013 86.763419 
L 181.996421 86.615145 
L 182.216845 86.466877 
L 182.437285 86.318616 
L 182.65774 86.170361 
L 182.87821 86.022112 
L 183.098696 85.87387 
L 183.319197 85.725634 
L 183.539714 85.577405 
L 183.760247 85.429182 
L 183.980795 85.280966 
L 184.201359 85.132756 
L 184.421938 84.984553 
L 184.642533 84.836356 
L 184.863143 84.688165 
L 185.083769 84.539981 
L 185.30441 84.391804 
L 185.525067 84.243633 
L 185.745739 84.095468 
L 185.966427 83.94731 
L 186.187131 83.799158 
L 186.40785 83.651013 
L 186.628584 83.502874 
L 186.849334 83.354742 
L 187.0701 83.206617 
L 187.290881 83.058497 
L 187.511678 82.910385 
L 187.73249 82.762278 
L 187.953318 82.614179 
L 188.174161 82.466085 
L 188.39502 82.317999 
L 188.615895 82.169918 
L 188.836785 82.021844 
L 189.05769 81.873777 
L 189.278612 81.725716 
L 189.499548 81.577662 
L 189.720501 81.429615 
L 189.720501 81.429615 
" clip-path="url(#p2d96fa1b63)" style="fill: none; stroke: #0000ff; stroke-width: 0.5; stroke-linecap: square"/>
   </g>
   <g id="patch_3">
    <path d="M 7.2 273.312 
L 7.2 7.2 
" style="fill: none; stroke: #000000; stroke-width: 0.8; stroke-linejoin: miter; stroke-linecap: square"/>
   </g>
   <g id="patch_4">
    <path d="M 279.842527 273.312 
L 279.842527 7.2 
" style="fill: none; stroke: #000000; stroke-width: 0.8; stroke-linejoin: miter; stroke-linecap: square"/>
   </g>
   <g id="patch_5">
    <path d="M 7.2 273.312 
L 279.842527 273.312 
" style="fill: none; stroke: #000000; stroke-width: 0.8; stroke-linejoin: miter; stroke-linecap: square"/>
   </g>
   <g id="patch_6">
    <path d="M 7.2 7.2 
L 279.842527 7.2 
" style="fill: none; stroke: #000000; stroke-width: 0.8; stroke-linejoin: miter; stroke-linecap: square"/>
   </g>
   <g id="PathCollection_1">
    <defs>
     <path id="m8aa002d4f7" d="M 0 0.5 
C 0.132602 0.5 0.25979 0.447317 0.353553 0.353553 
C 0.447317 0.25979 0.5 0.132602 0.5 0 
C 0.5 -0.132602 0.447317 -0.25979 0.353553 -0.353553 
C 0.25979 -0.447317 0.132602 -0.5 0 -0.5 
C -0.132602 -0.5 -0.25979 -0.447317 -0.353553 -0.353553 
C -0.447317 -0.25979 -0.5 -0.132602 -0.5 0 
C -0.5 0.132602 -0.447317 0.25979 -0.353553 0.353553 
C -0.25979 0.447317 -0.132602 0.5 0 0.5 
z
" style="stroke: #ff0000"/>
    </defs>
    <g clip-path="url(#p2d96fa1b63)">
     <use xlink:href="#m8aa002d4f7" x="139.498652" y="168.963547" style="fill: #ff0000; stroke: #ff0000"/>
     <use xlink:href="#m8aa002d4f7" x="133.821835" y="160.135682" style="fill: #ff0000; stroke: #ff0000"/>
     <use xlink:href="#m8aa002d4f7" x="155.293302" y="139.431834" style="fill: #ff0000; stroke: #ff0000"/>
     <use xlink:href="#m8aa002d4f7" x="138.902464" y="143.185685" style="fill: #ff0000; stroke: #ff0000"/>
     <use xlink:href="#m8aa002d4f7" x="124.314494" y="218.563296" style="fill: #ff0000; stroke: #ff0000"/>
     <use xlink:href="#m8aa002d4f7" x="106.106992" y="224.033308" style="fill: #ff0000; stroke: #ff0000"/>
     <use xlink:href="#m8aa002d4f7" x="104.134002" y="174.283679" style="fill: #ff0000; stroke: #ff0000"/>
     <use xlink:href="#m8aa002d4f7" x="62.071301" y="178.608588" style="fill: #ff0000; stroke: #ff0000"/>
     <use xlink:href="#m8aa002d4f7" x="86.381177" y="225.184195" style="fill: #ff0000; stroke: #ff0000"/>
     <use xlink:href="#m8aa002d4f7" x="46.148932" y="236.291494" style="fill: #ff0000; stroke: #ff0000"/>
     <use xlink:href="#m8aa002d4f7" x="240.893594" y="46.258718" style="fill: #ff0000; stroke: #ff0000"/>
     <use xlink:href="#m8aa002d4f7" x="165.411136" y="127.521892" style="fill: #ff0000; stroke: #ff0000"/>
     <use xlink:href="#m8aa002d4f7" x="165.368222" y="85.294557" style="fill: #ff0000; stroke: #ff0000"/>
     <use xlink:href="#m8aa002d4f7" x="138.064632" y="74.741039" style="fill: #ff0000; stroke: #ff0000"/>
     <use xlink:href="#m8aa002d4f7" x="150.623926" y="88.324932" style="fill: #ff0000; stroke: #ff0000"/>
     <use xlink:href="#m8aa002d4f7" x="150.255076" y="122.261828" style="fill: #ff0000; stroke: #ff0000"/>
     <use xlink:href="#m8aa002d4f7" x="159.791025" y="82.936481" style="fill: #ff0000; stroke: #ff0000"/>
     <use xlink:href="#m8aa002d4f7" x="189.720501" y="81.429615" style="fill: #ff0000; stroke: #ff0000"/>
     <use xlink:href="#m8aa002d4f7" x="167.482724" y="96.414938" style="fill: #ff0000; stroke: #ff0000"/>
     <use xlink:href="#m8aa002d4f7" x="189.720501" y="81.429615" style="fill: #ff0000; stroke: #ff0000"/>
    </g>
   </g>
   <g id="PathCollection_2"/>
  </g>
 </g>
 <defs>
  <clipPath id="p2d96fa1b63">
   <rect x="7.2" y="7.2" width="272.642527" height="266.112"/>
  </clipPath>
 </defs>
</svg>
