<?xml version="1.0" encoding="utf-8" standalone="no"?>
<!DOCTYPE svg PUBLIC "-//W3C//DTD SVG 1.1//EN"
  "http://www.w3.org/Graphics/SVG/1.1/DTD/svg11.dtd">
<svg xmlns:xlink="http://www.w3.org/1999/xlink" width="347.947582pt" height="280.512pt" viewBox="0 0 347.947582 280.512" xmlns="http://www.w3.org/2000/svg" version="1.1">
 <metadata>
  <rdf:RDF xmlns:dc="http://purl.org/dc/elements/1.1/" xmlns:cc="http://creativecommons.org/ns#" xmlns:rdf="http://www.w3.org/1999/02/22-rdf-syntax-ns#">
   <cc:Work>
    <dc:type rdf:resource="http://purl.org/dc/dcmitype/StillImage"/>
    <dc:date>2025-04-17T08:29:51.647970</dc:date>
    <dc:format>image/svg+xml</dc:format>
    <dc:creator>
     <cc:Agent>
      <dc:title>Matplotlib v3.8.4, https://matplotlib.org/</dc:title>
     </cc:Agent>
    </dc:creator>
   </cc:Work>
  </rdf:RDF>
 </metadata>
 <defs>
  <style type="text/css">*{stroke-linejoin: round; stroke-linecap: butt}</style>
 </defs>
 <g id="figure_1">
  <g id="patch_1">
   <path d="M 0 280.512 
L 347.947582 280.512 
L 347.947582 0 
L 0 0 
z
" style="fill: #ffffff"/>
  </g>
  <g id="axes_1">
   <g id="patch_2">
    <path d="M 7.2 273.312 
L 340.747582 273.312 
L 340.747582 7.2 
L 7.2 7.2 
z
" style="fill: #ffffff"/>
   </g>
   <g id="matplotlib.axis_1"/>
   <g id="matplotlib.axis_2"/>
   <g id="LineCollection_1">
    <path d="M 7.2 35.604373 
L 12.300489 36.531323 
L 7.2 37.490973 
" clip-path="url(#pe8e5b9fb59)" style="fill: none; stroke: #000000; stroke-width: 0.2"/>
    <path d="M 7.2 40.270679 
L 7.938033 40.871764 
L 13.894138 36.391042 
L 16.319064 43.978597 
L 26.035885 52.994661 
L 33.308759 49.427803 
L 34.003708 55.923291 
L 38.665449 60.791057 
L 35.986047 64.629314 
L 48.152312 68.672099 
L 47.414457 71.443959 
L 50.138456 69.610302 
L 57.375398 75.902397 
L 55.977891 71.073365 
L 62.117878 60.673324 
L 61.266735 55.982301 
L 100.374759 45.342231 
L 111.084969 31.501088 
L 150.379836 17.602397 
L 160.907009 17.403128 
L 173.674379 26.182386 
L 174.297678 29.111695 
L 163.515817 19.785679 
L 167.532066 35.855267 
L 173.879186 40.951172 
L 193.410055 38.098799 
L 203.846344 26.80191 
L 195.994768 37.106876 
L 185.816972 41.290523 
L 186.622462 44.317061 
L 190.662807 44.020591 
L 189.857105 46.805055 
L 206.84828 29.871413 
L 218.6453 25.024635 
L 209.478646 26.279565 
L 207.169969 22.608972 
L 204.167398 26.923162 
L 205.437034 13.534061 
L 218.482976 12.184024 
L 223.568872 7.2 
" clip-path="url(#pe8e5b9fb59)" style="fill: none; stroke: #000000; stroke-width: 0.2"/>
    <path d="M 225.090407 7.2 
L 221.465044 11.679819 
L 234.694869 14.837592 
L 241.776674 11.886669 
L 241.003196 7.2 
" clip-path="url(#pe8e5b9fb59)" style="fill: none; stroke: #000000; stroke-width: 0.2"/>
   </g>
   <g id="LineCollection_2">
    <path d="M 7.2 219.724698 
L 12.89462 219.256812 
L 23.821896 209.535954 
L 26.230547 211.270297 
L 28.693094 206.621652 
L 37.088709 205.916635 
L 38.443099 203.009217 
L 51.817705 198.512676 
L 48.093131 194.348066 
L 49.47056 191.485345 
L 55.003524 191.681361 
L 58.151087 200.07356 
L 62.237297 201.803879 
L 68.847559 199.646948 
L 69.309168 192.574458 
L 73.487741 192.978358 
L 79.220863 203.495968 
L 91.294763 204.810217 
L 96.673858 211.24632 
L 99.413497 208.698574 
L 106.654667 209.414635 
L 108.817295 212.53099 
L 102.068381 218.91877 
L 114.18857 232.691083 
L 124.938938 227.453019 
L 121.068104 218.338761 
L 129.710163 220.609089 
L 136.351073 226.658924 
L 144.223362 223.612227 
L 145.270013 228.355134 
L 140.868244 230.085919 
L 142.253493 232.631102 
L 148.340641 238.287349 
L 153.204019 237.12616 
L 152.973214 234.814007 
L 160.668384 241.157285 
L 167.802184 241.049627 
L 169.371949 249.445898 
L 174.250756 251.349599 
L 178.906579 263.207044 
L 185.08588 262.686715 
L 192.434843 254.106325 
L 197.182819 262.923185 
L 201.40768 262.781566 
L 200.876745 271.290906 
L 209.472517 272.609756 
L 211.196364 266.680382 
L 216.290546 263.136245 
L 226.64842 262.296221 
L 232.604737 267.482998 
L 237.622195 264.495292 
L 237.168196 262.012563 
L 251.896981 261.491936 
L 261.431399 265.558927 
L 263.670962 271.102617 
L 269.341805 273.312 
L 269.341805 273.312 
" clip-path="url(#pe8e5b9fb59)" style="fill: none; stroke: #000000; stroke-width: 0.2"/>
    <path d="M 282.466049 273.312 
L 282.024137 273.021606 
L 281.485593 255.720934 
L 303.683816 228.582004 
L 309.827608 221.007507 
L 317.800082 219.739728 
L 321.709383 213.766298 
L 316.714963 202.826656 
L 322.040161 200.049118 
L 307.949892 180.511719 
L 309.49662 175.755178 
L 305.264361 167.547046 
L 308.019218 145.727517 
L 295.006248 136.565751 
L 301.439603 125.921421 
L 316.130132 117.138387 
L 315.552909 96.082731 
L 308.065294 77.886781 
L 303.048047 49.058446 
L 290.127653 38.856113 
L 246.333158 41.800889 
L 196.190275 34.622497 
L 196.190275 34.622497 
" clip-path="url(#pe8e5b9fb59)" style="fill: none; stroke: #000000; stroke-width: 0.2"/>
    <path d="M 17.653892 273.312 
L 14.039976 267.38998 
L 12.476763 266.523453 
L 10.913549 265.656567 
L 9.350336 264.789322 
L 7.786911 263.922042 
L 7.2 263.596083 
" clip-path="url(#pe8e5b9fb59)" style="fill: none; stroke: #000000; stroke-width: 0.2"/>
    <path d="M 175.386601 258.035678 
L 167.158806 258.675965 
L 162.366022 266.000381 
L 156.964101 267.869933 
L 155.586169 273.312 
" clip-path="url(#pe8e5b9fb59)" style="fill: none; stroke: #000000; stroke-width: 0.2"/>
    <path d="M 63.945502 199.707898 
L 64.711046 197.368723 
L 65.476589 195.02687 
L 66.241921 192.682666 
L 67.007465 190.335094 
L 67.773008 187.985491 
L 68.538552 185.63284 
L 69.304095 183.277469 
L 69.778597 181.815843 
L 67.431663 173.026668 
L 61.390802 170.430722 
L 61.921737 164.100427 
L 57.604512 157.451107 
L 58.513357 155.198303 
L 59.422202 152.943324 
L 60.331047 150.685477 
L 61.239892 148.425098 
L 62.148737 146.162523 
L 62.152541 146.153239 
L 61.190222 143.947313 
L 60.227904 141.73862 
L 59.265373 139.527841 
L 58.303054 137.314627 
L 57.340735 135.098969 
L 56.378416 132.880861 
L 55.819371 131.591141 
L 58.766565 123.49178 
L 57.297618 122.212 
L 55.82846 120.931051 
L 54.359512 119.64928 
L 52.890354 118.366686 
L 51.421407 117.083616 
L 49.952459 115.79972 
L 48.483301 114.514648 
L 47.014354 113.228747 
L 45.545406 111.942016 
L 44.506998 111.032411 
L 45.525961 108.856771 
L 46.544925 106.6791 
L 47.563888 104.499043 
L 48.582851 102.316242 
L 49.601603 100.131039 
L 50.620566 97.94378 
L 51.639529 95.754108 
L 52.658281 93.561662 
L 53.456797 91.842068 
L 52.929244 89.205567 
L 52.401691 86.565195 
L 51.873927 83.921293 
L 51.346374 81.27385 
L 50.818821 78.623209 
L 50.291268 75.968646 
L 49.763504 73.310862 
L 49.235951 70.649132 
L 48.708398 67.983798 
L 48.180846 65.31485 
L 47.653293 62.642633 
L 47.246849 60.581429 
" clip-path="url(#pe8e5b9fb59)" style="fill: none; stroke: #000000; stroke-width: 0.2"/>
    <path d="M 340.747582 58.290024 
L 334.99078 57.58605 
L 328.749339 62.462251 
L 322.895532 58.749826 
L 321.244816 59.081796 
L 319.594099 59.412992 
L 317.943383 59.74485 
L 316.292667 60.076293 
L 314.641951 60.40768 
L 312.991235 60.73937 
L 311.340518 61.070645 
L 309.689802 61.401864 
L 308.179429 61.705044 
L 304.29549 59.677334 
" clip-path="url(#pe8e5b9fb59)" style="fill: none; stroke: #000000; stroke-width: 0.2"/>
    <path d="M 340.747582 58.290024 
L 334.99078 57.58605 
L 328.749339 62.462251 
L 322.895532 58.749826 
L 321.244816 59.081796 
L 319.594099 59.412992 
L 317.943383 59.74485 
L 316.292667 60.076293 
L 314.641951 60.40768 
L 312.991235 60.73937 
L 311.340518 61.070645 
L 309.689802 61.401864 
L 308.179429 61.705044 
L 304.29549 59.677334 
" clip-path="url(#pe8e5b9fb59)" style="fill: none; stroke: #000000; stroke-width: 0.2"/>
    <path d="M 340.747582 152.624482 
L 339.11905 152.870673 
L 337.464106 153.120827 
L 335.808952 153.371293 
L 334.154008 153.621727 
L 332.498853 153.871788 
L 330.84391 154.121817 
L 329.188967 154.371816 
L 329.020725 154.397156 
L 327.711142 156.055247 
L 326.40156 157.711634 
L 325.091978 159.366664 
L 323.782396 161.02068 
L 322.472813 162.673004 
L 321.163231 164.323978 
L 319.853649 165.973947 
L 319.224855 166.765414 
L 317.568009 166.550643 
L 315.911163 166.335848 
L 314.254318 166.12103 
L 312.597684 165.90619 
L 310.940627 165.691327 
L 309.283992 165.476441 
L 308.797443 165.413436 
L 307.027098 170.295504 
" clip-path="url(#pe8e5b9fb59)" style="fill: none; stroke: #000000; stroke-width: 0.2"/>
    <path d="M 271.128555 7.2 
L 271.024575 7.215007 
L 269.367941 7.454428 
L 267.711307 7.69382 
L 266.054884 7.932813 
L 264.398461 8.171776 
L 264.339069 8.180626 
L 262.866692 7.2 
" clip-path="url(#pe8e5b9fb59)" style="fill: none; stroke: #000000; stroke-width: 0.2"/>
    <path d="M 284.363039 39.939294 
L 281.969606 29.240099 
L 286.656921 17.649734 
L 285.426176 15.709065 
L 284.195219 13.76682 
L 282.964474 11.822629 
L 281.733729 9.876118 
L 280.502772 7.927649 
L 280.043436 7.2 
" clip-path="url(#pe8e5b9fb59)" style="fill: none; stroke: #000000; stroke-width: 0.2"/>
   </g>
   <g id="LineCollection_3"/>
   <g id="line2d_1">
    <path d="M 168.433133 47.769522 
L 168.433133 47.769522 
L 169.12249 48.695434 
L 169.811197 49.621154 
L 170.499254 50.546683 
L 171.186662 51.472019 
L 171.873424 52.397162 
L 172.559538 53.322113 
L 173.245007 54.246872 
L 173.929831 55.171437 
L 174.614011 56.095809 
L 175.297548 57.019987 
L 175.980443 57.943971 
L 176.662696 58.867762 
L 177.34431 59.791358 
L 178.025284 60.71476 
L 178.705619 61.637968 
L 179.385317 62.56098 
L 180.064378 63.483798 
L 180.742803 64.40642 
L 181.420593 65.328847 
L 182.09775 66.251078 
L 182.774272 67.173114 
L 183.450163 68.094953 
L 184.125422 69.016596 
L 184.800051 69.938043 
L 185.47405 70.859293 
L 186.14742 71.780347 
L 186.820163 72.701203 
L 187.492278 73.621862 
L 188.163767 74.542324 
L 188.834631 75.462588 
L 189.504871 76.382654 
L 190.174487 77.302522 
L 190.843481 78.222193 
L 191.511853 79.141664 
L 192.179603 80.060938 
L 192.846734 80.980012 
L 193.513246 81.898888 
L 194.179139 82.817564 
L 194.844415 83.736042 
L 195.509075 84.65432 
L 196.173119 85.572398 
L 196.836548 86.490276 
L 197.499363 87.407955 
L 198.161565 88.325433 
L 198.823154 89.242711 
L 199.484133 90.159789 
L 200.1445 91.076666 
L 200.804258 91.993342 
L 201.463408 92.909817 
L 202.121949 93.826091 
L 202.779883 94.742164 
L 203.437211 95.658035 
L 204.093934 96.573705 
L 204.750052 97.489172 
L 205.405566 98.404438 
L 206.060477 99.319502 
L 206.714787 100.234363 
L 207.368495 101.149022 
L 208.021603 102.063479 
L 208.674111 102.977732 
L 209.326021 103.891783 
L 209.977333 104.805631 
L 210.628048 105.719275 
L 211.278167 106.632717 
L 211.92769 107.545954 
L 212.576619 108.458988 
L 213.224955 109.371818 
L 213.872698 110.284445 
L 214.519848 111.196867 
L 215.166408 112.109085 
L 215.812377 113.021099 
L 216.457757 113.932908 
L 217.102548 114.844512 
L 217.746751 115.755912 
L 218.390367 116.667107 
L 219.033397 117.578096 
L 219.675842 118.488881 
L 220.317702 119.39946 
L 220.958979 120.309834 
L 221.599672 121.220002 
L 222.239784 122.129965 
L 222.879314 123.039721 
L 223.518264 123.949272 
L 224.156634 124.858616 
L 224.794425 125.767755 
L 225.431638 126.676687 
L 226.068274 127.585412 
L 226.704334 128.493931 
L 227.339818 129.402243 
L 227.974727 130.310348 
L 228.609062 131.218247 
L 229.242825 132.125938 
L 229.876014 133.033422 
L 230.508633 133.940698 
L 231.14068 134.847768 
L 231.772157 135.754629 
L 232.403066 136.661283 
L 233.033406 137.56773 
L 233.663178 138.473968 
L 234.292384 139.379999 
L 234.921023 140.285821 
L 234.921023 140.285821 
" clip-path="url(#pe8e5b9fb59)" style="fill: none; stroke: #0000ff; stroke-width: 0.5; stroke-linecap: square"/>
   </g>
   <g id="line2d_2">
    <path d="M 168.433133 47.769522 
L 168.433133 47.769522 
L 167.747547 47.757481 
L 167.061953 47.745681 
L 166.37635 47.734122 
L 165.69074 47.722803 
L 165.005122 47.711725 
L 164.319496 47.700888 
L 163.633862 47.690291 
L 162.948221 47.679935 
L 162.262573 47.66982 
L 161.576918 47.659945 
L 160.891257 47.650312 
L 160.205588 47.640919 
L 159.519913 47.631766 
L 158.834232 47.622855 
L 158.148545 47.614184 
L 157.462851 47.605754 
L 156.777152 47.597565 
L 156.091447 47.589617 
L 155.405737 47.581909 
L 154.720021 47.574442 
L 154.034301 47.567216 
L 153.348575 47.560231 
L 152.662845 47.553487 
L 151.977109 47.546983 
L 151.29137 47.540721 
L 150.605626 47.534699 
L 149.919878 47.528918 
L 149.234126 47.523378 
L 148.54837 47.518078 
L 147.862611 47.51302 
L 147.176848 47.508202 
L 146.491082 47.503625 
L 145.805313 47.499289 
L 145.11954 47.495194 
L 144.433766 47.49134 
L 143.747988 47.487727 
L 143.062208 47.484354 
L 142.376426 47.481223 
L 141.690641 47.478332 
L 141.004855 47.475682 
L 140.319067 47.473274 
L 139.633277 47.471105 
L 138.947486 47.469178 
L 138.261694 47.467492 
L 137.5759 47.466047 
L 136.890106 47.464842 
L 136.204311 47.463879 
L 135.518515 47.463156 
L 134.832719 47.462674 
L 134.146922 47.462433 
L 133.461126 47.462433 
L 132.775329 47.462674 
L 132.089533 47.463156 
L 131.403737 47.463879 
L 130.717942 47.464842 
L 130.032148 47.466047 
L 129.346354 47.467492 
L 128.660562 47.469178 
L 127.974771 47.471105 
L 127.288981 47.473274 
L 126.603193 47.475682 
L 125.917407 47.478332 
L 125.231622 47.481223 
L 124.54584 47.484354 
L 123.86006 47.487727 
L 123.174282 47.49134 
L 122.488507 47.495194 
L 121.802735 47.499289 
L 121.116966 47.503625 
L 120.4312 47.508202 
L 119.745437 47.51302 
L 119.059678 47.518078 
L 118.373922 47.523378 
L 117.68817 47.528918 
L 117.002422 47.534699 
L 116.316678 47.540721 
L 115.630939 47.546983 
L 114.945203 47.553487 
L 114.259473 47.560231 
L 113.573747 47.567216 
L 112.888027 47.574442 
L 112.202311 47.581909 
L 111.516601 47.589617 
L 110.830896 47.597565 
L 110.145197 47.605754 
L 109.459503 47.614184 
L 108.773816 47.622855 
L 108.088135 47.631766 
L 107.40246 47.640919 
L 106.716791 47.650312 
L 106.03113 47.659945 
L 105.345475 47.66982 
L 104.659827 47.679935 
L 103.974186 47.690291 
L 103.288552 47.700888 
L 102.602926 47.711725 
L 101.917308 47.722803 
L 101.231697 47.734122 
L 100.546095 47.745681 
L 99.860501 47.757481 
L 99.174915 47.769522 
L 99.174915 47.769522 
" clip-path="url(#pe8e5b9fb59)" style="fill: none; stroke: #0000ff; stroke-width: 0.5; stroke-linecap: square"/>
   </g>
   <g id="line2d_3">
    <path d="M 168.433133 47.769522 
L 168.433133 47.769522 
L 169.698913 48.245371 
L 170.964078 48.721925 
L 172.228628 49.199183 
L 173.492563 49.677143 
L 174.755882 50.155805 
L 176.018585 50.635167 
L 177.28067 51.115228 
L 178.542138 51.595986 
L 179.802988 52.077441 
L 181.063219 52.559591 
L 182.322832 53.042435 
L 183.581825 53.525972 
L 184.840198 54.010201 
L 186.09795 54.495119 
L 187.355081 54.980727 
L 188.611591 55.467023 
L 189.867479 55.954005 
L 191.122744 56.441673 
L 192.377386 56.930025 
L 193.631405 57.419059 
L 194.8848 57.908776 
L 196.137571 58.399173 
L 197.389716 58.890249 
L 198.641237 59.382004 
L 199.892131 59.874435 
L 201.142399 60.367542 
L 202.392041 60.861323 
L 203.641055 61.355777 
L 204.889442 61.850904 
L 206.1372 62.346701 
L 207.38433 62.843167 
L 208.630831 63.340302 
L 209.876703 63.838104 
L 211.121944 64.336571 
L 212.366556 64.835704 
L 213.610536 65.335499 
L 214.853886 65.835957 
L 216.096604 66.337075 
L 217.33869 66.838854 
L 218.580143 67.34129 
L 219.820964 67.844385 
L 221.061151 68.348135 
L 222.300705 68.852539 
L 223.539624 69.357598 
L 224.777909 69.863309 
L 226.015559 70.369671 
L 227.252574 70.876682 
L 228.488953 71.384343 
L 229.724696 71.892651 
L 230.959802 72.401605 
L 232.194272 72.911205 
L 233.428104 73.421448 
L 234.661299 73.932333 
L 235.893856 74.44386 
L 237.125774 74.956028 
L 238.357053 75.468834 
L 239.587693 75.982278 
L 240.817694 76.496358 
L 242.047055 77.011074 
L 243.275775 77.526424 
L 244.503855 78.042406 
L 245.731294 78.55902 
L 246.958092 79.076265 
L 248.184248 79.594139 
L 249.409761 80.112641 
L 250.634633 80.631769 
L 251.858861 81.151523 
L 253.082447 81.671902 
L 254.305389 82.192904 
L 255.527688 82.714527 
L 256.749342 83.236771 
L 257.970352 83.759635 
L 259.190717 84.283117 
L 260.410437 84.807216 
L 261.629512 85.331931 
L 262.847941 85.85726 
L 264.065724 86.383203 
L 265.28286 86.909759 
L 266.49935 87.436925 
L 267.715193 87.964701 
L 268.930389 88.493085 
L 270.144937 89.022077 
L 271.358837 89.551676 
L 272.572089 90.081879 
L 273.784693 90.612686 
L 274.996648 91.144095 
L 276.207953 91.676106 
L 277.41861 92.208717 
L 278.628617 92.741927 
L 279.837973 93.275735 
L 281.04668 93.810139 
L 282.254736 94.345138 
L 283.462142 94.880732 
L 284.668896 95.416919 
L 285.875 95.953697 
L 287.080451 96.491066 
L 288.285251 97.029024 
L 289.489399 97.56757 
L 290.692894 98.106704 
L 291.895737 98.646423 
L 293.097927 99.186726 
L 293.097927 99.186726 
" clip-path="url(#pe8e5b9fb59)" style="fill: none; stroke: #0000ff; stroke-width: 0.5; stroke-linecap: square"/>
   </g>
   <g id="line2d_4">
    <path d="M 149.040832 99.186726 
L 149.040832 99.186726 
L 148.559694 98.678074 
L 148.07831 98.169409 
L 147.59668 97.660732 
L 147.114803 97.152043 
L 146.63268 96.643341 
L 146.150309 96.134628 
L 145.667692 95.625903 
L 145.184828 95.117166 
L 144.701717 94.608417 
L 144.218358 94.099657 
L 143.734751 93.590885 
L 143.250897 93.082102 
L 142.766795 92.573308 
L 142.282444 92.064503 
L 141.797846 91.555686 
L 141.312999 91.046859 
L 140.827903 90.538022 
L 140.342558 90.029173 
L 139.856965 89.520314 
L 139.371122 89.011445 
L 138.88503 88.502565 
L 138.398689 87.993675 
L 137.912098 87.484775 
L 137.425257 86.975866 
L 136.938166 86.466946 
L 136.450825 85.958017 
L 135.963234 85.449078 
L 135.475393 84.940129 
L 134.9873 84.431171 
L 134.498957 83.922204 
L 134.010363 83.413228 
L 133.521518 82.904243 
L 133.032421 82.395249 
L 132.543073 81.886246 
L 132.053473 81.377235 
L 131.563621 80.868215 
L 131.073518 80.359187 
L 130.583162 79.85015 
L 130.092554 79.341105 
L 129.601693 78.832052 
L 129.11058 78.322991 
L 128.619213 77.813923 
L 128.127594 77.304847 
L 127.635722 76.795763 
L 127.143596 76.286671 
L 126.651217 75.777573 
L 126.158584 75.268467 
L 125.665697 74.759354 
L 125.172556 74.250234 
L 124.679161 73.741107 
L 124.185511 73.231974 
L 123.691607 72.722834 
L 123.197448 72.213687 
L 122.703034 71.704534 
L 122.208366 71.195375 
L 121.713442 70.68621 
L 121.218262 70.177039 
L 120.722827 69.667862 
L 120.227136 69.158679 
L 119.73119 68.649491 
L 119.234987 68.140297 
L 118.738528 67.631098 
L 118.241812 67.121894 
L 117.74484 66.612684 
L 117.247612 66.10347 
L 116.750126 65.59425 
L 116.252383 65.085026 
L 115.754383 64.575798 
L 115.256125 64.066565 
L 114.75761 63.557327 
L 114.258837 63.048086 
L 113.759806 62.53884 
L 113.260516 62.02959 
L 112.760969 61.520337 
L 112.261163 61.01108 
L 111.761098 60.501819 
L 111.260775 59.992555 
L 110.760192 59.483287 
L 110.259351 58.974016 
L 109.758249 58.464743 
L 109.256889 57.955466 
L 108.755269 57.446186 
L 108.253389 56.936904 
L 107.751249 56.42762 
L 107.248848 55.918333 
L 106.746187 55.409043 
L 106.243266 54.899752 
L 105.740084 54.390458 
L 105.236641 53.881163 
L 104.732937 53.371866 
L 104.228972 52.862567 
L 103.724746 52.353267 
L 103.220258 51.843966 
L 102.715508 51.334663 
L 102.210496 50.825359 
L 101.705222 50.316055 
L 101.199686 49.806749 
L 100.693887 49.297443 
L 100.187826 48.788136 
L 99.681502 48.278829 
L 99.174915 47.769522 
L 99.174915 47.769522 
" clip-path="url(#pe8e5b9fb59)" style="fill: none; stroke: #0000ff; stroke-width: 0.5; stroke-linecap: square"/>
   </g>
   <g id="line2d_5">
    <path d="M 149.040832 99.186726 
L 149.040832 99.186726 
L 148.734292 99.504135 
L 148.427849 99.82154 
L 148.121504 100.138943 
L 147.815257 100.456342 
L 147.509107 100.773739 
L 147.203055 101.091132 
L 146.8971 101.408523 
L 146.591243 101.72591 
L 146.285484 102.043294 
L 145.979822 102.360675 
L 145.674257 102.678053 
L 145.36879 102.995427 
L 145.06342 103.312798 
L 144.758148 103.630166 
L 144.452972 103.947531 
L 144.147894 104.264892 
L 143.842913 104.58225 
L 143.538029 104.899605 
L 143.233242 105.216956 
L 142.928553 105.534303 
L 142.62396 105.851647 
L 142.319464 106.168988 
L 142.015065 106.486325 
L 141.710763 106.803659 
L 141.406558 107.120988 
L 141.10245 107.438315 
L 140.798438 107.755637 
L 140.494523 108.072956 
L 140.190705 108.390271 
L 139.886983 108.707583 
L 139.583358 109.024891 
L 139.27983 109.342194 
L 138.976398 109.659494 
L 138.673062 109.976791 
L 138.369823 110.294083 
L 138.066681 110.611371 
L 137.763634 110.928656 
L 137.460684 111.245936 
L 137.157831 111.563213 
L 136.855073 111.880485 
L 136.552412 112.197754 
L 136.249847 112.515018 
L 135.947377 112.832279 
L 135.645004 113.149535 
L 135.342727 113.466787 
L 135.040546 113.784035 
L 134.738461 114.101278 
L 134.436472 114.418518 
L 134.134579 114.735753 
L 133.832781 115.052983 
L 133.53108 115.37021 
L 133.229474 115.687432 
L 132.927963 116.00465 
L 132.626549 116.321863 
L 132.32523 116.639072 
L 132.024006 116.956277 
L 131.722878 117.273477 
L 131.421846 117.590672 
L 131.120909 117.907863 
L 130.820067 118.225049 
L 130.519321 118.542231 
L 130.21867 118.859408 
L 129.918115 119.176581 
L 129.617655 119.493749 
L 129.317289 119.810912 
L 129.01702 120.128071 
L 128.716845 120.445224 
L 128.416765 120.762373 
L 128.11678 121.079517 
L 127.816891 121.396657 
L 127.517096 121.713791 
L 127.217396 122.030921 
L 126.917791 122.348045 
L 126.618281 122.665165 
L 126.318866 122.98228 
L 126.019546 123.29939 
L 125.72032 123.616494 
L 125.421189 123.933594 
L 125.122153 124.250689 
L 124.823211 124.567778 
L 124.524364 124.884863 
L 124.225611 125.201942 
L 123.926953 125.519016 
L 123.628389 125.836085 
L 123.32992 126.153149 
L 123.031545 126.470207 
L 122.733264 126.78726 
L 122.435078 127.104308 
L 122.136985 127.421351 
L 121.838987 127.738388 
L 121.541084 128.05542 
L 121.243274 128.372446 
L 120.945558 128.689467 
L 120.647937 129.006483 
L 120.350409 129.323493 
L 120.052976 129.640498 
L 119.755636 129.957497 
L 119.45839 130.27449 
L 119.161238 130.591478 
L 118.86418 130.90846 
L 118.567216 131.225437 
L 118.567216 131.225437 
" clip-path="url(#pe8e5b9fb59)" style="fill: none; stroke: #0000ff; stroke-width: 0.5; stroke-linecap: square"/>
   </g>
   <g id="line2d_6">
    <path d="M 149.040832 99.186726 
L 149.040832 99.186726 
L 149.908367 99.579245 
L 150.77556 99.972068 
L 151.64241 100.365192 
L 152.508918 100.758619 
L 153.375083 101.152347 
L 154.240906 101.546375 
L 155.106386 101.940705 
L 155.971523 102.335334 
L 156.836317 102.730263 
L 157.700768 103.125492 
L 158.564876 103.521019 
L 159.428641 103.916844 
L 160.292062 104.312967 
L 161.155141 104.709388 
L 162.017875 105.106105 
L 162.880267 105.503119 
L 163.742314 105.900429 
L 164.604018 106.298035 
L 165.465378 106.695936 
L 166.326395 107.094131 
L 167.187067 107.492621 
L 168.047396 107.891404 
L 168.90738 108.290481 
L 169.767021 108.689851 
L 170.626317 109.089513 
L 171.485269 109.489467 
L 172.343876 109.889713 
L 173.20214 110.29025 
L 174.060058 110.691077 
L 174.917632 111.092195 
L 175.774862 111.493602 
L 176.631746 111.895299 
L 177.488286 112.297285 
L 178.344481 112.699559 
L 179.200332 113.102121 
L 180.055837 113.50497 
L 180.910997 113.908107 
L 181.765812 114.311531 
L 182.620282 114.71524 
L 183.474406 115.119235 
L 184.328186 115.523516 
L 185.18162 115.928082 
L 186.034708 116.332931 
L 186.887451 116.738065 
L 187.739849 117.143483 
L 188.591901 117.549183 
L 189.443607 117.955167 
L 190.294967 118.361432 
L 191.145982 118.767979 
L 191.996651 119.174808 
L 192.846974 119.581917 
L 193.696951 119.989307 
L 194.546582 120.396977 
L 195.395867 120.804926 
L 196.244805 121.213155 
L 197.093398 121.621662 
L 197.941644 122.030447 
L 198.789544 122.439511 
L 199.637098 122.848851 
L 200.484305 123.258469 
L 201.331166 123.668363 
L 202.177681 124.078533 
L 203.023849 124.488979 
L 203.86967 124.899699 
L 204.715145 125.310695 
L 205.560273 125.721965 
L 206.405054 126.133508 
L 207.249488 126.545325 
L 208.093576 126.957416 
L 208.937317 127.369778 
L 209.780711 127.782413 
L 210.623758 128.195319 
L 211.466457 128.608497 
L 212.30881 129.021945 
L 213.150816 129.435664 
L 213.992475 129.849652 
L 214.833786 130.26391 
L 215.674751 130.678438 
L 216.515368 131.093233 
L 217.355638 131.508297 
L 218.19556 131.923629 
L 219.035136 132.339228 
L 219.874363 132.755094 
L 220.713244 133.171226 
L 221.551777 133.587624 
L 222.389962 134.004288 
L 223.2278 134.421217 
L 224.06529 134.838411 
L 224.902433 135.255869 
L 225.739228 135.673591 
L 226.575676 136.091576 
L 227.411776 136.509824 
L 228.247528 136.928335 
L 229.082932 137.347108 
L 229.917989 137.766142 
L 230.752697 138.185438 
L 231.587058 138.604995 
L 232.421072 139.024812 
L 233.254737 139.444889 
L 234.088054 139.865225 
L 234.921023 140.285821 
L 234.921023 140.285821 
" clip-path="url(#pe8e5b9fb59)" style="fill: none; stroke: #0000ff; stroke-width: 0.5; stroke-linecap: square"/>
   </g>
   <g id="line2d_7">
    <path d="M 99.174915 47.769522 
L 99.174915 47.769522 
L 98.727725 48.139578 
L 98.280704 48.509666 
L 97.833852 48.879788 
L 97.387169 49.249942 
L 96.940654 49.620128 
L 96.494307 49.990348 
L 96.048129 50.360599 
L 95.602119 50.730883 
L 95.156277 51.101199 
L 94.710603 51.471548 
L 94.265098 51.841928 
L 93.81976 52.21234 
L 93.374591 52.582785 
L 92.929589 52.953261 
L 92.484756 53.323768 
L 92.04009 53.694307 
L 91.595591 54.064878 
L 91.151261 54.43548 
L 90.707098 54.806114 
L 90.263102 55.176779 
L 89.819274 55.547475 
L 89.375613 55.918202 
L 88.93212 56.288959 
L 88.488793 56.659748 
L 88.045634 57.030568 
L 87.602642 57.401418 
L 87.159818 57.772299 
L 86.71716 58.14321 
L 86.274669 58.514152 
L 85.832345 58.885124 
L 85.390187 59.256127 
L 84.948197 59.627159 
L 84.506373 59.998222 
L 84.064715 60.369314 
L 83.623224 60.740437 
L 83.1819 61.111589 
L 82.740742 61.482771 
L 82.29975 61.853982 
L 81.858925 62.225223 
L 81.418265 62.596494 
L 80.977772 62.967794 
L 80.537445 63.339123 
L 80.097284 63.710481 
L 79.657289 64.081869 
L 79.217459 64.453285 
L 78.777796 64.82473 
L 78.338298 65.196205 
L 77.898965 65.567708 
L 77.459799 65.939239 
L 77.020798 66.310799 
L 76.581962 66.682388 
L 76.143292 67.054005 
L 75.704787 67.42565 
L 75.266447 67.797324 
L 74.828272 68.169025 
L 74.390263 68.540755 
L 73.952419 68.912512 
L 73.514739 69.284298 
L 73.077225 69.656111 
L 72.639875 70.027952 
L 72.202691 70.399821 
L 71.76567 70.771717 
L 71.328815 71.14364 
L 70.892124 71.515591 
L 70.455598 71.887569 
L 70.019236 72.259574 
L 69.583038 72.631607 
L 69.147005 73.003666 
L 68.711136 73.375753 
L 68.275432 73.747866 
L 67.839891 74.120006 
L 67.404514 74.492172 
L 66.969302 74.864365 
L 66.534253 75.236585 
L 66.099368 75.608831 
L 65.664647 75.981103 
L 65.23009 76.353402 
L 64.795696 76.725727 
L 64.361466 77.098078 
L 63.9274 77.470454 
L 63.493497 77.842857 
L 63.059757 78.215286 
L 62.62618 78.58774 
L 62.192767 78.96022 
L 61.759517 79.332726 
L 61.32643 79.705257 
L 60.893507 80.077813 
L 60.460746 80.450395 
L 60.028148 80.823002 
L 59.595713 81.195634 
L 59.16344 81.568291 
L 58.731331 81.940973 
L 58.299384 82.31368 
L 57.867599 82.686412 
L 57.435977 83.059168 
L 57.004518 83.43195 
L 56.573221 83.804756 
L 56.142086 84.177586 
L 55.711113 84.550441 
L 55.280303 84.92332 
L 54.849655 85.296223 
L 54.849655 85.296223 
" clip-path="url(#pe8e5b9fb59)" style="fill: none; stroke: #0000ff; stroke-width: 0.5; stroke-linecap: square"/>
   </g>
   <g id="line2d_8">
    <path d="M 173.973791 224.395384 
L 173.973791 224.395384 
L 174.249778 224.522361 
L 174.525732 224.649368 
L 174.801651 224.776403 
L 175.077537 224.903468 
L 175.353389 225.030562 
L 175.629207 225.157685 
L 175.904991 225.284838 
L 176.180741 225.41202 
L 176.456457 225.53923 
L 176.73214 225.66647 
L 177.007788 225.79374 
L 177.283403 225.921038 
L 177.558983 226.048365 
L 177.83453 226.175722 
L 178.110043 226.303107 
L 178.385522 226.430522 
L 178.660967 226.557966 
L 178.936378 226.685438 
L 179.211755 226.81294 
L 179.487099 226.940471 
L 179.762408 227.068031 
L 180.037683 227.195619 
L 180.312925 227.323237 
L 180.588132 227.450884 
L 180.863306 227.578559 
L 181.138446 227.706264 
L 181.413551 227.833997 
L 181.688623 227.96176 
L 181.963661 228.089551 
L 182.238665 228.217371 
L 182.513635 228.34522 
L 182.788571 228.473098 
L 183.063473 228.601005 
L 183.338342 228.72894 
L 183.613176 228.856905 
L 183.887976 228.984898 
L 184.162742 229.11292 
L 184.437475 229.24097 
L 184.712173 229.36905 
L 184.986838 229.497158 
L 185.261468 229.625295 
L 185.536065 229.75346 
L 185.810627 229.881655 
L 186.085156 230.009877 
L 186.35965 230.138129 
L 186.634111 230.266409 
L 186.908538 230.394718 
L 187.18293 230.523056 
L 187.457289 230.651422 
L 187.731614 230.779817 
L 188.005905 230.90824 
L 188.280162 231.036692 
L 188.554384 231.165173 
L 188.828573 231.293682 
L 189.102728 231.422219 
L 189.376849 231.550785 
L 189.650936 231.67938 
L 189.924989 231.808003 
L 190.199007 231.936655 
L 190.472992 232.065335 
L 190.746943 232.194043 
L 191.02086 232.32278 
L 191.294743 232.451545 
L 191.568592 232.580339 
L 191.842407 232.709161 
L 192.116187 232.838012 
L 192.389934 232.96689 
L 192.663647 233.095798 
L 192.937326 233.224733 
L 193.210971 233.353697 
L 193.484581 233.482689 
L 193.758158 233.61171 
L 194.031701 233.740759 
L 194.30521 233.869836 
L 194.578684 233.998941 
L 194.852125 234.128075 
L 195.125532 234.257236 
L 195.398904 234.386426 
L 195.672243 234.515644 
L 195.945547 234.644891 
L 196.218818 234.774165 
L 196.492054 234.903468 
L 196.765257 235.032799 
L 197.038425 235.162158 
L 197.311559 235.291545 
L 197.58466 235.42096 
L 197.857726 235.550404 
L 198.130758 235.679875 
L 198.403756 235.809374 
L 198.676721 235.938902 
L 198.949651 236.068458 
L 199.222547 236.198041 
L 199.495409 236.327653 
L 199.768237 236.457292 
L 200.04103 236.58696 
L 200.31379 236.716655 
L 200.586516 236.846379 
L 200.859208 236.97613 
L 201.131865 237.10591 
L 201.404489 237.235717 
L 201.677078 237.365552 
L 201.677078 237.365552 
" clip-path="url(#pe8e5b9fb59)" style="fill: none; stroke: #0000ff; stroke-width: 0.5; stroke-linecap: square"/>
   </g>
   <g id="line2d_9">
    <path d="M 173.973791 224.395384 
L 173.973791 224.395384 
L 174.133546 223.793414 
L 174.293394 223.191283 
L 174.453335 222.588989 
L 174.61337 221.986533 
L 174.773497 221.383916 
L 174.933719 220.781135 
L 175.094033 220.178193 
L 175.254442 219.575087 
L 175.414944 218.97182 
L 175.57554 218.368389 
L 175.73623 217.764795 
L 175.897013 217.161039 
L 176.057891 216.557119 
L 176.218863 215.953036 
L 176.37993 215.34879 
L 176.541091 214.74438 
L 176.702346 214.139807 
L 176.863696 213.53507 
L 177.025141 212.930169 
L 177.186681 212.325105 
L 177.348315 211.719876 
L 177.510045 211.114483 
L 177.671869 210.508926 
L 177.833789 209.903205 
L 177.995804 209.297319 
L 178.157915 208.691268 
L 178.320121 208.085053 
L 178.482423 207.478673 
L 178.64482 206.872128 
L 178.807314 206.265418 
L 178.969903 205.658542 
L 179.132588 205.051502 
L 179.29537 204.444296 
L 179.458247 203.836924 
L 179.621221 203.229387 
L 179.784292 202.621684 
L 179.947459 202.013815 
L 180.110722 201.405781 
L 180.274083 200.79758 
L 180.43754 200.189213 
L 180.601094 199.580679 
L 180.764745 198.971979 
L 180.928494 198.363113 
L 181.09234 197.75408 
L 181.256283 197.14488 
L 181.420323 196.535513 
L 181.584461 195.925979 
L 181.748697 195.316278 
L 181.913031 194.70641 
L 182.077462 194.096374 
L 182.241992 193.486171 
L 182.406619 192.8758 
L 182.571345 192.265261 
L 182.736169 191.654555 
L 182.901092 191.043681 
L 183.066113 190.432638 
L 183.231232 189.821428 
L 183.396451 189.210049 
L 183.561768 188.598501 
L 183.727184 187.986785 
L 183.892699 187.3749 
L 184.058314 186.762847 
L 184.224027 186.150625 
L 184.38984 185.538233 
L 184.555753 184.925673 
L 184.721765 184.312943 
L 184.887876 183.700043 
L 185.054088 183.086975 
L 185.220399 182.473736 
L 185.386811 181.860328 
L 185.553322 181.24675 
L 185.719934 180.633002 
L 185.886646 180.019084 
L 186.053459 179.404996 
L 186.220372 178.790737 
L 186.387386 178.176308 
L 186.5545 177.561709 
L 186.721716 176.946938 
L 186.889032 176.331997 
L 187.05645 175.716885 
L 187.223968 175.101602 
L 187.391588 174.486147 
L 187.55931 173.870522 
L 187.727133 173.254725 
L 187.895057 172.638756 
L 188.063084 172.022616 
L 188.231212 171.406304 
L 188.399442 170.78982 
L 188.567774 170.173164 
L 188.736209 169.556336 
L 188.904745 168.939335 
L 189.073385 168.322163 
L 189.242126 167.704817 
L 189.41097 167.087299 
L 189.579918 166.469609 
L 189.748967 165.851745 
L 189.91812 165.233709 
L 190.087376 164.615499 
L 190.256735 163.997116 
L 190.426198 163.37856 
L 190.595763 162.75983 
L 190.595763 162.75983 
" clip-path="url(#pe8e5b9fb59)" style="fill: none; stroke: #0000ff; stroke-width: 0.5; stroke-linecap: square"/>
   </g>
   <g id="line2d_10">
    <path d="M 173.973791 224.395384 
L 173.973791 224.395384 
L 173.461385 224.045291 
L 172.948805 223.695267 
L 172.436051 223.345312 
L 171.923125 222.995426 
L 171.410024 222.645609 
L 170.89675 222.295861 
L 170.383302 221.946182 
L 169.869681 221.596573 
L 169.355885 221.247034 
L 168.841916 220.897564 
L 168.327773 220.548164 
L 167.813456 220.198834 
L 167.298965 219.849574 
L 166.7843 219.500384 
L 166.269462 219.151265 
L 165.754449 218.802216 
L 165.239261 218.453237 
L 164.7239 218.104329 
L 164.208364 217.755492 
L 163.692655 217.406726 
L 163.176771 217.058031 
L 162.660712 216.709406 
L 162.144479 216.360854 
L 161.628072 216.012372 
L 161.11149 215.663962 
L 160.594734 215.315624 
L 160.077803 214.967357 
L 159.560697 214.619162 
L 159.043417 214.271039 
L 158.525962 213.922989 
L 158.008333 213.57501 
L 157.490528 213.227104 
L 156.972549 212.87927 
L 156.454395 212.531509 
L 155.936066 212.183821 
L 155.417562 211.836205 
L 154.898883 211.488662 
L 154.380029 211.141192 
L 153.861 210.793796 
L 153.341795 210.446473 
L 152.822416 210.099223 
L 152.302861 209.752047 
L 151.783132 209.404944 
L 151.263226 209.057915 
L 150.743146 208.71096 
L 150.22289 208.364079 
L 149.702459 208.017273 
L 149.181852 207.67054 
L 148.66107 207.323882 
L 148.140112 206.977299 
L 147.618979 206.63079 
L 147.09767 206.284356 
L 146.576185 205.937996 
L 146.054524 205.591712 
L 145.532688 205.245503 
L 145.010676 204.899369 
L 144.488489 204.553311 
L 143.966125 204.207328 
L 143.443585 203.86142 
L 142.92087 203.515589 
L 142.397978 203.169833 
L 141.874911 202.824153 
L 141.351667 202.47855 
L 140.828247 202.133022 
L 140.304651 201.787571 
L 139.780879 201.442197 
L 139.256931 201.096899 
L 138.732806 200.751678 
L 138.208505 200.406533 
L 137.684028 200.061466 
L 137.159374 199.716476 
L 136.634544 199.371563 
L 136.109538 199.026727 
L 135.584355 198.681969 
L 135.058995 198.337289 
L 134.533459 197.992686 
L 134.007746 197.648161 
L 133.481856 197.303714 
L 132.95579 196.959345 
L 132.429547 196.615055 
L 131.903127 196.270843 
L 131.37653 195.926709 
L 130.849757 195.582654 
L 130.322806 195.238678 
L 129.795679 194.89478 
L 129.268374 194.550962 
L 128.740893 194.207223 
L 128.213235 193.863562 
L 127.685399 193.519982 
L 127.157386 193.176481 
L 126.629196 192.833059 
L 126.100829 192.489717 
L 125.572285 192.146455 
L 125.043563 191.803273 
L 124.514664 191.460172 
L 123.985588 191.11715 
L 123.456334 190.774209 
L 122.926903 190.431349 
L 122.397294 190.088569 
L 121.867508 189.74587 
L 121.337545 189.403251 
L 121.337545 189.403251 
" clip-path="url(#pe8e5b9fb59)" style="fill: none; stroke: #0000ff; stroke-width: 0.5; stroke-linecap: square"/>
   </g>
   <g id="line2d_11">
    <path d="M 201.677078 237.365552 
L 201.677078 237.365552 
L 202.253014 237.357524 
L 202.828954 237.349656 
L 203.404898 237.341948 
L 203.980846 237.334401 
L 204.556799 237.327015 
L 205.132756 237.319789 
L 205.708716 237.312724 
L 206.284681 237.305819 
L 206.860649 237.299075 
L 207.436621 237.292491 
L 208.012597 237.286068 
L 208.588576 237.279805 
L 209.164558 237.273703 
L 209.740544 237.267761 
L 210.316533 237.26198 
L 210.892525 237.25636 
L 211.468521 237.2509 
L 212.044519 237.2456 
L 212.62052 237.240461 
L 213.196524 237.235483 
L 213.772531 237.230665 
L 214.34854 237.226008 
L 214.924552 237.221512 
L 215.500566 237.217176 
L 216.076583 237.213 
L 216.652602 237.208985 
L 217.228623 237.205131 
L 217.804646 237.201437 
L 218.380672 237.197904 
L 218.956699 237.194532 
L 219.532728 237.19132 
L 220.108759 237.188269 
L 220.684791 237.185378 
L 221.260825 237.182648 
L 221.83686 237.180078 
L 222.412897 237.177669 
L 222.988935 237.175421 
L 223.564974 237.173333 
L 224.141015 237.171406 
L 224.717056 237.169639 
L 225.293098 237.168033 
L 225.869142 237.166588 
L 226.445186 237.165303 
L 227.02123 237.164178 
L 227.597275 237.163215 
L 228.173321 237.162412 
L 228.749367 237.161769 
L 229.325414 237.161288 
L 229.90146 237.160966 
L 230.477507 237.160806 
L 231.053554 237.160806 
L 231.6296 237.160966 
L 232.205647 237.161288 
L 232.781693 237.161769 
L 233.35774 237.162412 
L 233.933785 237.163215 
L 234.50983 237.164178 
L 235.085875 237.165303 
L 235.661919 237.166588 
L 236.237962 237.168033 
L 236.814004 237.169639 
L 237.390046 237.171406 
L 237.966086 237.173333 
L 238.542126 237.175421 
L 239.118164 237.177669 
L 239.6942 237.180078 
L 240.270236 237.182648 
L 240.84627 237.185378 
L 241.422302 237.188269 
L 241.998333 237.19132 
L 242.574362 237.194532 
L 243.150389 237.197904 
L 243.726414 237.201437 
L 244.302437 237.205131 
L 244.878459 237.208985 
L 245.454477 237.213 
L 246.030494 237.217176 
L 246.606508 237.221512 
L 247.18252 237.226008 
L 247.75853 237.230665 
L 248.334536 237.235483 
L 248.91054 237.240461 
L 249.486542 237.2456 
L 250.06254 237.2509 
L 250.638535 237.25636 
L 251.214528 237.26198 
L 251.790517 237.267761 
L 252.366502 237.273703 
L 252.942485 237.279805 
L 253.518464 237.286068 
L 254.09444 237.292491 
L 254.670412 237.299075 
L 255.24638 237.305819 
L 255.822344 237.312724 
L 256.398305 237.319789 
L 256.974262 237.327015 
L 257.550214 237.334401 
L 258.126163 237.341948 
L 258.702107 237.349656 
L 259.278047 237.357524 
L 259.853982 237.365552 
L 259.853982 237.365552 
" clip-path="url(#pe8e5b9fb59)" style="fill: none; stroke: #0000ff; stroke-width: 0.5; stroke-linecap: square"/>
   </g>
   <g id="line2d_12">
    <path d="M 201.677078 237.365552 
L 201.677078 237.365552 
L 201.991171 236.42385 
L 202.305548 235.481771 
L 202.62021 234.539315 
L 202.935159 233.596481 
L 203.250394 232.653269 
L 203.565916 231.709679 
L 203.881725 230.76571 
L 204.197821 229.821361 
L 204.514207 228.876633 
L 204.83088 227.931526 
L 205.147843 226.986037 
L 205.465096 226.040168 
L 205.782639 225.093918 
L 206.100472 224.147287 
L 206.418597 223.200274 
L 206.737013 222.252878 
L 207.055721 221.3051 
L 207.374722 220.356939 
L 207.694016 219.408394 
L 208.013603 218.459466 
L 208.333484 217.510153 
L 208.65366 216.560456 
L 208.97413 215.610374 
L 209.294896 214.659907 
L 209.615958 213.709054 
L 209.937317 212.757815 
L 210.258972 211.806189 
L 210.580925 210.854177 
L 210.903175 209.901777 
L 211.225724 208.94899 
L 211.548571 207.995815 
L 211.871719 207.042251 
L 212.195165 206.088299 
L 212.518913 205.133957 
L 212.842961 204.179226 
L 213.16731 203.224105 
L 213.491961 202.268593 
L 213.816915 201.312691 
L 214.142171 200.356398 
L 214.467731 199.399713 
L 214.793594 198.442636 
L 215.119762 197.485167 
L 215.446234 196.527305 
L 215.773012 195.56905 
L 216.100096 194.610402 
L 216.427486 193.65136 
L 216.755183 192.691923 
L 217.083188 191.732092 
L 217.4115 190.771866 
L 217.740121 189.811244 
L 218.06905 188.850227 
L 218.398289 187.888813 
L 218.727838 186.927003 
L 219.057697 185.964795 
L 219.387868 185.002191 
L 219.718349 184.039188 
L 220.049143 183.075787 
L 220.38025 182.111988 
L 220.711669 181.147789 
L 221.043402 180.183191 
L 221.375449 179.218194 
L 221.70781 178.252796 
L 222.040487 177.286997 
L 222.37348 176.320798 
L 222.706788 175.354197 
L 223.040414 174.387194 
L 223.374356 173.419789 
L 223.708616 172.451982 
L 224.043195 171.483771 
L 224.378093 170.515157 
L 224.71331 169.54614 
L 225.048846 168.576718 
L 225.384704 167.606891 
L 225.720882 166.636659 
L 226.057382 165.666022 
L 226.394204 164.694979 
L 226.731348 163.72353 
L 227.068816 162.751674 
L 227.406607 161.779412 
L 227.744722 160.806741 
L 228.083163 159.833663 
L 228.421928 158.860177 
L 228.76102 157.886282 
L 229.100438 156.911977 
L 229.440183 155.937264 
L 229.780255 154.96214 
L 230.120656 153.986606 
L 230.461385 153.010662 
L 230.802443 152.034306 
L 231.143831 151.057539 
L 231.48555 150.08036 
L 231.827599 149.102768 
L 232.16998 148.124764 
L 232.512692 147.146346 
L 232.855737 146.167515 
L 233.199116 145.18827 
L 233.542828 144.208611 
L 233.886874 143.228537 
L 234.231255 142.248047 
L 234.575971 141.267142 
L 234.921023 140.285821 
L 234.921023 140.285821 
" clip-path="url(#pe8e5b9fb59)" style="fill: none; stroke: #0000ff; stroke-width: 0.5; stroke-linecap: square"/>
   </g>
   <g id="line2d_13">
    <path d="M 293.097927 99.186726 
L 293.097927 99.186726 
L 292.74571 100.599138 
L 292.393993 102.010616 
L 292.042773 103.421162 
L 291.692051 104.830776 
L 291.341824 106.239461 
L 290.992091 107.647217 
L 290.642852 109.054048 
L 290.294105 110.459953 
L 289.945848 111.864934 
L 289.598081 113.268994 
L 289.250802 114.672133 
L 288.90401 116.074353 
L 288.557704 117.475656 
L 288.211883 118.876042 
L 287.866546 120.275514 
L 287.52169 121.674073 
L 287.177316 123.071721 
L 286.833422 124.468458 
L 286.490007 125.864287 
L 286.147069 127.259209 
L 285.804607 128.653225 
L 285.462621 130.046337 
L 285.121109 131.438546 
L 284.78007 132.829853 
L 284.439503 134.220262 
L 284.099407 135.609771 
L 283.75978 136.998384 
L 283.420621 138.386102 
L 283.081929 139.772925 
L 282.743704 141.158856 
L 282.405943 142.543896 
L 282.068646 143.928046 
L 281.731812 145.311308 
L 281.39544 146.693684 
L 281.059528 148.075173 
L 280.724075 149.45578 
L 280.38908 150.835503 
L 280.054543 152.214346 
L 279.720461 153.592309 
L 279.386834 154.969393 
L 279.053661 156.345601 
L 278.720941 157.720934 
L 278.388672 159.095392 
L 278.056854 160.468978 
L 277.725485 161.841693 
L 277.394565 163.213539 
L 277.064092 164.584515 
L 276.734065 165.954625 
L 276.404483 167.32387 
L 276.075344 168.69225 
L 275.746649 170.059767 
L 275.418396 171.426423 
L 275.090584 172.792219 
L 274.763211 174.157156 
L 274.436277 175.521237 
L 274.109781 176.884461 
L 273.783722 178.246831 
L 273.458097 179.608347 
L 273.132908 180.969012 
L 272.808152 182.328827 
L 272.483828 183.687793 
L 272.159936 185.04591 
L 271.836474 186.403182 
L 271.513442 187.759609 
L 271.190838 189.115192 
L 270.868661 190.469933 
L 270.546911 191.823832 
L 270.225585 193.176893 
L 269.904684 194.529115 
L 269.584207 195.8805 
L 269.264151 197.23105 
L 268.944517 198.580766 
L 268.625303 199.929648 
L 268.306509 201.2777 
L 267.988133 202.624921 
L 267.670174 203.971313 
L 267.352631 205.316877 
L 267.035504 206.661615 
L 266.71879 208.005529 
L 266.402491 209.348619 
L 266.086603 210.690886 
L 265.771128 212.032333 
L 265.456062 213.372959 
L 265.141406 214.712768 
L 264.827159 216.051759 
L 264.513319 217.389935 
L 264.199886 218.727296 
L 263.886858 220.063844 
L 263.574235 221.39958 
L 263.262016 222.734505 
L 262.950199 224.068621 
L 262.638785 225.401929 
L 262.327771 226.734431 
L 262.017157 228.066127 
L 261.706943 229.397018 
L 261.397126 230.727107 
L 261.087707 232.056394 
L 260.778683 233.384881 
L 260.470056 234.712569 
L 260.161822 236.039459 
L 259.853982 237.365552 
L 259.853982 237.365552 
" clip-path="url(#pe8e5b9fb59)" style="fill: none; stroke: #0000ff; stroke-width: 0.5; stroke-linecap: square"/>
   </g>
   <g id="line2d_14">
    <path d="M 293.097927 99.186726 
L 293.097927 99.186726 
L 292.510147 99.589285 
L 291.922605 99.991937 
L 291.3353 100.394682 
L 290.748233 100.79752 
L 290.161404 101.200451 
L 289.574812 101.603475 
L 288.988457 102.006591 
L 288.40234 102.409799 
L 287.816461 102.813099 
L 287.230818 103.216491 
L 286.645413 103.619975 
L 286.060244 104.02355 
L 285.475313 104.427216 
L 284.890619 104.830974 
L 284.306162 105.234822 
L 283.721941 105.638761 
L 283.137957 106.04279 
L 282.55421 106.44691 
L 281.9707 106.85112 
L 281.387426 107.25542 
L 280.804388 107.65981 
L 280.221587 108.064289 
L 279.639022 108.468858 
L 279.056694 108.873516 
L 278.474601 109.278263 
L 277.892745 109.683099 
L 277.311125 110.088023 
L 276.729741 110.493036 
L 276.148592 110.898138 
L 275.56768 111.303327 
L 274.987003 111.708604 
L 274.406562 112.11397 
L 273.826357 112.519422 
L 273.246387 112.924962 
L 272.666652 113.33059 
L 272.087153 113.736304 
L 271.507889 114.142105 
L 270.928861 114.547993 
L 270.350067 114.953967 
L 269.771509 115.360028 
L 269.193186 115.766174 
L 268.615097 116.172407 
L 268.037244 116.578725 
L 267.459625 116.985129 
L 266.882241 117.391618 
L 266.305092 117.798193 
L 265.728177 118.204853 
L 265.151497 118.611597 
L 264.575051 119.018426 
L 263.99884 119.42534 
L 263.422862 119.832337 
L 262.847119 120.239419 
L 262.271611 120.646585 
L 261.696336 121.053835 
L 261.121295 121.461168 
L 260.546488 121.868585 
L 259.971915 122.276085 
L 259.397576 122.683668 
L 258.82347 123.091334 
L 258.249598 123.499083 
L 257.67596 123.906914 
L 257.102554 124.314827 
L 256.529383 124.722823 
L 255.956444 125.130901 
L 255.383739 125.53906 
L 254.811267 125.947301 
L 254.239028 126.355624 
L 253.667022 126.764028 
L 253.095249 127.172513 
L 252.523709 127.581079 
L 251.952401 127.989725 
L 251.381327 128.398453 
L 250.810484 128.807261 
L 250.239875 129.216148 
L 249.669497 129.625116 
L 249.099353 130.034164 
L 248.52944 130.443292 
L 247.95976 130.852499 
L 247.390312 131.261786 
L 246.821095 131.671151 
L 246.252111 132.080596 
L 245.683359 132.49012 
L 245.114839 132.899722 
L 244.54655 133.309403 
L 243.978493 133.719162 
L 243.410667 134.128999 
L 242.843074 134.538915 
L 242.275711 134.948908 
L 241.70858 135.358978 
L 241.14168 135.769127 
L 240.575012 136.179352 
L 240.008574 136.589655 
L 239.442368 137.000034 
L 238.876392 137.410491 
L 238.310647 137.821024 
L 237.745133 138.231633 
L 237.17985 138.642319 
L 236.614798 139.05308 
L 236.049976 139.463918 
L 235.485384 139.874832 
L 234.921023 140.285821 
L 234.921023 140.285821 
" clip-path="url(#pe8e5b9fb59)" style="fill: none; stroke: #0000ff; stroke-width: 0.5; stroke-linecap: square"/>
   </g>
   <g id="line2d_15">
    <path d="M 190.595763 162.75983 
L 190.595763 162.75983 
L 191.029793 162.533795 
L 191.463919 162.307829 
L 191.898141 162.081931 
L 192.332461 161.856102 
L 192.766877 161.630341 
L 193.20139 161.404648 
L 193.636 161.179025 
L 194.070706 160.95347 
L 194.505509 160.727984 
L 194.940409 160.502566 
L 195.375406 160.277218 
L 195.8105 160.051938 
L 196.24569 159.826728 
L 196.680977 159.601586 
L 197.116361 159.376514 
L 197.551841 159.151511 
L 197.987418 158.926577 
L 198.423092 158.701713 
L 198.858863 158.476918 
L 199.294731 158.252192 
L 199.730695 158.027536 
L 200.166756 157.80295 
L 200.602913 157.578433 
L 201.039168 157.353986 
L 201.475519 157.129609 
L 201.911967 156.905301 
L 202.348511 156.681064 
L 202.785153 156.456896 
L 203.221891 156.232798 
L 203.658726 156.008771 
L 204.095657 155.784813 
L 204.532685 155.560926 
L 204.96981 155.337109 
L 205.407032 155.113363 
L 205.84435 154.889686 
L 206.281765 154.666081 
L 206.719277 154.442545 
L 207.156885 154.219081 
L 207.59459 153.995686 
L 208.032392 153.772363 
L 208.470291 153.54911 
L 208.908286 153.325929 
L 209.346378 153.102818 
L 209.784566 152.879778 
L 210.222852 152.656809 
L 210.661234 152.433911 
L 211.099712 152.211084 
L 211.538287 151.988329 
L 211.976959 151.765645 
L 212.415728 151.543032 
L 212.854593 151.32049 
L 213.293555 151.09802 
L 213.732614 150.875621 
L 214.171769 150.653294 
L 214.611021 150.431039 
L 215.05037 150.208855 
L 215.489815 149.986744 
L 215.929357 149.764703 
L 216.368995 149.542735 
L 216.80873 149.320839 
L 217.248562 149.099015 
L 217.688491 148.877263 
L 218.128516 148.655583 
L 218.568637 148.433975 
L 219.008855 148.212439 
L 219.44917 147.990976 
L 219.889582 147.769585 
L 220.33009 147.548267 
L 220.770695 147.327021 
L 221.211396 147.105848 
L 221.652194 146.884747 
L 222.093088 146.663719 
L 222.534079 146.442764 
L 222.975167 146.221882 
L 223.416351 146.001072 
L 223.857632 145.780336 
L 224.299009 145.559672 
L 224.740483 145.339082 
L 225.182053 145.118565 
L 225.62372 144.898121 
L 226.065484 144.67775 
L 226.507344 144.457453 
L 226.949301 144.237229 
L 227.391354 144.017078 
L 227.833504 143.797001 
L 228.27575 143.576998 
L 228.718093 143.357068 
L 229.160532 143.137212 
L 229.603068 142.91743 
L 230.0457 142.697721 
L 230.488429 142.478087 
L 230.931254 142.258526 
L 231.374176 142.03904 
L 231.817194 141.819627 
L 232.260309 141.600289 
L 232.70352 141.381025 
L 233.146828 141.161836 
L 233.590232 140.94272 
L 234.033733 140.723679 
L 234.47733 140.504713 
L 234.921023 140.285821 
L 234.921023 140.285821 
" clip-path="url(#pe8e5b9fb59)" style="fill: none; stroke: #0000ff; stroke-width: 0.5; stroke-linecap: square"/>
   </g>
   <g id="line2d_16">
    <path d="M 190.595763 162.75983 
L 190.595763 162.75983 
L 189.901216 163.013564 
L 189.206843 163.267505 
L 188.512644 163.521654 
L 187.818619 163.77601 
L 187.124768 164.030572 
L 186.431091 164.285342 
L 185.737588 164.540317 
L 185.04426 164.795499 
L 184.351106 165.050887 
L 183.658126 165.306482 
L 182.965322 165.562281 
L 182.272691 165.818287 
L 181.580236 166.074498 
L 180.887956 166.330913 
L 180.19585 166.587534 
L 179.50392 166.84436 
L 178.812164 167.101391 
L 178.120584 167.358625 
L 177.429179 167.616065 
L 176.737949 167.873708 
L 176.046895 168.131555 
L 175.356016 168.389605 
L 174.665313 168.64786 
L 173.974785 168.906317 
L 173.284434 169.164978 
L 172.594258 169.423841 
L 171.904257 169.682908 
L 171.214433 169.942176 
L 170.524785 170.201648 
L 169.835313 170.461321 
L 169.146017 170.721197 
L 168.456898 170.981274 
L 167.767955 171.241553 
L 167.079188 171.502033 
L 166.390598 171.762714 
L 165.702184 172.023597 
L 165.013947 172.284681 
L 164.325887 172.545965 
L 163.638004 172.807449 
L 162.950297 173.069134 
L 162.262768 173.331019 
L 161.575415 173.593104 
L 160.88824 173.855389 
L 160.201242 174.117873 
L 159.514421 174.380557 
L 158.827777 174.64344 
L 158.141311 174.906522 
L 157.455022 175.169803 
L 156.768911 175.433282 
L 156.082978 175.69696 
L 155.397222 175.960835 
L 154.711644 176.22491 
L 154.026244 176.489181 
L 153.341021 176.753651 
L 152.655977 177.018318 
L 151.971111 177.283182 
L 151.286423 177.548244 
L 150.601913 177.813502 
L 149.917582 178.078958 
L 149.233428 178.344609 
L 148.549454 178.610457 
L 147.865657 178.876502 
L 147.18204 179.142742 
L 146.4986 179.409178 
L 145.81534 179.67581 
L 145.132258 179.942637 
L 144.449356 180.209659 
L 143.766632 180.476877 
L 143.084087 180.744289 
L 142.401721 181.011896 
L 141.719534 181.279697 
L 141.037527 181.547693 
L 140.355698 181.815883 
L 139.674049 182.084267 
L 138.992579 182.352844 
L 138.311289 182.621615 
L 137.630179 182.89058 
L 136.949247 183.159738 
L 136.268496 183.429088 
L 135.587924 183.698632 
L 134.907532 183.968368 
L 134.22732 184.238296 
L 133.547288 184.508417 
L 132.867436 184.77873 
L 132.187763 185.049235 
L 131.508271 185.319931 
L 130.828959 185.590819 
L 130.149828 185.861898 
L 129.470876 186.133168 
L 128.792105 186.40463 
L 128.113514 186.676282 
L 127.435104 186.948124 
L 126.756875 187.220157 
L 126.078826 187.49238 
L 125.400957 187.764793 
L 124.72327 188.037396 
L 124.045763 188.310189 
L 123.368437 188.583171 
L 122.691292 188.856342 
L 122.014328 189.129702 
L 121.337545 189.403251 
L 121.337545 189.403251 
" clip-path="url(#pe8e5b9fb59)" style="fill: none; stroke: #0000ff; stroke-width: 0.5; stroke-linecap: square"/>
   </g>
   <g id="line2d_17">
    <path d="M 118.567216 131.225437 
L 118.567216 131.225437 
L 117.95064 130.76602 
L 117.333782 130.306689 
L 116.716642 129.847444 
L 116.09922 129.388286 
L 115.481515 128.929214 
L 114.863528 128.470228 
L 114.245257 128.01133 
L 113.626704 127.552518 
L 113.007868 127.093794 
L 112.388749 126.635158 
L 111.769347 126.176609 
L 111.149661 125.718148 
L 110.529692 125.259776 
L 109.90944 124.801492 
L 109.288904 124.343297 
L 108.668084 123.885191 
L 108.04698 123.427174 
L 107.425592 122.969247 
L 106.80392 122.511409 
L 106.181964 122.053661 
L 105.559724 121.596003 
L 104.937199 121.138435 
L 104.31439 120.680958 
L 103.691296 120.223572 
L 103.067917 119.766277 
L 102.444254 119.309073 
L 101.820305 118.851961 
L 101.196071 118.39494 
L 100.571553 117.938012 
L 99.946748 117.481175 
L 99.321659 117.024431 
L 98.696284 116.567779 
L 98.070623 116.111221 
L 97.444676 115.654755 
L 96.818444 115.198383 
L 96.191925 114.742105 
L 95.565121 114.28592 
L 94.93803 113.82983 
L 94.310653 113.373833 
L 93.68299 112.917932 
L 93.05504 112.462125 
L 92.426803 112.006413 
L 91.79828 111.550796 
L 91.16947 111.095274 
L 90.540372 110.639849 
L 89.910988 110.184519 
L 89.281317 109.729286 
L 88.651358 109.274149 
L 88.021112 108.819108 
L 87.390578 108.364165 
L 86.759757 107.909319 
L 86.128648 107.45457 
L 85.497251 106.999918 
L 84.865566 106.545365 
L 84.233594 106.09091 
L 83.601333 105.636553 
L 82.968783 105.182294 
L 82.335946 104.728135 
L 81.70282 104.274074 
L 81.069405 103.820113 
L 80.435702 103.366251 
L 79.80171 102.912489 
L 79.167429 102.458827 
L 78.532859 102.005266 
L 77.898 101.551804 
L 77.262852 101.098444 
L 76.627414 100.645185 
L 75.991687 100.192027 
L 75.35567 99.73897 
L 74.719364 99.286015 
L 74.082768 98.833162 
L 73.445883 98.380412 
L 72.808707 97.927763 
L 72.171241 97.475218 
L 71.533485 97.022775 
L 70.895439 96.570436 
L 70.257103 96.1182 
L 69.618476 95.666068 
L 68.979558 95.21404 
L 68.34035 94.762116 
L 67.700851 94.310296 
L 67.061061 93.858581 
L 66.42098 93.406971 
L 65.780609 92.955467 
L 65.139946 92.504067 
L 64.498991 92.052774 
L 63.857746 91.601586 
L 63.216208 91.150505 
L 62.57438 90.69953 
L 61.932259 90.248661 
L 61.289847 89.7979 
L 60.647143 89.347246 
L 60.004147 88.896699 
L 59.360859 88.44626 
L 58.717278 87.995929 
L 58.073405 87.545706 
L 57.42924 87.095591 
L 56.784783 86.645585 
L 56.140033 86.195689 
L 55.49499 85.745901 
L 54.849655 85.296223 
L 54.849655 85.296223 
" clip-path="url(#pe8e5b9fb59)" style="fill: none; stroke: #0000ff; stroke-width: 0.5; stroke-linecap: square"/>
   </g>
   <g id="line2d_18">
    <path d="M 118.567216 131.225437 
L 118.567216 131.225437 
L 118.595438 131.809682 
L 118.623644 132.393758 
L 118.651833 132.977665 
L 118.680006 133.561404 
L 118.708162 134.144975 
L 118.736303 134.728378 
L 118.764427 135.311613 
L 118.792534 135.89468 
L 118.820625 136.477579 
L 118.8487 137.06031 
L 118.876759 137.642875 
L 118.904802 138.225271 
L 118.932828 138.807501 
L 118.960838 139.389563 
L 118.988832 139.971459 
L 119.01681 140.553187 
L 119.044771 141.134749 
L 119.072717 141.716144 
L 119.100646 142.297373 
L 119.12856 142.878435 
L 119.156457 143.459332 
L 119.184338 144.040062 
L 119.212203 144.620626 
L 119.240052 145.201024 
L 119.267885 145.781256 
L 119.295702 146.361323 
L 119.323503 146.941224 
L 119.351288 147.52096 
L 119.379057 148.100531 
L 119.40681 148.679937 
L 119.434547 149.259178 
L 119.462268 149.838253 
L 119.489974 150.417164 
L 119.517663 150.995911 
L 119.545337 151.574493 
L 119.572995 152.15291 
L 119.600637 152.731164 
L 119.628263 153.309253 
L 119.655873 153.887178 
L 119.683468 154.464939 
L 119.711047 155.042537 
L 119.73861 155.61997 
L 119.766157 156.197241 
L 119.793689 156.774348 
L 119.821205 157.351291 
L 119.848705 157.928072 
L 119.87619 158.504689 
L 119.903659 159.081144 
L 119.931112 159.657436 
L 119.95855 160.233565 
L 119.985972 160.809531 
L 120.013379 161.385335 
L 120.04077 161.960977 
L 120.068145 162.536457 
L 120.095505 163.111774 
L 120.12285 163.68693 
L 120.150179 164.261924 
L 120.177492 164.836756 
L 120.20479 165.411426 
L 120.232073 165.985935 
L 120.25934 166.560283 
L 120.286591 167.13447 
L 120.313828 167.708495 
L 120.341049 168.282359 
L 120.368254 168.856063 
L 120.395444 169.429606 
L 120.422619 170.002988 
L 120.449778 170.576209 
L 120.476923 171.149271 
L 120.504051 171.722172 
L 120.531165 172.294912 
L 120.558263 172.867493 
L 120.585346 173.439914 
L 120.612414 174.012175 
L 120.639467 174.584277 
L 120.666504 175.156219 
L 120.693527 175.728001 
L 120.720534 176.299624 
L 120.747526 176.871088 
L 120.774502 177.442393 
L 120.801464 178.013539 
L 120.828411 178.584525 
L 120.855342 179.155354 
L 120.882258 179.726023 
L 120.90916 180.296534 
L 120.936046 180.866887 
L 120.962917 181.437082 
L 120.989773 182.007118 
L 121.016615 182.576996 
L 121.043441 183.146717 
L 121.070252 183.716279 
L 121.097048 184.285684 
L 121.12383 184.854931 
L 121.150596 185.424021 
L 121.177348 185.992954 
L 121.204084 186.561729 
L 121.230806 187.130347 
L 121.257513 187.698808 
L 121.284205 188.267113 
L 121.310882 188.83526 
L 121.337545 189.403251 
L 121.337545 189.403251 
" clip-path="url(#pe8e5b9fb59)" style="fill: none; stroke: #0000ff; stroke-width: 0.5; stroke-linecap: square"/>
   </g>
   <g id="patch_3">
    <path d="M 7.2 273.312 
L 7.2 7.2 
" style="fill: none; stroke: #000000; stroke-width: 0.8; stroke-linejoin: miter; stroke-linecap: square"/>
   </g>
   <g id="patch_4">
    <path d="M 340.747582 273.312 
L 340.747582 7.2 
" style="fill: none; stroke: #000000; stroke-width: 0.8; stroke-linejoin: miter; stroke-linecap: square"/>
   </g>
   <g id="patch_5">
    <path d="M 7.2 273.312 
L 340.747582 273.312 
" style="fill: none; stroke: #000000; stroke-width: 0.8; stroke-linejoin: miter; stroke-linecap: square"/>
   </g>
   <g id="patch_6">
    <path d="M 7.2 7.2 
L 340.747582 7.2 
" style="fill: none; stroke: #000000; stroke-width: 0.8; stroke-linejoin: miter; stroke-linecap: square"/>
   </g>
   <g id="PathCollection_1">
    <defs>
     <path id="mfbcc066a03" d="M 0 0.5 
C 0.132602 0.5 0.25979 0.447317 0.353553 0.353553 
C 0.447317 0.25979 0.5 0.132602 0.5 0 
C 0.5 -0.132602 0.447317 -0.25979 0.353553 -0.353553 
C 0.25979 -0.447317 0.132602 -0.5 0 -0.5 
C -0.132602 -0.5 -0.25979 -0.447317 -0.353553 -0.353553 
C -0.447317 -0.25979 -0.5 -0.132602 -0.5 0 
C -0.5 0.132602 -0.447317 0.25979 -0.353553 0.353553 
C -0.25979 0.447317 -0.132602 0.5 0 0.5 
z
" style="stroke: #ff0000"/>
    </defs>
    <g clip-path="url(#pe8e5b9fb59)">
     <use xlink:href="#mfbcc066a03" x="168.433133" y="47.769522" style="fill: #ff0000; stroke: #ff0000"/>
     <use xlink:href="#mfbcc066a03" x="149.040832" y="99.186726" style="fill: #ff0000; stroke: #ff0000"/>
     <use xlink:href="#mfbcc066a03" x="99.174915" y="47.769522" style="fill: #ff0000; stroke: #ff0000"/>
     <use xlink:href="#mfbcc066a03" x="173.973791" y="224.395384" style="fill: #ff0000; stroke: #ff0000"/>
     <use xlink:href="#mfbcc066a03" x="201.677078" y="237.365552" style="fill: #ff0000; stroke: #ff0000"/>
     <use xlink:href="#mfbcc066a03" x="293.097927" y="99.186726" style="fill: #ff0000; stroke: #ff0000"/>
     <use xlink:href="#mfbcc066a03" x="190.595763" y="162.75983" style="fill: #ff0000; stroke: #ff0000"/>
     <use xlink:href="#mfbcc066a03" x="118.567216" y="131.225437" style="fill: #ff0000; stroke: #ff0000"/>
     <use xlink:href="#mfbcc066a03" x="259.853982" y="237.365552" style="fill: #ff0000; stroke: #ff0000"/>
     <use xlink:href="#mfbcc066a03" x="54.849655" y="85.296223" style="fill: #ff0000; stroke: #ff0000"/>
     <use xlink:href="#mfbcc066a03" x="234.921023" y="140.285821" style="fill: #ff0000; stroke: #ff0000"/>
     <use xlink:href="#mfbcc066a03" x="121.337545" y="189.403251" style="fill: #ff0000; stroke: #ff0000"/>
    </g>
   </g>
   <g id="PathCollection_2"/>
  </g>
 </g>
 <defs>
  <clipPath id="pe8e5b9fb59">
   <rect x="7.2" y="7.2" width="333.547582" height="266.112"/>
  </clipPath>
 </defs>
</svg>
