<?xml version="1.0" encoding="utf-8" standalone="no"?>
<!DOCTYPE svg PUBLIC "-//W3C//DTD SVG 1.1//EN"
  "http://www.w3.org/Graphics/SVG/1.1/DTD/svg11.dtd">
<svg xmlns:xlink="http://www.w3.org/1999/xlink" width="139.63533pt" height="280.512pt" viewBox="0 0 139.63533 280.512" xmlns="http://www.w3.org/2000/svg" version="1.1">
 <metadata>
  <rdf:RDF xmlns:dc="http://purl.org/dc/elements/1.1/" xmlns:cc="http://creativecommons.org/ns#" xmlns:rdf="http://www.w3.org/1999/02/22-rdf-syntax-ns#">
   <cc:Work>
    <dc:type rdf:resource="http://purl.org/dc/dcmitype/StillImage"/>
    <dc:date>2025-04-17T08:30:07.027961</dc:date>
    <dc:format>image/svg+xml</dc:format>
    <dc:creator>
     <cc:Agent>
      <dc:title>Matplotlib v3.8.4, https://matplotlib.org/</dc:title>
     </cc:Agent>
    </dc:creator>
   </cc:Work>
  </rdf:RDF>
 </metadata>
 <defs>
  <style type="text/css">*{stroke-linejoin: round; stroke-linecap: butt}</style>
 </defs>
 <g id="figure_1">
  <g id="patch_1">
   <path d="M 0 280.512 
L 139.63533 280.512 
L 139.63533 0 
L 0 0 
z
" style="fill: #ffffff"/>
  </g>
  <g id="axes_1">
   <g id="patch_2">
    <path d="M 7.2 273.312 
L 132.43533 273.312 
L 132.43533 7.2 
L 7.2 7.2 
z
" style="fill: #ffffff"/>
   </g>
   <g id="matplotlib.axis_1"/>
   <g id="matplotlib.axis_2"/>
   <g id="LineCollection_1">
    <path d="M 132.43533 60.134986 
L 130.522505 56.903019 
L 132.43533 60.574593 
" clip-path="url(#p64bd66ffac)" style="fill: none; stroke: #000000; stroke-width: 0.2"/>
    <path d="M 132.43533 61.204497 
L 128.336016 64.011107 
L 128.681773 65.451668 
L 125.257738 64.811892 
L 118.791952 71.704683 
L 116.987434 69.372213 
L 116.446283 71.306437 
L 118.336768 72.144225 
L 115.606924 75.376856 
L 111.966239 76.518351 
L 110.770417 75.273496 
L 111.645202 76.449605 
L 108.780739 78.553782 
L 107.007552 76.594566 
L 106.913083 78.041413 
L 103.135261 77.800774 
L 106.22456 80.189389 
L 102.90145 83.912045 
L 98.582476 78.008745 
L 98.997039 82.625719 
L 101.832846 84.88928 
L 98.79519 87.566004 
L 99.420103 85.633924 
L 98.331503 86.387616 
L 96.765834 89.002354 
L 98.000704 90.834446 
L 95.083338 91.303415 
L 96.366859 92.353087 
L 95.182058 93.565589 
L 91.120514 91.877475 
L 93.159001 92.981764 
L 91.628915 93.184238 
L 91.612383 96.684226 
L 88.808538 95.269104 
L 91.113586 97.250988 
L 89.169725 97.897167 
L 91.302209 100.038298 
L 88.266285 98.250895 
L 90.941022 100.361935 
L 87.725134 101.471856 
L 89.651203 101.552765 
L 88.455381 103.457897 
L 90.949682 101.40129 
L 90.837264 102.763645 
L 89.419596 105.130536 
L 88.094823 103.256898 
L 88.086321 105.301679 
L 86.246691 105.805074 
L 88.147096 106.319416 
L 86.031774 106.136921 
L 87.312934 106.53065 
L 85.782375 106.752923 
L 87.00276 107.717694 
L 85.738762 111.667227 
L 86.658892 111.799263 
L 86.169857 114.016996 
L 85.979029 112.311337 
L 85.962969 113.475167 
L 84.407062 112.28137 
L 85.085823 113.515961 
L 83.709407 112.310786 
L 85.575488 114.047859 
L 83.787501 114.680465 
L 85.789303 115.147644 
L 85.315225 116.628804 
L 86.6485 114.908374 
L 85.755452 121.134163 
L 84.917353 119.220973 
L 84.453037 120.9968 
L 86.201346 121.522214 
L 85.413788 125.673359 
L 88.654396 142.367304 
L 96.242003 160.081195 
L 103.822682 171.842683 
L 104.820119 174.837334 
L 102.38612 175.883677 
L 102.076419 178.463991 
L 101.535425 177.360054 
L 100.980576 175.862195 
L 100.700633 171.500734 
L 98.73095 170.275462 
L 111.766752 204.724022 
L 108.981328 203.177607 
L 112.489599 205.187323 
L 114.992402 213.251959 
L 113.142538 236.199582 
L 112.944783 233.457424 
L 107.055259 250.091104 
L 110.42592 246.915133 
L 106.67691 252.200025 
L 106.125998 250.889182 
L 106.971654 251.585639 
L 107.668207 250.502612 
L 104.140728 249.112114 
L 101.766875 251.544072 
L 98.86116 250.479472 
L 93.151601 252.019706 
L 91.43919 249.55875 
L 92.017026 247.246812 
L 95.008865 249.833728 
L 96.994607 248.949873 
L 91.964281 245.953317 
L 90.64927 242.821606 
L 94.466612 241.810885 
L 92.498032 240.599343 
L 90.313904 241.991872 
L 89.10092 239.179376 
L 90.270921 238.242806 
L 87.836923 238.194571 
L 87.226337 237.116399 
L 88.877343 236.582224 
L 86.839958 235.120793 
L 84.467365 233.878263 
L 84.087756 235.234167 
L 82.264343 232.940564 
L 81.990225 234.201901 
L 79.900725 233.868636 
L 79.650854 232.481399 
L 81.482453 232.280687 
L 79.719659 232.386474 
L 80.965865 231.917756 
L 78.403388 229.773331 
L 77.372729 221.449791 
L 74.087406 220.60589 
L 78.387328 215.700381 
L 75.154121 219.04261 
L 73.056118 218.798462 
L 72.385387 210.691067 
L 74.361997 209.301381 
L 71.534692 210.275722 
L 68.721715 208.29716 
L 71.001098 212.705222 
L 68.480976 212.94676 
L 65.204312 207.284772 
L 62.581691 202.345152 
L 62.513515 199.169969 
L 60.054168 197.755268 
L 64.525551 196.708377 
L 60.9828 196.378672 
L 65.351684 192.088984 
L 66.022258 186.760471 
L 64.232697 187.383849 
L 64.585224 189.669147 
L 63.279345 189.377522 
L 62.994993 186.371717 
L 60.045036 184.648605 
L 59.2981 187.012835 
L 62.324262 188.279798 
L 60.389533 192.623923 
L 58.360178 188.15208 
L 58.445673 190.156005 
L 56.993052 189.056482 
L 56.752313 188.532011 
L 61.154891 172.99854 
L 61.189845 165.940954 
L 59.194341 165.431005 
L 61.447116 165.038181 
L 58.52424 161.993047 
L 57.87933 157.889074 
L 52.482621 158.199213 
L 49.083305 151.844793 
L 45.452855 149.747412 
L 45.460255 146.060208 
L 41.627483 144.012163 
L 39.656069 140.08773 
L 33.38363 135.763879 
L 29.434504 136.562184 
L 28.798096 134.97113 
L 28.866429 136.30327 
L 25.143084 137.407325 
L 26.047626 138.990196 
L 24.113527 138.442147 
L 25.946229 140.755087 
L 22.387418 140.323887 
L 14.776981 145.001144 
L 15.427559 142.729358 
L 12.567662 145.123696 
L 7.2 145.975796 
L 7.2 145.975796 
" clip-path="url(#p64bd66ffac)" style="fill: none; stroke: #000000; stroke-width: 0.2"/>
    <path d="M 100.105005 204.562961 
L 103.017174 210.227685 
L 100.093668 216.104647 
L 92.95668 209.526628 
L 100.099336 204.459771 
L 100.105005 204.562961 
" clip-path="url(#p64bd66ffac)" style="fill: none; stroke: #000000; stroke-width: 0.2"/>
   </g>
   <g id="LineCollection_2"/>
   <g id="LineCollection_3">
    <path d="M 32.713615 7.2 
L 32.415793 7.675882 
L 31.662087 8.879525 
L 31.463702 9.196379 
L 27.089779 10.080919 
L 26.407711 16.233225 
" clip-path="url(#p64bd66ffac)" style="fill: none; stroke: #000000; stroke-width: 0.2"/>
    <path d="M 32.713615 7.2 
L 32.415793 7.675882 
L 31.662087 8.879525 
L 31.463702 9.196379 
L 27.089779 10.080919 
L 26.407711 16.233225 
" clip-path="url(#p64bd66ffac)" style="fill: none; stroke: #000000; stroke-width: 0.2"/>
    <path d="M 51.716791 15.876514 
L 52.898758 15.425925 
L 54.080724 14.975237 
L 55.262691 14.524451 
L 56.444658 14.073566 
L 57.626625 13.622581 
L 58.808592 13.171499 
L 59.990401 12.720317 
L 61.172368 12.269036 
L 62.354335 11.817655 
L 63.536302 11.366369 
L 64.718268 10.91479 
L 65.900235 10.463112 
L 66.294644 10.312402 
L 67.531561 10.383904 
L 68.768319 10.45521 
L 70.005236 10.5269 
L 71.241995 10.598202 
L 72.478911 10.669694 
L 73.71567 10.741183 
L 74.952587 10.812477 
L 76.189503 10.884154 
L 77.426262 10.955444 
L 78.663178 11.026923 
L 79.899937 11.0984 
L 81.136854 11.169682 
L 82.373613 11.241347 
L 83.610529 11.312624 
L 84.847446 11.384091 
L 86.084204 11.455555 
L 87.321121 11.527017 
L 88.032316 11.568044 
L 93.845162 12.037966 
L 94.240673 14.462325 
L 96.333008 12.970173 
L 99.394282 16.988726 
L 99.273833 20.273436 
L 100.511852 20.29837 
L 101.74987 20.323304 
L 102.988046 20.348237 
L 104.226065 20.37317 
L 105.464084 20.398103 
L 106.702102 20.423036 
L 107.940278 20.447968 
L 109.178297 20.4729 
L 110.416315 20.497832 
L 111.654334 20.522763 
L 112.89251 20.547886 
L 114.130528 20.572816 
L 115.368547 20.597747 
L 116.606565 20.622677 
L 117.844741 20.647607 
L 119.08276 20.672536 
L 120.320778 20.697465 
L 121.558797 20.722394 
L 122.502072 20.741378 
L 123.447708 21.714897 
L 124.393187 22.687766 
L 125.338824 23.66018 
L 126.284303 24.632331 
L 127.229939 25.604027 
L 128.175418 26.575078 
L 129.121054 27.545678 
L 130.066533 28.516016 
L 131.01217 29.485904 
L 131.957649 30.455152 
L 132.43533 30.944589 
" clip-path="url(#p64bd66ffac)" style="fill: none; stroke: #000000; stroke-width: 0.2"/>
    <path d="M 51.716791 15.876514 
L 52.898758 15.425925 
L 54.080724 14.975237 
L 55.262691 14.524451 
L 56.444658 14.073566 
L 57.626625 13.622581 
L 58.808592 13.171499 
L 59.990401 12.720317 
L 61.172368 12.269036 
L 62.354335 11.817655 
L 63.536302 11.366369 
L 64.718268 10.91479 
L 65.900235 10.463112 
L 66.294644 10.312402 
L 67.531561 10.383904 
L 68.768319 10.45521 
L 70.005236 10.5269 
L 71.241995 10.598202 
L 72.478911 10.669694 
L 73.71567 10.741183 
L 74.952587 10.812477 
L 76.189503 10.884154 
L 77.426262 10.955444 
L 78.663178 11.026923 
L 79.899937 11.0984 
L 81.136854 11.169682 
L 82.373613 11.241347 
L 83.610529 11.312624 
L 84.847446 11.384091 
L 86.084204 11.455555 
L 87.321121 11.527017 
L 88.032316 11.568044 
L 93.845162 12.037966 
L 94.240673 14.462325 
L 96.333008 12.970173 
L 99.394282 16.988726 
L 99.273833 20.273436 
L 100.511852 20.29837 
L 101.74987 20.323304 
L 102.988046 20.348237 
L 104.226065 20.37317 
L 105.464084 20.398103 
L 106.702102 20.423036 
L 107.940278 20.447968 
L 109.178297 20.4729 
L 110.416315 20.497832 
L 111.654334 20.522763 
L 112.89251 20.547886 
L 114.130528 20.572816 
L 115.368547 20.597747 
L 116.606565 20.622677 
L 117.844741 20.647607 
L 119.08276 20.672536 
L 120.320778 20.697465 
L 121.558797 20.722394 
L 122.502072 20.741378 
L 123.447708 21.714897 
L 124.393187 22.687766 
L 125.338824 23.66018 
L 126.284303 24.632331 
L 127.229939 25.604027 
L 128.175418 26.575078 
L 129.121054 27.545678 
L 130.066533 28.516016 
L 131.01217 29.485904 
L 131.957649 30.455152 
L 132.43533 30.944589 
" clip-path="url(#p64bd66ffac)" style="fill: none; stroke: #000000; stroke-width: 0.2"/>
    <path d="M 84.461067 121.146067 
L 83.252963 120.830489 
L 82.04486 120.514867 
L 80.836757 120.199019 
L 79.628496 119.883311 
L 78.420393 119.56756 
L 77.212289 119.251583 
L 76.004186 118.935562 
L 75.094133 118.697602 
L 73.506106 120.679369 
L 73.490991 122.119456 
L 73.475876 123.558465 
L 73.460603 124.996766 
L 73.445488 126.433995 
L 73.430373 127.870521 
L 73.415258 129.306163 
L 73.414471 129.379893 
L 70.897812 129.632455 
L 69.476209 124.797278 
L 68.240079 124.713529 
L 67.00395 124.629776 
L 65.767821 124.546204 
L 64.531692 124.462445 
L 63.295563 124.378684 
L 62.059434 124.294919 
L 60.823304 124.211334 
L 59.587175 124.127564 
L 58.351046 124.04379 
L 57.114917 123.960013 
L 55.878788 123.876233 
L 54.642659 123.792451 
L 53.406529 123.708665 
L 52.1704 123.624876 
L 50.934271 123.541084 
L 49.698142 123.45729 
L 48.462013 123.373492 
L 47.225884 123.289874 
L 45.989754 123.20607 
L 44.753625 123.122263 
L 43.517496 123.038453 
L 42.281367 122.954823 
L 41.045238 122.871007 
L 39.809109 122.787188 
L 38.572979 122.703366 
L 37.337008 122.619541 
L 36.100879 122.535713 
L 34.864749 122.451882 
L 33.62862 122.368047 
L 32.392491 122.28421 
L 31.156362 122.20037 
L 29.920233 122.116527 
L 28.684104 122.032863 
L 27.447974 121.949014 
L 26.211845 121.865162 
L 24.975716 121.781306 
L 23.739587 121.697631 
L 22.503458 121.61377 
L 21.267329 121.529905 
L 20.031199 121.446038 
L 18.79507 121.362167 
L 17.558941 121.278293 
L 16.322812 121.194417 
L 15.217837 121.119511 
L 13.176988 116.259934 
" clip-path="url(#p64bd66ffac)" style="fill: none; stroke: #000000; stroke-width: 0.2"/>
    <path d="M 84.461067 121.146067 
L 83.252963 120.830489 
L 82.04486 120.514867 
L 80.836757 120.199019 
L 79.628496 119.883311 
L 78.420393 119.56756 
L 77.212289 119.251583 
L 76.004186 118.935562 
L 75.094133 118.697602 
L 73.506106 120.679369 
L 73.490991 122.119456 
L 73.475876 123.558465 
L 73.460603 124.996766 
L 73.445488 126.433995 
L 73.430373 127.870521 
L 73.415258 129.306163 
L 73.414471 129.379893 
L 70.897812 129.632455 
L 69.487702 124.817393 
L 68.251573 124.733278 
L 67.015444 124.648978 
L 65.779315 124.564857 
L 64.543343 124.48055 
L 63.307214 124.396424 
L 62.071085 124.312294 
L 60.834956 124.228161 
L 59.598826 124.144025 
L 58.362697 124.059886 
L 57.126726 123.975561 
L 55.890596 123.891416 
L 54.654467 123.807086 
L 53.418338 123.722934 
L 52.182209 123.63878 
L 50.94608 123.554623 
L 49.710108 123.470463 
L 48.473979 123.386299 
L 47.23785 123.30195 
L 46.00172 123.217781 
L 44.765591 123.133425 
L 43.529462 123.04925 
L 42.29349 122.965071 
L 41.057361 122.880889 
L 39.821232 122.796705 
L 38.585103 122.712517 
L 37.348974 122.628143 
L 36.112845 122.543949 
L 34.876715 122.459569 
L 33.640744 122.375369 
L 32.404615 122.291166 
L 31.168485 122.20696 
L 29.932356 122.122751 
L 28.696227 122.038539 
L 27.460098 121.95414 
L 26.224126 121.869922 
L 24.987997 121.785518 
L 23.751868 121.701293 
L 22.515739 121.617065 
L 21.27961 121.532835 
L 20.04348 121.448601 
L 18.807509 121.364364 
L 17.57138 121.279942 
L 16.33525 121.195699 
L 15.217837 121.119511 
L 13.176988 116.259934 
" clip-path="url(#p64bd66ffac)" style="fill: none; stroke: #000000; stroke-width: 0.2"/>
    <path d="M 11.216438 88.838697 
L 14.644567 83.577266 
L 12.523577 81.95628 
L 12.603718 77.650478 
L 11.982426 76.38011 
L 11.361133 75.10882 
L 10.739841 73.836793 
L 10.118549 72.564214 
L 9.497257 71.290708 
L 8.875964 70.016458 
L 8.866202 69.99641 
L 8.615702 68.552859 
L 8.365358 67.108538 
L 8.114858 65.66307 
L 7.864514 64.216638 
L 7.614014 62.769241 
L 7.36367 61.320875 
L 7.2 60.374028 
" clip-path="url(#p64bd66ffac)" style="fill: none; stroke: #000000; stroke-width: 0.2"/>
    <path d="M 70.192757 49.461545 
L 71.21145 50.307092 
L 72.230142 51.152304 
L 73.248678 51.997183 
L 74.26737 52.841728 
L 75.286063 53.685939 
L 75.833512 54.139535 
L 75.684565 56.81103 
L 79.32462 61.794869 
L 80.407552 62.51187 
L 81.490483 63.228634 
L 82.573415 63.945348 
L 83.656347 64.661638 
L 84.739278 65.377691 
L 84.856578 65.455235 
L 85.130538 66.89465 
L 85.404499 68.3333 
L 85.678459 69.770813 
L 85.95242 71.207379 
L 86.226381 72.643188 
L 86.500341 74.078055 
L 86.685186 75.045451 
L 90.050178 77.26302 
L 92.30311 82.247892 
L 92.171326 86.937286 
L 97.19866 89.440693 
" clip-path="url(#p64bd66ffac)" style="fill: none; stroke: #000000; stroke-width: 0.2"/>
    <path d="M 70.192757 49.461545 
L 71.21145 50.307092 
L 72.230142 51.152304 
L 73.248678 51.997183 
L 74.26737 52.841728 
L 75.286063 53.685939 
L 75.833512 54.139535 
L 75.684565 56.81103 
L 79.32462 61.794869 
L 80.407552 62.51187 
L 81.490483 63.228634 
L 82.573415 63.945348 
L 83.656347 64.661638 
L 84.739278 65.377691 
L 84.856578 65.455235 
L 85.130538 66.89465 
L 85.404499 68.3333 
L 85.678459 69.770813 
L 85.95242 71.207379 
L 86.226381 72.643188 
L 86.500341 74.078055 
L 86.685186 75.045451 
L 90.050178 77.26302 
L 92.30311 82.247892 
L 92.171326 86.937286 
L 97.19866 89.440693 
" clip-path="url(#p64bd66ffac)" style="fill: none; stroke: #000000; stroke-width: 0.2"/>
    <path d="M 11.222264 88.838697 
L 14.644567 83.577266 
L 12.523577 81.95628 
L 12.603718 77.650478 
L 11.982426 76.38011 
L 11.361133 75.10882 
L 10.739841 73.836793 
L 10.118549 72.564214 
L 9.497257 71.290708 
L 8.875964 70.016458 
L 8.866202 69.99641 
L 8.615702 68.552859 
L 8.365358 67.108538 
L 8.114858 65.66307 
L 7.864514 64.216638 
L 7.614014 62.769241 
L 7.36367 61.320875 
L 7.2 60.374028 
" clip-path="url(#p64bd66ffac)" style="fill: none; stroke: #000000; stroke-width: 0.2"/>
    <path d="M 21.133812 15.953397 
L 22.371988 15.950706 
L 23.610322 15.947631 
L 24.848498 15.94494 
L 26.086674 15.942057 
L 27.325007 15.939174 
L 28.563183 15.936483 
L 29.801359 15.9336 
L 31.039535 15.930717 
L 32.277868 15.928026 
L 33.516044 15.925143 
L 34.75422 15.92226 
L 35.992554 15.919569 
L 37.23073 15.916494 
L 38.468906 15.913803 
L 39.707239 15.91092 
L 40.945415 15.908037 
L 42.183591 15.905346 
L 43.421925 15.902463 
L 44.660101 15.89958 
L 45.898277 15.896889 
L 47.136453 15.894005 
L 48.374786 15.891122 
L 49.612962 15.888431 
L 50.851138 15.885356 
L 51.745446 15.883434 
L 50.936318 17.027531 
L 50.127347 18.170801 
L 49.318218 19.31344 
L 48.509247 20.455639 
L 47.700119 21.597018 
L 46.891148 22.737768 
L 46.431398 23.385759 
L 47.462529 24.219251 
L 48.493817 25.0526 
L 49.524948 25.885424 
L 50.556237 26.717915 
L 51.587368 27.550265 
L 52.618656 28.382091 
L 53.201531 28.852224 
L 56.228324 28.977524 
L 57.540973 32.041976 
" clip-path="url(#p64bd66ffac)" style="fill: none; stroke: #000000; stroke-width: 0.2"/>
    <path d="M 21.133812 15.953397 
L 22.371988 15.950706 
L 23.610322 15.947631 
L 24.848498 15.94494 
L 26.086674 15.942057 
L 27.325007 15.939174 
L 28.563183 15.936483 
L 29.801359 15.9336 
L 31.039535 15.930717 
L 32.277868 15.928026 
L 33.516044 15.925143 
L 34.75422 15.92226 
L 35.992554 15.919569 
L 37.23073 15.916494 
L 38.468906 15.913803 
L 39.707239 15.91092 
L 40.945415 15.908037 
L 42.183591 15.905346 
L 43.421925 15.902463 
L 44.660101 15.89958 
L 45.898277 15.896889 
L 47.136453 15.894005 
L 48.374786 15.891122 
L 49.612962 15.888431 
L 50.851138 15.885356 
L 51.745446 15.883434 
L 50.936318 17.027531 
L 50.127347 18.170801 
L 49.318218 19.31344 
L 48.509247 20.455639 
L 47.700119 21.597018 
L 46.891148 22.737768 
L 46.431398 23.385759 
L 47.462529 24.219251 
L 48.493817 25.0526 
L 49.524948 25.885424 
L 50.556237 26.717915 
L 51.587368 27.550265 
L 52.618656 28.382091 
L 53.201531 28.852224 
L 56.228324 28.977524 
L 57.540973 32.041976 
" clip-path="url(#p64bd66ffac)" style="fill: none; stroke: #000000; stroke-width: 0.2"/>
    <path d="M 7.2 114.355367 
L 8.212633 114.355367 
L 9.450809 114.355 
L 10.688985 114.355 
L 11.927319 114.354816 
L 12.339991 114.354633 
" clip-path="url(#p64bd66ffac)" style="fill: none; stroke: #000000; stroke-width: 0.2"/>
    <path d="M 7.2 114.355367 
L 8.212633 114.355367 
L 9.450809 114.355 
L 10.688985 114.355 
L 11.927319 114.354816 
L 12.339991 114.354633 
" clip-path="url(#p64bd66ffac)" style="fill: none; stroke: #000000; stroke-width: 0.2"/>
    <path d="M 57.546798 31.986285 
L 58.214223 33.249271 
L 58.881805 34.511497 
L 59.54923 35.772965 
L 60.216812 37.033677 
L 60.884237 38.293635 
L 61.551819 39.552651 
L 62.219244 40.811106 
L 62.826523 41.9553 
L 63.891978 42.715792 
L 64.957433 43.475821 
L 66.022888 44.235768 
L 67.088343 44.995442 
L 68.153955 45.754655 
L 68.180564 45.773793 
L 70.135446 49.399501 
" clip-path="url(#p64bd66ffac)" style="fill: none; stroke: #000000; stroke-width: 0.2"/>
    <path d="M 57.546798 31.986285 
L 58.214223 33.249271 
L 58.881805 34.511497 
L 59.54923 35.772965 
L 60.216812 37.033677 
L 60.884237 38.293635 
L 61.551819 39.552651 
L 62.219244 40.811106 
L 62.826523 41.9553 
L 63.891978 42.715792 
L 64.957433 43.475821 
L 66.022888 44.235768 
L 67.088343 44.995442 
L 68.153955 45.754655 
L 68.180564 45.773793 
L 70.135446 49.399501 
" clip-path="url(#p64bd66ffac)" style="fill: none; stroke: #000000; stroke-width: 0.2"/>
    <path d="M 11.176289 99.196919 
L 11.05647 100.643763 
L 10.936652 102.089865 
L 10.816833 103.534859 
L 10.697015 104.978932 
L 10.577197 106.422271 
L 10.457378 107.864695 
L 10.33756 109.305838 
L 10.327955 109.420523 
L 10.870523 110.721419 
L 11.412934 112.021758 
L 11.955502 113.321176 
L 12.49807 114.619857 
L 13.04048 115.917989 
L 13.21147 116.326739 
" clip-path="url(#p64bd66ffac)" style="fill: none; stroke: #000000; stroke-width: 0.2"/>
    <path d="M 11.182114 99.196919 
L 11.061509 100.643763 
L 10.940903 102.089496 
L 10.82014 103.534674 
L 10.699534 104.978563 
L 10.578929 106.421902 
L 10.458323 107.863958 
L 10.33756 109.305286 
L 10.327955 109.420523 
L 10.870523 110.721419 
L 11.412934 112.021758 
L 11.955502 113.321176 
L 12.49807 114.619857 
L 13.04048 115.917989 
L 13.21147 116.326739 
" clip-path="url(#p64bd66ffac)" style="fill: none; stroke: #000000; stroke-width: 0.2"/>
    <path d="M 7.2 15.887543 
L 8.052193 15.887278 
L 9.290369 15.886894 
L 10.528545 15.886509 
L 11.766878 15.886125 
L 13.005054 15.885741 
L 14.24323 15.885356 
L 15.481564 15.884972 
L 16.71974 15.884779 
L 17.957916 15.884395 
L 19.196249 15.884011 
L 20.434425 15.883626 
L 21.04202 15.883434 
" clip-path="url(#p64bd66ffac)" style="fill: none; stroke: #000000; stroke-width: 0.2"/>
    <path d="M 7.2 15.887543 
L 8.052193 15.887278 
L 9.290369 15.886894 
L 10.528545 15.886509 
L 11.766878 15.886125 
L 13.005054 15.885741 
L 14.24323 15.885356 
L 15.481564 15.884972 
L 16.71974 15.884779 
L 17.957916 15.884395 
L 19.196249 15.884011 
L 20.434425 15.883626 
L 21.04202 15.883434 
" clip-path="url(#p64bd66ffac)" style="fill: none; stroke: #000000; stroke-width: 0.2"/>
    <path d="M 11.147633 99.156423 
L 9.54827 94.371274 
L 11.176289 88.784638 
" clip-path="url(#p64bd66ffac)" style="fill: none; stroke: #000000; stroke-width: 0.2"/>
    <path d="M 11.147633 99.156423 
L 9.54827 94.371274 
L 11.182114 88.784638 
" clip-path="url(#p64bd66ffac)" style="fill: none; stroke: #000000; stroke-width: 0.2"/>
   </g>
   <g id="line2d_1">
    <path d="M 108.926323 198.393848 
L 108.926323 198.393848 
L 108.868931 198.247124 
L 108.811533 198.100394 
L 108.754128 197.953657 
L 108.696716 197.806913 
L 108.639298 197.660161 
L 108.581874 197.513403 
L 108.524442 197.366638 
L 108.467005 197.219866 
L 108.40956 197.073087 
L 108.35211 196.926301 
L 108.294652 196.779508 
L 108.237188 196.632708 
L 108.179718 196.4859 
L 108.122241 196.339086 
L 108.064757 196.192265 
L 108.007267 196.045437 
L 107.94977 195.898602 
L 107.892267 195.75176 
L 107.834757 195.604911 
L 107.777241 195.458055 
L 107.719718 195.311192 
L 107.662188 195.164322 
L 107.604652 195.017445 
L 107.547109 194.870561 
L 107.48956 194.723669 
L 107.432004 194.576771 
L 107.374441 194.429866 
L 107.316872 194.282954 
L 107.259296 194.136035 
L 107.201714 193.989108 
L 107.144125 193.842175 
L 107.086529 193.695235 
L 107.028927 193.548288 
L 106.971318 193.401333 
L 106.913703 193.254372 
L 106.856081 193.107403 
L 106.798452 192.960428 
L 106.740817 192.813445 
L 106.683175 192.666456 
L 106.625527 192.519459 
L 106.567872 192.372456 
L 106.51021 192.225445 
L 106.452542 192.078427 
L 106.394867 191.931402 
L 106.337185 191.78437 
L 106.279497 191.637332 
L 106.221802 191.490286 
L 106.1641 191.343233 
L 106.106392 191.196172 
L 106.048677 191.049105 
L 105.990955 190.902031 
L 105.933227 190.75495 
L 105.875492 190.607861 
L 105.817751 190.460766 
L 105.760003 190.313663 
L 105.702248 190.166554 
L 105.644486 190.019437 
L 105.586718 189.872313 
L 105.528943 189.725183 
L 105.471162 189.578045 
L 105.413373 189.4309 
L 105.355579 189.283747 
L 105.297777 189.136588 
L 105.239969 188.989422 
L 105.182154 188.842249 
L 105.124332 188.695068 
L 105.066504 188.547881 
L 105.008669 188.400686 
L 104.950827 188.253484 
L 104.892979 188.106275 
L 104.835123 187.959059 
L 104.777262 187.811836 
L 104.719393 187.664606 
L 104.661518 187.517368 
L 104.603636 187.370124 
L 104.545747 187.222872 
L 104.487852 187.075614 
L 104.42995 186.928348 
L 104.372041 186.781075 
L 104.314125 186.633795 
L 104.256203 186.486508 
L 104.198274 186.339213 
L 104.140338 186.191912 
L 104.082396 186.044603 
L 104.024447 185.897288 
L 103.966491 185.749965 
L 103.908528 185.602635 
L 103.850558 185.455298 
L 103.792582 185.307953 
L 103.734599 185.160602 
L 103.67661 185.013243 
L 103.618613 184.865878 
L 103.56061 184.718505 
L 103.5026 184.571125 
L 103.444583 184.423738 
L 103.38656 184.276343 
L 103.328529 184.128942 
L 103.270492 183.981533 
L 103.212449 183.834117 
L 103.154398 183.686694 
L 103.096341 183.539264 
L 103.096341 183.539264 
" clip-path="url(#p64bd66ffac)" style="fill: none; stroke: #0000ff; stroke-width: 0.5; stroke-linecap: square"/>
   </g>
   <g id="line2d_2">
    <path d="M 108.926323 198.393848 
L 108.926323 198.393848 
L 108.982309 198.562167 
L 109.038288 198.730476 
L 109.09426 198.898775 
L 109.150225 199.067065 
L 109.206182 199.235346 
L 109.262131 199.403616 
L 109.318074 199.571878 
L 109.374009 199.740129 
L 109.429937 199.908371 
L 109.485858 200.076603 
L 109.541771 200.244826 
L 109.597677 200.413039 
L 109.653576 200.581242 
L 109.709468 200.749436 
L 109.765352 200.91762 
L 109.821229 201.085795 
L 109.877099 201.25396 
L 109.932962 201.422115 
L 109.988817 201.590261 
L 110.044665 201.758398 
L 110.100506 201.926524 
L 110.156339 202.094642 
L 110.212166 202.262749 
L 110.267985 202.430847 
L 110.323797 202.598936 
L 110.379601 202.767015 
L 110.435399 202.935084 
L 110.491189 203.103144 
L 110.546972 203.271194 
L 110.602748 203.439235 
L 110.658516 203.607266 
L 110.714277 203.775288 
L 110.770031 203.9433 
L 110.825778 204.111302 
L 110.881518 204.279295 
L 110.937251 204.447279 
L 110.992976 204.615253 
L 111.048694 204.783217 
L 111.104405 204.951172 
L 111.160109 205.119118 
L 111.215805 205.287053 
L 111.271495 205.45498 
L 111.327177 205.622897 
L 111.382852 205.790804 
L 111.43852 205.958702 
L 111.49418 206.126591 
L 111.549834 206.294469 
L 111.60548 206.462339 
L 111.661119 206.630199 
L 111.716751 206.798049 
L 111.772376 206.96589 
L 111.827994 207.133722 
L 111.883605 207.301544 
L 111.939208 207.469357 
L 111.994804 207.63716 
L 112.050393 207.804953 
L 112.105975 207.972738 
L 112.16155 208.140512 
L 112.217118 208.308278 
L 112.272679 208.476033 
L 112.328232 208.64378 
L 112.383779 208.811517 
L 112.439318 208.979244 
L 112.49485 209.146962 
L 112.550375 209.314671 
L 112.605893 209.48237 
L 112.661404 209.65006 
L 112.716908 209.817741 
L 112.772404 209.985412 
L 112.827894 210.153073 
L 112.883377 210.320725 
L 112.938852 210.488368 
L 112.99432 210.656001 
L 113.049781 210.823625 
L 113.105236 210.99124 
L 113.160683 211.158845 
L 113.216123 211.326441 
L 113.271556 211.494027 
L 113.326981 211.661604 
L 113.3824 211.829171 
L 113.437812 211.99673 
L 113.493217 212.164279 
L 113.548614 212.331818 
L 113.604005 212.499348 
L 113.659388 212.666869 
L 113.714765 212.83438 
L 113.770134 213.001882 
L 113.825497 213.169375 
L 113.880852 213.336858 
L 113.9362 213.504332 
L 113.991542 213.671797 
L 114.046876 213.839252 
L 114.102203 214.006698 
L 114.157524 214.174134 
L 114.212837 214.341561 
L 114.268143 214.508979 
L 114.323442 214.676388 
L 114.378734 214.843787 
L 114.43402 215.011177 
L 114.489298 215.178558 
L 114.544569 215.345929 
L 114.544569 215.345929 
" clip-path="url(#p64bd66ffac)" style="fill: none; stroke: #0000ff; stroke-width: 0.5; stroke-linecap: square"/>
   </g>
   <g id="line2d_3">
    <path d="M 103.096341 183.539264 
L 103.096341 183.539264 
L 103.055788 183.416804 
L 103.015232 183.294339 
L 102.974672 183.171869 
L 102.934107 183.049393 
L 102.893539 182.926912 
L 102.852967 182.804426 
L 102.812391 182.681935 
L 102.771811 182.559438 
L 102.731227 182.436936 
L 102.69064 182.314429 
L 102.650048 182.191917 
L 102.609452 182.069399 
L 102.568853 181.946877 
L 102.528249 181.824349 
L 102.487641 181.701815 
L 102.44703 181.579277 
L 102.406414 181.456733 
L 102.365795 181.334184 
L 102.325172 181.21163 
L 102.284544 181.089071 
L 102.243913 180.966506 
L 102.203278 180.843936 
L 102.162638 180.721361 
L 102.121995 180.598781 
L 102.081348 180.476195 
L 102.040697 180.353604 
L 102.000042 180.231008 
L 101.959383 180.108407 
L 101.91872 179.9858 
L 101.878053 179.863188 
L 101.837382 179.740571 
L 101.796707 179.617948 
L 101.756028 179.495321 
L 101.715345 179.372688 
L 101.674659 179.25005 
L 101.633968 179.127406 
L 101.593273 179.004757 
L 101.552574 178.882103 
L 101.511871 178.759444 
L 101.471165 178.63678 
L 101.430454 178.51411 
L 101.389739 178.391435 
L 101.349021 178.268754 
L 101.308298 178.146069 
L 101.267571 178.023378 
L 101.226841 177.900682 
L 101.186106 177.77798 
L 101.145367 177.655273 
L 101.104625 177.532561 
L 101.063878 177.409844 
L 101.023128 177.287122 
L 100.982373 177.164394 
L 100.941614 177.041661 
L 100.900852 176.918922 
L 100.860085 176.796178 
L 100.819315 176.673429 
L 100.77854 176.550675 
L 100.737761 176.427915 
L 100.696979 176.305151 
L 100.656192 176.18238 
L 100.615402 176.059605 
L 100.574607 175.936824 
L 100.533808 175.814038 
L 100.493006 175.691247 
L 100.452199 175.56845 
L 100.411388 175.445648 
L 100.370574 175.322841 
L 100.329755 175.200028 
L 100.288932 175.07721 
L 100.248105 174.954387 
L 100.207275 174.831559 
L 100.16644 174.708725 
L 100.125601 174.585886 
L 100.084758 174.463041 
L 100.043911 174.340191 
L 100.00306 174.217336 
L 99.962205 174.094476 
L 99.921347 173.97161 
L 99.880484 173.848739 
L 99.839617 173.725863 
L 99.798746 173.602981 
L 99.75787 173.480094 
L 99.716991 173.357202 
L 99.676108 173.234304 
L 99.635221 173.111401 
L 99.59433 172.988493 
L 99.553435 172.865579 
L 99.512535 172.74266 
L 99.471632 172.619736 
L 99.430725 172.496807 
L 99.389813 172.373872 
L 99.348898 172.250931 
L 99.307978 172.127986 
L 99.267055 172.005035 
L 99.226127 171.882078 
L 99.185195 171.759117 
L 99.14426 171.63615 
L 99.10332 171.513178 
L 99.062376 171.3902 
L 99.021428 171.267217 
L 98.980476 171.144228 
L 98.980476 171.144228 
" clip-path="url(#p64bd66ffac)" style="fill: none; stroke: #0000ff; stroke-width: 0.5; stroke-linecap: square"/>
   </g>
   <g id="line2d_4">
    <path d="M 80.079776 183.344408 
L 80.079776 183.344408 
L 80.14981 183.240916 
L 80.219849 183.137422 
L 80.289895 183.033925 
L 80.359946 182.930426 
L 80.430003 182.826925 
L 80.500066 182.723422 
L 80.570134 182.619916 
L 80.640208 182.516408 
L 80.710288 182.412898 
L 80.780374 182.309386 
L 80.850465 182.205872 
L 80.920562 182.102355 
L 80.990665 181.998836 
L 81.060774 181.895315 
L 81.130889 181.791791 
L 81.201009 181.688265 
L 81.271135 181.584737 
L 81.341267 181.481207 
L 81.411404 181.377675 
L 81.481547 181.27414 
L 81.551697 181.170603 
L 81.621851 181.067064 
L 81.692012 180.963523 
L 81.762178 180.859979 
L 81.832351 180.756433 
L 81.902529 180.652885 
L 81.972712 180.549335 
L 82.042902 180.445782 
L 82.113097 180.342227 
L 82.183298 180.23867 
L 82.253505 180.135111 
L 82.323718 180.031549 
L 82.393936 179.927986 
L 82.46416 179.824419 
L 82.53439 179.720851 
L 82.604626 179.617281 
L 82.674868 179.513708 
L 82.745115 179.410133 
L 82.815368 179.306556 
L 82.885628 179.202976 
L 82.955892 179.099394 
L 83.026163 178.99581 
L 83.096439 178.892224 
L 83.166722 178.788636 
L 83.23701 178.685045 
L 83.307303 178.581452 
L 83.377603 178.477857 
L 83.447908 178.37426 
L 83.51822 178.27066 
L 83.588537 178.167058 
L 83.65886 178.063454 
L 83.729188 177.959847 
L 83.799523 177.856239 
L 83.869863 177.752628 
L 83.940209 177.649015 
L 84.010561 177.545399 
L 84.080919 177.441782 
L 84.151283 177.338162 
L 84.221652 177.23454 
L 84.292027 177.130915 
L 84.362409 177.027289 
L 84.432795 176.92366 
L 84.503188 176.820029 
L 84.573587 176.716395 
L 84.643991 176.61276 
L 84.714402 176.509122 
L 84.784818 176.405482 
L 84.85524 176.301839 
L 84.925667 176.198195 
L 84.996101 176.094548 
L 85.06654 175.990899 
L 85.136986 175.887247 
L 85.207437 175.783594 
L 85.277894 175.679938 
L 85.348357 175.57628 
L 85.418826 175.47262 
L 85.4893 175.368957 
L 85.55978 175.265292 
L 85.630267 175.161625 
L 85.700759 175.057956 
L 85.771257 174.954284 
L 85.841761 174.85061 
L 85.91227 174.746934 
L 85.982786 174.643256 
L 86.053307 174.539575 
L 86.123835 174.435892 
L 86.194368 174.332207 
L 86.264907 174.22852 
L 86.335452 174.12483 
L 86.406002 174.021139 
L 86.476559 173.917444 
L 86.547122 173.813748 
L 86.61769 173.71005 
L 86.688264 173.606349 
L 86.758844 173.502646 
L 86.82943 173.39894 
L 86.900022 173.295233 
L 86.97062 173.191523 
L 87.041224 173.087811 
L 87.111833 172.984096 
L 87.182449 172.88038 
L 87.182449 172.88038 
" clip-path="url(#p64bd66ffac)" style="fill: none; stroke: #0000ff; stroke-width: 0.5; stroke-linecap: square"/>
   </g>
   <g id="line2d_5">
    <path d="M 80.079776 183.344408 
L 80.079776 183.344408 
L 79.929393 183.377411 
L 79.779014 183.410422 
L 79.628639 183.443441 
L 79.478268 183.476469 
L 79.327901 183.509506 
L 79.177538 183.542552 
L 79.027179 183.575606 
L 78.876823 183.608668 
L 78.726472 183.64174 
L 78.576124 183.67482 
L 78.425781 183.707908 
L 78.275441 183.741005 
L 78.125106 183.774111 
L 77.974774 183.807226 
L 77.824446 183.840348 
L 77.674123 183.87348 
L 77.523803 183.90662 
L 77.373487 183.939769 
L 77.223175 183.972927 
L 77.072867 184.006093 
L 76.922563 184.039267 
L 76.772263 184.07245 
L 76.621967 184.105642 
L 76.471674 184.138843 
L 76.321386 184.172052 
L 76.171102 184.205269 
L 76.020821 184.238496 
L 75.870545 184.27173 
L 75.720273 184.304974 
L 75.570004 184.338226 
L 75.41974 184.371486 
L 75.269479 184.404756 
L 75.119222 184.438033 
L 74.96897 184.47132 
L 74.818721 184.504615 
L 74.668476 184.537918 
L 74.518235 184.571231 
L 74.367998 184.604551 
L 74.217766 184.637881 
L 74.067537 184.671219 
L 73.917312 184.704565 
L 73.767091 184.73792 
L 73.616874 184.771284 
L 73.46666 184.804656 
L 73.316451 184.838037 
L 73.166246 184.871426 
L 73.016045 184.904824 
L 72.865848 184.938231 
L 72.715655 184.971646 
L 72.565465 185.00507 
L 72.41528 185.038502 
L 72.265099 185.071943 
L 72.114921 185.105392 
L 71.964748 185.13885 
L 71.814578 185.172317 
L 71.664413 185.205792 
L 71.514251 185.239275 
L 71.364094 185.272768 
L 71.21394 185.306268 
L 71.063791 185.339778 
L 70.913645 185.373296 
L 70.763504 185.406822 
L 70.613366 185.440357 
L 70.463232 185.473901 
L 70.313103 185.507453 
L 70.162977 185.541014 
L 70.012855 185.574583 
L 69.862737 185.608161 
L 69.712624 185.641747 
L 69.562514 185.675342 
L 69.412408 185.708946 
L 69.262306 185.742558 
L 69.112208 185.776178 
L 68.962115 185.809807 
L 68.812025 185.843445 
L 68.661939 185.877091 
L 68.511857 185.910746 
L 68.361779 185.944409 
L 68.211705 185.978081 
L 68.061635 186.011762 
L 67.911569 186.04545 
L 67.761507 186.079148 
L 67.61145 186.112854 
L 67.461396 186.146568 
L 67.311346 186.180291 
L 67.1613 186.214023 
L 67.011258 186.247763 
L 66.86122 186.281512 
L 66.711186 186.315269 
L 66.561156 186.349035 
L 66.41113 186.382809 
L 66.261108 186.416592 
L 66.11109 186.450383 
L 65.961076 186.484183 
L 65.811066 186.517991 
L 65.66106 186.551808 
L 65.511058 186.585633 
L 65.36106 186.619467 
L 65.211066 186.65331 
L 65.061076 186.687161 
L 64.91109 186.72102 
L 64.91109 186.72102 
" clip-path="url(#p64bd66ffac)" style="fill: none; stroke: #0000ff; stroke-width: 0.5; stroke-linecap: square"/>
   </g>
   <g id="line2d_6">
    <path d="M 87.182449 172.88038 
L 87.182449 172.88038 
L 87.254812 172.723851 
L 87.327184 172.567315 
L 87.399566 172.410771 
L 87.471956 172.254219 
L 87.544356 172.09766 
L 87.616764 171.941093 
L 87.689182 171.784518 
L 87.761609 171.627936 
L 87.834045 171.471346 
L 87.906491 171.314749 
L 87.978945 171.158144 
L 88.051408 171.001531 
L 88.123881 170.844911 
L 88.196363 170.688283 
L 88.268854 170.531647 
L 88.341354 170.375004 
L 88.413863 170.218353 
L 88.486382 170.061695 
L 88.55891 169.905028 
L 88.631446 169.748355 
L 88.703992 169.591673 
L 88.776547 169.434984 
L 88.849112 169.278287 
L 88.921685 169.121582 
L 88.994268 168.96487 
L 89.06686 168.80815 
L 89.139461 168.651423 
L 89.212071 168.494687 
L 89.284691 168.337945 
L 89.35732 168.181194 
L 89.429958 168.024436 
L 89.502605 167.86767 
L 89.575261 167.710896 
L 89.647927 167.554115 
L 89.720602 167.397326 
L 89.793286 167.240529 
L 89.865979 167.083725 
L 89.938682 166.926913 
L 90.011393 166.770093 
L 90.084114 166.613265 
L 90.156845 166.45643 
L 90.229584 166.299587 
L 90.302333 166.142737 
L 90.375091 165.985878 
L 90.447858 165.829012 
L 90.520635 165.672139 
L 90.593421 165.515257 
L 90.666216 165.358368 
L 90.73902 165.201471 
L 90.811834 165.044567 
L 90.884657 164.887654 
L 90.957489 164.730734 
L 91.03033 164.573806 
L 91.103181 164.416871 
L 91.176041 164.259928 
L 91.248911 164.102977 
L 91.321789 163.946018 
L 91.394677 163.789052 
L 91.467575 163.632077 
L 91.540481 163.475096 
L 91.613397 163.318106 
L 91.686323 163.161109 
L 91.759257 163.004103 
L 91.832201 162.84709 
L 91.905154 162.69007 
L 91.978117 162.533041 
L 92.051089 162.376005 
L 92.12407 162.218961 
L 92.197061 162.06191 
L 92.270061 161.90485 
L 92.34307 161.747783 
L 92.416089 161.590708 
L 92.489117 161.433625 
L 92.562155 161.276535 
L 92.635201 161.119437 
L 92.708258 160.962331 
L 92.781323 160.805217 
L 92.854398 160.648095 
L 92.927483 160.490966 
L 93.000576 160.333829 
L 93.073679 160.176684 
L 93.146792 160.019531 
L 93.219914 159.86237 
L 93.293045 159.705202 
L 93.366186 159.548026 
L 93.439336 159.390842 
L 93.512496 159.23365 
L 93.585665 159.076451 
L 93.658843 158.919244 
L 93.732031 158.762029 
L 93.805228 158.604806 
L 93.878435 158.447575 
L 93.951651 158.290336 
L 94.024876 158.13309 
L 94.098111 157.975836 
L 94.171356 157.818574 
L 94.24461 157.661304 
L 94.317873 157.504027 
L 94.391146 157.346741 
L 94.464428 157.189448 
L 94.53772 157.032147 
L 94.53772 157.032147 
" clip-path="url(#p64bd66ffac)" style="fill: none; stroke: #0000ff; stroke-width: 0.5; stroke-linecap: square"/>
   </g>
   <g id="line2d_7">
    <path d="M 114.544569 215.345929 
L 114.544569 215.345929 
L 114.526084 215.481567 
L 114.5076 215.617198 
L 114.489119 215.752822 
L 114.470639 215.88844 
L 114.452162 216.024051 
L 114.433686 216.159655 
L 114.415212 216.295252 
L 114.39674 216.430843 
L 114.37827 216.566427 
L 114.359802 216.702004 
L 114.341336 216.837574 
L 114.322871 216.973138 
L 114.304409 217.108695 
L 114.285948 217.244245 
L 114.267489 217.379789 
L 114.249032 217.515325 
L 114.230577 217.650855 
L 114.212124 217.786379 
L 114.193673 217.921895 
L 114.175224 218.057405 
L 114.156776 218.192908 
L 114.138331 218.328405 
L 114.119887 218.463895 
L 114.101445 218.599378 
L 114.083005 218.734854 
L 114.064567 218.870324 
L 114.046131 219.005787 
L 114.027697 219.141243 
L 114.009265 219.276693 
L 113.990834 219.412136 
L 113.972405 219.547572 
L 113.953979 219.683001 
L 113.935554 219.818424 
L 113.917131 219.95384 
L 113.898709 220.08925 
L 113.88029 220.224653 
L 113.861873 220.360049 
L 113.843457 220.495438 
L 113.825044 220.630821 
L 113.806632 220.766197 
L 113.788222 220.901566 
L 113.769814 221.036929 
L 113.751408 221.172285 
L 113.733003 221.307635 
L 113.714601 221.442977 
L 113.6962 221.578313 
L 113.677802 221.713643 
L 113.659405 221.848966 
L 113.64101 221.984282 
L 113.622617 222.119591 
L 113.604225 222.254894 
L 113.585836 222.39019 
L 113.567448 222.52548 
L 113.549063 222.660763 
L 113.530679 222.796039 
L 113.512297 222.931308 
L 113.493917 223.066571 
L 113.475539 223.201828 
L 113.457162 223.337077 
L 113.438788 223.47232 
L 113.420415 223.607557 
L 113.402044 223.742787 
L 113.383675 223.87801 
L 113.365308 224.013226 
L 113.346943 224.148436 
L 113.32858 224.283639 
L 113.310218 224.418836 
L 113.291858 224.554026 
L 113.273501 224.68921 
L 113.255145 224.824386 
L 113.23679 224.959557 
L 113.218438 225.09472 
L 113.200088 225.229877 
L 113.181739 225.365028 
L 113.163392 225.500171 
L 113.145047 225.635309 
L 113.126704 225.770439 
L 113.108363 225.905563 
L 113.090024 226.040681 
L 113.071686 226.175792 
L 113.053351 226.310896 
L 113.035017 226.445993 
L 113.016685 226.581084 
L 112.998355 226.716169 
L 112.980026 226.851247 
L 112.9617 226.986318 
L 112.943375 227.121383 
L 112.925052 227.256441 
L 112.906731 227.391493 
L 112.888412 227.526538 
L 112.870095 227.661576 
L 112.85178 227.796608 
L 112.833466 227.931633 
L 112.815154 228.066652 
L 112.796844 228.201664 
L 112.778536 228.33667 
L 112.76023 228.471669 
L 112.741925 228.606661 
L 112.723623 228.741647 
L 112.705322 228.876627 
L 112.687023 229.0116 
L 112.687023 229.0116 
" clip-path="url(#p64bd66ffac)" style="fill: none; stroke: #0000ff; stroke-width: 0.5; stroke-linecap: square"/>
   </g>
   <g id="line2d_8">
    <path d="M 111.649389 236.999411 
L 111.649389 236.999411 
L 111.659633 236.920435 
L 111.669877 236.841457 
L 111.680122 236.762477 
L 111.690368 236.683495 
L 111.700614 236.60451 
L 111.710861 236.525524 
L 111.721108 236.446535 
L 111.731356 236.367543 
L 111.741605 236.28855 
L 111.751854 236.209554 
L 111.762104 236.130556 
L 111.772354 236.051556 
L 111.782605 235.972554 
L 111.792856 235.893549 
L 111.803108 235.814543 
L 111.813361 235.735534 
L 111.823614 235.656522 
L 111.833868 235.577509 
L 111.844123 235.498493 
L 111.854378 235.419475 
L 111.864634 235.340455 
L 111.87489 235.261433 
L 111.885147 235.182408 
L 111.895404 235.103382 
L 111.905662 235.024353 
L 111.915921 234.945321 
L 111.92618 234.866288 
L 111.93644 234.787252 
L 111.9467 234.708214 
L 111.956961 234.629174 
L 111.967223 234.550132 
L 111.977485 234.471087 
L 111.987748 234.39204 
L 111.998011 234.312991 
L 112.008275 234.23394 
L 112.01854 234.154886 
L 112.028805 234.07583 
L 112.039071 233.996772 
L 112.049337 233.917712 
L 112.059604 233.83865 
L 112.069872 233.759585 
L 112.08014 233.680518 
L 112.090409 233.601449 
L 112.100678 233.522377 
L 112.110948 233.443304 
L 112.121219 233.364228 
L 112.13149 233.28515 
L 112.141761 233.206069 
L 112.152034 233.126987 
L 112.162307 233.047902 
L 112.17258 232.968815 
L 112.182854 232.889726 
L 112.193129 232.810634 
L 112.203405 232.73154 
L 112.21368 232.652444 
L 112.223957 232.573346 
L 112.234234 232.494245 
L 112.244512 232.415143 
L 112.25479 232.336038 
L 112.265069 232.25693 
L 112.275349 232.177821 
L 112.285629 232.098709 
L 112.29591 232.019595 
L 112.306191 231.940479 
L 112.316473 231.861361 
L 112.326755 231.78224 
L 112.337039 231.703117 
L 112.347322 231.623992 
L 112.357607 231.544864 
L 112.367892 231.465735 
L 112.378177 231.386603 
L 112.388463 231.307469 
L 112.39875 231.228332 
L 112.409037 231.149194 
L 112.419325 231.070053 
L 112.429614 230.99091 
L 112.439903 230.911764 
L 112.450193 230.832617 
L 112.460483 230.753467 
L 112.470774 230.674315 
L 112.481065 230.59516 
L 112.491358 230.516004 
L 112.50165 230.436845 
L 112.511944 230.357684 
L 112.522238 230.27852 
L 112.532532 230.199355 
L 112.542827 230.120187 
L 112.553123 230.041017 
L 112.56342 229.961844 
L 112.573716 229.882669 
L 112.584014 229.803493 
L 112.594312 229.724313 
L 112.604611 229.645132 
L 112.61491 229.565948 
L 112.62521 229.486762 
L 112.635511 229.407574 
L 112.645812 229.328384 
L 112.656114 229.249191 
L 112.666416 229.169996 
L 112.676719 229.090799 
L 112.687023 229.0116 
L 112.687023 229.0116 
" clip-path="url(#p64bd66ffac)" style="fill: none; stroke: #0000ff; stroke-width: 0.5; stroke-linecap: square"/>
   </g>
   <g id="line2d_9">
    <path d="M 35.1918 59.421427 
L 35.1918 59.421427 
L 35.092351 59.300173 
L 34.992891 59.178917 
L 34.89342 59.057658 
L 34.793938 58.936398 
L 34.694444 58.815135 
L 34.59494 58.69387 
L 34.495424 58.572603 
L 34.395898 58.451334 
L 34.29636 58.330063 
L 34.196811 58.20879 
L 34.09725 58.087514 
L 33.997679 57.966237 
L 33.898096 57.844957 
L 33.798503 57.723676 
L 33.698898 57.602392 
L 33.599282 57.481106 
L 33.499654 57.359818 
L 33.400016 57.238528 
L 33.300366 57.117236 
L 33.200706 56.995941 
L 33.101034 56.874645 
L 33.00135 56.753347 
L 32.901656 56.632046 
L 32.80195 56.510743 
L 32.702234 56.389438 
L 32.602506 56.268131 
L 32.502766 56.146822 
L 32.403016 56.025511 
L 32.303254 55.904198 
L 32.203482 55.782883 
L 32.103698 55.661565 
L 32.003902 55.540246 
L 31.904096 55.418924 
L 31.804278 55.2976 
L 31.704449 55.176275 
L 31.604609 55.054947 
L 31.504757 54.933617 
L 31.404895 54.812285 
L 31.305021 54.69095 
L 31.205136 54.569614 
L 31.105239 54.448276 
L 31.005332 54.326935 
L 30.905413 54.205593 
L 30.805483 54.084248 
L 30.705541 53.962901 
L 30.605589 53.841552 
L 30.505625 53.720201 
L 30.405649 53.598848 
L 30.305663 53.477493 
L 30.205665 53.356136 
L 30.105656 53.234777 
L 30.005636 53.113415 
L 29.905604 52.992052 
L 29.805561 52.870686 
L 29.705507 52.749319 
L 29.605442 52.627949 
L 29.505365 52.506577 
L 29.405277 52.385203 
L 29.305178 52.263827 
L 29.205067 52.142449 
L 29.104945 52.021069 
L 29.004812 51.899687 
L 28.904667 51.778302 
L 28.804511 51.656916 
L 28.704344 51.535527 
L 28.604165 51.414137 
L 28.503976 51.292744 
L 28.403774 51.17135 
L 28.303562 51.049953 
L 28.203338 50.928554 
L 28.103103 50.807153 
L 28.002856 50.68575 
L 27.902598 50.564345 
L 27.802329 50.442938 
L 27.702049 50.321528 
L 27.601757 50.200117 
L 27.501453 50.078704 
L 27.401139 49.957288 
L 27.300813 49.835871 
L 27.200476 49.714451 
L 27.100127 49.593029 
L 26.999767 49.471605 
L 26.899395 49.35018 
L 26.799012 49.228752 
L 26.698618 49.107322 
L 26.598213 48.98589 
L 26.497796 48.864456 
L 26.397367 48.743019 
L 26.296928 48.621581 
L 26.196477 48.500141 
L 26.096014 48.378698 
L 25.99554 48.257254 
L 25.895055 48.135807 
L 25.794558 48.014359 
L 25.69405 47.892908 
L 25.59353 47.771455 
L 25.492999 47.650001 
L 25.392457 47.528544 
L 25.291903 47.407085 
L 25.191338 47.285624 
L 25.090761 47.164161 
L 25.090761 47.164161 
" clip-path="url(#p64bd66ffac)" style="fill: none; stroke: #0000ff; stroke-width: 0.5; stroke-linecap: square"/>
   </g>
   <g id="line2d_10">
    <path d="M 35.1918 59.421427 
L 35.1918 59.421427 
L 35.30796 59.511916 
L 35.424111 59.602408 
L 35.540253 59.692902 
L 35.656384 59.783399 
L 35.772506 59.873899 
L 35.888619 59.9644 
L 36.004721 60.054905 
L 36.120814 60.145412 
L 36.236897 60.235921 
L 36.352971 60.326433 
L 36.469035 60.416948 
L 36.585089 60.507465 
L 36.701133 60.597985 
L 36.817168 60.688507 
L 36.933193 60.779031 
L 37.049209 60.869559 
L 37.165214 60.960088 
L 37.28121 61.05062 
L 37.397197 61.141155 
L 37.513174 61.231692 
L 37.629141 61.322232 
L 37.745098 61.412774 
L 37.861046 61.503319 
L 37.976984 61.593866 
L 38.092912 61.684416 
L 38.208831 61.774969 
L 38.32474 61.865523 
L 38.440639 61.956081 
L 38.556529 62.046641 
L 38.672409 62.137203 
L 38.788279 62.227768 
L 38.90414 62.318335 
L 39.019991 62.408905 
L 39.135832 62.499477 
L 39.251664 62.590052 
L 39.367486 62.680629 
L 39.483299 62.771209 
L 39.599101 62.861791 
L 39.714894 62.952376 
L 39.830678 63.042963 
L 39.946452 63.133553 
L 40.062216 63.224145 
L 40.177971 63.31474 
L 40.293716 63.405337 
L 40.409451 63.495937 
L 40.525176 63.586539 
L 40.640893 63.677143 
L 40.756599 63.76775 
L 40.872296 63.85836 
L 40.987983 63.948972 
L 41.10366 64.039586 
L 41.219328 64.130203 
L 41.334986 64.220823 
L 41.450635 64.311445 
L 41.566274 64.402069 
L 41.681903 64.492696 
L 41.797523 64.583325 
L 41.913133 64.673957 
L 42.028734 64.764591 
L 42.144325 64.855228 
L 42.259906 64.945867 
L 42.375478 65.036508 
L 42.49104 65.127152 
L 42.606592 65.217799 
L 42.722135 65.308448 
L 42.837668 65.399099 
L 42.953192 65.489753 
L 43.068706 65.580409 
L 43.18421 65.671068 
L 43.299705 65.761729 
L 43.41519 65.852392 
L 43.530666 65.943058 
L 43.646132 66.033727 
L 43.761589 66.124398 
L 43.877035 66.215071 
L 43.992473 66.305747 
L 44.1079 66.396425 
L 44.223318 66.487105 
L 44.338727 66.577788 
L 44.454126 66.668474 
L 44.569515 66.759162 
L 44.684895 66.849852 
L 44.800265 66.940545 
L 44.915625 67.03124 
L 45.030976 67.121937 
L 45.146318 67.212637 
L 45.26165 67.30334 
L 45.376972 67.394045 
L 45.492285 67.484752 
L 45.607588 67.575462 
L 45.722881 67.666174 
L 45.838165 67.756888 
L 45.95344 67.847605 
L 46.068705 67.938324 
L 46.18396 68.029046 
L 46.299206 68.11977 
L 46.414442 68.210496 
L 46.529668 68.301225 
L 46.644885 68.391957 
L 46.760093 68.48269 
L 46.875291 68.573426 
L 46.875291 68.573426 
" clip-path="url(#p64bd66ffac)" style="fill: none; stroke: #0000ff; stroke-width: 0.5; stroke-linecap: square"/>
   </g>
   <g id="line2d_11">
    <path d="M 62.829425 82.372454 
L 62.829425 82.372454 
L 62.672438 82.235681 
L 62.515431 82.098911 
L 62.358406 81.962144 
L 62.201361 81.825379 
L 62.044296 81.688618 
L 61.887212 81.551859 
L 61.730109 81.415103 
L 61.572987 81.27835 
L 61.415845 81.1416 
L 61.258683 81.004853 
L 61.101503 80.868109 
L 60.944303 80.731367 
L 60.787083 80.594629 
L 60.629845 80.457893 
L 60.472586 80.321161 
L 60.315309 80.184431 
L 60.158012 80.047704 
L 60.000696 79.91098 
L 59.84336 79.774259 
L 59.686005 79.637541 
L 59.52863 79.500826 
L 59.371236 79.364114 
L 59.213822 79.227404 
L 59.056389 79.090698 
L 58.898937 78.953995 
L 58.741465 78.817294 
L 58.583974 78.680597 
L 58.426463 78.543902 
L 58.268933 78.407211 
L 58.111383 78.270522 
L 57.953814 78.133836 
L 57.796226 77.997154 
L 57.638618 77.860474 
L 57.48099 77.723797 
L 57.323343 77.587123 
L 57.165677 77.450453 
L 57.00799 77.313785 
L 56.850285 77.17712 
L 56.69256 77.040458 
L 56.534815 76.903799 
L 56.377051 76.767144 
L 56.219267 76.630491 
L 56.061464 76.493841 
L 55.903642 76.357194 
L 55.745799 76.220551 
L 55.587938 76.08391 
L 55.430056 75.947272 
L 55.272155 75.810637 
L 55.114235 75.674006 
L 54.956295 75.537377 
L 54.798335 75.400752 
L 54.640356 75.264129 
L 54.482357 75.127509 
L 54.324339 74.990893 
L 54.166301 74.85428 
L 54.008243 74.717669 
L 53.850166 74.581062 
L 53.692069 74.444458 
L 53.533953 74.307857 
L 53.375817 74.171259 
L 53.217662 74.034663 
L 53.059486 73.898072 
L 52.901291 73.761483 
L 52.743077 73.624897 
L 52.584843 73.488314 
L 52.426589 73.351735 
L 52.268316 73.215158 
L 52.110023 73.078585 
L 51.95171 72.942015 
L 51.793377 72.805447 
L 51.635025 72.668883 
L 51.476654 72.532322 
L 51.318262 72.395765 
L 51.159851 72.25921 
L 51.00142 72.122658 
L 50.84297 71.98611 
L 50.684499 71.849564 
L 50.526009 71.713022 
L 50.3675 71.576483 
L 50.208971 71.439947 
L 50.050421 71.303415 
L 49.891853 71.166885 
L 49.733264 71.030359 
L 49.574656 70.893835 
L 49.416028 70.757315 
L 49.25738 70.620798 
L 49.098713 70.484284 
L 48.940025 70.347774 
L 48.781318 70.211266 
L 48.622592 70.074762 
L 48.463845 69.938261 
L 48.305079 69.801763 
L 48.146293 69.665268 
L 47.987487 69.528777 
L 47.828661 69.392289 
L 47.669815 69.255804 
L 47.51095 69.119322 
L 47.352065 68.982843 
L 47.19316 68.846368 
L 47.034235 68.709895 
L 46.875291 68.573426 
L 46.875291 68.573426 
" clip-path="url(#p64bd66ffac)" style="fill: none; stroke: #0000ff; stroke-width: 0.5; stroke-linecap: square"/>
   </g>
   <g id="line2d_12">
    <path d="M 62.829425 82.372454 
L 62.829425 82.372454 
L 62.903744 82.516175 
L 62.978054 82.659889 
L 63.052354 82.803597 
L 63.126644 82.947298 
L 63.200925 83.090992 
L 63.275196 83.234679 
L 63.349458 83.37836 
L 63.42371 83.522034 
L 63.497953 83.665701 
L 63.572185 83.809362 
L 63.646409 83.953016 
L 63.720622 84.096663 
L 63.794827 84.240304 
L 63.869021 84.383938 
L 63.943206 84.527565 
L 64.017382 84.671185 
L 64.091547 84.814799 
L 64.165704 84.958407 
L 64.239851 85.102007 
L 64.313988 85.245601 
L 64.388115 85.389188 
L 64.462234 85.532769 
L 64.536342 85.676343 
L 64.610441 85.81991 
L 64.684531 85.96347 
L 64.758611 86.107024 
L 64.832681 86.250572 
L 64.906742 86.394112 
L 64.980793 86.537646 
L 65.054835 86.681173 
L 65.128868 86.824694 
L 65.20289 86.968208 
L 65.276904 87.111715 
L 65.350907 87.255216 
L 65.424902 87.39871 
L 65.498887 87.542197 
L 65.572862 87.685678 
L 65.646828 87.829152 
L 65.720784 87.972619 
L 65.794731 88.11608 
L 65.868668 88.259534 
L 65.942596 88.402981 
L 66.016515 88.546422 
L 66.090424 88.689856 
L 66.164323 88.833284 
L 66.238213 88.976705 
L 66.312094 89.120119 
L 66.385965 89.263527 
L 66.459826 89.406928 
L 66.533678 89.550322 
L 66.607521 89.69371 
L 66.681354 89.837091 
L 66.755178 89.980465 
L 66.828992 90.123833 
L 66.902797 90.267195 
L 66.976593 90.410549 
L 67.050379 90.553897 
L 67.124156 90.697239 
L 67.197923 90.840573 
L 67.271681 90.983901 
L 67.345429 91.127223 
L 67.419168 91.270538 
L 67.492897 91.413846 
L 67.566617 91.557148 
L 67.640328 91.700443 
L 67.714029 91.843731 
L 67.787721 91.987013 
L 67.861404 92.130288 
L 67.935077 92.273557 
L 68.008741 92.416819 
L 68.082395 92.560074 
L 68.15604 92.703323 
L 68.229676 92.846565 
L 68.303302 92.989801 
L 68.376919 93.13303 
L 68.450526 93.276252 
L 68.524124 93.419468 
L 68.597713 93.562678 
L 68.671292 93.70588 
L 68.744862 93.849076 
L 68.818423 93.992266 
L 68.891974 94.135449 
L 68.965516 94.278625 
L 69.039048 94.421794 
L 69.112572 94.564958 
L 69.186086 94.708114 
L 69.25959 94.851264 
L 69.333085 94.994407 
L 69.406571 95.137544 
L 69.480048 95.280674 
L 69.553515 95.423798 
L 69.626973 95.566915 
L 69.700422 95.710025 
L 69.773861 95.853129 
L 69.847291 95.996227 
L 69.920711 96.139317 
L 69.994123 96.282402 
L 70.067525 96.425479 
L 70.140918 96.56855 
L 70.214301 96.711615 
L 70.287675 96.854673 
L 70.287675 96.854673 
" clip-path="url(#p64bd66ffac)" style="fill: none; stroke: #0000ff; stroke-width: 0.5; stroke-linecap: square"/>
   </g>
   <g id="line2d_13">
    <path d="M 73.916504 115.753143 
L 73.916504 115.753143 
L 73.880867 115.566755 
L 73.845224 115.380353 
L 73.809576 115.193936 
L 73.773921 115.007505 
L 73.738261 114.82106 
L 73.702596 114.6346 
L 73.666924 114.448126 
L 73.631247 114.261638 
L 73.595564 114.075135 
L 73.559875 113.888618 
L 73.52418 113.702086 
L 73.48848 113.51554 
L 73.452773 113.32898 
L 73.417061 113.142405 
L 73.381344 112.955816 
L 73.34562 112.769212 
L 73.309891 112.582594 
L 73.274156 112.395962 
L 73.238415 112.209315 
L 73.202668 112.022654 
L 73.166915 111.835978 
L 73.131157 111.649288 
L 73.095393 111.462583 
L 73.059623 111.275864 
L 73.023847 111.089131 
L 72.988066 110.902383 
L 72.952278 110.715621 
L 72.916485 110.528844 
L 72.880686 110.342052 
L 72.844881 110.155247 
L 72.80907 109.968426 
L 72.773254 109.781591 
L 72.737431 109.594742 
L 72.701603 109.407878 
L 72.665769 109.221 
L 72.629929 109.034107 
L 72.594084 108.8472 
L 72.558232 108.660278 
L 72.522375 108.473341 
L 72.486511 108.28639 
L 72.450642 108.099425 
L 72.414767 107.912445 
L 72.378886 107.72545 
L 72.343 107.538441 
L 72.307107 107.351417 
L 72.271209 107.164379 
L 72.235304 106.977326 
L 72.199394 106.790259 
L 72.163478 106.603176 
L 72.127556 106.41608 
L 72.091628 106.228969 
L 72.055694 106.041843 
L 72.019755 105.854702 
L 71.983809 105.667547 
L 71.947858 105.480378 
L 71.911901 105.293193 
L 71.875937 105.105994 
L 71.839968 104.918781 
L 71.803993 104.731552 
L 71.768012 104.54431 
L 71.732026 104.357052 
L 71.696033 104.16978 
L 71.660034 103.982493 
L 71.62403 103.795191 
L 71.588019 103.607875 
L 71.552003 103.420544 
L 71.515981 103.233199 
L 71.479952 103.045839 
L 71.443918 102.858464 
L 71.407878 102.671074 
L 71.371832 102.48367 
L 71.33578 102.296251 
L 71.299722 102.108817 
L 71.263658 101.921368 
L 71.227588 101.733905 
L 71.191512 101.546427 
L 71.155431 101.358934 
L 71.119343 101.171427 
L 71.083249 100.983905 
L 71.04715 100.796368 
L 71.011044 100.608816 
L 70.974933 100.421249 
L 70.938815 100.233668 
L 70.902691 100.046072 
L 70.866562 99.858461 
L 70.830427 99.670836 
L 70.794285 99.483195 
L 70.758138 99.29554 
L 70.721984 99.10787 
L 70.685825 98.920185 
L 70.649659 98.732485 
L 70.613488 98.544771 
L 70.577311 98.357042 
L 70.541127 98.169298 
L 70.504938 97.981539 
L 70.468742 97.793765 
L 70.432541 97.605976 
L 70.396334 97.418173 
L 70.36012 97.230354 
L 70.323901 97.042521 
L 70.287675 96.854673 
L 70.287675 96.854673 
" clip-path="url(#p64bd66ffac)" style="fill: none; stroke: #0000ff; stroke-width: 0.5; stroke-linecap: square"/>
   </g>
   <g id="line2d_14">
    <path d="M 73.916504 115.753143 
L 73.916504 115.753143 
L 73.991839 115.898196 
L 74.067165 116.043243 
L 74.142481 116.188283 
L 74.217788 116.333316 
L 74.293085 116.478343 
L 74.368373 116.623363 
L 74.443651 116.768377 
L 74.51892 116.913384 
L 74.59418 117.058385 
L 74.66943 117.203379 
L 74.744671 117.348367 
L 74.819902 117.493348 
L 74.895124 117.638323 
L 74.970336 117.783291 
L 75.045539 117.928253 
L 75.120733 118.073208 
L 75.195917 118.218157 
L 75.271092 118.363099 
L 75.346257 118.508034 
L 75.421413 118.652964 
L 75.49656 118.797886 
L 75.571697 118.942802 
L 75.646825 119.087712 
L 75.721943 119.232615 
L 75.797052 119.377512 
L 75.872152 119.522402 
L 75.947243 119.667285 
L 76.022324 119.812162 
L 76.097395 119.957033 
L 76.172457 120.101897 
L 76.24751 120.246755 
L 76.322554 120.391606 
L 76.397588 120.53645 
L 76.472613 120.681288 
L 76.547628 120.82612 
L 76.622634 120.970945 
L 76.697631 121.115764 
L 76.772619 121.260576 
L 76.847597 121.405382 
L 76.922566 121.550181 
L 76.997525 121.694974 
L 77.072475 121.83976 
L 77.147416 121.98454 
L 77.222347 122.129313 
L 77.29727 122.27408 
L 77.372183 122.41884 
L 77.447086 122.563594 
L 77.52198 122.708342 
L 77.596865 122.853083 
L 77.671741 122.997817 
L 77.746607 123.142545 
L 77.821464 123.287267 
L 77.896312 123.431982 
L 77.971151 123.576691 
L 78.04598 123.721393 
L 78.1208 123.866089 
L 78.195611 124.010778 
L 78.270412 124.155461 
L 78.345204 124.300137 
L 78.419987 124.444807 
L 78.494761 124.58947 
L 78.569525 124.734127 
L 78.64428 124.878778 
L 78.719026 125.023422 
L 78.793762 125.16806 
L 78.86849 125.312691 
L 78.943208 125.457316 
L 79.017917 125.601934 
L 79.092616 125.746546 
L 79.167307 125.891151 
L 79.241988 126.03575 
L 79.31666 126.180343 
L 79.391323 126.324929 
L 79.465976 126.469509 
L 79.54062 126.614082 
L 79.615255 126.758649 
L 79.689881 126.903209 
L 79.764498 127.047763 
L 79.839105 127.192311 
L 79.913703 127.336852 
L 79.988292 127.481386 
L 80.062872 127.625915 
L 80.137443 127.770437 
L 80.212004 127.914952 
L 80.286557 128.059461 
L 80.3611 128.203964 
L 80.435634 128.34846 
L 80.510158 128.492949 
L 80.584674 128.637433 
L 80.65918 128.78191 
L 80.733677 128.92638 
L 80.808166 129.070844 
L 80.882644 129.215302 
L 80.957114 129.359753 
L 81.031575 129.504198 
L 81.106026 129.648637 
L 81.180468 129.793069 
L 81.254902 129.937494 
L 81.329326 130.081914 
L 81.40374 130.226327 
L 81.478146 130.370733 
L 81.478146 130.370733 
" clip-path="url(#p64bd66ffac)" style="fill: none; stroke: #0000ff; stroke-width: 0.5; stroke-linecap: square"/>
   </g>
   <g id="line2d_15">
    <path d="M 88.518082 140.807972 
L 88.518082 140.807972 
L 88.578083 140.969065 
L 88.638075 141.130149 
L 88.698059 141.291224 
L 88.758035 141.452289 
L 88.818003 141.613345 
L 88.877963 141.774392 
L 88.937915 141.93543 
L 88.997858 142.096458 
L 89.057794 142.257478 
L 89.117721 142.418488 
L 89.177641 142.579489 
L 89.237552 142.74048 
L 89.297455 142.901463 
L 89.357351 143.062436 
L 89.417238 143.2234 
L 89.477117 143.384355 
L 89.536988 143.5453 
L 89.596851 143.706237 
L 89.656706 143.867164 
L 89.716553 144.028082 
L 89.776392 144.18899 
L 89.836222 144.34989 
L 89.896045 144.51078 
L 89.95586 144.671662 
L 90.015667 144.832534 
L 90.075465 144.993397 
L 90.135256 145.15425 
L 90.195039 145.315095 
L 90.254813 145.47593 
L 90.31458 145.636756 
L 90.374338 145.797573 
L 90.434089 145.958381 
L 90.493832 146.11918 
L 90.553566 146.279969 
L 90.613293 146.44075 
L 90.673011 146.601521 
L 90.732722 146.762283 
L 90.792424 146.923036 
L 90.852119 147.083779 
L 90.911806 147.244514 
L 90.971484 147.40524 
L 91.031155 147.565956 
L 91.090818 147.726663 
L 91.150472 147.887361 
L 91.210119 148.04805 
L 91.269758 148.20873 
L 91.329389 148.369401 
L 91.389012 148.530062 
L 91.448627 148.690715 
L 91.508234 148.851358 
L 91.567833 149.011992 
L 91.627424 149.172617 
L 91.687007 149.333233 
L 91.746582 149.49384 
L 91.806149 149.654438 
L 91.865709 149.815027 
L 91.92526 149.975606 
L 91.984803 150.136177 
L 92.044339 150.296738 
L 92.103867 150.457291 
L 92.163386 150.617834 
L 92.222898 150.778368 
L 92.282402 150.938893 
L 92.341898 151.099409 
L 92.401386 151.259916 
L 92.460866 151.420414 
L 92.520339 151.580903 
L 92.579803 151.741383 
L 92.63926 151.901854 
L 92.698708 152.062315 
L 92.758149 152.222768 
L 92.817582 152.383211 
L 92.877007 152.543646 
L 92.936424 152.704071 
L 92.995833 152.864488 
L 93.055234 153.024895 
L 93.114628 153.185293 
L 93.174013 153.345682 
L 93.233391 153.506063 
L 93.292761 153.666434 
L 93.352123 153.826796 
L 93.411477 153.987149 
L 93.470824 154.147493 
L 93.530162 154.307828 
L 93.589493 154.468154 
L 93.648816 154.628471 
L 93.708131 154.788779 
L 93.767438 154.949078 
L 93.826737 155.109368 
L 93.886029 155.269649 
L 93.945312 155.429921 
L 94.004588 155.590184 
L 94.063856 155.750438 
L 94.123117 155.910683 
L 94.182369 156.070919 
L 94.241614 156.231146 
L 94.30085 156.391365 
L 94.36008 156.551574 
L 94.419301 156.711774 
L 94.478514 156.871965 
L 94.53772 157.032147 
L 94.53772 157.032147 
" clip-path="url(#p64bd66ffac)" style="fill: none; stroke: #0000ff; stroke-width: 0.5; stroke-linecap: square"/>
   </g>
   <g id="line2d_16">
    <path d="M 88.518082 140.807972 
L 88.518082 140.807972 
L 88.448683 140.704752 
L 88.379277 140.60153 
L 88.309866 140.498306 
L 88.240448 140.395079 
L 88.171025 140.29185 
L 88.101595 140.188619 
L 88.03216 140.085385 
L 87.962718 139.982148 
L 87.893271 139.87891 
L 87.823817 139.775669 
L 87.754358 139.672425 
L 87.684892 139.56918 
L 87.61542 139.465931 
L 87.545943 139.362681 
L 87.476459 139.259428 
L 87.406969 139.156172 
L 87.337473 139.052915 
L 87.267972 138.949655 
L 87.198464 138.846392 
L 87.12895 138.743127 
L 87.05943 138.63986 
L 86.989904 138.53659 
L 86.920372 138.433318 
L 86.850834 138.330044 
L 86.78129 138.226767 
L 86.71174 138.123488 
L 86.642184 138.020206 
L 86.572621 137.916922 
L 86.503053 137.813636 
L 86.433479 137.710347 
L 86.363898 137.607056 
L 86.294312 137.503763 
L 86.224719 137.400467 
L 86.155121 137.297168 
L 86.085516 137.193868 
L 86.015906 137.090565 
L 85.946289 136.987259 
L 85.876666 136.883951 
L 85.807037 136.780641 
L 85.737402 136.677328 
L 85.667762 136.574013 
L 85.598114 136.470696 
L 85.528461 136.367376 
L 85.458802 136.264054 
L 85.389137 136.160729 
L 85.319466 136.057402 
L 85.249788 135.954073 
L 85.180105 135.850741 
L 85.110415 135.747407 
L 85.04072 135.644071 
L 84.971018 135.540732 
L 84.90131 135.43739 
L 84.831596 135.334047 
L 84.761876 135.2307 
L 84.69215 135.127352 
L 84.622418 135.024001 
L 84.55268 134.920648 
L 84.482935 134.817292 
L 84.413185 134.713934 
L 84.343429 134.610574 
L 84.273666 134.507211 
L 84.203897 134.403846 
L 84.134122 134.300478 
L 84.064342 134.197108 
L 83.994555 134.093735 
L 83.924761 133.990361 
L 83.854962 133.886983 
L 83.785157 133.783604 
L 83.715345 133.680222 
L 83.645528 133.576837 
L 83.575704 133.473451 
L 83.505875 133.370061 
L 83.436039 133.26667 
L 83.366197 133.163276 
L 83.296349 133.05988 
L 83.226494 132.956481 
L 83.156634 132.85308 
L 83.086768 132.749676 
L 83.016895 132.64627 
L 82.947016 132.542862 
L 82.877131 132.439451 
L 82.80724 132.336038 
L 82.737343 132.232622 
L 82.66744 132.129204 
L 82.597531 132.025784 
L 82.527615 131.922361 
L 82.457694 131.818936 
L 82.387766 131.715509 
L 82.317832 131.612079 
L 82.247892 131.508647 
L 82.177946 131.405212 
L 82.107994 131.301775 
L 82.038035 131.198335 
L 81.968071 131.094893 
L 81.8981 130.991449 
L 81.828123 130.888002 
L 81.75814 130.784553 
L 81.688151 130.681102 
L 81.618155 130.577648 
L 81.548154 130.474192 
L 81.478146 130.370733 
L 81.478146 130.370733 
" clip-path="url(#p64bd66ffac)" style="fill: none; stroke: #0000ff; stroke-width: 0.5; stroke-linecap: square"/>
   </g>
   <g id="line2d_17">
    <path d="M 98.980476 171.144228 
L 98.980476 171.144228 
L 98.936737 171.004856 
L 98.892993 170.865478 
L 98.849244 170.726092 
L 98.80549 170.586699 
L 98.761731 170.447299 
L 98.717968 170.307892 
L 98.674199 170.168478 
L 98.630425 170.029057 
L 98.586647 169.88963 
L 98.542863 169.750195 
L 98.499075 169.610753 
L 98.455282 169.471304 
L 98.411484 169.331849 
L 98.367681 169.192386 
L 98.323872 169.052916 
L 98.280059 168.91344 
L 98.236242 168.773956 
L 98.192419 168.634465 
L 98.148591 168.494967 
L 98.104758 168.355463 
L 98.06092 168.215951 
L 98.017078 168.076432 
L 97.97323 167.936907 
L 97.929377 167.797374 
L 97.88552 167.657834 
L 97.841657 167.518287 
L 97.79779 167.378734 
L 97.753918 167.239173 
L 97.71004 167.099605 
L 97.666158 166.96003 
L 97.622271 166.820448 
L 97.578378 166.680859 
L 97.534481 166.541263 
L 97.490579 166.40166 
L 97.446672 166.262051 
L 97.40276 166.122433 
L 97.358842 165.982809 
L 97.31492 165.843178 
L 97.270993 165.70354 
L 97.227061 165.563895 
L 97.183124 165.424243 
L 97.139182 165.284584 
L 97.095235 165.144917 
L 97.051283 165.005244 
L 97.007326 164.865564 
L 96.963364 164.725876 
L 96.919397 164.586182 
L 96.875425 164.44648 
L 96.831449 164.306771 
L 96.787467 164.167056 
L 96.74348 164.027333 
L 96.699488 163.887603 
L 96.655491 163.747866 
L 96.611489 163.608122 
L 96.567482 163.468371 
L 96.52347 163.328613 
L 96.479453 163.188848 
L 96.435431 163.049076 
L 96.391404 162.909296 
L 96.347372 162.76951 
L 96.303335 162.629717 
L 96.259293 162.489916 
L 96.215246 162.350108 
L 96.171194 162.210294 
L 96.127137 162.070472 
L 96.083074 161.930643 
L 96.039007 161.790807 
L 95.994935 161.650964 
L 95.950858 161.511113 
L 95.906776 161.371256 
L 95.862688 161.231392 
L 95.818596 161.09152 
L 95.774499 160.951642 
L 95.730396 160.811756 
L 95.686289 160.671863 
L 95.642176 160.531963 
L 95.598059 160.392056 
L 95.553936 160.252142 
L 95.509809 160.11222 
L 95.465676 159.972292 
L 95.421538 159.832356 
L 95.377395 159.692414 
L 95.333248 159.552464 
L 95.289095 159.412507 
L 95.244937 159.272543 
L 95.200774 159.132572 
L 95.156606 158.992593 
L 95.112432 158.852608 
L 95.068254 158.712615 
L 95.024071 158.572616 
L 94.979883 158.432609 
L 94.935689 158.292595 
L 94.891491 158.152574 
L 94.847287 158.012545 
L 94.803078 157.87251 
L 94.758865 157.732467 
L 94.714646 157.592417 
L 94.670422 157.452361 
L 94.626193 157.312297 
L 94.581959 157.172225 
L 94.53772 157.032147 
L 94.53772 157.032147 
" clip-path="url(#p64bd66ffac)" style="fill: none; stroke: #0000ff; stroke-width: 0.5; stroke-linecap: square"/>
   </g>
   <g id="patch_3">
    <path d="M 7.2 273.312 
L 7.2 7.2 
" style="fill: none; stroke: #000000; stroke-width: 0.8; stroke-linejoin: miter; stroke-linecap: square"/>
   </g>
   <g id="patch_4">
    <path d="M 132.43533 273.312 
L 132.43533 7.2 
" style="fill: none; stroke: #000000; stroke-width: 0.8; stroke-linejoin: miter; stroke-linecap: square"/>
   </g>
   <g id="patch_5">
    <path d="M 7.2 273.312 
L 132.43533 273.312 
" style="fill: none; stroke: #000000; stroke-width: 0.8; stroke-linejoin: miter; stroke-linecap: square"/>
   </g>
   <g id="patch_6">
    <path d="M 7.2 7.2 
L 132.43533 7.2 
" style="fill: none; stroke: #000000; stroke-width: 0.8; stroke-linejoin: miter; stroke-linecap: square"/>
   </g>
   <g id="PathCollection_1">
    <defs>
     <path id="m105bd3559f" d="M 0 0.5 
C 0.132602 0.5 0.25979 0.447317 0.353553 0.353553 
C 0.447317 0.25979 0.5 0.132602 0.5 0 
C 0.5 -0.132602 0.447317 -0.25979 0.353553 -0.353553 
C 0.25979 -0.447317 0.132602 -0.5 0 -0.5 
C -0.132602 -0.5 -0.25979 -0.447317 -0.353553 -0.353553 
C -0.447317 -0.25979 -0.5 -0.132602 -0.5 0 
C -0.5 0.132602 -0.447317 0.25979 -0.353553 0.353553 
C -0.25979 0.447317 -0.132602 0.5 0 0.5 
z
" style="stroke: #ff0000"/>
    </defs>
    <g clip-path="url(#p64bd66ffac)">
     <use xlink:href="#m105bd3559f" x="108.926323" y="198.393848" style="fill: #ff0000; stroke: #ff0000"/>
     <use xlink:href="#m105bd3559f" x="103.096341" y="183.539264" style="fill: #ff0000; stroke: #ff0000"/>
     <use xlink:href="#m105bd3559f" x="80.079776" y="183.344408" style="fill: #ff0000; stroke: #ff0000"/>
     <use xlink:href="#m105bd3559f" x="87.182449" y="172.88038" style="fill: #ff0000; stroke: #ff0000"/>
     <use xlink:href="#m105bd3559f" x="114.544569" y="215.345929" style="fill: #ff0000; stroke: #ff0000"/>
     <use xlink:href="#m105bd3559f" x="64.91109" y="186.72102" style="fill: #ff0000; stroke: #ff0000"/>
     <use xlink:href="#m105bd3559f" x="111.649389" y="236.999411" style="fill: #ff0000; stroke: #ff0000"/>
     <use xlink:href="#m105bd3559f" x="112.687023" y="229.0116" style="fill: #ff0000; stroke: #ff0000"/>
     <use xlink:href="#m105bd3559f" x="35.1918" y="59.421427" style="fill: #ff0000; stroke: #ff0000"/>
     <use xlink:href="#m105bd3559f" x="25.090761" y="47.164161" style="fill: #ff0000; stroke: #ff0000"/>
     <use xlink:href="#m105bd3559f" x="62.829425" y="82.372454" style="fill: #ff0000; stroke: #ff0000"/>
     <use xlink:href="#m105bd3559f" x="46.875291" y="68.573426" style="fill: #ff0000; stroke: #ff0000"/>
     <use xlink:href="#m105bd3559f" x="73.916504" y="115.753143" style="fill: #ff0000; stroke: #ff0000"/>
     <use xlink:href="#m105bd3559f" x="70.287675" y="96.854673" style="fill: #ff0000; stroke: #ff0000"/>
     <use xlink:href="#m105bd3559f" x="88.518082" y="140.807972" style="fill: #ff0000; stroke: #ff0000"/>
     <use xlink:href="#m105bd3559f" x="81.478146" y="130.370733" style="fill: #ff0000; stroke: #ff0000"/>
     <use xlink:href="#m105bd3559f" x="98.980476" y="171.144228" style="fill: #ff0000; stroke: #ff0000"/>
     <use xlink:href="#m105bd3559f" x="94.53772" y="157.032147" style="fill: #ff0000; stroke: #ff0000"/>
    </g>
   </g>
   <g id="PathCollection_2"/>
  </g>
 </g>
 <defs>
  <clipPath id="p64bd66ffac">
   <rect x="7.2" y="7.2" width="125.23533" height="266.112"/>
  </clipPath>
 </defs>
</svg>
