<?xml version="1.0" encoding="utf-8" standalone="no"?>
<!DOCTYPE svg PUBLIC "-//W3C//DTD SVG 1.1//EN"
  "http://www.w3.org/Graphics/SVG/1.1/DTD/svg11.dtd">
<svg xmlns:xlink="http://www.w3.org/1999/xlink" width="371.52pt" height="260.78337pt" viewBox="0 0 371.52 260.78337" xmlns="http://www.w3.org/2000/svg" version="1.1">
 <metadata>
  <rdf:RDF xmlns:dc="http://purl.org/dc/elements/1.1/" xmlns:cc="http://creativecommons.org/ns#" xmlns:rdf="http://www.w3.org/1999/02/22-rdf-syntax-ns#">
   <cc:Work>
    <dc:type rdf:resource="http://purl.org/dc/dcmitype/StillImage"/>
    <dc:date>2025-04-17T08:29:55.642557</dc:date>
    <dc:format>image/svg+xml</dc:format>
    <dc:creator>
     <cc:Agent>
      <dc:title>Matplotlib v3.8.4, https://matplotlib.org/</dc:title>
     </cc:Agent>
    </dc:creator>
   </cc:Work>
  </rdf:RDF>
 </metadata>
 <defs>
  <style type="text/css">*{stroke-linejoin: round; stroke-linecap: butt}</style>
 </defs>
 <g id="figure_1">
  <g id="patch_1">
   <path d="M 0 260.78337 
L 371.52 260.78337 
L 371.52 0 
L 0 0 
z
" style="fill: #ffffff"/>
  </g>
  <g id="axes_1">
   <g id="patch_2">
    <path d="M 7.2 253.58337 
L 364.32 253.58337 
L 364.32 7.2 
L 7.2 7.2 
z
" style="fill: #ffffff"/>
   </g>
   <g id="matplotlib.axis_1"/>
   <g id="matplotlib.axis_2"/>
   <g id="LineCollection_1">
    <path d="M 364.32 246.393712 
L 355.34671 253.58337 
" clip-path="url(#p589473bf94)" style="fill: none; stroke: #000000; stroke-width: 0.2"/>
    <path d="M 327.911518 253.58337 
L 325.304628 250.832298 
L 313.645349 221.23816 
L 316.107448 186.526398 
L 309.320127 157.825279 
L 318.830391 129.182758 
L 317.892568 113.53357 
L 328.274819 96.151219 
L 326.151925 86.910699 
L 336.651895 56.874298 
L 331.180246 49.781983 
L 324.145319 52.301327 
L 307.678847 72.954676 
L 302.962537 70.431845 
L 305.581357 61.166367 
L 312.798052 46.231878 
L 322.060711 42.622797 
L 323.754947 31.608486 
L 337.875223 7.2 
" clip-path="url(#p589473bf94)" style="fill: none; stroke: #000000; stroke-width: 0.2"/>
   </g>
   <g id="LineCollection_2"/>
   <g id="LineCollection_3">
    <path d="M 198.178045 253.58337 
L 198.55358 252.630064 
L 199.867105 249.292912 
L 201.18063 245.953957 
L 202.494155 242.61127 
L 203.808038 239.266766 
L 204.735127 236.90364 
L 203.354333 228.937702 
L 201.095471 226.674668 
L 198.836609 224.410354 
L 196.578104 222.144758 
L 194.319242 219.877878 
L 192.06038 217.609711 
L 189.801517 215.340254 
L 187.543013 213.069506 
L 185.284151 210.797465 
L 183.025289 208.524126 
L 181.207608 206.693849 
L 178.823511 195.639978 
L 176.098421 194.687427 
L 173.372973 193.733675 
L 170.647883 192.78018 
L 167.922435 191.826455 
L 165.197344 190.872014 
L 162.472254 189.918316 
L 162.161316 189.809196 
L 161.288615 186.165592 
L 160.415555 182.51814 
L 159.542854 178.867807 
L 158.669794 175.213606 
L 157.797093 171.556504 
L 156.937272 167.950867 
" clip-path="url(#p589473bf94)" style="fill: none; stroke: #000000; stroke-width: 0.2"/>
    <path d="M 198.178045 253.58337 
L 198.55358 252.630064 
L 199.867105 249.292912 
L 201.18063 245.953957 
L 202.494155 242.61127 
L 203.808038 239.266766 
L 204.735127 236.90364 
L 203.354333 228.937702 
L 201.095471 226.674668 
L 198.836609 224.410354 
L 196.578104 222.144758 
L 194.319242 219.877878 
L 192.06038 217.609711 
L 189.801517 215.340254 
L 187.543013 213.069506 
L 185.284151 210.797465 
L 183.025289 208.524126 
L 181.207608 206.693849 
L 178.823511 195.639978 
L 176.098421 194.687427 
L 173.372973 193.733675 
L 170.647883 192.78018 
L 167.922435 191.826455 
L 165.197344 190.872014 
L 162.472254 189.918316 
L 162.161316 189.809196 
L 161.288615 186.165592 
L 160.415555 182.51814 
L 159.542854 178.867807 
L 158.669794 175.213606 
L 157.797093 171.556504 
L 156.937272 167.950867 
" clip-path="url(#p589473bf94)" style="fill: none; stroke: #000000; stroke-width: 0.2"/>
    <path d="M 312.606079 7.2 
L 312.378339 8.481628 
L 311.687048 12.372309 
L 310.995399 16.258469 
L 310.6748 18.059234 
L 320.276306 16.705812 
L 317.514362 30.000488 
L 324.002195 35.5231 
" clip-path="url(#p589473bf94)" style="fill: none; stroke: #000000; stroke-width: 0.2"/>
    <path d="M 312.539644 7.2 
L 312.308566 8.456099 
L 311.593659 12.337625 
L 310.878753 16.215159 
L 310.596797 17.744481 
L 320.276306 16.705812 
L 317.514362 30.000488 
L 323.988956 35.5231 
" clip-path="url(#p589473bf94)" style="fill: none; stroke: #000000; stroke-width: 0.2"/>
    <path d="M 359.762564 251.600811 
L 362.576391 251.601771 
L 364.32 251.602959 
" clip-path="url(#p589473bf94)" style="fill: none; stroke: #000000; stroke-width: 0.2"/>
    <path d="M 359.762564 251.600811 
L 362.576391 251.601771 
L 364.32 251.602959 
" clip-path="url(#p589473bf94)" style="fill: none; stroke: #000000; stroke-width: 0.2"/>
    <path d="M 7.2 140.635035 
L 8.566913 140.634795 
L 11.38074 140.633809 
L 14.194926 140.633809 
L 17.008753 140.632822 
L 19.82258 140.632329 
L 22.636766 140.631836 
L 25.450593 140.630849 
L 28.264421 140.630849 
L 31.078606 140.629863 
L 33.892433 140.629369 
L 36.706261 140.628876 
L 39.520446 140.627889 
L 42.334274 140.627396 
L 45.148101 140.626903 
L 47.962286 140.62641 
L 50.776114 140.625916 
L 53.589941 140.62493 
L 56.404126 140.624436 
L 59.217954 140.623943 
L 62.031781 140.622957 
L 64.845967 140.622957 
L 67.659794 140.62197 
L 70.473622 140.621477 
L 73.287807 140.620983 
L 76.101634 140.619997 
L 78.915462 140.619997 
L 81.729289 140.61901 
L 84.543474 140.618517 
L 87.357302 140.618024 
L 90.171129 140.617037 
L 92.985315 140.617037 
L 95.799142 140.616051 
L 98.61297 140.615557 
L 101.427155 140.615064 
L 104.240982 140.614077 
L 107.05481 140.614077 
L 109.868995 140.613091 
L 112.682822 140.612598 
L 115.49665 140.612104 
L 118.310835 140.611118 
L 121.124663 140.610624 
L 123.93849 140.610131 
L 126.752675 140.609638 
L 129.566503 140.609145 
L 132.38033 140.608158 
L 135.194516 140.607665 
L 138.008343 140.607172 
L 140.82217 140.606185 
L 143.636356 140.606185 
L 146.450183 140.605198 
L 149.264011 140.604705 
L 152.077838 140.604212 
L 154.032203 140.603719 
" clip-path="url(#p589473bf94)" style="fill: none; stroke: #000000; stroke-width: 0.2"/>
    <path d="M 7.2 140.635035 
L 8.566913 140.634795 
L 11.38074 140.633809 
L 14.194926 140.633809 
L 17.008753 140.632822 
L 19.82258 140.632329 
L 22.636766 140.631836 
L 25.450593 140.630849 
L 28.264421 140.630849 
L 31.078606 140.629863 
L 33.892433 140.629369 
L 36.706261 140.628876 
L 39.520446 140.627889 
L 42.334274 140.627396 
L 45.148101 140.626903 
L 47.962286 140.62641 
L 50.776114 140.625916 
L 53.589941 140.62493 
L 56.404126 140.624436 
L 59.217954 140.623943 
L 62.031781 140.622957 
L 64.845967 140.622957 
L 67.659794 140.62197 
L 70.473622 140.621477 
L 73.287807 140.620983 
L 76.101634 140.619997 
L 78.915462 140.619997 
L 81.729289 140.61901 
L 84.543474 140.618517 
L 87.357302 140.618024 
L 90.171129 140.617037 
L 92.985315 140.617037 
L 95.799142 140.616051 
L 98.61297 140.615557 
L 101.427155 140.615064 
L 104.240982 140.614077 
L 107.05481 140.614077 
L 109.868995 140.613091 
L 112.682822 140.612598 
L 115.49665 140.612104 
L 118.310835 140.611118 
L 121.124663 140.610624 
L 123.93849 140.610131 
L 126.752675 140.609638 
L 129.566503 140.609145 
L 132.38033 140.608158 
L 135.194516 140.607665 
L 138.008343 140.607172 
L 140.82217 140.606185 
L 143.636356 140.606185 
L 146.450183 140.605198 
L 149.264011 140.604705 
L 152.077838 140.604212 
L 154.032203 140.603719 
" clip-path="url(#p589473bf94)" style="fill: none; stroke: #000000; stroke-width: 0.2"/>
    <path d="M 82.98128 7.2 
L 86.575842 14.108143 
L 81.83377 23.174121 
L 81.513529 27.145217 
L 81.193288 31.113166 
L 80.872689 35.076456 
L 80.552448 39.03561 
L 80.232207 42.991145 
L 79.911966 46.941558 
L 79.591725 50.888882 
L 79.271126 54.831615 
L 78.954463 58.726944 
" clip-path="url(#p589473bf94)" style="fill: none; stroke: #000000; stroke-width: 0.2"/>
    <path d="M 78.954463 58.726944 
L 79.274704 54.788743 
L 79.594945 50.84546 
L 79.915544 46.898596 
L 80.235785 42.947634 
L 80.556026 38.992053 
L 80.876267 35.033361 
L 81.196508 31.069517 
L 81.517107 27.102031 
L 81.83377 23.174121 
L 86.575842 14.108143 
L 82.98128 7.2 
" clip-path="url(#p589473bf94)" style="fill: none; stroke: #000000; stroke-width: 0.2"/>
    <path d="M 314.309804 205.315979 
L 311.495977 205.290261 
L 308.682149 205.264542 
L 305.868322 205.238338 
L 303.054137 205.213105 
L 300.240309 205.1869 
L 297.426482 205.161181 
L 294.612654 205.135462 
L 291.798827 205.109257 
L 288.984999 205.084023 
L 286.171172 205.057818 
L 283.356987 205.032098 
L 280.543159 205.006378 
L 277.729332 204.980172 
L 274.915504 204.954937 
L 272.101677 204.928731 
L 269.287849 204.90301 
L 266.474022 204.877289 
L 263.659837 204.851568 
L 260.846009 204.825847 
L 258.032182 204.79964 
L 255.218354 204.774403 
L 252.404527 204.748196 
L 249.590699 204.722474 
L 246.776872 204.696752 
L 243.962687 204.670544 
L 241.148859 204.645307 
L 238.335032 204.619099 
L 235.521204 204.593377 
L 232.707377 204.567654 
L 229.893549 204.54193 
L 227.079722 204.516207 
L 224.265894 204.489998 
L 221.451709 204.46476 
L 218.637882 204.438551 
L 215.824054 204.412827 
L 213.010227 204.387103 
L 210.196399 204.360893 
L 207.382572 204.335654 
L 204.568744 204.309444 
L 201.754559 204.283719 
L 198.940732 204.257994 
L 196.126904 204.231783 
L 193.313077 204.206543 
L 190.499249 204.180333 
L 187.685422 204.154607 
L 184.871594 204.128881 
L 182.057409 204.103155 
L 181.376852 204.096845 
" clip-path="url(#p589473bf94)" style="fill: none; stroke: #000000; stroke-width: 0.2"/>
    <path d="M 314.309804 205.315979 
L 311.495977 205.290261 
L 308.682149 205.264542 
L 305.868322 205.238338 
L 303.054137 205.213105 
L 300.240309 205.1869 
L 297.426482 205.161181 
L 294.612654 205.135462 
L 291.798827 205.109257 
L 288.984999 205.084023 
L 286.171172 205.057818 
L 283.356987 205.032098 
L 280.543159 205.006378 
L 277.729332 204.980172 
L 274.915504 204.954937 
L 272.101677 204.928731 
L 269.287849 204.90301 
L 266.474022 204.877289 
L 263.659837 204.851568 
L 260.846009 204.825847 
L 258.032182 204.79964 
L 255.218354 204.774403 
L 252.404527 204.748196 
L 249.590699 204.722474 
L 246.776872 204.696752 
L 243.962687 204.670544 
L 241.148859 204.645307 
L 238.335032 204.619099 
L 235.521204 204.593377 
L 232.707377 204.567654 
L 229.893549 204.54193 
L 227.079722 204.516207 
L 224.265894 204.489998 
L 221.451709 204.46476 
L 218.637882 204.438551 
L 215.824054 204.412827 
L 213.010227 204.387103 
L 210.196399 204.360893 
L 207.382572 204.335654 
L 204.568744 204.309444 
L 201.754559 204.283719 
L 198.940732 204.257994 
L 196.126904 204.231783 
L 193.313077 204.206543 
L 190.499249 204.180333 
L 187.685422 204.154607 
L 184.871594 204.128881 
L 182.057409 204.103155 
L 181.376852 204.096845 
" clip-path="url(#p589473bf94)" style="fill: none; stroke: #000000; stroke-width: 0.2"/>
    <path d="M 323.884833 35.652876 
L 330.463908 37.700814 
L 332.495918 28.70669 
L 334.717567 26.254472 
L 336.939217 23.801172 
L 339.161225 21.345772 
L 341.382875 18.889283 
L 343.604525 16.431197 
L 345.826175 13.971508 
L 347.060623 12.603868 
L 349.874093 12.526343 
L 352.687563 12.448817 
L 355.501032 12.370269 
L 358.314144 12.292739 
L 361.127614 12.215208 
L 363.175725 12.158079 
L 364.32 12.837479 
" clip-path="url(#p589473bf94)" style="fill: none; stroke: #000000; stroke-width: 0.2"/>
    <path d="M 323.884833 35.652876 
L 330.463908 37.700814 
L 332.495918 28.70669 
L 334.717567 26.254472 
L 336.939217 23.801172 
L 339.161225 21.345772 
L 341.382875 18.889283 
L 343.604525 16.431197 
L 345.826175 13.971508 
L 347.060623 12.603868 
L 349.874093 12.526343 
L 352.687563 12.448817 
L 355.501032 12.370269 
L 358.314144 12.292739 
L 361.127614 12.215208 
L 363.175725 12.158079 
L 364.32 12.838022 
" clip-path="url(#p589473bf94)" style="fill: none; stroke: #000000; stroke-width: 0.2"/>
    <path d="M 111.823002 80.696585 
L 114.181694 82.844179 
L 116.540385 84.991073 
L 118.899077 87.136769 
L 121.257768 89.280769 
L 123.61646 91.424074 
L 125.975152 93.566187 
L 128.333843 95.706611 
L 130.692535 97.846346 
L 133.051226 99.984894 
L 135.409918 102.12176 
L 137.768609 104.25844 
L 140.127301 106.392943 
L 142.485993 108.526269 
L 144.844684 110.659414 
L 147.203376 112.790389 
L 148.026342 113.53357 
" clip-path="url(#p589473bf94)" style="fill: none; stroke: #000000; stroke-width: 0.2"/>
    <path d="M 111.823002 80.696585 
L 114.181694 82.844179 
L 116.540385 84.991073 
L 118.899077 87.136769 
L 121.257768 89.280769 
L 123.61646 91.424074 
L 125.975152 93.566187 
L 128.333843 95.706611 
L 130.692535 97.846346 
L 133.051226 99.984894 
L 135.409918 102.12176 
L 137.768609 104.25844 
L 140.127301 106.392943 
L 142.485993 108.526269 
L 144.844684 110.659414 
L 147.203376 112.790389 
L 148.026342 113.53357 
" clip-path="url(#p589473bf94)" style="fill: none; stroke: #000000; stroke-width: 0.2"/>
    <path d="M 156.715787 167.790191 
L 160.650279 154.086083 
L 154.605417 149.609098 
L 154.13561 145.791108 
L 153.665804 141.969385 
L 153.195998 138.143919 
L 152.726192 134.314697 
L 152.256386 130.481709 
L 151.78658 126.644942 
L 151.726467 126.154807 
" clip-path="url(#p589473bf94)" style="fill: none; stroke: #000000; stroke-width: 0.2"/>
    <path d="M 156.729026 167.790191 
L 160.650279 154.086083 
L 154.605417 149.609098 
L 154.13561 145.791108 
L 153.665804 141.969385 
L 153.195998 138.143919 
L 152.726192 134.314697 
L 152.256386 130.481709 
L 151.78658 126.644942 
L 151.726467 126.154807 
" clip-path="url(#p589473bf94)" style="fill: none; stroke: #000000; stroke-width: 0.2"/>
    <path d="M 349.952811 183.400921 
L 349.746354 187.226463 
L 349.540255 191.047823 
L 349.333798 194.865501 
L 349.127341 198.679506 
L 348.921242 202.489852 
L 348.714785 206.297033 
L 348.508328 210.099605 
L 348.389534 212.288729 
" clip-path="url(#p589473bf94)" style="fill: none; stroke: #000000; stroke-width: 0.2"/>
    <path d="M 349.952811 183.400921 
L 349.746354 187.226463 
L 349.539897 191.047336 
L 349.33344 194.865501 
L 349.126983 198.679506 
L 348.920526 202.489852 
L 348.714069 206.296548 
L 348.507612 210.099605 
L 348.389534 212.27129 
" clip-path="url(#p589473bf94)" style="fill: none; stroke: #000000; stroke-width: 0.2"/>
    <path d="M 111.588636 80.659512 
L 108.983412 79.170301 
L 106.378189 77.680011 
L 103.772965 76.189142 
L 101.168099 74.698195 
L 98.562876 73.206667 
L 95.957652 71.713555 
L 93.352429 70.220864 
L 90.747205 68.727592 
L 89.572153 68.053117 
" clip-path="url(#p589473bf94)" style="fill: none; stroke: #000000; stroke-width: 0.2"/>
    <path d="M 111.588636 80.659512 
L 108.983412 79.171304 
L 106.377831 77.681516 
L 103.772607 76.19165 
L 101.167026 74.701205 
L 98.561803 73.210181 
L 95.956221 71.718576 
L 93.350998 70.225888 
L 90.745416 68.733622 
L 89.558914 68.053117 
" clip-path="url(#p589473bf94)" style="fill: none; stroke: #000000; stroke-width: 0.2"/>
    <path d="M 364.32 53.071665 
L 363.879898 53.964998 
L 362.274399 57.222115 
L 361.586328 58.6171 
" clip-path="url(#p589473bf94)" style="fill: none; stroke: #000000; stroke-width: 0.2"/>
    <path d="M 364.32 53.071665 
L 363.879898 53.964998 
L 362.274399 57.222115 
L 361.586328 58.6171 
" clip-path="url(#p589473bf94)" style="fill: none; stroke: #000000; stroke-width: 0.2"/>
    <path d="M 343.947308 139.849413 
L 344.134443 143.718556 
L 344.321221 147.584856 
L 344.508356 151.446354 
L 344.695491 155.304539 
L 344.882269 159.15893 
L 344.89837 159.487854 
" clip-path="url(#p589473bf94)" style="fill: none; stroke: #000000; stroke-width: 0.2"/>
    <path d="M 343.947308 139.849413 
L 344.134443 143.718556 
L 344.321221 147.584856 
L 344.508356 151.446354 
L 344.695491 155.304539 
L 344.882269 159.15893 
L 344.89837 159.487854 
" clip-path="url(#p589473bf94)" style="fill: none; stroke: #000000; stroke-width: 0.2"/>
    <path d="M 79.176306 58.837288 
L 89.793639 68.126501 
" clip-path="url(#p589473bf94)" style="fill: none; stroke: #000000; stroke-width: 0.2"/>
    <path d="M 79.176306 58.837288 
L 89.7804 68.126501 
" clip-path="url(#p589473bf94)" style="fill: none; stroke: #000000; stroke-width: 0.2"/>
    <path d="M 353.274731 88.695387 
L 350.317779 102.358895 
" clip-path="url(#p589473bf94)" style="fill: none; stroke: #000000; stroke-width: 0.2"/>
    <path d="M 353.274731 88.695387 
L 350.317779 102.358895 
" clip-path="url(#p589473bf94)" style="fill: none; stroke: #000000; stroke-width: 0.2"/>
    <path d="M 152.078196 122.241406 
L 148.052462 113.389515 
" clip-path="url(#p589473bf94)" style="fill: none; stroke: #000000; stroke-width: 0.2"/>
    <path d="M 152.078196 122.223564 
L 148.052462 113.389515 
" clip-path="url(#p589473bf94)" style="fill: none; stroke: #000000; stroke-width: 0.2"/>
    <path d="M 348.311531 250.936886 
L 335.961319 251.321151 
" clip-path="url(#p589473bf94)" style="fill: none; stroke: #000000; stroke-width: 0.2"/>
    <path d="M 348.311531 250.936886 
L 335.961319 251.321151 
" clip-path="url(#p589473bf94)" style="fill: none; stroke: #000000; stroke-width: 0.2"/>
    <path d="M 350.044053 205.421762 
L 341.094121 205.386825 
" clip-path="url(#p589473bf94)" style="fill: none; stroke: #000000; stroke-width: 0.2"/>
    <path d="M 350.044053 205.421762 
L 341.094121 205.386825 
" clip-path="url(#p589473bf94)" style="fill: none; stroke: #000000; stroke-width: 0.2"/>
    <path d="M 341.784697 246.410262 
L 340.989998 251.094242 
" clip-path="url(#p589473bf94)" style="fill: none; stroke: #000000; stroke-width: 0.2"/>
    <path d="M 329.994817 251.076972 
L 326.972386 252.840102 
" clip-path="url(#p589473bf94)" style="fill: none; stroke: #000000; stroke-width: 0.2"/>
    <path d="M 329.994817 251.094242 
L 326.972386 252.840102 
" clip-path="url(#p589473bf94)" style="fill: none; stroke: #000000; stroke-width: 0.2"/>
    <path d="M 341.784697 246.410262 
L 340.989998 251.094242 
" clip-path="url(#p589473bf94)" style="fill: none; stroke: #000000; stroke-width: 0.2"/>
    <path d="M 152.103958 122.403965 
L 151.77835 126.029045 
" clip-path="url(#p589473bf94)" style="fill: none; stroke: #000000; stroke-width: 0.2"/>
    <path d="M 152.103958 122.421807 
L 151.77835 126.029045 
" clip-path="url(#p589473bf94)" style="fill: none; stroke: #000000; stroke-width: 0.2"/>
   </g>
   <g id="line2d_1">
    <path d="M 309.472613 170.356933 
L 309.472613 170.356933 
L 309.32163 170.373936 
L 309.170648 170.390945 
L 309.019668 170.407959 
L 308.868689 170.424979 
L 308.717711 170.442005 
L 308.566734 170.459036 
L 308.415759 170.476074 
L 308.264785 170.493117 
L 308.113813 170.510166 
L 307.962841 170.52722 
L 307.811871 170.54428 
L 307.660902 170.561346 
L 307.509935 170.578418 
L 307.358969 170.595495 
L 307.208004 170.612579 
L 307.057041 170.629668 
L 306.906078 170.646762 
L 306.755118 170.663863 
L 306.604158 170.680969 
L 306.4532 170.698081 
L 306.302243 170.715198 
L 306.151287 170.732322 
L 306.000333 170.749451 
L 305.84938 170.766586 
L 305.698428 170.783726 
L 305.547477 170.800872 
L 305.396528 170.818024 
L 305.245581 170.835182 
L 305.094634 170.852346 
L 304.943689 170.869515 
L 304.792745 170.88669 
L 304.641802 170.90387 
L 304.490861 170.921057 
L 304.339921 170.938249 
L 304.188983 170.955447 
L 304.038045 170.97265 
L 303.887109 170.98986 
L 303.736175 171.007075 
L 303.585241 171.024296 
L 303.434309 171.041522 
L 303.283378 171.058754 
L 303.132449 171.075992 
L 302.981521 171.093236 
L 302.830594 171.110486 
L 302.679669 171.127741 
L 302.528745 171.145002 
L 302.377822 171.162268 
L 302.2269 171.179541 
L 302.07598 171.196819 
L 301.925061 171.214103 
L 301.774144 171.231392 
L 301.623227 171.248687 
L 301.472312 171.265988 
L 301.321399 171.283295 
L 301.170487 171.300608 
L 301.019576 171.317926 
L 300.868666 171.33525 
L 300.717758 171.352579 
L 300.566851 171.369915 
L 300.415945 171.387256 
L 300.265041 171.404603 
L 300.114138 171.421955 
L 299.963236 171.439314 
L 299.812336 171.456678 
L 299.661437 171.474047 
L 299.510539 171.491423 
L 299.359643 171.508804 
L 299.208748 171.526191 
L 299.057854 171.543584 
L 298.906962 171.560982 
L 298.75607 171.578386 
L 298.605181 171.595796 
L 298.454292 171.613212 
L 298.303405 171.630633 
L 298.15252 171.64806 
L 298.001635 171.665493 
L 297.850752 171.682931 
L 297.69987 171.700375 
L 297.54899 171.717825 
L 297.398111 171.735281 
L 297.247233 171.752742 
L 297.096357 171.770209 
L 296.945482 171.787682 
L 296.794608 171.805161 
L 296.643735 171.822645 
L 296.492864 171.840135 
L 296.341995 171.85763 
L 296.191126 171.875132 
L 296.040259 171.892639 
L 295.889393 171.910152 
L 295.738529 171.92767 
L 295.587666 171.945195 
L 295.436804 171.962725 
L 295.285944 171.980261 
L 295.135085 171.997802 
L 294.984227 172.015349 
L 294.833371 172.032902 
L 294.682516 172.050461 
L 294.531662 172.068025 
L 294.38081 172.085595 
L 294.229959 172.103171 
L 294.229959 172.103171 
" clip-path="url(#p589473bf94)" style="fill: none; stroke: #0000ff; stroke-width: 0.5; stroke-linecap: square"/>
   </g>
   <g id="line2d_2">
    <path d="M 309.472613 170.356933 
L 309.472613 170.356933 
L 309.510812 170.644545 
L 309.549005 170.932137 
L 309.587192 171.219708 
L 309.625374 171.507259 
L 309.66355 171.794789 
L 309.701721 172.082299 
L 309.739886 172.369789 
L 309.778045 172.657258 
L 309.816199 172.944707 
L 309.854348 173.232136 
L 309.892491 173.519544 
L 309.930628 173.806932 
L 309.96876 174.094299 
L 310.006886 174.381647 
L 310.045007 174.668973 
L 310.083122 174.95628 
L 310.121232 175.243566 
L 310.159336 175.530832 
L 310.197435 175.818077 
L 310.235528 176.105302 
L 310.273615 176.392507 
L 310.311698 176.679691 
L 310.349774 176.966855 
L 310.387845 177.253999 
L 310.425911 177.541123 
L 310.463971 177.828226 
L 310.502025 178.115309 
L 310.540074 178.402372 
L 310.578117 178.689414 
L 310.616155 178.976436 
L 310.654188 179.263438 
L 310.692214 179.550419 
L 310.730236 179.837381 
L 310.768252 180.124322 
L 310.806262 180.411242 
L 310.844267 180.698143 
L 310.882266 180.985023 
L 310.92026 181.271883 
L 310.958249 181.558723 
L 310.996231 181.845542 
L 311.034209 182.132342 
L 311.072181 182.419121 
L 311.110147 182.705879 
L 311.148108 182.992618 
L 311.186063 183.279336 
L 311.224013 183.566035 
L 311.261958 183.852713 
L 311.299897 184.13937 
L 311.33783 184.426008 
L 311.375758 184.712625 
L 311.413681 184.999223 
L 311.451598 185.2858 
L 311.489509 185.572357 
L 311.527415 185.858893 
L 311.565316 186.14541 
L 311.603211 186.431906 
L 311.641101 186.718382 
L 311.678985 187.004838 
L 311.716864 187.291274 
L 311.754737 187.57769 
L 311.792605 187.864086 
L 311.830467 188.150461 
L 311.868324 188.436816 
L 311.906175 188.723152 
L 311.944021 189.009467 
L 311.981862 189.295762 
L 312.019697 189.582037 
L 312.057527 189.868291 
L 312.095351 190.154526 
L 312.13317 190.440741 
L 312.170983 190.726935 
L 312.208791 191.013109 
L 312.246593 191.299264 
L 312.28439 191.585398 
L 312.322182 191.871512 
L 312.359968 192.157606 
L 312.397748 192.44368 
L 312.435523 192.729734 
L 312.473293 193.015768 
L 312.511058 193.301782 
L 312.548817 193.587775 
L 312.58657 193.873749 
L 312.624318 194.159703 
L 312.662061 194.445636 
L 312.699798 194.73155 
L 312.73753 195.017444 
L 312.775256 195.303317 
L 312.812977 195.589171 
L 312.850693 195.875004 
L 312.888403 196.160818 
L 312.926107 196.446611 
L 312.963807 196.732385 
L 313.001501 197.018138 
L 313.039189 197.303872 
L 313.076872 197.589585 
L 313.11455 197.875279 
L 313.152222 198.160952 
L 313.189889 198.446606 
L 313.22755 198.732239 
L 313.265206 199.017853 
L 313.302857 199.303447 
L 313.302857 199.303447 
" clip-path="url(#p589473bf94)" style="fill: none; stroke: #0000ff; stroke-width: 0.5; stroke-linecap: square"/>
   </g>
   <g id="line2d_3">
    <path d="M 253.778605 219.318185 
L 253.778605 219.318185 
L 253.813335 219.059827 
L 253.84807 218.801453 
L 253.882809 218.543062 
L 253.917553 218.284655 
L 253.952301 218.026232 
L 253.987053 217.767793 
L 254.02181 217.509337 
L 254.056572 217.250865 
L 254.091338 216.992377 
L 254.126109 216.733873 
L 254.160884 216.475352 
L 254.195663 216.216815 
L 254.230447 215.958262 
L 254.265236 215.699693 
L 254.300028 215.441107 
L 254.334826 215.182505 
L 254.369628 214.923887 
L 254.404434 214.665253 
L 254.439245 214.406602 
L 254.474061 214.147935 
L 254.508881 213.889252 
L 254.543705 213.630552 
L 254.578534 213.371836 
L 254.613368 213.113104 
L 254.648206 212.854356 
L 254.683048 212.595591 
L 254.717895 212.33681 
L 254.752747 212.078012 
L 254.787603 211.819199 
L 254.822463 211.560369 
L 254.857328 211.301522 
L 254.892198 211.04266 
L 254.927072 210.783781 
L 254.96195 210.524885 
L 254.996833 210.265974 
L 255.031721 210.007046 
L 255.066613 209.748101 
L 255.10151 209.489141 
L 255.136411 209.230164 
L 255.171316 208.97117 
L 255.206227 208.712161 
L 255.241141 208.453135 
L 255.276061 208.194092 
L 255.310984 207.935033 
L 255.345913 207.675958 
L 255.380846 207.416867 
L 255.415783 207.157759 
L 255.450725 206.898635 
L 255.485671 206.639494 
L 255.520622 206.380337 
L 255.555578 206.121163 
L 255.590538 205.861974 
L 255.625502 205.602767 
L 255.660471 205.343545 
L 255.695445 205.084306 
L 255.730423 204.82505 
L 255.765406 204.565779 
L 255.800393 204.30649 
L 255.835385 204.047186 
L 255.870382 203.787865 
L 255.905383 203.528527 
L 255.940388 203.269173 
L 255.975398 203.009803 
L 256.010413 202.750416 
L 256.045432 202.491013 
L 256.080456 202.231594 
L 256.115484 201.972158 
L 256.150517 201.712705 
L 256.185554 201.453236 
L 256.220596 201.193751 
L 256.255642 200.934249 
L 256.290693 200.674731 
L 256.325749 200.415196 
L 256.360809 200.155645 
L 256.395874 199.896077 
L 256.430943 199.636493 
L 256.466017 199.376892 
L 256.501096 199.117275 
L 256.536179 198.857642 
L 256.571266 198.597991 
L 256.606358 198.338325 
L 256.641455 198.078642 
L 256.676557 197.818942 
L 256.711662 197.559226 
L 256.746773 197.299494 
L 256.781888 197.039745 
L 256.817008 196.779979 
L 256.852132 196.520197 
L 256.887261 196.260399 
L 256.922394 196.000584 
L 256.957532 195.740752 
L 256.992674 195.480904 
L 257.027822 195.221039 
L 257.062973 194.961158 
L 257.09813 194.70126 
L 257.133291 194.441346 
L 257.168456 194.181415 
L 257.203626 193.921468 
L 257.238801 193.661504 
L 257.27398 193.401524 
L 257.309164 193.141527 
L 257.309164 193.141527 
" clip-path="url(#p589473bf94)" style="fill: none; stroke: #0000ff; stroke-width: 0.5; stroke-linecap: square"/>
   </g>
   <g id="line2d_4">
    <path d="M 253.778605 219.318185 
L 253.778605 219.318185 
L 254.365021 219.116155 
L 254.951497 218.914201 
L 255.538031 218.712324 
L 256.124625 218.510522 
L 256.711277 218.308798 
L 257.297989 218.107149 
L 257.884759 217.905577 
L 258.471589 217.704082 
L 259.058478 217.502663 
L 259.645425 217.301321 
L 260.232432 217.100055 
L 260.819498 216.898866 
L 261.406622 216.697753 
L 261.993806 216.496718 
L 262.581048 216.295758 
L 263.168349 216.094876 
L 263.755709 215.89407 
L 264.343128 215.693341 
L 264.930606 215.492689 
L 265.518143 215.292114 
L 266.105739 215.091616 
L 266.693393 214.891194 
L 267.281107 214.69085 
L 267.868879 214.490582 
L 268.45671 214.290392 
L 269.044599 214.090278 
L 269.632548 213.890242 
L 270.220555 213.690282 
L 270.808621 213.4904 
L 271.396746 213.290595 
L 271.984929 213.090867 
L 272.573171 212.891216 
L 273.161472 212.691643 
L 273.749831 212.492146 
L 274.338249 212.292727 
L 274.926726 212.093386 
L 275.515261 211.894122 
L 276.103855 211.694935 
L 276.692508 211.495825 
L 277.281219 211.296793 
L 277.869989 211.097838 
L 278.458817 210.898961 
L 279.047704 210.700162 
L 279.63665 210.50144 
L 280.225654 210.302795 
L 280.814716 210.104228 
L 281.403837 209.905739 
L 281.993017 209.707328 
L 282.582254 209.508994 
L 283.171551 209.310738 
L 283.760906 209.112559 
L 284.350319 208.914459 
L 284.939791 208.716436 
L 285.529321 208.518491 
L 286.118909 208.320624 
L 286.708556 208.122835 
L 287.298261 207.925124 
L 287.888025 207.727491 
L 288.477847 207.529936 
L 289.067727 207.332459 
L 289.657665 207.13506 
L 290.247662 206.937739 
L 290.837717 206.740496 
L 291.427831 206.543331 
L 292.018002 206.346245 
L 292.608232 206.149237 
L 293.19852 205.952307 
L 293.788866 205.755455 
L 294.379271 205.558681 
L 294.969734 205.361986 
L 295.560254 205.165369 
L 296.150833 204.968831 
L 296.74147 204.772371 
L 297.332166 204.575989 
L 297.922919 204.379686 
L 298.513731 204.183462 
L 299.1046 203.987315 
L 299.695528 203.791248 
L 300.286513 203.595259 
L 300.877557 203.399349 
L 301.468659 203.203517 
L 302.059819 203.007764 
L 302.651036 202.81209 
L 303.242312 202.616494 
L 303.833646 202.420978 
L 304.425037 202.22554 
L 305.016487 202.030181 
L 305.607994 201.8349 
L 306.19956 201.639699 
L 306.791183 201.444577 
L 307.382864 201.249533 
L 307.974604 201.054569 
L 308.566401 200.859683 
L 309.158255 200.664877 
L 309.750168 200.470149 
L 310.342138 200.275501 
L 310.934167 200.080932 
L 311.526253 199.886442 
L 312.118396 199.692031 
L 312.710598 199.497699 
L 313.302857 199.303447 
L 313.302857 199.303447 
" clip-path="url(#p589473bf94)" style="fill: none; stroke: #0000ff; stroke-width: 0.5; stroke-linecap: square"/>
   </g>
   <g id="line2d_5">
    <path d="M 257.309164 193.141527 
L 257.309164 193.141527 
L 257.132651 192.8946 
L 256.956116 192.647666 
L 256.779559 192.400725 
L 256.60298 192.153776 
L 256.426379 191.90682 
L 256.249756 191.659857 
L 256.073111 191.412886 
L 255.896444 191.165908 
L 255.719756 190.918923 
L 255.543045 190.67193 
L 255.366312 190.42493 
L 255.189558 190.177923 
L 255.012781 189.930909 
L 254.835983 189.683887 
L 254.659162 189.436858 
L 254.48232 189.189821 
L 254.305455 188.942777 
L 254.128569 188.695726 
L 253.95166 188.448668 
L 253.77473 188.201602 
L 253.597777 187.954529 
L 253.420803 187.707448 
L 253.243806 187.46036 
L 253.066788 187.213265 
L 252.889747 186.966163 
L 252.712684 186.719053 
L 252.5356 186.471936 
L 252.358493 186.224812 
L 252.181364 185.97768 
L 252.004213 185.730541 
L 251.82704 185.483395 
L 251.649845 185.236242 
L 251.472628 184.989081 
L 251.295389 184.741913 
L 251.118128 184.494737 
L 250.940845 184.247554 
L 250.763539 184.000364 
L 250.586212 183.753167 
L 250.408862 183.505962 
L 250.231491 183.25875 
L 250.054097 183.011531 
L 249.876681 182.764304 
L 249.699243 182.51707 
L 249.521783 182.269829 
L 249.344301 182.02258 
L 249.166796 181.775324 
L 248.98927 181.528061 
L 248.811721 181.280791 
L 248.63415 181.033513 
L 248.456557 180.786228 
L 248.278942 180.538936 
L 248.101305 180.291636 
L 247.923645 180.044329 
L 247.745963 179.797015 
L 247.56826 179.549693 
L 247.390533 179.302364 
L 247.212785 179.055028 
L 247.035015 178.807685 
L 246.857222 178.560334 
L 246.679407 178.312976 
L 246.50157 178.06561 
L 246.323711 177.818238 
L 246.145829 177.570858 
L 245.967926 177.323471 
L 245.79 177.076076 
L 245.612051 176.828674 
L 245.434081 176.581265 
L 245.256088 176.333849 
L 245.078073 176.086425 
L 244.900036 175.838994 
L 244.721977 175.591556 
L 244.543895 175.34411 
L 244.365791 175.096657 
L 244.187665 174.849197 
L 244.009516 174.60173 
L 243.831345 174.354255 
L 243.653152 174.106773 
L 243.474937 173.859284 
L 243.296699 173.611787 
L 243.118439 173.364283 
L 242.940156 173.116772 
L 242.761852 172.869254 
L 242.583525 172.621728 
L 242.405175 172.374195 
L 242.226804 172.126655 
L 242.04841 171.879107 
L 241.869993 171.631553 
L 241.691555 171.38399 
L 241.513093 171.136421 
L 241.33461 170.888844 
L 241.156104 170.64126 
L 240.977576 170.393669 
L 240.799026 170.146071 
L 240.620453 169.898465 
L 240.441857 169.650852 
L 240.26324 169.403232 
L 240.0846 169.155604 
L 239.905937 168.907969 
L 239.727252 168.660327 
L 239.548545 168.412677 
L 239.369815 168.165021 
L 239.369815 168.165021 
" clip-path="url(#p589473bf94)" style="fill: none; stroke: #0000ff; stroke-width: 0.5; stroke-linecap: square"/>
   </g>
   <g id="line2d_6">
    <path d="M 294.229959 172.103171 
L 294.229959 172.103171 
L 293.687342 172.060442 
L 293.144713 172.017788 
L 292.602072 171.975209 
L 292.05942 171.932704 
L 291.516756 171.890273 
L 290.974081 171.847918 
L 290.431394 171.805637 
L 289.888695 171.76343 
L 289.345985 171.721298 
L 288.803263 171.679241 
L 288.26053 171.637258 
L 287.717785 171.59535 
L 287.175029 171.553516 
L 286.632261 171.511757 
L 286.089482 171.470073 
L 285.546691 171.428463 
L 285.003889 171.386928 
L 284.461075 171.345468 
L 283.918251 171.304082 
L 283.375414 171.262771 
L 282.832567 171.221535 
L 282.289708 171.180373 
L 281.746838 171.139286 
L 281.203956 171.098274 
L 280.661063 171.057336 
L 280.118159 171.016473 
L 279.575244 170.975685 
L 279.032318 170.934971 
L 278.48938 170.894333 
L 277.946431 170.853768 
L 277.403472 170.813279 
L 276.860501 170.772864 
L 276.317519 170.732524 
L 275.774525 170.692259 
L 275.231521 170.652069 
L 274.688506 170.611953 
L 274.14548 170.571912 
L 273.602442 170.531946 
L 273.059394 170.492054 
L 272.516335 170.452238 
L 271.973265 170.412496 
L 271.430184 170.372829 
L 270.887092 170.333236 
L 270.343989 170.293719 
L 269.800876 170.254276 
L 269.257751 170.214908 
L 268.714616 170.175615 
L 268.17147 170.136397 
L 267.628313 170.097253 
L 267.085145 170.058185 
L 266.541967 170.019191 
L 265.998778 169.980272 
L 265.455578 169.941428 
L 264.912368 169.902658 
L 264.369147 169.863964 
L 263.825915 169.825344 
L 263.282673 169.7868 
L 262.73942 169.74833 
L 262.196156 169.709935 
L 261.652882 169.671615 
L 261.109598 169.633369 
L 260.566303 169.595199 
L 260.022997 169.557104 
L 259.479681 169.519083 
L 258.936355 169.481137 
L 258.393018 169.443267 
L 257.84967 169.405471 
L 257.306313 169.36775 
L 256.762945 169.330104 
L 256.219566 169.292533 
L 255.676178 169.255037 
L 255.132779 169.217615 
L 254.589369 169.180269 
L 254.04595 169.142998 
L 253.50252 169.105801 
L 252.95908 169.06868 
L 252.41563 169.031634 
L 251.872169 168.994662 
L 251.328699 168.957766 
L 250.785218 168.920944 
L 250.241727 168.884197 
L 249.698226 168.847526 
L 249.154715 168.810929 
L 248.611194 168.774408 
L 248.067663 168.737961 
L 247.524122 168.70159 
L 246.98057 168.665293 
L 246.437009 168.629072 
L 245.893438 168.592925 
L 245.349857 168.556854 
L 244.806266 168.520857 
L 244.262665 168.484936 
L 243.719054 168.449089 
L 243.175434 168.413318 
L 242.631803 168.377622 
L 242.088163 168.342001 
L 241.544513 168.306455 
L 241.000853 168.270984 
L 240.457184 168.235588 
L 239.913504 168.200267 
L 239.369815 168.165021 
L 239.369815 168.165021 
" clip-path="url(#p589473bf94)" style="fill: none; stroke: #0000ff; stroke-width: 0.5; stroke-linecap: square"/>
   </g>
   <g id="line2d_7">
    <path d="M 239.369815 168.165021 
L 239.369815 168.165021 
L 238.971262 167.622927 
L 238.5726 167.0808 
L 238.173828 166.53864 
L 237.774946 165.996447 
L 237.375955 165.45422 
L 236.976855 164.91196 
L 236.577644 164.369666 
L 236.178324 163.827339 
L 235.778894 163.284979 
L 235.379353 162.742585 
L 234.979703 162.200159 
L 234.579943 161.657699 
L 234.180073 161.115205 
L 233.780093 160.572679 
L 233.380003 160.030119 
L 232.979802 159.487525 
L 232.579491 158.944899 
L 232.17907 158.402239 
L 231.778539 157.859547 
L 231.377897 157.31682 
L 230.977144 156.774061 
L 230.576281 156.231269 
L 230.175307 155.688443 
L 229.774223 155.145584 
L 229.373028 154.602692 
L 228.971722 154.059767 
L 228.570306 153.516808 
L 228.168778 152.973816 
L 227.76714 152.430792 
L 227.36539 151.887734 
L 226.96353 151.344643 
L 226.561558 150.801519 
L 226.159476 150.258361 
L 225.757282 149.715171 
L 225.354977 149.171947 
L 224.95256 148.628691 
L 224.550032 148.085401 
L 224.147393 147.542078 
L 223.744642 146.998723 
L 223.34178 146.455334 
L 222.938806 145.911912 
L 222.53572 145.368457 
L 222.132523 144.824969 
L 221.729214 144.281448 
L 221.325793 143.737894 
L 220.92226 143.194307 
L 220.518616 142.650687 
L 220.114859 142.107034 
L 219.710991 141.563348 
L 219.30701 141.019629 
L 218.902917 140.475877 
L 218.498712 139.932092 
L 218.094394 139.388274 
L 217.689965 138.844423 
L 217.285423 138.300539 
L 216.880768 137.756623 
L 216.476001 137.212673 
L 216.071122 136.668691 
L 215.66613 136.124676 
L 215.261025 135.580627 
L 214.855808 135.036546 
L 214.450478 134.492432 
L 214.045035 133.948286 
L 213.639479 133.404106 
L 213.23381 132.859893 
L 212.828029 132.315648 
L 212.422134 131.77137 
L 212.016126 131.227059 
L 211.610005 130.682715 
L 211.203771 130.138339 
L 210.797423 129.59393 
L 210.390962 129.049487 
L 209.984388 128.505013 
L 209.577701 127.960505 
L 209.1709 127.415965 
L 208.763985 126.871392 
L 208.356957 126.326786 
L 207.949815 125.782147 
L 207.54256 125.237476 
L 207.13519 124.692772 
L 206.727707 124.148036 
L 206.32011 123.603266 
L 205.912399 123.058464 
L 205.504574 122.51363 
L 205.096635 121.968763 
L 204.688582 121.423863 
L 204.280415 120.87893 
L 203.872134 120.333965 
L 203.463738 119.788967 
L 203.055228 119.243937 
L 202.646604 118.698874 
L 202.237865 118.153779 
L 201.829011 117.608651 
L 201.420043 117.06349 
L 201.010961 116.518297 
L 200.601764 115.973071 
L 200.192452 115.427813 
L 199.783025 114.882522 
L 199.373484 114.337199 
L 198.963827 113.791843 
L 198.554056 113.246455 
L 198.554056 113.246455 
" clip-path="url(#p589473bf94)" style="fill: none; stroke: #0000ff; stroke-width: 0.5; stroke-linecap: square"/>
   </g>
   <g id="line2d_8">
    <path d="M 239.369815 168.165021 
L 239.369815 168.165021 
L 239.630033 167.919579 
L 239.890283 167.674139 
L 240.150565 167.428701 
L 240.41088 167.183265 
L 240.671227 166.937832 
L 240.931606 166.6924 
L 241.192018 166.446971 
L 241.452462 166.201544 
L 241.712938 165.956119 
L 241.973447 165.710697 
L 242.233989 165.465276 
L 242.494563 165.219858 
L 242.755169 164.974441 
L 243.015807 164.729027 
L 243.276478 164.483616 
L 243.537182 164.238206 
L 243.797918 163.992799 
L 244.058686 163.747393 
L 244.319487 163.50199 
L 244.58032 163.256589 
L 244.841186 163.011191 
L 245.102084 162.765794 
L 245.363015 162.5204 
L 245.623978 162.275008 
L 245.884974 162.029619 
L 246.146002 161.784231 
L 246.407063 161.538846 
L 246.668156 161.293463 
L 246.929282 161.048082 
L 247.19044 160.802704 
L 247.451631 160.557328 
L 247.712854 160.311954 
L 247.97411 160.066582 
L 248.235398 159.821213 
L 248.496719 159.575846 
L 248.758073 159.330481 
L 249.019459 159.085119 
L 249.280878 158.839758 
L 249.542329 158.594401 
L 249.803813 158.349045 
L 250.065329 158.103692 
L 250.326878 157.858341 
L 250.588459 157.612992 
L 250.850074 157.367646 
L 251.11172 157.122302 
L 251.3734 156.87696 
L 251.635112 156.631621 
L 251.896857 156.386284 
L 252.158634 156.140949 
L 252.420444 155.895617 
L 252.682287 155.650287 
L 252.944162 155.40496 
L 253.20607 155.159635 
L 253.46801 154.914312 
L 253.729984 154.668992 
L 253.99199 154.423674 
L 254.254028 154.178358 
L 254.516099 153.933045 
L 254.778204 153.687734 
L 255.04034 153.442426 
L 255.30251 153.19712 
L 255.564712 152.951816 
L 255.826947 152.706515 
L 256.089214 152.461216 
L 256.351515 152.21592 
L 256.613848 151.970626 
L 256.876214 151.725334 
L 257.138612 151.480045 
L 257.401044 151.234759 
L 257.663508 150.989475 
L 257.926004 150.744193 
L 258.188534 150.498914 
L 258.451097 150.253637 
L 258.713692 150.008363 
L 258.97632 149.763091 
L 259.238981 149.517822 
L 259.501674 149.272555 
L 259.764401 149.027291 
L 260.02716 148.782029 
L 260.289952 148.536769 
L 260.552777 148.291513 
L 260.815635 148.046258 
L 261.078525 147.801006 
L 261.341449 147.555757 
L 261.604405 147.31051 
L 261.867394 147.065266 
L 262.130416 146.820025 
L 262.393471 146.574785 
L 262.656559 146.329549 
L 262.91968 146.084315 
L 263.182833 145.839083 
L 263.44602 145.593854 
L 263.709239 145.348628 
L 263.972492 145.103404 
L 264.235777 144.858183 
L 264.499095 144.612964 
L 264.762446 144.367748 
L 265.02583 144.122535 
L 265.289247 143.877324 
L 265.552697 143.632116 
L 265.81618 143.38691 
L 265.81618 143.38691 
" clip-path="url(#p589473bf94)" style="fill: none; stroke: #0000ff; stroke-width: 0.5; stroke-linecap: square"/>
   </g>
   <g id="line2d_9">
    <path d="M 198.554056 113.246455 
L 198.554056 113.246455 
L 197.992783 112.669163 
L 197.431343 112.091868 
L 196.869737 111.514569 
L 196.307963 110.937267 
L 195.746023 110.359961 
L 195.183915 109.782652 
L 194.621641 109.20534 
L 194.059199 108.628025 
L 193.496589 108.050706 
L 192.933813 107.473385 
L 192.370869 106.89606 
L 191.807757 106.318732 
L 191.244478 105.741402 
L 190.681031 105.164068 
L 190.117416 104.586731 
L 189.553634 104.009392 
L 188.989683 103.43205 
L 188.425565 102.854705 
L 187.861278 102.277357 
L 187.296824 101.700007 
L 186.732201 101.122654 
L 186.167409 100.545298 
L 185.60245 99.96794 
L 185.037322 99.39058 
L 184.472025 98.813217 
L 183.90656 98.235852 
L 183.340926 97.658484 
L 182.775123 97.081114 
L 182.209151 96.503742 
L 181.643011 95.926368 
L 181.076701 95.348992 
L 180.510222 94.771613 
L 179.943575 94.194233 
L 179.376757 93.616851 
L 178.809771 93.039466 
L 178.242615 92.46208 
L 177.67529 91.884692 
L 177.107795 91.307302 
L 176.54013 90.729911 
L 175.972296 90.152517 
L 175.404292 89.575122 
L 174.836118 88.997726 
L 174.267774 88.420328 
L 173.69926 87.842928 
L 173.130576 87.265528 
L 172.561722 86.688125 
L 171.992697 86.110722 
L 171.423503 85.533317 
L 170.854137 84.95591 
L 170.284602 84.378503 
L 169.714895 83.801095 
L 169.145018 83.223685 
L 168.574971 82.646274 
L 168.004752 82.068863 
L 167.434362 81.49145 
L 166.863802 80.914037 
L 166.293071 80.336622 
L 165.722168 79.759207 
L 165.151094 79.181791 
L 164.579849 78.604375 
L 164.008433 78.026958 
L 163.436845 77.44954 
L 162.865085 76.872122 
L 162.293154 76.294703 
L 161.721051 75.717284 
L 161.148777 75.139864 
L 160.576331 74.562444 
L 160.003712 73.985024 
L 159.430922 73.407604 
L 158.85796 72.830183 
L 158.284825 72.252762 
L 157.711519 71.675341 
L 157.13804 71.097921 
L 156.564388 70.5205 
L 155.990565 69.943079 
L 155.416568 69.365658 
L 154.842399 68.788238 
L 154.268057 68.210818 
L 153.693543 67.633398 
L 153.118856 67.055978 
L 152.543995 66.478559 
L 151.968962 65.90114 
L 151.393756 65.323722 
L 150.818376 64.746304 
L 150.242823 64.168887 
L 149.667097 63.591471 
L 149.091197 63.014055 
L 148.515124 62.43664 
L 147.938877 61.859226 
L 147.362457 61.281812 
L 146.785863 60.7044 
L 146.209095 60.126988 
L 145.632154 59.549578 
L 145.055038 58.972168 
L 144.477748 58.39476 
L 143.900284 57.817353 
L 143.322646 57.239947 
L 142.744834 56.662543 
L 142.166847 56.085139 
L 141.588686 55.507737 
L 141.01035 54.930337 
L 141.01035 54.930337 
" clip-path="url(#p589473bf94)" style="fill: none; stroke: #0000ff; stroke-width: 0.5; stroke-linecap: square"/>
   </g>
   <g id="line2d_10">
    <path d="M 58.217143 43.766873 
L 58.217143 43.766873 
L 59.039191 43.868676 
L 59.861195 43.970656 
L 60.683156 44.072811 
L 61.505072 44.175141 
L 62.326944 44.277648 
L 63.148772 44.380329 
L 63.970556 44.483186 
L 64.792295 44.586219 
L 65.61399 44.689427 
L 66.435641 44.79281 
L 67.257246 44.896369 
L 68.078808 45.000103 
L 68.900324 45.104012 
L 69.721796 45.208097 
L 70.543223 45.312356 
L 71.364605 45.416791 
L 72.185942 45.521401 
L 73.007234 45.626187 
L 73.82848 45.731147 
L 74.649682 45.836282 
L 75.470838 45.941592 
L 76.291949 46.047078 
L 77.113014 46.152738 
L 77.934034 46.258573 
L 78.755009 46.364583 
L 79.575938 46.470768 
L 80.396821 46.577127 
L 81.217658 46.683662 
L 82.038449 46.790371 
L 82.859195 46.897255 
L 83.679894 47.004313 
L 84.500548 47.111546 
L 85.321155 47.218954 
L 86.141716 47.326536 
L 86.962231 47.434293 
L 87.7827 47.542225 
L 88.603122 47.65033 
L 89.423497 47.75861 
L 90.243826 47.867065 
L 91.064109 47.975694 
L 91.884344 48.084497 
L 92.704533 48.193475 
L 93.524675 48.302626 
L 94.34477 48.411952 
L 95.164818 48.521453 
L 95.984819 48.631127 
L 96.804773 48.740975 
L 97.62468 48.850998 
L 98.444539 48.961194 
L 99.264352 49.071565 
L 100.084116 49.182109 
L 100.903833 49.292828 
L 101.723503 49.40372 
L 102.543125 49.514786 
L 103.362699 49.626026 
L 104.182226 49.73744 
L 105.001705 49.849027 
L 105.821136 49.960788 
L 106.640518 50.072723 
L 107.459853 50.184832 
L 108.27914 50.297114 
L 109.098378 50.40957 
L 109.917569 50.522199 
L 110.736711 50.635002 
L 111.555804 50.747978 
L 112.374849 50.861127 
L 113.193846 50.97445 
L 114.012794 51.087947 
L 114.831693 51.201616 
L 115.650543 51.315459 
L 116.469345 51.429476 
L 117.288098 51.543665 
L 118.106802 51.658028 
L 118.925456 51.772563 
L 119.744062 51.887272 
L 120.562619 52.002154 
L 121.381126 52.117209 
L 122.199584 52.232437 
L 123.017993 52.347838 
L 123.836352 52.463411 
L 124.654661 52.579158 
L 125.472921 52.695077 
L 126.291132 52.81117 
L 127.109293 52.927435 
L 127.927404 53.043872 
L 128.745465 53.160483 
L 129.563476 53.277266 
L 130.381437 53.394222 
L 131.199348 53.51135 
L 132.017209 53.628651 
L 132.835019 53.746124 
L 133.65278 53.86377 
L 134.47049 53.981588 
L 135.28815 54.099579 
L 136.105759 54.217742 
L 136.923318 54.336077 
L 137.740826 54.454585 
L 138.558283 54.573265 
L 139.375689 54.692117 
L 140.193045 54.811141 
L 141.01035 54.930337 
L 141.01035 54.930337 
" clip-path="url(#p589473bf94)" style="fill: none; stroke: #0000ff; stroke-width: 0.5; stroke-linecap: square"/>
   </g>
   <g id="line2d_11">
    <path d="M 58.217143 43.766873 
L 58.217143 43.766873 
L 59.904506 43.742965 
L 61.591889 43.719809 
L 63.279293 43.697404 
L 64.966716 43.675751 
L 66.654158 43.654849 
L 68.341618 43.634699 
L 70.029096 43.6153 
L 71.71659 43.596653 
L 73.404101 43.578757 
L 75.091627 43.561613 
L 76.779168 43.545221 
L 78.466723 43.52958 
L 80.154292 43.51469 
L 81.841873 43.500553 
L 83.529467 43.487167 
L 85.217072 43.474533 
L 86.904688 43.462651 
L 88.592314 43.45152 
L 90.27995 43.441141 
L 91.967595 43.431514 
L 93.655247 43.422639 
L 95.342908 43.414515 
L 97.030575 43.407143 
L 98.718248 43.400524 
L 100.405927 43.394656 
L 102.093611 43.389539 
L 103.781299 43.385175 
L 105.46899 43.381563 
L 107.156685 43.378702 
L 108.844381 43.376593 
L 110.532079 43.375236 
L 112.219778 43.374631 
L 113.907477 43.374778 
L 115.595176 43.375677 
L 117.282874 43.377328 
L 118.970569 43.37973 
L 120.658263 43.382884 
L 122.345953 43.386791 
L 124.033639 43.391449 
L 125.721321 43.396858 
L 127.408998 43.40302 
L 129.096669 43.409934 
L 130.784333 43.417599 
L 132.471991 43.426016 
L 134.159641 43.435185 
L 135.847282 43.445106 
L 137.534914 43.455779 
L 139.222536 43.467203 
L 140.910148 43.479379 
L 142.597749 43.492307 
L 144.285338 43.505986 
L 145.972914 43.520418 
L 147.660478 43.5356 
L 149.348028 43.551535 
L 151.035563 43.568221 
L 152.723083 43.585659 
L 154.410587 43.603848 
L 156.098075 43.622789 
L 157.785546 43.642481 
L 159.472999 43.662925 
L 161.160434 43.684121 
L 162.84785 43.706067 
L 164.535246 43.728766 
L 166.222621 43.752215 
L 167.909975 43.776416 
L 169.597308 43.801369 
L 171.284618 43.827072 
L 172.971905 43.853527 
L 174.659169 43.880733 
L 176.346408 43.90869 
L 178.033622 43.937399 
L 179.72081 43.966858 
L 181.407972 43.997068 
L 183.095107 44.02803 
L 184.782214 44.059742 
L 186.469292 44.092206 
L 188.156342 44.12542 
L 189.843362 44.159385 
L 191.530351 44.194101 
L 193.21731 44.229568 
L 194.904237 44.265785 
L 196.591131 44.302753 
L 198.277993 44.340472 
L 199.96482 44.378941 
L 201.651614 44.418161 
L 203.338372 44.458131 
L 205.025095 44.498851 
L 206.711781 44.540322 
L 208.39843 44.582543 
L 210.085042 44.625514 
L 211.771615 44.669236 
L 213.45815 44.713707 
L 215.144645 44.758929 
L 216.831099 44.8049 
L 218.517512 44.851621 
L 220.203884 44.899093 
L 221.890214 44.947314 
L 223.5765 44.996284 
L 225.262743 45.046005 
L 226.948942 45.096475 
L 228.635096 45.147694 
L 228.635096 45.147694 
" clip-path="url(#p589473bf94)" style="fill: none; stroke: #0000ff; stroke-width: 0.5; stroke-linecap: square"/>
   </g>
   <g id="line2d_12">
    <path d="M 228.635096 45.147694 
L 228.635096 45.147694 
L 229.388424 45.428983 
L 230.141641 45.710401 
L 230.894746 45.991948 
L 231.647741 46.273624 
L 232.400625 46.555429 
L 233.153397 46.837363 
L 233.906058 47.119425 
L 234.658608 47.401616 
L 235.411047 47.683936 
L 236.163374 47.966384 
L 236.91559 48.24896 
L 237.667695 48.531665 
L 238.419688 48.814499 
L 239.17157 49.09746 
L 239.923341 49.38055 
L 240.675 49.663768 
L 241.426547 49.947113 
L 242.177984 50.230587 
L 242.929308 50.514189 
L 243.680521 50.797918 
L 244.431623 51.081775 
L 245.182613 51.36576 
L 245.933491 51.649872 
L 246.684258 51.934112 
L 247.434913 52.218479 
L 248.185456 52.502974 
L 248.935888 52.787595 
L 249.686208 53.072345 
L 250.436416 53.357221 
L 251.186512 53.642224 
L 251.936496 53.927354 
L 252.686369 54.212611 
L 253.43613 54.497995 
L 254.185779 54.783506 
L 254.935316 55.069144 
L 255.684741 55.354908 
L 256.434054 55.640799 
L 257.183255 55.926816 
L 257.932344 56.212959 
L 258.681321 56.499229 
L 259.430186 56.785626 
L 260.178939 57.072148 
L 260.92758 57.358797 
L 261.676108 57.645571 
L 262.424525 57.932472 
L 263.172829 58.219498 
L 263.921021 58.506651 
L 264.669101 58.793929 
L 265.417069 59.081332 
L 266.164924 59.368862 
L 266.912667 59.656517 
L 267.660298 59.944297 
L 268.407816 60.232203 
L 269.155222 60.520234 
L 269.902516 60.80839 
L 270.649697 61.096672 
L 271.396766 61.385079 
L 272.143722 61.67361 
L 272.890566 61.962267 
L 273.637298 62.251049 
L 274.383916 62.539955 
L 275.130423 62.828986 
L 275.876816 63.118142 
L 276.623098 63.407422 
L 277.369266 63.696827 
L 278.115322 63.986357 
L 278.861265 64.276011 
L 279.607096 64.565789 
L 280.352813 64.855691 
L 281.098418 65.145718 
L 281.843911 65.435868 
L 282.58929 65.726143 
L 283.334557 66.016542 
L 284.079711 66.307064 
L 284.824752 66.59771 
L 285.56968 66.888481 
L 286.314495 67.179374 
L 287.059198 67.470392 
L 287.803787 67.761532 
L 288.548263 68.052797 
L 289.292627 68.344184 
L 290.036877 68.635695 
L 290.781015 68.927329 
L 291.525039 69.219087 
L 292.268951 69.510967 
L 293.012749 69.802971 
L 293.756434 70.095097 
L 294.500006 70.387346 
L 295.243465 70.679718 
L 295.986811 70.972213 
L 296.730043 71.26483 
L 297.473163 71.55757 
L 298.216169 71.850433 
L 298.959062 72.143418 
L 299.701841 72.436525 
L 300.444508 72.729755 
L 301.187061 73.023107 
L 301.9295 73.316581 
L 302.671826 73.610177 
L 303.414039 73.903895 
L 304.156139 74.197735 
L 304.156139 74.197735 
" clip-path="url(#p589473bf94)" style="fill: none; stroke: #0000ff; stroke-width: 0.5; stroke-linecap: square"/>
   </g>
   <g id="line2d_13">
    <path d="M 304.156139 74.197735 
L 304.156139 74.197735 
L 303.971668 74.364804 
L 303.787214 74.531875 
L 303.602775 74.698947 
L 303.418353 74.866021 
L 303.233946 75.033097 
L 303.049556 75.200174 
L 302.865182 75.367254 
L 302.680823 75.534335 
L 302.496481 75.701417 
L 302.312155 75.868501 
L 302.127844 76.035587 
L 301.94355 76.202675 
L 301.759272 76.369764 
L 301.575009 76.536855 
L 301.390763 76.703948 
L 301.206533 76.871042 
L 301.022318 77.038138 
L 300.83812 77.205236 
L 300.653938 77.372335 
L 300.469771 77.539436 
L 300.285621 77.706539 
L 300.101487 77.873643 
L 299.917368 78.04075 
L 299.733266 78.207857 
L 299.549179 78.374967 
L 299.365109 78.542078 
L 299.181054 78.70919 
L 298.997016 78.876305 
L 298.812993 79.043421 
L 298.628987 79.210538 
L 298.444996 79.377657 
L 298.261022 79.544778 
L 298.077063 79.711901 
L 297.89312 79.879025 
L 297.709194 80.046151 
L 297.525283 80.213278 
L 297.341388 80.380408 
L 297.157509 80.547538 
L 296.973647 80.714671 
L 296.7898 80.881805 
L 296.605969 81.04894 
L 296.422154 81.216078 
L 296.238355 81.383217 
L 296.054571 81.550357 
L 295.870804 81.717499 
L 295.687053 81.884643 
L 295.503318 82.051789 
L 295.319598 82.218936 
L 295.135895 82.386084 
L 294.952207 82.553235 
L 294.768536 82.720387 
L 294.58488 82.88754 
L 294.40124 83.054695 
L 294.217617 83.221852 
L 294.034009 83.38901 
L 293.850417 83.55617 
L 293.666841 83.723332 
L 293.483281 83.890495 
L 293.299737 84.05766 
L 293.116208 84.224826 
L 292.932696 84.391994 
L 292.749199 84.559163 
L 292.565719 84.726335 
L 292.382254 84.893507 
L 292.198806 85.060682 
L 292.015373 85.227858 
L 291.831956 85.395035 
L 291.648555 85.562214 
L 291.46517 85.729395 
L 291.2818 85.896577 
L 291.098447 86.063761 
L 290.91511 86.230946 
L 290.731788 86.398133 
L 290.548482 86.565322 
L 290.365192 86.732512 
L 290.181919 86.899704 
L 289.99866 87.066897 
L 289.815418 87.234092 
L 289.632192 87.401288 
L 289.448982 87.568486 
L 289.265787 87.735686 
L 289.082608 87.902887 
L 288.899446 88.070089 
L 288.716299 88.237294 
L 288.533168 88.404499 
L 288.350052 88.571707 
L 288.166953 88.738916 
L 287.98387 88.906126 
L 287.800802 89.073338 
L 287.61775 89.240552 
L 287.434714 89.407767 
L 287.251694 89.574983 
L 287.06869 89.742201 
L 286.885702 89.909421 
L 286.702729 90.076642 
L 286.519772 90.243865 
L 286.336831 90.411089 
L 286.153906 90.578315 
L 285.970997 90.745543 
L 285.788104 90.912772 
L 285.605226 91.080002 
L 285.605226 91.080002 
" clip-path="url(#p589473bf94)" style="fill: none; stroke: #0000ff; stroke-width: 0.5; stroke-linecap: square"/>
   </g>
   <g id="line2d_14">
    <path d="M 285.605226 91.080002 
L 285.605226 91.080002 
L 285.545913 91.233761 
L 285.486604 91.387514 
L 285.4273 91.541262 
L 285.368 91.695005 
L 285.308705 91.848743 
L 285.249415 92.002476 
L 285.19013 92.156204 
L 285.130849 92.309926 
L 285.071573 92.463644 
L 285.012302 92.617356 
L 284.953035 92.771063 
L 284.893774 92.924765 
L 284.834517 93.078461 
L 284.775264 93.232153 
L 284.716017 93.385839 
L 284.656774 93.53952 
L 284.597535 93.693197 
L 284.538302 93.846867 
L 284.479073 94.000533 
L 284.419849 94.154194 
L 284.360629 94.307849 
L 284.301415 94.4615 
L 284.242205 94.615145 
L 284.182999 94.768785 
L 284.123799 94.92242 
L 284.064603 95.07605 
L 284.005412 95.229674 
L 283.946225 95.383294 
L 283.887044 95.536908 
L 283.827867 95.690517 
L 283.768694 95.844121 
L 283.709526 95.99772 
L 283.650363 96.151314 
L 283.591205 96.304902 
L 283.532052 96.458486 
L 283.472903 96.612064 
L 283.413758 96.765637 
L 283.354619 96.919205 
L 283.295484 97.072768 
L 283.236354 97.226326 
L 283.177229 97.379878 
L 283.118108 97.533426 
L 283.058992 97.686968 
L 282.999881 97.840505 
L 282.940774 97.994037 
L 282.881672 98.147564 
L 282.822575 98.301086 
L 282.763482 98.454602 
L 282.704394 98.608114 
L 282.645311 98.76162 
L 282.586232 98.915121 
L 282.527158 99.068617 
L 282.468089 99.222108 
L 282.409025 99.375594 
L 282.349965 99.529075 
L 282.29091 99.68255 
L 282.231859 99.83602 
L 282.172814 99.989486 
L 282.113773 100.142946 
L 282.054736 100.296401 
L 281.995704 100.449851 
L 281.936677 100.603295 
L 281.877655 100.756735 
L 281.818637 100.910169 
L 281.759624 101.063599 
L 281.700616 101.217023 
L 281.641612 101.370442 
L 281.582613 101.523856 
L 281.523619 101.677265 
L 281.464629 101.830669 
L 281.405644 101.984067 
L 281.346664 102.137461 
L 281.287688 102.290849 
L 281.228717 102.444232 
L 281.169751 102.59761 
L 281.110789 102.750983 
L 281.051832 102.904351 
L 280.99288 103.057714 
L 280.933932 103.211071 
L 280.874989 103.364424 
L 280.816051 103.517771 
L 280.757117 103.671113 
L 280.698188 103.82445 
L 280.639264 103.977782 
L 280.580344 104.131109 
L 280.521429 104.284431 
L 280.462519 104.437747 
L 280.403613 104.591059 
L 280.344712 104.744365 
L 280.285816 104.897666 
L 280.226924 105.050963 
L 280.168037 105.204254 
L 280.109154 105.35754 
L 280.050277 105.51082 
L 279.991404 105.664096 
L 279.932535 105.817367 
L 279.873671 105.970632 
L 279.814812 106.123892 
L 279.755958 106.277148 
L 279.697108 106.430398 
L 279.638263 106.583643 
L 279.638263 106.583643 
" clip-path="url(#p589473bf94)" style="fill: none; stroke: #0000ff; stroke-width: 0.5; stroke-linecap: square"/>
   </g>
   <g id="line2d_15">
    <path d="M 279.638263 106.583643 
L 279.638263 106.583643 
L 279.686652 106.744865 
L 279.735038 106.906081 
L 279.78342 107.067292 
L 279.831798 107.228496 
L 279.880172 107.389694 
L 279.928541 107.550887 
L 279.976907 107.712073 
L 280.025269 107.873253 
L 280.073627 108.034427 
L 280.12198 108.195595 
L 280.17033 108.356757 
L 280.218676 108.517913 
L 280.267017 108.679063 
L 280.315355 108.840207 
L 280.363689 109.001345 
L 280.412018 109.162476 
L 280.460344 109.323602 
L 280.508666 109.484722 
L 280.556983 109.645836 
L 280.605297 109.806943 
L 280.653606 109.968045 
L 280.701912 110.129141 
L 280.750214 110.29023 
L 280.798511 110.451314 
L 280.846805 110.612391 
L 280.895094 110.773463 
L 280.94338 110.934528 
L 280.991661 111.095588 
L 281.039939 111.256641 
L 281.088212 111.417689 
L 281.136482 111.57873 
L 281.184747 111.739765 
L 281.233009 111.900795 
L 281.281266 112.061818 
L 281.32952 112.222835 
L 281.37777 112.383847 
L 281.426015 112.544852 
L 281.474257 112.705851 
L 281.522494 112.866844 
L 281.570728 113.027832 
L 281.618957 113.188813 
L 281.667183 113.349788 
L 281.715404 113.510757 
L 281.763622 113.67172 
L 281.811835 113.832677 
L 281.860045 113.993628 
L 281.908251 114.154573 
L 281.956452 114.315513 
L 282.00465 114.476446 
L 282.052844 114.637373 
L 282.101033 114.798294 
L 282.149219 114.959209 
L 282.1974 115.120118 
L 282.245578 115.281021 
L 282.293752 115.441918 
L 282.341922 115.602809 
L 282.390087 115.763694 
L 282.438249 115.924573 
L 282.486407 116.085446 
L 282.534561 116.246313 
L 282.58271 116.407174 
L 282.630856 116.568028 
L 282.678998 116.728877 
L 282.727136 116.88972 
L 282.77527 117.050557 
L 282.8234 117.211388 
L 282.871525 117.372213 
L 282.919647 117.533032 
L 282.967765 117.693845 
L 283.015879 117.854652 
L 283.063989 118.015453 
L 283.112095 118.176248 
L 283.160197 118.337037 
L 283.208295 118.49782 
L 283.25639 118.658597 
L 283.30448 118.819368 
L 283.352566 118.980133 
L 283.400648 119.140892 
L 283.448726 119.301645 
L 283.496801 119.462392 
L 283.544871 119.623133 
L 283.592937 119.783868 
L 283.641 119.944597 
L 283.689058 120.10532 
L 283.737112 120.266037 
L 283.785163 120.426748 
L 283.833209 120.587453 
L 283.881252 120.748152 
L 283.92929 120.908845 
L 283.977325 121.069532 
L 284.025356 121.230213 
L 284.073382 121.390888 
L 284.121405 121.551558 
L 284.169424 121.712221 
L 284.217439 121.872878 
L 284.265449 122.033529 
L 284.313456 122.194174 
L 284.361459 122.354814 
L 284.409458 122.515447 
L 284.457453 122.676074 
L 284.505444 122.836696 
L 284.505444 122.836696 
" clip-path="url(#p589473bf94)" style="fill: none; stroke: #0000ff; stroke-width: 0.5; stroke-linecap: square"/>
   </g>
   <g id="line2d_16">
    <path d="M 284.505444 122.836696 
L 284.505444 122.836696 
L 284.319436 123.040246 
L 284.133447 123.243796 
L 283.947478 123.447343 
L 283.761528 123.650889 
L 283.575598 123.854434 
L 283.389687 124.057977 
L 283.203795 124.261518 
L 283.017923 124.465057 
L 282.832071 124.668595 
L 282.646237 124.872132 
L 282.460423 125.075666 
L 282.274629 125.279199 
L 282.088853 125.482731 
L 281.903098 125.68626 
L 281.717361 125.889789 
L 281.531644 126.093315 
L 281.345947 126.29684 
L 281.160268 126.500363 
L 280.974609 126.703885 
L 280.78897 126.907405 
L 280.60335 127.110923 
L 280.417749 127.314439 
L 280.232167 127.517954 
L 280.046605 127.721468 
L 279.861062 127.924979 
L 279.675539 128.128489 
L 279.490035 128.331998 
L 279.30455 128.535504 
L 279.119085 128.739009 
L 278.933639 128.942513 
L 278.748212 129.146015 
L 278.562805 129.349515 
L 278.377416 129.553013 
L 278.192048 129.75651 
L 278.006698 129.960005 
L 277.821368 130.163498 
L 277.636057 130.36699 
L 277.450766 130.57048 
L 277.265494 130.773968 
L 277.080241 130.977455 
L 276.895007 131.18094 
L 276.709793 131.384423 
L 276.524598 131.587905 
L 276.339422 131.791385 
L 276.154265 131.994863 
L 275.969128 132.19834 
L 275.78401 132.401815 
L 275.598912 132.605288 
L 275.413832 132.808759 
L 275.228772 133.012229 
L 275.043731 133.215697 
L 274.85871 133.419164 
L 274.673708 133.622628 
L 274.488725 133.826091 
L 274.303761 134.029553 
L 274.118816 134.233012 
L 273.933891 134.43647 
L 273.748985 134.639927 
L 273.564098 134.843381 
L 273.37923 135.046834 
L 273.194382 135.250285 
L 273.009553 135.453734 
L 272.824743 135.657182 
L 272.639952 135.860628 
L 272.455181 136.064072 
L 272.270429 136.267515 
L 272.085695 136.470956 
L 271.900982 136.674395 
L 271.716287 136.877832 
L 271.531612 137.081268 
L 271.346955 137.284702 
L 271.162318 137.488134 
L 270.9777 137.691564 
L 270.793102 137.894993 
L 270.608522 138.09842 
L 270.423962 138.301845 
L 270.239421 138.505269 
L 270.054899 138.708691 
L 269.870396 138.912111 
L 269.685913 139.115529 
L 269.501448 139.318946 
L 269.317003 139.522361 
L 269.132577 139.725774 
L 268.94817 139.929185 
L 268.763782 140.132595 
L 268.579414 140.336003 
L 268.395064 140.539409 
L 268.210734 140.742813 
L 268.026422 140.946216 
L 267.84213 141.149617 
L 267.657857 141.353016 
L 267.473604 141.556413 
L 267.289369 141.759809 
L 267.105153 141.963202 
L 266.920957 142.166595 
L 266.73678 142.369985 
L 266.552621 142.573373 
L 266.368482 142.77676 
L 266.184362 142.980145 
L 266.000261 143.183528 
L 265.81618 143.38691 
L 265.81618 143.38691 
" clip-path="url(#p589473bf94)" style="fill: none; stroke: #0000ff; stroke-width: 0.5; stroke-linecap: square"/>
   </g>
   <g id="patch_3">
    <path d="M 7.2 253.58337 
L 7.2 7.2 
" style="fill: none; stroke: #000000; stroke-width: 0.8; stroke-linejoin: miter; stroke-linecap: square"/>
   </g>
   <g id="patch_4">
    <path d="M 364.32 253.58337 
L 364.32 7.2 
" style="fill: none; stroke: #000000; stroke-width: 0.8; stroke-linejoin: miter; stroke-linecap: square"/>
   </g>
   <g id="patch_5">
    <path d="M 7.2 253.58337 
L 364.32 253.58337 
" style="fill: none; stroke: #000000; stroke-width: 0.8; stroke-linejoin: miter; stroke-linecap: square"/>
   </g>
   <g id="patch_6">
    <path d="M 7.2 7.2 
L 364.32 7.2 
" style="fill: none; stroke: #000000; stroke-width: 0.8; stroke-linejoin: miter; stroke-linecap: square"/>
   </g>
   <g id="PathCollection_1">
    <defs>
     <path id="mcdf31f350e" d="M 0 0.5 
C 0.132602 0.5 0.25979 0.447317 0.353553 0.353553 
C 0.447317 0.25979 0.5 0.132602 0.5 0 
C 0.5 -0.132602 0.447317 -0.25979 0.353553 -0.353553 
C 0.25979 -0.447317 0.132602 -0.5 0 -0.5 
C -0.132602 -0.5 -0.25979 -0.447317 -0.353553 -0.353553 
C -0.447317 -0.25979 -0.5 -0.132602 -0.5 0 
C -0.5 0.132602 -0.447317 0.25979 -0.353553 0.353553 
C -0.25979 0.447317 -0.132602 0.5 0 0.5 
z
" style="stroke: #ff0000"/>
    </defs>
    <g clip-path="url(#p589473bf94)">
     <use xlink:href="#mcdf31f350e" x="309.472613" y="170.356933" style="fill: #ff0000; stroke: #ff0000"/>
     <use xlink:href="#mcdf31f350e" x="253.778605" y="219.318185" style="fill: #ff0000; stroke: #ff0000"/>
     <use xlink:href="#mcdf31f350e" x="257.309164" y="193.141527" style="fill: #ff0000; stroke: #ff0000"/>
     <use xlink:href="#mcdf31f350e" x="294.229959" y="172.103171" style="fill: #ff0000; stroke: #ff0000"/>
     <use xlink:href="#mcdf31f350e" x="313.302857" y="199.303447" style="fill: #ff0000; stroke: #ff0000"/>
     <use xlink:href="#mcdf31f350e" x="239.369815" y="168.165021" style="fill: #ff0000; stroke: #ff0000"/>
     <use xlink:href="#mcdf31f350e" x="198.554056" y="113.246455" style="fill: #ff0000; stroke: #ff0000"/>
     <use xlink:href="#mcdf31f350e" x="58.217143" y="43.766873" style="fill: #ff0000; stroke: #ff0000"/>
     <use xlink:href="#mcdf31f350e" x="141.01035" y="54.930337" style="fill: #ff0000; stroke: #ff0000"/>
     <use xlink:href="#mcdf31f350e" x="228.635096" y="45.147694" style="fill: #ff0000; stroke: #ff0000"/>
     <use xlink:href="#mcdf31f350e" x="304.156139" y="74.197735" style="fill: #ff0000; stroke: #ff0000"/>
     <use xlink:href="#mcdf31f350e" x="285.605226" y="91.080002" style="fill: #ff0000; stroke: #ff0000"/>
     <use xlink:href="#mcdf31f350e" x="279.638263" y="106.583643" style="fill: #ff0000; stroke: #ff0000"/>
     <use xlink:href="#mcdf31f350e" x="284.505444" y="122.836696" style="fill: #ff0000; stroke: #ff0000"/>
     <use xlink:href="#mcdf31f350e" x="265.81618" y="143.38691" style="fill: #ff0000; stroke: #ff0000"/>
    </g>
   </g>
   <g id="PathCollection_2"/>
  </g>
 </g>
 <defs>
  <clipPath id="p589473bf94">
   <rect x="7.2" y="7.2" width="357.12" height="246.38337"/>
  </clipPath>
 </defs>
</svg>
