<?xml version="1.0" encoding="utf-8" standalone="no"?>
<!DOCTYPE svg PUBLIC "-//W3C//DTD SVG 1.1//EN"
  "http://www.w3.org/Graphics/SVG/1.1/DTD/svg11.dtd">
<svg xmlns:xlink="http://www.w3.org/1999/xlink" width="371.52pt" height="175.758526pt" viewBox="0 0 371.52 175.758526" xmlns="http://www.w3.org/2000/svg" version="1.1">
 <metadata>
  <rdf:RDF xmlns:dc="http://purl.org/dc/elements/1.1/" xmlns:cc="http://creativecommons.org/ns#" xmlns:rdf="http://www.w3.org/1999/02/22-rdf-syntax-ns#">
   <cc:Work>
    <dc:type rdf:resource="http://purl.org/dc/dcmitype/StillImage"/>
    <dc:date>2025-04-17T08:30:02.137814</dc:date>
    <dc:format>image/svg+xml</dc:format>
    <dc:creator>
     <cc:Agent>
      <dc:title>Matplotlib v3.8.4, https://matplotlib.org/</dc:title>
     </cc:Agent>
    </dc:creator>
   </cc:Work>
  </rdf:RDF>
 </metadata>
 <defs>
  <style type="text/css">*{stroke-linejoin: round; stroke-linecap: butt}</style>
 </defs>
 <g id="figure_1">
  <g id="patch_1">
   <path d="M 0 175.758526 
L 371.52 175.758526 
L 371.52 0 
L 0 0 
z
" style="fill: #ffffff"/>
  </g>
  <g id="axes_1">
   <g id="patch_2">
    <path d="M 7.2 168.558526 
L 364.32 168.558526 
L 364.32 7.2 
L 7.2 7.2 
z
" style="fill: #ffffff"/>
   </g>
   <g id="matplotlib.axis_1"/>
   <g id="matplotlib.axis_2"/>
   <g id="LineCollection_1">
    <path d="M 340.465203 50.75455 
L 350.810801 56.033316 
L 349.444824 63.031159 
L 353.134629 63.93454 
L 352.841162 57.957428 
L 357.058467 57.764788 
L 356.851036 65.302738 
L 360.068567 65.621709 
L 357.616778 66.15036 
L 357.43797 69.263878 
L 364.32 70.598894 
" clip-path="url(#pec56f7eef8)" style="fill: none; stroke: #000000; stroke-width: 0.2"/>
    <path d="M 364.32 74.846621 
L 356.899527 70.191437 
L 352.638109 72.344313 
L 356.2375 66.314279 
L 348.127337 63.031159 
L 349.738291 56.803272 
L 344.982542 53.272047 
L 338.686386 51.949414 
L 329.872272 57.050621 
L 327.694083 52.959834 
L 323.342251 56.207524 
L 322.349211 54.364342 
L 327.658894 51.379731 
L 330.06657 55.676032 
L 340.434224 50.75455 
L 340.465203 50.75455 
" clip-path="url(#pec56f7eef8)" style="fill: none; stroke: #000000; stroke-width: 0.2"/>
    <path d="M 227.044651 69.982193 
L 231.893507 70.75462 
L 233.039932 74.40408 
L 237.527132 68.199339 
L 235.896479 67.088613 
L 242.130844 68.836143 
L 244.644255 65.284459 
L 247.536833 66.928771 
L 253.716815 66.906507 
L 252.306894 64.646079 
L 257.192455 64.618776 
L 261.422388 61.478453 
L 262.096705 59.064562 
L 259.993946 58.387395 
L 266.295826 56.079135 
L 266.412169 61.533411 
L 269.342462 62.620419 
L 269.771635 70.900129 
L 267.417669 73.315565 
L 268.839713 68.290325 
L 263.880574 59.842192 
L 262.023128 66.387098 
L 260.33725 64.062338 
L 257.682914 67.270699 
L 255.574261 65.721845 
L 254.857009 69.963964 
L 254.826366 67.379992 
L 251.393492 69.627569 
L 251.810205 68.008101 
L 243.724624 66.952035 
L 242.670298 69.372794 
L 237.815211 69.082004 
L 231.21919 78.181491 
L 231.62378 71.37251 
L 226.400976 70.02764 
L 227.044651 69.982193 
" clip-path="url(#pec56f7eef8)" style="fill: none; stroke: #000000; stroke-width: 0.2"/>
   </g>
   <g id="LineCollection_2">
    <path d="M 7.2 23.652622 
L 364.32 23.652622 
L 364.32 23.652622 
" clip-path="url(#pec56f7eef8)" style="fill: none; stroke: #000000; stroke-width: 0.2"/>
   </g>
   <g id="LineCollection_3">
    <path d="M 84.813479 7.2 
L 84.813479 10.472886 
L 89.423252 16.864727 
L 94.131185 18.655666 
L 96.246067 23.708824 
" clip-path="url(#pec56f7eef8)" style="fill: none; stroke: #000000; stroke-width: 0.2"/>
    <path d="M 84.813479 7.2 
L 84.813479 10.472886 
L 89.306741 16.761652 
L 94.131185 18.655666 
L 96.240005 23.736797 
" clip-path="url(#pec56f7eef8)" style="fill: none; stroke: #000000; stroke-width: 0.2"/>
    <path d="M 162.618377 168.558526 
L 162.616932 153.164286 
L 318.107661 153.094994 
L 317.482339 23.409828 
L 317.482339 23.409828 
" clip-path="url(#pec56f7eef8)" style="fill: none; stroke: #000000; stroke-width: 0.2"/>
    <path d="M 162.624607 168.558526 
L 162.623161 153.164286 
L 318.107661 153.094994 
L 317.482339 23.400587 
L 317.482339 23.400587 
" clip-path="url(#pec56f7eef8)" style="fill: none; stroke: #000000; stroke-width: 0.2"/>
    <path d="M 52.329893 23.662118 
L 52.328714 25.67933 
L 52.327704 27.693862 
L 52.326525 29.705979 
L 52.325515 31.715689 
L 52.324337 33.723 
L 52.323326 35.728175 
L 52.322148 37.730712 
L 52.321138 39.731127 
L 52.319959 41.72892 
L 52.318949 43.724353 
L 52.31777 45.717435 
L 52.31676 47.708424 
L 52.315581 49.696824 
L 52.314571 51.683148 
L 52.313393 53.666897 
L 52.312382 55.648333 
L 52.311541 57.169628 
L 53.311147 58.466839 
L 54.310585 59.763063 
L 55.310191 61.058302 
L 56.309629 62.352557 
L 57.309236 63.645831 
L 58.308674 64.938126 
L 59.30828 66.229443 
L 59.557298 66.551245 
L 59.189412 71.536179 
L 61.457678 73.869003 
L 59.465368 75.410261 
L 60.674931 76.20662 
L 61.884493 77.002611 
L 63.094055 77.797984 
L 64.303618 78.592989 
L 65.51318 79.387876 
L 66.722743 80.182395 
L 67.932305 80.976299 
L 68.439769 81.309238 
L 69.386171 82.673068 
L 70.332741 84.03582 
L 71.279143 85.397249 
L 72.225545 86.757851 
L 73.171946 88.117381 
L 74.118516 89.475843 
L 75.064918 90.833238 
L 76.01132 92.189568 
L 76.957722 93.544837 
L 77.904292 94.899046 
L 78.850694 96.252198 
L 79.797095 97.604296 
L 80.651063 98.823231 
L 82.759884 97.651477 
L 84.813479 101.083929 
L 90.361236 100.288897 
L 89.920783 102.107786 
L 89.480161 103.92453 
L 89.039708 105.739381 
L 88.599086 107.552345 
L 88.158633 109.363426 
L 87.71818 111.172875 
L 87.277559 112.980454 
L 86.837106 114.785923 
L 86.396652 116.589533 
L 86.394969 116.596097 
L 89.10453 125.08937 
L 85.285418 128.670308 
L 85.426342 135.373046 
L 90.759597 138.190214 
L 91.836989 137.092284 
L 92.914382 135.993674 
L 93.991775 134.894141 
L 95.069336 133.793925 
L 96.146729 132.693265 
L 97.224122 131.59192 
L 97.735795 131.068354 
L 101.983912 134.120307 
L 102.330246 135.946311 
L 102.676581 137.770434 
L 103.022916 139.592442 
L 103.369251 141.412582 
L 103.715586 143.231098 
L 103.743198 143.375953 
L 104.665692 144.725771 
L 105.588354 146.075043 
L 106.510847 147.423056 
L 107.433509 148.77005 
L 108.356002 150.116266 
L 109.278664 151.46099 
L 109.977563 152.479351 
L 110.008206 157.450361 
L 111.279055 157.974535 
L 112.550072 158.498557 
L 113.820921 159.022188 
L 115.091938 159.545904 
L 116.362787 160.069467 
L 116.487716 160.1207 
L 117.038283 161.816497 
L 117.588849 163.510458 
L 118.139247 165.203062 
L 118.689814 166.89384 
L 119.232388 168.558526 
" clip-path="url(#pec56f7eef8)" style="fill: none; stroke: #000000; stroke-width: 0.2"/>
    <path d="M 134.593586 168.558526 
L 136.404583 166.465622 
L 137.728131 166.522346 
L 139.051511 166.579067 
L 140.375059 166.635787 
L 141.698607 166.692742 
L 143.021987 166.749458 
L 144.345535 166.806409 
L 145.669083 166.863122 
L 146.992463 166.919833 
L 148.316011 166.976542 
L 149.639391 167.033486 
L 150.962939 167.090428 
L 152.286487 167.147131 
L 153.609867 167.203833 
L 153.648592 167.205487 
L 152.790416 164.235446 
L 155.72677 160.690806 
L 156.741529 161.888295 
L 157.75612 163.085223 
L 158.77088 164.281355 
L 159.785471 165.476456 
L 160.800231 166.670764 
L 161.81499 167.864517 
L 162.40517 168.558526 
" clip-path="url(#pec56f7eef8)" style="fill: none; stroke: #000000; stroke-width: 0.2"/>
    <path d="M 52.329893 23.662118 
L 52.328714 25.67933 
L 52.327704 27.693862 
L 52.326525 29.705979 
L 52.325515 31.715689 
L 52.324337 33.723 
L 52.323326 35.728175 
L 52.322148 37.730712 
L 52.321138 39.731127 
L 52.319959 41.72892 
L 52.318949 43.724353 
L 52.31777 45.717435 
L 52.31676 47.708424 
L 52.315581 49.696824 
L 52.314571 51.683148 
L 52.313393 53.666897 
L 52.312382 55.648333 
L 52.311541 57.169628 
L 53.311147 58.466839 
L 54.310585 59.763063 
L 55.310191 61.058302 
L 56.309629 62.352557 
L 57.309236 63.645831 
L 58.308674 64.938126 
L 59.30828 66.229443 
L 59.557298 66.551245 
L 59.189412 71.536179 
L 61.457678 73.869003 
L 59.465368 75.410261 
L 60.674931 76.20662 
L 61.884493 77.002611 
L 63.094055 77.797984 
L 64.303618 78.592989 
L 65.51318 79.387876 
L 66.722743 80.182395 
L 67.932305 80.976299 
L 68.439769 81.309238 
L 69.386171 82.673068 
L 70.332741 84.03582 
L 71.279143 85.397249 
L 72.225545 86.757851 
L 73.171946 88.117381 
L 74.118516 89.475843 
L 75.064918 90.833238 
L 76.01132 92.189568 
L 76.957722 93.544837 
L 77.904292 94.899046 
L 78.850694 96.252198 
L 79.797095 97.604296 
L 80.651063 98.823231 
L 82.759884 97.651477 
L 84.813479 101.083929 
L 90.361236 100.288897 
L 89.921288 102.107786 
L 89.481508 103.92502 
L 89.04156 105.740359 
L 88.601612 107.553811 
L 88.161664 109.365135 
L 87.721884 111.174826 
L 87.281936 112.982402 
L 86.841988 114.788356 
L 86.40204 116.59245 
L 86.401198 116.596097 
L 89.10453 125.08937 
L 85.291479 128.670308 
L 85.426342 135.373046 
L 90.759597 138.190214 
L 91.836989 137.092284 
L 92.914382 135.993674 
L 93.991775 134.894141 
L 95.069336 133.793925 
L 96.146729 132.693265 
L 97.224122 131.59192 
L 97.735795 131.068354 
L 101.983912 134.120307 
L 102.330583 135.94607 
L 102.677255 137.769953 
L 103.023926 139.591962 
L 103.37043 141.412102 
L 103.717101 143.23038 
L 103.743198 143.367095 
L 104.665355 144.717876 
L 105.587512 146.067394 
L 106.5095 147.416128 
L 107.431657 148.763844 
L 108.353813 150.110541 
L 109.27597 151.456224 
L 109.977563 152.479351 
L 110.014436 157.450361 
L 111.285285 157.97501 
L 112.556134 158.499507 
L 113.826814 159.023612 
L 115.097663 159.547802 
L 116.368511 160.071838 
L 116.487716 160.1207 
L 117.038283 161.816497 
L 117.588849 163.510458 
L 118.139247 165.203062 
L 118.689814 166.89384 
L 119.232388 168.558526 
" clip-path="url(#pec56f7eef8)" style="fill: none; stroke: #000000; stroke-width: 0.2"/>
    <path d="M 134.589887 168.558526 
L 136.404583 166.457114 
L 137.728131 166.51431 
L 139.051511 166.571977 
L 140.375059 166.629406 
L 141.698439 166.686834 
L 143.021987 166.744259 
L 144.345367 166.801683 
L 145.668915 166.859105 
L 146.992295 166.916525 
L 148.315843 166.974179 
L 149.639391 167.031359 
L 150.962771 167.08901 
L 152.286319 167.146423 
L 153.609699 167.203833 
L 153.648592 167.205487 
L 152.790416 164.235446 
L 155.72677 160.690806 
L 156.741866 161.887821 
L 157.756962 163.083566 
L 158.772227 164.278989 
L 159.787323 165.473618 
L 160.80242 166.667219 
L 161.817516 167.86003 
L 162.412161 168.558526 
" clip-path="url(#pec56f7eef8)" style="fill: none; stroke: #000000; stroke-width: 0.2"/>
    <path d="M 33.835239 121.633482 
L 32.511186 121.635421 
L 31.186964 121.636875 
L 29.862911 121.638814 
L 28.538858 121.640511 
L 27.214636 121.642208 
L 25.890583 121.644147 
L 24.566529 121.645844 
L 23.242308 121.64754 
L 21.918254 121.649479 
L 20.594201 121.650934 
L 19.270148 121.652873 
L 17.945926 121.654569 
L 16.621873 121.656266 
L 15.29782 121.658205 
L 13.973598 121.659902 
L 12.649545 121.661598 
L 11.325491 121.663537 
L 10.00127 121.664992 
L 8.677216 121.666931 
L 7.353163 121.668627 
L 7.2 121.668823 
" clip-path="url(#pec56f7eef8)" style="fill: none; stroke: #000000; stroke-width: 0.2"/>
    <path d="M 7.2 121.668862 
L 8.517771 121.667173 
L 9.841824 121.665476 
L 11.166046 121.663537 
L 12.490099 121.661841 
L 13.814153 121.660144 
L 15.138374 121.658205 
L 16.462427 121.656751 
L 17.786481 121.654812 
L 19.110702 121.652873 
L 20.434756 121.651418 
L 21.758809 121.649479 
L 23.083031 121.647783 
L 24.407084 121.646086 
L 25.731137 121.644147 
L 27.055191 121.64245 
L 28.379412 121.640754 
L 29.703465 121.638814 
L 31.027519 121.63736 
L 32.35174 121.635421 
L 33.675794 121.633724 
L 33.835239 121.633482 
" clip-path="url(#pec56f7eef8)" style="fill: none; stroke: #000000; stroke-width: 0.2"/>
    <path d="M 27.161365 168.558526 
L 27.492108 168.041634 
L 28.37655 166.658948 
L 29.260824 165.274962 
L 30.145097 163.890386 
L 31.029539 162.504269 
L 31.913813 161.11732 
L 32.798086 159.729299 
L 33.626798 158.427335 
L 34.282764 156.804847 
L 34.938897 155.180889 
L 35.594863 153.555219 
L 36.250828 151.928546 
L 36.906794 150.299914 
L 37.562927 148.670033 
L 38.218893 147.038662 
L 38.874858 145.405557 
L 39.530992 143.771192 
L 40.186957 142.135324 
L 40.842922 140.497709 
L 41.499056 138.858823 
L 42.155022 137.218421 
L 42.810987 135.576259 
L 43.392196 134.120307 
L 41.344662 129.215341 
L 40.168436 128.3434 
L 38.992211 127.471269 
L 37.815986 126.598707 
L 36.63976 125.725471 
L 35.463535 124.851801 
L 34.834509 124.384796 
L 34.292866 122.647077 
L 33.751391 120.907638 
L 33.209748 119.166719 
L 32.668106 117.424072 
L 32.126631 115.679691 
L 31.584988 113.933329 
L 31.043345 112.185466 
L 30.501703 110.435611 
L 30.322726 109.856899 
L 30.325589 107.936893 
L 30.328619 106.014772 
L 30.331482 104.090285 
L 30.334512 102.163914 
L 30.337374 100.235162 
L 30.340405 98.304514 
L 30.343267 96.371717 
L 30.346298 94.436764 
L 30.34916 92.499649 
L 30.352191 90.560117 
L 30.355053 88.618407 
L 30.357916 86.674761 
L 30.360946 84.728924 
L 30.363808 82.780889 
L 30.366839 80.830649 
L 30.369701 78.877949 
L 30.372732 76.923277 
L 30.375594 74.96613 
L 30.378625 73.006998 
L 30.381487 71.045625 
L 30.384518 69.082004 
L 30.38738 67.116127 
L 30.390411 65.147737 
L 30.393273 63.177327 
L 30.396135 61.204387 
L 30.399166 59.229414 
L 30.402028 57.252148 
L 30.405059 55.272582 
L 30.407921 53.290708 
L 30.410952 51.306266 
L 30.413814 49.319501 
L 30.416845 47.330658 
L 30.419707 45.339477 
L 30.422738 43.34595 
L 30.4256 41.35007 
L 30.428462 39.351574 
L 30.431493 37.350963 
L 30.434355 35.34772 
L 30.437386 33.342347 
L 30.440248 31.334581 
L 30.443279 29.324415 
L 30.446141 27.31184 
L 30.449171 25.296592 
L 30.451529 23.643383 
" clip-path="url(#pec56f7eef8)" style="fill: none; stroke: #000000; stroke-width: 0.2"/>
    <path d="M 27.161365 168.558526 
L 27.492108 168.041634 
L 28.37655 166.658948 
L 29.260824 165.274962 
L 30.145097 163.890386 
L 31.029539 162.504269 
L 31.913813 161.11732 
L 32.798086 159.729299 
L 33.626798 158.427335 
L 34.282764 156.804847 
L 34.938897 155.180889 
L 35.594863 153.555219 
L 36.250828 151.928546 
L 36.906794 150.299914 
L 37.562927 148.670033 
L 38.218893 147.038662 
L 38.874858 145.405557 
L 39.530992 143.771192 
L 40.186957 142.135324 
L 40.842922 140.497709 
L 41.499056 138.858823 
L 42.155022 137.218421 
L 42.810987 135.576259 
L 43.392196 134.120307 
L 41.344662 129.215341 
L 40.164227 128.355473 
L 38.983793 127.494944 
L 37.80319 126.634237 
L 36.622755 125.772867 
L 35.442321 124.911318 
L 34.914147 124.525637 
L 34.369642 122.790236 
L 33.825137 121.05288 
L 33.280632 119.313803 
L 32.736127 117.573246 
L 32.191622 115.830716 
L 31.647116 114.086452 
L 31.102443 112.340691 
L 30.557938 110.593187 
L 30.328788 109.856899 
L 30.33165 107.936893 
L 30.334344 106.014772 
L 30.337206 104.090285 
L 30.340068 102.163914 
L 30.342762 100.235162 
L 30.345625 98.304514 
L 30.348318 96.371717 
L 30.351181 94.436764 
L 30.354043 92.499649 
L 30.356737 90.560117 
L 30.359599 88.618407 
L 30.362461 86.674761 
L 30.365155 84.728924 
L 30.368018 82.780889 
L 30.37088 80.830649 
L 30.373574 78.877949 
L 30.376436 76.923277 
L 30.37913 74.96613 
L 30.381992 73.006998 
L 30.384855 71.045625 
L 30.387548 69.082004 
L 30.390411 67.116127 
L 30.393273 65.147737 
L 30.395967 63.177076 
L 30.398829 61.204387 
L 30.401691 59.229414 
L 30.404385 57.252148 
L 30.407248 55.272582 
L 30.409942 53.290456 
L 30.412804 51.306266 
L 30.415666 49.319501 
L 30.41836 47.330658 
L 30.421222 45.339477 
L 30.424084 43.34595 
L 30.426778 41.35007 
L 30.429641 39.351574 
L 30.432503 37.350963 
L 30.435197 35.34772 
L 30.438059 33.342347 
L 30.440753 31.334581 
L 30.443615 29.324415 
L 30.446478 27.31184 
L 30.449171 25.296592 
L 30.451529 23.643383 
" clip-path="url(#pec56f7eef8)" style="fill: none; stroke: #000000; stroke-width: 0.2"/>
    <path d="M 317.439051 168.558526 
L 317.435701 167.326682 
L 317.430481 165.467942 
L 317.425262 163.607282 
L 317.420211 161.744695 
L 317.414991 159.879939 
L 317.40994 158.01348 
L 317.404721 156.144839 
L 317.399502 154.274484 
L 317.396471 153.155714 
" clip-path="url(#pec56f7eef8)" style="fill: none; stroke: #000000; stroke-width: 0.2"/>
    <path d="M 317.439051 168.558526 
L 317.435701 167.326682 
L 317.430481 165.467942 
L 317.425262 163.607282 
L 317.420211 161.744695 
L 317.414991 159.879939 
L 317.40994 158.01348 
L 317.404721 156.144839 
L 317.399502 154.274484 
L 317.396471 153.155714 
" clip-path="url(#pec56f7eef8)" style="fill: none; stroke: #000000; stroke-width: 0.2"/>
    <path d="M 317.98492 123.521114 
L 319.308974 123.521114 
L 320.633195 123.521114 
L 321.957249 123.521114 
L 323.281302 123.521114 
L 324.605524 123.521356 
L 325.929577 123.521599 
L 327.25363 123.521599 
L 328.577852 123.521599 
L 329.901905 123.521599 
L 331.225958 123.521599 
L 332.55018 123.521599 
L 333.874233 123.521841 
L 335.198287 123.522083 
L 336.52234 123.522083 
L 337.846561 123.522083 
L 339.170615 123.522083 
L 340.494668 123.522083 
L 341.81889 123.522325 
L 343.142943 123.522325 
L 344.466996 123.522567 
L 345.791218 123.522567 
L 347.115271 123.522567 
L 348.439325 123.522567 
L 349.763546 123.522567 
L 351.087599 123.522809 
L 352.411653 123.522809 
L 353.735874 123.523051 
L 355.059928 123.523051 
L 356.383981 123.523051 
L 357.708203 123.523051 
L 359.032256 123.523051 
L 360.356309 123.523293 
L 361.680531 123.523293 
L 363.004584 123.523536 
L 364.32 123.523536 
" clip-path="url(#pec56f7eef8)" style="fill: none; stroke: #000000; stroke-width: 0.2"/>
    <path d="M 317.98492 123.521114 
L 319.308974 123.521114 
L 320.633195 123.521114 
L 321.957249 123.521114 
L 323.281302 123.521114 
L 324.605524 123.521356 
L 325.929577 123.521599 
L 327.25363 123.521599 
L 328.577852 123.521599 
L 329.901905 123.521599 
L 331.225958 123.521599 
L 332.55018 123.521599 
L 333.874233 123.521841 
L 335.198287 123.522083 
L 336.52234 123.522083 
L 337.846561 123.522083 
L 339.170615 123.522083 
L 340.494668 123.522083 
L 341.81889 123.522325 
L 343.142943 123.522325 
L 344.466996 123.522567 
L 345.791218 123.522567 
L 347.115271 123.522567 
L 348.439325 123.522567 
L 349.763546 123.522567 
L 351.087599 123.522809 
L 352.411653 123.522809 
L 353.735874 123.523051 
L 355.059928 123.523051 
L 356.383981 123.523051 
L 357.708203 123.523051 
L 359.032256 123.523051 
L 360.356309 123.523293 
L 361.680531 123.523293 
L 363.004584 123.523536 
L 364.32 123.523536 
" clip-path="url(#pec56f7eef8)" style="fill: none; stroke: #000000; stroke-width: 0.2"/>
    <path d="M 185.794936 23.662118 
L 185.794936 21.642474 
L 185.794936 19.620648 
L 185.794936 17.596375 
L 185.794936 15.569646 
L 185.794936 13.540453 
L 185.794936 11.508531 
L 185.794936 9.474386 
L 185.794936 7.437494 
L 185.794936 7.2 
" clip-path="url(#pec56f7eef8)" style="fill: none; stroke: #000000; stroke-width: 0.2"/>
    <path d="M 185.794936 23.662118 
L 185.794936 21.642474 
L 185.794936 19.620648 
L 185.794936 17.596375 
L 185.794936 15.569646 
L 185.794936 13.540453 
L 185.794936 11.508531 
L 185.794936 9.474386 
L 185.794936 7.437494 
L 185.794936 7.2 
" clip-path="url(#pec56f7eef8)" style="fill: none; stroke: #000000; stroke-width: 0.2"/>
    <path d="M 96.246067 23.708824 
L 96.233776 23.736797 
" clip-path="url(#pec56f7eef8)" style="fill: none; stroke: #000000; stroke-width: 0.2"/>
   </g>
   <g id="line2d_1">
    <path d="M 260.029833 50.441383 
L 260.029833 50.441383 
L 260.493422 50.452245 
L 260.957005 50.463234 
L 261.420582 50.47435 
L 261.884152 50.485592 
L 262.347717 50.496962 
L 262.811276 50.508459 
L 263.274828 50.520083 
L 263.738373 50.531833 
L 264.201913 50.543711 
L 264.665446 50.555716 
L 265.128972 50.567847 
L 265.592491 50.580106 
L 266.056004 50.592491 
L 266.51951 50.605004 
L 266.98301 50.617643 
L 267.446502 50.630409 
L 267.909987 50.643302 
L 268.373465 50.656323 
L 268.836937 50.66947 
L 269.300401 50.682744 
L 269.763857 50.696144 
L 270.227307 50.709672 
L 270.690749 50.723327 
L 271.154183 50.737108 
L 271.61761 50.751016 
L 272.081029 50.765052 
L 272.544441 50.779214 
L 273.007845 50.793503 
L 273.471241 50.807918 
L 273.934629 50.822461 
L 274.398009 50.83713 
L 274.861381 50.851926 
L 275.324746 50.866849 
L 275.788102 50.881899 
L 276.251449 50.897076 
L 276.714789 50.912379 
L 277.17812 50.927809 
L 277.641442 50.943366 
L 278.104756 50.95905 
L 278.568062 50.97486 
L 279.031359 50.990797 
L 279.494647 51.006861 
L 279.957926 51.023052 
L 280.421197 51.039369 
L 280.884459 51.055813 
L 281.347711 51.072384 
L 281.810955 51.089082 
L 282.274189 51.105906 
L 282.737415 51.122857 
L 283.200631 51.139934 
L 283.663837 51.157138 
L 284.127035 51.174469 
L 284.590222 51.191927 
L 285.053401 51.209511 
L 285.516569 51.227221 
L 285.979728 51.245059 
L 286.442878 51.263023 
L 286.906017 51.281113 
L 287.369147 51.29933 
L 287.832266 51.317674 
L 288.295376 51.336144 
L 288.758475 51.354741 
L 289.221565 51.373465 
L 289.684644 51.392315 
L 290.147713 51.411291 
L 290.610771 51.430394 
L 291.073819 51.449624 
L 291.536857 51.46898 
L 291.999884 51.488462 
L 292.4629 51.508071 
L 292.925906 51.527807 
L 293.388901 51.547669 
L 293.851885 51.567657 
L 294.314858 51.587772 
L 294.77782 51.608013 
L 295.240771 51.628381 
L 295.703711 51.648875 
L 296.16664 51.669496 
L 296.629557 51.690243 
L 297.092464 51.711116 
L 297.555359 51.732116 
L 298.018242 51.753242 
L 298.481114 51.774494 
L 298.943974 51.795873 
L 299.406823 51.817378 
L 299.86966 51.839009 
L 300.332485 51.860767 
L 300.795298 51.882651 
L 301.258099 51.904661 
L 301.720889 51.926798 
L 302.183666 51.949061 
L 302.646431 51.97145 
L 303.109184 51.993965 
L 303.571925 52.016607 
L 304.034653 52.039374 
L 304.497369 52.062268 
L 304.960072 52.085289 
L 305.422763 52.108435 
L 305.885441 52.131707 
L 306.348107 52.155106 
L 306.81076 52.178631 
L 306.81076 52.178631 
" clip-path="url(#pec56f7eef8)" style="fill: none; stroke: #0000ff; stroke-width: 0.5; stroke-linecap: square"/>
   </g>
   <g id="line2d_2">
    <path d="M 260.029833 50.441383 
L 260.029833 50.441383 
L 259.368689 50.312607 
L 258.707445 50.18408 
L 258.046101 50.055802 
L 257.384658 49.927772 
L 256.723115 49.799993 
L 256.061473 49.672462 
L 255.399732 49.545181 
L 254.737891 49.418149 
L 254.075952 49.291368 
L 253.413915 49.164836 
L 252.751778 49.038554 
L 252.089544 48.912523 
L 251.427212 48.786741 
L 250.764781 48.661211 
L 250.102253 48.53593 
L 249.439627 48.4109 
L 248.776904 48.286122 
L 248.114084 48.161594 
L 247.451166 48.037317 
L 246.788152 47.913291 
L 246.125041 47.789516 
L 245.461833 47.665993 
L 244.79853 47.542722 
L 244.13513 47.419702 
L 243.471634 47.296934 
L 242.808042 47.174418 
L 242.144354 47.052154 
L 241.480572 46.930142 
L 240.816693 46.808382 
L 240.15272 46.686875 
L 239.488652 46.565621 
L 238.824489 46.444619 
L 238.160232 46.32387 
L 237.49588 46.203373 
L 236.831434 46.08313 
L 236.166893 45.96314 
L 235.50226 45.843404 
L 234.837532 45.723921 
L 234.172711 45.604691 
L 233.507796 45.485715 
L 232.842789 45.366993 
L 232.177689 45.248525 
L 231.512495 45.13031 
L 230.84721 45.01235 
L 230.181831 44.894645 
L 229.516361 44.777193 
L 228.850798 44.659996 
L 228.185144 44.543054 
L 227.519398 44.426367 
L 226.853561 44.309934 
L 226.187632 44.193757 
L 225.521612 44.077834 
L 224.855501 43.962167 
L 224.1893 43.846755 
L 223.523007 43.731599 
L 222.856625 43.616698 
L 222.190152 43.502054 
L 221.523589 43.387664 
L 220.856937 43.273531 
L 220.190194 43.159654 
L 219.523363 43.046034 
L 218.856442 42.932669 
L 218.189431 42.819561 
L 217.522332 42.706709 
L 216.855145 42.594115 
L 216.187868 42.481777 
L 215.520504 42.369696 
L 214.853051 42.257871 
L 214.18551 42.146305 
L 213.517881 42.034995 
L 212.850165 41.923943 
L 212.182361 41.813148 
L 211.51447 41.702611 
L 210.846492 41.592331 
L 210.178428 41.48231 
L 209.510276 41.372546 
L 208.842038 41.26304 
L 208.173714 41.153793 
L 207.505303 41.044804 
L 206.836807 40.936073 
L 206.168225 40.827601 
L 205.499557 40.719388 
L 204.830804 40.611433 
L 204.161966 40.503737 
L 203.493043 40.3963 
L 202.824035 40.289122 
L 202.154943 40.182204 
L 201.485766 40.075544 
L 200.816505 39.969145 
L 200.147159 39.863004 
L 199.47773 39.757124 
L 198.808218 39.651503 
L 198.138622 39.546142 
L 197.468942 39.441041 
L 196.79918 39.3362 
L 196.129335 39.231619 
L 195.459407 39.127299 
L 194.789396 39.023239 
L 194.119303 38.91944 
L 193.449128 38.815901 
L 192.778871 38.712623 
L 192.778871 38.712623 
" clip-path="url(#pec56f7eef8)" style="fill: none; stroke: #0000ff; stroke-width: 0.5; stroke-linecap: square"/>
   </g>
   <g id="line2d_3">
    <path d="M 313.302857 52.325471 
L 313.302857 52.325471 
L 313.238585 52.323895 
L 313.174312 52.322322 
L 313.110039 52.320751 
L 313.045766 52.319182 
L 312.981493 52.317616 
L 312.91722 52.316053 
L 312.852947 52.314491 
L 312.788673 52.312933 
L 312.7244 52.311376 
L 312.660126 52.309822 
L 312.595853 52.308271 
L 312.531579 52.306722 
L 312.467305 52.305175 
L 312.403031 52.303631 
L 312.338756 52.302089 
L 312.274482 52.30055 
L 312.210208 52.299013 
L 312.145933 52.297479 
L 312.081658 52.295947 
L 312.017384 52.294418 
L 311.953109 52.292891 
L 311.888834 52.291366 
L 311.824559 52.289844 
L 311.760283 52.288324 
L 311.696008 52.286807 
L 311.631733 52.285292 
L 311.567457 52.283779 
L 311.503181 52.282269 
L 311.438906 52.280762 
L 311.37463 52.279257 
L 311.310354 52.277754 
L 311.246077 52.276254 
L 311.181801 52.274756 
L 311.117525 52.273261 
L 311.053248 52.271768 
L 310.988972 52.270277 
L 310.924695 52.268789 
L 310.860418 52.267304 
L 310.796141 52.265821 
L 310.731864 52.26434 
L 310.667587 52.262862 
L 310.60331 52.261386 
L 310.539032 52.259913 
L 310.474755 52.258442 
L 310.410477 52.256973 
L 310.346199 52.255507 
L 310.281922 52.254043 
L 310.217644 52.252582 
L 310.153366 52.251123 
L 310.089088 52.249667 
L 310.024809 52.248213 
L 309.960531 52.246762 
L 309.896252 52.245313 
L 309.831974 52.243866 
L 309.767695 52.242422 
L 309.703416 52.240981 
L 309.639137 52.239541 
L 309.574858 52.238105 
L 309.510579 52.23667 
L 309.4463 52.235238 
L 309.382021 52.233809 
L 309.317741 52.232382 
L 309.253461 52.230957 
L 309.189182 52.229535 
L 309.124902 52.228115 
L 309.060622 52.226698 
L 308.996342 52.225283 
L 308.932062 52.223871 
L 308.867782 52.222461 
L 308.803501 52.221053 
L 308.739221 52.219648 
L 308.674941 52.218246 
L 308.61066 52.216846 
L 308.546379 52.215448 
L 308.482098 52.214052 
L 308.417817 52.21266 
L 308.353536 52.211269 
L 308.289255 52.209881 
L 308.224974 52.208496 
L 308.160692 52.207113 
L 308.096411 52.205732 
L 308.032129 52.204354 
L 307.967848 52.202978 
L 307.903566 52.201604 
L 307.839284 52.200234 
L 307.775002 52.198865 
L 307.71072 52.197499 
L 307.646438 52.196136 
L 307.582155 52.194774 
L 307.517873 52.193416 
L 307.45359 52.192059 
L 307.389308 52.190706 
L 307.325025 52.189354 
L 307.260742 52.188005 
L 307.196459 52.186659 
L 307.132176 52.185315 
L 307.067893 52.183973 
L 307.00361 52.182634 
L 306.939327 52.181297 
L 306.875043 52.179963 
L 306.81076 52.178631 
L 306.81076 52.178631 
" clip-path="url(#pec56f7eef8)" style="fill: none; stroke: #0000ff; stroke-width: 0.5; stroke-linecap: square"/>
   </g>
   <g id="line2d_4">
    <path d="M 302.495053 86.206176 
L 302.495053 86.206176 
L 302.2454 86.428098 
L 301.99581 86.650028 
L 301.746284 86.871965 
L 301.496823 87.093911 
L 301.247425 87.315864 
L 300.998091 87.537825 
L 300.748821 87.759794 
L 300.499615 87.981771 
L 300.250473 88.203756 
L 300.001394 88.425748 
L 299.75238 88.647748 
L 299.503429 88.869756 
L 299.254542 89.091772 
L 299.005718 89.313795 
L 298.756959 89.535826 
L 298.508263 89.757865 
L 298.25963 89.979911 
L 298.011062 90.201965 
L 297.762557 90.424026 
L 297.514115 90.646095 
L 297.265737 90.868172 
L 297.017423 91.090256 
L 296.769172 91.312348 
L 296.520985 91.534447 
L 296.272861 91.756553 
L 296.024801 91.978667 
L 295.776804 92.200788 
L 295.528871 92.422917 
L 295.281001 92.645053 
L 295.033194 92.867197 
L 294.785451 93.089348 
L 294.537771 93.311506 
L 294.290155 93.533671 
L 294.042601 93.755844 
L 293.795111 93.978024 
L 293.547685 94.200211 
L 293.300321 94.422406 
L 293.053021 94.644607 
L 292.805784 94.866816 
L 292.55861 95.089032 
L 292.3115 95.311255 
L 292.064452 95.533485 
L 291.817468 95.755722 
L 291.570546 95.977966 
L 291.323688 96.200218 
L 291.076893 96.422476 
L 290.830161 96.644741 
L 290.583491 96.867014 
L 290.336885 97.089293 
L 290.090342 97.311579 
L 289.843862 97.533873 
L 289.597444 97.756173 
L 289.35109 97.97848 
L 289.104798 98.200793 
L 288.85857 98.423114 
L 288.612404 98.645442 
L 288.366301 98.867776 
L 288.12026 99.090117 
L 287.874283 99.312465 
L 287.628368 99.534819 
L 287.382516 99.757181 
L 287.136727 99.979549 
L 286.891 100.201923 
L 286.645336 100.424305 
L 286.399735 100.646692 
L 286.154196 100.869087 
L 285.90872 101.091488 
L 285.663307 101.313896 
L 285.417956 101.53631 
L 285.172668 101.758731 
L 284.927442 101.981159 
L 284.682278 102.203592 
L 284.437178 102.426033 
L 284.192139 102.64848 
L 283.947163 102.870933 
L 283.70225 103.093392 
L 283.457398 103.315859 
L 283.21261 103.538331 
L 282.967883 103.76081 
L 282.723219 103.983295 
L 282.478617 104.205786 
L 282.234077 104.428284 
L 281.9896 104.650788 
L 281.745185 104.873299 
L 281.500832 105.095815 
L 281.256542 105.318338 
L 281.012313 105.540867 
L 280.768147 105.763402 
L 280.524043 105.985943 
L 280.280001 106.208491 
L 280.036021 106.431044 
L 279.792103 106.653604 
L 279.548247 106.87617 
L 279.304453 107.098742 
L 279.060721 107.321319 
L 278.817052 107.543903 
L 278.573444 107.766493 
L 278.329898 107.989089 
L 278.086414 108.211691 
L 277.842992 108.434299 
L 277.599632 108.656913 
L 277.599632 108.656913 
" clip-path="url(#pec56f7eef8)" style="fill: none; stroke: #0000ff; stroke-width: 0.5; stroke-linecap: square"/>
   </g>
   <g id="line2d_5">
    <path d="M 126.626036 91.074028 
L 126.626036 91.074028 
L 126.777424 90.862141 
L 126.928849 90.650241 
L 127.080312 90.438329 
L 127.231811 90.226404 
L 127.383347 90.014467 
L 127.53492 89.802518 
L 127.68653 89.590556 
L 127.838177 89.378582 
L 127.989862 89.166596 
L 128.141583 88.954597 
L 128.293342 88.742585 
L 128.445138 88.530562 
L 128.59697 88.318526 
L 128.74884 88.106477 
L 128.900748 87.894416 
L 129.052692 87.682343 
L 129.204674 87.470257 
L 129.356692 87.258159 
L 129.508748 87.046049 
L 129.660842 86.833926 
L 129.812972 86.621791 
L 129.96514 86.409643 
L 130.117345 86.197483 
L 130.269587 85.985311 
L 130.421867 85.773126 
L 130.574184 85.560929 
L 130.726539 85.34872 
L 130.87893 85.136498 
L 131.03136 84.924264 
L 131.183826 84.712017 
L 131.33633 84.499758 
L 131.488872 84.287487 
L 131.64145 84.075204 
L 131.794067 83.862908 
L 131.946721 83.650599 
L 132.099412 83.438279 
L 132.252141 83.225946 
L 132.404907 83.013601 
L 132.557711 82.801243 
L 132.710552 82.588873 
L 132.863431 82.376491 
L 133.016348 82.164096 
L 133.169302 81.951689 
L 133.322294 81.73927 
L 133.475323 81.526838 
L 133.62839 81.314395 
L 133.781495 81.101938 
L 133.934638 80.88947 
L 134.087818 80.676989 
L 134.241036 80.464496 
L 134.394291 80.25199 
L 134.547584 80.039473 
L 134.700915 79.826943 
L 134.854284 79.6144 
L 135.007691 79.401846 
L 135.161135 79.189279 
L 135.314618 78.976699 
L 135.468138 78.764108 
L 135.621695 78.551504 
L 135.775291 78.338888 
L 135.928925 78.126259 
L 136.082596 77.913619 
L 136.236306 77.700966 
L 136.390053 77.4883 
L 136.543839 77.275623 
L 136.697662 77.062933 
L 136.851523 76.850231 
L 137.005422 76.637517 
L 137.15936 76.42479 
L 137.313335 76.212051 
L 137.467348 75.9993 
L 137.621399 75.786537 
L 137.775489 75.573761 
L 137.929616 75.360973 
L 138.083782 75.148173 
L 138.237986 74.935361 
L 138.392228 74.722536 
L 138.546507 74.509699 
L 138.700826 74.29685 
L 138.855182 74.083989 
L 139.009576 73.871115 
L 139.164009 73.658229 
L 139.31848 73.445331 
L 139.472989 73.232421 
L 139.627537 73.019499 
L 139.782122 72.806564 
L 139.936746 72.593617 
L 140.091409 72.380658 
L 140.246109 72.167686 
L 140.400848 71.954703 
L 140.555625 71.741707 
L 140.710441 71.528699 
L 140.865295 71.315679 
L 141.020188 71.102646 
L 141.175118 70.889602 
L 141.330088 70.676545 
L 141.485095 70.463476 
L 141.640142 70.250395 
L 141.795226 70.037302 
L 141.950349 69.824196 
L 142.105511 69.611078 
L 142.105511 69.611078 
" clip-path="url(#pec56f7eef8)" style="fill: none; stroke: #0000ff; stroke-width: 0.5; stroke-linecap: square"/>
   </g>
   <g id="line2d_6">
    <path d="M 126.626036 91.074028 
L 126.626036 91.074028 
L 126.768038 91.189395 
L 126.910022 91.304766 
L 127.051986 91.420141 
L 127.193932 91.53552 
L 127.335858 91.650903 
L 127.477766 91.76629 
L 127.619655 91.881682 
L 127.761525 91.997077 
L 127.903377 92.112476 
L 128.045209 92.22788 
L 128.187023 92.343287 
L 128.328818 92.458699 
L 128.470593 92.574114 
L 128.612351 92.689534 
L 128.754089 92.804957 
L 128.895808 92.920385 
L 129.037509 93.035816 
L 129.17919 93.151252 
L 129.320853 93.266691 
L 129.462497 93.382135 
L 129.604123 93.497582 
L 129.745729 93.613034 
L 129.887317 93.72849 
L 130.028886 93.843949 
L 130.170436 93.959413 
L 130.311967 94.07488 
L 130.453479 94.190352 
L 130.594973 94.305827 
L 130.736448 94.421306 
L 130.877904 94.53679 
L 131.019341 94.652277 
L 131.160759 94.767768 
L 131.302159 94.883263 
L 131.44354 94.998763 
L 131.584902 95.114266 
L 131.726245 95.229773 
L 131.86757 95.345284 
L 132.008875 95.460799 
L 132.150163 95.576318 
L 132.291431 95.69184 
L 132.43268 95.807367 
L 132.573911 95.922898 
L 132.715123 96.038432 
L 132.856316 96.15397 
L 132.997491 96.269513 
L 133.138646 96.385059 
L 133.279783 96.500609 
L 133.420902 96.616163 
L 133.562001 96.731721 
L 133.703082 96.847283 
L 133.844144 96.962848 
L 133.985187 97.078418 
L 134.126212 97.193991 
L 134.267218 97.309569 
L 134.408205 97.42515 
L 134.549173 97.540735 
L 134.690123 97.656324 
L 134.831054 97.771916 
L 134.971966 97.887513 
L 135.11286 98.003113 
L 135.253735 98.118718 
L 135.394591 98.234326 
L 135.535428 98.349938 
L 135.676247 98.465554 
L 135.817047 98.581173 
L 135.957829 98.696797 
L 136.098591 98.812424 
L 136.239335 98.928055 
L 136.380061 99.04369 
L 136.520768 99.159328 
L 136.661456 99.274971 
L 136.802125 99.390617 
L 136.942776 99.506267 
L 137.083408 99.621921 
L 137.224021 99.737579 
L 137.364616 99.85324 
L 137.505192 99.968906 
L 137.645749 100.084575 
L 137.786288 100.200248 
L 137.926808 100.315924 
L 138.06731 100.431604 
L 138.207793 100.547289 
L 138.348257 100.662976 
L 138.488702 100.778668 
L 138.629129 100.894363 
L 138.769538 101.010063 
L 138.909927 101.125766 
L 139.050298 101.241472 
L 139.190651 101.357183 
L 139.330985 101.472897 
L 139.4713 101.588614 
L 139.611597 101.704336 
L 139.751875 101.820061 
L 139.892134 101.93579 
L 140.032375 102.051523 
L 140.172597 102.16726 
L 140.312801 102.283 
L 140.452986 102.398744 
L 140.593152 102.514491 
L 140.7333 102.630242 
L 140.873429 102.745997 
L 140.873429 102.745997 
" clip-path="url(#pec56f7eef8)" style="fill: none; stroke: #0000ff; stroke-width: 0.5; stroke-linecap: square"/>
   </g>
   <g id="line2d_7">
    <path d="M 126.626036 91.074028 
L 126.626036 91.074028 
L 126.338877 91.098144 
L 126.051725 91.122307 
L 125.764582 91.146517 
L 125.477447 91.170775 
L 125.190319 91.195081 
L 124.9032 91.219434 
L 124.616089 91.243834 
L 124.328986 91.268282 
L 124.04189 91.292778 
L 123.754804 91.31732 
L 123.467725 91.341911 
L 123.180654 91.366548 
L 122.893592 91.391233 
L 122.606537 91.415966 
L 122.319491 91.440746 
L 122.032453 91.465573 
L 121.745423 91.490448 
L 121.458402 91.51537 
L 121.171389 91.540339 
L 120.884384 91.565356 
L 120.597387 91.59042 
L 120.310398 91.615532 
L 120.023418 91.640691 
L 119.736447 91.665898 
L 119.449483 91.691151 
L 119.162528 91.716453 
L 118.875581 91.741801 
L 118.588643 91.767197 
L 118.301713 91.79264 
L 118.014792 91.818131 
L 117.727879 91.843669 
L 117.440974 91.869254 
L 117.154078 91.894886 
L 116.86719 91.920566 
L 116.580311 91.946294 
L 116.29344 91.972068 
L 116.006578 91.99789 
L 115.719724 92.023759 
L 115.432879 92.049675 
L 115.146043 92.075639 
L 114.859215 92.10165 
L 114.572396 92.127709 
L 114.285585 92.153814 
L 113.998783 92.179967 
L 113.71199 92.206167 
L 113.425205 92.232415 
L 113.138429 92.258709 
L 112.851661 92.285051 
L 112.564903 92.31144 
L 112.278153 92.337877 
L 111.991411 92.36436 
L 111.704679 92.390891 
L 111.417955 92.417469 
L 111.13124 92.444095 
L 110.844534 92.470767 
L 110.557837 92.497487 
L 110.271148 92.524254 
L 109.984469 92.551068 
L 109.697798 92.57793 
L 109.411136 92.604838 
L 109.124483 92.631794 
L 108.837839 92.658797 
L 108.551204 92.685847 
L 108.264578 92.712945 
L 107.97796 92.740089 
L 107.691352 92.767281 
L 107.404753 92.79452 
L 107.118162 92.821806 
L 106.831581 92.849139 
L 106.545009 92.876519 
L 106.258445 92.903947 
L 105.971891 92.931421 
L 105.685346 92.958943 
L 105.39881 92.986512 
L 105.112283 93.014128 
L 104.825765 93.041791 
L 104.539256 93.069501 
L 104.252757 93.097258 
L 103.966266 93.125063 
L 103.679785 93.152914 
L 103.393313 93.180813 
L 103.10685 93.208759 
L 102.820397 93.236751 
L 102.533952 93.264791 
L 102.247517 93.292878 
L 101.961091 93.321012 
L 101.674675 93.349193 
L 101.388268 93.377421 
L 101.10187 93.405696 
L 100.815481 93.434018 
L 100.529102 93.462387 
L 100.242732 93.490804 
L 99.956371 93.519267 
L 99.67002 93.547777 
L 99.383678 93.576334 
L 99.097346 93.604939 
L 98.811023 93.63359 
L 98.52471 93.662288 
L 98.238406 93.691034 
L 97.952111 93.719826 
L 97.665826 93.748665 
L 97.665826 93.748665 
" clip-path="url(#pec56f7eef8)" style="fill: none; stroke: #0000ff; stroke-width: 0.5; stroke-linecap: square"/>
   </g>
   <g id="line2d_8">
    <path d="M 140.873429 102.745997 
L 140.873429 102.745997 
L 141.094993 103.034887 
L 141.316483 103.323758 
L 141.5379 103.612609 
L 141.759244 103.901441 
L 141.980514 104.190254 
L 142.201712 104.479048 
L 142.422836 104.767823 
L 142.643887 105.056578 
L 142.864866 105.345314 
L 143.085771 105.63403 
L 143.306604 105.922728 
L 143.527363 106.211406 
L 143.74805 106.500065 
L 143.968664 106.788704 
L 144.189205 107.077324 
L 144.409673 107.365925 
L 144.630069 107.654506 
L 144.850392 107.943069 
L 145.070642 108.231611 
L 145.29082 108.520135 
L 145.510925 108.808639 
L 145.730958 109.097123 
L 145.950918 109.385589 
L 146.170806 109.674034 
L 146.390622 109.962461 
L 146.610365 110.250868 
L 146.830036 110.539256 
L 147.049634 110.827624 
L 147.269161 111.115972 
L 147.488615 111.404302 
L 147.707997 111.692611 
L 147.927307 111.980902 
L 148.146545 112.269172 
L 148.365711 112.557424 
L 148.584805 112.845656 
L 148.803827 113.133868 
L 149.022777 113.422061 
L 149.241655 113.710234 
L 149.460462 113.998388 
L 149.679196 114.286522 
L 149.897859 114.574637 
L 150.11645 114.862732 
L 150.33497 115.150807 
L 150.553418 115.438863 
L 150.771794 115.726899 
L 150.990099 116.014916 
L 151.208332 116.302913 
L 151.426494 116.590891 
L 151.644584 116.878849 
L 151.862603 117.166787 
L 152.08055 117.454706 
L 152.298427 117.742605 
L 152.516232 118.030484 
L 152.733966 118.318344 
L 152.951628 118.606184 
L 153.16922 118.894004 
L 153.38674 119.181805 
L 153.604189 119.469586 
L 153.821567 119.757347 
L 154.038874 120.045089 
L 154.256111 120.332811 
L 154.473276 120.620513 
L 154.69037 120.908196 
L 154.907394 121.195858 
L 155.124347 121.483501 
L 155.341229 121.771124 
L 155.55804 122.058728 
L 155.77478 122.346311 
L 155.99145 122.633875 
L 156.20805 122.921419 
L 156.424578 123.208944 
L 156.641036 123.496448 
L 156.857424 123.783933 
L 157.073741 124.071398 
L 157.289988 124.358843 
L 157.506165 124.646268 
L 157.722271 124.933673 
L 157.938307 125.221059 
L 158.154272 125.508424 
L 158.370167 125.79577 
L 158.585992 126.083096 
L 158.801747 126.370402 
L 159.017432 126.657688 
L 159.233047 126.944954 
L 159.448592 127.232201 
L 159.664066 127.519427 
L 159.879471 127.806634 
L 160.094806 128.09382 
L 160.310071 128.380987 
L 160.525266 128.668134 
L 160.740392 128.955261 
L 160.955447 129.242367 
L 161.170433 129.529454 
L 161.385349 129.816521 
L 161.600196 130.103568 
L 161.814973 130.390595 
L 162.02968 130.677602 
L 162.244318 130.964589 
L 162.458886 131.251556 
L 162.673385 131.538503 
L 162.887814 131.82543 
L 162.887814 131.82543 
" clip-path="url(#pec56f7eef8)" style="fill: none; stroke: #0000ff; stroke-width: 0.5; stroke-linecap: square"/>
   </g>
   <g id="line2d_9">
    <path d="M 140.873429 102.745997 
L 140.873429 102.745997 
L 140.738755 103.183032 
L 140.604149 103.619968 
L 140.469609 104.056806 
L 140.335137 104.493546 
L 140.200732 104.930188 
L 140.066395 105.366732 
L 139.932124 105.803178 
L 139.79792 106.239526 
L 139.663784 106.675776 
L 139.529714 107.111929 
L 139.395711 107.547984 
L 139.261774 107.983942 
L 139.127905 108.419802 
L 138.994102 108.855564 
L 138.860365 109.291229 
L 138.726695 109.726797 
L 138.593092 110.162267 
L 138.459555 110.597641 
L 138.326084 111.032917 
L 138.192679 111.468096 
L 138.059341 111.903178 
L 137.926068 112.338163 
L 137.792862 112.773051 
L 137.659722 113.207842 
L 137.526647 113.642536 
L 137.393639 114.077133 
L 137.260696 114.511634 
L 137.127819 114.946039 
L 136.995008 115.380346 
L 136.862262 115.814557 
L 136.729582 116.248672 
L 136.596967 116.682691 
L 136.464418 117.116613 
L 136.331934 117.550438 
L 136.199515 117.984168 
L 136.067162 118.417801 
L 135.934874 118.851339 
L 135.802651 119.28478 
L 135.670493 119.718125 
L 135.5384 120.151375 
L 135.406372 120.584528 
L 135.274409 121.017586 
L 135.14251 121.450548 
L 135.010677 121.883414 
L 134.878908 122.316185 
L 134.747203 122.74886 
L 134.615564 123.18144 
L 134.483988 123.613924 
L 134.352478 124.046313 
L 134.221031 124.478607 
L 134.089649 124.910805 
L 133.958331 125.342908 
L 133.827078 125.774916 
L 133.695888 126.206829 
L 133.564763 126.638647 
L 133.433702 127.07037 
L 133.302704 127.501998 
L 133.171771 127.933531 
L 133.040901 128.364969 
L 132.910095 128.796313 
L 132.779353 129.227562 
L 132.648675 129.658716 
L 132.51806 130.089776 
L 132.387508 130.520741 
L 132.257021 130.951612 
L 132.126596 131.382389 
L 131.996235 131.813071 
L 131.865937 132.243659 
L 131.735703 132.674153 
L 131.605532 133.104553 
L 131.475423 133.534858 
L 131.345378 133.96507 
L 131.215396 134.395187 
L 131.085477 134.825211 
L 130.955621 135.255141 
L 130.825827 135.684977 
L 130.696097 136.114719 
L 130.566429 136.544368 
L 130.436823 136.973923 
L 130.307281 137.403384 
L 130.177801 137.832752 
L 130.048383 138.262027 
L 129.919028 138.691208 
L 129.789735 139.120296 
L 129.660504 139.54929 
L 129.531336 139.978191 
L 129.40223 140.407 
L 129.273186 140.835715 
L 129.144204 141.264337 
L 129.015284 141.692866 
L 128.886426 142.121302 
L 128.75763 142.549645 
L 128.628896 142.977896 
L 128.500223 143.406054 
L 128.371612 143.834119 
L 128.243063 144.262091 
L 128.114576 144.689971 
L 127.98615 145.117758 
L 127.857786 145.545453 
L 127.729483 145.973056 
L 127.601241 146.400566 
L 127.601241 146.400566 
" clip-path="url(#pec56f7eef8)" style="fill: none; stroke: #0000ff; stroke-width: 0.5; stroke-linecap: square"/>
   </g>
   <g id="line2d_10">
    <path d="M 97.665826 93.748665 
L 97.665826 93.748665 
L 97.283403 93.385026 
L 96.90082 93.021396 
L 96.518077 92.657775 
L 96.135173 92.294163 
L 95.752109 91.93056 
L 95.368885 91.566967 
L 94.9855 91.203384 
L 94.601954 90.83981 
L 94.218248 90.476246 
L 93.83438 90.112691 
L 93.450352 89.749146 
L 93.066163 89.385612 
L 92.681813 89.022087 
L 92.297301 88.658572 
L 91.912628 88.295067 
L 91.527794 87.931572 
L 91.142798 87.568088 
L 90.757641 87.204614 
L 90.372322 86.84115 
L 89.986842 86.477697 
L 89.601199 86.114255 
L 89.215395 85.750823 
L 88.829428 85.387402 
L 88.443299 85.023992 
L 88.057008 84.660592 
L 87.670555 84.297204 
L 87.28394 83.933827 
L 86.897162 83.57046 
L 86.510221 83.207105 
L 86.123117 82.843762 
L 85.735851 82.480429 
L 85.348422 82.117109 
L 84.96083 81.753799 
L 84.573075 81.390501 
L 84.185157 81.027215 
L 83.797075 80.663941 
L 83.40883 80.300679 
L 83.020422 79.937428 
L 82.63185 79.57419 
L 82.243115 79.210963 
L 81.854215 78.847749 
L 81.465152 78.484547 
L 81.075925 78.121357 
L 80.686535 77.75818 
L 80.29698 77.395016 
L 79.90726 77.031863 
L 79.517377 76.668724 
L 79.127329 76.305597 
L 78.737117 75.942483 
L 78.34674 75.579382 
L 77.956199 75.216294 
L 77.565493 74.853219 
L 77.174622 74.490158 
L 76.783586 74.127109 
L 76.392385 73.764074 
L 76.001019 73.401052 
L 75.609487 73.038044 
L 75.217791 72.675049 
L 74.825929 72.312068 
L 74.433901 71.949101 
L 74.041708 71.586147 
L 73.64935 71.223208 
L 73.256825 70.860282 
L 72.864135 70.497371 
L 72.471278 70.134473 
L 72.078256 69.77159 
L 71.685068 69.408721 
L 71.291713 69.045867 
L 70.898192 68.683027 
L 70.504505 68.320202 
L 70.110651 67.957391 
L 69.71663 67.594595 
L 69.322443 67.231814 
L 68.928089 66.869048 
L 68.533568 66.506297 
L 68.13888 66.143561 
L 67.744025 65.78084 
L 67.349003 65.418135 
L 66.953814 65.055445 
L 66.558457 64.69277 
L 66.162933 64.330111 
L 65.767241 63.967467 
L 65.371382 63.604839 
L 64.975355 63.242227 
L 64.57916 62.879631 
L 64.182797 62.517051 
L 63.786266 62.154487 
L 63.389567 61.791938 
L 62.9927 61.429407 
L 62.595665 61.066891 
L 62.198461 60.704392 
L 61.801089 60.341909 
L 61.403548 59.979443 
L 61.005839 59.616994 
L 60.607961 59.254561 
L 60.209914 58.892145 
L 59.811698 58.529747 
L 59.413313 58.167365 
L 59.014759 57.805 
L 58.616035 57.442653 
L 58.217143 57.080322 
L 58.217143 57.080322 
" clip-path="url(#pec56f7eef8)" style="fill: none; stroke: #0000ff; stroke-width: 0.5; stroke-linecap: square"/>
   </g>
   <g id="line2d_11">
    <path d="M 305.805321 31.203259 
L 305.805321 31.203259 
L 305.320688 32.027935 
L 304.836529 32.852349 
L 304.352843 33.676503 
L 303.869628 34.500396 
L 303.386885 35.324029 
L 302.904612 36.147401 
L 302.422809 36.970513 
L 301.941475 37.793365 
L 301.460609 38.615956 
L 300.98021 39.438288 
L 300.500278 40.260359 
L 300.020811 41.08217 
L 299.54181 41.903722 
L 299.063272 42.725013 
L 298.585198 43.546045 
L 298.107587 44.366818 
L 297.630438 45.187331 
L 297.153749 46.007584 
L 296.677521 46.827579 
L 296.201753 47.647314 
L 295.726443 48.46679 
L 295.251591 49.286006 
L 294.777197 50.104964 
L 294.303259 50.923664 
L 293.829777 51.742104 
L 293.356749 52.560286 
L 292.884176 53.378209 
L 292.412057 54.195874 
L 291.94039 55.01328 
L 291.469175 55.830428 
L 290.998412 56.647318 
L 290.528098 57.46395 
L 290.058235 58.280324 
L 289.58882 59.09644 
L 289.119854 59.912299 
L 288.651335 60.727899 
L 288.183263 61.543243 
L 287.715637 62.358328 
L 287.248456 63.173157 
L 286.78172 63.987728 
L 286.315427 64.802042 
L 285.849578 65.616099 
L 285.38417 66.429899 
L 284.919204 67.243442 
L 284.45468 68.056729 
L 283.990595 68.869759 
L 283.526949 69.682532 
L 283.063742 70.495049 
L 282.600973 71.30731 
L 282.138642 72.119315 
L 281.676746 72.931063 
L 281.215287 73.742556 
L 280.754262 74.553792 
L 280.293672 75.364773 
L 279.833515 76.175499 
L 279.373791 76.985969 
L 278.9145 77.796183 
L 278.455639 78.606142 
L 277.99721 79.415846 
L 277.53921 80.225295 
L 277.08164 81.034489 
L 276.624498 81.843428 
L 276.167784 82.652113 
L 275.711497 83.460543 
L 275.255637 84.268718 
L 274.800202 85.076639 
L 274.345192 85.884306 
L 273.890607 86.691718 
L 273.436446 87.498877 
L 272.982707 88.305782 
L 272.52939 89.112433 
L 272.076495 89.91883 
L 271.624021 90.724974 
L 271.171967 91.530864 
L 270.720333 92.336501 
L 270.269117 93.141885 
L 269.818319 93.947016 
L 269.367939 94.751893 
L 268.917975 95.556518 
L 268.468428 96.360891 
L 268.019296 97.16501 
L 267.570578 97.968878 
L 267.122274 98.772493 
L 266.674384 99.575856 
L 266.226906 100.378966 
L 265.77984 101.181825 
L 265.333185 101.984432 
L 264.886941 102.786787 
L 264.441106 103.588891 
L 263.995681 104.390743 
L 263.550665 105.192344 
L 263.106056 105.993694 
L 262.661854 106.794792 
L 262.218059 107.59564 
L 261.77467 108.396237 
L 261.331686 109.196583 
L 260.889106 109.996679 
L 260.44693 110.796524 
L 260.005158 111.596119 
L 259.563788 112.395464 
L 259.12282 113.194559 
L 259.12282 113.194559 
" clip-path="url(#pec56f7eef8)" style="fill: none; stroke: #0000ff; stroke-width: 0.5; stroke-linecap: square"/>
   </g>
   <g id="line2d_12">
    <path d="M 171.077858 62.931814 
L 171.077858 62.931814 
L 170.938633 63.034738 
L 170.799425 63.137668 
L 170.660234 63.240604 
L 170.521059 63.343544 
L 170.381901 63.44649 
L 170.24276 63.549441 
L 170.103636 63.652397 
L 169.964528 63.755358 
L 169.825437 63.858325 
L 169.686363 63.961297 
L 169.547305 64.064274 
L 169.408264 64.167256 
L 169.26924 64.270244 
L 169.130233 64.373236 
L 168.991242 64.476234 
L 168.852268 64.579237 
L 168.713311 64.682245 
L 168.57437 64.785259 
L 168.435446 64.888277 
L 168.296539 64.991301 
L 168.157649 65.09433 
L 168.018775 65.197364 
L 167.879918 65.300403 
L 167.741078 65.403447 
L 167.602254 65.506497 
L 167.463447 65.609552 
L 167.324657 65.712612 
L 167.185883 65.815677 
L 167.047127 65.918747 
L 166.908386 66.021822 
L 166.769663 66.124902 
L 166.630956 66.227988 
L 166.492266 66.331079 
L 166.353593 66.434175 
L 166.214936 66.537275 
L 166.076296 66.640381 
L 165.937672 66.743493 
L 165.799066 66.846609 
L 165.660476 66.94973 
L 165.521902 67.052857 
L 165.383346 67.155988 
L 165.244805 67.259125 
L 165.106282 67.362267 
L 164.967775 67.465414 
L 164.829285 67.568566 
L 164.690812 67.671723 
L 164.552355 67.774885 
L 164.413915 67.878052 
L 164.275491 67.981224 
L 164.137085 68.084402 
L 163.998694 68.187584 
L 163.860321 68.290772 
L 163.721964 68.393964 
L 163.583624 68.497162 
L 163.4453 68.600364 
L 163.306993 68.703572 
L 163.168703 68.806785 
L 163.030429 68.910002 
L 162.892172 69.013225 
L 162.753931 69.116453 
L 162.615708 69.219686 
L 162.4775 69.322924 
L 162.33931 69.426167 
L 162.201136 69.529415 
L 162.062978 69.632668 
L 161.924838 69.735925 
L 161.786713 69.839188 
L 161.648606 69.942456 
L 161.510515 70.045729 
L 161.372441 70.149007 
L 161.234383 70.25229 
L 161.096342 70.355578 
L 160.958317 70.458871 
L 160.820309 70.562169 
L 160.682318 70.665472 
L 160.544343 70.76878 
L 160.406385 70.872093 
L 160.268444 70.975411 
L 160.130519 71.078733 
L 159.99261 71.182061 
L 159.854719 71.285394 
L 159.716843 71.388731 
L 159.578985 71.492074 
L 159.441143 71.595422 
L 159.303317 71.698774 
L 159.165508 71.802132 
L 159.027716 71.905494 
L 158.88994 72.008861 
L 158.752181 72.112233 
L 158.614439 72.215611 
L 158.476712 72.318993 
L 158.339003 72.42238 
L 158.20131 72.525772 
L 158.063634 72.629169 
L 157.925974 72.73257 
L 157.788331 72.835977 
L 157.650704 72.939389 
L 157.513094 73.042805 
L 157.3755 73.146226 
L 157.237923 73.249653 
L 157.100362 73.353084 
L 157.100362 73.353084 
" clip-path="url(#pec56f7eef8)" style="fill: none; stroke: #0000ff; stroke-width: 0.5; stroke-linecap: square"/>
   </g>
   <g id="line2d_13">
    <path d="M 171.077858 62.931814 
L 171.077858 62.931814 
L 171.289713 62.692345 
L 171.501627 62.452869 
L 171.7136 62.213387 
L 171.925633 61.973897 
L 172.137725 61.734401 
L 172.349876 61.494898 
L 172.562087 61.255388 
L 172.774358 61.015871 
L 172.986687 60.776347 
L 173.199077 60.536817 
L 173.411525 60.297279 
L 173.624034 60.057735 
L 173.836602 59.818184 
L 174.049229 59.578627 
L 174.261916 59.339062 
L 174.474663 59.099491 
L 174.68747 58.859913 
L 174.900336 58.620329 
L 175.113262 58.380737 
L 175.326247 58.141139 
L 175.539293 57.901534 
L 175.752398 57.661923 
L 175.965563 57.422305 
L 176.178788 57.18268 
L 176.392073 56.943049 
L 176.605418 56.703411 
L 176.818822 56.463767 
L 177.032287 56.224115 
L 177.245812 55.984458 
L 177.459396 55.744793 
L 177.673041 55.505123 
L 177.886745 55.265445 
L 178.10051 55.025761 
L 178.314335 54.786071 
L 178.52822 54.546374 
L 178.742165 54.30667 
L 178.956171 54.06696 
L 179.170236 53.827244 
L 179.384362 53.587521 
L 179.598548 53.347792 
L 179.812795 53.108056 
L 180.027101 52.868314 
L 180.241468 52.628565 
L 180.455896 52.38881 
L 180.670384 52.149049 
L 180.884932 51.909281 
L 181.09954 51.669507 
L 181.314209 51.429727 
L 181.528939 51.18994 
L 181.743729 50.950147 
L 181.95858 50.710347 
L 182.173491 50.470542 
L 182.388463 50.23073 
L 182.603495 49.990911 
L 182.818588 49.751087 
L 183.033742 49.511256 
L 183.248957 49.271419 
L 183.464232 49.031576 
L 183.679568 48.791727 
L 183.894964 48.551871 
L 184.110422 48.312009 
L 184.32594 48.072141 
L 184.541519 47.832267 
L 184.757159 47.592387 
L 184.97286 47.352501 
L 185.188622 47.112608 
L 185.404445 46.87271 
L 185.620329 46.632805 
L 185.836274 46.392894 
L 186.052279 46.152977 
L 186.268346 45.913055 
L 186.484474 45.673126 
L 186.700663 45.433191 
L 186.916914 45.19325 
L 187.133225 44.953303 
L 187.349597 44.71335 
L 187.566031 44.473391 
L 187.782526 44.233427 
L 187.999082 43.993456 
L 188.2157 43.753479 
L 188.432379 43.513497 
L 188.649119 43.273508 
L 188.865921 43.033514 
L 189.082784 42.793513 
L 189.299708 42.553507 
L 189.516694 42.313495 
L 189.733741 42.073478 
L 189.95085 41.833454 
L 190.16802 41.593424 
L 190.385252 41.353389 
L 190.602545 41.113348 
L 190.8199 40.873301 
L 191.037317 40.633249 
L 191.254795 40.393191 
L 191.472335 40.153127 
L 191.689937 39.913057 
L 191.9076 39.672982 
L 192.125325 39.4329 
L 192.343112 39.192814 
L 192.560961 38.952721 
L 192.778871 38.712623 
L 192.778871 38.712623 
" clip-path="url(#pec56f7eef8)" style="fill: none; stroke: #0000ff; stroke-width: 0.5; stroke-linecap: square"/>
   </g>
   <g id="line2d_14">
    <path d="M 171.077858 62.931814 
L 171.077858 62.931814 
L 171.293308 63.204674 
L 171.50869 63.477518 
L 171.724003 63.750346 
L 171.939247 64.023158 
L 172.154422 64.295955 
L 172.369529 64.568735 
L 172.584568 64.841499 
L 172.799538 65.114247 
L 173.01444 65.386979 
L 173.229273 65.659696 
L 173.444038 65.932396 
L 173.658735 66.20508 
L 173.873363 66.477748 
L 174.087923 66.7504 
L 174.302415 67.023036 
L 174.516838 67.295655 
L 174.731194 67.568259 
L 174.945481 67.840847 
L 175.1597 68.113418 
L 175.373852 68.385973 
L 175.587935 68.658512 
L 175.80195 68.931035 
L 176.015897 69.203542 
L 176.229777 69.476033 
L 176.443588 69.748507 
L 176.657332 70.020966 
L 176.871008 70.293408 
L 177.084616 70.565834 
L 177.298156 70.838243 
L 177.511629 71.110637 
L 177.725034 71.383014 
L 177.938371 71.655375 
L 178.151641 71.92772 
L 178.364843 72.200048 
L 178.577978 72.47236 
L 178.791045 72.744656 
L 179.004045 73.016936 
L 179.216977 73.289199 
L 179.429842 73.561446 
L 179.64264 73.833677 
L 179.85537 74.105891 
L 180.068033 74.378089 
L 180.280629 74.65027 
L 180.493157 74.922436 
L 180.705619 75.194585 
L 180.918013 75.466717 
L 181.13034 75.738833 
L 181.3426 76.010933 
L 181.554793 76.283016 
L 181.766918 76.555083 
L 181.978977 76.827134 
L 182.190969 77.099168 
L 182.402894 77.371185 
L 182.614753 77.643187 
L 182.826544 77.915171 
L 183.038269 78.187139 
L 183.249926 78.459091 
L 183.461517 78.731026 
L 183.673042 79.002945 
L 183.884499 79.274848 
L 184.09589 79.546733 
L 184.307215 79.818602 
L 184.518473 80.090455 
L 184.729664 80.362291 
L 184.940789 80.634111 
L 185.151847 80.905914 
L 185.362839 81.1777 
L 185.573764 81.44947 
L 185.784624 81.721224 
L 185.995416 81.99296 
L 186.206143 82.264681 
L 186.416803 82.536384 
L 186.627397 82.808071 
L 186.837925 83.079741 
L 187.048387 83.351395 
L 187.258782 83.623032 
L 187.469112 83.894652 
L 187.679375 84.166256 
L 187.889572 84.437843 
L 188.099704 84.709413 
L 188.309769 84.980967 
L 188.519769 85.252504 
L 188.729702 85.524024 
L 188.93957 85.795528 
L 189.149372 86.067015 
L 189.359108 86.338485 
L 189.568778 86.609938 
L 189.778383 86.881375 
L 189.987922 87.152794 
L 190.197395 87.424197 
L 190.406803 87.695584 
L 190.616145 87.966953 
L 190.825422 88.238306 
L 191.034633 88.509642 
L 191.243778 88.780961 
L 191.452858 89.052263 
L 191.661873 89.323549 
L 191.870822 89.594818 
L 192.079706 89.866069 
L 192.288525 90.137304 
L 192.497278 90.408523 
L 192.497278 90.408523 
" clip-path="url(#pec56f7eef8)" style="fill: none; stroke: #0000ff; stroke-width: 0.5; stroke-linecap: square"/>
   </g>
   <g id="line2d_15">
    <path d="M 192.778871 38.712623 
L 192.778871 38.712623 
L 192.202628 38.675318 
L 191.626358 38.63821 
L 191.050064 38.601298 
L 190.473744 38.564583 
L 189.8974 38.528064 
L 189.321031 38.491743 
L 188.744637 38.455618 
L 188.168218 38.41969 
L 187.591775 38.383958 
L 187.015308 38.348424 
L 186.438817 38.313086 
L 185.862301 38.277945 
L 185.285762 38.243002 
L 184.709199 38.208255 
L 184.132612 38.173705 
L 183.556002 38.139352 
L 182.979369 38.105197 
L 182.402712 38.071238 
L 181.826032 38.037476 
L 181.249329 38.003912 
L 180.672604 37.970544 
L 180.095855 37.937374 
L 179.519085 37.904401 
L 178.942291 37.871626 
L 178.365476 37.839047 
L 177.788638 37.806666 
L 177.211778 37.774482 
L 176.634897 37.742495 
L 176.057993 37.710706 
L 175.481068 37.679114 
L 174.904122 37.64772 
L 174.327154 37.616523 
L 173.750165 37.585524 
L 173.173155 37.554721 
L 172.596124 37.524117 
L 172.019072 37.49371 
L 171.441999 37.4635 
L 170.864906 37.433488 
L 170.287793 37.403674 
L 169.710659 37.374057 
L 169.133505 37.344638 
L 168.556331 37.315417 
L 167.979137 37.286393 
L 167.401923 37.257567 
L 166.82469 37.228939 
L 166.247437 37.200509 
L 165.670165 37.172276 
L 165.092874 37.144241 
L 164.515564 37.116404 
L 163.938234 37.088765 
L 163.360886 37.061324 
L 162.783519 37.03408 
L 162.206134 37.007035 
L 161.62873 36.980187 
L 161.051308 36.953538 
L 160.473868 36.927086 
L 159.89641 36.900832 
L 159.318934 36.874777 
L 158.74144 36.848919 
L 158.163929 36.82326 
L 157.5864 36.797798 
L 157.008854 36.772535 
L 156.43129 36.74747 
L 155.85371 36.722603 
L 155.276113 36.697934 
L 154.698499 36.673463 
L 154.120868 36.64919 
L 153.54322 36.625116 
L 152.965557 36.60124 
L 152.387877 36.577562 
L 151.810181 36.554083 
L 151.232469 36.530801 
L 150.654741 36.507719 
L 150.076997 36.484834 
L 149.499238 36.462148 
L 148.921463 36.43966 
L 148.343673 36.41737 
L 147.765868 36.395279 
L 147.188048 36.373387 
L 146.610213 36.351692 
L 146.032363 36.330197 
L 145.454499 36.308899 
L 144.87662 36.287801 
L 144.298727 36.2669 
L 143.720819 36.246199 
L 143.142898 36.225695 
L 142.564962 36.205391 
L 141.987013 36.185285 
L 141.409049 36.165377 
L 140.831073 36.145668 
L 140.253083 36.126158 
L 139.675079 36.106846 
L 139.097063 36.087733 
L 138.519034 36.068819 
L 137.940991 36.050103 
L 137.362936 36.031587 
L 136.784868 36.013268 
L 136.206788 35.995149 
L 135.628696 35.977228 
L 135.050591 35.959506 
L 134.472474 35.941983 
L 134.472474 35.941983 
" clip-path="url(#pec56f7eef8)" style="fill: none; stroke: #0000ff; stroke-width: 0.5; stroke-linecap: square"/>
   </g>
   <g id="line2d_16">
    <path d="M 259.12282 113.194559 
L 259.12282 113.194559 
L 259.305287 113.148731 
L 259.487764 113.102921 
L 259.670251 113.057129 
L 259.852747 113.011355 
L 260.035252 112.965599 
L 260.217767 112.919861 
L 260.400292 112.874141 
L 260.582826 112.828438 
L 260.76537 112.782754 
L 260.947923 112.737087 
L 261.130485 112.691439 
L 261.313057 112.645808 
L 261.495639 112.600196 
L 261.67823 112.554601 
L 261.860831 112.509024 
L 262.043441 112.463465 
L 262.22606 112.417924 
L 262.408689 112.372401 
L 262.591328 112.326896 
L 262.773976 112.281409 
L 262.956633 112.23594 
L 263.1393 112.190489 
L 263.321976 112.145056 
L 263.504662 112.099641 
L 263.687357 112.054244 
L 263.870062 112.008865 
L 264.052776 111.963503 
L 264.2355 111.91816 
L 264.418233 111.872835 
L 264.600975 111.827528 
L 264.783727 111.782238 
L 264.966489 111.736967 
L 265.149259 111.691714 
L 265.33204 111.646479 
L 265.514829 111.601261 
L 265.697628 111.556062 
L 265.880437 111.510881 
L 266.063255 111.465718 
L 266.246082 111.420573 
L 266.428919 111.375446 
L 266.611765 111.330337 
L 266.79462 111.285246 
L 266.977485 111.240172 
L 267.16036 111.195118 
L 267.343243 111.150081 
L 267.526137 111.105062 
L 267.709039 111.060061 
L 267.891951 111.015078 
L 268.074872 110.970113 
L 268.257803 110.925167 
L 268.440743 110.880238 
L 268.623692 110.835328 
L 268.806651 110.790435 
L 268.989619 110.745561 
L 269.172597 110.700704 
L 269.355584 110.655866 
L 269.53858 110.611046 
L 269.721585 110.566244 
L 269.9046 110.52146 
L 270.087625 110.476694 
L 270.270658 110.431946 
L 270.453701 110.387217 
L 270.636754 110.342505 
L 270.819815 110.297812 
L 271.002886 110.253136 
L 271.185967 110.208479 
L 271.369056 110.16384 
L 271.552155 110.119219 
L 271.735263 110.074616 
L 271.918381 110.030031 
L 272.101508 109.985465 
L 272.284644 109.940916 
L 272.46779 109.896386 
L 272.650945 109.851874 
L 272.834109 109.80738 
L 273.017282 109.762904 
L 273.200465 109.718446 
L 273.383657 109.674006 
L 273.566858 109.629585 
L 273.750069 109.585181 
L 273.933289 109.540796 
L 274.116518 109.496429 
L 274.299756 109.452081 
L 274.483004 109.40775 
L 274.666261 109.363437 
L 274.849527 109.319143 
L 275.032803 109.274867 
L 275.216088 109.230609 
L 275.399382 109.186369 
L 275.582685 109.142148 
L 275.765998 109.097945 
L 275.94932 109.053759 
L 276.132651 109.009592 
L 276.315991 108.965444 
L 276.49934 108.921313 
L 276.682699 108.877201 
L 276.866067 108.833107 
L 277.049444 108.789031 
L 277.232831 108.744973 
L 277.416227 108.700934 
L 277.599632 108.656913 
L 277.599632 108.656913 
" clip-path="url(#pec56f7eef8)" style="fill: none; stroke: #0000ff; stroke-width: 0.5; stroke-linecap: square"/>
   </g>
   <g id="line2d_17">
    <path d="M 259.12282 113.194559 
L 259.12282 113.194559 
L 258.721101 113.342661 
L 258.31945 113.490843 
L 257.917867 113.639105 
L 257.516352 113.787447 
L 257.114904 113.935869 
L 256.713525 114.084371 
L 256.312213 114.232952 
L 255.910969 114.381614 
L 255.509793 114.530355 
L 255.108685 114.679176 
L 254.707645 114.828076 
L 254.306673 114.977056 
L 253.905769 115.126116 
L 253.504933 115.275255 
L 253.104166 115.424473 
L 252.703466 115.573771 
L 252.302834 115.723148 
L 251.90227 115.872604 
L 251.501775 116.02214 
L 251.101347 116.171755 
L 250.700988 116.321448 
L 250.300697 116.471221 
L 249.900474 116.621073 
L 249.50032 116.771004 
L 249.100233 116.921014 
L 248.700215 117.071102 
L 248.300265 117.22127 
L 247.900383 117.371516 
L 247.50057 117.521841 
L 247.100825 117.672245 
L 246.701148 117.822727 
L 246.30154 117.973287 
L 245.902 118.123927 
L 245.502529 118.274644 
L 245.103126 118.42544 
L 244.703791 118.576315 
L 244.304525 118.727267 
L 243.905327 118.878298 
L 243.506198 119.029407 
L 243.107137 119.180595 
L 242.708145 119.33186 
L 242.309221 119.483203 
L 241.910366 119.634625 
L 241.51158 119.786124 
L 241.112862 119.937701 
L 240.714213 120.089356 
L 240.315632 120.241089 
L 239.91712 120.3929 
L 239.518677 120.544788 
L 239.120302 120.696754 
L 238.721996 120.848798 
L 238.323759 121.000919 
L 237.925591 121.153117 
L 237.527491 121.305393 
L 237.12946 121.457747 
L 236.731498 121.610177 
L 236.333605 121.762685 
L 235.93578 121.915271 
L 235.538024 122.067933 
L 235.140338 122.220673 
L 234.74272 122.373489 
L 234.345171 122.526383 
L 233.947691 122.679353 
L 233.55028 122.832401 
L 233.152937 122.985525 
L 232.755664 123.138727 
L 232.35846 123.292005 
L 231.961325 123.445359 
L 231.564258 123.598791 
L 231.167261 123.752299 
L 230.770333 123.905883 
L 230.373474 124.059545 
L 229.976684 124.213282 
L 229.579963 124.367096 
L 229.183311 124.520987 
L 228.786729 124.674953 
L 228.390215 124.828996 
L 227.993771 124.983116 
L 227.597396 125.137311 
L 227.20109 125.291583 
L 226.804853 125.44593 
L 226.408685 125.600354 
L 226.012587 125.754853 
L 225.616558 125.909429 
L 225.220599 126.06408 
L 224.824708 126.218807 
L 224.428887 126.37361 
L 224.033135 126.528489 
L 223.637453 126.683443 
L 223.24184 126.838473 
L 222.846296 126.993578 
L 222.450822 127.148759 
L 222.055417 127.304016 
L 221.660081 127.459348 
L 221.264815 127.614755 
L 220.869619 127.770237 
L 220.474492 127.925795 
L 220.079434 128.081428 
L 219.684446 128.237136 
L 219.289527 128.392919 
L 218.894678 128.548778 
L 218.894678 128.548778 
" clip-path="url(#pec56f7eef8)" style="fill: none; stroke: #0000ff; stroke-width: 0.5; stroke-linecap: square"/>
   </g>
   <g id="line2d_18">
    <path d="M 58.217143 57.080322 
L 58.217143 57.080322 
L 58.536796 57.012071 
L 58.856474 56.943878 
L 59.176178 56.875742 
L 59.495907 56.807664 
L 59.815662 56.739643 
L 60.135443 56.67168 
L 60.455249 56.603774 
L 60.77508 56.535926 
L 61.094937 56.468136 
L 61.414819 56.400403 
L 61.734727 56.332728 
L 62.054659 56.265111 
L 62.374618 56.197551 
L 62.694601 56.130049 
L 63.01461 56.062605 
L 63.334644 55.995219 
L 63.654704 55.92789 
L 63.974789 55.860619 
L 64.294899 55.793406 
L 64.615034 55.726251 
L 64.935194 55.659154 
L 65.25538 55.592114 
L 65.575591 55.525132 
L 65.895826 55.458209 
L 66.216088 55.391343 
L 66.536374 55.324535 
L 66.856685 55.257785 
L 67.177021 55.191092 
L 67.497382 55.124458 
L 67.817769 55.057882 
L 68.13818 54.991364 
L 68.458616 54.924904 
L 68.779078 54.858501 
L 69.099564 54.792157 
L 69.420075 54.725871 
L 69.740611 54.659643 
L 70.061172 54.593473 
L 70.381758 54.527361 
L 70.702369 54.461307 
L 71.023005 54.395312 
L 71.343665 54.329374 
L 71.66435 54.263495 
L 71.98506 54.197674 
L 72.305795 54.131911 
L 72.626555 54.066206 
L 72.947339 54.00056 
L 73.268148 53.934971 
L 73.588981 53.869441 
L 73.90984 53.80397 
L 74.230722 53.738556 
L 74.55163 53.673201 
L 74.872562 53.607904 
L 75.193519 53.542666 
L 75.5145 53.477485 
L 75.835506 53.412364 
L 76.156536 53.3473 
L 76.477591 53.282295 
L 76.798671 53.217349 
L 77.119775 53.15246 
L 77.440903 53.087631 
L 77.762056 53.022859 
L 78.083233 52.958146 
L 78.404434 52.893492 
L 78.72566 52.828896 
L 79.046911 52.764359 
L 79.368185 52.69988 
L 79.689484 52.63546 
L 80.010807 52.571098 
L 80.332155 52.506795 
L 80.653527 52.442551 
L 80.974923 52.378365 
L 81.296343 52.314238 
L 81.617787 52.250169 
L 81.939256 52.186159 
L 82.260749 52.122208 
L 82.582266 52.058315 
L 82.903807 51.994481 
L 83.225372 51.930706 
L 83.546961 51.86699 
L 83.868574 51.803332 
L 84.190211 51.739733 
L 84.511873 51.676193 
L 84.833558 51.612712 
L 85.155267 51.549289 
L 85.477001 51.485925 
L 85.798758 51.42262 
L 86.120539 51.359374 
L 86.442344 51.296187 
L 86.764173 51.233059 
L 87.086026 51.16999 
L 87.407902 51.106979 
L 87.729803 51.044028 
L 88.051727 50.981135 
L 88.373675 50.918302 
L 88.695647 50.855527 
L 89.017643 50.792811 
L 89.339662 50.730155 
L 89.661705 50.667557 
L 89.983772 50.605018 
L 90.305862 50.542539 
L 90.627976 50.480118 
L 90.627976 50.480118 
" clip-path="url(#pec56f7eef8)" style="fill: none; stroke: #0000ff; stroke-width: 0.5; stroke-linecap: square"/>
   </g>
   <g id="line2d_19">
    <path d="M 142.105511 69.611078 
L 142.105511 69.611078 
L 142.254293 69.647521 
L 142.40307 69.683976 
L 142.551839 69.720443 
L 142.700603 69.756922 
L 142.84936 69.793413 
L 142.998111 69.829917 
L 143.146856 69.866432 
L 143.295594 69.90296 
L 143.444326 69.9395 
L 143.593052 69.976053 
L 143.741771 70.012617 
L 143.890484 70.049194 
L 144.03919 70.085783 
L 144.187891 70.122384 
L 144.336585 70.158997 
L 144.485272 70.195622 
L 144.633953 70.23226 
L 144.782628 70.268909 
L 144.931297 70.305571 
L 145.079959 70.342245 
L 145.228615 70.378932 
L 145.377265 70.41563 
L 145.525908 70.45234 
L 145.674544 70.489063 
L 145.823175 70.525798 
L 145.971799 70.562545 
L 146.120417 70.599304 
L 146.269028 70.636076 
L 146.417633 70.672859 
L 146.566232 70.709655 
L 146.714824 70.746462 
L 146.86341 70.783282 
L 147.01199 70.820114 
L 147.160563 70.856959 
L 147.30913 70.893815 
L 147.45769 70.930683 
L 147.606244 70.967564 
L 147.754792 71.004457 
L 147.903333 71.041362 
L 148.051868 71.078279 
L 148.200396 71.115208 
L 148.348919 71.152149 
L 148.497434 71.189103 
L 148.645944 71.226068 
L 148.794447 71.263046 
L 148.942943 71.300036 
L 149.091433 71.337037 
L 149.239917 71.374051 
L 149.388395 71.411078 
L 149.536866 71.448116 
L 149.68533 71.485166 
L 149.833788 71.522229 
L 149.98224 71.559303 
L 150.130686 71.59639 
L 150.279125 71.633489 
L 150.427557 71.670599 
L 150.575983 71.707722 
L 150.724403 71.744858 
L 150.872816 71.782005 
L 151.021223 71.819164 
L 151.169624 71.856335 
L 151.318018 71.893519 
L 151.466406 71.930714 
L 151.614787 71.967922 
L 151.763162 72.005142 
L 151.91153 72.042373 
L 152.059892 72.079617 
L 152.208247 72.116873 
L 152.356597 72.154141 
L 152.504939 72.191421 
L 152.653275 72.228713 
L 152.801605 72.266018 
L 152.949929 72.303334 
L 153.098246 72.340662 
L 153.246556 72.378003 
L 153.39486 72.415355 
L 153.543158 72.45272 
L 153.691449 72.490097 
L 153.839734 72.527485 
L 153.988012 72.564886 
L 154.136284 72.602299 
L 154.284549 72.639724 
L 154.432808 72.677161 
L 154.58106 72.71461 
L 154.729306 72.752071 
L 154.877546 72.789544 
L 155.025779 72.827029 
L 155.174006 72.864526 
L 155.322226 72.902035 
L 155.470439 72.939556 
L 155.618647 72.97709 
L 155.766847 73.014635 
L 155.915042 73.052192 
L 156.063229 73.089762 
L 156.211411 73.127343 
L 156.359585 73.164936 
L 156.507754 73.202542 
L 156.655916 73.240159 
L 156.804071 73.277789 
L 156.95222 73.31543 
L 157.100362 73.353084 
L 157.100362 73.353084 
" clip-path="url(#pec56f7eef8)" style="fill: none; stroke: #0000ff; stroke-width: 0.5; stroke-linecap: square"/>
   </g>
   <g id="line2d_20">
    <path d="M 192.497278 90.408523 
L 192.497278 90.408523 
L 192.43959 90.773607 
L 192.381927 91.138617 
L 192.324287 91.503553 
L 192.266672 91.868415 
L 192.209081 92.233202 
L 192.151515 92.597915 
L 192.093972 92.962554 
L 192.036454 93.327119 
L 191.978959 93.691609 
L 191.921489 94.056026 
L 191.864043 94.420369 
L 191.806621 94.784637 
L 191.749223 95.148832 
L 191.691849 95.512953 
L 191.6345 95.877 
L 191.577174 96.240973 
L 191.519872 96.604873 
L 191.462594 96.968699 
L 191.40534 97.332451 
L 191.34811 97.69613 
L 191.290903 98.059735 
L 191.233721 98.423267 
L 191.176563 98.786725 
L 191.119428 99.15011 
L 191.062317 99.513421 
L 191.00523 99.876659 
L 190.948167 100.239823 
L 190.891127 100.602915 
L 190.834112 100.965933 
L 190.77712 101.328878 
L 190.720151 101.69175 
L 190.663207 102.054549 
L 190.606286 102.417274 
L 190.549388 102.779927 
L 190.492515 103.142507 
L 190.435664 103.505014 
L 190.378838 103.867448 
L 190.322035 104.229809 
L 190.265256 104.592097 
L 190.2085 104.954313 
L 190.151768 105.316455 
L 190.095059 105.678526 
L 190.038373 106.040523 
L 189.981711 106.402448 
L 189.925073 106.764301 
L 189.868458 107.126081 
L 189.811866 107.487788 
L 189.755298 107.849423 
L 189.698753 108.210986 
L 189.642232 108.572476 
L 189.585733 108.933894 
L 189.529259 109.29524 
L 189.472807 109.656514 
L 189.416379 110.017715 
L 189.359973 110.378845 
L 189.303592 110.739902 
L 189.247233 111.100887 
L 189.190897 111.461801 
L 189.134585 111.822642 
L 189.078296 112.183411 
L 189.02203 112.544109 
L 188.965787 112.904734 
L 188.909567 113.265288 
L 188.853371 113.62577 
L 188.797197 113.986181 
L 188.741047 114.34652 
L 188.684919 114.706787 
L 188.628815 115.066983 
L 188.572733 115.427107 
L 188.516675 115.787159 
L 188.460639 116.14714 
L 188.404626 116.50705 
L 188.348637 116.866888 
L 188.29267 117.226655 
L 188.236726 117.586351 
L 188.180805 117.945975 
L 188.124906 118.305529 
L 188.069031 118.665011 
L 188.013178 119.024422 
L 187.957349 119.383762 
L 187.901542 119.743031 
L 187.845757 120.102228 
L 187.789996 120.461355 
L 187.734257 120.820411 
L 187.678541 121.179396 
L 187.622847 121.538311 
L 187.567177 121.897154 
L 187.511528 122.255927 
L 187.455903 122.614629 
L 187.4003 122.97326 
L 187.34472 123.331821 
L 187.289162 123.690311 
L 187.233627 124.04873 
L 187.178114 124.40708 
L 187.122624 124.765358 
L 187.067156 125.123566 
L 187.011711 125.481704 
L 186.956289 125.839771 
L 186.900888 126.197769 
L 186.845511 126.555695 
L 186.790155 126.913552 
L 186.790155 126.913552 
" clip-path="url(#pec56f7eef8)" style="fill: none; stroke: #0000ff; stroke-width: 0.5; stroke-linecap: square"/>
   </g>
   <g id="line2d_21">
    <path d="M 186.790155 126.913552 
L 186.790155 126.913552 
L 187.108296 126.926873 
L 187.426432 126.940251 
L 187.744563 126.953686 
L 188.062689 126.967179 
L 188.38081 126.98073 
L 188.698926 126.994338 
L 189.017038 127.008003 
L 189.335144 127.021726 
L 189.653246 127.035507 
L 189.971342 127.049345 
L 190.289434 127.06324 
L 190.607521 127.077193 
L 190.925602 127.091203 
L 191.243679 127.105271 
L 191.56175 127.119396 
L 191.879817 127.133579 
L 192.197878 127.147819 
L 192.515934 127.162117 
L 192.833985 127.176472 
L 193.152031 127.190885 
L 193.470071 127.205355 
L 193.788107 127.219882 
L 194.106137 127.234467 
L 194.424162 127.24911 
L 194.742181 127.26381 
L 195.060196 127.278567 
L 195.378205 127.293381 
L 195.696208 127.308254 
L 196.014207 127.323183 
L 196.3322 127.33817 
L 196.650187 127.353214 
L 196.968169 127.368316 
L 197.286146 127.383475 
L 197.604117 127.398692 
L 197.922083 127.413966 
L 198.240043 127.429297 
L 198.557998 127.444686 
L 198.875947 127.460132 
L 199.193891 127.475636 
L 199.511829 127.491197 
L 199.829761 127.506815 
L 200.147688 127.522491 
L 200.465609 127.538224 
L 200.783524 127.554014 
L 201.101434 127.569862 
L 201.419338 127.585767 
L 201.737237 127.601729 
L 202.055129 127.617749 
L 202.373016 127.633826 
L 202.690897 127.649961 
L 203.008772 127.666153 
L 203.326642 127.682402 
L 203.644505 127.698709 
L 203.962363 127.715073 
L 204.280215 127.731494 
L 204.598061 127.747972 
L 204.915901 127.764508 
L 205.233735 127.781102 
L 205.551563 127.797752 
L 205.869385 127.81446 
L 206.187201 127.831225 
L 206.505011 127.848047 
L 206.822815 127.864927 
L 207.140613 127.881864 
L 207.458405 127.898859 
L 207.77619 127.91591 
L 208.09397 127.933019 
L 208.411743 127.950185 
L 208.72951 127.967409 
L 209.047271 127.984689 
L 209.365026 128.002027 
L 209.682775 128.019423 
L 210.000517 128.036875 
L 210.318253 128.054385 
L 210.635983 128.071952 
L 210.953706 128.089576 
L 211.271423 128.107258 
L 211.589134 128.124997 
L 211.906838 128.142793 
L 212.224536 128.160646 
L 212.542228 128.178556 
L 212.859913 128.196524 
L 213.177592 128.214549 
L 213.495264 128.232631 
L 213.812929 128.25077 
L 214.130588 128.268967 
L 214.448241 128.287221 
L 214.765887 128.305532 
L 215.083526 128.3239 
L 215.401159 128.342325 
L 215.718785 128.360808 
L 216.036405 128.379348 
L 216.354018 128.397944 
L 216.671624 128.416599 
L 216.989223 128.43531 
L 217.306816 128.454078 
L 217.624402 128.472904 
L 217.941981 128.491786 
L 218.259554 128.510726 
L 218.57712 128.529723 
L 218.894678 128.548778 
L 218.894678 128.548778 
" clip-path="url(#pec56f7eef8)" style="fill: none; stroke: #0000ff; stroke-width: 0.5; stroke-linecap: square"/>
   </g>
   <g id="patch_3">
    <path d="M 7.2 168.558526 
L 7.2 7.2 
" style="fill: none; stroke: #000000; stroke-width: 0.8; stroke-linejoin: miter; stroke-linecap: square"/>
   </g>
   <g id="patch_4">
    <path d="M 364.32 168.558526 
L 364.32 7.2 
" style="fill: none; stroke: #000000; stroke-width: 0.8; stroke-linejoin: miter; stroke-linecap: square"/>
   </g>
   <g id="patch_5">
    <path d="M 7.2 168.558526 
L 364.32 168.558526 
" style="fill: none; stroke: #000000; stroke-width: 0.8; stroke-linejoin: miter; stroke-linecap: square"/>
   </g>
   <g id="patch_6">
    <path d="M 7.2 7.2 
L 364.32 7.2 
" style="fill: none; stroke: #000000; stroke-width: 0.8; stroke-linejoin: miter; stroke-linecap: square"/>
   </g>
   <g id="PathCollection_1">
    <defs>
     <path id="m1d6469822c" d="M 0 0.5 
C 0.132602 0.5 0.25979 0.447317 0.353553 0.353553 
C 0.447317 0.25979 0.5 0.132602 0.5 0 
C 0.5 -0.132602 0.447317 -0.25979 0.353553 -0.353553 
C 0.25979 -0.447317 0.132602 -0.5 0 -0.5 
C -0.132602 -0.5 -0.25979 -0.447317 -0.353553 -0.353553 
C -0.447317 -0.25979 -0.5 -0.132602 -0.5 0 
C -0.5 0.132602 -0.447317 0.25979 -0.353553 0.353553 
C -0.25979 0.447317 -0.132602 0.5 0 0.5 
z
" style="stroke: #ff0000"/>
    </defs>
    <g clip-path="url(#pec56f7eef8)">
     <use xlink:href="#m1d6469822c" x="260.029833" y="50.441383" style="fill: #ff0000; stroke: #ff0000"/>
     <use xlink:href="#m1d6469822c" x="313.302857" y="52.325471" style="fill: #ff0000; stroke: #ff0000"/>
     <use xlink:href="#m1d6469822c" x="302.495053" y="86.206176" style="fill: #ff0000; stroke: #ff0000"/>
     <use xlink:href="#m1d6469822c" x="306.81076" y="52.178631" style="fill: #ff0000; stroke: #ff0000"/>
     <use xlink:href="#m1d6469822c" x="126.626036" y="91.074028" style="fill: #ff0000; stroke: #ff0000"/>
     <use xlink:href="#m1d6469822c" x="140.873429" y="102.745997" style="fill: #ff0000; stroke: #ff0000"/>
     <use xlink:href="#m1d6469822c" x="127.601241" y="146.400566" style="fill: #ff0000; stroke: #ff0000"/>
     <use xlink:href="#m1d6469822c" x="97.665826" y="93.748665" style="fill: #ff0000; stroke: #ff0000"/>
     <use xlink:href="#m1d6469822c" x="162.887814" y="131.82543" style="fill: #ff0000; stroke: #ff0000"/>
     <use xlink:href="#m1d6469822c" x="305.805321" y="31.203259" style="fill: #ff0000; stroke: #ff0000"/>
     <use xlink:href="#m1d6469822c" x="171.077858" y="62.931814" style="fill: #ff0000; stroke: #ff0000"/>
     <use xlink:href="#m1d6469822c" x="192.778871" y="38.712623" style="fill: #ff0000; stroke: #ff0000"/>
     <use xlink:href="#m1d6469822c" x="259.12282" y="113.194559" style="fill: #ff0000; stroke: #ff0000"/>
     <use xlink:href="#m1d6469822c" x="277.599632" y="108.656913" style="fill: #ff0000; stroke: #ff0000"/>
     <use xlink:href="#m1d6469822c" x="58.217143" y="57.080322" style="fill: #ff0000; stroke: #ff0000"/>
     <use xlink:href="#m1d6469822c" x="90.627976" y="50.480118" style="fill: #ff0000; stroke: #ff0000"/>
     <use xlink:href="#m1d6469822c" x="134.472474" y="35.941983" style="fill: #ff0000; stroke: #ff0000"/>
     <use xlink:href="#m1d6469822c" x="142.105511" y="69.611078" style="fill: #ff0000; stroke: #ff0000"/>
     <use xlink:href="#m1d6469822c" x="157.100362" y="73.353084" style="fill: #ff0000; stroke: #ff0000"/>
     <use xlink:href="#m1d6469822c" x="192.497278" y="90.408523" style="fill: #ff0000; stroke: #ff0000"/>
     <use xlink:href="#m1d6469822c" x="186.790155" y="126.913552" style="fill: #ff0000; stroke: #ff0000"/>
     <use xlink:href="#m1d6469822c" x="218.894678" y="128.548778" style="fill: #ff0000; stroke: #ff0000"/>
    </g>
   </g>
   <g id="PathCollection_2"/>
  </g>
 </g>
 <defs>
  <clipPath id="pec56f7eef8">
   <rect x="7.2" y="7.2" width="357.12" height="161.358526"/>
  </clipPath>
 </defs>
</svg>
