<?xml version="1.0" encoding="utf-8" standalone="no"?>
<!DOCTYPE svg PUBLIC "-//W3C//DTD SVG 1.1//EN"
  "http://www.w3.org/Graphics/SVG/1.1/DTD/svg11.dtd">
<svg xmlns:xlink="http://www.w3.org/1999/xlink" width="371.52pt" height="170.423019pt" viewBox="0 0 371.52 170.423019" xmlns="http://www.w3.org/2000/svg" version="1.1">
 <metadata>
  <rdf:RDF xmlns:dc="http://purl.org/dc/elements/1.1/" xmlns:cc="http://creativecommons.org/ns#" xmlns:rdf="http://www.w3.org/1999/02/22-rdf-syntax-ns#">
   <cc:Work>
    <dc:type rdf:resource="http://purl.org/dc/dcmitype/StillImage"/>
    <dc:date>2025-12-03T12:07:59.094556</dc:date>
    <dc:format>image/svg+xml</dc:format>
    <dc:creator>
     <cc:Agent>
      <dc:title>Matplotlib v3.10.6, https://matplotlib.org/</dc:title>
     </cc:Agent>
    </dc:creator>
   </cc:Work>
  </rdf:RDF>
 </metadata>
 <defs>
  <style type="text/css">*{stroke-linejoin: round; stroke-linecap: butt}</style>
 </defs>
 <g id="figure_1">
  <g id="patch_1">
   <path d="M 0 170.423019 
L 371.52 170.423019 
L 371.52 0 
L 0 0 
z
" style="fill: #ffffff"/>
  </g>
  <g id="axes_1">
   <g id="patch_2">
    <path d="M 7.2 163.223019 
L 364.32 163.223019 
L 364.32 7.2 
L 7.2 7.2 
z
" style="fill: #ffffff"/>
   </g>
   <g id="matplotlib.axis_1"/>
   <g id="matplotlib.axis_2"/>
   <g id="LineCollection_1">
    <path d="M 113.462146 163.223019 
L 110.276457 161.729897 
L 111.307403 159.162142 
L 109.633402 159.831055 
L 106.467476 158.748713 
L 107.414158 158.6446 
L 106.289553 157.098415 
L 107.921521 156.380337 
L 107.056532 154.81472 
L 108.477841 154.598789 
L 105.313003 154.64725 
L 106.047245 153.734748 
L 102.945408 154.966503 
L 101.644759 153.631289 
L 104.026793 153.894898 
L 104.431893 152.125089 
L 101.596198 153.143011 
L 100.871648 151.604361 
L 101.482759 153.646823 
L 100.105065 152.069902 
L 98.86346 155.222155 
L 97.853086 152.028216 
L 98.830328 149.934361 
L 97.782866 151.97273 
L 95.875853 151.066907 
L 96.91936 151.139632 
L 95.854194 150.729218 
L 96.91936 149.306971 
L 94.703776 150.961998 
L 93.75383 149.018157 
L 91.776202 149.404107 
L 90.87996 148.150037 
L 89.465178 149.162427 
L 88.287661 146.958131 
L 87.034979 148.086084 
L 85.695066 146.76426 
L 85.252186 148.922162 
L 82.724371 149.018746 
L 81.935338 145.652098 
L 78.014005 144.285635 
L 83.66957 143.291542 
L 83.987933 142.02118 
L 82.004865 140.44097 
L 80.385556 141.785717 
L 79.396742 139.572792 
L 80.654567 138.378329 
L 80.600567 139.515421 
L 85.564714 140.221472 
L 83.198899 138.906437 
L 84.111757 138.117741 
L 81.686601 138.679459 
L 83.702009 136.751778 
L 77.56529 138.638401 
L 77.494378 135.212129 
L 80.114369 134.15976 
L 80.557348 132.607396 
L 87.493287 130.841352 
L 89.464783 132.969832 
L 89.929322 131.072829 
L 92.813972 132.02201 
L 93.893182 128.74449 
L 95.449095 129.433478 
L 97.621162 128.071259 
L 97.804426 129.335124 
L 99.576438 127.808546 
L 98.819548 130.434486 
L 100.374769 129.023478 
L 104.631772 135.419156 
L 109.396435 131.613083 
L 109.168863 132.986589 
L 110.335205 132.495136 
L 110.7676 133.900903 
L 112.895064 132.61009 
L 113.857174 134.63575 
L 113.105723 132.39005 
L 114.375317 131.367046 
L 115.563615 131.186899 
L 116.493385 133.31344 
L 121.862334 132.724581 
L 119.101903 130.556278 
L 119.393563 121.158163 
L 115.97989 118.093628 
L 114.310933 111.025829 
L 118.426705 112.69499 
L 123.050236 111.608885 
L 122.472257 114.58602 
L 124.995424 119.047214 
L 126.583085 117.620666 
L 136.251762 120.223152 
L 139.460215 119.012918 
L 145.762099 115.96768 
L 141.711799 116.066926 
L 140.308193 115.251959 
L 142.127382 111.292011 
L 146.977693 108.532125 
L 153.622071 107.206994 
L 159.163801 101.317131 
L 161.053604 101.849212 
L 159.411548 99.940457 
L 159.984087 87.786294 
L 171.867755 83.601328 
L 184.915589 76.715621 
L 188.868273 78.256174 
L 190.985945 76.733538 
L 194.557266 77.890748 
L 190.985945 75.658573 
L 188.890526 77.199729 
L 183.931819 74.123497 
L 189.171108 72.585455 
L 194.274211 76.212072 
L 194.347002 74.002657 
L 191.105121 72.941944 
L 194.011727 73.176717 
L 192.662517 71.741384 
L 199.683512 70.365009 
L 192.045968 67.78984 
L 191.410132 65.119998 
L 193.057529 65.125295 
L 199.230149 54.310516 
L 200.818798 43.760955 
L 202.654602 45.373769 
L 204.749922 44.334866 
L 205.928132 48.242689 
L 208.045408 48.600195 
L 206.910121 50.837535 
L 204.544306 50.98876 
L 204.782361 54.488454 
L 206.101011 54.576436 
L 203.378756 56.223199 
L 207.559012 57.790078 
L 205.819736 56.276994 
L 210.237354 52.597435 
L 215.218413 51.96657 
L 211.891872 50.311641 
L 213.511972 46.45638 
L 208.908914 45.616024 
L 208.60687 41.416655 
L 209.989904 38.35547 
L 215.661688 34.47674 
L 219.561065 35.771235 
L 221.083549 35.780345 
L 219.604284 34.323469 
L 227.781928 32.990729 
L 231.438897 37.493206 
L 234.546471 36.143833 
L 235.756032 38.245955 
L 234.590087 36.089692 
L 230.327743 35.525735 
L 231.407941 30.34846 
L 233.924679 28.24732 
L 242.604147 27.448609 
L 245.422633 31.309948 
L 244.062148 32.908989 
L 245.822688 34.332427 
L 247.215118 33.12678 
L 246.708843 29.773153 
L 250.327043 31.328256 
L 249.720581 35.06736 
L 250.607922 31.328921 
L 249.397965 27.923142 
L 251.828956 23.578909 
L 253.492573 24.897992 
L 259.535138 24.756531 
L 263.138899 29.72714 
L 266.833451 31.528782 
L 263.333042 29.564407 
L 258.612588 23.01044 
L 254.92931 22.671643 
L 253.999936 20.578646 
L 256.191388 20.642294 
L 256.332223 19.25216 
L 253.633013 17.279105 
L 255.620333 14.229807 
L 250.607527 14.580891 
L 251.438989 12.440256 
L 256.310267 10.461291 
L 253.631925 10.833737 
L 255.771553 9.456902 
L 250.024208 7.331537 
L 250.247578 7.2 
L 250.247578 7.2 
" clip-path="url(#pcc1b41ad2e)" style="fill: none; stroke: #000000; stroke-width: 0.05"/>
    <path d="M 269.152974 7.2 
L 269.469266 8.990105 
L 267.069627 10.907255 
L 271.208542 10.675109 
L 270.948926 14.163678 
L 273.303862 11.5292 
L 278.230624 14.459358 
L 283.771265 12.59722 
L 283.275474 16.873096 
L 278.889207 20.024829 
L 280.605736 22.149009 
L 284.388112 20.8625 
L 288.038653 23.451177 
L 289.993929 18.95735 
L 288.698027 19.841329 
L 290.826084 17.82293 
L 296.118681 17.196126 
L 296.972099 19.177961 
L 296.216593 17.241588 
L 301.737553 10.526327 
L 307.515854 11.576815 
L 300.655871 12.866917 
L 300.461728 15.7735 
L 302.336993 12.950629 
L 304.241039 12.602825 
L 305.474534 13.607833 
L 308.261569 11.511173 
L 309.396262 15.061611 
L 313.943046 19.28049 
L 317.346235 17.611453 
L 317.671422 20.650881 
L 319.852786 22.92865 
L 318.599016 24.724682 
L 324.291965 26.616419 
L 323.946701 27.913453 
L 325.22134 27.055432 
L 328.607716 29.999686 
L 327.953781 27.740041 
L 330.82686 22.873559 
L 330.428585 20.678493 
L 348.728368 15.699695 
L 353.739987 9.223022 
L 359.473625 7.2 
" clip-path="url(#pcc1b41ad2e)" style="fill: none; stroke: #000000; stroke-width: 0.05"/>
    <path d="M 139.459819 89.53017 
L 139.395039 89.531421 
L 135.851707 88.65902 
L 129.17568 90.913367 
L 127.565767 89.728517 
L 128.91646 88.676557 
L 124.185226 88.385272 
L 124.616237 89.872403 
L 120.273981 86.895829 
L 122.045993 89.616835 
L 119.345299 91.255107 
L 112.970624 90.708546 
L 114.148537 93.495581 
L 108.002126 92.686812 
L 107.613939 95.153697 
L 103.248243 90.999282 
L 95.90315 93.266221 
L 94.390852 91.596725 
L 95.050523 93.240196 
L 92.996544 94.651987 
L 94.121149 94.669571 
L 93.839577 98.587234 
L 91.722202 96.927883 
L 93.25695 98.78961 
L 92.230257 101.132596 
L 90.610256 101.131977 
L 90.50186 99.91616 
L 89.962058 101.249441 
L 88.448969 98.900853 
L 86.936968 99.645134 
L 84.830175 97.503659 
L 84.711296 99.30636 
L 83.500646 98.273823 
L 77.797609 98.848796 
L 77.224675 101.140324 
L 74.514288 102.801407 
L 74.438728 100.700639 
L 73.239254 101.402123 
L 74.114233 102.69231 
L 71.932078 103.736788 
L 73.876574 104.56161 
L 71.996561 106.418087 
L 68.291229 103.00352 
L 67.168206 104.53635 
L 65.363754 104.308522 
L 65.883381 102.236502 
L 68.983735 101.975237 
L 72.6231 98.553294 
L 74.157453 94.447339 
L 76.684872 95.008267 
L 75.454542 93.648561 
L 77.267895 93.427963 
L 80.293776 89.675493 
L 80.768699 84.743943 
L 83.155679 85.420404 
L 86.731352 83.557723 
L 84.788043 83.643199 
L 84.61368 81.319875 
L 90.39386 80.12133 
L 95.319831 81.4319 
L 99.834966 81.51804 
L 100.84 77.157256 
L 104.59864 75.112216 
L 108.553797 69.440507 
L 107.81817 68.321721 
L 104.307673 73.158574 
L 101.779462 74.183116 
L 100.786395 73.105894 
L 98.36658 76.818994 
L 95.340699 77.304317 
L 91.204355 75.249907 
L 89.789277 72.131809 
L 83.630998 73.558279 
L 84.430021 71.732777 
L 86.532956 71.511516 
L 83.317778 71.079685 
L 83.264075 68.593146 
L 75.291355 72.828277 
L 73.012771 71.061502 
L 76.068421 70.284237 
L 73.389782 69.884266 
L 72.331836 71.069796 
L 71.327495 69.893529 
L 73.20721 69.08973 
L 72.990815 67.430924 
L 70.484956 67.273355 
L 73.735442 63.671402 
L 76.869323 63.899489 
L 78.122796 61.861626 
L 84.960428 58.752092 
L 86.839451 53.085952 
L 88.41732 52.623623 
L 85.911066 51.468021 
L 88.071661 48.654266 
L 86.807704 49.018798 
L 85.650758 47.170333 
L 86.850528 44.70995 
L 82.48592 45.336721 
L 80.735864 47.840905 
L 77.636302 47.456939 
L 85.025307 38.463651 
L 89.508398 36.647679 
L 89.983322 37.786942 
L 89.205167 35.690403 
L 92.705576 36.739348 
L 96.508129 35.345461 
L 99.554878 38.020938 
L 97.902437 34.630815 
L 99.986186 33.48052 
L 102.08299 36.721147 
L 104.707332 35.373797 
L 101.995561 35.799723 
L 99.175988 31.218571 
L 100.818439 27.941516 
L 102.806847 27.521643 
L 100.169845 26.918984 
L 99.802922 24.651259 
L 99.910626 22.984073 
L 100.980835 24.349121 
L 100.580384 22.78235 
L 102.504012 22.046296 
L 102.632188 20.265734 
L 102.104253 21.505643 
L 101.53033 20.541264 
L 103.172287 15.949863 
L 101.455066 17.990286 
L 99.890054 16.226524 
L 98.603844 19.906375 
L 97.772382 15.671932 
L 96.346128 17.076123 
L 92.241136 9.976951 
L 93.309664 7.2 
L 93.309664 7.2 
" clip-path="url(#pcc1b41ad2e)" style="fill: none; stroke: #000000; stroke-width: 0.05"/>
    <path d="M 76.491451 7.2 
L 76.501312 7.228342 
L 76.480109 7.2 
" clip-path="url(#pcc1b41ad2e)" style="fill: none; stroke: #000000; stroke-width: 0.05"/>
    <path d="M 123.953742 7.2 
L 123.741258 8.356699 
L 124.490073 7.2 
" clip-path="url(#pcc1b41ad2e)" style="fill: none; stroke: #000000; stroke-width: 0.05"/>
    <path d="M 125.434158 7.2 
L 132.113341 10.619957 
L 134.738673 15.820556 
L 138.454786 18.607772 
L 136.660817 20.688259 
L 139.459819 26.451965 
L 139.460215 26.452634 
L 140.885776 30.665126 
L 139.459819 29.961517 
L 138.119609 29.299739 
L 136.02419 26.909953 
L 129.337779 27.940848 
L 130.169538 29.226179 
L 131.493429 27.838612 
L 135.656179 27.54905 
L 136.553509 28.926206 
L 139.459819 31.265343 
L 141.630403 32.671868 
L 144.09413 39.274358 
L 139.459819 45.397539 
L 139.362204 45.526047 
L 139.459819 45.471466 
L 139.826347 45.266882 
L 144.319922 47.716476 
L 146.524429 43.545811 
L 156.332854 44.478125 
L 161.421912 48.849942 
L 162.350297 54.22121 
L 159.952834 62.556855 
L 156.570513 65.811705 
L 154.604457 63.723968 
L 156.041491 65.277767 
L 153.210544 65.399405 
L 156.192809 65.470006 
L 155.480523 68.216936 
L 152.985049 69.221906 
L 152.033323 67.52635 
L 152.293037 68.872007 
L 148.436782 70.08547 
L 151.611707 69.735411 
L 150.609542 72.359933 
L 151.548312 72.923956 
L 142.754613 75.527292 
L 148.44687 75.36376 
L 146.253637 77.105273 
L 148.512046 77.322064 
L 149.181804 75.934886 
L 151.201168 76.58623 
L 151.213136 77.875228 
L 149.21464 77.156622 
L 151.082784 78.151373 
L 157.95325 77.044727 
L 157.533019 82.009015 
L 152.930357 84.175402 
L 152.09929 87.0163 
L 149.440728 86.536367 
L 142.570953 90.674952 
L 139.459819 89.53017 
" clip-path="url(#pcc1b41ad2e)" style="fill: none; stroke: #000000; stroke-width: 0.05"/>
    <path d="M 35.754425 67.317234 
L 35.732864 67.334688 
L 33.464269 68.888793 
L 32.2644 68.251332 
L 33.486225 67.264707 
L 29.769717 66.441518 
L 32.178356 68.601302 
L 31.260553 70.337075 
L 28.818782 70.73861 
L 28.840343 72.602335 
L 25.880824 71.819163 
L 26.506275 73.367199 
L 24.281296 72.288571 
L 23.828625 74.009017 
L 20.975326 73.50578 
L 18.276115 75.519989 
L 18.589039 73.948592 
L 17.389961 74.930186 
L 16.84907 73.558279 
L 12.744474 75.970114 
L 11.869792 75.19893 
L 15.737124 72.402143 
L 11.674957 73.96672 
L 16.849466 70.024475 
L 7.699624 72.489265 
L 15.585509 66.817954 
L 8.099284 69.884266 
L 7.2 69.259635 
" clip-path="url(#pcc1b41ad2e)" style="fill: none; stroke: #000000; stroke-width: 0.05"/>
    <path d="M 7.2 67.973043 
L 7.386305 67.404024 
L 7.2 67.543654 
" clip-path="url(#pcc1b41ad2e)" style="fill: none; stroke: #000000; stroke-width: 0.05"/>
    <path d="M 7.2 64.133018 
L 12.949694 61.043213 
L 7.2 61.899444 
" clip-path="url(#pcc1b41ad2e)" style="fill: none; stroke: #000000; stroke-width: 0.05"/>
    <path d="M 7.2 58.332149 
L 7.472745 58.195214 
L 7.451481 59.483533 
L 8.682998 59.130807 
L 9.568065 57.718251 
L 10.368175 59.448977 
L 13.402661 58.909639 
L 11.393781 58.556535 
L 11.9771 56.295141 
L 10.486362 55.498617 
L 14.559607 54.408581 
L 14.710135 52.028748 
L 16.589455 52.77456 
L 26.711891 50.490342 
L 23.212569 49.829992 
L 23.37457 47.608058 
L 20.630754 51.281201 
L 18.751434 51.921969 
L 19.269578 50.801355 
L 17.411917 51.584297 
L 15.121366 50.195859 
L 13.738233 52.028097 
L 10.594362 52.535294 
L 16.362575 48.350217 
L 18.415863 44.271517 
L 16.579762 44.325184 
L 19.280358 39.796956 
L 23.698273 40.058144 
L 24.357647 38.554315 
L 22.164316 38.400396 
L 23.666229 37.270982 
L 22.337492 37.064584 
L 15.942344 38.310212 
L 15.531509 36.847718 
L 14.796179 38.075132 
L 15.510641 34.803435 
L 12.701551 36.756887 
L 11.005594 36.042667 
L 11.880275 33.806903 
L 10.367483 35.111285 
L 7.440998 34.215301 
L 9.513768 32.800157 
L 7.342789 30.973691 
L 14.051947 29.854505 
L 10.919154 28.889162 
L 11.026462 26.461 
L 15.650388 25.639638 
L 15.315113 23.432376 
L 10.507923 24.101905 
L 10.994714 22.222633 
L 12.430759 23.185249 
L 10.940022 20.521562 
L 11.934572 18.644221 
L 10.09778 19.951703 
L 11.04911 18.717114 
L 9.806812 16.327523 
L 8.16446 19.279815 
L 8.347427 15.930738 
L 9.71968 14.551907 
L 11.221297 15.393917 
L 10.260175 16.56771 
L 12.981738 15.735921 
L 11.523737 14.598179 
L 12.614419 13.718961 
L 19.26849 14.441389 
L 20.910546 18.229362 
L 22.03436 14.811708 
L 29.03409 16.586652 
L 27.554529 15.671255 
L 29.498629 15.19238 
L 28.224287 14.580382 
L 29.132398 14.06244 
L 26.885067 13.340222 
L 33.108126 10.218812 
L 32.178356 9.66056 
L 33.980215 7.2 
" clip-path="url(#pcc1b41ad2e)" style="fill: none; stroke: #000000; stroke-width: 0.05"/>
    <path d="M 33.354487 7.2 
L 29.682288 8.721307 
L 30.655179 7.210914 
L 26.85233 7.565391 
L 26.535608 7.2 
" clip-path="url(#pcc1b41ad2e)" style="fill: none; stroke: #000000; stroke-width: 0.05"/>
    <path d="M 63.139732 7.2 
L 62.858587 7.630121 
L 64.15445 7.2 
" clip-path="url(#pcc1b41ad2e)" style="fill: none; stroke: #000000; stroke-width: 0.05"/>
    <path d="M 67.547885 7.2 
L 69.058207 10.517474 
L 68.096789 13.959834 
L 67.372734 9.492354 
L 65.796249 8.357211 
L 65.795853 13.060988 
L 67.849437 14.413079 
L 66.065952 16.34647 
L 64.002577 15.060933 
L 63.05273 18.975905 
L 60.901927 20.75274 
L 58.071573 18.874523 
L 59.887201 21.744478 
L 56.506264 20.962821 
L 58.882167 25.785317 
L 57.284122 27.540527 
L 60.654872 31.074248 
L 59.034079 33.035417 
L 61.000234 35.282821 
L 58.665771 35.33817 
L 60.502959 37.200534 
L 61.756433 43.751431 
L 57.067726 57.019432 
L 55.101571 56.859624 
L 56.084253 58.494789 
L 56.938462 57.285232 
L 57.607133 59.26261 
L 56.991671 60.735741 
L 54.031757 60.787988 
L 51.428381 60.056593 
L 51.785909 58.777948 
L 49.667545 61.773035 
L 49.128138 59.254211 
L 48.393203 61.579556 
L 40.37756 62.124289 
L 41.728253 63.224069 
L 41.101418 64.488177 
L 39.167702 65.653544 
L 37.223602 64.496208 
L 37.44969 66.836059 
L 35.754425 67.317234 
" clip-path="url(#pcc1b41ad2e)" style="fill: none; stroke: #000000; stroke-width: 0.05"/>
    <path d="M 294.690634 7.2 
L 294.650592 8.888462 
L 293.953371 7.2 
" clip-path="url(#pcc1b41ad2e)" style="fill: none; stroke: #000000; stroke-width: 0.05"/>
    <path d="M 289.056555 7.2 
L 288.621675 8.087032 
L 287.096163 7.2 
" clip-path="url(#pcc1b41ad2e)" style="fill: none; stroke: #000000; stroke-width: 0.05"/>
    <path d="M 199.71694 70.369638 
L 201.524656 68.636163 
L 200.631578 69.794189 
L 202.050316 70.398689 
L 199.789039 70.352239 
L 199.71694 70.369638 
" clip-path="url(#pcc1b41ad2e)" style="fill: none; stroke: #000000; stroke-width: 0.05"/>
   </g>
   <g id="LineCollection_2">
    <path d="M 296.231428 99.021531 
L 299.252562 102.157759 
L 301.740718 97.576577 
L 302.517488 97.512813 
L 303.294159 97.449045 
L 304.070928 97.385273 
L 304.847698 97.321497 
L 305.624369 97.257561 
L 306.401139 97.193932 
L 307.17781 97.129987 
L 307.793865 97.079388 
L 308.470844 96.478508 
L 309.147921 95.876943 
L 309.824999 95.275157 
L 310.501977 94.672994 
L 311.179055 94.070455 
L 311.856033 93.467537 
L 312.53311 92.864085 
L 312.907056 92.530715 
L 314.034134 93.342265 
L 315.186431 91.167029 
L 315.963102 91.101745 
L 316.739872 91.036457 
L 317.516543 90.971321 
L 318.293214 90.906181 
L 319.069885 90.84088 
L 319.114983 90.837131 
L 319.748742 89.476665 
L 320.509589 89.221148 
L 321.270436 88.965562 
L 322.031282 88.709752 
L 322.792129 88.45403 
L 323.552877 88.19824 
L 324.313724 87.942224 
L 325.07457 87.686454 
L 325.835417 87.430302 
L 326.007109 87.372603 
L 324.264273 85.423861 
L 324.908812 84.08431 
L 327.497847 84.176032 
L 328.970683 88.102986 
L 330.882739 88.912652 
L 333.975873 87.903362 
L 334.191874 84.593938 
L 336.14715 84.782935 
L 336.655798 85.717933 
L 337.164348 86.652018 
L 337.672997 87.585193 
L 338.181547 88.517458 
L 338.690097 89.448817 
L 338.829844 89.70443 
L 339.605823 89.788889 
L 340.381702 89.873341 
L 341.157681 89.957942 
L 341.933659 90.042379 
L 342.709638 90.126809 
L 343.485518 90.211231 
L 344.261496 90.295646 
L 344.479573 90.319406 
L 346.996608 93.331046 
L 348.278565 92.138881 
L 351.666919 92.473947 
L 352.678876 93.93218 
L 349.520863 96.921208 
L 350.150171 97.63832 
L 350.779479 98.355053 
L 351.408787 99.071255 
L 352.037997 99.786925 
L 352.667404 100.502065 
L 353.296613 101.216522 
L 353.92602 101.930605 
L 354.555229 102.644007 
L 355.184636 103.357038 
L 355.192252 103.365674 
L 355.934703 103.004445 
L 356.677253 102.642773 
L 357.419605 102.281274 
L 358.162155 101.919331 
L 358.904606 101.557562 
L 359.647057 101.195502 
L 360.222662 100.914631 
L 358.411386 96.649805 
L 359.178562 96.851501 
L 359.94564 97.053 
L 360.712816 97.254457 
L 361.479894 97.456027 
L 362.246971 97.657555 
L 362.455257 97.712158 
L 364.32 99.411925 
" clip-path="url(#pcc1b41ad2e)" style="fill: none; stroke: #000000; stroke-width: 0.05"/>
    <path d="M 237.835924 153.086413 
L 236.824066 150.809462 
L 238.286023 145.605861 
L 237.706265 142.756569 
L 238.04421 141.706673 
L 238.382155 140.65567 
L 238.720199 139.603408 
L 239.058145 138.550329 
L 239.39609 137.495836 
L 239.734035 136.440521 
L 240.071981 135.383784 
L 240.410025 134.326069 
L 240.74797 133.267224 
L 240.972278 132.563841 
L 241.575971 131.821312 
L 242.179565 131.078226 
L 242.783257 130.334581 
L 243.38695 129.590375 
L 243.990643 128.845608 
L 244.594336 128.100278 
L 245.197929 127.354384 
L 245.801622 126.607926 
L 246.117908 126.216483 
L 245.347666 126.05257 
L 244.577325 125.888328 
L 243.807082 125.72436 
L 243.036741 125.560064 
L 242.266499 125.396041 
L 241.496158 125.23169 
L 240.725915 125.067462 
L 239.955574 124.903206 
L 239.185233 124.738923 
L 238.649683 124.624709 
L 235.754549 122.017249 
L 233.932592 123.316253 
L 230.771018 123.305375 
L 229.301841 121.141053 
L 226.712806 122.226609 
L 226.253113 121.266574 
L 225.793421 120.3056 
L 225.333827 119.343682 
L 224.874134 118.380818 
L 224.414442 117.417007 
L 224.246211 117.063848 
L 221.934396 116.38271 
L 222.26255 115.297202 
L 222.590704 114.210334 
L 222.918858 113.122406 
L 223.247012 112.033263 
L 223.575166 110.942901 
L 223.90332 109.851316 
L 224.037332 109.405144 
L 220.515659 107.930952 
L 218.700822 104.370298 
L 219.485801 100.852789 
L 222.402495 99.010223 
L 222.092836 96.627288 
L 219.637021 94.895485 
L 220.749758 92.945149 
L 217.609744 91.007717 
L 218.279503 86.9043 
L 215.478029 84.273407 
L 216.206831 83.841354 
L 216.935634 83.408791 
L 217.664437 82.976347 
L 218.39324 82.543549 
L 219.122042 82.110554 
L 219.439021 81.922289 
L 218.229064 80.2098 
L 220.126779 77.635437 
L 219.728603 76.564664 
L 219.330427 75.492682 
L 218.93235 74.41949 
L 218.534174 73.345082 
L 218.135998 72.269455 
L 217.737821 71.192765 
L 217.339744 70.114689 
L 216.941568 69.035384 
L 216.569106 68.024775 
L 219.40302 67.768393 
L 219.251801 66.333639 
L 222.470935 67.960606 
L 223.229309 67.681155 
L 223.987683 67.401462 
L 224.746057 67.121846 
L 225.504432 66.842147 
L 226.262806 66.562365 
L 226.914466 66.321937 
L 227.998323 64.820759 
L 226.208608 62.942407 
L 226.911301 62.399757 
L 227.613994 61.856794 
L 228.316686 61.313518 
L 229.01928 60.769927 
L 229.721973 60.226023 
L 230.424666 59.681803 
L 230.889798 59.321399 
L 230.08316 54.61734 
L 227.098125 54.605329 
L 226.169047 52.712431 
L 227.144905 50.53061 
L 230.871798 50.696717 
L 231.190655 49.526979 
L 231.509513 48.355446 
L 231.82837 47.182604 
L 232.147129 46.008285 
L 232.465986 44.83232 
L 232.784843 43.655196 
L 232.999953 42.86014 
L 232.942393 41.570075 
L 232.884833 40.278382 
L 232.827272 38.98456 
L 232.769712 37.689261 
L 232.712151 36.391983 
L 232.704635 36.223467 
L 230.148039 36.024618 
L 228.858961 33.259158 
L 228.117796 32.862799 
L 227.37673 32.466104 
L 226.635564 32.069239 
L 225.894498 31.672369 
L 225.153431 31.274996 
L 224.412266 30.877785 
L 223.671199 30.480237 
L 222.930034 30.082517 
L 222.539374 29.872841 
" clip-path="url(#pcc1b41ad2e)" style="fill: none; stroke: #000000; stroke-width: 0.05"/>
    <path d="M 262.75444 163.223019 
L 262.296656 163.163201 
L 262.498316 160.167166 
L 264.85335 156.731331 
L 263.477734 153.94017 
" clip-path="url(#pcc1b41ad2e)" style="fill: none; stroke: #000000; stroke-width: 0.05"/>
    <path d="M 265.605889 154.014299 
L 266.344187 152.894163 
L 268.616243 153.801126 
L 270.363234 157.407257 
L 272.091235 156.991794 
L 271.338102 159.032417 
L 274.637248 156.93439 
L 275.21671 152.963383 
L 275.554952 153.950865 
L 276.332809 153.950865 
L 277.110568 153.950865 
L 277.888426 153.950865 
L 278.666185 153.950865 
L 279.443943 153.950865 
L 280.221702 153.950865 
L 280.53156 153.950865 
L 281.773462 156.650973 
L 285.547036 156.599248 
L 286.234696 156.062262 
L 286.922454 155.52499 
L 287.610114 154.987432 
L 288.297873 154.449733 
L 288.985533 153.911601 
L 289.673292 153.373327 
L 290.326534 152.861605 
L 291.104095 152.835205 
L 291.881755 152.809098 
L 292.659316 152.782697 
L 293.436877 152.756589 
L 294.214438 152.730187 
L 294.992098 152.704077 
L 295.769659 152.677673 
L 296.54722 152.651562 
L 297.32488 152.625157 
L 297.559968 152.617235 
L 298.352067 150.043202 
L 298.295001 151.125969 
L 300.743695 150.900722 
L 301.734092 152.178805 
L 305.121457 151.376283 
L 305.514193 153.716578 
L 308.669437 154.787786 
L 309.018163 151.174157 
L 306.824733 150.403764 
L 308.096404 147.899212 
L 307.566986 147.049889 
L 307.037568 146.199549 
L 306.50815 145.348634 
L 305.978732 144.496994 
L 305.449314 143.644479 
L 304.919896 142.791532 
L 304.847896 142.67538 
L 305.57482 142.261034 
L 306.301842 141.846516 
L 307.028766 141.431825 
L 307.755788 141.016961 
L 308.482712 140.601925 
L 309.209734 140.186716 
L 309.936658 139.771333 
L 310.663681 139.355629 
L 311.390604 138.939899 
L 312.117528 138.523996 
L 312.84455 138.107918 
L 313.101594 137.960701 
L 313.792518 134.001644 
L 317.401422 134.9964 
L 318.801467 130.005092 
L 316.101267 126.436548 
L 314.343398 126.588501 
L 313.677001 125.977836 
L 313.010605 125.36649 
L 312.344209 124.754915 
L 311.677813 124.14296 
L 311.011318 123.530473 
L 310.364999 122.936345 
L 308.329811 119.602298 
L 307.598338 119.196824 
L 306.866865 118.791183 
L 306.135392 118.385374 
L 305.40382 117.979548 
L 304.672347 117.57325 
L 303.940873 117.167088 
L 303.634577 116.99679 
L 303.135719 116.078798 
L 302.636862 115.159943 
L 302.138004 114.240223 
L 301.639146 113.319788 
L 301.140289 112.39833 
L 300.641431 111.476 
L 300.239497 110.732181 
L 302.072433 107.203308 
L 301.370729 106.681998 
L 300.669025 106.160562 
L 299.967321 105.638846 
L 299.265617 105.116848 
L 298.563913 104.59457 
L 298.398749 104.47135 
L 297.988111 103.442005 
L 297.577572 102.411565 
L 297.167033 101.379871 
L 296.756396 100.34723 
L 296.345857 99.313484 
L 296.227373 99.01487 
" clip-path="url(#pcc1b41ad2e)" style="fill: none; stroke: #000000; stroke-width: 0.05"/>
    <path d="M 353.399323 163.223019 
L 353.378602 163.011047 
L 353.268129 161.879918 
L 353.157756 160.747816 
L 353.047283 159.614446 
L 352.93681 158.47966 
L 352.826437 157.343598 
L 352.729217 156.342922 
L 354.943713 155.949099 
L 356.124791 153.881566 
L 355.453944 153.298564 
L 354.783097 152.714932 
L 354.112152 152.131253 
L 353.441206 151.547236 
L 352.770261 150.962732 
L 352.711217 150.911155 
L 355.109471 149.712082 
L 356.747868 151.157262 
L 357.522858 151.061618 
L 358.298045 150.965818 
L 359.073232 150.870156 
L 359.848222 150.774485 
L 360.623409 150.678657 
L 361.036421 150.627653 
L 360.039002 147.631517 
L 362.307499 144.631862 
L 363.012664 145.122379 
L 363.717928 145.612656 
L 364.32 146.031066 
" clip-path="url(#pcc1b41ad2e)" style="fill: none; stroke: #000000; stroke-width: 0.05"/>
    <path d="M 226.596384 163.223019 
L 226.940378 162.791486 
L 227.531708 162.049246 
L 228.123038 161.306462 
L 228.714368 160.563278 
L 229.305698 159.819257 
L 229.897028 159.07498 
L 230.488358 158.330009 
L 231.001458 157.683164 
L 228.660862 157.459817 
L 230.0796 154.771977 
L 232.769514 154.809304 
L 233.403174 156.236514 
L 234.108636 155.752276 
L 234.814098 155.267806 
L 235.51956 154.783102 
L 236.225022 154.298165 
L 236.930484 153.812995 
L 237.635847 153.327591 
L 238.341309 152.841805 
L 238.505683 152.72872 
L 238.909002 153.902957 
L 239.678156 153.731817 
L 240.447311 153.560649 
L 241.216465 153.389452 
L 241.985619 153.218225 
L 242.754774 153.046969 
L 243.524027 152.875684 
L 244.293182 152.704517 
L 245.062336 152.533174 
L 245.743468 152.381464 
L 246.519941 152.449398 
L 247.296316 152.517182 
L 248.072789 152.585255 
L 248.849262 152.653029 
L 249.625636 152.720946 
L 250.402109 152.788858 
L 250.629878 152.808805 
L 251.223978 151.638575 
L 248.436943 150.798881 
L 250.503779 148.811726 
L 251.206077 149.309473 
L 251.908275 149.806972 
L 252.610473 150.304372 
L 253.312771 150.801232 
L 254.014969 151.29814 
L 254.717266 151.794655 
L 254.738431 151.809631 
L 255.515893 151.773073 
L 256.293256 151.73666 
L 257.070619 151.700247 
L 257.848082 151.663538 
L 258.625445 151.627122 
L 259.402907 151.590704 
L 259.520401 151.585124 
L 260.270567 151.890083 
L 261.020831 152.194949 
L 261.770996 152.499576 
L 262.521162 152.804405 
L 263.271327 153.108847 
L 264.021493 153.413345 
L 264.771658 153.71775 
L 265.521823 154.022063 
L 265.569889 154.041546 
" clip-path="url(#pcc1b41ad2e)" style="fill: none; stroke: #000000; stroke-width: 0.05"/>
    <path d="M 364.32 128.94618 
L 363.600829 128.868895 
L 362.824949 128.785509 
L 362.049169 128.702267 
L 361.3893 128.63134 
L 359.081936 133.053015 
" clip-path="url(#pcc1b41ad2e)" style="fill: none; stroke: #000000; stroke-width: 0.05"/>
    <path d="M 221.934396 116.38271 
L 220.216779 115.418297 
L 216.950766 116.609859 
L 214.224951 114.4418 
L 210.407959 115.462618 
L 207.854924 111.612249 
L 207.09655 111.345238 
L 206.338176 111.078154 
L 205.579802 110.811149 
L 204.821427 110.544071 
L 204.063053 110.276766 
L 203.30458 110.009388 
L 202.546206 109.74209 
L 202.460854 109.711909 
L 202.403195 108.50973 
L 202.345535 107.305908 
L 202.287876 106.100591 
L 202.230217 104.893929 
L 202.172458 103.685608 
L 202.114799 102.475778 
L 202.100755 102.180302 
L 201.458194 102.864359 
L 200.815732 103.547934 
L 200.173171 104.231026 
L 199.530709 104.913637 
L 198.888148 105.595767 
L 198.245686 106.277418 
L 197.930983 106.611301 
L 197.156389 106.501556 
L 196.381795 106.391799 
L 195.607201 106.28203 
L 194.832607 106.172402 
L 194.058013 106.062608 
L 193.283419 105.952955 
L 193.267793 105.950648 
L 194.113991 100.188348 
L 191.744616 98.344512 
L 190.975857 98.529891 
L 190.207098 98.714925 
L 189.438339 98.900233 
L 188.66958 99.085505 
L 187.900822 99.270432 
L 187.506404 99.365515 
L 186.339667 95.580683 
L 185.569227 95.413705 
L 184.798688 95.246543 
L 184.028247 95.079507 
L 183.257708 94.912287 
L 182.487169 94.745193 
L 181.979015 94.635026 
L 180.290179 89.488086 
L 177.085385 91.411567 
L 175.756747 90.768856 
L 173.207272 88.199806 
L 172.407854 83.293534 
" clip-path="url(#pcc1b41ad2e)" style="fill: none; stroke: #000000; stroke-width: 0.05"/>
    <path d="M 297.348141 163.223019 
L 297.470067 162.465252 
L 296.719308 162.763602 
L 295.968549 163.061864 
L 295.562563 163.223019 
" clip-path="url(#pcc1b41ad2e)" style="fill: none; stroke: #000000; stroke-width: 0.05"/>
    <path d="M 331.682059 87.931882 
L 332.040279 86.837314 
L 332.398499 85.741493 
L 332.75662 84.644571 
L 333.11484 83.546074 
L 333.47306 82.446627 
L 333.83128 81.345753 
L 334.1895 80.243606 
L 334.411533 79.559669 
L 333.313334 75.446958 
L 330.48664 74.23224 
L 330.73508 71.27011 
L 328.714925 68.1587 
L 329.1402 67.104548 
L 329.565475 66.049377 
L 329.99075 64.992865 
L 330.416025 63.935168 
L 330.8413 62.876443 
L 330.84308 62.872099 
L 330.392783 61.839882 
L 329.942486 60.80637 
L 329.49209 59.771882 
L 329.041793 58.736255 
L 328.591496 57.699484 
L 328.141199 56.661567 
L 327.879605 56.05807 
L 329.258683 52.268143 
L 328.57132 51.669296 
L 327.883858 51.069903 
L 327.196495 50.470125 
L 326.509033 49.869962 
L 325.82167 49.269576 
L 325.134307 48.668804 
L 324.446844 48.067482 
L 323.759481 47.465771 
L 323.072118 46.863672 
L 322.586217 46.438042 
L 323.063019 45.419996 
L 323.539822 44.401001 
L 324.016624 43.380889 
L 324.493427 42.359492 
L 324.970131 41.336972 
L 325.446933 40.31349 
L 325.923736 39.288879 
L 326.400439 38.26297 
L 326.774088 37.458322 
L 326.527231 36.224626 
L 326.280373 34.989119 
L 326.033417 33.751961 
L 325.78656 32.513145 
L 325.539702 31.272833 
L 325.292845 30.030686 
L 325.045889 28.787031 
L 324.799032 27.54153 
L 324.552174 26.294343 
L 324.305317 25.045464 
L 324.05846 23.795056 
L 323.868273 22.830559 
" clip-path="url(#pcc1b41ad2e)" style="fill: none; stroke: #000000; stroke-width: 0.05"/>
    <path d="M 318.787324 129.982882 
L 321.826458 133.370123 
L 325.358911 134.240901 
L 327.026187 132.405769 
L 330.022101 133.751117 
L 331.520058 129.775165 
L 333.532994 129.971927 
L 334.242313 125.140908 
L 335.97793 126.605968 
L 337.673986 125.623977 
L 338.41258 125.995465 
L 339.151174 126.366813 
L 339.889768 126.738021 
L 340.628362 127.109089 
L 341.366956 127.480018 
L 342.10555 127.850807 
L 342.834056 128.216496 
L 344.796453 127.898932 
L 348.210126 130.441686 
L 351.749798 130.747486 
L 353.917514 129.223093 
L 354.664614 129.551641 
L 355.411713 129.87993 
L 356.158813 130.20826 
L 356.905912 130.53648 
L 357.653012 130.864592 
L 358.400111 131.192595 
L 358.778705 131.358653 
L 359.246804 134.355204 
L 357.770506 137.917232 
L 358.324155 138.739109 
L 358.877804 139.560307 
L 359.431551 140.380977 
L 359.985299 141.200674 
L 360.538948 142.019994 
L 360.715981 142.281785 
" clip-path="url(#pcc1b41ad2e)" style="fill: none; stroke: #000000; stroke-width: 0.05"/>
    <path d="M 38.786274 7.2 
L 39.567757 7.791159 
L 38.838658 8.258741 
L 38.109558 8.726083 
L 37.380459 9.193186 
L 36.65136 9.660049 
L 35.92226 10.126504 
L 35.193161 10.59306 
L 34.464061 11.059038 
L 33.734962 11.525118 
L 33.723489 11.532261 
L 34.346764 12.332201 
L 34.969941 13.131441 
L 35.593117 13.929813 
L 36.216293 14.727489 
L 36.839568 15.524639 
L 37.462745 16.321095 
L 37.605261 16.503103 
L 38.350976 16.881211 
L 39.096592 17.259164 
L 39.842307 17.63713 
L 40.588022 18.01494 
L 41.333638 18.392425 
L 41.465473 18.459262 
L 45.077146 18.496055 
L 46.827103 16.27508 
L 46.261784 13.758659 
L 48.317939 11.99657 
L 48.978599 12.701507 
L 49.639358 13.406071 
L 50.300018 14.110093 
L 50.960777 14.813403 
L 51.621436 15.516173 
L 52.282195 16.218573 
L 52.942855 16.920265 
L 53.43113 17.43862 
L 53.64357 20.441908 
L 54.40946 20.21082 
L 55.175351 19.980011 
L 55.941242 19.748975 
L 56.707132 19.517881 
L 57.473023 19.286729 
L 58.22032 19.061253 
" clip-path="url(#pcc1b41ad2e)" style="fill: none; stroke: #000000; stroke-width: 0.05"/>
    <path d="M 217.390085 90.171366 
L 216.612326 90.166989 
L 215.834567 90.162611 
L 215.05671 90.158234 
L 214.278951 90.153856 
L 213.501192 90.149479 
L 213.331873 90.148541 
L 212.564895 88.399526 
L 212.997587 87.375425 
L 213.430181 86.350071 
L 213.862775 85.323617 
L 214.295467 84.296216 
L 214.728061 83.267709 
L 215.160754 82.237935 
L 215.283589 81.945312 
L 214.563489 81.476707 
L 213.843291 81.007871 
L 213.123192 80.538647 
L 212.402993 80.06935 
L 211.682894 79.599821 
L 210.962696 79.130061 
L 210.897718 79.087516 
L 207.228385 79.697823 
L 204.81223 75.094427 
L 203.368273 76.925844 
L 201.459777 76.590988 
L 201.701095 74.79944 
L 199.745819 76.411937 
L 197.621224 75.215764 
L 196.418586 75.851572 
L 196.861466 77.693094 
L 194.416431 77.439314 
L 193.718881 77.990193 
L 193.021331 78.540754 
L 192.323682 79.090996 
L 191.626132 79.64092 
L 190.928483 80.190527 
L 190.230933 80.739817 
L 189.983779 80.934314 
L 189.247757 80.532962 
L 188.511734 80.131125 
L 187.775712 79.729435 
L 187.039689 79.327575 
L 186.303667 78.925387 
L 186.231667 78.885997 
L 184.042291 80.123542 
L 183.152972 77.468148 
" clip-path="url(#pcc1b41ad2e)" style="fill: none; stroke: #000000; stroke-width: 0.05"/>
    <path d="M 218.963701 102.995189 
L 216.846326 102.146642 
L 216.335996 103.062603 
L 215.825666 103.977697 
L 215.315336 104.891773 
L 214.805006 105.805296 
L 214.294676 106.717652 
L 213.784346 107.629304 
L 213.753192 107.685036 
L 215.931787 112.330034 
L 214.75783 114.686016 
" clip-path="url(#pcc1b41ad2e)" style="fill: none; stroke: #000000; stroke-width: 0.05"/>
    <path d="M 263.899053 163.047055 
L 263.052855 159.042621 
" clip-path="url(#pcc1b41ad2e)" style="fill: none; stroke: #000000; stroke-width: 0.05"/>
    <path d="M 361.990718 144.836495 
L 360.672761 142.292457 
" clip-path="url(#pcc1b41ad2e)" style="fill: none; stroke: #000000; stroke-width: 0.05"/>
    <path d="M 251.980176 151.007548 
L 251.990956 151.007548 
" clip-path="url(#pcc1b41ad2e)" style="fill: none; stroke: #000000; stroke-width: 0.05"/>
   </g>
   <g id="LineCollection_3"/>
   <g id="line2d_1">
    <path d="M 269.091562 31.128251 
L 282.653067 37.63149 
L 296.243299 44.39566 
L 309.743868 51.362762 
L 313.302857 53.240842 
L 313.302857 53.240842 
" clip-path="url(#pcc1b41ad2e)" style="fill: none; stroke: #0000ff; stroke-width: 0.125; stroke-linecap: square"/>
   </g>
   <g id="line2d_2">
    <path d="M 269.091562 31.128251 
L 257.50491 44.395819 
L 245.93137 57.98682 
L 234.3845 71.890647 
L 227.300362 80.594031 
L 227.300362 80.594031 
" clip-path="url(#pcc1b41ad2e)" style="fill: none; stroke: #0000ff; stroke-width: 0.125; stroke-linecap: square"/>
   </g>
   <g id="line2d_3">
    <path d="M 258.423129 129.806049 
L 272.709827 135.457508 
L 286.986102 141.344679 
L 289.514914 142.412621 
L 289.514914 142.412621 
" clip-path="url(#pcc1b41ad2e)" style="fill: none; stroke: #0000ff; stroke-width: 0.125; stroke-linecap: square"/>
   </g>
   <g id="line2d_4">
    <path d="M 258.423129 129.806049 
L 252.02334 103.197235 
L 252.02334 103.197235 
" clip-path="url(#pcc1b41ad2e)" style="fill: none; stroke: #0000ff; stroke-width: 0.125; stroke-linecap: square"/>
   </g>
   <g id="line2d_5">
    <path d="M 289.514914 142.412621 
L 296.927821 113.667286 
L 304.369712 85.694586 
L 311.878255 58.336295 
L 313.302857 53.240842 
L 313.302857 53.240842 
" clip-path="url(#pcc1b41ad2e)" style="fill: none; stroke: #0000ff; stroke-width: 0.125; stroke-linecap: square"/>
   </g>
   <g id="line2d_6">
    <path d="M 229.553881 86.54446 
L 227.300362 80.594031 
L 227.300362 80.594031 
" clip-path="url(#pcc1b41ad2e)" style="fill: none; stroke: #0000ff; stroke-width: 0.125; stroke-linecap: square"/>
   </g>
   <g id="line2d_7">
    <path d="M 229.553881 86.54446 
L 227.300362 80.594031 
L 227.300362 80.594031 
" clip-path="url(#pcc1b41ad2e)" style="fill: none; stroke: #0000ff; stroke-width: 0.125; stroke-linecap: square"/>
   </g>
   <g id="line2d_8">
    <path d="M 229.553881 86.54446 
L 242.648155 96.149841 
L 252.02334 103.197235 
L 252.02334 103.197235 
" clip-path="url(#pcc1b41ad2e)" style="fill: none; stroke: #0000ff; stroke-width: 0.125; stroke-linecap: square"/>
   </g>
   <g id="line2d_9">
    <path d="M 229.553881 86.54446 
L 242.648155 96.149841 
L 252.02334 103.197235 
L 252.02334 103.197235 
" clip-path="url(#pcc1b41ad2e)" style="fill: none; stroke: #0000ff; stroke-width: 0.125; stroke-linecap: square"/>
   </g>
   <g id="line2d_10">
    <path d="M 252.02334 103.197235 
L 237.598559 107.078674 
L 223.291265 111.157151 
L 208.901125 115.490203 
L 194.437764 120.080038 
L 180.111628 124.859703 
L 169.907723 128.406481 
L 169.907723 128.406481 
" clip-path="url(#pcc1b41ad2e)" style="fill: none; stroke: #0000ff; stroke-width: 0.125; stroke-linecap: square"/>
   </g>
   <g id="line2d_11">
    <path d="M 58.217143 35.612304 
L 71.978088 41.760182 
L 85.556246 48.068191 
L 99.14878 54.625805 
L 112.746328 61.431471 
L 126.339754 68.483167 
L 137.82983 74.639113 
L 137.82983 74.639113 
" clip-path="url(#pcc1b41ad2e)" style="fill: none; stroke: #0000ff; stroke-width: 0.125; stroke-linecap: square"/>
   </g>
   <g id="line2d_12">
    <path d="M 58.217143 35.612304 
L 71.978088 41.760182 
L 85.556246 48.068191 
L 99.14878 54.625805 
L 112.746328 61.431471 
L 126.339754 68.483167 
L 137.82983 74.639113 
L 137.82983 74.639113 
" clip-path="url(#pcc1b41ad2e)" style="fill: none; stroke: #0000ff; stroke-width: 0.125; stroke-linecap: square"/>
   </g>
   <g id="line2d_13">
    <path d="M 137.82983 74.639113 
L 148.296873 91.738426 
L 158.715593 109.183241 
L 169.149787 127.088618 
L 169.907723 128.406481 
L 169.907723 128.406481 
" clip-path="url(#pcc1b41ad2e)" style="fill: none; stroke: #0000ff; stroke-width: 0.125; stroke-linecap: square"/>
   </g>
   <g id="line2d_14">
    <path d="M 137.82983 74.639113 
L 152.040119 70.246074 
L 166.217849 66.095652 
L 180.354373 62.187157 
L 194.605487 58.477956 
L 202.845723 56.438543 
L 202.845723 56.438543 
" clip-path="url(#pcc1b41ad2e)" style="fill: none; stroke: #0000ff; stroke-width: 0.125; stroke-linecap: square"/>
   </g>
   <g id="line2d_15">
    <path d="M 169.907723 128.406481 
L 179.216169 106.819801 
L 188.527435 85.785375 
L 197.524081 65.977549 
L 197.524081 65.977549 
" clip-path="url(#pcc1b41ad2e)" style="fill: none; stroke: #0000ff; stroke-width: 0.125; stroke-linecap: square"/>
   </g>
   <g id="line2d_16">
    <path d="M 197.524081 65.977549 
L 195.18345 62.73142 
L 195.18345 62.73142 
" clip-path="url(#pcc1b41ad2e)" style="fill: none; stroke: #0000ff; stroke-width: 0.125; stroke-linecap: square"/>
   </g>
   <g id="line2d_17">
    <path d="M 195.18345 62.73142 
L 202.845723 56.438543 
L 202.845723 56.438543 
" clip-path="url(#pcc1b41ad2e)" style="fill: none; stroke: #0000ff; stroke-width: 0.125; stroke-linecap: square"/>
   </g>
   <g id="line2d_18">
    <path d="M 202.845723 56.438543 
L 205.86005 62.432713 
L 205.86005 62.432713 
" clip-path="url(#pcc1b41ad2e)" style="fill: none; stroke: #0000ff; stroke-width: 0.125; stroke-linecap: square"/>
   </g>
   <g id="line2d_19">
    <path d="M 205.86005 62.432713 
L 218.524197 73.058921 
L 227.300362 80.594031 
L 227.300362 80.594031 
" clip-path="url(#pcc1b41ad2e)" style="fill: none; stroke: #0000ff; stroke-width: 0.125; stroke-linecap: square"/>
   </g>
   <g id="patch_3">
    <path d="M 7.2 163.223019 
L 7.2 7.2 
" style="fill: none; stroke: #000000; stroke-width: 0.8; stroke-linejoin: miter; stroke-linecap: square"/>
   </g>
   <g id="patch_4">
    <path d="M 364.32 163.223019 
L 364.32 7.2 
" style="fill: none; stroke: #000000; stroke-width: 0.8; stroke-linejoin: miter; stroke-linecap: square"/>
   </g>
   <g id="patch_5">
    <path d="M 7.2 163.223019 
L 364.32 163.223019 
" style="fill: none; stroke: #000000; stroke-width: 0.8; stroke-linejoin: miter; stroke-linecap: square"/>
   </g>
   <g id="patch_6">
    <path d="M 7.2 7.2 
L 364.32 7.2 
" style="fill: none; stroke: #000000; stroke-width: 0.8; stroke-linejoin: miter; stroke-linecap: square"/>
   </g>
   <g id="PathCollection_1">
    <defs>
     <path id="m385e529c99" d="M 0 0.125 
C 0.03315 0.125 0.064947 0.111829 0.088388 0.088388 
C 0.111829 0.064947 0.125 0.03315 0.125 0 
C 0.125 -0.03315 0.111829 -0.064947 0.088388 -0.088388 
C 0.064947 -0.111829 0.03315 -0.125 0 -0.125 
C -0.03315 -0.125 -0.064947 -0.111829 -0.088388 -0.088388 
C -0.111829 -0.064947 -0.125 -0.03315 -0.125 0 
C -0.125 0.03315 -0.111829 0.064947 -0.088388 0.088388 
C -0.064947 0.111829 -0.03315 0.125 0 0.125 
z
" style="stroke: #ff0000"/>
    </defs>
    <g clip-path="url(#pcc1b41ad2e)">
     <use xlink:href="#m385e529c99" x="269.091562" y="31.128251" style="fill: #ff0000; stroke: #ff0000"/>
     <use xlink:href="#m385e529c99" x="258.423129" y="129.806049" style="fill: #ff0000; stroke: #ff0000"/>
     <use xlink:href="#m385e529c99" x="289.514914" y="142.412621" style="fill: #ff0000; stroke: #ff0000"/>
     <use xlink:href="#m385e529c99" x="313.302857" y="53.240842" style="fill: #ff0000; stroke: #ff0000"/>
     <use xlink:href="#m385e529c99" x="229.553881" y="86.54446" style="fill: #ff0000; stroke: #ff0000"/>
     <use xlink:href="#m385e529c99" x="252.02334" y="103.197235" style="fill: #ff0000; stroke: #ff0000"/>
     <use xlink:href="#m385e529c99" x="58.217143" y="35.612304" style="fill: #ff0000; stroke: #ff0000"/>
     <use xlink:href="#m385e529c99" x="137.82983" y="74.639113" style="fill: #ff0000; stroke: #ff0000"/>
     <use xlink:href="#m385e529c99" x="169.907723" y="128.406481" style="fill: #ff0000; stroke: #ff0000"/>
     <use xlink:href="#m385e529c99" x="197.524081" y="65.977549" style="fill: #ff0000; stroke: #ff0000"/>
     <use xlink:href="#m385e529c99" x="195.18345" y="62.73142" style="fill: #ff0000; stroke: #ff0000"/>
     <use xlink:href="#m385e529c99" x="202.845723" y="56.438543" style="fill: #ff0000; stroke: #ff0000"/>
     <use xlink:href="#m385e529c99" x="205.86005" y="62.432713" style="fill: #ff0000; stroke: #ff0000"/>
     <use xlink:href="#m385e529c99" x="227.300362" y="80.594031" style="fill: #ff0000; stroke: #ff0000"/>
    </g>
   </g>
   <g id="PathCollection_2"/>
  </g>
 </g>
 <defs>
  <clipPath id="pcc1b41ad2e">
   <rect x="7.2" y="7.2" width="357.12" height="156.023019"/>
  </clipPath>
 </defs>
</svg>
