<?xml version="1.0" encoding="utf-8" standalone="no"?>
<!DOCTYPE svg PUBLIC "-//W3C//DTD SVG 1.1//EN"
  "http://www.w3.org/Graphics/SVG/1.1/DTD/svg11.dtd">
<svg xmlns:xlink="http://www.w3.org/1999/xlink" width="252.490529pt" height="280.512pt" viewBox="0 0 252.490529 280.512" xmlns="http://www.w3.org/2000/svg" version="1.1">
 <metadata>
  <rdf:RDF xmlns:dc="http://purl.org/dc/elements/1.1/" xmlns:cc="http://creativecommons.org/ns#" xmlns:rdf="http://www.w3.org/1999/02/22-rdf-syntax-ns#">
   <cc:Work>
    <dc:type rdf:resource="http://purl.org/dc/dcmitype/StillImage"/>
    <dc:date>2025-12-03T12:07:35.631327</dc:date>
    <dc:format>image/svg+xml</dc:format>
    <dc:creator>
     <cc:Agent>
      <dc:title>Matplotlib v3.10.6, https://matplotlib.org/</dc:title>
     </cc:Agent>
    </dc:creator>
   </cc:Work>
  </rdf:RDF>
 </metadata>
 <defs>
  <style type="text/css">*{stroke-linejoin: round; stroke-linecap: butt}</style>
 </defs>
 <g id="figure_1">
  <g id="patch_1">
   <path d="M 0 280.512 
L 252.490529 280.512 
L 252.490529 0 
L 0 0 
z
" style="fill: #ffffff"/>
  </g>
  <g id="axes_1">
   <g id="patch_2">
    <path d="M 7.2 273.312 
L 245.290529 273.312 
L 245.290529 7.2 
L 7.2 7.2 
z
" style="fill: #ffffff"/>
   </g>
   <g id="matplotlib.axis_1"/>
   <g id="matplotlib.axis_2"/>
   <g id="LineCollection_1">
    <path d="M 181.482184 273.312 
L 181.168773 271.607715 
L 178.488193 269.183172 
L 176.341065 268.398189 
L 174.883776 273.312 
" clip-path="url(#pe027c8a40c)" style="fill: none; stroke: #000000; stroke-width: 0.05"/>
    <path d="M 173.804205 273.312 
L 173.69546 272.538782 
L 173.602263 273.312 
" clip-path="url(#pe027c8a40c)" style="fill: none; stroke: #000000; stroke-width: 0.05"/>
    <path d="M 170.426141 273.312 
L 169.737844 272.301636 
L 169.695603 271.414095 
L 170.679309 271.353717 
L 169.450496 271.276572 
L 169.613901 268.967454 
L 168.509601 266.662302 
L 171.441983 264.94021 
L 169.010927 262.540074 
L 169.065348 263.487239 
L 167.547906 264.144555 
L 167.385356 263.286614 
L 165.105951 262.863248 
L 164.80222 264.689959 
L 163.091385 264.356364 
L 158.625176 267.478227 
L 160.060133 265.896953 
L 158.951915 265.624333 
L 157.252191 266.785129 
L 158.002187 267.478227 
L 156.905935 266.890566 
L 155.929282 267.98247 
L 156.590309 270.459602 
L 157.492882 270.062315 
L 157.322212 272.048678 
L 159.329014 273.270725 
L 159.248925 273.312 
" clip-path="url(#pe027c8a40c)" style="fill: none; stroke: #000000; stroke-width: 0.05"/>
    <path d="M 31.371726 273.312 
L 32.326431 265.679883 
L 35.054023 268.536239 
L 36.465616 272.461355 
L 37.823001 272.995322 
L 36.539269 272.025879 
L 35.127392 266.846077 
L 30.999675 263.905051 
L 30.976026 262.612198 
L 32.069927 262.673896 
L 31.528995 261.741039 
L 33.224801 260.15382 
L 32.482072 260.338485 
L 31.801812 257.675363 
L 30.953446 257.596691 
L 32.275643 255.515601 
L 31.260524 256.197205 
L 25.63531 253.129577 
L 22.535391 248.668658 
L 23.904173 245.500824 
L 21.53922 244.392403 
L 22.281736 242.543034 
L 21.076073 243.024804 
L 18.795885 242.245271 
L 19.477712 242.170286 
L 18.66774 241.056679 
L 19.843129 240.5395 
L 19.220139 239.411899 
L 20.243806 239.256379 
L 17.964401 239.291282 
L 18.493223 238.634073 
L 16.259193 239.521217 
L 15.322429 238.559558 
L 17.038037 238.749418 
L 17.329801 237.474751 
L 15.287454 238.207887 
L 14.765613 237.099708 
L 15.205752 238.570747 
L 14.213498 237.435004 
L 13.31926 239.705345 
L 12.59156 237.404981 
L 13.295397 235.896927 
L 12.540985 237.365018 
L 11.167502 236.712619 
L 11.919064 236.764998 
L 11.151902 236.469405 
L 11.919064 235.445063 
L 10.323338 236.63706 
L 9.639161 235.237052 
L 8.214818 235.515023 
L 7.569319 234.611808 
L 7.2 234.87617 
" clip-path="url(#pe027c8a40c)" style="fill: none; stroke: #000000; stroke-width: 0.05"/>
    <path d="M 7.2 222.416133 
L 8.962249 222.995951 
L 9.739526 220.635389 
L 10.860138 221.131618 
L 12.424522 220.150509 
L 12.556514 221.06078 
L 13.832767 219.961296 
L 13.287633 221.852571 
L 14.407747 220.836324 
L 17.473759 225.44267 
L 20.905403 222.70143 
L 20.7415 223.690667 
L 21.581531 223.33671 
L 21.892955 224.349182 
L 23.425214 223.419502 
L 24.118153 224.878439 
L 23.576936 223.261023 
L 24.491334 222.524227 
L 25.347179 222.39448 
L 26.016825 223.926075 
L 29.883693 223.501962 
L 27.895553 221.940289 
L 28.105615 215.171504 
L 25.646992 212.96434 
L 24.444962 207.873913 
L 27.409257 209.076089 
L 30.739253 208.293847 
L 30.322977 210.438062 
L 32.140232 213.651139 
L 33.28371 212.623699 
L 40.247362 214.498083 
L 42.558179 213.626438 
L 47.096973 211.433172 
L 44.179833 211.504652 
L 43.168917 210.91769 
L 44.479148 208.065624 
L 47.972478 206.077878 
L 52.757945 205.123481 
L 56.749254 200.881437 
L 58.110343 201.264657 
L 56.927688 199.889918 
L 57.340047 191.136149 
L 65.898998 188.122019 
L 75.296413 183.16274 
L 78.143247 184.272289 
L 79.668453 183.175645 
L 82.240619 184.0091 
L 79.668453 182.401425 
L 78.159274 183.511408 
L 74.587874 181.29582 
L 78.361357 180.188079 
L 82.036755 182.80007 
L 82.089181 181.208788 
L 79.754287 180.444833 
L 81.847707 180.613923 
L 80.875968 179.580155 
L 85.932685 178.588852 
L 80.431911 176.734143 
L 79.973965 174.811248 
L 81.160466 174.815063 
L 85.60616 167.025956 
L 86.75035 159.427867 
L 88.072547 160.589461 
L 89.581655 159.841214 
L 90.430235 162.655738 
L 91.955156 162.913223 
L 91.137491 164.524618 
L 89.433565 164.633535 
L 89.605019 167.154112 
L 90.554747 167.217479 
L 88.594103 168.403524 
L 91.60484 169.532034 
L 90.352165 168.442268 
L 93.533858 165.792147 
L 97.121356 165.337781 
L 94.725488 164.145855 
L 95.892329 161.369188 
L 92.577078 160.76394 
L 92.359537 157.739437 
L 93.355637 155.534685 
L 97.440615 152.741115 
L 100.249055 153.673447 
L 101.345591 153.680008 
L 100.280183 152.630725 
L 106.169951 151.670848 
L 108.803803 154.913658 
L 111.041964 153.941802 
L 111.913124 155.45581 
L 111.073377 153.902808 
L 108.003518 153.496631 
L 108.781507 149.767812 
L 110.594133 148.254513 
L 116.845328 147.679259 
L 118.875281 150.460303 
L 117.895422 151.611977 
L 119.163412 152.637177 
L 120.166279 151.768836 
L 119.801645 149.35346 
L 122.407574 150.473488 
L 121.970783 153.166497 
L 122.609871 150.473968 
L 121.738427 148.02103 
L 123.489294 144.892192 
L 124.687478 145.842233 
L 129.039502 145.740348 
L 131.635031 149.32032 
L 134.295951 150.617913 
L 131.774859 149.203116 
L 128.375056 144.482765 
L 125.722256 144.238754 
L 125.052895 142.731319 
L 126.63124 142.77716 
L 126.732673 141.775947 
L 124.788626 140.354897 
L 126.21995 138.158707 
L 122.609587 138.411567 
L 123.208429 136.869822 
L 126.71686 135.444516 
L 124.787843 135.712762 
L 126.328863 134.721127 
L 122.189464 133.19038 
L 123.854711 132.209095 
L 122.951925 129.064371 
L 120.423566 129.085668 
L 119.82394 131.157841 
L 120.983516 126.265555 
L 120.757855 128.834887 
L 123.247321 128.834887 
L 123.57406 121.706596 
L 120.112641 117.459285 
L 120.174328 119.520827 
L 117.925766 117.975883 
L 118.921652 114.429792 
L 118.345675 101.605259 
L 119.240698 98.685306 
L 120.049815 101.386507 
L 122.469546 101.111184 
L 119.692447 97.549261 
L 122.819648 91.6584 
L 130.320456 90.970072 
L 135.34576 83.609781 
L 142.060743 80.969401 
L 139.866959 83.573635 
L 141.0182 89.798613 
L 139.103928 93.854155 
L 138.076415 93.965947 
L 139.057271 98.73436 
L 137.080814 98.664022 
L 139.166184 98.960635 
L 138.284197 101.032055 
L 143.733541 101.725263 
L 144.892547 103.239595 
L 142.581801 108.280069 
L 141.757084 106.826148 
L 141.025965 108.936131 
L 140.776441 107.748749 
L 139.462649 107.839593 
L 140.169835 105.718946 
L 138.201996 107.532591 
L 137.765989 113.337988 
L 134.606876 113.114304 
L 136.411951 113.587336 
L 136.210153 115.717207 
L 131.806272 115.522033 
L 134.622191 116.915782 
L 133.478785 118.641813 
L 131.214695 119.074993 
L 133.082453 119.58302 
L 132.13301 120.213542 
L 132.864343 122.472165 
L 131.868243 123.058905 
L 133.284466 123.087147 
L 130.546046 126.680146 
L 132.203316 126.496938 
L 133.921702 128.537663 
L 133.556285 129.761867 
L 132.389514 128.192322 
L 130.514419 129.930807 
L 132.342573 129.099041 
L 134.442759 131.044524 
L 135.539794 130.673578 
L 136.194339 134.384927 
L 134.466052 135.765712 
L 137.447015 135.598514 
L 137.260032 138.111079 
L 138.956123 136.213654 
L 142.504515 138.324036 
L 146.49504 136.982872 
L 146.137957 140.062478 
L 142.978845 142.332444 
L 144.215137 143.862338 
L 146.93931 142.935758 
L 149.568532 144.800196 
L 150.976777 141.563616 
L 150.043432 142.200282 
L 151.576118 140.746575 
L 155.387994 140.295133 
L 156.00265 141.722506 
L 155.458513 140.327876 
L 159.434864 135.491357 
L 163.596558 136.247947 
L 158.655806 137.177115 
L 158.515979 139.270518 
L 159.866597 137.237407 
L 161.237944 136.986909 
L 162.126342 137.710744 
L 164.133642 136.200671 
L 164.95088 138.757795 
L 168.225601 141.79635 
L 170.676673 140.594263 
L 170.910882 142.783344 
L 172.481962 144.423857 
L 171.578961 145.71741 
L 175.679183 147.079892 
L 175.430514 148.014052 
L 176.348544 147.396081 
L 178.787507 149.516615 
L 178.316525 147.889156 
L 180.385797 144.384179 
L 180.098948 142.803232 
L 193.278964 139.217361 
L 196.888473 134.55268 
L 210.131457 129.868604 
L 213.679279 129.801447 
L 217.982083 132.760194 
L 218.192144 133.747417 
L 214.558488 130.604404 
L 215.912027 136.020106 
L 218.051106 137.737506 
L 224.633314 136.776211 
L 228.150507 132.968983 
L 225.504403 136.441918 
L 222.074326 137.851872 
L 222.345789 138.871863 
L 223.707448 138.771948 
L 223.435914 139.710356 
L 229.162206 134.003454 
L 233.137986 132.370014 
L 230.048681 132.792945 
L 229.27062 131.555898 
L 228.258707 133.009847 
L 228.686594 128.497511 
L 233.083281 128.042527 
L 235.375293 125.795448 
L 239.576663 118.723088 
L 239.22649 121.499686 
L 234.088284 127.872602 
L 238.546942 128.936821 
L 240.933621 127.942314 
L 240.27986 123.973778 
L 241.400187 122.240349 
L 240.404799 121.569832 
L 240.949435 119.253514 
L 239.401576 115.934433 
L 238.443372 101.873267 
L 239.143933 96.54741 
L 242.334173 93.182988 
L 242.505556 88.734675 
L 245.290529 83.889852 
L 245.290529 83.889852 
" clip-path="url(#pe027c8a40c)" style="fill: none; stroke: #000000; stroke-width: 0.05"/>
    <path d="M 245.290529 29.481907 
L 244.099999 30.852526 
L 242.598655 28.723281 
L 241.805351 26.580802 
L 242.95702 25.976159 
L 241.478257 23.551167 
L 242.769254 23.326776 
L 240.57547 22.84742 
L 241.602484 22.927851 
L 241.392708 20.995746 
L 242.800454 22.782803 
L 241.416285 19.429212 
L 243.275567 19.662548 
L 242.737912 17.397605 
L 244.357002 16.68777 
L 242.815697 12.794534 
L 244.217745 12.485986 
L 242.83208 11.230815 
L 244.544056 11.166002 
L 243.018279 9.679088 
L 245.290529 11.103093 
" clip-path="url(#pe027c8a40c)" style="fill: none; stroke: #000000; stroke-width: 0.05"/>
    <path d="M 245.290529 10.002388 
L 243.921893 7.2 
" clip-path="url(#pe027c8a40c)" style="fill: none; stroke: #000000; stroke-width: 0.05"/>
    <path d="M 205.365452 7.2 
L 205.829152 9.057466 
L 202.764431 7.2 
" clip-path="url(#pe027c8a40c)" style="fill: none; stroke: #000000; stroke-width: 0.05"/>
    <path d="M 202.59671 7.2 
L 203.665712 8.353294 
L 202.187162 9.024195 
L 203.55623 9.384683 
L 201.642242 9.925014 
L 203.354502 10.382475 
L 201.68954 10.481013 
L 203.369746 12.876449 
L 202.07825 13.120343 
L 203.712654 15.198116 
L 202.545599 15.035491 
L 203.837166 15.70026 
L 202.06265 15.035491 
L 203.292745 16.314698 
L 202.576727 21.09949 
L 203.602673 21.019846 
L 202.592042 22.174398 
L 204.413143 23.358691 
L 203.557085 24.780272 
L 204.63047 25.848744 
L 202.917996 27.217145 
L 207.034031 27.906451 
L 208.1394 30.694007 
L 210.520452 28.700642 
L 212.753485 33.759504 
L 214.846334 33.704951 
L 214.651588 34.827573 
L 216.316622 35.345768 
L 215.297585 35.886192 
L 213.515091 34.153037 
L 216.098511 38.926449 
L 216.168247 37.388304 
L 217.802651 39.167477 
L 218.440599 38.029295 
L 219.055041 41.369187 
L 220.767444 42.377196 
L 220.432087 43.547074 
L 218.767908 41.314307 
L 219.412908 42.981555 
L 217.297193 44.759708 
L 220.798358 44.77611 
L 213.110781 50.020017 
L 213.709909 51.542382 
L 211.398877 50.769903 
L 211.406642 52.686041 
L 213.912704 51.862567 
L 214.939434 52.716612 
L 215.080045 50.777185 
L 216.673918 52.053481 
L 215.507932 51.915962 
L 216.845657 52.754021 
L 215.849201 53.287556 
L 214.644322 52.900008 
L 216.409935 53.973057 
L 215.265674 54.605201 
L 213.469218 52.433876 
L 214.045195 53.683923 
L 213.001869 53.592626 
L 215.040084 55.478285 
L 210.543531 58.203971 
L 209.897248 62.038082 
L 208.116321 59.789024 
L 208.598415 56.736388 
L 207.749907 57.546382 
L 207.376939 55.137152 
L 207.167092 60.602512 
L 206.186805 60.377109 
L 206.645322 61.543226 
L 205.517159 60.512085 
L 206.008157 62.429479 
L 202.755161 63.614824 
L 202.055171 62.638619 
L 201.595586 63.965754 
L 202.871269 64.101603 
L 200.841673 64.273188 
L 201.689255 64.819287 
L 200.670005 65.51386 
L 193.690753 64.953445 
L 199.160612 65.619428 
L 200.801997 67.891818 
L 198.833873 68.896065 
L 195.82278 67.892363 
L 199.308417 69.868966 
L 197.830437 70.090301 
L 198.599949 71.223731 
L 199.635725 70.92077 
L 198.468456 71.675664 
L 199.682168 74.096294 
L 198.421444 73.742613 
L 199.557869 75.347627 
L 198.001321 76.171059 
L 198.86493 77.278842 
L 199.542056 76.420567 
L 199.370673 78.721711 
L 197.513813 77.612569 
L 196.336643 78.253629 
L 198.655154 81.085485 
L 195.77591 78.428631 
L 198.70181 81.31919 
L 198.865714 82.113036 
L 197.441157 81.7269 
L 198.172988 84.124908 
L 197.184653 83.05806 
L 196.740952 83.994373 
L 198.204188 84.313426 
L 198.748538 86.079851 
L 196.212131 89.151611 
L 197.394714 92.910264 
L 196.149305 92.967489 
L 196.94325 93.696435 
L 196.391349 94.389535 
L 196.102933 93.496025 
L 195.621053 97.400253 
L 196.445271 97.656249 
L 195.309843 97.783493 
L 195.481012 99.584294 
L 194.235887 100.037071 
L 190.524945 109.42423 
L 190.346012 107.812213 
L 188.09745 108.154505 
L 188.143608 107.105565 
L 185.872253 108.657124 
L 185.498288 107.651365 
L 179.69414 107.861086 
L 180.324823 110.489793 
L 178.325287 109.633375 
L 175.376022 113.003512 
L 175.220453 115.633026 
L 176.668373 118.08545 
L 175.103989 120.891853 
L 172.271687 120.056252 
L 167.354227 121.645482 
L 162.181047 120.953414 
L 163.690726 119.953044 
L 162.974921 117.879147 
L 164.577129 116.073779 
L 158.757453 105.558216 
L 162.00938 107.057018 
L 160.376044 103.57776 
L 162.842645 103.317936 
L 163.378447 100.843245 
L 162.515835 99.506014 
L 161.402773 99.867787 
L 160.298473 96.803357 
L 157.886008 94.923422 
L 156.579197 89.870593 
L 155.474113 89.712542 
L 155.613655 86.252836 
L 154.641846 87.876882 
L 153.746894 86.989643 
L 154.290746 85.197253 
L 153.046903 82.338639 
L 154.198145 81.494412 
L 151.817307 81.538677 
L 153.232817 79.875295 
L 151.552825 79.02804 
L 153.761141 70.312781 
L 151.808546 70.319702 
L 149.824823 72.650091 
L 151.839104 70.943005 
L 153.154249 72.281797 
L 151.800212 75.039236 
L 152.109712 76.094009 
L 150.564703 77.630679 
L 149.824823 75.847734 
L 151.846939 74.552911 
L 149.395867 75.296463 
L 149.045979 72.724859 
L 151.847438 68.620557 
L 151.076643 69.237118 
L 150.634225 67.877512 
L 149.333825 71.623389 
L 149.513043 69.393441 
L 148.595725 70.150171 
L 149.583562 68.211767 
L 147.225874 70.150171 
L 148.642168 67.668479 
L 147.381728 67.237247 
L 148.237858 66.028955 
L 146.137957 58.792168 
L 147.724351 56.736943 
L 146.969655 54.894603 
L 145.974053 56.259935 
L 144.480474 54.438037 
L 143.585451 55.371961 
L 143.352026 52.63369 
L 142.293385 52.922335 
L 141.406696 50.800149 
L 142.356425 48.90065 
L 141.376067 44.543906 
L 142.083822 42.494 
L 142.791577 44.42084 
L 142.955766 41.796115 
L 140.349053 43.167425 
L 141.608994 48.20995 
L 140.247121 49.06285 
L 139.936694 47.280684 
L 139.454315 48.800922 
L 138.108612 48.103361 
L 140.582763 50.585878 
L 139.86646 57.341488 
L 139.656114 53.402184 
L 138.793288 57.493745 
L 138.06915 56.168598 
L 137.921843 58.008013 
L 136.108007 57.607325 
L 135.549125 59.163499 
L 134.187537 58.97489 
L 134.039447 56.850383 
L 132.856579 57.486265 
L 131.42497 56.046703 
L 133.596245 58.733414 
L 130.942092 59.615652 
L 131.222744 60.806752 
L 129.379561 60.542275 
L 130.701687 62.031618 
L 127.153081 63.366627 
L 128.732495 63.209618 
L 128.476774 64.520204 
L 126.67868 66.290168 
L 125.98624 65.342067 
L 125.846484 67.936503 
L 124.274549 68.33921 
L 120.812561 72.880452 
L 119.637742 72.710258 
L 119.272538 74.442495 
L 117.646183 74.067289 
L 117.544322 72.215229 
L 116.76676 75.061192 
L 113.499305 76.339918 
L 109.578515 75.355436 
L 108.364234 76.706788 
L 109.165088 74.980234 
L 107.756844 75.958576 
L 108.442019 74.236712 
L 107.538733 75.51711 
L 107.476477 74.486718 
L 106.425743 74.638237 
L 108.356185 73.92049 
L 107.040826 74.030053 
L 106.760958 72.879506 
L 106.014809 75.399056 
L 103.749935 74.317361 
L 107.336721 71.149732 
L 105.329919 72.481186 
L 104.753871 71.150275 
L 104.629145 72.244319 
L 102.450675 71.639099 
L 95.425764 66.581446 
L 93.806389 62.992156 
L 94.58445 59.186156 
L 95.627491 59.789024 
L 94.600762 57.902258 
L 96.420581 58.567216 
L 96.179677 61.151686 
L 97.378359 59.041773 
L 101.244941 61.3998 
L 99.673078 59.638707 
L 104.621095 57.539179 
L 101.081323 58.333054 
L 99.208934 59.934476 
L 98.537365 59.005154 
L 99.39321 58.74793 
L 97.541265 56.96408 
L 100.389096 55.811036 
L 98.833046 55.872843 
L 100.427774 53.813806 
L 103.82829 52.678921 
L 100.069837 53.767681 
L 99.728282 52.960848 
L 101.306912 52.72415 
L 100.622236 51.36558 
L 100.770611 52.625034 
L 98.786105 52.251321 
L 101.097136 49.292244 
L 104.154316 48.271392 
L 101.128264 49.077593 
L 101.548102 46.804113 
L 98.358716 52.075839 
L 97.75909 50.325854 
L 99.509317 49.804916 
L 97.689284 49.85933 
L 97.176061 48.617296 
L 95.471423 51.36558 
L 97.097778 50.547638 
L 97.541265 52.113985 
L 95.292703 53.782871 
L 95.114554 49.34586 
L 93.588777 50.172674 
L 94.957916 50.371674 
L 94.445192 53.531708 
L 93.675181 51.312698 
L 92.966144 53.045262 
L 92.802739 50.822552 
L 92.53847 53.630122 
L 91.333306 48.886324 
L 92.881307 46.587472 
L 93.355637 47.826395 
L 94.126147 45.061224 
L 93.534356 49.691306 
L 94.779481 45.971384 
L 96.802381 47.435001 
L 97.922495 44.381227 
L 99.462945 45.000028 
L 101.913519 42.842151 
L 98.841095 44.706118 
L 98.46713 42.773075 
L 97.487271 44.429045 
L 95.517795 42.982122 
L 98.491207 40.964725 
L 98.934195 38.793836 
L 101.524809 37.67842 
L 99.867824 38.076177 
L 99.346767 36.473433 
L 101.89044 33.091001 
L 104.839705 32.390756 
L 103.664102 38.746579 
L 104.963932 32.831728 
L 106.340336 31.16843 
L 109.227345 30.733641 
L 107.095532 30.765172 
L 108.14534 29.032884 
L 105.127123 31.988877 
L 105.266879 30.266843 
L 99.977236 33.074718 
L 100.419725 34.828148 
L 98.74016 35.047946 
L 97.619833 39.845532 
L 96.397787 40.538361 
L 95.822309 39.152923 
L 95.48802 41.881352 
L 94.343759 42.213947 
L 92.74903 40.281205 
L 94.437642 38.606645 
L 96.296354 38.973263 
L 96.389738 36.582905 
L 94.58445 37.161753 
L 96.219068 35.596666 
L 95.002293 35.252732 
L 96.390237 32.75244 
L 93.363187 37.62221 
L 91.114626 34.733597 
L 92.359537 33.649385 
L 90.819799 33.067369 
L 92.499293 32.956694 
L 91.99412 30.188382 
L 93.53457 32.162215 
L 96.110155 31.490961 
L 96.700663 26.230765 
L 95.557257 26.874458 
L 95.838122 25.64955 
L 91.822951 29.919337 
L 90.28941 27.676817 
L 91.737046 28.422524 
L 90.913112 26.437635 
L 88.749672 24.812111 
L 93.487344 28.075715 
L 91.737829 25.561452 
L 92.9046 24.147826 
L 94.740802 23.598582 
L 94.125648 22.775476 
L 91.667595 25.139166 
L 90.048506 24.357885 
L 89.294593 21.821687 
L 90.376313 23.526727 
L 91.05294 21.74111 
L 89.450162 20.473817 
L 90.686739 19.484313 
L 93.736867 21.3974 
L 94.032549 19.919792 
L 98.451816 18.663762 
L 101.283335 19.21141 
L 101.127979 20.449695 
L 102.45039 19.790668 
L 102.404232 21.012205 
L 104.613616 17.744014 
L 108.013348 19.815258 
L 106.705967 22.655308 
L 108.411175 21.396813 
L 109.064723 23.782791 
L 109.725822 22.334548 
L 108.308745 19.107197 
L 110.230853 18.389902 
L 112.362594 19.211852 
L 111.405601 18.268868 
L 114.564927 16.605329 
L 111.833488 17.244733 
L 110.815092 15.360105 
L 113.390392 11.549253 
L 110.596697 13.396133 
L 110.978212 18.099972 
L 107.407026 18.9462 
L 109.468036 15.950733 
L 107.881356 18.084468 
L 104.178179 17.147726 
L 104.714693 15.635032 
L 103.28337 15.797942 
L 103.042465 18.921575 
L 100.677013 17.518516 
L 99.073951 18.309019 
L 99.213493 16.921564 
L 93.207333 19.774471 
L 91.403042 19.115305 
L 90.072368 17.268982 
L 92.157738 17.527236 
L 89.364043 16.873037 
L 89.060384 15.635032 
L 95.533893 13.997287 
L 90.001564 14.914978 
L 89.558861 13.509954 
L 90.772074 12.779341 
L 89.045069 12.958205 
L 91.480043 11.744891 
L 97.231052 12.291033 
L 90.904066 11.158385 
L 92.98274 10.431522 
L 91.359448 9.695705 
L 93.503513 10.030659 
L 92.865779 9.328661 
L 89.216238 9.859014 
L 93.090585 8.632301 
L 89.170365 8.910581 
L 89.151132 7.2 
L 89.151132 7.2 
" clip-path="url(#pe027c8a40c)" style="fill: none; stroke: #000000; stroke-width: 0.05"/>
    <path d="M 90.238406 7.2 
L 90.811964 7.443079 
L 91.025838 7.2 
" clip-path="url(#pe027c8a40c)" style="fill: none; stroke: #000000; stroke-width: 0.05"/>
    <path d="M 42.557895 192.392137 
L 42.511238 192.393039 
L 39.959231 191.764711 
L 35.150969 193.388355 
L 33.991465 192.534993 
L 34.964272 191.777342 
L 31.556704 191.56755 
L 31.867131 192.638623 
L 28.739717 190.494811 
L 30.015969 192.454556 
L 28.070854 193.634485 
L 23.479634 193.240837 
L 24.328 195.248137 
L 19.901183 194.665639 
L 19.6216 196.442359 
L 16.477303 193.450233 
L 11.187162 195.082946 
L 10.097962 193.880529 
L 10.573076 195.064202 
L 9.093742 196.081014 
L 9.903714 196.093678 
L 9.700918 198.915288 
L 8.175926 197.720178 
L 9.281294 199.061045 
L 8.541841 200.748529 
L 7.375071 200.748084 
L 7.297001 199.872418 
L 7.2 200.11213 
" clip-path="url(#pe027c8a40c)" style="fill: none; stroke: #000000; stroke-width: 0.05"/>
    <path d="M 7.2 185.619614 
L 7.219217 185.615627 
L 10.767039 186.559537 
L 14.018966 186.621577 
L 14.742819 183.480818 
L 17.449897 182.007923 
L 20.298512 177.923 
L 19.831447 177.117679 
L 19.768692 177.117218 
L 17.240334 180.600856 
L 15.419446 181.338759 
L 14.704212 180.562914 
L 12.961393 183.237193 
L 10.782069 183.586736 
L 7.802958 182.107092 
L 7.2 180.779377 
" clip-path="url(#pe027c8a40c)" style="fill: none; stroke: #000000; stroke-width: 0.05"/>
    <path d="M 7.2 153.866116 
L 8.884179 154.370709 
L 11.622884 153.366793 
L 13.817238 155.293746 
L 12.627104 152.852084 
L 14.127878 152.02361 
L 15.638055 154.3576 
L 17.52818 153.387201 
L 15.575087 153.693965 
L 13.544351 150.394491 
L 14.727291 148.034264 
L 16.159398 147.73186 
L 14.260155 147.297807 
L 13.995887 145.664528 
L 14.073458 144.463775 
L 14.844252 145.44692 
L 14.555837 144.318488 
L 15.941287 143.788361 
L 16.033603 142.50595 
L 15.65337 143.398968 
L 15.240014 142.704395 
L 16.422598 139.397539 
L 15.185807 140.86711 
L 14.058641 139.596799 
L 13.132277 142.24713 
L 12.533435 139.197366 
L 11.506207 140.208704 
L 8.549677 135.095681 
L 10.775373 129.294642 
L 14.057858 127.426369 
L 9.071447 127.012624 
L 8.969799 129.227055 
L 7.2 129.005096 
" clip-path="url(#pe027c8a40c)" style="fill: none; stroke: #000000; stroke-width: 0.05"/>
    <path d="M 7.2 65.889682 
L 8.4174 65.305678 
L 11.062934 65.798527 
L 11.047121 64.39294 
L 14.338795 64.923468 
L 12.610721 70.846736 
L 7.2 75.002468 
" clip-path="url(#pe027c8a40c)" style="fill: none; stroke: #000000; stroke-width: 0.05"/>
    <path d="M 7.2 78.780572 
L 7.33568 78.734969 
L 7.2 78.949996 
" clip-path="url(#pe027c8a40c)" style="fill: none; stroke: #000000; stroke-width: 0.05"/>
    <path d="M 7.2 82.638746 
L 11.327202 81.195412 
L 14.205449 82.229443 
L 23.853884 81.632262 
L 25.573339 83.181076 
L 26.054934 85.616915 
L 23.938934 88.042647 
L 21.729835 96.06453 
L 18.851375 98.550582 
L 19.815634 98.846729 
L 18.850306 101.125406 
L 17.006624 102.894676 
L 11.023828 104.266295 
L 16.291105 103.162146 
L 15.381337 104.730308 
L 18.321769 106.174473 
L 16.306918 107.595436 
L 14.843683 107.189968 
L 10.828796 110.538464 
L 7.2 108.946415 
" clip-path="url(#pe027c8a40c)" style="fill: none; stroke: #000000; stroke-width: 0.05"/>
    <path d="M 7.2 109.388919 
L 8.168375 110.552351 
L 13.910053 111.55398 
L 17.535161 109.632355 
L 22.60071 112.060568 
L 23.612695 114.513116 
L 27.238586 117.590111 
L 27.876321 124.449688 
L 31.579783 132.060956 
L 31.236947 133.92873 
L 31.945699 132.833696 
L 37.266755 135.558792 
L 39.157593 139.304409 
L 41.834041 141.31184 
L 40.541975 142.810265 
L 42.557895 146.961448 
L 42.558179 146.96193 
L 43.584909 149.995884 
L 42.557895 149.489125 
L 41.592638 149.012494 
L 40.083458 147.291304 
L 35.267718 148.033783 
L 35.866774 148.959514 
L 36.820277 147.96015 
L 39.818406 147.751599 
L 40.464689 148.743465 
L 42.557895 150.428177 
L 44.12121 151.441196 
L 45.895655 156.196494 
L 42.557895 160.60658 
L 42.487589 160.699135 
L 42.557895 160.659825 
L 42.821878 160.512477 
L 46.058276 162.276744 
L 47.646024 159.272914 
L 54.710326 159.944392 
L 58.375609 163.093098 
L 59.044258 166.961635 
L 57.317538 172.9652 
L 54.881495 175.309435 
L 53.465487 173.805788 
L 54.500479 174.924877 
L 52.461551 175.012485 
L 54.609463 175.063334 
L 54.096454 177.04175 
L 52.299144 177.765557 
L 51.613684 176.54437 
L 51.800738 177.51355 
L 49.023354 178.38752 
L 51.310025 178.135398 
L 50.588237 180.025652 
L 51.264365 180.431877 
L 44.930897 182.306872 
L 49.03062 182.189092 
L 47.450993 183.443378 
L 49.077562 183.599518 
L 49.559941 182.600433 
L 51.014343 183.06955 
L 51.022962 183.997922 
L 49.583589 183.480362 
L 50.929079 184.196809 
L 55.877382 183.399772 
L 55.574719 186.975191 
L 52.259753 188.535484 
L 51.661195 190.581578 
L 49.746424 190.235917 
L 44.798621 193.216641 
L 42.557895 192.392137 
" clip-path="url(#pe027c8a40c)" style="fill: none; stroke: #000000; stroke-width: 0.05"/>
    <path d="M 153.847473 127.16191 
L 153.575939 128.415711 
L 156.158504 129.848445 
L 154.384629 132.033099 
L 154.330636 134.311721 
L 151.849005 128.279852 
L 153.545096 127.168616 
L 150.992091 125.811253 
L 152.94547 126.442985 
L 151.941321 125.266843 
L 152.829078 124.722478 
L 151.980997 123.747864 
L 147.677623 123.849722 
L 146.106544 121.45985 
L 147.273884 120.625104 
L 145.982316 118.689497 
L 146.62055 117.355159 
L 144.597649 116.170785 
L 146.215457 116.059883 
L 144.006073 114.887057 
L 147.732899 115.128472 
L 148.565665 113.267199 
L 149.965576 113.10098 
L 150.121216 111.796134 
L 147.842097 110.454498 
L 151.217752 111.665148 
L 152.540876 111.011475 
L 151.53751 112.115602 
L 152.09689 113.73771 
L 150.992875 114.249937 
L 152.470641 114.900344 
L 151.350029 115.300241 
L 153.062717 115.92243 
L 154.065584 111.748067 
L 155.080488 114.592758 
L 153.933307 116.419044 
L 154.496961 115.732626 
L 155.37325 116.45351 
L 154.774122 111.309954 
L 153.124189 111.184724 
L 157.489249 108.475654 
L 160.422202 110.001607 
L 159.441559 111.94896 
L 159.737739 116.584413 
L 160.35268 115.693698 
L 160.967549 117.493317 
L 159.57462 117.776348 
L 159.683319 116.618492 
L 156.920467 118.208847 
L 156.454685 119.87117 
L 158.866366 122.526823 
L 154.836378 124.585972 
L 156.345487 125.33534 
L 156.182367 127.25678 
L 153.847473 127.16191 
" clip-path="url(#pe027c8a40c)" style="fill: none; stroke: #000000; stroke-width: 0.05"/>
    <path d="M 212.44142 93.796486 
L 212.505243 93.739334 
L 213.437591 91.980318 
L 212.395761 92.52448 
L 211.476662 89.266735 
L 212.441919 87.033393 
L 211.616988 84.472428 
L 217.164631 77.733161 
L 218.082163 79.38653 
L 218.59624 77.703921 
L 220.090318 77.718541 
L 220.922301 79.58382 
L 219.12556 81.385204 
L 218.160802 80.888797 
L 217.779287 83.007783 
L 217.763972 85.645925 
L 219.226424 86.787903 
L 216.845657 88.475467 
L 217.063696 89.942433 
L 214.403133 91.334875 
L 214.356191 93.825517 
L 211.811521 95.302148 
L 212.44142 93.796486 
" clip-path="url(#pe027c8a40c)" style="fill: none; stroke: #000000; stroke-width: 0.05"/>
    <path d="M 135.922307 118.299996 
L 135.95315 118.286274 
L 138.894152 116.93685 
L 141.174553 118.650117 
L 140.31821 118.47143 
L 140.325974 119.960829 
L 141.749533 119.116736 
L 141.719189 116.915278 
L 142.9329 119.267844 
L 140.971473 119.885737 
L 142.317746 119.919643 
L 143.928074 122.335437 
L 142.900775 122.268126 
L 142.885745 126.041304 
L 136.622297 125.913162 
L 137.548662 125.0496 
L 135.922307 123.885543 
L 135.711747 124.981074 
L 133.283967 119.418791 
L 134.202567 119.707013 
L 133.183958 118.860075 
L 135.922307 118.299996 
" clip-path="url(#pe027c8a40c)" style="fill: none; stroke: #000000; stroke-width: 0.05"/>
    <path d="M 199.324515 93.754113 
L 199.339545 93.739334 
L 200.880351 88.763411 
L 202.397509 87.502298 
L 195.643847 107.398815 
L 195.636581 100.503764 
L 199.324515 93.754113 
" clip-path="url(#pe027c8a40c)" style="fill: none; stroke: #000000; stroke-width: 0.05"/>
    <path d="M 145.242436 130.031211 
L 145.258748 130.044687 
L 146.448383 129.875405 
L 145.406838 128.889014 
L 146.892653 127.785514 
L 151.030984 130.206756 
L 151.38942 128.733432 
L 153.295857 132.262328 
L 150.502233 132.686191 
L 149.988441 133.734508 
L 145.321004 131.016254 
L 145.242436 130.031211 
" clip-path="url(#pe027c8a40c)" style="fill: none; stroke: #000000; stroke-width: 0.05"/>
    <path d="M 29.991822 40.140763 
L 29.991038 40.094037 
L 30.349973 35.690799 
L 29.182633 35.299252 
L 28.895072 37.341942 
L 26.646796 34.639318 
L 28.754461 34.757451 
L 28.786658 33.657303 
L 29.750917 34.710459 
L 30.755066 33.477041 
L 28.88802 33.398268 
L 28.973356 30.852526 
L 27.269501 30.955195 
L 28.273151 29.587574 
L 28.56 29.864007 
L 30.32661 27.986367 
L 29.665012 32.611281 
L 30.995757 30.772548 
L 30.809558 32.587776 
L 32.777468 31.806971 
L 31.5015 33.491729 
L 32.310119 35.188546 
L 31.066561 35.768562 
L 31.999906 37.287275 
L 30.669233 42.866403 
L 29.602827 42.145795 
L 29.991822 40.140763 
" clip-path="url(#pe027c8a40c)" style="fill: none; stroke: #000000; stroke-width: 0.05"/>
    <path d="M 173.944983 52.815574 
L 172.560031 56.847332 
L 173.620809 57.387349 
L 173.908655 56.387894 
L 174.349506 57.412564 
L 171.634166 63.586429 
L 167.323883 65.292134 
L 166.291669 67.355889 
L 165.070193 67.147364 
L 165.638121 65.531228 
L 163.794154 65.526168 
L 159.95065 70.120033 
L 160.464157 67.936503 
L 157.559483 69.744277 
L 160.505685 65.033105 
L 158.425728 62.071223 
L 159.364558 62.061047 
L 158.643554 59.230914 
L 160.072598 61.865883 
L 161.096977 57.331927 
L 162.780103 56.908066 
L 166.307197 60.200866 
L 164.598142 53.465764 
L 165.513608 51.803576 
L 166.423945 53.0341 
L 166.540622 51.915542 
L 170.153336 51.070193 
L 170.87954 52.673337 
L 173.944983 52.739365 
L 173.944983 52.815574 
" clip-path="url(#pe027c8a40c)" style="fill: none; stroke: #000000; stroke-width: 0.05"/>
    <path d="M 181.997621 61.720605 
L 181.15994 66.058743 
L 182.443743 67.201922 
L 179.505306 69.531516 
L 174.847485 80.162361 
L 174.069425 77.481219 
L 175.817443 71.260862 
L 178.154118 65.456555 
L 181.779796 60.72297 
L 182.049478 61.640385 
L 181.997621 61.720605 
" clip-path="url(#pe027c8a40c)" style="fill: none; stroke: #000000; stroke-width: 0.05"/>
    <path d="M 122.477808 100.866009 
L 122.661942 99.399723 
L 121.323717 99.366666 
L 121.798332 97.371774 
L 124.669314 93.848924 
L 127.6881 93.363082 
L 126.852983 91.817543 
L 128.707279 94.063079 
L 133.902042 92.122991 
L 135.263559 93.015151 
L 133.098053 93.243985 
L 131.87907 95.113987 
L 131.96989 94.096282 
L 130.481225 93.767976 
L 128.302756 95.308932 
L 128.175679 99.555523 
L 129.31417 99.126009 
L 130.164816 101.73185 
L 128.040767 99.975295 
L 127.252378 101.393227 
L 127.29647 97.234302 
L 123.574843 100.437243 
L 124.101314 102.624643 
L 122.485074 101.034512 
L 122.477808 100.866009 
" clip-path="url(#pe027c8a40c)" style="fill: none; stroke: #000000; stroke-width: 0.05"/>
    <path d="M 192.085482 49.307263 
L 194.917001 50.202248 
L 197.064628 49.195106 
L 197.061779 47.46175 
L 198.985026 49.049651 
L 199.509717 47.789955 
L 202.135377 48.719583 
L 201.832929 47.522703 
L 204.897303 50.47031 
L 205.062987 46.602979 
L 206.34095 49.835489 
L 208.041243 50.612771 
L 208.879067 48.880285 
L 206.565756 46.474963 
L 205.946328 46.970807 
L 206.220355 45.165936 
L 204.931565 45.036775 
L 206.971989 43.925357 
L 206.721468 46.485397 
L 207.991096 47.259561 
L 208.089752 46.349318 
L 209.219695 48.048653 
L 208.404381 51.140169 
L 210.723105 52.278421 
L 209.519366 54.269994 
L 206.986591 53.319632 
L 206.941003 54.290323 
L 204.849364 52.649605 
L 204.892388 53.953971 
L 203.169799 53.955225 
L 204.129286 52.285965 
L 201.756854 51.972706 
L 199.797349 49.576974 
L 192.848655 50.621595 
L 192.108276 49.327334 
L 192.085482 49.307263 
" clip-path="url(#pe027c8a40c)" style="fill: none; stroke: #000000; stroke-width: 0.05"/>
    <path d="M 85.956761 178.592186 
L 87.258728 177.343689 
L 86.615509 178.177731 
L 87.637323 178.613109 
L 86.008688 178.579655 
L 85.956761 178.592186 
" clip-path="url(#pe027c8a40c)" style="fill: none; stroke: #000000; stroke-width: 0.05"/>
   </g>
   <g id="LineCollection_2">
    <path d="M 155.469198 199.228082 
L 157.645104 201.486881 
L 159.437143 198.187385 
L 163.796789 197.829295 
L 167.479452 194.553214 
L 168.291205 195.137715 
L 169.121122 193.571049 
L 171.950576 193.333447 
L 172.407026 192.353602 
L 176.914478 190.838197 
L 175.659238 189.434658 
L 176.123453 188.469876 
L 177.988148 188.535937 
L 179.048926 191.36424 
L 180.426043 191.947384 
L 182.653805 191.220464 
L 182.809374 188.836925 
L 184.217619 188.973045 
L 186.14977 192.517644 
L 190.218864 192.960567 
L 192.031703 195.129634 
L 192.955004 194.271004 
L 195.395391 194.512328 
L 196.124231 195.562588 
L 193.849741 197.71537 
L 197.934434 202.356855 
L 201.557477 200.591545 
L 200.252945 197.519898 
L 203.165454 198.285034 
L 205.403545 200.323923 
L 208.056629 199.297138 
L 208.409367 200.895572 
L 206.925902 201.478874 
L 207.392753 202.33664 
L 209.444217 204.242884 
L 211.083251 203.851545 
L 211.005466 203.072314 
L 213.598859 205.210097 
L 216.003061 205.173815 
L 216.532097 208.003489 
L 218.176331 208.645067 
L 219.745416 212.641211 
L 221.827937 212.465852 
L 224.304652 209.574126 
L 225.904795 212.545546 
L 227.328639 212.497818 
L 227.149706 215.365599 
L 230.046615 215.810072 
L 230.627578 213.81178 
L 232.344397 212.617351 
L 235.835163 212.334249 
L 237.842535 214.082274 
L 239.533497 213.075371 
L 239.380492 212.238652 
L 244.344323 212.063193 
L 245.290529 212.46701 
L 245.290529 212.46701 
" clip-path="url(#pe027c8a40c)" style="fill: none; stroke: #000000; stroke-width: 0.05"/>
    <path d="M 170.664279 252.660101 
L 178.587276 254.572463 
L 181.396001 251.460419 
L 187.233841 251.445278 
L 190.537909 249.997807 
L 192.278092 250.86358 
L 191.806113 248.528322 
L 194.679658 247.986092 
L 196.91262 252.927581 
L 202.747896 257.390666 
L 204.184633 260.116102 
L 206.66142 260.582517 
L 209.337797 262.89858 
L 214.75295 263.099309 
L 216.804414 260.903059 
L 220.007334 260.739016 
L 220.899507 259.444143 
L 222.624161 259.925845 
L 225.178662 257.469359 
L 231.161814 257.746417 
L 235.946711 263.21823 
L 236.768864 262.946878 
L 236.597624 266.677441 
L 243.418457 271.107108 
L 242.049105 272.994919 
L 242.432066 273.312 
L 242.432066 273.312 
" clip-path="url(#pe027c8a40c)" style="fill: none; stroke: #000000; stroke-width: 0.05"/>
    <path d="M 113.411121 238.167124 
L 112.682352 236.5272 
L 113.735295 232.77942 
L 113.317736 230.727281 
L 113.561134 229.971116 
L 113.804532 229.214154 
L 114.048 228.456286 
L 114.291398 227.697829 
L 114.534796 226.938354 
L 114.778193 226.178286 
L 115.021591 225.417194 
L 115.26506 224.655398 
L 115.508458 223.892789 
L 115.67001 223.386192 
L 116.104807 222.851403 
L 116.539532 222.316211 
L 116.974329 221.780617 
L 117.409125 221.244619 
L 117.843921 220.708217 
L 118.278718 220.171409 
L 118.713443 219.634196 
L 119.148239 219.096576 
L 119.376037 218.814647 
L 118.821287 218.696593 
L 118.266466 218.578301 
L 117.711716 218.460207 
L 117.156895 218.341876 
L 116.602145 218.223742 
L 116.047323 218.105372 
L 115.492573 217.98709 
L 114.937752 217.868789 
L 114.38293 217.750468 
L 113.997212 217.668207 
L 111.912056 215.790241 
L 110.599831 216.725821 
L 108.322777 216.717986 
L 107.264635 215.15918 
L 105.399939 215.941028 
L 105.068856 215.249585 
L 104.737772 214.557464 
L 104.40676 213.864664 
L 104.075677 213.171182 
L 103.744593 212.477018 
L 103.623428 212.222663 
L 101.958395 211.732089 
L 102.19474 210.950276 
L 102.431086 210.167482 
L 102.667432 209.383926 
L 102.903778 208.599495 
L 103.140123 207.814186 
L 103.376469 207.027996 
L 103.472988 206.70665 
L 100.93658 205.644896 
L 99.629484 203.080413 
L 100.194848 200.547004 
L 102.295533 199.219937 
L 102.072507 197.503681 
L 100.303761 196.256388 
L 101.105185 194.851701 
L 98.84366 193.456308 
L 99.326039 190.500913 
L 97.308338 188.60607 
L 97.833242 188.294893 
L 98.358146 187.983349 
L 98.88305 187.67189 
L 99.407955 187.360177 
L 99.932859 187.048322 
L 100.161155 186.912728 
L 99.28971 185.679346 
L 100.656498 183.825217 
L 100.369721 183.054017 
L 100.082943 182.281946 
L 99.796237 181.509002 
L 99.509459 180.735183 
L 99.222682 179.960487 
L 98.935904 179.185024 
L 98.649198 178.408564 
L 98.36242 177.631218 
L 98.094163 176.90335 
L 100.135227 176.718696 
L 100.026314 175.685346 
L 102.344825 176.857133 
L 102.891027 176.655865 
L 103.43723 176.454422 
L 103.983432 176.253035 
L 104.529634 176.051588 
L 105.075837 175.850081 
L 105.54518 175.676918 
L 106.325805 174.595727 
L 105.036802 173.242886 
L 105.542901 172.852054 
L 106.049 172.460997 
L 106.555099 172.069714 
L 107.061127 171.678205 
L 107.567226 171.28647 
L 108.073325 170.894508 
L 108.408326 170.634934 
L 107.827363 167.24694 
L 105.677457 167.238289 
L 105.008309 165.874971 
L 105.711149 164.303562 
L 108.395362 164.423197 
L 108.625012 163.580718 
L 108.854662 162.736948 
L 109.084312 161.892234 
L 109.313891 161.046457 
L 109.543541 160.199494 
L 109.773191 159.351696 
L 109.928119 158.779074 
L 109.886662 157.849934 
L 109.845206 156.91962 
L 109.803749 155.987773 
L 109.762292 155.054862 
L 109.720836 154.120527 
L 109.715422 153.999157 
L 107.874091 153.85594 
L 106.945661 151.864178 
L 106.411853 151.57871 
L 105.878116 151.292999 
L 105.344308 151.007165 
L 104.810571 150.721329 
L 104.276834 150.43513 
L 103.743026 150.149047 
L 103.209289 149.862722 
L 102.675481 149.576273 
L 102.394117 149.425258 
" clip-path="url(#pe027c8a40c)" style="fill: none; stroke: #000000; stroke-width: 0.05"/>
    <path d="M 231.729742 258.195516 
L 233.869319 257.342005 
L 235.155687 258.019671 
L 236.945233 256.082412 
L 239.178195 256.56249 
L 240.272594 255.800916 
L 240.5078 255.064771 
L 240.743077 254.327788 
L 240.978355 253.590276 
L 241.213561 252.851819 
L 241.448838 252.112725 
L 241.673074 251.407529 
L 243.52217 250.103578 
L 243.731305 249.345182 
L 243.940298 248.586001 
L 244.149434 247.826033 
L 244.358498 247.065276 
L 244.567562 246.303728 
L 244.702189 245.812937 
L 245.102652 245.238047 
L 245.290529 244.968133 
" clip-path="url(#pe027c8a40c)" style="fill: none; stroke: #000000; stroke-width: 0.05"/>
    <path d="M 105.147449 273.312 
L 104.365161 271.647483 
L 104.909226 271.458315 
L 105.453221 271.2691 
L 105.997286 271.080039 
L 106.541351 270.890728 
L 107.085417 270.70137 
L 107.629482 270.512066 
L 108.173547 270.322714 
L 108.626152 270.16507 
L 109.611709 267.594324 
L 109.181115 267.083627 
L 108.750593 266.572583 
L 108.319999 266.061189 
L 107.889477 265.549447 
L 107.458883 265.037355 
L 107.02836 264.524912 
L 106.597767 264.012118 
L 106.177929 263.511828 
L 106.128708 262.046668 
L 108.278685 260.694364 
L 109.673965 261.406226 
L 110.209198 261.168809 
L 110.744431 260.931317 
L 111.279664 260.693749 
L 111.814967 260.456105 
L 112.3502 260.218386 
L 112.885433 259.98059 
L 113.050618 259.907186 
L 113.597319 260.083098 
L 114.14402 260.258967 
L 114.69065 260.434796 
L 115.237351 260.610583 
L 115.784052 260.786328 
L 115.973456 260.847153 
L 116.410746 260.343813 
L 116.848035 259.839927 
L 117.285396 259.335905 
L 117.722686 258.831335 
L 118.159975 258.326628 
L 118.597265 257.821371 
L 118.639505 257.772636 
L 118.258274 255.999757 
L 118.745925 255.600784 
L 119.233503 255.20139 
L 119.721154 254.801883 
L 120.208732 254.40216 
L 120.696383 254.002117 
L 121.183961 253.60196 
L 121.266661 253.534023 
L 121.409338 256.472473 
L 123.017244 258.165612 
L 124.962359 258.483602 
L 124.581129 259.918259 
L 126.640286 262.188142 
L 127.384654 261.137899 
L 126.67405 259.257306 
L 127.102293 258.73687 
L 127.530465 258.216068 
L 127.958708 257.694901 
L 128.38688 257.173264 
L 128.815123 256.651363 
L 128.860355 256.596269 
L 129.358262 252.980362 
L 130.872856 252.923856 
L 131.650845 255.646981 
L 132.202033 255.501781 
L 132.753151 255.356552 
L 133.304268 255.211295 
L 133.855385 255.065906 
L 134.406503 254.920591 
L 134.957691 254.775145 
L 135.3984 254.658891 
L 137.206039 256.671237 
L 137.439464 254.185118 
L 136.358029 253.767486 
L 136.391721 252.49039 
L 138.100776 251.131818 
L 138.775124 252.301789 
L 140.320845 252.332035 
L 139.516856 250.523395 
L 140.47385 247.071327 
L 139.257503 246.257985 
L 136.944121 248.266735 
L 134.796708 247.05234 
L 134.760451 245.911895 
L 134.202496 245.839062 
L 133.644469 245.766327 
L 133.086514 245.693375 
L 132.528487 245.620626 
L 131.970531 245.547764 
L 131.412505 245.474895 
L 131.028425 245.424709 
L 131.173666 243.26688 
L 132.869828 240.792296 
L 131.87907 238.782023 
" clip-path="url(#pe027c8a40c)" style="fill: none; stroke: #000000; stroke-width: 0.05"/>
    <path d="M 245.290529 137.834379 
L 244.91396 137.859692 
L 244.354153 137.89732 
L 243.794417 137.934947 
L 243.23468 137.972571 
L 242.674944 138.010194 
L 242.469228 138.023874 
L 241.910987 137.944231 
L 241.352747 137.864334 
L 240.794435 137.78455 
L 240.236266 137.704756 
L 239.677954 137.624952 
L 239.119714 137.545139 
L 238.561473 137.465316 
L 238.003233 137.385484 
L 237.444993 137.305519 
L 236.886681 137.225789 
L 236.328512 137.145805 
L 235.7702 137.066056 
L 235.21196 136.986053 
L 234.653719 136.906162 
L 234.095479 136.826261 
L 233.537238 136.746351 
L 232.978927 136.666431 
L 232.420757 136.586502 
L 231.862446 136.506562 
L 231.304205 136.426491 
L 230.745965 136.346654 
L 230.187653 136.266563 
L 229.629484 136.186708 
L 229.071172 136.106597 
L 228.513003 136.026599 
L 227.954692 135.946592 
L 227.396451 135.866575 
L 226.838211 135.786548 
L 226.279899 135.706389 
L 225.72173 135.626465 
L 225.570292 135.604643 
" clip-path="url(#pe027c8a40c)" style="fill: none; stroke: #000000; stroke-width: 0.05"/>
    <path d="M 133.411827 238.835413 
L 133.94357 238.02866 
L 135.579969 238.68188 
L 136.8382 241.279117 
L 138.082755 240.979889 
L 137.540328 242.449602 
L 139.916465 240.938545 
L 140.333809 238.078514 
L 140.577421 238.789726 
L 141.137656 238.789726 
L 141.697819 238.789726 
L 142.258054 238.789726 
L 142.818218 238.789726 
L 143.378381 238.789726 
L 143.938545 238.789726 
L 144.161713 238.789726 
L 145.056166 240.734419 
L 147.774 240.697166 
L 148.269271 240.310414 
L 148.764615 239.923455 
L 149.259886 239.536291 
L 149.75523 239.149025 
L 150.250501 238.761447 
L 150.745844 238.373767 
L 151.216328 238.00521 
L 151.776349 237.986197 
L 152.336442 237.967394 
L 152.896463 237.948379 
L 153.456484 237.929575 
L 154.016505 237.910559 
L 154.576598 237.891754 
L 155.136619 237.872738 
L 155.69664 237.853932 
L 156.256732 237.834914 
L 156.426049 237.829209 
L 156.996542 235.975318 
L 156.955441 236.755157 
L 158.719059 236.592927 
L 159.43237 237.513439 
L 161.872046 236.93544 
L 162.154906 238.620986 
L 164.427401 239.3925 
L 164.678563 236.789863 
L 163.098793 236.235005 
L 164.014686 234.431156 
L 163.633384 233.81945 
L 163.252083 233.207011 
L 162.870781 232.594159 
L 162.489479 231.980783 
L 162.108178 231.366778 
L 161.726876 230.752462 
L 161.67502 230.668806 
L 162.19857 230.370382 
L 162.722192 230.071835 
L 163.245743 229.773163 
L 163.769365 229.474367 
L 164.292916 229.175446 
L 164.816538 228.8764 
L 165.340089 228.57723 
L 165.863711 228.277828 
L 166.387261 227.978408 
L 166.910812 227.678863 
L 167.434434 227.379192 
L 167.619564 227.273162 
L 168.117187 224.421739 
L 170.71642 225.138189 
L 171.724772 221.54331 
L 169.780013 218.973144 
L 168.513946 219.082585 
L 168.033989 218.642767 
L 167.554031 218.202459 
L 167.074074 217.761985 
L 166.594117 217.321238 
L 166.114089 216.880107 
L 165.648592 216.4522 
L 164.182792 214.050926 
L 163.655965 213.758893 
L 163.129137 213.466739 
L 162.60231 213.174463 
L 162.075411 212.882176 
L 161.548584 212.589549 
L 161.021757 212.297019 
L 160.801153 212.174366 
L 160.441862 211.513203 
L 160.082571 210.851418 
L 159.723279 210.18901 
L 159.363988 209.526086 
L 159.004697 208.862427 
L 158.645406 208.198139 
L 158.355922 207.662419 
L 159.676053 205.120826 
L 159.170666 204.745364 
L 158.66528 204.369812 
L 158.159893 203.994057 
L 157.654506 203.6181 
L 157.149119 203.24194 
L 157.030163 203.153194 
L 156.73441 202.411831 
L 156.438729 201.669679 
L 156.143047 200.926624 
L 155.847294 200.182887 
L 155.551613 199.438354 
L 155.466278 199.223284 
" clip-path="url(#pe027c8a40c)" style="fill: none; stroke: #000000; stroke-width: 0.05"/>
    <path d="M 192.978368 248.008805 
L 194.703022 245.968944 
L 196.707759 246.128678 
L 196.628193 245.315123 
L 196.548628 244.500452 
L 196.469133 243.68508 
L 196.389568 242.868796 
L 196.310003 242.051491 
L 196.230508 241.233267 
L 196.160488 240.512552 
L 197.75543 240.22891 
L 198.606075 238.739815 
L 198.122913 238.319921 
L 197.63975 237.899572 
L 197.156516 237.479191 
L 196.673283 237.058565 
L 196.190049 236.637589 
L 196.147524 236.600442 
L 197.874814 235.736836 
L 199.054833 236.777695 
L 199.613002 236.708809 
L 200.171314 236.639812 
L 200.729626 236.570913 
L 201.287795 236.502008 
L 201.846106 236.43299 
L 202.143569 236.396256 
L 201.4252 234.238355 
L 203.059035 232.077919 
L 203.566914 232.431204 
L 204.074866 232.784315 
L 204.582745 233.137253 
L 205.090625 233.490018 
L 205.598505 233.842611 
L 206.106385 234.195031 
L 206.614336 234.547279 
L 207.122216 234.899356 
L 207.630096 235.25126 
L 208.137975 235.602994 
L 208.5987 235.921929 
L 209.158864 235.911123 
L 209.719027 235.900212 
L 210.27912 235.8893 
L 210.839212 235.878494 
L 211.399376 235.867476 
L 211.95954 235.85667 
L 212.519703 235.845757 
L 213.079867 235.834845 
L 213.639959 235.824038 
L 214.200052 235.813019 
L 214.760216 235.802212 
L 215.320379 235.791299 
L 215.880543 235.780385 
L 216.440635 235.769578 
L 216.731758 235.763856 
L 218.583489 234.876016 
L 217.675859 232.70579 
L 218.542033 231.693986 
L 219.101199 231.644755 
L 219.660508 231.59552 
L 220.219675 231.546281 
L 220.778912 231.49704 
L 221.33815 231.447795 
L 221.897316 231.398546 
L 222.456554 231.349295 
L 223.015792 231.30004 
L 223.574958 231.250781 
L 224.134196 231.201519 
L 224.359145 231.181686 
L 225.83741 229.128822 
L 226.37079 229.385751 
L 226.904171 229.642588 
L 227.437552 229.899441 
L 227.970932 230.156201 
L 228.504313 230.412763 
L 228.705755 230.509684 
L 229.230446 230.215358 
L 229.755136 229.921019 
L 230.279755 229.626559 
L 230.804375 229.331978 
L 231.329065 229.037276 
L 231.853684 228.742346 
L 232.378304 228.447294 
L 232.46891 228.396448 
L 232.781402 227.6974 
L 233.093894 226.997777 
L 233.406457 226.297254 
L 233.718878 225.596259 
L 234.031442 224.894468 
L 234.048252 224.856493 
L 234.604142 224.751488 
L 235.160032 224.646467 
L 235.71585 224.54143 
L 236.271669 224.436271 
L 236.827559 224.331203 
L 236.929633 224.311932 
L 237.468926 224.541 
L 238.008148 224.769994 
L 238.547512 224.998915 
L 239.086734 225.227762 
L 239.626098 225.456537 
L 239.743487 225.50641 
L 240.284133 225.284963 
L 240.82478 225.063447 
L 241.365426 224.841862 
L 241.906072 224.620209 
L 242.446647 224.398487 
L 242.648161 224.315808 
L 243.111592 224.791405 
L 243.575024 225.266685 
L 244.038384 225.741542 
L 244.501744 226.21619 
L 244.965176 226.690524 
L 245.290529 227.023269 
" clip-path="url(#pe027c8a40c)" style="fill: none; stroke: #000000; stroke-width: 0.05"/>
    <path d="M 108.286449 260.694364 
L 107.85671 260.177494 
L 107.426971 259.660266 
L 106.997232 259.142677 
L 106.567493 258.624728 
L 106.137825 258.106417 
L 105.910811 257.832475 
L 106.133836 254.181295 
L 105.13795 253.646938 
L 104.582915 253.756735 
L 104.02788 253.866309 
L 103.472774 253.976073 
L 102.917739 254.085718 
L 102.362633 254.195346 
L 101.807598 254.304958 
L 101.481216 254.369416 
L 100.682427 255.440516 
L 101.405995 256.472473 
L 100.871404 256.714484 
L 100.336812 256.95621 
L 99.802149 257.198063 
L 99.267558 257.439734 
L 98.732966 257.681327 
L 98.257568 257.896215 
L 100.057371 254.798063 
L 99.24049 254.030846 
L 99.790253 251.766068 
L 100.276408 251.360962 
L 100.762562 250.955633 
L 101.248716 250.549976 
L 101.734871 250.1442 
L 102.221025 249.738199 
L 102.707179 249.331869 
L 102.847932 249.214129 
L 102.643071 247.170011 
L 105.13795 245.69118 
L 105.563843 245.156989 
L 105.989735 244.622407 
L 106.415628 244.087433 
L 106.84152 243.552171 
L 107.267413 243.016307 
L 107.693305 242.480258 
L 108.119198 241.943709 
L 108.488746 241.477833 
L 106.802984 241.316971 
L 107.824799 239.381114 
L 109.76215 239.407998 
L 110.218529 240.435915 
L 110.726623 240.087153 
L 111.234717 239.738224 
L 111.74281 239.389127 
L 112.250904 239.039862 
L 112.758997 238.690428 
L 113.267019 238.340826 
L 113.775113 237.99095 
L 113.8935 237.909503 
L 114.183981 238.755221 
L 114.737948 238.631962 
L 115.291914 238.508682 
L 115.845881 238.38538 
L 116.399847 238.262058 
L 116.953814 238.138715 
L 117.507852 238.015351 
L 118.061818 237.892071 
L 118.615785 237.768665 
L 119.106355 237.659399 
L 119.665593 237.708328 
L 120.224759 237.757148 
L 120.783997 237.806175 
L 121.343235 237.854988 
L 121.902401 237.903904 
L 122.461639 237.952816 
L 122.625685 237.967182 
L 123.053572 237.12435 
L 121.046271 236.519579 
L 122.534865 235.088375 
L 123.040679 235.446866 
L 123.546422 235.805179 
L 124.052165 236.16342 
L 124.557979 236.521272 
L 125.063722 236.879159 
L 125.569536 237.236764 
L 125.584779 237.247549 
L 126.144729 237.221219 
L 126.704608 237.194994 
L 127.264487 237.168768 
L 127.824437 237.142329 
L 128.384316 237.116101 
L 128.944266 237.089872 
L 129.028888 237.085853 
L 129.569179 237.305493 
L 130.10954 237.525066 
L 130.64983 237.744467 
L 131.19012 237.964013 
L 131.73041 238.183282 
L 132.2707 238.402589 
L 132.810991 238.62183 
L 133.351281 238.841005 
L 133.385899 238.855037 
" clip-path="url(#pe027c8a40c)" style="fill: none; stroke: #000000; stroke-width: 0.05"/>
    <path d="M 156.006339 7.2 
L 156.258015 7.465618 
L 156.758985 7.994295 
L 157.259955 8.522363 
L 157.760926 9.049973 
L 158.261896 9.577275 
L 158.762867 10.103821 
L 159.263837 10.630211 
L 159.764807 11.155996 
L 160.265778 11.681327 
L 160.766748 12.206205 
L 161.267719 12.730632 
L 161.768689 13.254756 
L 162.269659 13.778132 
L 162.588206 14.110848 
L 162.276284 15.081048 
L 161.964362 16.049559 
L 161.652439 17.016683 
L 161.340517 17.98213 
L 161.028595 18.946052 
L 160.716672 19.908456 
L 160.710547 19.9273 
L 160.155369 20.082005 
L 159.600192 20.236671 
L 159.045085 20.39115 
L 158.489908 20.545885 
L 157.93473 20.700286 
L 157.379553 20.854795 
L 156.824447 21.009266 
L 156.555833 21.083915 
L 156.894111 22.004377 
L 157.232389 22.923456 
L 157.570667 23.841012 
L 157.908945 24.757341 
L 158.247223 25.672302 
L 158.5855 26.585753 
L 158.923778 27.497846 
L 159.262056 28.408731 
L 159.600334 29.318266 
L 159.938541 30.226311 
L 160.251531 31.065363 
L 160.087771 32.151536 
L 159.92401 33.235938 
L 159.760249 34.318433 
L 159.596488 35.398885 
L 159.432727 36.477732 
L 159.268966 37.554408 
L 159.162261 38.255241 
L 158.683372 38.837948 
L 158.204555 39.420248 
L 157.725666 40.001999 
L 157.246778 40.58306 
L 156.767889 41.163718 
L 156.289072 41.743831 
L 155.974941 42.123928 
L 155.419835 42.274709 
L 154.8648 42.425169 
L 154.309694 42.575877 
L 153.754659 42.726406 
L 153.199624 42.876898 
L 152.870534 42.966098 
L 153.687487 45.52671 
L 151.475254 47.605607 
L 151.673562 48.639778 
L 151.871942 49.67251 
L 152.07025 50.703246 
L 152.268629 51.732415 
L 152.466937 52.759884 
L 152.665246 53.785658 
L 152.71233 54.028918 
L 152.454045 55.000312 
L 152.19576 55.970055 
L 151.937546 56.938292 
L 151.679261 57.905304 
L 151.420976 58.870543 
L 151.162691 59.834292 
L 151.060331 60.2159 
L 149.291584 60.507122 
L 148.062273 56.559668 
L 147.534377 56.924704 
L 147.006481 57.289527 
L 146.478657 57.654136 
L 145.950761 58.018532 
L 145.422865 58.382715 
L 144.894969 58.746686 
L 144.367073 59.110445 
L 143.839249 59.473992 
L 143.311353 59.837328 
L 142.994658 60.0552 
" clip-path="url(#pe027c8a40c)" style="fill: none; stroke: #000000; stroke-width: 0.05"/>
    <path d="M 218.559128 210.89838 
L 215.786233 211.114166 
L 214.17099 213.582609 
L 212.350458 214.212678 
L 211.528803 217.454524 
L 209.922892 218.02413 
L 209.558757 219.332749 
L 209.02559 219.594097 
L 208.492423 219.855457 
L 207.959185 220.116613 
L 207.425946 220.377672 
L 206.892779 220.638744 
L 206.359612 220.899611 
L 206.225697 220.965057 
L 205.666958 220.905128 
L 205.108077 220.845087 
L 204.549338 220.78504 
L 203.990528 220.724989 
L 203.431717 220.664932 
L 202.872978 220.604979 
L 202.397722 220.553895 
L 200.735894 223.738509 
" clip-path="url(#pe027c8a40c)" style="fill: none; stroke: #000000; stroke-width: 0.05"/>
    <path d="M 101.958395 211.732089 
L 100.721319 211.037491 
L 98.369045 211.895688 
L 96.405836 210.334191 
L 93.656732 211.069413 
L 91.817965 208.296269 
L 91.271762 208.10396 
L 90.72556 207.911599 
L 90.179358 207.719294 
L 89.633155 207.526937 
L 89.086953 207.334417 
L 88.54068 207.141844 
L 87.994477 206.949328 
L 87.933005 206.927591 
L 87.891477 206.061748 
L 87.849949 205.194722 
L 87.808421 204.326619 
L 87.766893 203.457547 
L 87.725294 202.58728 
L 87.683766 201.715927 
L 87.673651 201.503117 
L 87.210861 201.995794 
L 86.748142 202.488123 
L 86.285351 202.980106 
L 85.822632 203.471741 
L 85.359842 203.96303 
L 84.897123 204.453974 
L 84.670464 204.694446 
L 84.11258 204.615405 
L 83.554696 204.536355 
L 82.996811 204.457296 
L 82.438927 204.378339 
L 81.881043 204.299262 
L 81.323159 204.220287 
L 81.311904 204.218626 
L 81.92136 200.068455 
L 80.214869 198.740474 
L 79.661188 198.873989 
L 79.107506 199.007255 
L 78.553824 199.140719 
L 78.000143 199.274157 
L 77.446461 199.407347 
L 77.16239 199.475828 
L 76.322074 196.749886 
L 75.767181 196.629624 
L 75.212217 196.509229 
L 74.657325 196.388925 
L 74.102361 196.268488 
L 73.547397 196.148143 
L 73.18141 196.068797 
L 71.965063 192.361827 
L 69.656881 193.747172 
L 68.699958 193.284274 
L 66.863756 191.433972 
L 66.287992 187.900337 
" clip-path="url(#pe027c8a40c)" style="fill: none; stroke: #000000; stroke-width: 0.05"/>
    <path d="M 170.627951 265.16676 
L 172.513375 264.640245 
L 172.020382 264.259539 
L 171.527461 263.878638 
L 171.03454 263.497544 
L 170.541547 263.116357 
L 170.048626 262.734976 
L 169.555634 262.353297 
L 169.515317 262.322027 
L 169.834362 259.903393 
L 168.413082 259.634626 
L 170.179264 257.394369 
L 167.81659 256.911124 
L 167.508016 255.778339 
L 167.970521 255.320756 
L 168.432956 254.862891 
L 168.895461 254.404638 
L 169.357967 253.946102 
L 169.820472 253.48728 
L 170.282906 253.028276 
L 170.646115 252.667555 
L 170.090439 252.564016 
L 169.534834 252.460565 
L 168.979158 252.356997 
L 168.423553 252.253414 
L 167.867877 252.149817 
L 167.312272 252.046308 
L 166.756596 251.942682 
L 166.200991 251.83904 
L 165.645315 251.735385 
L 165.08971 251.631714 
L 164.534034 251.528029 
L 163.978429 251.42433 
L 163.422753 251.320616 
L 162.867148 251.216887 
L 162.311472 251.113143 
L 161.755867 251.009489 
L 161.200191 250.905716 
L 160.644586 250.801929 
L 160.08891 250.698127 
L 159.533305 250.594414 
L 158.977629 250.490583 
L 158.708375 250.440219 
L 157.219781 247.868552 
L 155.959341 247.41687 
L 156.3613 244.922026 
L 155.820583 245.136906 
L 155.279865 245.351723 
L 154.739076 245.566372 
L 154.198359 245.781063 
L 153.65757 245.995586 
L 153.116853 246.21015 
L 152.576064 246.424652 
L 152.315499 246.527912 
L 151.755478 246.543155 
L 151.195315 246.558292 
L 150.635293 246.573534 
L 150.075201 246.588775 
L 149.515108 246.604017 
L 148.955016 246.619257 
L 148.394924 246.634498 
L 147.834831 246.649634 
L 147.274739 246.664874 
L 146.85889 246.676147 
L 145.396224 249.327813 
L 144.844466 249.186043 
L 144.292779 249.044142 
L 143.741092 248.902213 
L 143.189405 248.760257 
L 142.637717 248.618377 
L 142.085959 248.47647 
L 141.534272 248.334432 
L 140.982585 248.192366 
L 140.430898 248.050376 
L 140.328609 248.024017 
" clip-path="url(#pe027c8a40c)" style="fill: none; stroke: #000000; stroke-width: 0.05"/>
    <path d="M 181.001735 191.241006 
L 181.259735 190.452667 
L 181.517735 189.663426 
L 181.775664 188.873392 
L 182.033664 188.082224 
L 182.291664 187.290371 
L 182.549664 186.497491 
L 182.807665 185.703694 
L 182.967579 185.211103 
L 182.176626 182.249014 
L 180.140761 181.374139 
L 180.319694 179.240731 
L 178.864722 176.999806 
L 179.171017 176.240576 
L 179.477312 175.480613 
L 179.783607 174.719683 
L 180.089902 173.9579 
L 180.396197 173.195377 
L 180.397479 173.192248 
L 180.073163 172.448816 
L 179.748846 171.704452 
L 179.424458 170.959385 
L 179.100142 170.213497 
L 178.775825 169.466786 
L 178.451509 168.719249 
L 178.263102 168.284593 
L 179.256352 165.554982 
L 178.761294 165.123676 
L 178.266165 164.691976 
L 177.771106 164.259999 
L 177.275977 163.827745 
L 176.780919 163.39533 
L 176.285861 162.962637 
L 175.790731 162.529548 
L 175.295673 162.096179 
L 174.800615 161.662531 
L 174.450655 161.35598 
L 174.794062 160.622755 
L 175.137468 159.888846 
L 175.480875 159.154132 
L 175.824281 158.418494 
L 176.167616 157.682047 
L 176.511023 156.944906 
L 176.85443 156.206952 
L 177.197765 155.468064 
L 177.466877 154.888534 
L 177.289084 153.999992 
L 177.11129 153.110145 
L 176.933425 152.219109 
L 176.755632 151.326879 
L 176.577838 150.433571 
L 176.400045 149.538942 
L 176.22218 148.643228 
L 176.044386 147.746183 
L 175.866593 146.847924 
L 175.688799 145.948446 
L 175.511006 145.047867 
L 175.374028 144.35321 
" clip-path="url(#pe027c8a40c)" style="fill: none; stroke: #000000; stroke-width: 0.05"/>
    <path d="M 239.126338 109.351096 
L 240.65938 109.151946 
L 241.932 106.636598 
L 242.475211 106.390574 
L 243.018493 106.144456 
L 243.561775 105.898116 
L 244.104985 105.651809 
L 244.648196 105.405408 
L 245.191478 105.158785 
L 245.290529 105.11381 
" clip-path="url(#pe027c8a40c)" style="fill: none; stroke: #000000; stroke-width: 0.05"/>
    <path d="M 239.126338 109.351096 
L 240.65938 109.151946 
L 241.932 106.636598 
L 242.475211 106.390574 
L 243.018493 106.144456 
L 243.561775 105.898116 
L 244.104985 105.651809 
L 244.648196 105.405408 
L 245.191478 105.158785 
L 245.290529 105.11381 
" clip-path="url(#pe027c8a40c)" style="fill: none; stroke: #000000; stroke-width: 0.05"/>
    <path d="M 171.714586 221.527314 
L 173.903455 223.9669 
L 176.447627 224.594058 
L 177.648446 223.272345 
L 179.806187 224.241302 
L 180.885058 221.37771 
L 182.334831 221.519424 
L 182.845702 218.039988 
L 184.095742 219.095166 
L 185.317289 218.387908 
L 185.849245 218.655464 
L 186.381201 218.922919 
L 186.913157 219.190274 
L 187.445113 219.457528 
L 187.977069 219.724681 
L 188.509025 219.991734 
L 189.033716 220.255113 
L 190.447089 220.026394 
L 192.905712 221.857757 
L 195.455083 222.078003 
L 197.016333 220.980092 
L 197.554415 221.216722 
L 198.092497 221.453165 
L 198.630579 221.689637 
L 199.168661 221.926031 
L 199.706743 222.162346 
L 200.244825 222.398583 
L 200.517498 222.518183 
L 200.854637 224.676382 
L 199.791366 227.241855 
L 200.190119 227.833793 
L 200.588872 228.425243 
L 200.987697 229.016313 
L 201.386521 229.606682 
L 201.785275 230.196779 
L 201.912779 230.385328 
" clip-path="url(#pe027c8a40c)" style="fill: none; stroke: #000000; stroke-width: 0.05"/>
    <path d="M 98.685455 192.853945 
L 98.125291 192.850792 
L 97.565127 192.847639 
L 97.004892 192.844486 
L 96.444729 192.841334 
L 95.884565 192.838181 
L 95.762617 192.837505 
L 95.210217 191.577816 
L 95.521855 190.84023 
L 95.833421 190.101741 
L 96.144987 189.36246 
L 96.456624 188.622497 
L 96.76819 187.881738 
L 97.079828 187.140066 
L 97.168297 186.92931 
L 96.649661 186.591808 
L 96.130954 186.254139 
L 95.612319 185.916191 
L 95.093612 185.57819 
L 94.574976 185.240022 
L 94.056269 184.901687 
L 94.00947 184.871046 
L 91.366714 185.310606 
L 89.626531 181.995111 
L 88.586553 183.314148 
L 87.212 183.072976 
L 87.385805 181.782653 
L 85.97756 182.944019 
L 84.447368 182.082501 
L 83.581194 182.540428 
L 83.900168 183.866743 
L 82.139185 183.683964 
L 81.63679 184.080723 
L 81.134395 184.477252 
L 80.631929 184.873552 
L 80.129534 185.269623 
L 79.627068 185.665465 
L 79.124673 186.061079 
L 78.946666 186.201161 
L 78.416562 185.912096 
L 77.886458 185.622682 
L 77.356354 185.333373 
L 76.826249 185.043943 
L 76.296145 184.754276 
L 76.244289 184.725906 
L 74.66744 185.61722 
L 74.026927 183.704732 
" clip-path="url(#pe027c8a40c)" style="fill: none; stroke: #000000; stroke-width: 0.05"/>
    <path d="M 99.818817 202.090021 
L 98.293824 201.478874 
L 97.92627 202.138574 
L 97.558716 202.797651 
L 97.191162 203.455994 
L 96.823608 204.113939 
L 96.456054 204.771043 
L 96.0885 205.427641 
L 96.066063 205.46778 
L 97.635148 208.813238 
L 96.789631 210.510082 
" clip-path="url(#pe027c8a40c)" style="fill: none; stroke: #000000; stroke-width: 0.05"/>
    <path d="M 245.290529 124.528764 
L 244.873715 124.250384 
L 244.350306 123.900645 
L 243.826898 123.550718 
L 243.30349 123.200603 
L 242.780081 122.850299 
L 242.256744 122.499807 
L 242.18131 122.449275 
L 241.113196 123.0769 
" clip-path="url(#pe027c8a40c)" style="fill: none; stroke: #000000; stroke-width: 0.05"/>
    <path d="M 121.079964 125.733348 
L 121.545461 126.277617 
L 122.010958 126.821557 
L 122.476384 127.36492 
L 122.941881 127.907831 
L 123.407378 128.450415 
L 123.779776 128.88406 
L 126.03603 128.676566 
L 126.571049 128.965181 
L 127.106139 129.253669 
L 127.641158 129.542154 
L 128.176177 129.830388 
L 128.711196 130.118495 
L 128.953668 130.249029 
L 129.501081 130.042338 
L 130.048423 129.835583 
L 130.595837 129.628761 
L 131.143179 129.421875 
L 131.690592 129.214923 
L 131.993254 129.100527 
L 132.536465 129.337963 
L 133.079747 129.575314 
L 133.623028 129.812578 
L 134.16631 130.04988 
L 134.709521 130.287096 
L 135.252803 130.524103 
L 135.796085 130.761024 
L 136.210153 130.941559 
" clip-path="url(#pe027c8a40c)" style="fill: none; stroke: #000000; stroke-width: 0.05"/>
    <path d="M 132.182516 245.341057 
L 131.57306 242.456951 
" clip-path="url(#pe027c8a40c)" style="fill: none; stroke: #000000; stroke-width: 0.05"/>
    <path d="M 202.83088 232.225302 
L 201.881651 230.393014 
" clip-path="url(#pe027c8a40c)" style="fill: none; stroke: #000000; stroke-width: 0.05"/>
    <path d="M 123.598207 236.669867 
L 123.605971 236.669867 
" clip-path="url(#pe027c8a40c)" style="fill: none; stroke: #000000; stroke-width: 0.05"/>
    <path d="M 217.806833 273.312 
L 217.068968 271.939924 
L 215.291174 272.357803 
L 212.980855 271.18831 
L 212.217397 272.024366 
L 210.75231 271.228403 
L 209.118689 272.524064 
L 208.571917 272.351451 
L 208.025216 272.178596 
L 207.478515 272.005905 
L 206.931743 271.833072 
L 206.384971 271.6602 
L 205.83827 271.487289 
L 205.291569 271.314338 
L 204.744797 271.141347 
L 204.198025 270.968317 
L 203.651324 270.795247 
L 203.104623 270.622137 
L 202.557851 270.449089 
L 202.011078 270.275798 
L 201.464377 270.10267 
L 201.040907 269.968347 
L 200.480886 269.987567 
L 199.920864 270.006887 
L 199.360843 270.026105 
L 198.800822 270.045323 
L 198.240801 270.064642 
L 197.680708 270.083858 
L 197.120687 270.103075 
L 196.976657 270.107929 
L 196.585098 270.67651 
L 196.193468 271.244561 
L 195.801838 271.812184 
L 195.410208 272.379483 
L 195.018577 272.946255 
L 194.86429 273.1695 
L 194.383906 272.761947 
L 193.903521 272.354072 
L 193.423137 271.945978 
L 192.942752 271.537864 
L 192.462368 271.129328 
L 191.981983 270.720571 
L 191.501599 270.311693 
L 191.446109 270.264473 
L 189.803656 270.640936 
L 189.790051 271.435095 
L 189.776374 272.22842 
L 189.762698 273.020912 
L 189.757697 273.312 
" clip-path="url(#pe027c8a40c)" style="fill: none; stroke: #000000; stroke-width: 0.05"/>
    <path d="M 218.444731 261.027245 
L 219.658514 263.095225 
L 219.099347 265.544766 
L 220.947232 266.298582 
L 219.94351 268.132764 
L 220.467275 268.415624 
L 220.991111 268.698176 
L 221.514804 268.980824 
L 222.038639 269.263164 
L 222.562404 269.5456 
L 223.086168 269.827728 
L 223.610004 270.109851 
L 223.935389 270.285101 
L 221.279455 270.324837 
L 220.270249 273.304363 
L 220.285072 273.312 
" clip-path="url(#pe027c8a40c)" style="fill: none; stroke: #000000; stroke-width: 0.05"/>
    <path d="M 197.599718 253.342275 
L 194.862438 252.618583 
L 194.766276 254.386666 
L 193.086782 254.388215 
L 192.5695 254.700191 
L 192.05236 255.012139 
L 191.535149 255.323954 
L 191.018009 255.635536 
L 190.500797 255.946986 
L 189.983586 256.258408 
L 189.466446 256.569699 
L 188.949235 256.880859 
L 188.432024 257.191786 
L 188.390283 257.216893 
L 189.351906 259.067856 
L 189.081156 261.585364 
L 188.559315 261.877764 
L 188.037473 262.17005 
L 187.515561 262.462222 
L 186.99372 262.754279 
L 186.471879 263.046222 
L 185.950037 263.338051 
L 185.505055 263.586817 
L 186.436049 264.210612 
L 185.534117 265.021776 
L 186.291877 266.186148 
L 185.779652 267.02544 
L 184.052932 267.630144 
L 182.099055 266.039124 
L 180.938197 266.94785 
L 178.980972 264.623945 
L 178.265381 266.527262 
L 176.763253 266.969279 
L 176.205797 266.890871 
L 175.64834 266.812556 
L 175.090812 266.734131 
L 174.533355 266.655698 
L 173.975827 266.577257 
L 173.741903 266.544333 
L 173.189788 266.679676 
L 172.637745 266.815095 
L 172.08563 266.950491 
L 171.533516 267.08576 
L 170.981472 267.221005 
L 170.429358 267.356327 
L 170.165232 267.420984 
L 169.443515 266.664537 
" clip-path="url(#pe027c8a40c)" style="fill: none; stroke: #000000; stroke-width: 0.05"/>
   </g>
   <g id="LineCollection_3"/>
   <g id="line2d_1">
    <path d="M 151.483073 171.722363 
L 140.901711 170.198486 
L 140.901711 170.198486 
" clip-path="url(#pe027c8a40c)" style="fill: none; stroke: #0000ff; stroke-width: 0.125; stroke-linecap: square"/>
   </g>
   <g id="line2d_2">
    <path d="M 151.483073 171.722363 
L 163.394472 167.679941 
L 167.764519 166.255547 
L 167.764519 166.255547 
" clip-path="url(#pe027c8a40c)" style="fill: none; stroke: #0000ff; stroke-width: 0.125; stroke-linecap: square"/>
   </g>
   <g id="line2d_3">
    <path d="M 140.901711 170.198486 
L 133.431531 168.612297 
L 133.431531 168.612297 
" clip-path="url(#pe027c8a40c)" style="fill: none; stroke: #0000ff; stroke-width: 0.125; stroke-linecap: square"/>
   </g>
   <g id="line2d_4">
    <path d="M 155.906866 141.809456 
L 159.823596 116.142715 
L 159.823596 116.142715 
" clip-path="url(#pe027c8a40c)" style="fill: none; stroke: #0000ff; stroke-width: 0.125; stroke-linecap: square"/>
   </g>
   <g id="line2d_5">
    <path d="M 155.906866 141.809456 
L 153.197897 152.875219 
L 153.197897 152.875219 
" clip-path="url(#pe027c8a40c)" style="fill: none; stroke: #0000ff; stroke-width: 0.125; stroke-linecap: square"/>
   </g>
   <g id="line2d_6">
    <path d="M 167.764519 166.255547 
L 157.288337 156.573568 
L 153.197897 152.875219 
L 153.197897 152.875219 
" clip-path="url(#pe027c8a40c)" style="fill: none; stroke: #0000ff; stroke-width: 0.125; stroke-linecap: square"/>
   </g>
   <g id="line2d_7">
    <path d="M 167.764519 166.255547 
L 170.824911 188.49795 
L 170.824911 188.49795 
" clip-path="url(#pe027c8a40c)" style="fill: none; stroke: #0000ff; stroke-width: 0.125; stroke-linecap: square"/>
   </g>
   <g id="line2d_8">
    <path d="M 158.061716 184.196277 
L 170.065539 188.23459 
L 170.824911 188.49795 
L 170.824911 188.49795 
" clip-path="url(#pe027c8a40c)" style="fill: none; stroke: #0000ff; stroke-width: 0.125; stroke-linecap: square"/>
   </g>
   <g id="line2d_9">
    <path d="M 158.061716 184.196277 
L 146.250266 189.2048 
L 145.569931 189.500623 
L 145.569931 189.500623 
" clip-path="url(#pe027c8a40c)" style="fill: none; stroke: #0000ff; stroke-width: 0.125; stroke-linecap: square"/>
   </g>
   <g id="line2d_10">
    <path d="M 145.569931 189.500623 
L 144.947564 200.048066 
L 144.947564 200.048066 
" clip-path="url(#pe027c8a40c)" style="fill: none; stroke: #0000ff; stroke-width: 0.125; stroke-linecap: square"/>
   </g>
   <g id="line2d_11">
    <path d="M 144.947564 200.048066 
L 145.896707 211.907585 
L 145.896707 211.907585 
" clip-path="url(#pe027c8a40c)" style="fill: none; stroke: #0000ff; stroke-width: 0.125; stroke-linecap: square"/>
   </g>
   <g id="line2d_12">
    <path d="M 145.896707 211.907585 
L 158.132355 208.111635 
L 170.340044 204.557006 
L 177.20108 202.660638 
L 177.20108 202.660638 
" clip-path="url(#pe027c8a40c)" style="fill: none; stroke: #0000ff; stroke-width: 0.125; stroke-linecap: square"/>
   </g>
   <g id="line2d_13">
    <path d="M 145.896707 211.907585 
L 149.304508 221.621668 
L 149.304508 221.621668 
" clip-path="url(#pe027c8a40c)" style="fill: none; stroke: #0000ff; stroke-width: 0.125; stroke-linecap: square"/>
   </g>
   <g id="line2d_14">
    <path d="M 145.896707 211.907585 
L 135.325801 207.007927 
L 135.325801 207.007927 
" clip-path="url(#pe027c8a40c)" style="fill: none; stroke: #0000ff; stroke-width: 0.125; stroke-linecap: square"/>
   </g>
   <g id="line2d_15">
    <path d="M 177.20108 202.660638 
L 188.664698 209.79386 
L 197.648677 215.567723 
L 197.648677 215.567723 
" clip-path="url(#pe027c8a40c)" style="fill: none; stroke: #0000ff; stroke-width: 0.125; stroke-linecap: square"/>
   </g>
   <g id="line2d_16">
    <path d="M 211.277596 52.569499 
L 201.804957 63.492363 
L 192.391612 74.684208 
L 183.05037 86.132554 
L 173.669911 97.982211 
L 164.3922 110.060658 
L 159.823596 116.142715 
L 159.823596 116.142715 
" clip-path="url(#pe027c8a40c)" style="fill: none; stroke: #0000ff; stroke-width: 0.125; stroke-linecap: square"/>
   </g>
   <g id="line2d_17">
    <path d="M 153.197897 152.875219 
L 141.10573 151.045086 
L 135.922307 150.32944 
L 135.922307 150.32944 
" clip-path="url(#pe027c8a40c)" style="fill: none; stroke: #0000ff; stroke-width: 0.125; stroke-linecap: square"/>
   </g>
   <g id="line2d_18">
    <path d="M 103.089124 192.214135 
L 105.823114 185.95608 
L 105.823114 185.95608 
" clip-path="url(#pe027c8a40c)" style="fill: none; stroke: #0000ff; stroke-width: 0.125; stroke-linecap: square"/>
   </g>
   <g id="line2d_19">
    <path d="M 105.823114 185.95608 
L 108.068621 182.544612 
L 108.068621 182.544612 
" clip-path="url(#pe027c8a40c)" style="fill: none; stroke: #0000ff; stroke-width: 0.125; stroke-linecap: square"/>
   </g>
   <g id="line2d_20">
    <path d="M 105.823114 185.95608 
L 107.495644 190.070321 
L 107.495644 190.070321 
" clip-path="url(#pe027c8a40c)" style="fill: none; stroke: #0000ff; stroke-width: 0.125; stroke-linecap: square"/>
   </g>
   <g id="line2d_21">
    <path d="M 105.823114 185.95608 
L 107.446161 190.241745 
L 107.446161 190.241745 
" clip-path="url(#pe027c8a40c)" style="fill: none; stroke: #0000ff; stroke-width: 0.125; stroke-linecap: square"/>
   </g>
   <g id="line2d_22">
    <path d="M 105.823114 185.95608 
L 99.355388 192.559127 
L 99.355388 192.559127 
" clip-path="url(#pe027c8a40c)" style="fill: none; stroke: #0000ff; stroke-width: 0.125; stroke-linecap: square"/>
   </g>
   <g id="line2d_23">
    <path d="M 107.446161 190.241745 
L 108.846627 193.198294 
L 108.846627 193.198294 
" clip-path="url(#pe027c8a40c)" style="fill: none; stroke: #0000ff; stroke-width: 0.125; stroke-linecap: square"/>
   </g>
   <g id="line2d_24">
    <path d="M 108.846627 193.198294 
L 120.27166 200.144749 
L 123.629295 202.23554 
L 123.629295 202.23554 
" clip-path="url(#pe027c8a40c)" style="fill: none; stroke: #0000ff; stroke-width: 0.125; stroke-linecap: square"/>
   </g>
   <g id="line2d_25">
    <path d="M 108.068621 182.544612 
L 112.114382 181.545064 
L 112.114382 181.545064 
" clip-path="url(#pe027c8a40c)" style="fill: none; stroke: #0000ff; stroke-width: 0.125; stroke-linecap: square"/>
   </g>
   <g id="line2d_26">
    <path d="M 197.648677 215.567723 
L 202.297927 230.279906 
L 202.297927 230.279906 
" clip-path="url(#pe027c8a40c)" style="fill: none; stroke: #0000ff; stroke-width: 0.125; stroke-linecap: square"/>
   </g>
   <g id="line2d_27">
    <path d="M 195.418817 229.486623 
L 182.78809 229.482667 
L 170.161136 229.701655 
L 157.545763 230.143127 
L 150.631776 230.47956 
L 150.631776 230.47956 
" clip-path="url(#pe027c8a40c)" style="fill: none; stroke: #0000ff; stroke-width: 0.125; stroke-linecap: square"/>
   </g>
   <g id="line2d_28">
    <path d="M 195.418817 229.486623 
L 202.297927 230.279906 
L 202.297927 230.279906 
" clip-path="url(#pe027c8a40c)" style="fill: none; stroke: #0000ff; stroke-width: 0.125; stroke-linecap: square"/>
   </g>
   <g id="line2d_29">
    <path d="M 123.451809 202.419995 
L 123.629295 202.23554 
L 123.629295 202.23554 
" clip-path="url(#pe027c8a40c)" style="fill: none; stroke: #0000ff; stroke-width: 0.125; stroke-linecap: square"/>
   </g>
   <g id="line2d_30">
    <path d="M 144.169465 227.26521 
L 131.996393 222.746975 
L 128.238602 221.399953 
L 128.238602 221.399953 
" clip-path="url(#pe027c8a40c)" style="fill: none; stroke: #0000ff; stroke-width: 0.125; stroke-linecap: square"/>
   </g>
   <g id="line2d_31">
    <path d="M 144.169465 227.26521 
L 150.631776 230.47956 
L 150.631776 230.47956 
" clip-path="url(#pe027c8a40c)" style="fill: none; stroke: #0000ff; stroke-width: 0.125; stroke-linecap: square"/>
   </g>
   <g id="line2d_32">
    <path d="M 41.212933 181.955082 
L 53.553052 182.972629 
L 65.852664 184.21073 
L 78.104124 185.666749 
L 90.300009 187.337625 
L 102.596651 189.246755 
L 107.495644 190.070321 
L 107.495644 190.070321 
" clip-path="url(#pe027c8a40c)" style="fill: none; stroke: #0000ff; stroke-width: 0.125; stroke-linecap: square"/>
   </g>
   <g id="line2d_33">
    <path d="M 120.851703 218.241696 
L 128.238602 221.399953 
L 128.238602 221.399953 
" clip-path="url(#pe027c8a40c)" style="fill: none; stroke: #0000ff; stroke-width: 0.125; stroke-linecap: square"/>
   </g>
   <g id="line2d_34">
    <path d="M 120.851703 218.241696 
L 121.588255 211.325019 
L 121.588255 211.325019 
" clip-path="url(#pe027c8a40c)" style="fill: none; stroke: #0000ff; stroke-width: 0.125; stroke-linecap: square"/>
   </g>
   <g id="line2d_35">
    <path d="M 149.304508 221.621668 
L 150.631776 230.47956 
L 150.631776 230.47956 
" clip-path="url(#pe027c8a40c)" style="fill: none; stroke: #0000ff; stroke-width: 0.125; stroke-linecap: square"/>
   </g>
   <g id="line2d_36">
    <path d="M 122.300833 241.075743 
L 123.629295 202.23554 
L 123.629295 202.23554 
" clip-path="url(#pe027c8a40c)" style="fill: none; stroke: #0000ff; stroke-width: 0.125; stroke-linecap: square"/>
   </g>
   <g id="line2d_37">
    <path d="M 135.325801 207.007927 
L 123.629295 202.23554 
L 123.629295 202.23554 
" clip-path="url(#pe027c8a40c)" style="fill: none; stroke: #0000ff; stroke-width: 0.125; stroke-linecap: square"/>
   </g>
   <g id="line2d_38">
    <path d="M 123.629295 202.23554 
L 121.588255 211.325019 
L 121.588255 211.325019 
" clip-path="url(#pe027c8a40c)" style="fill: none; stroke: #0000ff; stroke-width: 0.125; stroke-linecap: square"/>
   </g>
   <g id="line2d_39">
    <path d="M 137.181699 138.096012 
L 147.382622 128.016216 
L 157.612112 118.22013 
L 159.823596 116.142715 
L 159.823596 116.142715 
" clip-path="url(#pe027c8a40c)" style="fill: none; stroke: #0000ff; stroke-width: 0.125; stroke-linecap: square"/>
   </g>
   <g id="line2d_40">
    <path d="M 137.181699 138.096012 
L 135.922307 150.32944 
L 135.922307 150.32944 
" clip-path="url(#pe027c8a40c)" style="fill: none; stroke: #0000ff; stroke-width: 0.125; stroke-linecap: square"/>
   </g>
   <g id="line2d_41">
    <path d="M 112.114382 181.545064 
L 120.828362 175.769416 
L 120.828362 175.769416 
" clip-path="url(#pe027c8a40c)" style="fill: none; stroke: #0000ff; stroke-width: 0.125; stroke-linecap: square"/>
   </g>
   <g id="line2d_42">
    <path d="M 120.828362 175.769416 
L 122.228828 173.748983 
L 122.228828 173.748983 
" clip-path="url(#pe027c8a40c)" style="fill: none; stroke: #0000ff; stroke-width: 0.125; stroke-linecap: square"/>
   </g>
   <g id="line2d_43">
    <path d="M 122.228828 173.748983 
L 123.629295 172.229663 
L 123.629295 172.229663 
" clip-path="url(#pe027c8a40c)" style="fill: none; stroke: #0000ff; stroke-width: 0.125; stroke-linecap: square"/>
   </g>
   <g id="line2d_44">
    <path d="M 123.629295 172.229663 
L 133.431531 168.612297 
L 133.431531 168.612297 
" clip-path="url(#pe027c8a40c)" style="fill: none; stroke: #0000ff; stroke-width: 0.125; stroke-linecap: square"/>
   </g>
   <g id="line2d_45">
    <path d="M 124.791121 157.749945 
L 133.431531 168.612297 
L 133.431531 168.612297 
" clip-path="url(#pe027c8a40c)" style="fill: none; stroke: #0000ff; stroke-width: 0.125; stroke-linecap: square"/>
   </g>
   <g id="line2d_46">
    <path d="M 124.791121 157.749945 
L 135.89424 150.347813 
L 135.922307 150.32944 
L 135.922307 150.32944 
" clip-path="url(#pe027c8a40c)" style="fill: none; stroke: #0000ff; stroke-width: 0.125; stroke-linecap: square"/>
   </g>
   <g id="patch_3">
    <path d="M 7.2 273.312 
L 7.2 7.2 
" style="fill: none; stroke: #000000; stroke-width: 0.8; stroke-linejoin: miter; stroke-linecap: square"/>
   </g>
   <g id="patch_4">
    <path d="M 245.290529 273.312 
L 245.290529 7.2 
" style="fill: none; stroke: #000000; stroke-width: 0.8; stroke-linejoin: miter; stroke-linecap: square"/>
   </g>
   <g id="patch_5">
    <path d="M 7.2 273.312 
L 245.290529 273.312 
" style="fill: none; stroke: #000000; stroke-width: 0.8; stroke-linejoin: miter; stroke-linecap: square"/>
   </g>
   <g id="patch_6">
    <path d="M 7.2 7.2 
L 245.290529 7.2 
" style="fill: none; stroke: #000000; stroke-width: 0.8; stroke-linejoin: miter; stroke-linecap: square"/>
   </g>
   <g id="PathCollection_1">
    <defs>
     <path id="m7fabb2aebd" d="M 0 0.125 
C 0.03315 0.125 0.064947 0.111829 0.088388 0.088388 
C 0.111829 0.064947 0.125 0.03315 0.125 0 
C 0.125 -0.03315 0.111829 -0.064947 0.088388 -0.088388 
C 0.064947 -0.111829 0.03315 -0.125 0 -0.125 
C -0.03315 -0.125 -0.064947 -0.111829 -0.088388 -0.088388 
C -0.111829 -0.064947 -0.125 -0.03315 -0.125 0 
C -0.125 0.03315 -0.111829 0.064947 -0.088388 0.088388 
C -0.064947 0.111829 -0.03315 0.125 0 0.125 
z
" style="stroke: #ff0000"/>
    </defs>
    <g clip-path="url(#pe027c8a40c)">
     <use xlink:href="#m7fabb2aebd" x="151.483073" y="171.722363" style="fill: #ff0000; stroke: #ff0000"/>
     <use xlink:href="#m7fabb2aebd" x="140.901711" y="170.198486" style="fill: #ff0000; stroke: #ff0000"/>
     <use xlink:href="#m7fabb2aebd" x="155.906866" y="141.809456" style="fill: #ff0000; stroke: #ff0000"/>
     <use xlink:href="#m7fabb2aebd" x="167.764519" y="166.255547" style="fill: #ff0000; stroke: #ff0000"/>
     <use xlink:href="#m7fabb2aebd" x="158.061716" y="184.196277" style="fill: #ff0000; stroke: #ff0000"/>
     <use xlink:href="#m7fabb2aebd" x="170.824911" y="188.49795" style="fill: #ff0000; stroke: #ff0000"/>
     <use xlink:href="#m7fabb2aebd" x="145.569931" y="189.500623" style="fill: #ff0000; stroke: #ff0000"/>
     <use xlink:href="#m7fabb2aebd" x="144.947564" y="200.048066" style="fill: #ff0000; stroke: #ff0000"/>
     <use xlink:href="#m7fabb2aebd" x="145.896707" y="211.907585" style="fill: #ff0000; stroke: #ff0000"/>
     <use xlink:href="#m7fabb2aebd" x="177.20108" y="202.660638" style="fill: #ff0000; stroke: #ff0000"/>
     <use xlink:href="#m7fabb2aebd" x="211.277596" y="52.569499" style="fill: #ff0000; stroke: #ff0000"/>
     <use xlink:href="#m7fabb2aebd" x="153.197897" y="152.875219" style="fill: #ff0000; stroke: #ff0000"/>
     <use xlink:href="#m7fabb2aebd" x="103.089124" y="192.214135" style="fill: #ff0000; stroke: #ff0000"/>
     <use xlink:href="#m7fabb2aebd" x="105.823114" y="185.95608" style="fill: #ff0000; stroke: #ff0000"/>
     <use xlink:href="#m7fabb2aebd" x="107.446161" y="190.241745" style="fill: #ff0000; stroke: #ff0000"/>
     <use xlink:href="#m7fabb2aebd" x="108.846627" y="193.198294" style="fill: #ff0000; stroke: #ff0000"/>
     <use xlink:href="#m7fabb2aebd" x="108.068621" y="182.544612" style="fill: #ff0000; stroke: #ff0000"/>
     <use xlink:href="#m7fabb2aebd" x="197.648677" y="215.567723" style="fill: #ff0000; stroke: #ff0000"/>
     <use xlink:href="#m7fabb2aebd" x="195.418817" y="229.486623" style="fill: #ff0000; stroke: #ff0000"/>
     <use xlink:href="#m7fabb2aebd" x="202.297927" y="230.279906" style="fill: #ff0000; stroke: #ff0000"/>
     <use xlink:href="#m7fabb2aebd" x="123.451809" y="202.419995" style="fill: #ff0000; stroke: #ff0000"/>
     <use xlink:href="#m7fabb2aebd" x="144.169465" y="227.26521" style="fill: #ff0000; stroke: #ff0000"/>
     <use xlink:href="#m7fabb2aebd" x="99.355388" y="192.559127" style="fill: #ff0000; stroke: #ff0000"/>
     <use xlink:href="#m7fabb2aebd" x="41.212933" y="181.955082" style="fill: #ff0000; stroke: #ff0000"/>
     <use xlink:href="#m7fabb2aebd" x="120.851703" y="218.241696" style="fill: #ff0000; stroke: #ff0000"/>
     <use xlink:href="#m7fabb2aebd" x="128.238602" y="221.399953" style="fill: #ff0000; stroke: #ff0000"/>
     <use xlink:href="#m7fabb2aebd" x="149.304508" y="221.621668" style="fill: #ff0000; stroke: #ff0000"/>
     <use xlink:href="#m7fabb2aebd" x="150.631776" y="230.47956" style="fill: #ff0000; stroke: #ff0000"/>
     <use xlink:href="#m7fabb2aebd" x="122.300833" y="241.075743" style="fill: #ff0000; stroke: #ff0000"/>
     <use xlink:href="#m7fabb2aebd" x="135.325801" y="207.007927" style="fill: #ff0000; stroke: #ff0000"/>
     <use xlink:href="#m7fabb2aebd" x="123.629295" y="202.23554" style="fill: #ff0000; stroke: #ff0000"/>
     <use xlink:href="#m7fabb2aebd" x="121.588255" y="211.325019" style="fill: #ff0000; stroke: #ff0000"/>
     <use xlink:href="#m7fabb2aebd" x="137.181699" y="138.096012" style="fill: #ff0000; stroke: #ff0000"/>
     <use xlink:href="#m7fabb2aebd" x="159.823596" y="116.142715" style="fill: #ff0000; stroke: #ff0000"/>
     <use xlink:href="#m7fabb2aebd" x="107.495644" y="190.070321" style="fill: #ff0000; stroke: #ff0000"/>
     <use xlink:href="#m7fabb2aebd" x="112.114382" y="181.545064" style="fill: #ff0000; stroke: #ff0000"/>
     <use xlink:href="#m7fabb2aebd" x="120.828362" y="175.769416" style="fill: #ff0000; stroke: #ff0000"/>
     <use xlink:href="#m7fabb2aebd" x="122.228828" y="173.748983" style="fill: #ff0000; stroke: #ff0000"/>
     <use xlink:href="#m7fabb2aebd" x="123.629295" y="172.229663" style="fill: #ff0000; stroke: #ff0000"/>
     <use xlink:href="#m7fabb2aebd" x="124.791121" y="157.749945" style="fill: #ff0000; stroke: #ff0000"/>
     <use xlink:href="#m7fabb2aebd" x="133.431531" y="168.612297" style="fill: #ff0000; stroke: #ff0000"/>
     <use xlink:href="#m7fabb2aebd" x="135.922307" y="150.32944" style="fill: #ff0000; stroke: #ff0000"/>
    </g>
   </g>
   <g id="PathCollection_2">
    <defs>
     <path id="m1737ee39bf" d="M 0 0.125 
C 0.03315 0.125 0.064947 0.111829 0.088388 0.088388 
C 0.111829 0.064947 0.125 0.03315 0.125 0 
C 0.125 -0.03315 0.111829 -0.064947 0.088388 -0.088388 
C 0.064947 -0.111829 0.03315 -0.125 0 -0.125 
C -0.03315 -0.125 -0.064947 -0.111829 -0.088388 -0.088388 
C -0.111829 -0.064947 -0.125 -0.03315 -0.125 0 
C -0.125 0.03315 -0.111829 0.064947 -0.088388 0.088388 
C -0.064947 0.111829 -0.03315 0.125 0 0.125 
z
" style="stroke: #ffff00"/>
    </defs>
    <g clip-path="url(#pe027c8a40c)">
     <use xlink:href="#m1737ee39bf" x="153.197897" y="152.875219" style="fill: #ffff00; stroke: #ffff00"/>
    </g>
   </g>
  </g>
 </g>
 <defs>
  <clipPath id="pe027c8a40c">
   <rect x="7.2" y="7.2" width="238.090529" height="266.112"/>
  </clipPath>
 </defs>
</svg>
